<?xml version="1.0" encoding="UTF-8"?>
<svg version="1.1" xmlns="http://www.w3.org/2000/svg" width="803" height="640">
<path d="M0 0 C2.375 0 2.375 0 5 1 C7.9933047 6.13137948 8.6143173 11.13496304 9 17 C9.66 17 10.32 17 11 17 C11.25394531 17.62648438 11.50789062 18.25296875 11.76953125 18.8984375 C12.11371094 19.71570313 12.45789063 20.53296875 12.8125 21.375 C13.14894531 22.18710937 13.48539063 22.99921875 13.83203125 23.8359375 C14.94439082 26.30147458 14.94439082 26.30147458 18 28 C20.47624354 28.41926449 20.47624354 28.41926449 23.125 28.5625 C27.90171607 28.90171607 27.90171607 28.90171607 29 30 C30.68608966 30.07205511 32.37500659 30.08386068 34.0625 30.0625 C34.98160156 30.05347656 35.90070312 30.04445313 36.84765625 30.03515625 C37.55792969 30.02355469 38.26820313 30.01195313 39 30 C39 29.01 39 28.02 39 27 C40.134375 26.5875 41.26875 26.175 42.4375 25.75 C46.11915178 24.46196337 46.11915178 24.46196337 46.72265625 21.890625 C46.81417969 21.26671875 46.90570312 20.6428125 47 20 C48.45880109 20.14107747 49.91703551 20.28802415 51.375 20.4375 C52.59316406 20.55931641 52.59316406 20.55931641 53.8359375 20.68359375 C56 21 56 21 58 22 C58 26.29 58 30.58 58 35 C60.31 35 62.62 35 65 35 C65.6875 37.1875 65.6875 37.1875 66 40 C65.319375 41.11375 65.319375 41.11375 64.625 42.25 C62.38378247 46.04282967 62.27386019 49.6654543 62 54 C62.99 54.33 63.98 54.66 65 55 C67.07530387 57.92079805 68 59.37546731 68 63 C68.66 63 69.32 63 70 63 C72.39354333 73.01108998 71.06472142 84.27314567 70.625 94.5 C70.57883545 95.73568726 70.57883545 95.73568726 70.53173828 96.99633789 C70.27552793 102.24333443 69.42693835 106.9419096 68 112 C67.34 112 66.68 112 66 112 C65.67 118.93 65.34 125.86 65 133 C61 132 61 132 59 129 C55.49344259 126.53242256 52.17266844 126.83951275 48 127 C47.18079528 129.27028025 47.18079528 129.27028025 47 132 C48.39299032 134.43848662 48.39299032 134.43848662 50.4375 136.625 C54 140.71037182 54 140.71037182 54 144 C51.03 144 48.06 144 45 144 C45.165 145.03125 45.33 146.0625 45.5 147.125 C45.68450544 148.74807132 45.84804053 150.37355876 46 152 C46.1546875 153.64935547 46.1546875 153.64935547 46.3125 155.33203125 C46.63365627 161.50759868 46.74209929 165.96595666 42.875 171 C41.6222073 172.36992372 40.3311694 173.70610334 39 175 C38.12601563 175.87785156 38.12601563 175.87785156 37.234375 176.7734375 C36.70328125 177.30195313 36.1721875 177.83046875 35.625 178.375 C32.40872954 181.59127046 32.04953597 183.05881652 31.8125 187.5625 C31.61995935 191.06498936 31.61995935 191.06498936 34 193 C38.65194714 193.34216235 38.65194714 193.34216235 43 192 C44.99960012 191.960008 47.00047242 191.95653201 49 192 C49 192.66 49 193.32 49 194 C49.66 194 50.32 194 51 194 C49.12408063 198.45772593 46.57162928 200.33903708 42.4609375 202.75 C37.10917516 204.68291642 31.78587175 204.68891625 26.13330078 204.6862793 C20.94147131 204.71289634 17.54587527 205.19990515 13 208 C11.9275 208.61875 10.855 209.2375 9.75 209.875 C6.84780754 211.74072459 6.84780754 211.74072459 6 214.5625 C5 217 5 217 2 218.8125 C-1 220 -1 220 -3 220 C-3.33 221.65 -3.66 223.3 -4 225 C-10.27 225 -16.54 225 -23 225 C-23 225.66 -23 226.32 -23 227 C-23.83144531 227.17015625 -24.66289063 227.3403125 -25.51953125 227.515625 C-26.60621094 227.75796875 -27.69289063 228.0003125 -28.8125 228.25 C-29.89144531 228.48203125 -30.97039063 228.7140625 -32.08203125 228.953125 C-35.36683856 230.13161009 -36.12521635 231.16496131 -38 234 C-40.6875 234.75 -40.6875 234.75 -43 235 C-43 235.66 -43 236.32 -43 237 C-44.609375 238.55078125 -44.609375 238.55078125 -46.75 240.3125 C-49.91209118 242.98854537 -52.47706813 245.7007814 -55 249 C-55.66 249.33 -56.32 249.66 -57 250 C-58.09666209 252.27299769 -58.09666209 252.27299769 -59.0625 254.9375 C-60.96969697 259.93939394 -60.96969697 259.93939394 -62 262 C-62.66 262 -63.32 262 -64 262 C-64 263.65 -64 265.3 -64 267 C-64.66 267 -65.32 267 -66 267 C-65.938125 268.5159375 -65.938125 268.5159375 -65.875 270.0625 C-66 274 -66 274 -66.98046875 277.2578125 C-69.16721175 285.28424849 -69.42287715 294.92641808 -66.125 302.6875 C-63.02422587 307.98911095 -58.49311474 309.76551265 -53 312 C-52.01 312.66 -51.02 313.32 -50 314 C-50 315.32 -50 316.64 -50 318 C-51.3921875 318.4021875 -51.3921875 318.4021875 -52.8125 318.8125 C-56.53445339 320.15883499 -56.53445339 320.15883499 -59 323 C-60.42900495 327.06138248 -61.38076822 330.68462679 -61 335 C-58.94077598 337.05922402 -54.78291876 336.41427579 -51.9375 336.5625 C-51.17888672 336.60568359 -50.42027344 336.64886719 -49.63867188 336.69335938 C-47.75934562 336.79973633 -45.87969756 336.90039934 -44 337 C-43.67 335.35 -43.34 333.7 -43 332 C-42.67 332.99 -42.34 333.98 -42 335 C-41.34 335 -40.68 335 -40 335 C-38.68373308 338.61973402 -38 341.09567131 -38 345 C-38.639375 345.103125 -39.27875 345.20625 -39.9375 345.3125 C-40.618125 345.539375 -41.29875 345.76625 -42 346 C-42.33 346.99 -42.66 347.98 -43 349 C-43.99 349 -44.98 349 -46 349 C-46.433125 348.030625 -46.86625 347.06125 -47.3125 346.0625 C-48.7014861 342.72268235 -48.7014861 342.72268235 -52 342 C-52 343.65 -52 345.3 -52 347 C-53.32 347.33 -54.64 347.66 -56 348 C-56.20625 347.195625 -56.4125 346.39125 -56.625 345.5625 C-57.07875 344.716875 -57.5325 343.87125 -58 343 C-61.04166843 342.2984815 -61.04166843 342.2984815 -64 342 C-64.05607422 343.37285156 -64.05607422 343.37285156 -64.11328125 344.7734375 C-64.17902344 345.96195312 -64.24476563 347.15046875 -64.3125 348.375 C-64.39951172 350.15003906 -64.39951172 350.15003906 -64.48828125 351.9609375 C-64.65714844 352.96382813 -64.82601562 353.96671875 -65 355 C-65.99 355.66 -66.98 356.32 -68 357 C-68.58342353 360.45769191 -68.58342353 360.45769191 -68 364 C-66.13875077 365.98239527 -66.13875077 365.98239527 -64 367 C-64.66 367.4125 -65.32 367.825 -66 368.25 C-66.66 368.8275 -67.32 369.405 -68 370 C-68 371.32 -68 372.64 -68 374 C-64.52674819 375.1577506 -61.63932552 375.06866652 -58 375 C-57.67 372.69 -57.34 370.38 -57 368 C-56.34 368 -55.68 368 -55 368 C-53.375 370 -53.375 370 -52 372 C-49.13275314 371.42655063 -48.1385485 371.1385485 -46 369 C-43.85258095 369.01168663 -41.70532863 369.10917884 -39.5625 369.25 C-32.81958848 369.38874304 -28.81571071 367.94510798 -23.20703125 364.3125 C-21 363 -21 363 -18 363 C-18 363.99 -18 364.98 -18 366 C-18.639375 366.37125 -19.27875 366.7425 -19.9375 367.125 C-22.8805234 369.80047582 -22.6522672 372.29480765 -22.921875 376.13671875 C-22.96054688 377.05904297 -22.96054688 377.05904297 -23 378 C-24.65 378.66 -26.3 379.32 -28 380 C-28 381.65 -28 383.3 -28 385 C-28.99 385 -29.98 385 -31 385 C-31.33 384.01 -31.66 383.02 -32 382 C-41.63156272 376.46697461 -56.8094187 377.93332693 -67.125 380.5 C-68.75673 380.97757951 -70.38517429 381.46805741 -72 382 C-71.78896854 389.19483447 -71.78896854 389.19483447 -69.5625 395.9375 C-66.4431941 398.44816084 -63.33658673 399.53244104 -59.609375 400.921875 C-55.49622114 402.6213218 -51.94887933 404.62138449 -49 408 C-48.10734822 410.34823711 -47.65262721 412.45898348 -47.3515625 414.94921875 C-47.09082589 417.30374451 -47.09082589 417.30374451 -45 420 C-45 421.32 -45 422.64 -45 424 C-47.97 423.67 -50.94 423.34 -54 423 C-54.12375 423.763125 -54.2475 424.52625 -54.375 425.3125 C-55 428 -55 428 -57 431 C-60.125 431.6875 -60.125 431.6875 -63 432 C-62.88556397 434.0839403 -62.75804453 436.16716493 -62.625 438.25 C-62.55539062 439.41015625 -62.48578125 440.5703125 -62.4140625 441.765625 C-62.03009713 444.76490165 -61.41648374 446.4050018 -60 449 C-59.64207936 453.83192861 -60.24230064 457.49589539 -62 462 C-62.66 462 -63.32 462 -64 462 C-63.9278125 462.63164062 -63.855625 463.26328125 -63.78125 463.9140625 C-62.98452253 471.59363007 -62.63036733 479.28120009 -63 487 C-64.56305491 488.56305491 -66.27678218 488.30639968 -68.4375 488.5 C-71.84497505 488.79146944 -71.84497505 488.79146944 -75 490 C-75.35773958 493.75626559 -75.13556761 495.73929307 -73.375 499.125 C-70.84124917 502.19217205 -68.32367504 503.85345987 -65 506 C-61.79408497 509.11431746 -60.6797477 511.83557953 -59.5625 516.0625 C-58.51617478 520.14784137 -58.51617478 520.14784137 -55.4375 523 C-52.49159385 525.41715376 -52.558133 526.34289995 -52 530 C-51.9175 530.845625 -51.835 531.69125 -51.75 532.5625 C-51.20797421 535.23606678 -51.20797421 535.23606678 -48.53515625 536.6484375 C-44.6063195 540.2927514 -44.88482685 544.46513686 -44.4375 549.625 C-44.26555979 551.53544681 -44.07751107 553.44453278 -43.87109375 555.3515625 C-43.76172485 556.61734131 -43.76172485 556.61734131 -43.65014648 557.90869141 C-43.1890443 560.19197377 -43.1890443 560.19197377 -40.94555664 561.29052734 C-40.30352295 561.52465332 -39.66148926 561.7587793 -39 562 C-39 562.66 -39 563.32 -39 564 C-37.35 564.33 -35.7 564.66 -34 565 C-34 565.66 -34 566.32 -34 567 C-34.66 567 -35.32 567 -36 567 C-36 571.95 -36 576.9 -36 582 C-37.32 582 -38.64 582 -40 582 C-40.25394531 581.43410156 -40.50789062 580.86820313 -40.76953125 580.28515625 C-41.11371094 579.55167969 -41.45789063 578.81820312 -41.8125 578.0625 C-42.14894531 577.33160156 -42.48539063 576.60070312 -42.83203125 575.84765625 C-43.93600134 573.66970511 -43.93600134 573.66970511 -47 573 C-47.18175781 573.58007812 -47.36351562 574.16015625 -47.55078125 574.7578125 C-48.07269252 576.37975214 -48.61409471 577.99551201 -49.171875 579.60546875 C-49.8398201 581.53683831 -50.45900935 583.48503026 -51.0625 585.4375 C-53.75267497 588.99547335 -56.15938577 588.7770818 -60.42578125 589.375 C-63.99352781 590.24122071 -65.95263088 592.03206966 -68.52734375 594.5625 C-71.03287435 597.00821687 -72.4592274 598 -76 598 C-76 598.66 -76 599.32 -76 600 C-76.66 600 -77.32 600 -78 600 C-78 601.65 -78 603.3 -78 605 C-81.28696233 605.79953138 -82.71023192 606.09658936 -86 605 C-85.67 601.37 -85.34 597.74 -85 594 C-86.65 594 -88.3 594 -90 594 C-89.855625 592.783125 -89.71125 591.56625 -89.5625 590.3125 C-89.11339128 586.35784823 -88.82170237 582.40885054 -88.5625 578.4375 C-88.19547848 573.39391397 -87.42511352 568.84538598 -86 564 C-85.34 564 -84.68 564 -84 564 C-84 563.34 -84 562.68 -84 562 C-83.34 562 -82.68 562 -82 562 C-82 559.03 -82 556.06 -82 553 C-87.58500567 553.19898708 -87.58500567 553.19898708 -92 556 C-94.95950629 556.37942388 -96.40125309 556.45422179 -98.8125 554.625 C-100 553 -100 553 -100 551 C-101.11375 551.020625 -102.2275 551.04125 -103.375 551.0625 C-107 551 -107 551 -109 550 C-109 549.01 -109 548.02 -109 547 C-112.96 547 -116.92 547 -121 547 C-121 547.66 -121 548.32 -121 549 C-122.375 550.625 -122.375 550.625 -124 552 C-124.66 552 -125.32 552 -126 552 C-126.03867188 552.94359375 -126.03867188 552.94359375 -126.078125 553.90625 C-126.46301745 559.714627 -127.1838402 565.36003428 -131 570 C-133.00390625 570.8359375 -133.00390625 570.8359375 -135 571 C-137.125 569.0625 -137.125 569.0625 -139 567 C-139.66 567 -140.32 567 -141 567 C-140.98839844 567.78246094 -140.97679687 568.56492187 -140.96484375 569.37109375 C-140.95130859 570.88896484 -140.95130859 570.88896484 -140.9375 572.4375 C-140.92009766 573.95150391 -140.92009766 573.95150391 -140.90234375 575.49609375 C-141 578 -141 578 -142 579 C-143.84891946 579.23363881 -145.70488031 579.41303635 -147.5625 579.5625 C-148.57441406 579.64628906 -149.58632813 579.73007812 -150.62890625 579.81640625 C-151.41136719 579.87699219 -152.19382812 579.93757812 -153 580 C-153.35191406 579.03320312 -153.35191406 579.03320312 -153.7109375 578.046875 C-154.81161073 575.7922092 -154.81161073 575.7922092 -157.1640625 575.390625 C-157.97617187 575.34421875 -158.78828125 575.2978125 -159.625 575.25 C-160.44226563 575.19328125 -161.25953125 575.1365625 -162.1015625 575.078125 C-163.04128906 575.03945312 -163.04128906 575.03945312 -164 575 C-163.52309796 576.62566606 -163.04340334 578.25051311 -162.5625 579.875 C-162.16224609 581.23238281 -162.16224609 581.23238281 -161.75390625 582.6171875 C-161.07386174 584.98275381 -161.07386174 584.98275381 -160 587 C-159.72533609 590.15863501 -159.76850122 592.41353643 -160.9375 595.375 C-164.26314524 597.99520534 -167.9217317 597.30779383 -172 597 C-171.87625 597.845625 -171.7525 598.69125 -171.625 599.5625 C-172.15009037 604.37582838 -174.44179614 606.84178159 -178 610 C-180.875 611.4375 -180.875 611.4375 -183 612 C-183 612.66 -183 613.32 -183 614 C-184.9914056 614.38133299 -186.99279077 614.71325582 -189 615 C-190 614 -190 614 -190.09765625 611.71484375 C-190.08025391 610.34005859 -190.08025391 610.34005859 -190.0625 608.9375 C-190.05347656 608.01839844 -190.04445313 607.09929688 -190.03515625 606.15234375 C-190.02355469 605.44207031 -190.01195312 604.73179687 -190 604 C-190.969375 603.87625 -191.93875 603.7525 -192.9375 603.625 C-193.948125 603.41875 -194.95875 603.2125 -196 603 C-196.33 602.34 -196.66 601.68 -197 601 C-198.65 600.67 -200.3 600.34 -202 600 C-202 592.08 -202 584.16 -202 576 C-205.3 575.67 -208.6 575.34 -212 575 C-215.0604837 572.76062169 -215.80338783 571.58983651 -217 568 C-218.18029785 567.9906543 -219.3605957 567.98130859 -220.57666016 567.97167969 C-224.97156998 567.93169352 -229.36578613 567.86591085 -233.76025391 567.79248047 C-235.65925154 567.7643208 -237.5583653 567.74308142 -239.45751953 567.72900391 C-242.19363638 567.70750482 -244.92836452 567.66081992 -247.6640625 567.609375 C-248.50804596 567.60814636 -249.35202942 567.60691772 -250.22158813 567.60565186 C-255.65630114 567.47175858 -258.59758442 566.44784651 -263 563 C-265.22602615 562.23060319 -265.22602615 562.23060319 -267 562 C-267 564.64 -267 567.28 -267 570 C-270.28696233 570.79953138 -271.71023192 571.09658936 -275 570 C-274.83628906 570.52078125 -274.67257812 571.0415625 -274.50390625 571.578125 C-273.85941341 574.6756875 -273.90588411 577.58841094 -273.9375 580.75 C-273.94652344 581.92046875 -273.95554687 583.0909375 -273.96484375 584.296875 C-273.97644531 585.18890625 -273.98804688 586.0809375 -274 587 C-280.75 589 -280.75 589 -283 589 C-283 589.66 -283 590.32 -283 591 C-284.57256323 593.05945781 -285.44693857 593.91184423 -288.03710938 594.32470703 C-288.79830078 594.30263184 -289.55949219 594.28055664 -290.34375 594.2578125 C-291.59478516 594.23654297 -291.59478516 594.23654297 -292.87109375 594.21484375 C-293.73863281 594.18519531 -294.60617187 594.15554688 -295.5 594.125 C-297.21864561 594.08158696 -298.93740309 594.04234884 -300.65625 594.0078125 C-301.41744141 593.98348145 -302.17863281 593.95915039 -302.96289062 593.93408203 C-305.20450671 593.90962426 -305.20450671 593.90962426 -308 595 C-308.04898437 595.97582031 -308.09796875 596.95164062 -308.1484375 597.95703125 C-308.26058594 599.86548828 -308.26058594 599.86548828 -308.375 601.8125 C-308.44460938 603.07707031 -308.51421875 604.34164062 -308.5859375 605.64453125 C-309 609 -309 609 -311 612 C-313.625 612.1875 -313.625 612.1875 -316 612 C-316.22429687 611.36578125 -316.44859375 610.7315625 -316.6796875 610.078125 C-317.83785757 607.77983843 -317.83785757 607.77983843 -320.3828125 607.171875 C-321.28773438 607.03265625 -322.19265625 606.8934375 -323.125 606.75 C-324.49011719 606.52570313 -324.49011719 606.52570313 -325.8828125 606.296875 C-326.58148438 606.19890625 -327.28015625 606.1009375 -328 606 C-328 605.34 -328 604.68 -328 604 C-331.09575844 603.92629147 -333.83982277 603.96517886 -336.875 604.625 C-341.04190484 605.12502858 -343.9847572 604.17688151 -348 603 C-348 602.34 -348 601.68 -348 601 C-348.63502441 601.01571045 -349.27004883 601.0314209 -349.92431641 601.04760742 C-352.8244523 601.1102859 -355.72444524 601.14909417 -358.625 601.1875 C-360.12353516 601.22520508 -360.12353516 601.22520508 -361.65234375 601.26367188 C-367.30854544 601.31985931 -371.03834461 600.99863285 -376 598 C-380.26637368 597.46670329 -382.43855765 597.72457545 -386.3125 599.625 C-389.33480634 602.29587537 -390.11721782 604.1157584 -391 608 C-392.45922693 607.88590407 -393.91740598 607.75834456 -395.375 607.625 C-396.18710937 607.55539062 -396.99921875 607.48578125 -397.8359375 607.4140625 C-400 607 -400 607 -402 605 C-402.33 603.68 -402.66 602.36 -403 601 C-408.94 601 -414.88 601 -421 601 C-421 601.66 -421 602.32 -421 603 C-425.39626206 603.65943931 -427.7813146 602.80023602 -431.3125 600.3125 C-433.93269776 598.21135094 -434.87674215 597.35436631 -436 594.125 C-436 593.42375 -436 592.7225 -436 592 C-437.98 592 -439.96 592 -442 592 C-442.66 593.32 -443.32 594.64 -444 596 C-444.66 596 -445.32 596 -446 596 C-446 595.01 -446 594.02 -446 593 C-446.64066406 592.92523437 -447.28132812 592.85046875 -447.94140625 592.7734375 C-454.36539568 591.79691452 -458.77105506 590.08249346 -463 585 C-463.33 584.01 -463.66 583.02 -464 582 C-464.85722656 581.89042969 -465.71445312 581.78085937 -466.59765625 581.66796875 C-476.28976388 580.32396735 -476.28976388 580.32396735 -480.5625 578.375 C-485.65240884 576.33903647 -490.58488159 576.75992086 -496 577 C-496 577.66 -496 578.32 -496 579 C-498.44971624 580.22485812 -500.14234461 580.16722808 -502.875 580.1875 C-503.73867188 580.20167969 -504.60234375 580.21585938 -505.4921875 580.23046875 C-508.23106962 579.97876463 -509.75593964 579.58893163 -512 578 C-513.01953125 575.90625 -513.01953125 575.90625 -513.8125 573.5 C-515.09526851 570.13038848 -515.09526851 570.13038848 -517.80859375 567.96484375 C-519.94514587 567.33896339 -519.94514587 567.33896339 -523 567 C-523 566.34 -523 565.68 -523 565 C-524.134375 564.855625 -525.26875 564.71125 -526.4375 564.5625 C-530 564 -530 564 -531 563 C-532.74522983 562.78916687 -534.49698733 562.63124159 -536.25 562.5 C-539.10865559 562.28366931 -541.78051778 562.05270242 -544.5703125 561.3828125 C-547.40927879 560.93551556 -548.95300731 561.37415051 -551.625 562.375 C-552.38039063 562.65085937 -553.13578125 562.92671875 -553.9140625 563.2109375 C-554.94660156 563.60152344 -554.94660156 563.60152344 -556 564 C-556.99 564.33 -557.98 564.66 -559 565 C-559 565.66 -559 566.32 -559 567 C-562.71973879 569.84450614 -565.37390802 570.3227506 -570 570 C-570 569.34 -570 568.68 -570 568 C-573.3 568 -576.6 568 -580 568 C-580.33 569.32 -580.66 570.64 -581 572 C-583 574 -583 574 -585.27734375 574.265625 C-586.59412109 574.25789062 -586.59412109 574.25789062 -587.9375 574.25 C-588.81277344 574.25515625 -589.68804688 574.2603125 -590.58984375 574.265625 C-593 574 -593 574 -596 572 C-599.11304814 572.15760028 -599.11304814 572.15760028 -602 573 C-602.33 573.66 -602.66 574.32 -603 575 C-606.37918289 576.19344158 -609.45375706 576.47183905 -613 576 C-616.53017475 573.81046346 -619.37343765 571.21658723 -622 568 C-622 567.34 -622 566.68 -622 566 C-622.56847656 566.15726563 -623.13695312 566.31453125 -623.72265625 566.4765625 C-627.51575744 567.34839022 -631.14399279 567.61140294 -635 567 C-637.625 564.875 -637.625 564.875 -640 562 C-644.04526807 558.07518657 -648.03337826 555.22138032 -653.203125 552.95703125 C-655.2491052 551.8673244 -656.53840605 550.79956012 -658 549 C-658.38063221 546.6739143 -658.71269945 544.33944736 -659 542 C-659.96718074 539.24725482 -660.41280578 538.31194693 -663 536.9375 C-663.66 536.628125 -664.32 536.31875 -665 536 C-668.88792074 530.16811888 -668.12529809 523.39753196 -668.0625 516.625 C-668.05798828 515.69816406 -668.05347656 514.77132812 -668.04882812 513.81640625 C-668.03711574 511.54420291 -668.02071372 509.27213612 -668 507 C-667.01 506.67 -666.02 506.34 -665 506 C-664.9175 505.360625 -664.835 504.72125 -664.75 504.0625 C-663.00137152 496.92226705 -660.39100281 491.71772514 -654.78125 486.8984375 C-653 486 -653 486 -650.78125 486.3515625 C-649.89953125 486.67253906 -649.89953125 486.67253906 -649 487 C-648.505 490.96 -648.505 490.96 -648 495 C-643.38 495 -638.76 495 -634 495 C-634 493.35 -634 491.7 -634 490 C-632.35 490 -630.7 490 -629 490 C-628.773125 491.093125 -628.54625 492.18625 -628.3125 493.3125 C-626.80754744 497.54070004 -625.86992648 498.06503676 -622 500 C-621.34 500.99 -620.68 501.98 -620 503 C-617.22737745 503.38394667 -614.65676472 503.60342248 -611.875 503.6875 C-611.12089844 503.72166016 -610.36679687 503.75582031 -609.58984375 503.79101562 C-607.72708799 503.87354278 -605.86356674 503.93844711 -604 504 C-604 503.34 -604 502.68 -604 502 C-603.0821875 501.85304688 -602.164375 501.70609375 -601.21875 501.5546875 C-590.25994281 499.77351369 -590.25994281 499.77351369 -582 493 C-580.20438939 488.39810652 -579.00819598 483.84199383 -578 479 C-580.31 479 -582.62 479 -585 479 C-585.33 477.35 -585.66 475.7 -586 474 C-584.865625 474.103125 -583.73125 474.20625 -582.5625 474.3125 C-579.07832887 473.88548791 -578.04079277 473.0438539 -575.60546875 470.42578125 C-563.69114205 454.47457145 -561.45140896 435.90751499 -561.49902344 416.54882812 C-561.50000354 413.7398663 -561.45806873 410.93357532 -561.4140625 408.125 C-561.33522282 396.33605373 -562.19005115 388.01268829 -570.5 379.0625 C-574.23445461 375.63388434 -577.49286418 373.41103704 -582.4375 372.0625 C-586 371 -586 371 -588.875 368.875 C-592.6014728 366.63911632 -594.81607 366.69080713 -599.046875 366.95703125 C-601 367 -601 367 -603 366 C-603.4375 362.875 -603.4375 362.875 -603 359 C-601.38874455 357.27612992 -599.64471517 355.96795468 -597.7578125 354.5546875 C-594.98540887 352.10265051 -594.17682283 349.46124362 -593 346 C-591.35 346 -589.7 346 -588 346 C-587.78601563 346.64453125 -587.57203125 347.2890625 -587.3515625 347.953125 C-586.1526477 350.27839115 -586.1526477 350.27839115 -583.3984375 350.609375 C-582.40070313 350.65578125 -581.40296875 350.7021875 -580.375 350.75 C-579.37210938 350.80671875 -578.36921875 350.8634375 -577.3359375 350.921875 C-576.56507813 350.94765625 -575.79421875 350.9734375 -575 351 C-574.67 350.01 -574.34 349.02 -574 348 C-572.07421875 346.97265625 -572.07421875 346.97265625 -569.6875 346.0625 C-565.93370347 344.51368946 -563.82971505 342.92403889 -561 340 C-558.67328135 338.98470459 -556.3396553 337.98511802 -554 337 C-552.32963607 335.67130142 -550.66215268 334.33895632 -549 333 C-548.01 333 -547.02 333 -546 333 C-546 332.34 -546 331.68 -546 331 C-545.19175781 330.96261719 -544.38351562 330.92523438 -543.55078125 330.88671875 C-542.48214844 330.82097656 -541.41351562 330.75523437 -540.3125 330.6875 C-539.25675781 330.62949219 -538.20101562 330.57148438 -537.11328125 330.51171875 C-533.74484575 329.95806122 -531.86948327 328.77498716 -529 327 C-527.68 327 -526.36 327 -525 327 C-524.9690625 328.546875 -524.9690625 328.546875 -524.9375 330.125 C-523.70325066 335.22656395 -521.20977809 337.10273933 -517 340 C-512.55156639 342.22421681 -506.82605463 341.51245154 -502 341 C-497.46805971 339.21343602 -494.69469363 337.04204045 -492 333 C-491.34 333 -490.68 333 -490 333 C-489.731875 332.29875 -489.46375 331.5975 -489.1875 330.875 C-488 328 -488 328 -486.5078125 325.33984375 C-484.7390204 321.42192343 -484.23884285 317.91149007 -483.6875 313.6875 C-482.74084275 307.37241476 -481.38315059 303.21233119 -477.359375 298.1328125 C-475.18954521 294.72842438 -474.83439834 291.13727744 -474.32421875 287.1875 C-474 285 -474 285 -473 284 C-470.68182911 283.67902249 -468.36220643 283.48779044 -466.03125 283.28125 C-464.00819407 283.20934163 -464.00819407 283.20934163 -463 282 C-461.33382885 281.95936168 -459.66611905 281.957279 -458 282 C-457.89042969 282.73605469 -457.78085937 283.47210938 -457.66796875 284.23046875 C-456.80682672 289.53034285 -455.97708729 293.47482732 -453 298 C-452.568897 299.53769224 -452.15361687 301.07986549 -451.75 302.625 C-450.73315757 305.94879291 -450.73315757 305.94879291 -448.25390625 308.24609375 C-446.12134205 309.18932804 -446.12134205 309.18932804 -443 310 C-443 310.66 -443 311.32 -443 312 C-430.98561488 312.59411795 -420.14093482 310.41433266 -409 306 C-408.01 306 -407.02 306 -406 306 C-406 305.34 -406 304.68 -406 304 C-397.73075025 299.2798618 -397.73075025 299.2798618 -394.0625 297.875 C-391.65392712 297.07600063 -391.65392712 297.07600063 -390 294 C-389.34 294 -388.68 294 -388 294 C-388 293.34 -388 292.68 -388 292 C-386.35091308 290.67169437 -384.59902991 289.56750372 -382.82421875 288.4140625 C-377.96209792 284.645138 -377.24943435 280.54568132 -376.3125 274.75 C-376.18294922 274.00492187 -376.05339844 273.25984375 -375.91992188 272.4921875 C-375.60335738 270.66314822 -375.30032601 268.83177565 -375 267 C-374.34 267 -373.68 267 -373 267 C-373.06018061 264.58073961 -373.14722217 262.16751328 -373.25 259.75 C-373.26417969 259.06808594 -373.27835937 258.38617188 -373.29296875 257.68359375 C-373.46048927 254.23267108 -373.74940674 252.31578825 -375.921875 249.578125 C-379.81594068 246.62097738 -383.38851595 246.68700391 -388.125 246.4375 C-388.87910156 246.39431641 -389.63320313 246.35113281 -390.41015625 246.30664062 C-392.27321888 246.2005168 -394.13658524 246.09974999 -396 246 C-396.33730842 244.56342755 -396.66969591 243.12569907 -397 241.6875 C-397.185625 240.88699219 -397.37125 240.08648437 -397.5625 239.26171875 C-398 237 -398 237 -398 234 C-392.25 233.875 -392.25 233.875 -390 235 C-387 235.33333333 -387 235.33333333 -384 235 C-383.34 234.01 -382.68 233.02 -382 232 C-379.8359375 231.70703125 -379.8359375 231.70703125 -377.375 231.8125 C-376.55773437 231.83957031 -375.74046875 231.86664063 -374.8984375 231.89453125 C-374.27195312 231.92933594 -373.64546875 231.96414062 -373 232 C-373 235.76687864 -373.23537317 236.91190305 -375 240 C-372.36 240.66 -369.72 241.32 -367 242 C-366.67 243.32 -366.34 244.64 -366 246 C-363.69 246 -361.38 246 -359 246 C-357.67856619 241.59522063 -358.28380564 237.7655246 -358.94140625 233.3046875 C-359 231 -359 231 -357 228 C-353.68845861 227.03791964 -350.44990343 226.85194361 -347.015625 226.75390625 C-346.07976562 226.72103516 -345.14390625 226.68816406 -344.1796875 226.65429688 C-342.24229144 226.5935918 -340.30478698 226.53624408 -338.3671875 226.48242188 C-333.01796897 226.28823791 -328.06319348 225.7613409 -322.87231445 224.42993164 C-320.55272641 223.89729446 -318.3698014 223.84710959 -316 224 C-316 223.34 -316 222.68 -316 222 C-314.83462887 220.83462887 -313.66747614 219.67099349 -312.4921875 218.515625 C-305.40167301 211.31374117 -302.79566473 203.50031202 -300 194 C-299.34 194 -298.68 194 -298 194 C-297.87753906 192.99324219 -297.75507813 191.98648438 -297.62890625 190.94921875 C-297.01466897 187.09211385 -296.05539701 183.55084376 -294.9375 179.8125 C-293.0280381 173.1268665 -292.53547879 166.92910812 -293 160 C-293.58265625 159.76925781 -294.1653125 159.53851563 -294.765625 159.30078125 C-297.56979959 157.66828101 -298.89105724 155.83689065 -300.75 153.1875 C-301.36359375 152.33542969 -301.9771875 151.48335937 -302.609375 150.60546875 C-304.12539543 147.76505968 -304.37600379 146.16838488 -304 143 C-303 142 -303 142 -299.4375 141.9375 C-298.303125 141.958125 -297.16875 141.97875 -296 142 C-296 143.32 -296 144.64 -296 146 C-293.23434618 146.92188461 -291.61716298 147.11785222 -288.76953125 147.09765625 C-287.96708984 147.09443359 -287.16464844 147.09121094 -286.33789062 147.08789062 C-285.50451172 147.07951172 -284.67113281 147.07113281 -283.8125 147.0625 C-282.5450293 147.05573242 -282.5450293 147.05573242 -281.25195312 147.04882812 C-279.16793845 147.03705403 -277.08396023 147.0191189 -275 147 C-274.67 148.98 -274.34 150.96 -274 153 C-272.39592672 153.02708567 -270.7917215 153.04643483 -269.1875 153.0625 C-267.84751953 153.07990234 -267.84751953 153.07990234 -266.48046875 153.09765625 C-263.86586209 153.11009967 -263.86586209 153.11009967 -261 152 C-260.19787372 150.12612784 -260.19787372 150.12612784 -259.8125 147.9375 C-259.57466797 146.83728516 -259.57466797 146.83728516 -259.33203125 145.71484375 C-259.16767578 144.86599609 -259.16767578 144.86599609 -259 144 C-259.66 144 -260.32 144 -261 144 C-260.26953125 142.07421875 -260.26953125 142.07421875 -259 140 C-257.01171875 139.20703125 -257.01171875 139.20703125 -254.6875 138.8125 C-253.48867188 138.59400391 -253.48867188 138.59400391 -252.265625 138.37109375 C-251.14414062 138.18740234 -251.14414062 138.18740234 -250 138 C-248.989375 137.79375 -247.97875 137.5875 -246.9375 137.375 C-246.298125 137.25125 -245.65875 137.1275 -245 137 C-245 136.34 -245 135.68 -245 135 C-244.030625 134.67 -243.06125 134.34 -242.0625 134 C-238.62883791 132.22711962 -238.62883791 132.22711962 -237.875 128.25 C-237.6035881 123.487159 -239.38241778 120.8889793 -242 117 C-242.6802367 115.67353844 -243.35492261 114.34391123 -244 113 C-243.38125 112.2575 -242.7625 111.515 -242.125 110.75 C-240.39562719 108.51198812 -239.13893339 106.56260013 -238 104 C-237.01 104.33 -236.02 104.66 -235 105 C-234.67 106.98 -234.34 108.96 -234 111 C-230.01301637 111.88229928 -230.01301637 111.88229928 -226 112 C-222.02333592 108.88782811 -219.23519278 105.7807453 -218.5625 100.6875 C-219.13529889 95.8596236 -220.74325021 94.50100602 -224 91 C-224 89 -224 89 -222 86.875 C-217.87482448 84.2967653 -215.80963881 84.37940144 -211 85 C-209 87 -209 87 -208 89 C-203.99563024 88.38434773 -203.99563024 88.38434773 -200.0625 87.4375 C-197.03931424 86.79621817 -194.07841389 86.94079973 -191 87 C-190.93941406 87.61488281 -190.87882812 88.22976562 -190.81640625 88.86328125 C-190.69072266 90.07564453 -190.69072266 90.07564453 -190.5625 91.3125 C-190.48128906 92.11300781 -190.40007812 92.91351563 -190.31640625 93.73828125 C-190.04734307 96.16087179 -190.04734307 96.16087179 -189 99 C-180.42839469 99.24787895 -180.42839469 99.24787895 -172 98 C-170.54780623 96.09831644 -170.54780623 96.09831644 -170 94 C-169.67 93.67 -169.34 93.34 -169 93 C-168.76807135 91.48530552 -168.58784762 89.96245438 -168.4375 88.4375 C-168.31181641 87.19806641 -168.31181641 87.19806641 -168.18359375 85.93359375 C-168.12300781 85.29550781 -168.06242187 84.65742187 -168 84 C-167.34 84 -166.68 84 -166 84 C-165.938125 83.443125 -165.87625 82.88625 -165.8125 82.3125 C-164.52525547 78.64880402 -163.20249944 77.26058784 -160 75 C-155.96331847 74.52134211 -152.04049994 74.56620399 -148 75 C-147 76 -147 76 -146.875 78.9375 C-147 82 -147 82 -148 84 C-148.73532187 88.02755842 -148.82602836 91.52647199 -146.7890625 95.16015625 C-141.63468954 101.43977964 -134.89088132 105.33247944 -127.5 108.5 C-124.18955174 110.48626896 -123.9492167 112.36133597 -123 116 C-122.34 116.33 -121.68 116.66 -121 117 C-120.34 118.65 -119.68 120.3 -119 122 C-114.38 122 -109.76 122 -105 122 C-105 121.34 -105 120.68 -105 120 C-104.34 120 -103.68 120 -103 120 C-103 119.34 -103 118.68 -103 118 C-101.515 117.01 -101.515 117.01 -100 116 C-99.67 115.01 -99.34 114.02 -99 113 C-100.32 113 -101.64 113 -103 113 C-104.8125 111.5 -104.8125 111.5 -106 109 C-105.83639329 103.84638879 -105.25349198 100.16446973 -102 96 C-101.34 96 -100.68 96 -100 96 C-100.37290431 91.67430999 -100.64133672 88.70353183 -102.625 84.8125 C-104 82 -104 82 -104.125 79.4375 C-102.81423961 76.59751915 -102.12038571 76.44401829 -99.46484375 75.01953125 C-97.06049506 73.35206863 -96.14148999 72.54228322 -95.39453125 69.67944336 C-95.23640211 66.84170148 -95.29180386 64.08823653 -95.4375 61.25 C-95.45232422 60.29867187 -95.46714844 59.34734375 -95.48242188 58.3671875 C-95.63748675 52.56219484 -95.95020264 46.49072491 -98 41 C-100.2225097 39.47730529 -100.2225097 39.47730529 -103 39 C-104.31484375 38.27103516 -104.31484375 38.27103516 -105.65625 37.52734375 C-109.59464376 35.72838118 -112.98207335 35.30879398 -117.25 34.9375 C-124.74039409 34.25960591 -124.74039409 34.25960591 -127 32 C-126.66514642 25.86101776 -126.66514642 25.86101776 -124.7265625 23.3515625 C-122.67019739 21.74182873 -121.11503491 21.31611987 -118.5625 20.8125 C-117.80066406 20.65394531 -117.03882813 20.49539062 -116.25390625 20.33203125 C-114 20 -114 20 -110 20 C-109.7525 19.4225 -109.505 18.845 -109.25 18.25 C-107.79320504 15.62776908 -106.31621258 13.90746919 -104 12 C-102.68 12 -101.36 12 -100 12 C-100 12.66 -100 13.32 -100 14 C-97.60225255 14.13572155 -95.21224755 14.23436868 -92.8125 14.3125 C-92.13896484 14.35439453 -91.46542969 14.39628906 -90.77148438 14.43945312 C-86.73795297 14.53783194 -85.24691431 14.21754414 -82.17578125 11.51171875 C-81.45777344 10.68285156 -80.73976563 9.85398437 -80 9 C-77.375 8.5 -77.375 8.5 -75 9 C-73.1875 10.375 -73.1875 10.375 -72 12 C-72 12.66 -72 13.32 -72 14 C-64.64917364 16.45027545 -58.01229919 14.78502663 -51 12 C-51.80071902 15.86326289 -53.3185209 18.07475007 -56 21 C-56.66 21 -57.32 21 -58 21 C-58.33 21.99 -58.66 22.98 -59 24 C-60.32 24 -61.64 24 -63 24 C-63.89536277 32.23507967 -63.89536277 32.23507967 -60.875 39.5625 C-58.03085706 41.97383858 -55.43179425 43.56343497 -52 45 C-52 45.66 -52 46.32 -52 47 C-38.635 47.495 -38.635 47.495 -25 48 C-25 47.34 -25 46.68 -25 46 C-22.03 45.505 -22.03 45.505 -19 45 C-18.67 43.35 -18.34 41.7 -18 40 C-16.865625 39.71125 -15.73125 39.4225 -14.5625 39.125 C-13.386875 38.75375 -12.21125 38.3825 -11 38 C-9.25488688 34.50977375 -10.00816135 30.2618896 -10.12695312 26.41015625 C-10.1568379 24.60652196 -10.08472195 22.80189121 -10 21 C-7.4345406 18.4345406 -5.52313332 18.45953913 -2 18 C-0.81509328 14.44527983 -0.93851993 11.61759928 -1 7.875 C-1.03748646 5.58363995 -1.04687851 3.29118714 -1 1 C-0.67 0.67 -0.34 0.34 0 0 Z " fill="#020202" transform="translate(709,12)"/>
<path d="M0 0 C1.670625 0.061875 1.670625 0.061875 3.375 0.125 C4.52623825 2.42747651 4.51336313 3.81024046 4.55078125 6.37109375 C4.57462891 7.20833984 4.59847656 8.04558594 4.62304688 8.90820312 C4.66591485 10.67358426 4.69722046 12.43928511 4.71679688 14.20507812 C4.79516539 16.57618144 4.89755183 18.80034705 5.375 21.125 C7.29943895 22.92863957 7.29943895 22.92863957 9.375 24.125 C10.75701075 30.66506664 9.61558928 39.248409 6.375 45.125 C2.45200101 46.8658308 -0.69318526 45.41040097 -4.625 44.125 C-4.955 42.805 -5.285 41.485 -5.625 40.125 C-3.645 39.135 -1.665 38.145 0.375 37.125 C0.375 35.805 0.375 34.485 0.375 33.125 C-1.11 32.63 -1.11 32.63 -2.625 32.125 C-2.625 31.135 -2.625 30.145 -2.625 29.125 C-9.16370738 25.73455914 -14.40179064 24.80215558 -21.76171875 24.46875 C-24.625 24.125 -24.625 24.125 -26.625 22.125 C-26.92578125 19.19140625 -26.92578125 19.19140625 -26.9375 15.6875 C-26.95425781 14.53378906 -26.97101562 13.38007813 -26.98828125 12.19140625 C-26.625 9.125 -26.625 9.125 -25.35546875 7.21484375 C-23.625 6.125 -23.625 6.125 -19.625 6.125 C-19.625 7.115 -19.625 8.105 -19.625 9.125 C-15.995 9.125 -12.365 9.125 -8.625 9.125 C-8.17125 8.01125 -7.7175 6.8975 -7.25 5.75 C-4.74577295 0.16364734 -4.74577295 0.16364734 0 0 Z " fill="#101010" transform="translate(74.625,317.875)"/>
<path d="M0 0 C0 0.99 0 1.98 0 3 C-0.9590625 3.556875 -0.9590625 3.556875 -1.9375 4.125 C-4.8805234 6.80047582 -4.6522672 9.29480765 -4.921875 13.13671875 C-4.96054687 14.05904297 -4.96054687 14.05904297 -5 15 C-6.65 15.66 -8.3 16.32 -10 17 C-10 18.65 -10 20.3 -10 22 C-10.99 22 -11.98 22 -13 22 C-13.495 20.515 -13.495 20.515 -14 19 C-23.06077142 13.79487599 -37.73965059 14.82240322 -47.625 17 C-48.73875 17.33 -49.8525 17.66 -51 18 C-50.67 17.34 -50.34 16.68 -50 16 C-49.34 16 -48.68 16 -48 16 C-48.33 14.68 -48.66 13.36 -49 12 C-46.03 12 -43.06 12 -40 12 C-39.67 9.69 -39.34 7.38 -39 5 C-38.34 5 -37.68 5 -37 5 C-35.375 7 -35.375 7 -34 9 C-31.13275314 8.42655063 -30.1385485 8.1385485 -28 6 C-25.85258095 6.01168663 -23.70532863 6.10917884 -21.5625 6.25 C-14.81958848 6.38874304 -10.81571071 4.94510798 -5.20703125 1.3125 C-3 0 -3 0 0 0 Z " fill="#1D1D1D" transform="translate(691,375)"/>
<path d="M0 0 C2.6875 0.3125 2.6875 0.3125 5.0625 2.0625 C6.6875 4.3125 6.6875 4.3125 6.5 6.5 C5.6875 8.3125 5.6875 8.3125 4.6875 9.3125 C-0.84191176 9.54779412 -0.84191176 9.54779412 -3.3125 8.3125 C-3.35491723 5.97955225 -3.35342937 3.64547433 -3.3125 1.3125 C-2.3125 0.3125 -2.3125 0.3125 0 0 Z " fill="#2E2E2E" transform="translate(33.3125,341.6875)"/>
<path d="M0 0 C3 2 3 2 3.875 5.8125 C4.13444636 8.78532288 3.97528791 10.06452601 2.875 12.9375 C0.63439501 15.40216549 -0.73107795 15.73495227 -4 16 C-4 16.66 -4 17.32 -4 18 C-5.375 18.45833333 -6.75 18.91666667 -8.125 19.375 C-8.94226563 19.64957031 -9.75953125 19.92414063 -10.6015625 20.20703125 C-12.55851031 20.85403517 -14.52774429 21.46377952 -16.5 22.0625 C-19.14993914 22.73283571 -19.14993914 22.73283571 -20 25 C-19.34 25 -18.68 25 -18 25 C-18 26.98 -18 28.96 -18 31 C-18.33 31 -18.66 31 -19 31 C-19 29.35 -19 27.7 -19 26 C-19.99 26 -20.98 26 -22 26 C-21.42655063 23.13275314 -21.1385485 22.1385485 -19 20 C-16.8359375 19.5859375 -16.8359375 19.5859375 -14.375 19.375 C-13.55773437 19.30023438 -12.74046875 19.22546875 -11.8984375 19.1484375 C-11.27195312 19.09945312 -10.64546875 19.05046875 -10 19 C-10 18.34 -10 17.68 -10 17 C-9.01 17 -8.02 17 -7 17 C-7 16.34 -7 15.68 -7 15 C-4.36 14.01 -1.72 13.02 1 12 C1.02712066 10.56260487 1.04645067 9.12506137 1.0625 7.6875 C1.07410156 6.88699219 1.08570313 6.08648437 1.09765625 5.26171875 C1.09657855 2.83138666 1.09657855 2.83138666 0 0 Z " fill="#919191" transform="translate(468,131)"/>
<path d="M0 0 C0.66 0.33 1.32 0.66 2 1 C2.17835515 5.54805635 1.99785435 8.8794254 0 13 C1.65 13 3.3 13 5 13 C5.14285714 20.42857143 5.14285714 20.42857143 4 24 C6.31 24.33 8.62 24.66 11 25 C7.36576791 27.32590854 4.22911669 27.16265833 0 27 C0.433125 25.9790625 0.433125 25.9790625 0.875 24.9375 C2.12597355 21.67106907 3.07447955 18.37153877 4 15 C2.35 15 0.7 15 -1 15 C-0.125 7.25 -0.125 7.25 1 5 C0.34 5 -0.32 5 -1 5 C-0.67 3.35 -0.34 1.7 0 0 Z " fill="#A5A5A5" transform="translate(619,593)"/>
<path d="M0 0 C0 3 0 3 -2 6 C-2.61641011 9.63853191 -3.01767041 13.27930057 -3.4375 16.9453125 C-3.623125 17.95335937 -3.80875 18.96140625 -4 20 C-4.66 20.33 -5.32 20.66 -6 21 C-5.34 17.7 -4.68 14.4 -4 11 C-6.31 11 -8.62 11 -11 11 C-11.33 9.35 -11.66 7.7 -12 6 C-10.7625 5.938125 -9.525 5.87625 -8.25 5.8125 C-4.69449876 5.39643071 -4.15360875 5.15744896 -1.5 2.4375 C-1.005 1.633125 -0.51 0.82875 0 0 Z " fill="#5E5E5E" transform="translate(135,480)"/>
<path d="M0 0 C0 0.66 0 1.32 0 2 C-0.84304688 2.13277344 -1.68609375 2.26554688 -2.5546875 2.40234375 C-3.65039062 2.57894531 -4.74609375 2.75554687 -5.875 2.9375 C-6.96554687 3.11152344 -8.05609375 3.28554687 -9.1796875 3.46484375 C-11.93821546 3.85551159 -11.93821546 3.85551159 -14 5 C-15.81171098 5.15306901 -17.6283794 5.24946661 -19.4453125 5.31640625 C-20.52167969 5.35830078 -21.59804688 5.40019531 -22.70703125 5.44335938 C-23.83496094 5.48267578 -24.96289062 5.52199219 -26.125 5.5625 C-27.26066406 5.60568359 -28.39632813 5.64886719 -29.56640625 5.69335938 C-32.37747768 5.7996604 -35.18863945 5.90169405 -38 6 C-38 5.34 -38 4.68 -38 4 C-37.05157227 3.91435791 -36.10314453 3.82871582 -35.12597656 3.74047852 C-31.59964177 3.42121663 -28.07369596 3.09782257 -24.54785156 2.77319336 C-23.02321465 2.63339718 -21.49847521 2.49471446 -19.97363281 2.35717773 C-17.77901606 2.15903274 -15.58480195 1.95685649 -13.390625 1.75390625 C-12.7113092 1.6934462 -12.03199341 1.63298615 -11.33209229 1.57069397 C-7.54452093 1.21588837 -3.7599237 0 0 0 Z " fill="#9E9E9E" transform="translate(393,234)"/>
<path d="M0 0 C0.33 0.66 0.66 1.32 1 2 C0.01 3.485 0.01 3.485 -1 5 C-1.66 5 -2.32 5 -3 5 C-3.37511719 5.86044922 -3.37511719 5.86044922 -3.7578125 6.73828125 C-5.17294576 9.31489181 -6.80413484 11.10491296 -8.875 13.1875 C-9.55304687 13.88230469 -10.23109375 14.57710938 -10.9296875 15.29296875 C-13.03086032 17.0254452 -14.34102145 17.60055703 -17 18 C-16.505 16.515 -16.505 16.515 -16 15 C-15.34 15 -14.68 15 -14 15 C-13.67 14.01 -13.34 13.02 -13 12 C-12.34 12 -11.68 12 -11 12 C-10.7525 11.38125 -10.505 10.7625 -10.25 10.125 C-8.77229238 7.61289704 -7.56044823 7.23892656 -5 6 C-4.67 5.01 -4.34 4.02 -4 3 C-3.34 3 -2.68 3 -2 3 C-2 2.34 -2 1.68 -2 1 C-1.34 0.67 -0.68 0.34 0 0 Z " fill="#CDCDCD" transform="translate(668,246)"/>
<path d="M0 0 C0.66 0.33 1.32 0.66 2 1 C1.67 3.31 1.34 5.62 1 8 C7.93 8.495 7.93 8.495 15 9 C15 9.33 15 9.66 15 10 C13.80503906 10.04898437 12.61007812 10.09796875 11.37890625 10.1484375 C-0.431805 10.68056539 -0.431805 10.68056539 -12 13 C-11.67 12.34 -11.34 11.68 -11 11 C-10.34 11 -9.68 11 -9 11 C-9.33 9.68 -9.66 8.36 -10 7 C-7.03 7 -4.06 7 -1 7 C-0.67 4.69 -0.34 2.38 0 0 Z " fill="#474747" transform="translate(652,380)"/>
<path d="M0 0 C0.66 0 1.32 0 2 0 C1.34 6.6 0.68 13.2 0 20 C-0.66 20 -1.32 20 -2 20 C-2 23.3 -2 26.6 -2 30 C-2.33 30 -2.66 30 -3 30 C-3.05447822 27.47886908 -3.09389852 24.9589415 -3.125 22.4375 C-3.14175781 21.73302734 -3.15851562 21.02855469 -3.17578125 20.30273438 C-3.21988929 15.51701236 -2.4734987 11.59910201 -1 7 C-0.63049535 4.67212073 -0.28647533 2.33954855 0 0 Z " fill="#969696" transform="translate(643,279)"/>
<path d="M0 0 C2.59469565 1.19538824 4.08871167 1.9464226 6 4 C7.1888308 7.52013547 7.52155105 11.06333112 7.875 14.75 C7.99101563 15.73355469 8.10703125 16.71710937 8.2265625 17.73046875 C8.50868108 20.15198659 8.76548369 22.57348712 9 25 C8.34 24.67 7.68 24.34 7 24 C7 23.01 7 22.02 7 21 C6.34 21 5.68 21 5 21 C4.67 15.72 4.34 10.44 4 5 C3.01 4.67 2.02 4.34 1 4 C0.3125 1.9375 0.3125 1.9375 0 0 Z " fill="#626262" transform="translate(657,547)"/>
<path d="M0 0 C2.4233688 0.17482014 4.83256439 0.38817174 7.25 0.625 C8.27287109 0.69267578 8.27287109 0.69267578 9.31640625 0.76171875 C11.328125 0.9765625 11.328125 0.9765625 15 2 C17.34375 4.9375 17.34375 4.9375 19 8 C20.29682374 9.36886951 21.61823134 10.7169291 23 12 C19.89347355 11.6641593 18.39585697 11.40950721 16.1875 9.125 C15 7 15 7 15 4 C11.04 4 7.08 4 3 4 C3 3.34 3 2.68 3 2 C2.01 1.67 1.02 1.34 0 1 C0 0.67 0 0.34 0 0 Z " fill="#9F9F9F" transform="translate(230,591)"/>
<path d="M0 0 C3.625 0.375 3.625 0.375 7 1 C7 3.31 7 5.62 7 8 C8.32 8.66 9.64 9.32 11 10 C11 10.66 11 11.32 11 12 C7.28400809 12.20086443 6.22791555 12.1519437 3 10 C3.57584432 7.61435923 4.22227595 5.33317216 5 3 C2.69 2.67 0.38 2.34 -2 2 C-1.34 1.34 -0.68 0.68 0 0 Z " fill="#858585" transform="translate(331,242)"/>
<path d="M0 0 C0.66 0.33 1.32 0.66 2 1 C1.33871094 1.38285156 0.67742188 1.76570313 -0.00390625 2.16015625 C-2.26663432 3.8408945 -2.26663432 3.8408945 -2.27734375 6.55859375 C-2.16519531 7.50863281 -2.05304687 8.45867187 -1.9375 9.4375 C-1.84339844 10.38496094 -1.74929688 11.33242188 -1.65234375 12.30859375 C-0.95060955 15.20377256 0.05846456 16.77433743 2 19 C-1.39636466 17.59460773 -3.09982577 16.15256178 -5 13 C-5.29296875 10.203125 -5.29296875 10.203125 -5.1875 7.25 C-5.16042969 6.26515625 -5.13335938 5.2803125 -5.10546875 4.265625 C-5.07066406 3.51796875 -5.03585937 2.7703125 -5 2 C-2.625 0.9375 -2.625 0.9375 0 0 Z " fill="#A4A4A4" transform="translate(642,392)"/>
<path d="M0 0 C1.40742022 2.81484045 0.66652164 4.56936113 0.0625 7.625 C-0.13214844 8.62789062 -0.32679688 9.63078125 -0.52734375 10.6640625 C-0.76130859 11.82035156 -0.76130859 11.82035156 -1 13 C-1.66 13 -2.32 13 -3 13 C-3.66 14.32 -4.32 15.64 -5 17 C-5.66 16.67 -6.32 16.34 -7 16 C-6.34 15.34 -5.68 14.68 -5 14 C-4.53993654 11.79749008 -4.53993654 11.79749008 -4.375 9.375 C-4.26285156 8.14910156 -4.26285156 8.14910156 -4.1484375 6.8984375 C-4.09945312 6.27195312 -4.05046875 5.64546875 -4 5 C-3.34 5 -2.68 5 -2 5 C-1.855625 4.360625 -1.71125 3.72125 -1.5625 3.0625 C-1 1 -1 1 0 0 Z " fill="#585858" transform="translate(545,91)"/>
<path d="M0 0 C0.66 0.33 1.32 0.66 2 1 C-2.21902589 5.7960963 -5.41848153 9.00656325 -12 10 C-14.20703125 9.53125 -14.20703125 9.53125 -16 9 C-15.39671875 8.75765625 -14.7934375 8.5153125 -14.171875 8.265625 C-9.6234925 6.35823879 -6.34155043 4.72711394 -3 1 C-2.01 0.67 -1.02 0.34 0 0 Z " fill="#5A5A5A" transform="translate(151,351)"/>
<path d="M0 0 C0.99 0.495 0.99 0.495 2 1 C2 1.99 2 2.98 2 4 C8.19863615 4.62314211 8.19863615 4.62314211 13.5625 2 C14.2740625 1.01 14.2740625 1.01 15 0 C13.74426756 3.8718417 12.63191921 6.02838671 9 8 C5.22439213 8.46043998 4.25763222 8.17175481 1 6 C0.3125 2.875 0.3125 2.875 0 0 Z " fill="#898989" transform="translate(474,117)"/>
<path d="M0 0 C2.56336254 0.11446272 5.12513445 0.24119501 7.6875 0.375 C8.40873047 0.4059375 9.12996094 0.436875 9.87304688 0.46875 C13.97210394 0.69335587 17.24368459 1.17740909 21 3 C17.31599416 4.23104155 14.08525024 3.90767252 10.25 3.5625 C9.07953125 3.46066406 7.9090625 3.35882813 6.703125 3.25390625 C5.36507812 3.12822266 5.36507812 3.12822266 4 3 C4 2.34 4 1.68 4 1 C2.68 0.67 1.36 0.34 0 0 Z " fill="#AAAAAA" transform="translate(584,46)"/>
<path d="M0 0 C2.64 0 5.28 0 8 0 C8 0.66 8 1.32 8 2 C6.02 2 4.04 2 2 2 C2.08378906 2.98742187 2.16757812 3.97484375 2.25390625 4.9921875 C2.35574219 6.27351562 2.45757812 7.55484375 2.5625 8.875 C2.66691406 10.15117188 2.77132813 11.42734375 2.87890625 12.7421875 C3 16 3 16 2 18 C1.34 17.67 0.68 17.34 0 17 C0 11.39 0 5.78 0 0 Z " fill="#979797" transform="translate(434,582)"/>
<path d="M0 0 C1.45880109 0.14107747 2.91703551 0.28802415 4.375 0.4375 C5.59316406 0.55931641 5.59316406 0.55931641 6.8359375 0.68359375 C9 1 9 1 11 2 C11 5.63 11 9.26 11 13 C10.67 13 10.34 13 10 13 C10 9.7 10 6.4 10 3 C7.69 2.67 5.38 2.34 3 2 C3 2.66 3 3.32 3 4 C1.35 4.66 -0.3 5.32 -2 6 C-1.34 4.02 -0.68 2.04 0 0 Z " fill="#4F4F4F" transform="translate(756,32)"/>
<path d="M0 0 C0.33 0.66 0.66 1.32 1 2 C-1.41698499 3.94918144 -3.18746401 5.00815254 -6.3359375 4.9765625 C-8.57364473 4.71537901 -10.78327805 4.40084514 -13 4 C-13 3.34 -13 2.68 -13 2 C-14.98 2 -16.96 2 -19 2 C-19 1.67 -19 1.34 -19 1 C-15.7 1 -12.4 1 -9 1 C-9 1.66 -9 2.32 -9 3 C-4.39257135 1.78955868 -4.39257135 1.78955868 0 0 Z " fill="#A4A4A4" transform="translate(148,579)"/>
<path d="M0 0 C0.33 0.66 0.66 1.32 1 2 C-1.97 2.66 -4.94 3.32 -8 4 C-8.66 7.3 -9.32 10.6 -10 14 C-10.66 13.67 -11.32 13.34 -12 13 C-11.69230293 11.18667846 -11.37870936 9.37435655 -11.0625 7.5625 C-10.80146484 6.04849609 -10.80146484 6.04849609 -10.53515625 4.50390625 C-10 2 -10 2 -9 1 C-7.48530552 0.76807135 -5.96245438 0.58784762 -4.4375 0.4375 C-3.61121094 0.35371094 -2.78492188 0.26992188 -1.93359375 0.18359375 C-0.97646484 0.09271484 -0.97646484 0.09271484 0 0 Z " fill="#747474" transform="translate(245,295)"/>
<path d="M0 0 C0.625 1.8125 0.625 1.8125 1 4 C0.01 5.485 0.01 5.485 -1 7 C-1.45915507 9.96842658 -1.45915507 9.96842658 -1.625 13.1875 C-1.69976563 14.27417969 -1.77453125 15.36085938 -1.8515625 16.48046875 C-1.90054688 17.31191406 -1.94953125 18.14335938 -2 19 C-2.66 19 -3.32 19 -4 19 C-4.25287193 12.93107371 -3.69832609 7.83799592 -2 2 C-1.34 2 -0.68 2 0 2 C0 1.34 0 0.68 0 0 Z " fill="#707070" transform="translate(625,574)"/>
<path d="M0 0 C4.95 0.99 4.95 0.99 10 2 C10 2.99 10 3.98 10 5 C11.32 4.34 12.64 3.68 14 3 C13.67 3.99 13.34 4.98 13 6 C9.66666667 5.33333333 6.33333333 4.66666667 3 4 C3 3.34 3 2.68 3 2 C2.01 2 1.02 2 0 2 C0 1.34 0 0.68 0 0 Z " fill="#999999" transform="translate(253,603)"/>
<path d="M0 0 C0.66 0.33 1.32 0.66 2 1 C2 5.29 2 9.58 2 14 C0.68 14 -0.64 14 -2 14 C-2.33 12.35 -2.66 10.7 -3 9 C-2.01 9.33 -1.02 9.66 0 10 C0 6.7 0 3.4 0 0 Z " fill="#2B2B2B" transform="translate(671,580)"/>
<path d="M0 0 C2.05078125 0.03255208 4.1015625 0.06510417 6.15234375 0.09765625 C6.15234375 3.06765625 6.15234375 6.03765625 6.15234375 9.09765625 C5.82234375 9.09765625 5.49234375 9.09765625 5.15234375 9.09765625 C4.82234375 6.45765625 4.49234375 3.81765625 4.15234375 1.09765625 C2.60546875 1.84015625 2.60546875 1.84015625 1.02734375 2.59765625 C-2.37217203 4.07239527 -5.11787174 4.37056731 -8.84765625 4.09765625 C-8.84765625 3.76765625 -8.84765625 3.43765625 -8.84765625 3.09765625 C-7.39359375 2.63359375 -7.39359375 2.63359375 -5.91015625 2.16015625 C-3.52665601 1.3332276 -2.32822326 0.1230562 0 0 Z " fill="#888888" transform="translate(620.84765625,564.90234375)"/>
<path d="M0 0 C-5.26723095 3.24727345 -9.39949939 3.37334093 -15.375 3.1875 C-16.20644531 3.17396484 -17.03789063 3.16042969 -17.89453125 3.14648438 C-19.92997066 3.11139059 -21.96507291 3.05759228 -24 3 C-24 2.67 -24 2.34 -24 2 C-19.05 2 -14.1 2 -9 2 C-9 1.34 -9 0.68 -9 0 C-2.25 -1.125 -2.25 -1.125 0 0 Z " fill="#434343" transform="translate(114,514)"/>
<path d="M0 0 C0 0.99 0 1.98 0 3 C-2.5 4.6875 -2.5 4.6875 -5 6 C-5 5.34 -5 4.68 -5 4 C-7.31 4.66 -9.62 5.32 -12 6 C-8.82952065 2.30110743 -4.90226152 0 0 0 Z " fill="#4F4F4F" transform="translate(691,375)"/>
<path d="M0 0 C0 0.66 0 1.32 0 2 C-0.99 2 -1.98 2 -3 2 C-3 2.66 -3 3.32 -3 4 C-4.32 4 -5.64 4 -7 4 C-6.67 4.99 -6.34 5.98 -6 7 C-5.9314505 8.89470816 -5.91519628 10.7916834 -5.9375 12.6875 C-5.94652344 13.68136719 -5.95554687 14.67523438 -5.96484375 15.69921875 C-5.97644531 16.45847656 -5.98804688 17.21773437 -6 18 C-6.33 18 -6.66 18 -7 18 C-7.22126178 15.54220024 -7.42750395 13.08472352 -7.625 10.625 C-7.68945312 9.92632812 -7.75390625 9.22765625 -7.8203125 8.5078125 C-7.96119739 6.67630889 -7.98761659 4.83687252 -8 3 C-5.48696401 0.48696401 -3.51117809 0 0 0 Z " fill="#717171" transform="translate(707,30)"/>
<path d="M0 0 C0.66 0.33 1.32 0.66 2 1 C1.030625 1.886875 0.06125 2.77375 -0.9375 3.6875 C-3.60122242 6.32615209 -4.7731363 8.14331715 -5 12 C-5.66 11.67 -6.32 11.34 -7 11 C-6.38976378 4.53149606 -6.38976378 4.53149606 -4.625 2.125 C-3 1 -3 1 0 0 Z " fill="#454545" transform="translate(589,33)"/>
<path d="M0 0 C1.8125 0.125 1.8125 0.125 4 1 C7.146948 5.88319518 7.146948 5.88319518 6.6875 9.375 C6.460625 9.91125 6.23375 10.4475 6 11 C5.67 9.02 5.34 7.04 5 5 C4.01 5 3.02 5 2 5 C1.67 5.66 1.34 6.32 1 7 C0.34 6.67 -0.32 6.34 -1 6 C-0.67 4.02 -0.34 2.04 0 0 Z " fill="#A0A0A0" transform="translate(664,342)"/>
<path d="M0 0 C0.66 0 1.32 0 2 0 C2.33 0.99 2.66 1.98 3 3 C5.64 3.33 8.28 3.66 11 4 C11 4.66 11 5.32 11 6 C11.66 6.33 12.32 6.66 13 7 C5.71070615 7.36446469 5.71070615 7.36446469 2.5625 5.75 C0.84011873 3.82093298 0.35021241 2.53903996 0 0 Z " fill="#AAAAAA" transform="translate(722,34)"/>
<path d="M0 0 C0.66 0 1.32 0 2 0 C2 0.66 2 1.32 2 2 C4.31 2.33 6.62 2.66 9 3 C5.36576791 5.32590854 2.22911669 5.16265833 -2 5 C-1.34 3.35 -0.68 1.7 0 0 Z " fill="#5D5D5D" transform="translate(621,615)"/>
<path d="M0 0 C0.66 0.33 1.32 0.66 2 1 C0.73046875 2.46484375 -0.5390625 3.9296875 -1.80859375 5.39453125 C-3.20871231 7.10712971 -3.20871231 7.10712971 -4 10 C-4.66 9.67 -5.32 9.34 -6 9 C-4.83857315 4.64464931 -3.92300495 2.35380297 0 0 Z " fill="#A8A8A8" transform="translate(324,610)"/>
<path d="M0 0 C5.27749285 0.53851968 9.25645564 1.77343836 14 4 C10.42355152 5.2380014 7.66305234 4.74926071 4 4 C4 3.34 4 2.68 4 2 C2.68 1.67 1.36 1.34 0 1 C0 0.67 0 0.34 0 0 Z " fill="#A8A8A8" transform="translate(653,55)"/>
<path d="M0 0 C0.99 0.495 0.99 0.495 2 1 C2 1.99 2 2.98 2 4 C2.61875 4.226875 3.2375 4.45375 3.875 4.6875 C6.61410209 6.37929835 7.05024472 7.99244161 8 11 C7.4225 10.38125 6.845 9.7625 6.25 9.125 C4.19750179 7.18652947 2.56633418 6.09985751 0 5 C0 3.35 0 1.7 0 0 Z " fill="#AFAFAF" transform="translate(81,504)"/>
<path d="M0 0 C0.33 0 0.66 0 1 0 C1.3125 2.3125 1.3125 2.3125 1 5 C-1.25 6.875 -1.25 6.875 -4 8 C-6.3125 7.6875 -6.3125 7.6875 -8 7 C-7.01 7 -6.02 7 -5 7 C-4.67 5.68 -4.34 4.36 -4 3 C-2.68 3 -1.36 3 0 3 C0 2.01 0 1.02 0 0 Z " fill="#B9B9B9" transform="translate(671,354)"/>
<path d="M0 0 C0.33 0.66 0.66 1.32 1 2 C-2.12621626 5.39417765 -4.56541027 7.6062718 -9 9 C-8.34 8.01 -7.68 7.02 -7 6 C-6.34 6 -5.68 6 -5 6 C-4.67 5.01 -4.34 4.02 -4 3 C-3.34 3 -2.68 3 -2 3 C-2 2.34 -2 1.68 -2 1 C-1.34 0.67 -0.68 0.34 0 0 Z " fill="#AAAAAA" transform="translate(668,246)"/>
<path d="M0 0 C0.33 0.66 0.66 1.32 1 2 C-0.98 4.31 -2.96 6.62 -5 9 C-5.99 8.67 -6.98 8.34 -8 8 C-5.36 5.36 -2.72 2.72 0 0 Z " fill="#C3C3C3" transform="translate(749,185)"/>
<path d="M0 0 C2 1.8125 2 1.8125 4 4 C4 4.99 4 5.98 4 7 C1.36 7 -1.28 7 -4 7 C-3.67 6.34 -3.34 5.68 -3 5 C-1.35 5 0.3 5 2 5 C1.34 3.35 0.68 1.7 0 0 Z " fill="#313131" transform="translate(759,149)"/>
<path d="M0 0 C0.99 0.33 1.98 0.66 3 1 C2.835 1.5775 2.67 2.155 2.5 2.75 C1.85537969 5.26664369 1.85537969 5.26664369 2 9 C1.34 9 0.68 9 0 9 C0 7.35 0 5.7 0 4 C-0.66 4 -1.32 4 -2 4 C-1.34 2.68 -0.68 1.36 0 0 Z " fill="#1F1F1F" transform="translate(450,152)"/>
<path d="M0 0 C2.64 0 5.28 0 8 0 C8 0.66 8 1.32 8 2 C8.99 2.33 9.98 2.66 11 3 C11.6875 5.0625 11.6875 5.0625 12 7 C11.60167969 6.53980469 11.20335937 6.07960937 10.79296875 5.60546875 C8.70133484 3.7325678 6.98578008 3.12610698 4.3125 2.3125 C3.50425781 2.06113281 2.69601562 1.80976563 1.86328125 1.55078125 C1.24839844 1.36902344 0.63351562 1.18726563 0 1 C0 0.67 0 0.34 0 0 Z " fill="#5C5C5C" transform="translate(759,137)"/>
<path d="M0 0 C2.31 0 4.62 0 7 0 C6.67 0.66 6.34 1.32 6 2 C3.93359375 2.6328125 3.93359375 2.6328125 1.4375 3.125 C0.19806641 3.37636719 0.19806641 3.37636719 -1.06640625 3.6328125 C-1.70449219 3.75398438 -2.34257813 3.87515625 -3 4 C-2.67 3.34 -2.34 2.68 -2 2 C-1.34 2 -0.68 2 0 2 C0 1.34 0 0.68 0 0 Z " fill="#393939" transform="translate(643,389)"/>
<path d="M0 0 C0.66 0.33 1.32 0.66 2 1 C-0.57404971 4.86107457 -2.61020259 4.94319692 -7 6 C-7 5.34 -7 4.68 -7 4 C-1.7265625 0.77734375 -1.7265625 0.77734375 0 0 Z " fill="#A1A1A1" transform="translate(640,606)"/>
<path d="M0 0 C1.33332095 2.6666419 0.67102033 4.16680303 0 7 C-0.99 6.67 -1.98 6.34 -3 6 C-2.625 3.5625 -2.625 3.5625 -2 1 C-1.34 0.67 -0.68 0.34 0 0 Z " fill="#B7B7B7" transform="translate(643,380)"/>
</svg>
