<?xml version="1.0" encoding="UTF-8"?>
<svg version="1.1" xmlns="http://www.w3.org/2000/svg" width="1228" height="821">
<path d="M0 0 C405.24 0 810.48 0 1228 0 C1228 270.93 1228 541.86 1228 821 C822.76 821 417.52 821 0 821 C0 550.07 0 279.14 0 0 Z M495 39 C493.20394692 44.30652047 491.49339638 49.6007977 490 55 C488.02 55.495 488.02 55.495 486 56 C486 55.34 486 54.68 486 54 C485.33613281 53.76925781 484.67226563 53.53851563 483.98828125 53.30078125 C476.41080259 50.50209205 476.41080259 50.50209205 473.75 47.25 C469.56029149 43.82205668 465.44291197 44.39157412 460.1796875 44.3359375 C456.87137179 44.68933445 456.87137179 44.68933445 455.08203125 47.23828125 C453.98888648 50.02836555 453.67955213 51.84333085 453.8125 54.8125 C453.83957031 55.60269531 453.86664063 56.39289062 453.89453125 57.20703125 C453.92933594 57.79871094 453.96414063 58.39039062 454 59 C454.99 59 455.98 59 457 59 C457 62.96 457 66.92 457 71 C450.38485722 71.52921142 450.38485722 71.52921142 447 71 C445.28859531 69.03814584 443.62126675 67.03697617 442 65 C438.35880604 63.98429853 434.75460209 64 431 64 C430.87625 65.08539063 430.7525 66.17078125 430.625 67.2890625 C429.08018724 78.68139306 429.08018724 78.68139306 426.265625 82.1171875 C424.25 83.5 424.25 83.5 422.140625 84.703125 C418.38212442 86.9801728 415.55554575 90.45418027 413 94 C413 94.66 413 95.32 413 96 C411.515 96.495 411.515 96.495 410 97 C410.061875 98.546875 410.061875 98.546875 410.125 100.125 C409.859375 102.0703125 409.859375 102.0703125 409 104 C406.66828119 105.77103834 404.2372518 107.07362404 401.65625 108.453125 C397.84718387 110.67134586 394.70934994 113.51911332 392 117 C392 117.66 392 118.32 392 119 C390.515 119.495 390.515 119.495 389 120 C387.73735399 124.29299643 388.37049588 126.87831311 390 131 C387.69 131 385.38 131 383 131 C383 130.01 383 129.02 383 128 C381.0636296 127.49564306 379.12585854 126.99666126 377.1875 126.5 C376.10855469 126.2215625 375.02960938 125.943125 373.91796875 125.65625 C371.01066025 124.89029052 371.01066025 124.89029052 368 125 C366.63788713 126.64322978 365.30956094 128.31459035 364 130 C361.21741957 132.36399742 358.34872428 134.58282318 355.4609375 136.81640625 C353.1762931 138.84357485 352.08269642 140.1913581 351 143 C350.34 143 349.68 143 349 143 C348.9071875 142.13375 348.9071875 142.13375 348.8125 141.25 C347.48032055 137.56088769 344.42181986 135.71090993 341 134 C338.85064601 133.98480163 338.85064601 133.98480163 336.5 134.25 C335.7059375 134.31703125 334.911875 134.3840625 334.09375 134.453125 C331.61864162 134.85177161 331.61864162 134.85177161 330 138 C324.63393273 140.68303363 319.72523858 139.83728786 314 139 C314 138.34 314 137.68 314 137 C313.030625 136.690625 312.06125 136.38125 311.0625 136.0625 C308 135 308 135 307 134 C305.14712498 133.92773498 303.29166122 133.9161878 301.4375 133.9375 C300.42558594 133.94652344 299.41367187 133.95554687 298.37109375 133.96484375 C297.58863281 133.97644531 296.80617188 133.98804688 296 134 C295.67 136.31 295.34 138.62 295 141 C294.34 141 293.68 141 293 141 C292.67 142.32 292.34 143.64 292 145 C291.29875 144.34 290.5975 143.68 289.875 143 C287.15610238 140.81706217 287.15610238 140.81706217 284 140.4375 C279.95263751 141.19638047 278.66955786 142.91974093 276 146 C270.8028169 151.57746479 270.8028169 151.57746479 267 152 C266.75507813 151.44828125 266.51015625 150.8965625 266.2578125 150.328125 C263.68144749 145.5594494 260.12702474 141.49260097 256 138 C252.88733537 137.14876058 251.2363559 137.41157165 248 138 C248 137.01 248 136.02 248 135 C248.66 135 249.32 135 250 135 C249.45276317 131.62537285 248.9451 129.91765 247 127 C246.34 127 245.68 127 245 127 C244.87625 126.030625 244.7525 125.06125 244.625 124.0625 C244.41875 123.051875 244.2125 122.04125 244 121 C241.35541621 119.67770811 239.32238699 119.90322806 236.375 119.9375 C234.87066406 119.95103516 234.87066406 119.95103516 233.3359375 119.96484375 C232.56507813 119.97644531 231.79421875 119.98804687 231 120 C231.165 119.01 231.33 118.02 231.5 117 C231.52883752 114.15662047 231.12434826 113.15623243 229.32421875 110.89453125 C227.92543027 109.53154357 226.49872828 108.19649469 225.04296875 106.89453125 C223 105 223 105 221.75 102.74609375 C219.96363246 100.57168702 219.96363246 100.57168702 216.20703125 100.828125 C214.74030989 100.94758647 213.27524827 101.08903382 211.8125 101.25 C211.06291016 101.31574219 210.31332031 101.38148437 209.54101562 101.44921875 C207.69224399 101.61407737 205.84579227 101.80458816 204 102 C204 101.34 204 100.68 204 100 C200.82751465 98.91671232 197.68096813 97.91604424 194.4375 97.0625 C189.97504039 95.6831943 187.04479094 94.32340186 184.125 90.625 C181.85496014 87.82083311 179.6321667 86.26857353 176.5859375 84.40625 C175 83 175 83 174.15625 80.45703125 C173.20942174 77.73834664 173.20942174 77.73834664 170.3203125 76.85546875 C169.26585937 76.63503906 168.21140625 76.41460937 167.125 76.1875 C166.07570312 75.95417969 165.02640625 75.72085938 163.9453125 75.48046875 C160.83940469 74.89266547 160.83940469 74.89266547 157 75 C156.86722656 74.22914062 156.73445312 73.45828125 156.59765625 72.6640625 C156.33275391 71.15972656 156.33275391 71.15972656 156.0625 69.625 C155.88847656 68.62726563 155.71445313 67.62953125 155.53515625 66.6015625 C155.12287938 64.03090344 155.12287938 64.03090344 154 62 C151.47266765 61.34444881 151.47266765 61.34444881 149 61 C148.67 59.68 148.34 58.36 148 57 C139.237937 56.51259428 139.237937 56.51259428 131 59 C130.03122943 61.03243548 130.03122943 61.03243548 130 63 C128.35 63.33 126.7 63.66 125 64 C125 64.99 125 65.98 125 67 C124.34 67 123.68 67 123 67 C123 73.6 123 80.2 123 87 C121.02 87.99 121.02 87.99 119 89 C118.67 89.33 118.34 89.66 118 90 C115.89970014 90.152323 113.79312861 90.22189372 111.6875 90.25 C110.53636719 90.27578125 109.38523437 90.3015625 108.19921875 90.328125 C104.71027404 89.97028452 103.57924217 89.25470177 101 87 C98.11788698 86.03929566 96.30149956 85.89418117 93.3125 85.9375 C92.50425781 85.94652344 91.69601563 85.95554688 90.86328125 85.96484375 C90.24839844 85.97644531 89.63351563 85.98804688 89 86 C88.70867187 85.39285156 88.41734375 84.78570312 88.1171875 84.16015625 C86.44404531 80.92502467 84.90918846 79.269167 82 77 C78.90156688 76.0319982 75.8264145 75.31529663 72.64453125 74.67578125 C70 74 70 74 68 72 C66.15016365 72.20553737 64.30082957 72.4289307 62.46484375 72.734375 C59.64295046 73.0384776 57.01755283 72.81636898 54.1875 72.625 C47.23847511 72.53659001 42.06570837 75.3239615 37 80 C35.96126315 82.67028817 35.88415621 85.04259407 35.5625 87.9375 C34.85902408 90.93419665 34.3738984 91.76799125 31.71484375 93.41796875 C29.94003628 94.20705581 28.13803276 94.93821484 26.3125 95.6015625 C23.77064268 96.85246507 23.77064268 96.85246507 22.6953125 99.6875 C21.92688563 103.34832014 21.80447535 106.63719338 21.875 110.375 C21.90207031 112.24285156 21.90207031 112.24285156 21.9296875 114.1484375 C21.95289063 115.08945313 21.97609375 116.03046875 22 117 C21.13375 117.0825 20.2675 117.165 19.375 117.25 C15.18053757 118.18210276 13.08790992 118.95710335 10 122 C9.11341394 125.745405 9.11526484 129.41434788 9.125 133.25 C9.104375 134.28125 9.08375 135.3125 9.0625 136.375 C9.01541717 138.91747285 8.99555673 141.45718042 9 144 C8.34 144 7.68 144 7 144 C6.67 146.31 6.34 148.62 6 151 C7.32 151.66 8.64 152.32 10 153 C9.97679687 154.0621875 9.95359375 155.124375 9.9296875 156.21875 C9.53562049 166.83021097 9.53562049 166.83021097 12 177 C14.43687307 179.30462766 14.43687307 179.30462766 16.27734375 180.57421875 C19.19187043 182.98646872 21.25430054 186.0756701 23.484375 189.109375 C24.87188344 191.11016822 24.87188344 191.11016822 27 192 C26.49726562 193.87558594 26.49726562 193.87558594 25.984375 195.7890625 C24.74291721 201.38878288 24.92122434 206.67877055 25.25 212.375 C25.28996094 213.35855469 25.32992188 214.34210938 25.37109375 215.35546875 C25.54876473 221.0062096 25.54876473 221.0062096 28 226 C29.32 226 30.64 226 32 226 C32 227.32 32 228.64 32 230 C35.06246747 231.78409802 37.22079273 232.22880021 40.75 232.125 C41.54921875 232.10695312 42.3484375 232.08890625 43.171875 232.0703125 C43.77515625 232.04710937 44.3784375 232.02390625 45 232 C45.20496094 231.43410156 45.40992188 230.86820313 45.62109375 230.28515625 C45.89050781 229.55167969 46.15992188 228.81820312 46.4375 228.0625 C46.70433594 227.33160156 46.97117188 226.60070312 47.24609375 225.84765625 C48 224 48 224 49 223 C50.99958364 222.95919217 53.00045254 222.95745644 55 223 C55.37125 224.134375 55.7425 225.26875 56.125 226.4375 C56.87133823 228.39207676 56.87133823 228.39207676 58 230 C61.02270522 230.74000384 61.02270522 230.74000384 64 231 C64.6837045 232.32467746 65.34964186 233.65863633 66 235 C69.04199472 236.29231642 69.04199472 236.29231642 72 237 C72 238.98 72 240.96 72 243 C72.99 243.33 73.98 243.66 75 244 C75.33 246.64 75.66 249.28 76 252 C76.66 252 77.32 252 78 252 C77.95875 252.86625 77.9175 253.7325 77.875 254.625 C78.00699321 258.18881657 78.61641126 260.7230793 80 264 C80.495 264.45632813 80.99 264.91265625 81.5 265.3828125 C83.39039825 267.42089811 83.67687617 268.97726582 84.1875 271.6875 C84.34605469 272.49574219 84.50460938 273.30398438 84.66796875 274.13671875 C84.77753906 274.75160156 84.88710937 275.36648438 85 276 C85.66 276 86.32 276 87 276 C87.226875 276.556875 87.45375 277.11375 87.6875 277.6875 C88.94041476 280.14593728 88.94041476 280.14593728 91.25 282.1875 C95.69087246 286.72930138 99.26731255 291.9204206 101.6875 297.8125 C102.85964401 300.65913545 103.92414478 302.74363563 106 305 C106.66 305 107.32 305 108 305 C108.268125 305.94875 108.53625 306.8975 108.8125 307.875 C108.99941406 308.51050781 109.18632813 309.14601563 109.37890625 309.80078125 C109.81682636 311.35140401 110.21708454 312.91290518 110.58984375 314.48046875 C111.96551107 319.86103737 113.35329874 322.75866574 117.52734375 326.37890625 C119.92291278 329.01593847 120.74157508 332.21456447 121.92578125 335.52734375 C123.33952931 338.78153474 125.30530999 341.07090875 127.73046875 343.625 C129 345 129 345 130 347 C130.66 347 131.32 347 132 347 C132 349.97 132 352.94 132 356 C132.99 356.33 133.98 356.66 135 357 C134.97679687 358.20398438 134.95359375 359.40796875 134.9296875 360.6484375 C134.91093137 362.22395215 134.89273101 363.79947348 134.875 365.375 C134.84986328 366.56609375 134.84986328 366.56609375 134.82421875 367.78125 C134.80664527 369.85492015 134.89664832 371.92883241 135 374 C135.66 374.66 136.32 375.32 137 376 C137.23828125 378.03125 137.23828125 378.03125 137.3125 380.5 C137.75594518 386.2480535 139.80309743 392.80309743 144 397 C144.24514341 400.59089702 144.38440769 404.18086214 144.5234375 407.77734375 C144.68070313 408.84082031 144.83796875 409.90429688 145 411 C145.99 411.66 146.98 412.32 148 413 C148.38476562 414.90771484 148.38476562 414.90771484 148.40625 417.2109375 C148.42816406 418.04367187 148.45007813 418.87640625 148.47265625 419.734375 C148.48167969 420.60578125 148.49070313 421.4771875 148.5 422.375 C148.38451858 428.76406429 148.38451858 428.76406429 150.53125 434.6015625 C151.0159375 435.06304687 151.500625 435.52453125 152 436 C151.34 436 150.68 436 150 436 C150.44703986 440.47883696 150.44703986 440.47883696 153 444 C153.625 446.125 153.625 446.125 154 448 C154.66 448 155.32 448 156 448 C155.67 449.65 155.34 451.3 155 453 C155.66 453 156.32 453 157 453 C157.20482652 459.86389463 157.34375591 466.72698666 157.43945312 473.59326172 C157.47939314 475.92298832 157.53376661 478.25251821 157.60351562 480.58154297 C158.28883897 504.07402427 158.28883897 504.07402427 150.83007812 514.06591797 C148.47149317 517.84733125 148.40424202 520.59318445 148 525 C147 526 146 527 145 528 C144.65630949 530.027774 144.4996184 532.00839523 144.40625 534.0625 C143.89015391 536.52388135 142.78112834 537.27749107 141 539 C138.20260222 545.91121804 138.79690538 553.69987663 139 561 C137.35 561.66 135.7 562.32 134 563 C133.96261719 564.01320313 133.92523438 565.02640625 133.88671875 566.0703125 C133.82101612 567.42190939 133.75457029 568.77347029 133.6875 570.125 C133.66494141 570.79015625 133.64238281 571.4553125 133.61914062 572.140625 C133.36861598 576.78671848 132.29272411 579.9819431 130 584 C129.525625 585.0725 129.05125 586.145 128.5625 587.25 C126.83170747 590.29619485 126.05664427 590.61061624 123 592 C122.38125 592.804375 121.7625 593.60875 121.125 594.4375 C116.42649348 600.1033461 110.557643 600.52547893 103.609375 601.27734375 C100.90594757 601.73642862 100.90594757 601.73642862 99.66796875 603.8125 C97.12980983 612.12459938 100.12771232 618.60116462 104 626 C103.01 625.67 102.02 625.34 101 625 C92.69262141 623.94269727 85.67965911 627.40999124 79.12109375 632.44140625 C77.60026877 633.82865462 77.60026877 633.82865462 76 636 C76 636.66 76 637.32 76 638 C71.4161086 639.09315246 66.87488993 639.32282625 62.1875 639.5625 C61.00510742 639.62727539 61.00510742 639.62727539 59.79882812 639.69335938 C57.86605785 639.79878321 55.93304974 639.89983094 54 640 C54 643.96 54 647.92 54 652 C55.32 652 56.64 652 58 652 C58 654.31 58 656.62 58 659 C58.66 659 59.32 659 60 659 C60 659.99 60 660.98 60 662 C64.35638822 665.90957917 67.64760027 666.39912078 73.2421875 666.140625 C73.82226562 666.09421875 74.40234375 666.0478125 75 666 C75 666.66 75 667.32 75 668 C77.70879335 669.35439668 80.00933268 669.06501451 83 669 C82.93167969 669.73734375 82.86335938 670.4746875 82.79296875 671.234375 C83.04958714 674.6624093 84.00942698 675.75142803 86.3125 678.25 C86.92738281 678.93578125 87.54226562 679.6215625 88.17578125 680.328125 C91.65291215 683.51487452 95.26728955 683.14505108 99.703125 683.1015625 C102.52444094 682.97681043 105.23532877 682.56711205 108 682 C109.32 684.31 110.64 686.62 112 689 C112.66 689 113.32 689 114 689 C114.495 690.485 114.495 690.485 115 692 C118.24484731 694.28341107 121.12459955 694.17615457 125 694 C125.061875 694.7425 125.12375 695.485 125.1875 696.25 C126.24490715 699.82891652 128.10356936 700.75526625 131 703 C131.33 704.32 131.66 705.64 132 707 C137.28 707 142.56 707 148 707 C148 708.65 148 710.3 148 712 C154.6371513 715.31857565 168.79874322 716.52305842 176 715 C178.20142332 712.5609294 178.20142332 712.5609294 180 710 C182.33288492 709.95425716 184.66698014 709.96175377 187 710 C192.84213242 708.37655029 197.97271225 704.91980917 203 701.625 C203.57637207 701.26220947 204.15274414 700.89941895 204.74658203 700.52563477 C207.79699993 698.44339298 208.91162571 697.33219264 209.875 693.7109375 C209.91625 692.81632813 209.9575 691.92171875 210 691 C215.21305198 689.90251537 220.71700911 689.0242729 226 690 C228.35855225 691.80174482 229.39721148 693.43553836 231 696 C237.02454916 695.56422791 241.85802574 694.91841678 246.1875 690.4375 C249.18253712 686.55108279 249.64497793 683.50667215 249.24609375 678.6875 C249.16488281 678.130625 249.08367187 677.57375 249 677 C249.70125 677.7425 250.4025 678.485 251.125 679.25 C253.97718006 681.97817223 256.6763063 683.91302954 260 686 C260.53625 685.731875 261.0725 685.46375 261.625 685.1875 C264.41666667 683.79166667 267.20833333 682.39583333 270 681 C270.33 673.08 270.66 665.16 271 657 C273.64 656.67 276.28 656.34 279 656 C281.68620182 654.73061576 281.68620182 654.73061576 283 652 C283.45089735 647.95499335 283.85274873 643.70549745 282 640 C281.34 640 280.68 640 280 640 C280.33 639.01 280.66 638.02 281 637 C284.66651247 636.91203618 288.33274918 636.85928753 292 636.8125 C293.54494141 636.77479492 293.54494141 636.77479492 295.12109375 636.73632812 C301.49588394 636.67542249 306.22358996 637.23882251 312 640 C312.66 640.66 313.32 641.32 314 642 C314.969375 642.165 315.93875 642.33 316.9375 642.5 C320 644 320 644 320.953125 646.31640625 C321.43736467 648.12715354 321.87491415 649.95112354 322.26171875 651.78515625 C322.62716797 652.88150391 322.62716797 652.88150391 323 654 C323.99 654.33 324.98 654.66 326 655 C326.66 654.67 327.32 654.34 328 654 C328.144375 654.969375 328.28875 655.93875 328.4375 656.9375 C328.67562341 659.86486773 328.67562341 659.86486773 330 661 C331.68608966 661.07205511 333.37500659 661.08386068 335.0625 661.0625 C336.44115234 661.04896484 336.44115234 661.04896484 337.84765625 661.03515625 C338.55792969 661.02355469 339.26820313 661.01195312 340 661 C339.67 662.65 339.34 664.3 339 666 C340.65 666.33 342.3 666.66 344 667 C344 670.63 344 674.26 344 678 C342.68 678.33 341.36 678.66 340 679 C340 680.32 340 681.64 340 683 C338.35 682.67 336.7 682.34 335 682 C330.20886762 688.040993 330.81682912 693.57123487 330.8125 701 C330.80025391 702.10601563 330.78800781 703.21203125 330.77539062 704.3515625 C330.77345703 705.41117188 330.77152344 706.47078125 330.76953125 707.5625 C330.76542236 708.53316406 330.76131348 709.50382813 330.75708008 710.50390625 C330.82635289 713.25031826 330.82635289 713.25031826 333 716 C333.66 716 334.32 716 335 716 C336.66666667 719.33333333 338.33333333 722.66666667 340 726 C339.154375 726.165 338.30875 726.33 337.4375 726.5 C332.70912488 728.56329096 329.98284814 731.85030769 327 736 C325.59903754 739.07242053 325.59903754 739.07242053 327.4375 742.1875 C328.2109375 743.5796875 328.2109375 743.5796875 329 745 C329.66 745 330.32 745 331 745 C331.268125 745.598125 331.53625 746.19625 331.8125 746.8125 C333.10945065 749.20161962 333.78377858 750.41313152 336 752 C338.75181137 752.25345631 341.25459825 752.32956419 344 752.25 C344.78729492 752.23251709 345.57458984 752.21503418 346.38574219 752.19702148 C348.06005677 752.1562047 349.73422716 752.10906538 351.40820312 752.05615234 C354.01080507 751.9997659 356.60055903 752.0335636 359.203125 752.08203125 C367.7735879 752.39054994 367.7735879 752.39054994 375.421875 749.24609375 C377.09410178 746.86606801 378.07008196 744.75205474 379 742 C379.32742188 741.14277344 379.65484375 740.28554688 379.9921875 739.40234375 C380.74633886 737.29672645 381.3855594 735.15054208 382 733 C382.66 735.64 383.32 738.28 384 741 C385.32 741 386.64 741 388 741 C388 741.99 388 742.98 388 744 C391.21341369 745.60670684 394.62958968 744.82510855 398.125 744.5625 C398.87910156 744.51029297 399.63320313 744.45808594 400.41015625 744.40429688 C402.2737937 744.27454996 404.13694996 744.13792512 406 744 C405.94199219 744.92941406 405.88398438 745.85882812 405.82421875 746.81640625 C405.29937782 755.97130048 405.29937782 755.97130048 409.5234375 763.67578125 C414.14475232 767.82029375 418.00045421 769.49496671 424.046875 770.41015625 C426 771 426 771 428 774 C431.27017093 774.65561876 434.60944278 774.46304685 437.9375 774.4375 C438.85724609 774.45748047 439.77699219 774.47746094 440.72460938 774.49804688 C441.60826172 774.49740234 442.49191406 774.49675781 443.40234375 774.49609375 C444.21179443 774.49794678 445.02124512 774.4997998 445.85522461 774.50170898 C448.14919968 774.16585507 448.14919968 774.16585507 449.76391602 772.21508789 C451.29072811 769.47900925 451.29430269 767.00167937 451.55859375 763.92578125 C452 762 452 762 454.4375 759.75 C457.92349995 756.00892688 457.85235128 752.72522308 458.25 747.7421875 C459.2462128 744.09978447 460.82995915 743.84756982 464 742 C465.20176459 739.33992086 465.20176459 739.33992086 465.75 736.375 C466.95254237 731.04745763 466.95254237 731.04745763 468 730 C468.20103035 727.90628509 468.20103035 727.90628509 468.1875 725.4375 C468.20167969 724.61121094 468.21585937 723.78492188 468.23046875 722.93359375 C468.07495214 719.8245737 468.07495214 719.8245737 466.99609375 716.22265625 C465.81462872 711.77283935 465.77182063 707.57957646 465.875 703 C465.88853516 701.83791016 465.88853516 701.83791016 465.90234375 700.65234375 C465.92560612 698.76809157 465.9614636 696.88400168 466 695 C464.88753906 694.39542969 463.77507812 693.79085937 462.62890625 693.16796875 C459.92069084 691.69618077 458.88778843 690.85378492 456.9375 688.3125 C455.12922527 685.69397322 455.12922527 685.69397322 451.75 685.1875 C450.8425 685.125625 449.935 685.06375 449 685 C448.67 684.01 448.34 683.02 448 682 C445.68743506 679.27073609 445.68743506 679.27073609 443 677 C442.01 677 441.02 677 440 677 C440.08733576 675.39482903 440.19552224 673.79078338 440.3125 672.1875 C440.37050781 671.29417969 440.42851562 670.40085937 440.48828125 669.48046875 C441 667 441 667 442.50708008 665.62792969 C444.45810848 663.50046323 444.3863206 662.32560881 444.3984375 659.47265625 C444.40230469 658.59802734 444.40617187 657.72339844 444.41015625 656.82226562 C444.39855469 655.91154297 444.38695312 655.00082031 444.375 654.0625 C444.39240234 652.7022168 444.39240234 652.7022168 444.41015625 651.31445312 C444.40628906 650.43853516 444.40242188 649.56261719 444.3984375 648.66015625 C444.39505371 647.86230713 444.39166992 647.06445801 444.38818359 646.24243164 C443.90208904 643.43439488 442.97783013 642.03272146 441 640 C440.01 640 439.02 640 438 640 C438.32484375 639.07767578 438.32484375 639.07767578 438.65625 638.13671875 C438.9346875 637.32847656 439.213125 636.52023437 439.5 635.6875 C439.91765625 634.48673828 439.91765625 634.48673828 440.34375 633.26171875 C441.13933107 630.91230578 441.13933107 630.91230578 441 628 C441.99 628 442.98 628 444 628 C444.33 626.02 444.66 624.04 445 622 C445.99 622 446.98 622 448 622 C449.47075246 617.58774263 450.36884358 614.51718381 449 610 C448.01 609.67 447.02 609.34 446 609 C445.67 606.69 445.34 604.38 445 602 C443.68 602.33 442.36 602.66 441 603 C441 599.37 441 595.74 441 592 C441.66 592 442.32 592 443 592 C443.18433594 591.32195313 443.36867188 590.64390625 443.55859375 589.9453125 C448.25058647 574.8892292 460.90270571 566.66343077 473.25 558 C476.0479497 556.28769823 476.0479497 556.28769823 477 554 C480.22133877 553.38576168 483.44639473 553.0396169 486.703125 552.66015625 C489.97975599 552.22574828 489.97975599 552.22574828 492.24609375 550.4765625 C496.56612246 548.16029179 500.98250422 548.42603247 505.8125 548.3125 C506.79154297 548.27833984 507.77058594 548.24417969 508.77929688 548.20898438 C511.18608345 548.12680142 513.59251945 548.05755567 516 548 C516 546.68 516 545.36 516 544 C533.49 544 550.98 544 569 544 C569.33 545.32 569.66 546.64 570 548 C570.96679688 548.03738281 571.93359375 548.07476563 572.9296875 548.11328125 C579.80503645 548.46045234 586.1451154 548.98968715 592.703125 551.234375 C596.4029695 552.4676565 600.18595081 553.20028001 604 554 C604 554.66 604 555.32 604 556 C604.75925781 556.09796875 605.51851562 556.1959375 606.30078125 556.296875 C607.29464844 556.44640625 608.28851562 556.5959375 609.3125 556.75 C610.29863281 556.88921875 611.28476562 557.0284375 612.30078125 557.171875 C615.52086478 558.15980222 616.1387285 559.30007419 618 562 C619.051875 562.144375 620.10375 562.28875 621.1875 562.4375 C625.45877473 563.06768807 627.58859283 564.42722965 631.07421875 566.81640625 C633.13038737 568.20972429 633.13038737 568.20972429 636.375 568.875 C637.24125 569.24625 638.1075 569.6175 639 570 C640.375 573.625 640.375 573.625 641 577 C641.99 577 642.98 577 644 577 C644 576.34 644 575.68 644 575 C644.99 575 645.98 575 647 575 C647.66 576.98 648.32 578.96 649 581 C650.32 581 651.64 581 653 581 C655 581 655 581 657.34375 583.14453125 C660.71971888 586.7736978 663.70018659 590.6468977 666.71875 594.57421875 C669.10493457 597.11158283 670.77925246 597.85679951 674 599 C675.125 601.3125 675.125 601.3125 676 604 C676.97236487 605.6829392 677.96564444 607.35443434 679 609 C681.97 608.67 684.94 608.34 688 608 C688.12375 609.0828125 688.12375 609.0828125 688.25 610.1875 C689.90632726 616.39872723 695.21271446 620.0867975 700 624 C699.1953125 627.8359375 699.1953125 627.8359375 697.4375 629.3125 C695.16261457 631.98301768 695.80954161 634.63523508 696 638 C694.68 638.33 693.36 638.66 692 639 C691.87625 639.639375 691.7525 640.27875 691.625 640.9375 C691.41875 641.618125 691.2125 642.29875 691 643 C690.34 643.33 689.68 643.66 689 644 C688.67 655.55 688.34 667.1 688 679 C686.68 678.67 685.36 678.34 684 678 C680.18605765 683.08525647 678.19833669 687.91002891 676.625 694 C676.44549805 694.66386719 676.26599609 695.32773437 676.08105469 696.01171875 C674.88234593 700.98233184 675.13459954 704.96494277 676 710 C676.99 710.33 677.98 710.66 679 711 C679.28875 711.61875 679.5775 712.2375 679.875 712.875 C681.44749157 715.84526186 682.95467686 716.57452959 686 718 C688.27119905 718.55234242 690.5519009 719.01038018 692.84375 719.46875 C695.62496575 720.15397707 697.71552151 721.28664114 700 723 C700.33 723.66 700.66 724.32 701 725 C706.8435418 727.27480734 714.78779323 729.90374078 721 728 C725.02478633 724.37769231 726.15026085 719.62021409 727.25 714.5 C728.7958244 708.00934549 732.69387407 704.76563776 738 701 C738.66 700.67 739.32 700.34 740 700 C740 697.69 740 695.38 740 693 C740.598125 692.731875 741.19625 692.46375 741.8125 692.1875 C744.01118665 691.14286286 744.01118665 691.14286286 745.375 689.53125 C747.23442029 687.77910396 748.78410937 687.13989677 751.1875 686.3125 C751.90292969 686.06113281 752.61835937 685.80976562 753.35546875 685.55078125 C753.89816406 685.36902344 754.44085937 685.18726563 755 685 C756 686 756 686 757.4375 688.5 C758.75803929 691.09629048 758.75803929 691.09629048 761 692 C762.95637514 692.0969632 764.91622931 692.12978917 766.875 692.125 C768.44894531 692.12886719 768.44894531 692.12886719 770.0546875 692.1328125 C772.57479607 692.01917365 774.58640101 691.64258155 777 691 C777.99 691.061875 778.98 691.12375 780 691.1875 C783.11105504 691.30178452 783.11105504 691.30178452 785.1875 689.0625 C785.785625 688.381875 786.38375 687.70125 787 687 C787.99 686.67 788.98 686.34 790 686 C790.185625 687.3921875 790.185625 687.3921875 790.375 688.8125 C790.81533082 692.13925235 790.81533082 692.13925235 793 695 C794.66014616 695.36442233 796.32706064 695.69972883 798 696 C798.33 696.66 798.66 697.32 799 698 C799.66 698 800.32 698 801 698 C801 698.66 801 699.32 801 700 C802.28659163 701.37849103 803.62913085 702.70529025 805 704 C806.0209375 705.11375 806.0209375 705.11375 807.0625 706.25 C808.93591385 708.33514313 808.93591385 708.33514313 812 708 C811.87625 709.051875 811.87625 709.051875 811.75 710.125 C812.08446819 713.97138418 813.63496961 716.00893216 816 719 C816.66 719 817.32 719 818 719 C818.226875 719.9075 818.45375 720.815 818.6875 721.75 C820.19189738 725.47517446 821.66834773 726.83442602 825 729 C825.66 729 826.32 729 827 729 C827.10699219 729.73089844 827.21398437 730.46179688 827.32421875 731.21484375 C828.04900691 734.20197645 829.07989033 736.04034669 830.8125 738.5625 C831.35132813 739.34753906 831.89015625 740.13257813 832.4453125 740.94140625 C833.9803968 743.10409005 833.9803968 743.10409005 836.1875 745 C838.19082551 747.21056608 838.53090455 748.54053939 839.3125 751.375 C840.64999656 755.80681291 842.4702331 757.70216861 846.08984375 760.46875 C850.26232165 763.81355846 854.16637512 767.8696253 856.125 772.875 C856.41375 773.57625 856.7025 774.2775 857 775 C858.6635479 775.67441131 860.33066942 776.3400321 862 777 C863.73473712 778.94125344 865.4045651 780.94272868 867 783 C868.74181217 785.16990344 869.47774073 785.92158522 872.26831055 786.34057617 C873.13238525 786.32486572 873.99645996 786.30915527 874.88671875 786.29296875 C875.82451172 786.28330078 876.76230469 786.27363281 877.72851562 786.26367188 C879.19321289 786.2259668 879.19321289 786.2259668 880.6875 786.1875 C882.16959961 786.16719727 882.16959961 786.16719727 883.68164062 786.14648438 C886.12164231 786.11112203 888.56054719 786.06177033 891 786 C891 785.01 891 784.02 891 783 C891.94875 783.020625 892.8975 783.04125 893.875 783.0625 C896.90666283 783.22551826 896.90666283 783.22551826 899 782 C904.39404183 781.76547644 904.39404183 781.76547644 906.8671875 782.72265625 C910.16339054 783.15128339 911.65747596 781.50689303 914.25 779.5625 C915.14203125 778.90378906 916.0340625 778.24507812 916.953125 777.56640625 C917.62859375 777.04949219 918.3040625 776.53257812 919 776 C918.67 773.03 918.34 770.06 918 767 C919.11375 766.608125 920.2275 766.21625 921.375 765.8125 C924.06137753 764.65111658 924.8455334 764.24848975 926.4375 761.6875 C927.20486315 758.47883193 927.20486315 758.47883193 927 753 C935.25 753 943.5 753 952 753 C952 753.66 952 754.32 952 755 C955.46778427 756.32968165 955.46778427 756.32968165 959 756 C960.82519234 754.04963504 960.82519234 754.04963504 962.5 751.5 C966.86338494 745.3878321 971.78147242 743.24311108 978.51171875 740.47265625 C983.62697996 738.33736623 983.62697996 738.33736623 988 735 C996.34058623 734.18628427 1005.43408789 735.21704394 1013 739 C1015.04055005 739.07065617 1017.08334257 739.08421976 1019.125 739.0625 C1020.22070312 739.05347656 1021.31640625 739.04445313 1022.4453125 739.03515625 C1023.28835938 739.02355469 1024.13140625 739.01195312 1025 739 C1025.09410156 739.79019531 1025.18820312 740.58039062 1025.28515625 741.39453125 C1025.52105469 742.25433594 1025.75695313 743.11414063 1026 744 C1029.40663508 745.74570339 1029.40663508 745.74570339 1033 747 C1033.66 747.66 1034.32 748.32 1035 749 C1037.41084136 749.8737858 1039.80337701 750.67909383 1042.25 751.4375 C1054.1399786 755.1399786 1054.1399786 755.1399786 1058 759 C1060.57061311 759.64767793 1060.57061311 759.64767793 1063 760 C1063.33 760.99 1063.66 761.98 1064 763 C1066.32671854 763.68939809 1068.66067594 764.35466922 1071 765 C1072.6875 766.5 1072.6875 766.5 1074 768 C1077.085903 769.8913599 1078.17320731 770 1082 770 C1082 771.32 1082 772.64 1082 774 C1083.0725 774.04125 1084.145 774.0825 1085.25 774.125 C1089 775 1089 775 1091.3125 778 C1092.1478125 779.485 1092.1478125 779.485 1093 781 C1095.3796612 782.1898306 1096.91485735 782.13349966 1099.5625 782.125 C1100.77099609 782.12886719 1100.77099609 782.12886719 1102.00390625 782.1328125 C1103.99942021 782.22011391 1103.99942021 782.22011391 1105 781 C1105.07205511 779.31391034 1105.08386068 777.62499341 1105.0625 775.9375 C1105.05347656 775.01839844 1105.04445313 774.09929688 1105.03515625 773.15234375 C1105.02355469 772.44207031 1105.01195312 771.73179687 1105 771 C1103.02 771 1101.04 771 1099 771 C1099.33 769.02 1099.66 767.04 1100 765 C1100.886875 765.144375 1101.77375 765.28875 1102.6875 765.4375 C1103.780625 765.293125 1104.87375 765.14875 1106 765 C1107.08800381 763.4019944 1108.16392865 761.79420345 1109.171875 760.14453125 C1112.19956514 756.59281782 1116.19501047 754.45953328 1120.1875 752.10961914 C1124.06864579 749.90899635 1124.06864579 749.90899635 1126 746 C1126.36290657 740.64712816 1125.86986429 737.00809437 1123.79296875 732.09375 C1122.64590277 729.06504377 1122.10012651 725.96546436 1121.52734375 722.78515625 C1121.26630859 721.90150391 1121.26630859 721.90150391 1121 721 C1120.34 720.67 1119.68 720.34 1119 720 C1118.3671875 717.49609375 1118.3671875 717.49609375 1117.875 714.4375 C1117.70742187 713.42558594 1117.53984375 712.41367187 1117.3671875 711.37109375 C1117.24601562 710.58863281 1117.12484375 709.80617188 1117 709 C1116.01 709 1115.02 709 1114 709 C1113.95512451 708.20827393 1113.91024902 707.41654785 1113.86401367 706.60083008 C1113.65232782 703.00375234 1113.42013586 699.40828105 1113.1875 695.8125 C1113.08211914 693.94368164 1113.08211914 693.94368164 1112.97460938 692.03710938 C1112.85375977 690.2340332 1112.85375977 690.2340332 1112.73046875 688.39453125 C1112.66239014 687.28956299 1112.59431152 686.18459473 1112.52416992 685.04614258 C1111.94986202 681.70862993 1110.91100936 679.76829011 1109 677 C1106.75061292 673.62591937 1106.11783557 670.58738675 1105.375 666.6875 C1105.2409375 666.03587891 1105.106875 665.38425781 1104.96875 664.71289062 C1104.36002336 661.61024822 1104.0056973 658.81177006 1104.1015625 655.64453125 C1104.06804687 654.77183594 1104.03453125 653.89914062 1104 653 C1103.01 652.34 1102.02 651.68 1101 651 C1100.30810547 648.28540039 1100.30810547 648.28540039 1099.8671875 644.84765625 C1099.70089844 643.59533203 1099.53460937 642.34300781 1099.36328125 641.05273438 C1099.20038986 639.72267228 1099.03763017 638.39259406 1098.875 637.0625 C1098.70613281 635.78052734 1098.53726562 634.49855469 1098.36328125 633.17773438 C1095.58464075 611.72531698 1094.5994204 590.10921518 1098.58984375 568.73828125 C1099.22656195 564.4874293 1099.17067714 560.2858926 1099 556 C1099.99 556 1100.98 556 1102 556 C1102 553.69 1102 551.38 1102 549 C1102.66 549 1103.32 549 1104 549 C1104.33 547.02 1104.66 545.04 1105 543 C1105.99 542.67 1106.98 542.34 1108 542 C1109.14358586 540.25318339 1109.14358586 540.25318339 1110 538.0625 C1110.51626953 536.84433594 1110.51626953 536.84433594 1111.04296875 535.6015625 C1111.97575877 533.06589656 1112.65197837 530.55527286 1113.3125 527.9375 C1114.89001715 522.50100273 1117.53478483 518.51591746 1122 515 C1124.75789725 513.84284032 1127.00452933 513.42041694 1130 513 C1131.485 515.97 1131.485 515.97 1133 519 C1133.66 519 1134.32 519 1135 519 C1135.33 519.99 1135.66 520.98 1136 522 C1136.66 522 1137.32 522 1138 522 C1138.33 523.32 1138.66 524.64 1139 526 C1140.98 526 1142.96 526 1145 526 C1145.32871094 525.27554687 1145.65742187 524.55109375 1145.99609375 523.8046875 C1150.34828763 514.95876499 1155.34951165 511.24695921 1164 507 C1164 506.34 1164 505.68 1164 505 C1165.32 504.34 1166.64 503.68 1168 503 C1167.96519531 501.31970703 1167.96519531 501.31970703 1167.9296875 499.60546875 C1167.91092763 498.13281916 1167.89272766 496.66016237 1167.875 495.1875 C1167.85824219 494.44951172 1167.84148437 493.71152344 1167.82421875 492.95117188 C1167.78925372 489.08753574 1167.80602445 487.29096332 1170 484 C1170.33775739 479.4402752 1169.99840383 476.1217079 1168 472 C1166.02 472 1164.04 472 1162 472 C1161.67 469.03 1161.34 466.06 1161 463 C1159.02 463.495 1159.02 463.495 1157 464 C1156.67 463.01 1156.34 462.02 1156 461 C1152.25723618 456.67971451 1152.25723618 456.67971451 1147 455 C1147.33 452.36 1147.66 449.72 1148 447 C1148.66 447 1149.32 447 1150 447 C1150 439.08 1150 431.16 1150 423 C1148.02 423 1146.04 423 1144 423 C1143.67 421.68 1143.34 420.36 1143 419 C1140.36 419 1137.72 419 1135 419 C1134.6875 416.25 1134.6875 416.25 1135 413 C1137.5 410.625 1137.5 410.625 1140 409 C1139.67 407.68 1139.34 406.36 1139 405 C1139.99 404.67 1140.98 404.34 1142 404 C1139.28536367 399.40600006 1136.97607664 396.34720596 1132 394 C1128.91674228 393.97476876 1126.01626202 394.38334199 1123 395 C1122.855625 394.236875 1122.71125 393.47375 1122.5625 392.6875 C1122.0367406 389.91827092 1122.0367406 389.91827092 1121 387 C1120.236875 386.979375 1119.47375 386.95875 1118.6875 386.9375 C1116 386 1116 386 1114.1875 382.4375 C1113.795625 381.303125 1113.40375 380.16875 1113 379 C1112.01 379 1111.02 379 1110 379 C1110.06041869 376.9367016 1110.14931638 374.87422586 1110.25 372.8125 C1110.31960938 371.08966797 1110.31960938 371.08966797 1110.390625 369.33203125 C1111.09151813 365.49958358 1112.45084592 363.8703475 1115 361 C1115 360.34 1115 359.68 1115 359 C1115.58136719 358.731875 1116.16273437 358.46375 1116.76171875 358.1875 C1120.59157175 356.15560591 1123.68899617 353.70723531 1126 350 C1125.93737759 347.69165983 1125.93737759 347.69165983 1125.3125 345.3125 C1124.61827576 341.52051886 1124.89074257 340.20482712 1126.74609375 336.7265625 C1129.76580223 332.51175969 1132.79297654 328.63015942 1137.94140625 327.16015625 C1140.8125 327 1140.8125 327 1143.6171875 327.0703125 C1146.23924092 327.24518857 1146.23924092 327.24518857 1148.4375 324.875 C1152.30428508 322.04564506 1155.73625768 322.97826527 1160.35546875 323.4453125 C1163 324 1163 324 1165 326 C1167.88717605 326.6837613 1167.88717605 326.6837613 1171.125 327.125 C1172.22070312 327.29257812 1173.31640625 327.46015625 1174.4453125 327.6328125 C1175.28835938 327.75398438 1176.13140625 327.87515625 1177 328 C1177.33 329.65 1177.66 331.3 1178 333 C1184.80651011 334.62197688 1191.00257269 335.19992649 1198 335 C1198 330.38 1198 325.76 1198 321 C1196.35 320.34 1194.7 319.68 1193 319 C1191.4375 317.5625 1191.4375 317.5625 1190 316 C1185.81164202 312.17382819 1181.27776397 311.95205083 1175.79296875 311.421875 C1173 311 1173 311 1171 309 C1168.41645782 308.83312552 1168.41645782 308.83312552 1166 309 C1165.938125 308.38125 1165.87625 307.7625 1165.8125 307.125 C1165.19077693 304.79047839 1165.19077693 304.79047839 1162.8125 303.875 C1159.76826148 302.92790357 1157.36540546 302.79842396 1154.1875 302.875 C1153.21167969 302.89304687 1152.23585938 302.91109375 1151.23046875 302.9296875 C1150.49441406 302.95289063 1149.75835938 302.97609375 1149 303 C1148.67 301.68 1148.34 300.36 1148 299 C1145.03 299 1142.06 299 1139 299 C1139 297.68 1139 296.36 1139 295 C1138.01 295 1137.02 295 1136 295 C1136.01160156 294.30132812 1136.02320313 293.60265625 1136.03515625 292.8828125 C1136.04417969 291.97273437 1136.05320312 291.06265625 1136.0625 290.125 C1136.07410156 289.22007812 1136.08570313 288.31515625 1136.09765625 287.3828125 C1136.16249257 284.9831415 1136.16249257 284.9831415 1135 283 C1134.80152578 279.86116704 1134.65462678 276.72965567 1134.5703125 273.5859375 C1134.40820696 269.50422043 1134.40820696 269.50422043 1132.44140625 266.0390625 C1130.16896621 262.82439122 1130.93969253 259.48467301 1131.3125 255.75 C1131.4043457 254.63238281 1131.4043457 254.63238281 1131.49804688 253.4921875 C1131.6507143 251.66017845 1131.82339754 249.82985684 1132 248 C1131.01 247.67 1130.02 247.34 1129 247 C1129 246.34 1129 245.68 1129 245 C1127.35 244.67 1125.7 244.34 1124 244 C1124 242.68 1124 241.36 1124 240 C1121.69 240 1119.38 240 1117 240 C1117 239.34 1117 238.68 1117 238 C1114.43468859 236.93940503 1114.43468859 236.93940503 1111 237 C1108.91305922 238.27095199 1108.91305922 238.27095199 1106.8125 239.9375 C1101.65079086 243.7515274 1097.21792648 243.62760379 1091 243 C1090.73445313 242.35546875 1090.46890625 241.7109375 1090.1953125 241.046875 C1089.80085938 240.37140625 1089.40640625 239.6959375 1089 239 C1085.94091587 238.18415432 1085.94091587 238.18415432 1083 238 C1082.67 237.01 1082.34 236.02 1082 235 C1081.01935841 233.98100929 1080.01721629 232.98248207 1079 232 C1078.57460937 231.38640625 1078.14921875 230.7728125 1077.7109375 230.140625 C1076.27164923 228.10373751 1074.97985437 226.52595763 1073 225 C1070.65871442 224.81610592 1068.74653958 225.18820501 1066.44921875 225.65625 C1062.21020687 226.25119904 1058.04694332 225.30818016 1054 224 C1053.34 223.34 1052.68 222.68 1052 222 C1049.08047432 222.01748219 1046.27702115 222.13944633 1043.375 222.375 C1042.57320312 222.43171875 1041.77140625 222.4884375 1040.9453125 222.546875 C1038.96284502 222.68847982 1036.98130949 222.84302259 1035 223 C1035.03552979 222.26362305 1035.07105957 221.52724609 1035.10766602 220.76855469 C1035.26536222 217.42929153 1035.4140288 214.0896855 1035.5625 210.75 C1035.61857422 209.59113281 1035.67464844 208.43226563 1035.73242188 207.23828125 C1035.78076172 206.12324219 1035.82910156 205.00820312 1035.87890625 203.859375 C1035.94960327 202.31975098 1035.94960327 202.31975098 1036.02172852 200.74902344 C1036.00222257 198.28119317 1035.72799029 196.34329535 1035 194 C1033.35 194 1031.7 194 1030 194 C1029 192 1028 190 1027 188 C1022.71 188 1018.42 188 1014 188 C1013.67 188.99 1013.34 189.98 1013 191 C1009.37 190.67 1005.74 190.34 1002 190 C1001.89042969 188.99839844 1001.78085937 187.99679688 1001.66796875 186.96484375 C1000.56035963 177.14775383 1000.56035963 177.14775383 997 168 C994.0745356 167.7763932 994.0745356 167.7763932 992 169 C991.34 167.68 990.68 166.36 990 165 C986.83196731 164.44559428 984.74121562 164.52752922 981.99609375 166.27734375 C977.74044752 169.8385202 974.90638604 173.49401644 972.14453125 178.26953125 C970.49613982 180.76180908 968.72371628 181.84242058 966 183 C965.113125 183.12375 964.22625 183.2475 963.3125 183.375 C962.549375 183.58125 961.78625 183.7875 961 184 C960.7525 184.78375 960.505 185.5675 960.25 186.375 C959 189 959 189 956.8828125 189.99609375 C954.60165634 190.73871312 952.32540653 191.41147119 950 192 C949.67 193.65 949.34 195.3 949 197 C948.03513672 197.07347656 948.03513672 197.07347656 947.05078125 197.1484375 C939.63907948 197.76167388 932.33776934 198.79842569 925 200 C924.67 201.32 924.34 202.64 924 204 C923.26394531 203.94199219 922.52789063 203.88398438 921.76953125 203.82421875 C915.55248223 203.42894795 915.55248223 203.42894795 910.125 206.0625 C909.00147491 207.61560821 907.88583079 209.17626801 906.84375 210.78515625 C903.68793138 215.54922859 901.41220012 217.09570737 896 219 C894.515 219.99 894.515 219.99 893 221 C891.34450469 221.38499891 889.6777567 221.72793135 888 222 C887.34 220.68 886.68 219.36 886 218 C885.34 218 884.68 218 884 218 C884 217.34 884 216.68 884 216 C879.53375705 214.35092568 875.34887399 213.545437 870.625 213 C865.26395348 212.33449078 860.19016783 211.4829051 855 210 C855.825 209.525625 856.65 209.05125 857.5 208.5625 C860.15652435 205.83956255 860.50495744 205.18064772 860.8125 201.5625 C860.79879101 199.16944238 860.79879101 199.16944238 860 197 C858.10587455 195.38082824 856.1832428 194.37281893 853.96875 193.23828125 C850.79487765 191.2420163 850.15075927 188.4522778 849 185 C847.01268249 180.94250153 847.01268249 180.94250153 844.8125 177 C844 175 844 175 844.0625 171.9375 C844.30876735 169.01912718 844.30876735 169.01912718 842.625 167.375 C841.820625 166.694375 841.820625 166.694375 841 166 C840.67 165.319375 840.34 164.63875 840 163.9375 C839.02674942 161.66757845 839.02674942 161.66757845 836 160 C835.7791436 157.04935852 835.71939011 154.31631769 835.8125 151.375 C835.82603516 150.57320313 835.83957031 149.77140625 835.85351562 148.9453125 C835.88890949 146.96325622 835.94271766 144.98154449 836 143 C834.68 142.67 833.36 142.34 832 142 C832 141.34 832 140.68 832 140 C828.93753253 138.21590198 826.77920727 137.77119979 823.25 137.875 C822.45078125 137.89304687 821.6515625 137.91109375 820.828125 137.9296875 C820.22484375 137.95289063 819.6215625 137.97609375 819 138 C818.67 136.68 818.34 135.36 818 134 C816.35 134.33 814.7 134.66 813 135 C813.33 133.68 813.66 132.36 814 131 C812.78183594 130.443125 812.78183594 130.443125 811.5390625 129.875 C809 128 809 128 808.3984375 125.1875 C808.39070312 124.135625 808.38296875 123.08375 808.375 122 C808.53859807 117.84603761 808.53859807 117.84603761 806.57421875 114.4765625 C806.05472656 113.98929687 805.53523437 113.50203125 805 113 C804.12109375 110.3359375 804.12109375 110.3359375 803.4375 107.375 C802.80265415 104.47697489 802.80265415 104.47697489 802 102 C801.34 101.67 800.68 101.34 800 101 C799.34 101.33 798.68 101.66 798 102 C798 100.68 798 99.36 798 98 C797.278125 97.938125 796.55625 97.87625 795.8125 97.8125 C791.30237376 96.50957464 788.9519143 93.13039823 786 89.625 C784.07054054 87.67090232 784.07054054 87.67090232 781.25 88.25 C780.5075 88.4975 779.765 88.745 779 89 C779 89.66 779 90.32 779 91 C776.525 91.99 776.525 91.99 774 93 C774 93.66 774 94.32 774 95 C771.69 94.67 769.38 94.34 767 94 C766.9175 93.236875 766.835 92.47375 766.75 91.6875 C765.82328937 88.36678691 764.90366431 87.76258068 762 86 C754.37789482 84.37835985 743.70550879 83.77669472 736.9140625 87.8515625 C734.7436993 90.47096636 733.36324145 92.8876149 732 96 C731.57074219 96.85335937 731.14148438 97.70671875 730.69921875 98.5859375 C727.409783 106.11433684 727.21869846 113.89722192 727 122 C726.39671875 121.97679688 725.7934375 121.95359375 725.171875 121.9296875 C724.37265625 121.91164063 723.5734375 121.89359375 722.75 121.875 C721.56664062 121.84019531 721.56664062 121.84019531 720.359375 121.8046875 C717.79268059 122.0171622 716.2083933 122.71345895 714 124 C713.67 123.34 713.34 122.68 713 122 C711.68 122 710.36 122 709 122 C708.87625 120.9171875 708.87625 120.9171875 708.75 119.8125 C707.84343384 116.41287691 706.36105545 114.57569685 704 112 C700.24512279 110.12256139 696.06598922 110.19834597 692 111 C690.19004968 112.58476871 689.19229236 114.07709713 688.03515625 116.17578125 C686.83134876 118.29720803 685.98712336 119.55599496 684 121 C680.8203125 121.4765625 680.8203125 121.4765625 677.125 121.625 C672.97087114 121.81021594 669.05583971 122.05929193 665 123 C665.33 121.824375 665.66 120.64875 666 119.4375 C667.55444589 113.14199413 667.37297577 108.08075041 665 102 C664.34 102 663.68 102 663 102 C662.8453125 101.0409375 662.8453125 101.0409375 662.6875 100.0625 C662.460625 99.381875 662.23375 98.70125 662 98 C661.01 97.67 660.02 97.34 659 97 C658.65195313 96.01966797 658.65195313 96.01966797 658.296875 95.01953125 C657.06499178 92.59277331 657.06499178 92.59277331 653.515625 92.13671875 C652.09588975 91.96789255 650.67368716 91.81889765 649.25 91.6875 C648.19425781 91.55891602 648.19425781 91.55891602 647.1171875 91.42773438 C641.05427829 90.76847752 636.04427452 90.88184732 630.9375 94.5625 C627.78306701 96.64743 625.8678466 97.6446411 622 97 C621.38511719 96.84273437 620.77023437 96.68546875 620.13671875 96.5234375 C612.9652198 94.75598114 612.9652198 94.75598114 606 96.375 C604.12076359 97.8449367 604.12076359 97.8449367 603 99 C595.92141572 99.47990402 595.92141572 99.47990402 592 97.4375 C587.86230418 95.45485409 585.45246726 96.15556655 581 97 C581 97.66 581 98.32 581 99 C573.46332046 99.37065637 573.46332046 99.37065637 571.125 97.5 C570.75375 97.005 570.3825 96.51 570 96 C569.34 96 568.68 96 568 96 C567.835 95.319375 567.67 94.63875 567.5 93.9375 C565.24074312 89.51312194 562.2154398 86.61694503 558 84 C554.35611253 82.90827025 550.78389856 82.3408291 547 82 C547 82.66 547 83.32 547 84 C546.01 84 545.02 84 544 84 C543.8453125 82.63875 543.8453125 82.63875 543.6875 81.25 C543.26288056 78.03883419 543.26288056 78.03883419 541.4921875 76.1171875 C539.69216071 73.56322279 539.58054545 71.9666275 539.4375 68.875 C539.37658256 64.96669166 539.37658256 64.96669166 537 62 C535.01178687 61.60235737 533.01055661 61.26224651 531 61 C530.67 60.01 530.34 59.02 530 58 C528.68 58 527.36 58 526 58 C525.67 57.01 525.34 56.02 525 55 C522.0774285 51.42796816 519.46132541 50.09256949 515 49 C512.24934768 48.83142517 512.24934768 48.83142517 510 49 C510 47.68 510 46.36 510 45 C508.35 45 506.7 45 505 45 C505 43.02 505 41.04 505 39 C501.7 39 498.4 39 495 39 Z " fill="#FDFDFD" transform="translate(0,0)"/>
<path d="M0 0 C4.05563761 0.62394425 6.95880879 2.04253738 9.4375 5.375 C10.40307235 9.53615704 10.39648162 13.21161638 9.4375 17.375 C7.45489574 19.06232277 5.4542658 20.72866057 3.4375 22.375 C2.77556567 25.43754948 2.62253252 28.33113088 2.52734375 31.4609375 C2.4375 34.375 2.4375 34.375 1.6875 37.875 C1.22779782 44.31083057 2.6962814 51.08654127 6.625 56.25 C9.68056909 61.51822257 8.73090503 67.42539795 8.4375 73.375 C5.41066237 74.04103617 2.54223351 74.47414275 -0.5625 74.375 C-5.18629218 71.35948336 -6.38265788 67.62771815 -7.89453125 62.57421875 C-9.30172863 57.9411654 -11.28508734 54.61658508 -14.625 51.1875 C-18.06787291 47.39780206 -18.41845941 43.75855203 -19.0625 38.80078125 C-19.36008601 36.18157018 -19.36008601 36.18157018 -21.6875 34.375 C-24.18565898 31.71029709 -23.82162307 30.219488 -23.8125 26.625 C-23.74833428 24.87419241 -23.67103491 23.12361792 -23.5625 21.375 C-22.2425 21.045 -20.9225 20.715 -19.5625 20.375 C-19.830625 19.488125 -20.09875 18.60125 -20.375 17.6875 C-20.5625 14.375 -20.5625 14.375 -18.375 11.6875 C-15.5625 9.375 -15.5625 9.375 -13.3125 7.875 C-11.01262455 5.90367818 -10.88091635 4.3203512 -10.5625 1.375 C-8.59304993 1.10795592 -6.62271906 0.84578852 -4.6484375 0.6171875 C-3.09579042 0.43691761 -1.54660398 0.22633229 0 0 Z " fill="#282425" transform="translate(651.5625,657.625)"/>
<path d="M0 0 C3.23834819 0.49820741 5.42559632 1.51294273 8.0546875 3.46484375 C10.93980078 7.45021209 9.90718854 12.70048077 9.4375 17.375 C8.7775 17.375 8.1175 17.375 7.4375 17.375 C7.1075 16.715 6.7775 16.055 6.4375 15.375 C5.06464844 15.48328125 5.06464844 15.48328125 3.6640625 15.59375 C1.88128906 15.73296875 1.88128906 15.73296875 0.0625 15.875 C-1.12085938 15.9678125 -2.30421875 16.060625 -3.5234375 16.15625 C-5.20036843 16.27695454 -6.88123056 16.375 -8.5625 16.375 C-8.5625 20.005 -8.5625 23.635 -8.5625 27.375 C-9.5525 27.705 -10.5425 28.035 -11.5625 28.375 C-11.500625 29.138125 -11.43875 29.90125 -11.375 30.6875 C-11.5625 33.375 -11.5625 33.375 -12.875 35.1875 C-14.5625 36.375 -14.5625 36.375 -17.5625 36.375 C-17.5625 38.685 -17.5625 40.995 -17.5625 43.375 C-17.8925 43.375 -18.2225 43.375 -18.5625 43.375 C-18.645 42.3025 -18.7275 41.23 -18.8125 40.125 C-19.16490583 36.34530907 -19.16490583 36.34530907 -21.625 34.625 C-24.87662639 30.84891774 -23.8591137 26.15377634 -23.5625 21.375 C-22.2425 21.045 -20.9225 20.715 -19.5625 20.375 C-19.830625 19.488125 -20.09875 18.60125 -20.375 17.6875 C-20.5625 14.375 -20.5625 14.375 -18.375 11.6875 C-15.5625 9.375 -15.5625 9.375 -13.3125 7.875 C-11.01262455 5.90367818 -10.88091635 4.3203512 -10.5625 1.375 C-8.59304993 1.10795592 -6.62271906 0.84578852 -4.6484375 0.6171875 C-3.09579042 0.43691761 -1.54660398 0.22633229 0 0 Z " fill="#373334" transform="translate(651.5625,657.625)"/>
<path d="M0 0 C4.09630385 -0.48765522 5.64547606 -0.25323139 9.0625 2.1875 C10.05830412 3.10730855 11.03756732 4.04532888 12 5 C12.928125 5.9075 13.85625 6.815 14.8125 7.75 C15.534375 8.4925 16.25625 9.235 17 10 C17.33 10.33 17.66 10.66 18 11 C18.375 14.3125 18.375 14.3125 18 18 C15.6875 20.3125 15.6875 20.3125 13 22 C12.01 22.66 11.02 23.32 10 24 C2.9587149 24.69032207 -2.27656853 22.87235914 -8 18.9375 C-10.88087309 14.70621765 -10.4343096 10.97043207 -10 6 C-6.48375245 4.05841983 -4.0284349 3.81688932 0 4 C0 2.68 0 1.36 0 0 Z " fill="#2D292A" transform="translate(467,613)"/>
<path d="M0 0 C0.66 0 1.32 0 2 0 C1.67 4.95 1.34 9.9 1 15 C0.01 15.33 -0.98 15.66 -2 16 C-1.938125 16.763125 -1.87625 17.52625 -1.8125 18.3125 C-2 21 -2 21 -3.3125 22.8125 C-5 24 -5 24 -8 24 C-8 26.31 -8 28.62 -8 31 C-8.33 31 -8.66 31 -9 31 C-9.12375 29.39125 -9.12375 29.39125 -9.25 27.75 C-9.60240583 23.97030907 -9.60240583 23.97030907 -12.0625 22.25 C-15.31412639 18.47391774 -14.2966137 13.77877634 -14 9 C-12.68 8.67 -11.36 8.34 -10 8 C-10.33 7.01 -10.66 6.02 -11 5 C-10.34 5 -9.68 5 -9 5 C-7.375 7 -7.375 7 -6 9 C-4.68 8.67 -3.36 8.34 -2 8 C-2 6.68 -2 5.36 -2 4 C-1.34 4 -0.68 4 0 4 C0 2.68 0 1.36 0 0 Z " fill="#413E3F" transform="translate(642,670)"/>
<path d="M0 0 C0.78117187 0.47566406 0.78117187 0.47566406 1.578125 0.9609375 C4.67408709 2.28920511 7.39404121 2.42364247 10.75 2.625 C12.50570312 2.73714844 12.50570312 2.73714844 14.296875 2.8515625 C15.63492188 2.92503906 15.63492188 2.92503906 17 3 C16.67 3.66 16.34 4.32 16 5 C14.68 5 13.36 5 12 5 C12 5.66 12 6.32 12 7 C10.22978678 7.336611 8.45880326 7.66917293 6.6875 8 C5.70136719 8.185625 4.71523437 8.37125 3.69921875 8.5625 C1 9 1 9 -2 9 C-2.33 8.01 -2.66 7.02 -3 6 C-2.04701223 4.63266972 -1.04625409 3.29735507 0 2 C0 1.34 0 0.68 0 0 Z " fill="#2B2829" transform="translate(101,88)"/>
<path d="M0 0 C2.625 0.3125 2.625 0.3125 4.5 2 C5.90361489 4.88520838 5.54554342 6.29981243 4.625 9.3125 C0.625 9.3125 0.625 9.3125 -1.1875 8.0625 C-2.375 6.3125 -2.375 6.3125 -2.0625 4.125 C-1.835625 3.526875 -1.60875 2.92875 -1.375 2.3125 C-2.035 1.9825 -2.695 1.6525 -3.375 1.3125 C-2.375 0.3125 -2.375 0.3125 0 0 Z " fill="#262224" transform="translate(651.375,657.6875)"/>
<path d="M0 0 C1.32 0.66 2.64 1.32 4 2 C2.73058503 5.91402949 1.48832306 7.79072873 -2 10 C-2.66 8.68 -3.32 7.36 -4 6 C-4.66 6 -5.32 6 -6 6 C-4.60755361 3.21510722 -2.44008012 1.87698471 0 0 Z " fill="#343032" transform="translate(335,739)"/>
<path d="M0 0 C0.66 0.33 1.32 0.66 2 1 C2.02705729 2.77074917 2.04642195 4.54161711 2.0625 6.3125 C2.07410156 7.29863281 2.08570313 8.28476563 2.09765625 9.30078125 C2 12 2 12 1 15 C6.94 14.67 12.88 14.34 19 14 C18.67 14.66 18.34 15.32 18 16 C8.595 16.495 8.595 16.495 -1 17 C-0.5 9.625 -0.5 9.625 -0.34179688 7.30712891 C-0.08896356 3.65676505 -0.08896356 3.65676505 0 0 Z " fill="#C0BEBF" transform="translate(666,106)"/>
<path d="M0 0 C1.32 0 2.64 0 4 0 C2.94188726 2.19761878 1.8710405 4.18422786 0.46875 6.1875 C-1.35103486 9.67219441 -1.50470541 12.40069574 -1.6875 16.3125 C-1.75324219 17.56675781 -1.81898437 18.82101563 -1.88671875 20.11328125 C-1.92410156 21.06589844 -1.96148437 22.01851562 -2 23 C-2.33 23 -2.66 23 -3 23 C-3 16.73 -3 10.46 -3 4 C-2.34 4 -1.68 4 -1 4 C-0.67 2.68 -0.34 1.36 0 0 Z " fill="#555253" transform="translate(126,63)"/>
<path d="M0 0 C2.31 0 4.62 0 7 0 C7 1.32 7 2.64 7 4 C10.3 3.67 13.6 3.34 17 3 C16.01 4.485 16.01 4.485 15 6 C9.25220682 6.68973518 5.19739223 5.18837568 0 3 C0 2.01 0 1.02 0 0 Z " fill="#363334" transform="translate(462,631)"/>
<path d="M0 0 C0.66 0.33 1.32 0.66 2 1 C1.88553728 3.56336254 1.75880499 6.12513445 1.625 8.6875 C1.5940625 9.40873047 1.563125 10.12996094 1.53125 10.87304688 C1.31006148 14.90973738 1.02383362 18.39977897 -1 22 C-1.99 22.33 -2.98 22.66 -4 23 C-4 23.99 -4 24.98 -4 26 C-4.66 26 -5.32 26 -6 26 C-4.96989302 23.30587405 -3.89939147 20.82342176 -2.46875 18.3125 C-0.7958033 14.53947128 -0.45015703 11.18391596 -0.3125 7.125 C-0.27833984 6.43664062 -0.24417969 5.74828125 -0.20898438 5.0390625 C-0.12735909 3.35991387 -0.0619843 1.67998832 0 0 Z " fill="#797778" transform="translate(134,563)"/>
<path d="M0 0 C0.89203125 0.00902344 1.7840625 0.01804687 2.703125 0.02734375 C3.37859375 0.03894531 4.0540625 0.05054688 4.75 0.0625 C4.75 0.7225 4.75 1.3825 4.75 2.0625 C6.4 2.0625 8.05 2.0625 9.75 2.0625 C9.75 2.3925 9.75 2.7225 9.75 3.0625 C3.81 3.0625 -2.13 3.0625 -8.25 3.0625 C-8.58 2.4025 -8.91 1.7425 -9.25 1.0625 C-6.09493858 0.12630187 -3.28413498 -0.0432123 0 0 Z " fill="#353233" transform="translate(344.25,748.9375)"/>
<path d="M0 0 C3.68743234 -0.05850924 7.3747437 -0.09376673 11.0625 -0.125 C12.10083984 -0.14175781 13.13917969 -0.15851562 14.20898438 -0.17578125 C19.88711284 -0.21183286 24.64391054 0.07028834 30 2 C30 2.33 30 2.66 30 3 C28.72253906 2.83628906 27.44507813 2.67257812 26.12890625 2.50390625 C21.05031744 1.9396186 16.04203265 1.88601907 10.9375 1.9375 C9.6390918 1.94426758 9.6390918 1.94426758 8.31445312 1.95117188 C6.20960461 1.96280087 4.10479242 1.98072927 2 2 C1.67 2.66 1.34 3.32 1 4 C0.34 4 -0.32 4 -1 4 C-0.67 2.68 -0.34 1.36 0 0 Z " fill="#999798" transform="translate(281,636)"/>
<path d="M0 0 C3.63 0.66 7.26 1.32 11 2 C11 2.99 11 3.98 11 5 C13.31 5 15.62 5 18 5 C18.33 4.34 18.66 3.68 19 3 C19 4.32 19 5.64 19 7 C16.03 7 13.06 7 10 7 C9.67 6.01 9.34 5.02 9 4 C6.90280128 2.97718482 6.90280128 2.97718482 4.4375 2.3125 C3.61121094 2.06113281 2.78492188 1.80976562 1.93359375 1.55078125 C1.29550781 1.36902344 0.65742188 1.18726562 0 1 C0 0.67 0 0.34 0 0 Z " fill="#7C7A7B" transform="translate(372,126)"/>
<path d="M0 0 C1.98 0 3.96 0 6 0 C6.33 0.66 6.66 1.32 7 2 C1.22125154 5.25711277 -3.37822074 6.69343615 -10 7 C-7.44931155 4.64551835 -6.28982642 4.01672076 -2.75 3.8125 C-1.38875 3.9053125 -1.38875 3.9053125 0 4 C0 2.68 0 1.36 0 0 Z " fill="#514F50" transform="translate(467,613)"/>
<path d="M0 0 C0.66 0 1.32 0 2 0 C2 3.3 2 6.6 2 10 C3.32 10.33 4.64 10.66 6 11 C6 11.66 6 12.32 6 13 C8.31 13 10.62 13 13 13 C13 13.66 13 14.32 13 15 C10.03 15 7.06 15 4 15 C4 13.68 4 12.36 4 11 C3.01 11 2.02 11 1 11 C0.67 7.37 0.34 3.74 0 0 Z " fill="#B3B1B2" transform="translate(1135,284)"/>
<path d="M0 0 C1.37478516 0.01740234 1.37478516 0.01740234 2.77734375 0.03515625 C3.69644531 0.04417969 4.61554688 0.05320313 5.5625 0.0625 C6.27277344 0.07410156 6.98304688 0.08570313 7.71484375 0.09765625 C7.71484375 2.07765625 7.71484375 4.05765625 7.71484375 6.09765625 C7.38484375 4.77765625 7.05484375 3.45765625 6.71484375 2.09765625 C4.07484375 2.09765625 1.43484375 2.09765625 -1.28515625 2.09765625 C-1.40890625 2.69578125 -1.53265625 3.29390625 -1.66015625 3.91015625 C-2.28515625 6.09765625 -2.28515625 6.09765625 -4.28515625 9.09765625 C-3.28992724 0.14059518 -3.28992724 0.14059518 0 0 Z " fill="#767475" transform="translate(497.28515625,38.90234375)"/>
<path d="M0 0 C4.20626034 1.50223584 5.73900021 4.28550034 8 8 C7.01 8.33 6.02 8.66 5 9 C4.67 9.66 4.34 10.32 4 11 C3.32591692 9.73308493 2.66099503 8.46129251 2 7.1875 C1.62875 6.47980469 1.2575 5.77210938 0.875 5.04296875 C0 3 0 3 0 0 Z " fill="#4B4849" transform="translate(1134,396)"/>
<path d="M0 0 C0.66 0 1.32 0 2 0 C2 0.66 2 1.32 2 2 C3.13179687 1.89300781 4.26359375 1.78601563 5.4296875 1.67578125 C6.91139121 1.55386892 8.39316612 1.43281984 9.875 1.3125 C10.62136719 1.23966797 11.36773437 1.16683594 12.13671875 1.09179688 C14.3046875 0.92578125 14.3046875 0.92578125 18 1 C18.66 1.99 19.32 2.98 20 4 C19.42024414 3.83250244 18.84048828 3.66500488 18.24316406 3.49243164 C14.74568625 2.72464619 11.28985149 3.16544428 7.75 3.4375 C7.00492188 3.48970703 6.25984375 3.54191406 5.4921875 3.59570312 C3.66105139 3.7248217 1.83046187 3.86165114 0 4 C0 2.68 0 1.36 0 0 Z " fill="#888686" transform="translate(202,100)"/>
<path d="M0 0 C0.33 0 0.66 0 1 0 C1.25 5.625 1.25 5.625 -1 9 C-2.32 9 -3.64 9 -5 9 C-3.75471468 5.55151758 -2.38532951 2.80016942 0 0 Z " fill="#DAD8D9" transform="translate(641,678)"/>
<path d="M0 0 C0.66 0 1.32 0 2 0 C1.88658509 2.48020497 1.75985314 4.95844969 1.625 7.4375 C1.5940625 8.14455078 1.563125 8.85160156 1.53125 9.58007812 C1.42719371 11.39239188 1.22080108 13.19817988 1 15 C0.01 15.495 0.01 15.495 -1 16 C-1 13.69 -1 11.38 -1 9 C-1.33 9 -1.66 9 -2 9 C-2 7.35 -2 5.7 -2 4 C-1.34 4 -0.68 4 0 4 C0 2.68 0 1.36 0 0 Z " fill="#807D7E" transform="translate(642,670)"/>
<path d="M0 0 C1.32 0.33 2.64 0.66 4 1 C4 1.66 4 2.32 4 3 C3.34 3 2.68 3 2 3 C1.938125 3.7425 1.87625 4.485 1.8125 5.25 C0.75814862 8.8185739 -0.99909773 9.92245228 -4 12 C-3.67 10.35 -3.34 8.7 -3 7 C-2.01 7 -1.02 7 0 7 C0 4.69 0 2.38 0 0 Z " fill="#C9C7C8" transform="translate(444,621)"/>
<path d="M0 0 C4.875 1.75 4.875 1.75 6 4 C7.4540625 4.1546875 7.4540625 4.1546875 8.9375 4.3125 C9.948125 4.539375 10.95875 4.76625 12 5 C13.375 7.5625 13.375 7.5625 14 10 C12.68 10 11.36 10 10 10 C10 8.68 10 7.36 10 6 C8.35 6 6.7 6 5 6 C4.67 5.01 4.34 4.02 4 3 C1.99983534 1.79117904 1.99983534 1.79117904 0 1 C0 0.67 0 0.34 0 0 Z " fill="#BEBDBD" transform="translate(788,92)"/>
<path d="M0 0 C0.33 0.66 0.66 1.32 1 2 C-0.03060547 2.05607422 -0.03060547 2.05607422 -1.08203125 2.11328125 C-1.98308594 2.17902344 -2.88414063 2.24476563 -3.8125 2.3125 C-4.70582031 2.37050781 -5.59914063 2.42851562 -6.51953125 2.48828125 C-9.34524829 3.07122445 -10.12505566 3.89983712 -12 6 C-12.66 6 -13.32 6 -14 6 C-14 6.66 -14 7.32 -14 8 C-14.66 7.67 -15.32 7.34 -16 7 C-14.39724003 4.4024235 -13.38786156 2.81619132 -11 1 C-7.33210249 0.18090491 -3.75111358 0.01313875 0 0 Z " fill="#C5C3C4" transform="translate(1146,326)"/>
<path d="M0 0 C2.31 0.66 4.62 1.32 7 2 C7 2.66 7 3.32 7 4 C9.97 4.495 9.97 4.495 13 5 C13 5.33 13 5.66 13 6 C10.36 6.33 7.72 6.66 5 7 C5 5.68 5 4.36 5 3 C3.35 2.67 1.7 2.34 0 2 C0 1.34 0 0.68 0 0 Z " fill="#727071" transform="translate(307,135)"/>
<path d="M0 0 C3.63 0 7.26 0 11 0 C8.75 5.625 8.75 5.625 5 8 C5.33 6.68 5.66 5.36 6 4 C6.66 4 7.32 4 8 4 C8 3.01 8 2.02 8 1 C5.36 1 2.72 1 0 1 C0 0.67 0 0.34 0 0 Z " fill="#353133" transform="translate(296,134)"/>
<path d="M0 0 C0.66 0.33 1.32 0.66 2 1 C-1.75 5.875 -1.75 5.875 -4 7 C-4.72159424 8.64363134 -5.39351421 10.31050386 -6 12 C-6.66 12 -7.32 12 -8 12 C-6.64994369 6.32976351 -4.1842771 3.82042691 0 0 Z " fill="#575556" transform="translate(982,166)"/>
<path d="M0 0 C0.66 0.33 1.32 0.66 2 1 C0.515 4.465 0.515 4.465 -1 8 C1.31 8 3.62 8 6 8 C6 8.33 6 8.66 6 9 C3.36 9 0.72 9 -2 9 C-2.6875 6.1875 -2.6875 6.1875 -3 3 C-1.5625 1.125 -1.5625 1.125 0 0 Z " fill="#CECDCE" transform="translate(1137,410)"/>
<path d="M0 0 C2 3 2 3 1.625 5.1875 C1.41875 5.785625 1.2125 6.38375 1 7 C0.34 6.67 -0.32 6.34 -1 6 C-1.33 6.99 -1.66 7.98 -2 9 C-2.33 8.34 -2.66 7.68 -3 7 C-2.06421005 4.64018187 -1.06652192 2.30368736 0 0 Z " fill="#B7B5B6" transform="translate(382,732)"/>
<path d="M0 0 C3.96 0 7.92 0 12 0 C11.67 0.99 11.34 1.98 11 3 C9.68 3 8.36 3 7 3 C6.34 3.66 5.68 4.32 5 5 C5 3.68 5 2.36 5 1 C3.35 1 1.7 1 0 1 C0 0.67 0 0.34 0 0 Z " fill="#4A4748" transform="translate(1057,226)"/>
<path d="M0 0 C1.27875 0.103125 2.5575 0.20625 3.875 0.3125 C4.95394531 0.39951172 4.95394531 0.39951172 6.0546875 0.48828125 C8 1 8 1 10 4 C8.68 4.33 7.36 4.66 6 5 C6 4.34 6 3.68 6 3 C4.02 2.34 2.04 1.68 0 1 C0 0.67 0 0.34 0 0 Z " fill="#403C3E" transform="translate(550,83)"/>
<path d="M0 0 C0.99 0 1.98 0 3 0 C3 3.3 3 6.6 3 10 C-0.00617269 6.99382731 0.40414684 4.17618402 0 0 Z " fill="#878686" transform="translate(10,167)"/>
<path d="M0 0 C4.95 0.99 4.95 0.99 10 2 C6 3 6 3 3 2 C3 2.66 3 3.32 3 4 C2.01 4 1.02 4 0 4 C0 2.68 0 1.36 0 0 Z " fill="#D4D2D3" transform="translate(544,80)"/>
<path d="M0 0 C1.98 0.99 1.98 0.99 4 2 C3.01 2.495 3.01 2.495 2 3 C2 4.65 2 6.3 2 8 C1.34 8 0.68 8 0 8 C0 5.36 0 2.72 0 0 Z " fill="#C9C8C8" transform="translate(249,677)"/>
<path d="M0 0 C0.97582031 0.00902344 1.95164062 0.01804687 2.95703125 0.02734375 C3.69308594 0.03894531 4.42914062 0.05054687 5.1875 0.0625 C5.1875 0.3925 5.1875 0.7225 5.1875 1.0625 C4.24777344 1.15337891 4.24777344 1.15337891 3.2890625 1.24609375 C2.47179687 1.32988281 1.65453125 1.41367188 0.8125 1.5 C0.00039063 1.58121094 -0.81171875 1.66242188 -1.6484375 1.74609375 C-3.85522805 1.95340114 -3.85522805 1.95340114 -5.8125 3.0625 C-7.48904729 2.78307545 -9.15858154 2.45421753 -10.8125 2.0625 C-10.8125 1.7325 -10.8125 1.4025 -10.8125 1.0625 C-7.13862505 0.20951624 -3.7677607 -0.04539471 0 0 Z " fill="#3D3B3B" transform="translate(675.8125,121.9375)"/>
<path d="M0 0 C0.99 0.33 1.98 0.66 3 1 C2.67 3.31 2.34 5.62 2 8 C1.34 7.67 0.68 7.34 0 7 C0 4.69 0 2.38 0 0 Z " fill="#272324" transform="translate(629,682)"/>
<path d="M0 0 C0.33 0.66 0.66 1.32 1 2 C0.34 2 -0.32 2 -1 2 C-1.33 3.32 -1.66 4.64 -2 6 C-3.65 6 -5.3 6 -7 6 C-7 5.34 -7 4.68 -7 4 C-6.401875 3.896875 -5.80375 3.79375 -5.1875 3.6875 C-2.71756736 2.91123545 -1.67748765 1.92911079 0 0 Z " fill="#5B5859" transform="translate(274,148)"/>
<path d="M0 0 C0.66 0 1.32 0 2 0 C1.67 0.99 1.34 1.98 1 3 C0.77820215 4.89212737 0.59385985 6.78884472 0.4375 8.6875 C0.35371094 9.68136719 0.26992187 10.67523438 0.18359375 11.69921875 C0.12300781 12.45847656 0.06242188 13.21773437 0 14 C-0.33 14 -0.66 14 -1 14 C-1.02685938 11.85423363 -1.04633088 9.70837355 -1.0625 7.5625 C-1.07410156 6.36753906 -1.08570313 5.17257813 -1.09765625 3.94140625 C-1 1 -1 1 0 0 Z " fill="#3B3839" transform="translate(11,121)"/>
<path d="M0 0 C2 3 2 3 2 5 C-1.63 4.67 -5.26 4.34 -9 4 C-9 3.67 -9 3.34 -9 3 C-6.03 3 -3.06 3 0 3 C0 2.01 0 1.02 0 0 Z " fill="#A09E9F" transform="translate(102,621)"/>
</svg>
