<?xml version="1.0" encoding="UTF-8"?>
<svg version="1.1" xmlns="http://www.w3.org/2000/svg" width="1437" height="895">
<path d="M0 0 C2.5 2.0625 2.5 2.0625 5 5 C5.04092937 7.33297433 5.04241723 9.66705225 5 12 C7.29818321 15.24378984 8.82616696 15.95594767 12.71484375 16.94140625 C14.1199589 17.16437757 15.52774811 17.37102048 16.9375 17.5625 C21.81371229 18.25527076 26.04154738 18.85652292 30 22 C31.22265625 24.05859375 31.22265625 24.05859375 32.0625 26.4375 C32.38605469 27.32050781 32.70960938 28.20351563 33.04296875 29.11328125 C33.69556766 31.08173266 34.32217019 33.05894758 34.92578125 35.04296875 C37.27144918 42.65914982 39.91663892 48.7995278 46.3125 53.8125 C50.11910891 55.49448999 54.02438188 56.77873169 58 58 C58 57.01 58 56.02 58 55 C60.66802882 55.07847144 62.44795433 55.50419491 64.45703125 57.30859375 C69.20958055 62.73828727 73.22649992 68.85016948 76.76171875 75.12890625 C81.15968452 80.77027595 89.00710907 81.45652318 95.8125 82.3828125 C98.43462914 82.58311728 98.43462914 82.58311728 102 82 C102.7425 81.01 102.7425 81.01 103.5 80 C104.2425 79.01 104.2425 79.01 105 78 C107.29524331 77.73447185 109.47093643 77.81717983 111.77734375 77.9296875 C114.30412225 78.00962074 116.53693994 77.52246728 119 77 C119.66 77.33 120.32 77.66 121 78 C123.53534828 78.06958074 126.05449363 77.99724315 128.58984375 77.9375 C131 78 131 78 134 79 C134 76.69 134 74.38 134 72 C138 72 138 72 140 73 C140 74.32 140 75.64 140 77 C140.763125 77.12375 141.52625 77.2475 142.3125 77.375 C145 78 145 78 148 80 C150.20381109 80.74082336 150.20381109 80.74082336 152.5625 81.25 C153.34753906 81.44078125 154.13257813 81.6315625 154.94140625 81.828125 C155.62074219 81.88484375 156.30007813 81.9415625 157 82 C157.66 81.34 158.32 80.68 159 80 C159.99 80 160.98 80 162 80 C162.0825 79.37609375 162.165 78.7521875 162.25 78.109375 C163 76 163 76 164.75 74.953125 C171.60014509 72.81245466 177.5637819 71.75046615 184.4375 74.25 C187.12111473 76.0827125 188.09349003 76.91786609 189 80 C189.42794719 84.06549827 188.41370364 87.20067146 187 91 C187.66 91.33 188.32 91.66 189 92 C187.68 92 186.36 92 185 92 C185.1715417 96.37431347 185.39225379 98.40057908 188.56640625 101.53125 C192.03717221 104.23755963 195.69276018 105.83199911 199.8125 107.3125 C200.52245117 107.5695874 201.23240234 107.8266748 201.96386719 108.09155273 C207.13395854 109.87623987 211.53322177 110.95620326 217 110 C217.97710938 109.84144531 218.95421875 109.68289062 219.9609375 109.51953125 C226.26938159 108.23447782 232.24502488 106.60020345 236 101 C236.58661468 97.24606681 236.58661468 97.24606681 236 94 C237.9375 93.4375 237.9375 93.4375 240 93 C241 94 241 94 241.0625 96.5625 C241.041875 97.366875 241.02125 98.17125 241 99 C241.9075 98.95875 242.815 98.9175 243.75 98.875 C245.35875 99.431875 245.35875 99.431875 247 100 C248.21619825 102.50730726 249.00829291 104.9675186 249.75 107.65234375 C250.83661096 110.24089095 250.83661096 110.24089095 253.66796875 111.328125 C262.08340082 113.02502338 271.33266774 111.83424892 279.265625 108.62109375 C281 108 281 108 284 108 C283.89300781 107.41992188 283.78601563 106.83984375 283.67578125 106.2421875 C282.85019958 100.8625908 282.91651705 97.74381992 286 93 C286.33 92.67 286.66 92.34 287 92 C287.42345628 90.21916334 287.78965804 88.4245111 288.125 86.625 C288.31320312 85.64789063 288.50140625 84.67078125 288.6953125 83.6640625 C289.20121135 80.90033847 289.20121135 80.90033847 288 78 C288.33 77.34 288.66 76.68 289 76 C289.66 76 290.32 76 291 76 C291.103125 75.43796875 291.20625 74.8759375 291.3125 74.296875 C292.66942742 69.76350386 295.48207025 66.11326993 299 63 C302.15470436 62.2099984 304.816111 62.52329943 308 63 C309.32 63 310.64 63 312 63 C313.32 63 314.64 63 316 63 C316.20302734 63.87011719 316.20302734 63.87011719 316.41015625 64.7578125 C317.90555739 70.18423819 319.70592243 73.59650104 324.23046875 77.03515625 C326.05754083 78.20667317 326.05754083 78.20667317 328.6875 78.0625 C331.04679019 77.09306649 331.04679019 77.09306649 332.9375 75.4375 C335.70965708 73.50539052 337.68526471 73.85894743 341 74 C342.485 73.505 342.485 73.505 344 73 C349.5990096 74.93811871 356.26281075 77.51251064 359.03515625 83.078125 C359.81019331 85.36818424 360.42524007 87.652389 361 90 C361.5878125 91.794375 361.5878125 91.794375 362.1875 93.625 C363.46523646 98.93252067 363.28122951 103.71492828 362 109 C362.969375 109.78375 363.93875 110.5675 364.9375 111.375 C366.83962346 112.91288705 367.89629957 113.79259913 369 116 C370.27609101 116.44348454 371.57169995 116.83183753 372.875 117.1875 C376.47911405 118.45727684 376.84603034 118.70855743 378.75 122.3125 C379.1625 123.529375 379.575 124.74625 380 126 C381.23473213 128.08674286 382.59818166 130.0181189 384 132 C384.78375 131.814375 385.5675 131.62875 386.375 131.4375 C389 131 389 131 391 132 C391 130.35 391 128.7 391 127 C392.9914056 126.61866701 394.99279077 126.28674418 397 126 C398 127 398 127 398.25 129.75 C398 133 398 133 396.4375 135.4375 C394.41054411 139.05076919 395.05286098 141.01359712 396 145 C398.07105194 147.98712141 398.07105194 147.98712141 400.625 150.75 C404.93532579 156.13621558 404.93532579 156.13621558 405.23046875 160.078125 C404.95941452 161.97297141 404.64663568 163.86249446 404.28515625 165.7421875 C404.14400391 166.85980469 404.14400391 166.85980469 404 168 C405.70784955 170.20808968 405.70784955 170.20808968 408 172 C409.96394578 176.36977936 411 180.19990819 411 185 C411.99 185.66 412.98 186.32 414 187 C414.6875 190.625 414.6875 190.625 415 194 C416.32 194 417.64 194 419 194 C419.35443365 198.25320385 418.49290822 199.67612238 416 203 C415.58282721 205.58462162 415.58282721 205.58462162 416 208 C416.66 208.66 417.32 209.32 418 210 C418 211.32 418 212.64 418 214 C418.7425 214.28875 419.485 214.5775 420.25 214.875 C423 216 423 216 424.77734375 217.0078125 C427.60736275 218.27112502 430.24277468 218.59599385 433.3125 219 C443.05918142 220.42367257 443.05918142 220.42367257 447 222 C447.6837045 223.32467746 448.34964186 224.65863633 449 226 C455.28073413 229.37559773 455.28073413 229.37559773 462.0625 229.375 C462.701875 229.25125 463.34125 229.1275 464 229 C464.45060791 229.47687256 464.90121582 229.95374512 465.36547852 230.44506836 C468.30122456 233.23786396 472.07034036 232.55332887 475.9375 232.5625 C476.74896484 232.59923828 477.56042969 232.63597656 478.39648438 232.67382812 C480.75308453 232.69122714 482.72657438 232.62889225 485 232 C487.42747842 229.11268987 487.42747842 229.11268987 489 226 C493.35161158 225.2747314 494.97956101 225.9897805 499 228 C499.66 223.05 500.32 218.1 501 213 C505.68623907 212.85355503 509.78553011 212.79222031 514.3125 214.0625 C517.81521211 214.95302003 518.7698803 215.01966251 522 214 C521.67 212.02 521.34 210.04 521 208 C521.94875 208.185625 522.8975 208.37125 523.875 208.5625 C527.01660682 209.02580767 529.78896959 208.88444189 532.9375 208.5 C537.5267576 207.94479119 541.44836727 208.24139454 546 209 C546.37125 208.21625 546.7425 207.4325 547.125 206.625 C549 204 549 204 551.875 202.5 C555.7551011 201.87918382 556.83309266 202.86019774 560 205 C560.99 204.67 561.98 204.34 563 204 C562.42415568 201.61435923 561.77772405 199.33317216 561 197 C562.485 196.01 562.485 196.01 564 195 C564.72965366 192.43717258 564.72965366 192.43717258 565 190 C566.60875 189.566875 566.60875 189.566875 568.25 189.125 C571.09400364 188.27179891 573.43508983 187.4363497 576 186 C576 184.02 576 182.04 576 180 C579.69900008 180.88776002 583.34550461 181.94581864 587 183 C588.42792441 180.98410671 589.06942524 179.57422908 588.76953125 177.09375 C588.63933594 176.4028125 588.50914063 175.711875 588.375 175 C587.7829575 171.31006071 587.7829575 171.31006071 589.75 168.5 C592 167 592 167 595 167 C595.50567729 169.56149628 596.00470132 172.12399465 596.5 174.6875 C596.71462891 175.7693457 596.71462891 175.7693457 596.93359375 176.87304688 C597.89035235 181.86185955 598.64163266 186.07510201 597 191 C597.39397335 193.63804589 597.39397335 193.63804589 598 196 C598.804375 196.226875 599.60875 196.45375 600.4375 196.6875 C606.02415275 198.74574049 611.05451717 201.70301145 616 205 C619.08333333 205 619.08333333 205 622 204 C622.70151152 202.6846659 623.36525925 201.34882408 624 200 C628.75447877 196.55300289 632.47904223 196.91526685 638.0234375 197.67578125 C638.67570312 197.78277344 639.32796875 197.88976562 640 198 C640 199.32 640 200.64 640 202 C639.34 202 638.68 202 638 202 C634.45477068 210.86115506 634.45477068 210.86115506 635 220 C632.03 221.98 632.03 221.98 629 224 C629.14168137 225.43791516 629.28851043 226.8753237 629.4375 228.3125 C629.51871094 229.11300781 629.59992188 229.91351563 629.68359375 230.73828125 C629.95265693 233.16087179 629.95265693 233.16087179 631 236 C631.80824219 236.10957031 632.61648438 236.21914062 633.44921875 236.33203125 C634.51785156 236.49058594 635.58648438 236.64914063 636.6875 236.8125 C637.74324219 236.96332031 638.79898437 237.11414063 639.88671875 237.26953125 C643.11343914 238.02661621 645.20971279 239.26498325 648 241 C648.99 241 649.98 241 651 241 C652.70532323 239.05990478 652.70532323 239.05990478 654 237 C655.92134857 237.23595509 657.84244377 237.47429545 659.76171875 237.7265625 C661.79371116 237.97479892 663.83452546 238.1479456 665.875 238.3125 C667.421875 238.6528125 667.421875 238.6528125 669 239 C670.125 241 670.125 241 671 243 C673.55519921 243.81171228 673.55519921 243.81171228 676 244 C678 250.75 678 250.75 678 253 C679.98 252.67 681.96 252.34 684 252 C684.0825 251.2575 684.165 250.515 684.25 249.75 C685.1396946 246.48778646 686.48503749 245.19045122 689 243 C691.95653744 244.3726781 694.5649856 245.81688364 697 248 C697.144375 248.61875 697.28875 249.2375 697.4375 249.875 C698.3006917 253.13594643 700.58915162 254.69873564 703 257 C704.0828125 258.5778125 704.0828125 258.5778125 705.1875 260.1875 C708.51541999 263.51541999 710.24499746 263.84116401 714.75390625 264.5 C719.09374756 265.16847134 723.34465602 266.15240398 727.625 267.125 C729.22126516 267.48216885 730.81761274 267.83896965 732.4140625 268.1953125 C733.59742188 268.46085937 734.78078125 268.72640625 736 269 C736.60070313 267.86949219 737.20140625 266.73898437 737.8203125 265.57421875 C739.36972237 262.65826927 739.67478119 262.13432951 742.875 260.8125 C747.0177346 261.06106408 748.90929001 262.26867489 752 265 C752.875 267.75 752.875 267.75 753 270 C750.69 270.33 748.38 270.66 746 271 C746.2547514 272.31571603 746.52934141 273.62760376 746.8125 274.9375 C747.03873047 276.03384766 747.03873047 276.03384766 747.26953125 277.15234375 C747.51058594 277.76207031 747.75164062 278.37179687 748 279 C748.99 279.33 749.98 279.66 751 280 C751.66015625 281.890625 751.66015625 281.890625 752.0625 284.25 C752.57522815 287.02399078 753.05148306 289.11068857 754.25 291.6875 C755.30783883 294.94916973 754.29059548 296.91691079 753 300 C753.33 300.33 753.66 300.66 754 301 C755.17381773 305.9523113 756.01966404 310.78082948 755.9375 315.875 C756.01288491 319.64424574 756.75054322 321.0007243 759 324 C759.51626953 324.81791016 759.51626953 324.81791016 760.04296875 325.65234375 C764.61678335 332.08383074 771.71664125 334.70087523 779 337 C781.19712081 337.24899972 781.19712081 337.24899972 783.125 337.0625 C792.07357514 336.91816814 800.57919188 342.71480054 808.40820312 346.6875 C817.5170705 351.30681166 826.76665251 355.63651606 836 360 C832.82579974 361.01704755 832.1844101 361.07572734 828.91796875 359.734375 C827.66899899 359.08332354 826.42589831 358.42094195 825.1875 357.75 C823.7626003 357.01261693 822.33675943 356.2770507 820.91015625 355.54296875 C820.13172363 355.13868652 819.35329102 354.7344043 818.55126953 354.31787109 C813.76788725 351.84699094 808.95506431 349.44064206 804.125 347.0625 C803.17520264 346.57813477 802.22540527 346.09376953 801.24682617 345.59472656 C795.30649079 342.68538584 789.71266778 340.61611671 783 341 C779.30882966 342.2872702 776.57407693 344.42592307 773.8125 347.1875 C769.91536762 349.69898531 766.40590315 349.53102099 761.83984375 349.62890625 C758.62762624 350.04865957 757.30962463 350.76929193 755 353 C754.54625 353.969375 754.0925 354.93875 753.625 355.9375 C751.64121554 359.67617071 749.59450062 360.84329963 746 363 C742.07468864 365.61604709 742.07468864 365.61604709 740.1875 369.75 C740.125625 370.4925 740.06375 371.235 740 372 C740.99 372.33 741.98 372.66 743 373 C743 375.64 743 378.28 743 381 C742.37351562 381.31453125 741.74703125 381.6290625 741.1015625 381.953125 C740.28429688 382.38109375 739.46703125 382.8090625 738.625 383.25 C737.81289062 383.66765625 737.00078125 384.0853125 736.1640625 384.515625 C733.87866514 385.82619493 733.87866514 385.82619493 732.96875 388.0625 C732 390 732 390 730.0546875 391.046875 C729.33539062 391.27890625 728.61609375 391.5109375 727.875 391.75 C727.15054687 391.99234375 726.42609375 392.2346875 725.6796875 392.484375 C725.12539062 392.65453125 724.57109375 392.8246875 724 393 C723.11584355 398.36198106 722.78645197 403.56865633 722.75 409 C722.729375 409.76828125 722.70875 410.5365625 722.6875 411.328125 C722.65137703 416.63820181 723.40795221 420.32959043 726 425 C727.72359489 426.61103291 727.72359489 426.61103291 729.6875 427.4375 C730.780625 427.953125 731.87375 428.46875 733 429 C733 430.32 733 431.64 733 433 C733.61746094 433.25265625 734.23492188 433.5053125 734.87109375 433.765625 C737.34893421 435.20231782 737.90829939 436.17178565 739.0625 438.75 C739.3925 439.45898438 739.7225 440.16796875 740.0625 440.8984375 C740.371875 441.59195312 740.68125 442.28546875 741 443 C743.10281594 447.74664299 743.10281594 447.74664299 747 451 C752.20140266 451.49537168 756.98847838 450.24731205 762 449 C760.8125 451.4375 760.8125 451.4375 759 454 C756.4375 454.75 756.4375 454.75 754 455 C753.34 455.33 752.68 455.66 752 456 C751.41062582 466.93816847 751.41062582 466.93816847 755 477 C759.63136301 480.8159822 764.27836896 481.41323176 770.1171875 480.9453125 C772 481 772 481 774 483 C774.44620567 488.80067375 773.64423888 493.35492006 770.5625 498.3125 C769 500 769 500 766 501 C763.57891739 508.26324784 764.87941707 515.80353148 766.953125 523.00390625 C768.26978444 525.51440242 769.35236992 526.07930157 772 527 C775.13752396 527.07417023 775.13752396 527.07417023 778.75 526.4375 C781.67599163 526.43215084 782.67182098 526.69141376 784.83203125 528.72265625 C786.01329609 530.27723278 787.15275216 531.86424911 788.25390625 533.4765625 C790.48524053 536.70126483 793.10961658 539.44240013 795.8125 542.2734375 C796.204375 542.84320312 796.59625 543.41296875 797 544 C796.67 544.99 796.34 545.98 796 547 C794.02 547 792.04 547 790 547 C790.11442461 548.60495567 790.24194694 550.20898119 790.375 551.8125 C790.44460938 552.70582031 790.51421875 553.59914063 790.5859375 554.51953125 C790.86645036 557.24398499 790.86645036 557.24398499 793 560 C793.52557833 563.32866278 793.17448547 564.70686441 791.4375 567.625 C787.365676 571.59241826 782.55067479 573.15898867 777 574 C776.34 571.03 775.68 568.06 775 565 C766.28571989 565.48412667 761.00615386 567.50560231 753.6875 572.0625 C750.74746658 573.79705275 747.94072132 574.58642094 744.625 575.375 C739.60800753 576.61888243 736.01267738 578.63769061 731.875 581.6953125 C730 583 730 583 727 584 C726.29052484 585.64889879 725.62922079 587.31883867 725 589 C723.97251997 590.44226748 722.90678016 591.85773508 721.8125 593.25 C716.82451203 600.22279151 713.94486675 608.00679024 711 616 C710.61972656 617.02480469 710.23945312 618.04960938 709.84765625 619.10546875 C707.3744487 626.46549605 705.8626021 634.02650382 704.3125 641.625 C704.09770996 642.67429687 703.88291992 643.72359375 703.66162109 644.8046875 C701.21624594 657.25244846 700.79616302 669.47885511 700.8125 682.125 C700.81277191 682.91690735 700.81304382 683.7088147 700.81332397 684.52471924 C700.83517869 698.42886318 701.45757109 712.17365759 703 726 C703.14477783 727.36125 703.14477783 727.36125 703.29248047 728.75 C705.18306554 746.03534922 708.31791751 763.55804274 713.6015625 780.14453125 C715.16310574 785.19568704 715.79479383 790.19622529 716.375 795.4375 C717.57591694 805.16517447 719.69730019 814.35120617 722.38134766 823.76269531 C723.72831903 828.63390514 724.84523772 833.5665808 726.0078125 838.484375 C727.0455309 842.16132996 728.47344701 845.50198954 730 849 C731.14902926 852.49586733 731.63909341 855.34958513 731 859 C726.26117323 866.36918877 720.11692302 870.95615387 712 874 C706.70096618 875.96626303 706.70096618 875.96626303 702 879 C701.10792821 882.0957107 701.10792821 882.0957107 701 885 C698.03 885 695.06 885 692 885 C692 884.01 692 883.02 692 882 C690.95392578 881.63648438 690.95392578 881.63648438 689.88671875 881.265625 C686.51816051 879.78874696 683.80238679 877.89135619 680.8125 875.75 C671.95020502 869.41198386 662.91277807 864.25837392 652.875 860 C651.87525146 859.56921143 650.87550293 859.13842285 649.84545898 858.69458008 C643.33283862 855.91375228 636.76540688 853.36915612 630.09887695 850.98535156 C625.90809737 849.45137018 622.43360423 847.53001466 618.76953125 845.0234375 C616.11375271 843.4874243 613.44790453 842.99941422 610.44921875 842.46484375 C607.75816847 841.95410215 605.19402389 841.19610482 602.5625 840.4375 C589.91224054 837.27493513 572.70074935 835.54520306 560.875 841.9375 C558.63167687 843.54684051 556.88557734 845.0287146 555 847 C552.24727629 848.83514914 549.64279781 850.14288087 546.5625 851.375 C541.54403491 853.66412443 538.10115724 856.34826414 535 861 C532.03824877 860.38722388 530.61941217 859.74627478 528 858 C515.64412757 855.66870332 502.89042511 855.98305631 491.5625 861.75 C488.01049572 864.86883302 485.44546093 868.4014779 484.625 873.1875 C483.5803332 876.21703371 480.59052784 877.27298144 478 879 C476.76924898 880.9172483 476.76924898 880.9172483 477 883 C477.98560611 884.34400833 478.98758315 885.67607028 480 887 C480.38235208 888.99121018 480.72091896 890.99171096 481 893 C480.37544922 892.99476318 479.75089844 892.98952637 479.10742188 892.98413086 C476.23829176 892.96315924 473.36917785 892.95027624 470.5 892.9375 C469.51773437 892.92912109 468.53546875 892.92074219 467.5234375 892.91210938 C463.20761971 892.89772332 458.99367277 892.9201341 454.71484375 893.51953125 C448.52314569 894.32035024 442.92883992 894.04442756 437 892 C433.29333634 888.79726343 430.77423172 885.008975 428 881 C426.5881604 879.41427574 425.15044377 877.85120336 423.6875 876.3125 C414.57425023 866.20421603 407.13594914 855.57341554 400.625 843.625 C395.12851782 833.54825432 388.8085662 824.66078205 381.50390625 815.82568359 C379.52076599 813.41822859 377.60788509 810.95763569 375.6875 808.5 C371.65670614 803.4873461 367.33308426 798.75091739 363 794 C361.64014279 792.50515696 360.28545785 791.00558195 358.9375 789.5 C358.36902344 788.8709375 357.80054688 788.241875 357.21484375 787.59375 C356 786 356 786 356 784 C355.195625 783.64421875 355.195625 783.64421875 354.375 783.28125 C350.21154095 781.03517341 346.61519083 777.97369694 342.875 775.09375 C338.56573637 771.95548192 336.11582986 770.73379395 330.75 770.875 C329.41195313 770.90207031 329.41195313 770.90207031 328.046875 770.9296875 C327.03367187 770.96449219 327.03367187 770.96449219 326 771 C325.67 771.99 325.34 772.98 325 774 C324.236875 773.195625 323.47375 772.39125 322.6875 771.5625 C319.3562721 768.38621293 317.19722579 767.87094166 312.76953125 767.90234375 C311.96708984 767.90556641 311.16464844 767.90878906 310.33789062 767.91210938 C309.50451172 767.92048828 308.67113281 767.92886719 307.8125 767.9375 C306.5450293 767.94426758 306.5450293 767.94426758 305.25195312 767.95117188 C303.16793845 767.96294597 301.08396023 767.9808811 299 768 C298.67 769.98 298.34 771.96 298 774 C296.78183594 773.89300781 295.56367187 773.78601563 294.30859375 773.67578125 C292.68496419 773.5537744 291.06126197 773.43273179 289.4375 773.3125 C288.63763672 773.23966797 287.83777344 773.16683594 287.01367188 773.09179688 C281.40659012 772.70273406 278.0044941 773.44411083 273 776 C272.01 776.33 271.02 776.66 270 777 C269.17529653 779.7031947 268.55275248 782.24637986 268 785 C267.690625 786.03125 267.38125 787.0625 267.0625 788.125 C266.67539729 791.27774406 266.67539729 791.27774406 269.5 793.9375 C272 797 272 797 272.0625 800.5625 C271 804 271 804 268.93359375 806.00390625 C265.53208228 811.27453109 266.84771461 817.3749779 267.15625 823.453125 C267.40277485 831.36246379 266.30393428 835.29176019 260.95703125 841.29296875 C254.96700063 846.58470801 249.49652127 850.18245068 241.5625 851.625 C231.43611515 849.84844125 224.30220369 842.16672388 218.5625 834.125 C212.26691406 825.07369962 208.20386597 814.79894324 206 804 C209.17902004 802.41048998 211.70562684 804.01746765 215 805 C215.99 805 216.98 805 218 805 C218.33 805.66 218.66 806.32 219 807 C219.99 807.33 220.98 807.66 222 808 C223.31626692 804.38026598 224 801.90432869 224 798 C223.34 797.34 222.68 796.68 222 796 C225.96 794.35 229.92 792.7 234 791 C234 788.36 234 785.72 234 783 C230.7 783.33 227.4 783.66 224 784 C222.11656068 780.23312136 221.77942165 778.97041037 222 775 C225.16115776 776.36983503 225.9927092 776.9890638 228 780 C232.62 779.67 237.24 779.34 242 779 C242.33 775.37 242.66 771.74 243 768 C241.02 767.67 239.04 767.34 237 767 C236.34 764.03 235.68 761.06 235 758 C235.99 758 236.98 758 238 758 C238 759.98 238 761.96 238 764 C241.3 764 244.6 764 248 764 C248.33218192 760.99740483 248.33218192 760.99740483 246.5 759.3125 C245.7575 758.6628125 245.7575 758.6628125 245 758 C245.66 757.01 246.32 756.02 247 755 C250.625 754.8125 250.625 754.8125 254 755 C254 754.01 254 753.02 254 752 C253.01 751.34 252.02 750.68 251 750 C251.49895478 742.84831485 254.31563815 736.58708719 257 730 C254.5829716 730.12218717 254.5829716 730.12218717 252 731 C250.35511069 733.13073995 250.35511069 733.13073995 249.2109375 735.875 C248.74429688 736.85984375 248.27765625 737.8446875 247.796875 738.859375 C247.32765625 739.89578125 246.8584375 740.9321875 246.375 742 C245.43350449 744.04584429 244.48339638 746.08775392 243.5234375 748.125 C243.11013184 749.03507813 242.69682617 749.94515625 242.27099609 750.8828125 C241 753 241 753 238 754 C237.01 753.34 236.02 752.68 235 752 C236.36667681 747.3770065 238.2795998 743.56919645 240.75 739.4375 C244.64638082 732.81543993 247.91231156 726.04086532 251 719 C248.36 718.34 245.72 717.68 243 717 C239.7367258 722.81950565 236.60689714 728.61346391 234.0078125 734.76171875 C233 737 233 737 231.6796875 739.39453125 C226.90095791 748.06451207 226.76540541 756.17958919 227.16015625 765.90625 C227 768 227 768 225 771 C224.01 771 223.02 771 222 771 C222.33 764.07 222.66 757.14 223 750 C214.5787255 749.70277855 208.03318308 750.46320534 200 753 C197.525 748.545 197.525 748.545 195 744 C196.32 743.67 197.64 743.34 199 743 C199 741.68 199 740.36 199 739 C201.7907207 738.16338138 204.58248012 737.33057263 207.375 736.5 C208.1690625 736.26152344 208.963125 736.02304687 209.78125 735.77734375 C210.54179688 735.55175781 211.30234375 735.32617188 212.0859375 735.09375 C212.7876709 734.88427734 213.4894043 734.67480469 214.21240234 734.45898438 C216 734 216 734 218 734 C217.69964844 733.09378906 217.39929688 732.18757812 217.08984375 731.25390625 C214.85901761 724.10770049 213.45251062 718.47953199 215 711 C211.35206816 709.72746564 207.8063457 708.67170806 204 708 C204.40024119 703.59734688 206.17783666 701.10173467 208.84375 697.74609375 C211.50812136 693.72253294 211.71608617 688.67909073 211 684 C208.07755018 676.67403592 202.95925073 671.3975468 197.375 666 C196.57247803 665.21109375 195.76995605 664.4221875 194.94311523 663.609375 C189.98457246 658.7822009 184.93608703 654.24322377 179.48046875 649.984375 C176.81915733 647.85532587 174.35957385 645.58230549 171.875 643.25 C166.59782324 638.38864662 160.99537327 634.05560908 155.25488281 629.75585938 C151.22179247 626.73059409 147.38918624 623.60962417 143.625 620.25 C136.95967747 614.72092728 129.1398727 611.44804271 121.26708984 607.99609375 C119.27825747 607.12225829 117.30365843 606.22426057 115.33203125 605.3125 C111.91920659 603.77612876 108.48686648 602.35999126 105 601 C104.33693848 600.74089844 103.67387695 600.48179687 102.99072266 600.21484375 C83.31636627 592.73705303 62.29849783 591.86128199 41.44921875 591.2109375 C38.87243198 591.1196508 36.53971824 590.92179389 33.98828125 590.48828125 C16.30639043 587.5990834 -1.85251268 591.45421014 -19.01269531 595.52832031 C-20.67026983 595.92173972 -22.33088592 596.30231612 -23.9921875 596.6796875 C-48.27472954 602.65806411 -74.13047877 616.27557266 -88.125 637.5 C-93.27634309 646.55730653 -99.29296663 659.37298156 -97 670 C-96.34 670.99 -95.68 671.98 -95 673 C-100.625 675 -100.625 675 -104 675 C-102.74525472 681.02277734 -100.28436965 685.53030138 -96 690 C-95.01 690.33 -94.02 690.66 -93 691 C-92.07421875 692.75 -92.07421875 692.75 -92 695 C-93.58203125 697.4375 -93.58203125 697.4375 -95.8125 700 C-100.51654977 705.15943229 -100.51654977 705.15943229 -102.046875 711.69140625 C-101.94890625 712.63886719 -101.8509375 713.58632813 -101.75 714.5625 C-101.66234375 715.51253906 -101.5746875 716.46257813 -101.484375 717.44140625 C-101.12896597 720.22932259 -101.12896597 720.22932259 -99 723 C-95.91634129 723.2502157 -95.91634129 723.2502157 -93 723 C-91.74455824 725.85327673 -91.9952245 726.98753065 -93.125 729.9375 C-94.17472935 732.23713964 -95.24600009 734.52630879 -96.31640625 736.81640625 C-100.00200325 745.37413147 -101.10000901 752.75992435 -100 762 C-99.34 762.99 -98.68 763.98 -98 765 C-95.41619823 765.25030977 -95.41619823 765.25030977 -93 765 C-90.16977903 768.99560608 -91.23789554 772.42737323 -92 777 C-91.13761719 776.93941406 -90.27523438 776.87882813 -89.38671875 776.81640625 C-85.47302191 777.02856744 -83.24578495 778.08813865 -79.8125 779.9375 C-75.5170355 782.22523712 -75.5170355 782.22523712 -71 784 C-69.8125 786.0625 -69.8125 786.0625 -69 788 C-69.54140625 788.49371094 -70.0828125 788.98742187 -70.640625 789.49609375 C-72.40123464 792.10022391 -72.40123464 792.10022391 -71.234375 795.78515625 C-70.75911725 797.21756717 -70.26350007 798.64334932 -69.75 800.0625 C-69.38455078 801.14241211 -69.38455078 801.14241211 -69.01171875 802.24414062 C-68.35776242 804.16848754 -67.68007526 806.0847278 -67 808 C-64.20712474 816.37862578 -67.41602874 823.28667056 -71 831 C-72.53634549 833.47910296 -74.2147529 835.68400377 -76 838 C-77.33512163 840.81078238 -78.10527053 843.41356278 -78.875 846.4375 C-80.06743846 850.21355511 -81.56971587 852.88619845 -84 856 C-84.66 856 -85.32 856 -86 856 C-85.7525 857.27875 -85.505 858.5575 -85.25 859.875 C-84.62844633 865.39019451 -85.93076029 870.35466423 -89 875 C-91.14453125 875.78125 -91.14453125 875.78125 -93 876 C-93.66 874.02 -94.32 872.04 -95 870 C-95.64066406 870.04640625 -96.28132813 870.0928125 -96.94140625 870.140625 C-103.28650949 870.40539831 -106.84178871 869.76119573 -112 866 C-114.45056748 862.32414878 -114.60320215 859.27486739 -114 855 C-113 853.66666667 -112 852.33333333 -111 851 C-110.73126877 848.28107229 -110.86290584 845.74188329 -111 843 C-112.53720703 843.05220703 -112.53720703 843.05220703 -114.10546875 843.10546875 C-115.46612936 843.13362035 -116.8268078 843.16091904 -118.1875 843.1875 C-119.19780273 843.22520508 -119.19780273 843.22520508 -120.22851562 843.26367188 C-124.71439691 843.32931892 -127.50751128 842.85974654 -131 840 C-134.31113721 835.95624674 -134.37506275 832.21321995 -134.1875 827.1875 C-134.17396484 826.49462891 -134.16042969 825.80175781 -134.14648438 825.08789062 C-134.11138845 823.39158735 -134.05758943 821.69568864 -134 820 C-141.41657417 816.19822669 -147.93254038 814.8537945 -156.1875 814.1875 C-156.8769873 814.12224121 -157.56647461 814.05698242 -158.27685547 813.98974609 C-162.84649536 813.68539856 -165.28925787 814.3746669 -169 817 C-169.66 817 -170.32 817 -171 817 C-170.835 817.515625 -170.67 818.03125 -170.5 818.5625 C-169.83295985 821.81432072 -169.76340556 824.68767779 -170 828 C-170.95298777 829.36733028 -171.95374591 830.70264493 -173 832 C-173.0825 832.99 -173.165 833.98 -173.25 835 C-174.08392214 838.33568855 -174.42026755 838.68754337 -177.1875 840.4375 C-179.9124524 841.78039236 -181.10172884 841.99804368 -184.25 841.9375 C-187.01339978 840.99543189 -188.30692818 840.35148864 -190 838 C-190 837.34 -190 836.68 -190 836 C-192.80066384 837.64744932 -195.5067148 839.34774545 -198.1875 841.1875 C-201 843 -201 843 -203 843 C-203 844.65 -203 846.3 -203 848 C-204.32 848.66 -205.64 849.32 -207 850 C-210.71101598 847.52598935 -210.73683066 846.18424845 -212 842 C-212.57478964 840.76681496 -213.15820669 839.53761597 -213.75 838.3125 C-214.1625 837.219375 -214.575 836.12625 -215 835 C-212.6944483 831.54167244 -211.93371367 831.47093665 -208.125 830.3125 C-204.29468951 828.86783087 -202.30035208 827.7873545 -200.375 824.125 C-199.01843244 820.62648367 -198.25037157 817.74814215 -199 814 C-199.78375 813.2575 -200.5675 812.515 -201.375 811.75 C-205.68767482 807.23195971 -205.64267438 801.77511769 -206.41796875 795.75390625 C-206.56878906 794.68011719 -206.71960938 793.60632813 -206.875 792.5 C-206.99617188 791.4996875 -207.11734375 790.499375 -207.2421875 789.46875 C-207.74069313 786.85934966 -207.74069313 786.85934966 -209.9453125 785.84375 C-210.62335938 785.5653125 -211.30140625 785.286875 -212 785 C-214 782 -214 782 -214 779 C-208.71645506 776.9655883 -203.58475159 775.01206372 -198 774 C-195.25540559 773.42555001 -194.15092779 773.12348637 -191.9375 771.3125 C-188.98081476 764.01934308 -192.27126822 756.90657268 -195 750 C-198.48517739 741.84386002 -202.73936689 734.36742429 -209 728 C-209.99 727.67 -210.98 727.34 -212 727 C-212.61875 727.37125 -213.2375 727.7425 -213.875 728.125 C-214.57625 728.41375 -215.2775 728.7025 -216 729 C-218.97678581 727.75390361 -220.58298733 726.91742787 -221.9375 723.9375 C-221.9684375 722.9784375 -221.9684375 722.9784375 -222 722 C-221.34 721.34 -220.68 720.68 -220 720 C-220.42303878 715.57159409 -222.99656964 713.63417314 -226.26171875 710.92578125 C-240.01116889 701.25605384 -260.02135646 692.63976532 -277 694 C-282.98888221 695.17870909 -287.42066845 696.84998078 -292 701 C-292.66 701 -293.32 701 -294 701 C-294.29242684 704.71057171 -294.45731456 708.2994316 -294 712 C-292.35305515 713.68615782 -290.68873879 715.35570171 -289 717 C-289.16217807 719.96394398 -289.99059973 722.16406592 -291 725 C-291.67546875 725.04898438 -292.3509375 725.09796875 -293.046875 725.1484375 C-293.93890625 725.22320313 -294.8309375 725.29796875 -295.75 725.375 C-296.63171875 725.44460938 -297.5134375 725.51421875 -298.421875 725.5859375 C-301.0512314 726.00822807 -302.76337938 726.57050769 -305 728 C-307.30519615 731.45779423 -307.19009046 732.50729028 -306.9765625 736.54296875 C-306.89921875 738.15268555 -306.89921875 738.15268555 -306.8203125 739.79492188 C-306.75585938 740.91447266 -306.69140625 742.03402344 -306.625 743.1875 C-306.56828125 744.31865234 -306.5115625 745.44980469 -306.453125 746.61523438 C-306.31157786 749.41079047 -306.16015835 752.20545841 -306 755 C-309.13349732 756.04449911 -309.98968256 755.93423645 -313 755 C-313.0825 754.38125 -313.165 753.7625 -313.25 753.125 C-313.81258459 750.81562433 -313.81258459 750.81562433 -316.0625 749.75 C-316.701875 749.5025 -317.34125 749.255 -318 749 C-318 748.34 -318 747.68 -318 747 C-319.60379341 746.94583812 -321.20811406 746.90713362 -322.8125 746.875 C-324.15248047 746.84019531 -324.15248047 746.84019531 -325.51953125 746.8046875 C-328.25402714 746.81714173 -328.25402714 746.81714173 -331 749 C-331.41428346 750.93076478 -331.41428346 750.93076478 -331.29296875 753.1328125 C-331.28330078 753.93847656 -331.27363281 754.74414062 -331.26367188 755.57421875 C-331.2259668 756.83685547 -331.2259668 756.83685547 -331.1875 758.125 C-331.16719727 759.39923828 -331.16719727 759.39923828 -331.14648438 760.69921875 C-331.11108219 762.79974837 -331.05727401 764.89995293 -331 767 C-334.77637066 768.83423718 -336.98510599 769.35723618 -341 768 C-343.421875 766.44140625 -343.421875 766.44140625 -345.75 764.5625 C-346.91789062 763.63630859 -346.91789062 763.63630859 -348.109375 762.69140625 C-350 761 -350 761 -351 759 C-357.36384614 758.75612271 -357.36384614 758.75612271 -362.70703125 761.625 C-363.87336413 763.37273748 -364.9433347 765.18385652 -366 767 C-368 767 -368 767 -370.125 765 C-370.74375 764.34 -371.3625 763.68 -372 763 C-372.37125 763.804375 -372.37125 763.804375 -372.75 764.625 C-375.77070246 770.36433468 -379.22014107 774.30332333 -384.1953125 778.38671875 C-386.2242221 780.06481085 -386.2242221 780.06481085 -388 783 C-390.3260857 783.38063221 -392.66055264 783.71269945 -395 784 C-395.99 784.66 -396.98 785.32 -398 786 C-400.5 784.625 -400.5 784.625 -403 783 C-403 782.34 -403 781.68 -403 781 C-407.02063866 782.30399092 -408.54184531 783.64797088 -411 787 C-411.99 787 -412.98 787 -414 787 C-414.226875 787.78375 -414.45375 788.5675 -414.6875 789.375 C-416 792 -416 792 -418.1875 793.3125 C-421.53354408 794.13042189 -424.56814415 794.13458258 -428 794 C-428.33 793.01 -428.66 792.02 -429 791 C-432.1967 789.62998571 -434.69903842 790.1747596 -438 791 C-438.33 789.35 -438.66 787.7 -439 786 C-442.0745356 786.7763932 -442.0745356 786.7763932 -444 789 C-444.61875 787.5459375 -444.61875 787.5459375 -445.25 786.0625 C-446.27090543 784.30181899 -446.27090543 784.30181899 -448 783 C-451.08139549 782.39318888 -453.9870517 782.25019422 -457.125 782.203125 C-459.98035389 782.00138804 -461.5794223 781.46631149 -464 780 C-463.67 778.35 -463.34 776.7 -463 775 C-463.928125 774.773125 -464.85625 774.54625 -465.8125 774.3125 C-469.50719183 772.7911563 -470.32482761 771.53647504 -472 768 C-472.33 768.66 -472.66 769.32 -473 770 C-474.32 770 -475.64 770 -477 770 C-476.67 767.36 -476.34 764.72 -476 762 C-476.928125 762.495 -477.85625 762.99 -478.8125 763.5 C-482 765 -482 765 -485 765 C-484.67 763.02 -484.34 761.04 -484 759 C-484.78375 758.62875 -485.5675 758.2575 -486.375 757.875 C-489.64713593 755.53776005 -489.89703282 753.78160176 -491 750 C-491.53625 749.505 -492.0725 749.01 -492.625 748.5 C-494 747 -494 747 -494.1875 743.8125 C-494.125625 742.884375 -494.06375 741.95625 -494 741 C-498.5746417 743.52394025 -499.52056552 747.28150063 -501 752 C-503.62113708 752 -505.50935112 751.68707555 -508 751 C-508.33 751.99 -508.66 752.98 -509 754 C-511.46766448 753.61872995 -512.72577438 753.2814043 -514.4921875 751.46875 C-515.17667969 750.49421875 -515.17667969 750.49421875 -515.875 749.5 C-516.63296875 748.42878906 -516.63296875 748.42878906 -517.40625 747.3359375 C-517.9321875 746.56507813 -518.458125 745.79421875 -519 745 C-519.5671875 744.18789063 -520.134375 743.37578125 -520.71875 742.5390625 C-525 736.29893868 -525 736.29893868 -525 734 C-525.99 733.91363281 -526.98 733.82726562 -528 733.73828125 C-542.9805727 732.22733257 -542.9805727 732.22733257 -548 727 C-549 724.1875 -549 724.1875 -549 722 C-546.49185015 720.74592508 -544.93008194 720.96108444 -542.1328125 721.078125 C-540.68068359 721.11679688 -540.68068359 721.11679688 -539.19921875 721.15625 C-537.15700728 721.21852837 -535.11521248 721.2965459 -533.07421875 721.390625 C-527.18476548 721.68845623 -527.18476548 721.68845623 -522.44140625 718.6171875 C-521.96574219 717.75351562 -521.49007812 716.88984375 -521 716 C-520.278125 715.29875 -519.55625 714.5975 -518.8125 713.875 C-516.77113594 712.0333941 -516.77113594 712.0333941 -516 709 C-514.109375 708.12109375 -514.109375 708.12109375 -511.75 707.4375 C-509.30409439 706.71111528 -507.04532076 706.02179787 -504.7421875 704.9140625 C-500.91387365 703.63795788 -497.37714543 703.8248116 -493.375 703.9375 C-487.611298 704.15205294 -487.611298 704.15205294 -482 703 C-481.34754337 699.97673561 -480.87625985 697.0988838 -481 694 C-483.06956129 691.61037195 -483.06956129 691.61037195 -486 690 C-487.68528688 688.35216394 -489.35697047 686.68997323 -491 685 C-490.34 685 -489.68 685 -489 685 C-489.7425 683.6078125 -489.7425 683.6078125 -490.5 682.1875 C-492 679 -492 679 -492 676 C-486.21360042 674.92928827 -480.42282413 673.88206623 -474.625 672.875 C-473.19027344 672.62363281 -473.19027344 672.62363281 -471.7265625 672.3671875 C-469 672 -469 672 -466.24609375 672.0859375 C-465.50488281 672.05757812 -464.76367188 672.02921875 -464 672 C-462.35400645 669.72981832 -462.35400645 669.72981832 -461 667 C-460.36964844 666.3915625 -459.73929688 665.783125 -459.08984375 665.15625 C-450.7970135 656.59990926 -448.9144401 642.62966597 -446.296875 631.4765625 C-445.9575293 630.05585449 -445.9575293 630.05585449 -445.61132812 628.60644531 C-445.23856814 627.01715395 -444.88358947 625.42337984 -444.56054688 623.82324219 C-444.140625 621.9609375 -444.140625 621.9609375 -443 619 C-441.33656779 617.99462889 -439.66986614 616.99464811 -438 616 C-436.5792954 612.84655154 -436.5792954 612.84655154 -435.8125 609.0625 C-435.6487085 608.37099854 -435.48491699 607.67949707 -435.31616211 606.96704102 C-433.85667372 600.36028242 -433.25711659 593.66866945 -432.9465332 586.91625977 C-432.59722303 581.67766415 -431.54670884 578.9194603 -428.27661133 574.85229492 C-425.81236064 571.27679866 -424.91543977 567.0921574 -423.8125 562.9375 C-423.55839355 561.99994873 -423.30428711 561.06239746 -423.04248047 560.09643555 C-419.97088345 548.46338718 -418.84028873 537.62366344 -418.75 525.625 C-418.74049316 524.64055908 -418.73098633 523.65611816 -418.72119141 522.6418457 C-418.80556825 502.78359814 -421.45903425 483.61216022 -425.74072266 464.24731445 C-426.51335829 460.75206986 -427.26418656 457.25264489 -428.01171875 453.75195312 C-428.49617889 451.50754948 -428.98181033 449.26339825 -429.46875 447.01953125 C-429.69276489 445.98319046 -429.91677979 444.94684967 -430.14758301 443.87910461 C-430.36120483 442.91586777 -430.57482666 441.95263092 -430.79492188 440.96020508 C-430.97986206 440.11992264 -431.16480225 439.2796402 -431.35534668 438.41389465 C-432.27233338 434.98025176 -433.66248955 431.79793844 -435.04443359 428.53076172 C-436.80136895 423.87762122 -437.61902503 418.98526281 -438.625 414.125 C-438.85445312 413.06152344 -439.08390625 411.99804688 -439.3203125 410.90234375 C-441.00904573 402.81049704 -441.00904573 402.81049704 -440.9609375 398.5 C-441.02153571 393.07040045 -442.56342355 388.08793859 -444 382.875 C-444.31324219 381.7293457 -444.62648438 380.58369141 -444.94921875 379.40332031 C-451.89009316 354.4873048 -451.89009316 354.4873048 -464.4765625 332.078125 C-466.58972397 329.19555603 -468.02498865 326.02350633 -469.5625 322.8125 C-473.53922919 314.69031496 -478.02871668 306.94268048 -482.68261719 299.19384766 C-484.96849507 295.38715776 -487.23640625 291.56996964 -489.5 287.75 C-489.9213623 287.04689697 -490.34272461 286.34379395 -490.77685547 285.61938477 C-492.82999547 282.15697148 -494.64171857 278.80909357 -496 275 C-496.66 275 -497.32 275 -498 275 C-499.90123512 272.66139154 -501.68204154 270.31936719 -503.4375 267.875 C-503.92798828 267.20984375 -504.41847656 266.5446875 -504.92382812 265.859375 C-509.17220303 260.01140954 -512.04970079 254.8439424 -513.25 247.625 C-517.93559647 224.93810691 -532.78812327 208.12565832 -551.19921875 194.66015625 C-555.18780985 192.29592861 -557.3542675 192 -562 192 C-567.74149536 194.53950756 -569.71313293 198.4577104 -572 204 C-572.99 203.67 -573.98 203.34 -575 203 C-574.98839844 201.94941406 -574.97679687 200.89882812 -574.96484375 199.81640625 C-574.90880054 192.46073519 -574.95722857 185.29940004 -576 178 C-573.92446352 177.4465236 -572.15634036 177 -570 177 C-572.13158589 171.04215125 -574.31494188 167.2867297 -579.3203125 163.3984375 C-583.31913383 160.06918625 -585.39846791 156.11302279 -586 151 C-586.94359375 150.87818359 -586.94359375 150.87818359 -587.90625 150.75390625 C-590 150 -590 150 -590.90625 148.21484375 C-591.20015625 147.08755859 -591.20015625 147.08755859 -591.5 145.9375 C-592.66196818 141.88352213 -594.21964551 138.46822134 -596.328125 134.82421875 C-597.19837823 132.46138004 -596.87597747 131.33438676 -596 129 C-595.34 128.01 -594.68 127.02 -594 126 C-593.29187186 123.67891331 -592.61975848 121.34622853 -592 119 C-593.670625 118.5359375 -593.670625 118.5359375 -595.375 118.0625 C-599 117 -599 117 -601 116 C-601.3125 113.75 -601.3125 113.75 -601 111 C-600.195625 110.4225 -599.39125 109.845 -598.5625 109.25 C-595.26018518 106.3504065 -595.12204778 104.42983096 -594.84375 100.171875 C-595.05593584 97.22249184 -596.41212552 95.44797315 -598 93 C-597.86353386 89.25476256 -597.55073299 87.54571721 -594.85546875 84.875 C-593.97503906 84.25625 -593.09460938 83.6375 -592.1875 83 C-586.63369289 78.83039181 -586.63369289 78.83039181 -583 73 C-582.90929309 70.41072998 -583.00031254 67.86851475 -583.125 65.28125 C-583 63 -583 63 -581 60.375 C-580.34 59.92125 -579.68 59.4675 -579 59 C-577.68 59.66 -576.36 60.32 -575 61 C-575 61.66 -575 62.32 -575 63 C-574.34 63 -573.68 63 -573 63 C-573 61.35 -573 59.7 -573 58 C-571.515 57.505 -571.515 57.505 -570 57 C-569.67 55.02 -569.34 53.04 -569 51 C-565.37673261 49.7922442 -564.35853631 50.45688872 -561 52 C-561.37125 51.030625 -561.7425 50.06125 -562.125 49.0625 C-563.41887731 44.44954613 -562.93801801 40.37317977 -561 36 C-558.125 33.375 -558.125 33.375 -555 32 C-552.9375 32.125 -552.9375 32.125 -551 33 C-550.113125 33.33 -549.22625 33.66 -548.3125 34 C-546 35 -546 35 -545 36 C-544.34 34.02 -543.68 32.04 -543 30 C-536.14825505 29.14353188 -536.14825505 29.14353188 -532.86328125 31.59375 C-531.52356258 32.87987993 -530.21878842 34.2037085 -528.95703125 35.56640625 C-527.03198957 37.31303235 -527.03198957 37.31303235 -524.26171875 36.71484375 C-523.51535156 36.47894531 -522.76898437 36.24304687 -522 36 C-521.67 36.66 -521.34 37.32 -521 38 C-519.68 38 -518.36 38 -517 38 C-516.34 40.31 -515.68 42.62 -515 45 C-510.05 45.33 -505.1 45.66 -500 46 C-499.505 47.98 -499.505 47.98 -499 50 C-498.01 50.268125 -497.02 50.53625 -496 50.8125 C-493.29191944 51.55937142 -491.08667374 52.42404433 -488.5 53.625 C-480.94666976 56.55746939 -470.7753281 55.88879058 -463 54 C-462.566875 53.195625 -462.13375 52.39125 -461.6875 51.5625 C-459.64967919 48.46803136 -458.82107124 48.44167887 -455.3125 47.6875 C-453.87835746 47.43818335 -452.4415018 47.2024751 -451 47 C-450.67 47.99 -450.34 48.98 -450 50 C-449.01 50 -448.02 50 -447 50 C-447.58910156 49.32453125 -448.17820312 48.6490625 -448.78515625 47.953125 C-449.53667969 47.06109375 -450.28820312 46.1690625 -451.0625 45.25 C-451.81660156 44.36828125 -452.57070313 43.4865625 -453.34765625 42.578125 C-455 40 -455 40 -454.87109375 37.734375 C-454 36 -454 36 -452 35 C-454.475 33.515 -454.475 33.515 -457 32 C-456.91266424 30.39482903 -456.80447776 28.79078338 -456.6875 27.1875 C-456.62949219 26.29417969 -456.57148438 25.40085937 -456.51171875 24.48046875 C-456 22 -456 22 -454.78125 20.15625 C-451.25004035 17.86406128 -446.96090748 19.43415607 -443 20 C-443.33 16.37 -443.66 12.74 -444 9 C-440.6875 8.6875 -440.6875 8.6875 -437 9 C-434.09688737 12.63220484 -433.61227452 15.48531905 -433.6875 20.0625 C-433.69136719 21.08472656 -433.69523438 22.10695313 -433.69921875 23.16015625 C-433.9937856 25.94132634 -434.57113264 27.62614466 -436 30 C-437.32 30 -438.64 30 -440 30 C-440 30.66 -440 31.32 -440 32 C-439.0925 31.95875 -438.185 31.9175 -437.25 31.875 C-433.98062003 32.00074538 -432.79278082 32.51633519 -430 34 C-426.54053831 34.72072118 -423.54969477 35 -420 35 C-420 35.66 -420 36.32 -420 37 C-419.01 37 -418.02 37 -417 37 C-417 38.32 -417 39.64 -417 41 C-415.453125 40.8453125 -415.453125 40.8453125 -413.875 40.6875 C-410.00327339 40.99973602 -408.24961796 41.59251461 -405.41796875 44.234375 C-401.94869121 48.55424676 -399.74117066 53.77648801 -398 59 C-397.649375 58.484375 -397.29875 57.96875 -396.9375 57.4375 C-395 56 -395 56 -391.3125 56.3125 C-390.219375 56.539375 -389.12625 56.76625 -388 57 C-387.67 59.64 -387.34 62.28 -387 65 C-385.081875 64.690625 -385.081875 64.690625 -383.125 64.375 C-380.9453125 64.0234375 -380.9453125 64.0234375 -379 64 C-378.34 64.66 -377.68 65.32 -377 66 C-374.525 65.01 -374.525 65.01 -372 64 C-371 65 -371 65 -370.9375 67.5625 C-370.958125 68.366875 -370.97875 69.17125 -371 70 C-370.278125 70.103125 -369.55625 70.20625 -368.8125 70.3125 C-366 71 -366 71 -363.4375 72.625 C-361.1234872 74.25354783 -361.1234872 74.25354783 -358.6875 73.6875 C-358.130625 73.460625 -357.57375 73.23375 -357 73 C-357 73.99 -357 74.98 -357 76 C-353.98672434 74.49336217 -353.38943382 71.96833589 -352 69 C-348.17146283 70.47170854 -346.37217816 71.21791604 -344.57421875 74.99609375 C-344.28160156 76.13175781 -343.98898437 77.26742187 -343.6875 78.4375 C-343.38199219 79.57058594 -343.07648438 80.70367187 -342.76171875 81.87109375 C-342.32001074 83.68549435 -341.90934848 85.50917347 -341.58203125 87.34765625 C-341.29392578 88.16556641 -341.29392578 88.16556641 -341 89 C-340.01 89.33 -339.02 89.66 -338 90 C-337.67 91.65 -337.34 93.3 -337 95 C-335.35 93.35 -333.7 91.7 -332 90 C-330.35 90.66 -328.7 91.32 -327 92 C-327 91.34 -327 90.68 -327 90 C-325.35 90 -323.7 90 -322 90 C-322.33 91.98 -322.66 93.96 -323 96 C-322.01 96 -321.02 96 -320 96 C-319.99742187 96.74765625 -319.99484375 97.4953125 -319.9921875 98.265625 C-319.87364356 101.28454403 -319.6762448 104.05259342 -319 107 C-316.11725921 109.61974426 -316.11725921 109.61974426 -313 111 C-313 111.66 -313 112.32 -313 113 C-312.21625 113.103125 -311.4325 113.20625 -310.625 113.3125 C-308 114 -308 114 -306 117 C-304.68 117 -303.36 117 -302 117 C-301.34 117.33 -300.68 117.66 -300 118 C-299.42909175 120.99500283 -299.10456755 123.99095787 -298.7578125 127.01953125 C-297.86395694 130.53505594 -296.8286774 131.77926215 -294 134 C-288.54026245 136.79546636 -283.9201704 137.38557179 -278 136 C-277.87625 135.40832031 -277.7525 134.81664062 -277.625 134.20703125 C-276.40311443 129.52568217 -275.29278022 126.66580659 -271.125 124 C-268.14490878 122.39998792 -265.40390053 121.31911567 -262 121 C-260.46643628 125.08950325 -261.38803091 128.78421296 -262 133 C-262 133.66 -262 134.32 -262 135 C-258.37704341 134.60361105 -258.37704341 134.60361105 -255.625 132.4375 C-253.01501838 130.1286701 -250.33073979 130.81146756 -247 131 C-246.83322718 127.58343976 -246.83322718 127.58343976 -247 124 C-247.66 123.34 -248.32 122.68 -249 122 C-248.64644564 119.73725212 -248.02455574 118.04911148 -247 116 C-246.34 116 -245.68 116 -245 116 C-245 114.35 -245 112.7 -245 111 C-244.34 111.33 -243.68 111.66 -243 112 C-243 113.32 -243 114.64 -243 116 C-241.824375 116.0928125 -241.824375 116.0928125 -240.625 116.1875 C-239.75875 116.455625 -238.8925 116.72375 -238 117 C-236.6875 119.5625 -236.6875 119.5625 -236 122 C-234.906875 121.814375 -233.81375 121.62875 -232.6875 121.4375 C-229 121 -229 121 -226 122 C-225.67 121.34 -225.34 120.68 -225 120 C-221.08788267 121.15585285 -218.1254959 122.35534962 -215 125 C-214.690625 124.0409375 -214.690625 124.0409375 -214.375 123.0625 C-213 121 -213 121 -209.875 120.25 C-208.92625 120.1675 -207.9775 120.085 -207 120 C-206.690625 118.72125 -206.38125 117.4425 -206.0625 116.125 C-205.52394756 113.89898325 -205.0263 112.05260001 -204 110 C-202.68 110 -201.36 110 -200 110 C-197.87953208 113.53411321 -197.46800711 116.94393835 -197 121 C-196.26136719 121.10054688 -195.52273438 121.20109375 -194.76171875 121.3046875 C-190.14049765 122.46816325 -187.09079867 125.46468197 -184 129 C-182.85117007 131.42426561 -182.43704386 133.32310636 -182 136 C-180.35 136.33 -178.7 136.66 -177 137 C-177 133.7 -177 130.4 -177 127 C-175.02 126.34 -173.04 125.68 -171 125 C-171.05800781 124.27554688 -171.11601562 123.55109375 -171.17578125 122.8046875 C-171.54618474 114.86746988 -171.54618474 114.86746988 -168.875 110.625 C-165.97730202 107.97927576 -163.07761356 105.43346188 -160 103 C-158.18146744 103.92574392 -156.37031117 104.86598995 -154.5625 105.8125 C-153.55316406 106.33457031 -152.54382813 106.85664062 -151.50390625 107.39453125 C-149 109 -149 109 -148 112 C-144.71303767 112.79953138 -143.28976808 113.09658936 -140 112 C-139.34 112.33 -138.68 112.66 -138 113 C-138 113.66 -138 114.32 -138 115 C-136.741875 115.144375 -135.48375 115.28875 -134.1875 115.4375 C-131.57332877 115.73748686 -129.52560108 116.15813297 -127 117 C-127.495 116.29875 -127.99 115.5975 -128.5 114.875 C-130.30372861 111.4178535 -130.60467271 109.8547885 -130 106 C-128.53380907 103.18470978 -126.83747629 100.58559163 -125 98 C-126.32 97.34 -127.64 96.68 -129 96 C-127.72545246 91.01767779 -125.95677819 88.29731516 -122 85 C-119.8125 84.375 -119.8125 84.375 -118 84 C-117.34 83.01 -116.68 82.02 -116 81 C-112.37604494 79.503149 -109.96003244 79 -106 79 C-105.83165067 77.22932584 -105.66538091 75.45845388 -105.5 73.6875 C-105.4071875 72.70136719 -105.314375 71.71523437 -105.21875 70.69921875 C-104.95961143 67.95297861 -104.95961143 67.95297861 -105 65 C-103.96939453 64.83564453 -103.96939453 64.83564453 -102.91796875 64.66796875 C-102.01691406 64.50941406 -101.11585938 64.35085937 -100.1875 64.1875 C-99.29417969 64.03667969 -98.40085937 63.88585938 -97.48046875 63.73046875 C-94.72843035 62.92002595 -93.69987671 62.28224188 -92 60 C-91.14718684 57.90470163 -91.14718684 57.90470163 -90.5625 55.625 C-89.35016987 51.71364016 -87.94670821 48.94670821 -85 46 C-84.34 46 -83.68 46 -83 46 C-83 45.34 -83 44.68 -83 44 C-82.360625 43.773125 -81.72125 43.54625 -81.0625 43.3125 C-78.76123042 42.16123555 -78.76123042 42.16123555 -78.25 39.5625 C-77.95145002 36.93147372 -77.95145002 36.93147372 -78 34 C-76.3125 34.1875 -76.3125 34.1875 -74 35 C-73.3503125 35.8146875 -72.700625 36.629375 -72.03125 37.46875 C-67.67715498 41.10464378 -63.71028442 41.00464835 -58.1875 41.3125 C-57.20845703 41.38533203 -56.22941406 41.45816406 -55.22070312 41.53320312 C-52.81446202 41.70926955 -50.4087902 41.86414563 -48 42 C-47.34 40.68 -46.68 39.36 -46 38 C-45.01 38 -44.02 38 -43 38 C-43.12117187 37.28199219 -43.24234375 36.56398437 -43.3671875 35.82421875 C-44.97074241 25.91918345 -46.009169 15.98209533 -47 6 C-46.2265625 6.32484375 -45.453125 6.6496875 -44.65625 6.984375 C-42.08048392 8.10238813 -42.08048392 8.10238813 -39.5 8.25 C-36.33819294 9.19854212 -35.38914241 10.94096647 -33.4609375 13.5078125 C-31.24882102 15.76724698 -28.75100326 16.47006404 -25.76953125 17.359375 C-24 18 -24 18 -22 20 C-19.68925595 20.74118205 -17.35188447 21.40206327 -15 22 C-14.13375 22.28875 -13.2675 22.5775 -12.375 22.875 C-9.85668381 23.21966764 -9.85668381 23.21966764 -7.4375 21.5625 C-3.99757628 17.94616994 -0.93563592 14.00902083 -1.046875 8.80859375 C-1.34683495 6.86956694 -1.67211845 4.93450114 -2 3 C-1.34 2.01 -0.68 1.02 0 0 Z " fill="#08090B" transform="translate(601,0)"/>
<path d="M0 0 C0.433125 0.639375 0.86625 1.27875 1.3125 1.9375 C2.91239177 4.26746003 2.91239177 4.26746003 6 5 C5.0864978 5.84365112 5.0864978 5.84365112 4.15454102 6.7043457 C2.00567623 8.993952 0.84885893 10.90338727 -0.47265625 13.73046875 C-0.89740234 14.61541016 -1.32214844 15.50035156 -1.75976562 16.41210938 C-2.6334682 18.27347573 -3.50584895 20.13546307 -4.37695312 21.99804688 C-4.80041016 22.87912109 -5.22386719 23.76019531 -5.66015625 24.66796875 C-6.03793213 25.47516357 -6.41570801 26.2823584 -6.80493164 27.11401367 C-8 29 -8 29 -11 30 C-11.99 29.34 -12.98 28.68 -14 28 C-12.61942292 23.31742413 -10.61006355 19.29701289 -8.125 15.125 C-5.22552938 10.16365447 -2.48712883 5.18151841 0 0 Z " fill="#353637" transform="translate(850,724)"/>
<path d="M0 0 C3.3125 -0.3125 3.3125 -0.3125 7 0 C9.90311263 3.63220484 10.38772548 6.48531905 10.3125 11.0625 C10.30863281 12.08472656 10.30476562 13.10695313 10.30078125 14.16015625 C10.0062144 16.94132634 9.42886736 18.62614466 8 21 C6.68 20.67 5.36 20.34 4 20 C4.33 19.01 4.66 18.02 5 17 C5.99 17 6.98 17 8 17 C7.67 16.01 7.34 15.02 7 14 C6.01 14 5.02 14 4 14 C3.67 13.34 3.34 12.68 3 12 C2.01 12.495 2.01 12.495 1 13 C-0.99960012 13.039992 -3.00047242 13.04346799 -5 13 C-5 12.34 -5 11.68 -5 11 C-3.02 11 -1.04 11 1 11 C0.67 7.37 0.34 3.74 0 0 Z " fill="#222425" transform="translate(157,9)"/>
<path d="M0 0 C1.32 0.66 2.64 1.32 4 2 C3.01 2.495 3.01 2.495 2 3 C2 4.65 2 6.3 2 8 C0.68 8 -0.64 8 -2 8 C-2 8.66 -2 9.32 -2 10 C-12.88888889 13.55555556 -12.88888889 13.55555556 -18 11 C-18.12375 11.969375 -18.2475 12.93875 -18.375 13.9375 C-18.58125 14.948125 -18.7875 15.95875 -19 17 C-19.66 17.33 -20.32 17.66 -21 18 C-20.67 13.71 -20.34 9.42 -20 5 C-15.31376093 4.85355503 -11.21446989 4.79222031 -6.6875 6.0625 C-3.18478789 6.95302003 -2.2301197 7.01966251 1 6 C0.67 4.02 0.34 2.04 0 0 Z " fill="#3E3F40" transform="translate(1122,208)"/>
<path d="M0 0 C1.7325 0.7425 1.7325 0.7425 3.5 1.5 C7.12871228 2.88297076 9.87914329 2.94026244 13.765625 2.8046875 C22.01592701 3.52586775 30.12015676 8.98930403 37.40820312 12.6875 C46.5170705 17.30681166 55.76665251 21.63651606 65 26 C61.82579974 27.01704755 61.1844101 27.07572734 57.91796875 25.734375 C56.66899899 25.08332354 55.42589831 24.42094195 54.1875 23.75 C52.7626003 23.01261693 51.33675943 22.2770507 49.91015625 21.54296875 C49.13172363 21.13868652 48.35329102 20.7344043 47.55126953 20.31787109 C42.76788725 17.84699094 37.95506431 15.44064206 33.125 13.0625 C31.70030396 12.33595215 31.70030396 12.33595215 30.24682617 11.59472656 C24.78842127 8.92141628 20.18329532 7.41148478 14.08935547 7.13842773 C10.53249979 6.90277254 7.52374126 5.38023158 4.3125 3.9375 C3.10013672 3.39416016 3.10013672 3.39416016 1.86328125 2.83984375 C1.24839844 2.56269531 0.63351562 2.28554688 0 2 C0 1.34 0 0.68 0 0 Z " fill="#949594" transform="translate(1372,334)"/>
<path d="M0 0 C0.99 0.495 0.99 0.495 2 1 C2.59765625 3.46875 2.59765625 3.46875 3.0625 6.5 C3.35430436 10.06054218 3.35430436 10.06054218 5 13 C7.11486397 27.72237265 7.19562265 42.83513249 7.1875 57.6875 C7.18831573 58.39487305 7.18913147 59.10224609 7.18997192 59.83105469 C7.18904052 66.94778966 7.12997672 73.95798506 6 81 C5.34 81 4.68 81 4 81 C4.07001221 80.27586914 4.14002441 79.55173828 4.2121582 78.80566406 C6.36836885 55.06637581 5.95970749 30.13219686 0.5859375 6.828125 C0 4 0 4 0 0 Z " fill="#6A6C6C" transform="translate(177,469)"/>
<path d="M0 0 C6.98942918 -0.602537 6.98942918 -0.602537 9.8671875 1.11328125 C11.30861002 2.33745588 12.66278229 3.66278229 14 5 C12 6 12 6 9.6875 6.4375 C6.97803072 6.91375409 6.97803072 6.91375409 4.5 8.0625 C1.82226817 9.06664944 -0.16578026 9.16195541 -3 9 C-3.33 7.68 -3.66 6.36 -4 5 C-3.01 5.495 -3.01 5.495 -2 6 C-1.34 4.02 -0.68 2.04 0 0 Z " fill="#2A2C2D" transform="translate(58,30)"/>
<path d="M0 0 C0.50567729 2.56149628 1.00470132 5.12399465 1.5 7.6875 C1.64308594 8.40873047 1.78617188 9.12996094 1.93359375 9.87304688 C3.43074908 17.67964252 3.43074908 17.67964252 3 21 C2.01 21.99 1.02 22.98 0 24 C0 19.71 0 15.42 0 11 C-0.99 10.67 -1.98 10.34 -3 10 C-3.33 10.99 -3.66 11.98 -4 13 C-4.66 12.67 -5.32 12.34 -6 12 C-6.6679927 9.08946037 -7.14759952 6.92360597 -7 4 C-4.75063413 0.78662018 -3.9633436 0 0 0 Z " fill="#424445" transform="translate(1196,167)"/>
<path d="M0 0 C1.2039337 3.75399798 1.09877617 7.33217412 1.0625 11.25 C1.05347656 12.51328125 1.04445313 13.7765625 1.03515625 15.078125 C1.02355469 16.04234375 1.01195313 17.0065625 1 18 C-4.75 18.125 -4.75 18.125 -7 17 C-7 18.98 -7 20.96 -7 23 C-7.9590625 23.3403125 -7.9590625 23.3403125 -8.9375 23.6875 C-11.27193661 24.85250896 -11.27193661 24.85250896 -11.75 27.625 C-11.8325 28.40875 -11.915 29.1925 -12 30 C-12.99 29.67 -13.98 29.34 -15 29 C-14.34 28.67 -13.68 28.34 -13 28 C-13 26.35 -13 24.7 -13 23 C-12.01 22.67 -11.02 22.34 -10 22 C-9.67 20.02 -9.34 18.04 -9 16 C-5.37673261 14.7922442 -4.35853631 15.45688872 -1 17 C-1.37125 16.030625 -1.7425 15.06125 -2.125 14.0625 C-3.466995 9.47344019 -2.48303321 5.4586676 -1 1 C-0.67 0.67 -0.34 0.34 0 0 Z " fill="#5D5E5F" transform="translate(41,35)"/>
<path d="M0 0 C1.32 0 2.64 0 4 0 C6.12046792 3.53411321 6.53199289 6.94393835 7 11 C7.78375 11.12375 8.5675 11.2475 9.375 11.375 C12 12 12 12 14 14 C10.7 14 7.4 14 4 14 C3.67 10.37 3.34 6.74 3 3 C1.02 3.99 1.02 3.99 -1 5 C-1 7.64 -1 10.28 -1 13 C-2.11375 13.103125 -3.2275 13.20625 -4.375 13.3125 C-5.57125 13.539375 -6.7675 13.76625 -8 14 C-8.99 15.485 -8.99 15.485 -10 17 C-10.66 16.67 -11.32 16.34 -12 16 C-10.875 13.5625 -10.875 13.5625 -9 11 C-5.8125 10.1875 -5.8125 10.1875 -3 10 C-2.690625 8.72125 -2.38125 7.4425 -2.0625 6.125 C-1.52394756 3.89898325 -1.0263 2.05260001 0 0 Z " fill="#4B4D4D" transform="translate(397,110)"/>
<path d="M0 0 C0.99 0 1.98 0 3 0 C3 1.98 3 3.96 3 6 C6.3 6 9.6 6 13 6 C13 4.68 13 3.36 13 2 C13.66 2 14.32 2 15 2 C15.04254356 3.99954746 15.04080783 6.00041636 15 8 C14 9 14 9 11.4375 9.0625 C10.633125 9.041875 9.82875 9.02125 9 9 C9.01160156 9.92683594 9.02320313 10.85367188 9.03515625 11.80859375 C9.04417969 13.00613281 9.05320312 14.20367188 9.0625 15.4375 C9.07410156 16.63246094 9.08570313 17.82742188 9.09765625 19.05859375 C9 22 9 22 8 23 C6.14712498 23.07226502 4.29166122 23.0838122 2.4375 23.0625 C1.42558594 23.05347656 0.41367187 23.04445313 -0.62890625 23.03515625 C-1.41136719 23.02355469 -2.19382812 23.01195312 -3 23 C-3 22.67 -3 22.34 -3 22 C0.3 21.67 3.6 21.34 7 21 C7.33 17.37 7.66 13.74 8 10 C5.03 9.505 5.03 9.505 2 9 C1.34 6.03 0.68 3.06 0 0 Z " fill="#666868" transform="translate(836,758)"/>
<path d="M0 0 C1.16063604 4.25566547 0.76173392 7.6835078 0 12 C-0.66 12 -1.32 12 -2 12 C-1.67 10.35 -1.34 8.7 -1 7 C-2.28926992 6.63720544 -3.58153272 6.28503302 -4.875 5.9375 C-5.59429688 5.74027344 -6.31359375 5.54304687 -7.0546875 5.33984375 C-9.07273593 4.78867393 -9.07273593 4.78867393 -11 6 C-11 4.68 -11 3.36 -11 2 C-7.17679443 0.57741188 -4.08718695 -0.24042276 0 0 Z " fill="#0A0C0D" transform="translate(853,712)"/>
<path d="M0 0 C0.7425 0.185625 1.485 0.37125 2.25 0.5625 C4.91934374 1.18895441 4.91934374 1.18895441 7.125 0.375 C8.053125 0.189375 8.053125 0.189375 9 0 C9.44786865 0.47977295 9.8957373 0.9595459 10.35717773 1.45385742 C12.41842621 3.39380193 13.37241353 3.37473306 16.16015625 3.36328125 C17.3502832 3.36231445 17.3502832 3.36231445 18.56445312 3.36132812 C19.38880859 3.34521484 20.21316406 3.32910156 21.0625 3.3125 C22.30483398 3.31733398 22.30483398 3.31733398 23.57226562 3.32226562 C28.29057609 3.52593796 28.29057609 3.52593796 32 1 C32 2.32 32 3.64 32 5 C27.37540756 6.17700048 22.92133538 6.11408412 18.1875 6.0625 C17.00510742 6.05573242 17.00510742 6.05573242 15.79882812 6.04882812 C13.86585239 6.03711312 11.93291607 6.01917998 10 6 C9.67 5.01 9.34 4.02 9 3 C6.36 3 3.72 3 1 3 C0.67 2.01 0.34 1.02 0 0 Z " fill="#5B5D5E" transform="translate(1056,229)"/>
<path d="M0 0 C3.19506418 0.35500713 3.98380392 0.98094578 6.125 3.5 C10.14745526 6.99778718 13.81801943 6.88931692 19 7 C19 7.33 19 7.66 19 8 C17.04196493 8.05389087 15.08351091 8.09274217 13.125 8.125 C12.03445313 8.14820313 10.94390625 8.17140625 9.8203125 8.1953125 C7 8 7 8 5 6 C4.0925 6.804375 3.185 7.60875 2.25 8.4375 C-0.10309908 10.41142671 -1.86938046 11.63877467 -5 12 C-5 11.34 -5 10.68 -5 10 C-4.360625 9.773125 -3.72125 9.54625 -3.0625 9.3125 C-0.76123042 8.16123555 -0.76123042 8.16123555 -0.25 5.5625 C0.04854998 2.93147372 0.04854998 2.93147372 0 0 Z " fill="#535455" transform="translate(523,34)"/>
<path d="M0 0 C0.433125 0.639375 0.86625 1.27875 1.3125 1.9375 C2.91239177 4.26746003 2.91239177 4.26746003 6 5 C5.443125 5.45375 4.88625 5.9075 4.3125 6.375 C0.99510944 10.14068658 -0.89274299 14.4745792 -3 19 C-3.33 18.01 -3.66 17.02 -4 16 C-4.28875 15.154375 -4.5775 14.30875 -4.875 13.4375 C-5.06484747 8.21669462 -2.54197925 4.45066264 0 0 Z " fill="#404242" transform="translate(850,724)"/>
<path d="M0 0 C0.76699219 0.31710938 1.53398438 0.63421875 2.32421875 0.9609375 C4.88921139 1.95697844 7.29452777 2.53620476 10 3 C10 3.99 10 4.98 10 6 C8.35 6 6.7 6 5 6 C4.1679418 11.72040011 3.87963336 17.22240116 4 23 C2.37667572 20.09996873 1.67946014 17.75429294 1.3671875 14.453125 C1.28339844 13.60878906 1.19960938 12.76445312 1.11328125 11.89453125 C1.03464844 11.02183594 0.95601562 10.14914063 0.875 9.25 C0.78863281 8.36183594 0.70226562 7.47367188 0.61328125 6.55859375 C0.40176934 4.37297064 0.19759773 2.18691762 0 0 Z " fill="#656767" transform="translate(554,6)"/>
<path d="M0 0 C4.82029598 3.73572939 4.82029598 3.73572939 5.33203125 7.3359375 C5.31436669 9.5758033 5.21850902 11.77120799 5 14 C4.34 14 3.68 14 3 14 C2.67 12.68 2.34 11.36 2 10 C0.0549 12.91765 -0.45276317 14.62537285 -1 18 C-1.99 18.33 -2.98 18.66 -4 19 C-3.690625 17.9275 -3.38125 16.855 -3.0625 15.75 C-2.711875 14.5125 -2.36125 13.275 -2 12 C-1.6596875 10.948125 -1.6596875 10.948125 -1.3125 9.875 C-0.86018974 7.87814028 -0.86018974 7.87814028 -1.5625 5.4375 C-2 3 -2 3 0 0 Z " fill="#505252" transform="translate(601,0)"/>
<path d="M0 0 C3.3125 -0.3125 3.3125 -0.3125 7 0 C9.90311263 3.63220484 10.38772548 6.48531905 10.3125 11.0625 C10.30863281 12.08472656 10.30476562 13.10695313 10.30078125 14.16015625 C10.0062144 16.94132634 9.42886736 18.62614466 8 21 C6.68 20.67 5.36 20.34 4 20 C4.33 19.01 4.66 18.02 5 17 C5.99 17 6.98 17 8 17 C7.835 15.80375 7.67 14.6075 7.5 13.375 C7.06029433 9.89451285 6.91219287 6.51228512 7 3 C5.35 2.67 3.7 2.34 2 2 C2 3.65 2 5.3 2 7 C0.5393715 4.35261084 0 3.10551666 0 0 Z " fill="#707171" transform="translate(157,9)"/>
<path d="M0 0 C2.31 0.33 4.62 0.66 7 1 C7 3.64 7 6.28 7 9 C7.66 9 8.32 9 9 9 C8.67 10.32 8.34 11.64 8 13 C6 11.375 6 11.375 4 9 C3.75 5.75 3.75 5.75 4 3 C-0.5746417 5.52394025 -1.52056552 9.28150063 -3 14 C-4.65653354 9.03039939 -1.92768581 4.68152268 0 0 Z " fill="#545657" transform="translate(103,738)"/>
<path d="M0 0 C-1.66218194 2.71198107 -2.42618061 3.84604846 -5.5625 4.6875 C-6.366875 4.790625 -7.17125 4.89375 -8 5 C-8.99 5.495 -8.99 5.495 -10 6 C-10.4683265 8.58605332 -10.4683265 8.58605332 -10.625 11.5625 C-10.73714844 13.08037109 -10.73714844 13.08037109 -10.8515625 14.62890625 C-10.90054687 15.41136719 -10.94953125 16.19382812 -11 17 C-11.33 17 -11.66 17 -12 17 C-12 13.04 -12 9.08 -12 5 C-13.32 4.67 -14.64 4.34 -16 4 C-16 3.34 -16 2.68 -16 2 C-16.66 2 -17.32 2 -18 2 C-17.67 1.34 -17.34 0.68 -17 0 C-16.34 0.33 -15.68 0.66 -15 1 C-10.19393884 1.33530659 -3.98969821 -1.9948491 0 0 Z " fill="#666768" transform="translate(1363,450)"/>
<path d="M0 0 C0.66 0 1.32 0 2 0 C2 0.99 2 1.98 2 3 C4.97 3.495 4.97 3.495 8 4 C8 4.99 8 5.98 8 7 C9.32 7 10.64 7 12 7 C12 6.34 12 5.68 12 5 C13.98 4.34 15.96 3.68 18 3 C17.0114653 5.69600373 16.34022364 6.80558649 13.8125 8.25 C10.45769347 9.14461507 7.45702902 9.13556977 4 9 C3.67 8.01 3.34 7.02 3 6 C0.99983534 4.79117904 0.99983534 4.79117904 -1 4 C-0.67 2.68 -0.34 1.36 0 0 Z " fill="#515353" transform="translate(169,785)"/>
<path d="M0 0 C0.33 0 0.66 0 1 0 C1.08040527 0.61407715 1.16081055 1.2281543 1.24365234 1.86083984 C1.61732401 4.69935859 1.9961369 7.53716968 2.375 10.375 C2.50132813 11.34050781 2.62765625 12.30601562 2.7578125 13.30078125 C3.50700787 18.88228673 4.42846676 24.34654745 5.71728516 29.83056641 C6.02334159 32.17911344 5.71990599 33.76135333 5 36 C3.40861915 31.82262526 2.78721942 28.46839215 3 24 C2.34 24 1.68 24 1 24 C-0.32915021 16.02509872 -0.08801359 8.05813281 0 0 Z " fill="#5B5C5D" transform="translate(1303,726)"/>
<path d="M0 0 C2.475 0.99 2.475 0.99 5 2 C5 3.65 5 5.3 5 7 C3.64455078 6.94779297 3.64455078 6.94779297 2.26171875 6.89453125 C0.49248047 6.85392578 0.49248047 6.85392578 -1.3125 6.8125 C-2.48425781 6.77769531 -3.65601563 6.74289063 -4.86328125 6.70703125 C-7.99288464 6.71282601 -7.99288464 6.71282601 -9.91796875 8.51171875 C-10.27503906 9.00285156 -10.63210937 9.49398437 -11 10 C-11.66 9.67 -12.32 9.34 -13 9 C-12.0625 6.625 -12.0625 6.625 -10 4 C-7.0518161 2.95977199 -4.09069405 2.43412264 -1 2 C-0.67 2.99 -0.34 3.98 0 5 C0.99 5 1.98 5 3 5 C2.01 3.35 1.02 1.7 0 0 Z " fill="#464848" transform="translate(151,45)"/>
<path d="M0 0 C0.66 0.33 1.32 0.66 2 1 C-0.97 7.6 -3.94 14.2 -7 21 C-7.33 21 -7.66 21 -8 21 C-8.08886184 17.80097361 -7.91058531 15.07322544 -7 12 C-7.66 12 -8.32 12 -9 12 C-9 11.34 -9 10.68 -9 10 C-7.52295788 8.74772516 -6.04172601 7.49833478 -4.5078125 6.31640625 C-2.44926631 4.5191781 -1.21354042 2.42708084 0 0 Z " fill="#2E3031" transform="translate(837,724)"/>
<path d="M0 0 C2.99324263 1.0975223 3.84610901 1.67682892 5.25 4.625 C5.4975 5.40875 5.745 6.1925 6 7 C7.7015625 6.9690625 7.7015625 6.9690625 9.4375 6.9375 C13 7 13 7 14 8 C14.14115161 10.67058851 14.04247107 13.32432238 14 16 C13.67 16 13.34 16 13 16 C12.67 13.36 12.34 10.72 12 8 C8.7 8.33 5.4 8.66 2 9 C0.11656068 5.23312136 -0.22057835 3.97041037 0 0 Z " fill="#575859" transform="translate(823,775)"/>
<path d="M0 0 C0.33 0 0.66 0 1 0 C1.0580476 3.27075883 1.09361165 6.54138524 1.125 9.8125 C1.14175781 10.74126953 1.15851562 11.67003906 1.17578125 12.62695312 C1.18222656 13.51962891 1.18867187 14.41230469 1.1953125 15.33203125 C1.20578613 16.15421143 1.21625977 16.9763916 1.22705078 17.82348633 C1 20 1 20 -1 23 C-1.99 23 -2.98 23 -4 23 C-3.67 16.4 -3.34 9.8 -3 3 C-2.34 3 -1.68 3 -1 3 C-0.67 2.01 -0.34 1.02 0 0 Z " fill="#747677" transform="translate(827,748)"/>
<path d="M0 0 C2.475 0.99 2.475 0.99 5 2 C5 1.34 5 0.68 5 0 C6.65 0 8.3 0 10 0 C9.67 1.98 9.34 3.96 9 6 C9.99 6 10.98 6 12 6 C12.22174933 7.45635371 12.42698698 8.91522956 12.625 10.375 C12.74101562 11.18710938 12.85703125 11.99921875 12.9765625 12.8359375 C12.98429687 13.55007812 12.99203125 14.26421875 13 15 C12.34 15.66 11.68 16.32 11 17 C11 13.7 11 10.4 11 7 C9.68 6.67 8.36 6.34 7 6 C6.67 5.34 6.34 4.68 6 4 C3.11304814 3.15760028 3.11304814 3.15760028 0 3 C-0.99 3.66 -1.98 4.32 -3 5 C-1.125 1.125 -1.125 1.125 0 0 Z " fill="#5A5B5C" transform="translate(269,90)"/>
<path d="M0 0 C0.33 0 0.66 0 1 0 C1.33 1.98 1.66 3.96 2 6 C6.95 6.33 11.9 6.66 17 7 C17.33 8.32 17.66 9.64 18 11 C20.97 11.495 20.97 11.495 24 12 C24 12.33 24 12.66 24 13 C22.02 13 20.04 13 18 13 C17.34 11.68 16.68 10.36 16 9 C11.05 9 6.1 9 1 9 C-0.4783226 6.04335481 -0.06032783 3.25770263 0 0 Z " fill="#58595A" transform="translate(84,39)"/>
<path d="M0 0 C0.66 0 1.32 0 2 0 C2.33 1.98 2.66 3.96 3 6 C3.66 6 4.32 6 5 6 C8.2230161 13.59710939 9.66432015 22.00703955 7 30 C4.9375 30.6875 4.9375 30.6875 3 31 C3.495 30.319375 3.99 29.63875 4.5 28.9375 C6.82134918 24.39152452 6.58079635 21.00415642 5.16796875 16.12890625 C4.47262577 14.04287731 3.75771595 11.96326914 3.0234375 9.890625 C1.8664768 6.62287339 0.91164327 3.34269198 0 0 Z " fill="#565859" transform="translate(404,743)"/>
<path d="M0 0 C1.32 0.33 2.64 0.66 4 1 C4 2.65 4 4.3 4 6 C6.97 6.495 6.97 6.495 10 7 C10.33 8.65 10.66 10.3 11 12 C10.34 12 9.68 12 9 12 C9 10.68 9 9.36 9 8 C6.14921909 7.23283149 6.14921909 7.23283149 3 7 C1.10041919 8.31318262 1.10041919 8.31318262 0 10 C-0.66 9.67 -1.32 9.34 -2 9 C-1.41196203 5.97580475 -0.77321882 2.98241547 0 0 Z " fill="#535554" transform="translate(838,93)"/>
<path d="M0 0 C0 0.99 0 1.98 0 3 C-1.32 3 -2.64 3 -4 3 C-4.33 6.3 -4.66 9.6 -5 13 C-11.75 13.125 -11.75 13.125 -14 12 C-14.62599243 8.61964088 -15 5.43830115 -15 2 C-13.10134397 4.97180943 -11.64544429 7.51460083 -11 11 C-9.35 11.33 -7.7 11.66 -6 12 C-6 8.7 -6 5.4 -6 2 C-4.02 1.34 -2.04 0.68 0 0 Z " fill="#535455" transform="translate(430,125)"/>
<path d="M0 0 C0.33 0 0.66 0 1 0 C1 2.31 1 4.62 1 7 C0.34 7 -0.32 7 -1 7 C-0.34 8.65 0.32 10.3 1 12 C0.34 12.66 -0.32 13.32 -1 14 C-1.71408334 15.98356483 -2.38617742 17.98315437 -3 20 C-3.33 20 -3.66 20 -4 20 C-4.07485655 16.10745958 -3.93973036 12.75892143 -3 9 C-3.33 8.01 -3.66 7.02 -4 6 C-3.67 5.34 -3.34 4.68 -3 4 C-2.34 4 -1.68 4 -1 4 C-0.67 2.68 -0.34 1.36 0 0 Z " fill="#474949" transform="translate(893,72)"/>
<path d="M0 0 C1.78409802 3.06246747 2.22880021 5.22079273 2.125 8.75 C2.10695313 9.54921875 2.08890625 10.3484375 2.0703125 11.171875 C2.03550781 12.07679687 2.03550781 12.07679687 2 13 C1.34 13 0.68 13 0 13 C0.33 13.99 0.66 14.98 1 16 C-1.31 17.98 -3.62 19.96 -6 22 C-6.66 21.67 -7.32 21.34 -8 21 C-7.57847656 20.57589844 -7.15695312 20.15179688 -6.72265625 19.71484375 C-2.8223041 15.53917263 -1.31460894 12.87270016 -1 7 C-0.66666667 4.66666667 -0.33333333 2.33333333 0 0 Z " fill="#525254" transform="translate(19,61)"/>
<path d="M0 0 C0.125 2.875 0.125 2.875 0 6 C-0.66 6.66 -1.32 7.32 -2 8 C-2.33 6.35 -2.66 4.7 -3 3 C-3.66 3 -4.32 3 -5 3 C-5 3.99 -5 4.98 -5 6 C-7.90600261 7.25664978 -9.79604584 8 -13 8 C-13.33 7.34 -13.66 6.68 -14 6 C-11.625 4.9375 -11.625 4.9375 -9 4 C-8.34 4.33 -7.68 4.66 -7 5 C-7 3.35 -7 1.7 -7 0 C-3.98968256 -0.93423645 -3.13349732 -1.04449911 0 0 Z " fill="#6A6C6C" transform="translate(999,127)"/>
<path d="M0 0 C0.66 0 1.32 0 2 0 C1.67 2.97 1.34 5.94 1 9 C-1.31 9 -3.62 9 -6 9 C-6 9.66 -6 10.32 -6 11 C-9.50776784 12.60355101 -12.14354879 13.22036864 -16 13 C-16 12.34 -16 11.68 -16 11 C-15.236875 10.896875 -14.47375 10.79375 -13.6875 10.6875 C-10.96936488 10.26111379 -10.96936488 10.26111379 -9.625 8.4375 C-7.01501838 6.1286701 -4.33073979 6.81146756 -1 7 C-0.67 4.69 -0.34 2.38 0 0 Z " fill="#4D4E4F" transform="translate(355,124)"/>
<path d="M0 0 C3.12290635 0.48578543 5.99580359 0.9986012 9 2 C8.35748983 5.93447236 7.14662876 9.28507256 5.5625 12.9375 C3.84387152 16.91343156 2.32201267 20.87409069 1 25 C-0.7037705 20.89452892 0.84731414 17.9837996 2.375 14 C4.46815602 8.58612687 4.46815602 8.58612687 6 3 C4.35 3 2.7 3 1 3 C0.67 2.01 0.34 1.02 0 0 Z " fill="#646565" transform="translate(500,722)"/>
<path d="M0 0 C0.99 0.495 0.99 0.495 2 1 C2.44921875 4.0546875 2.44921875 4.0546875 2.6875 7.875 C2.77386719 9.13054687 2.86023438 10.38609375 2.94921875 11.6796875 C3 15 3 15 2 18 C2.99 18.33 3.98 18.66 5 19 C4.34 20.32 3.68 21.64 3 23 C2.01 22.67 1.02 22.34 0 22 C0 14.74 0 7.48 0 0 Z " fill="#606162" transform="translate(26,181)"/>
<path d="M0 0 C0.33 0.66 0.66 1.32 1 2 C1.66 2 2.32 2 3 2 C3.33 2.99 3.66 3.98 4 5 C5.98 4.67 7.96 4.34 10 4 C8.6190998 7.33717549 7.1798762 9.22301036 4 11 C1.75 10.6875 1.75 10.6875 0 10 C0.66 10 1.32 10 2 10 C1.34 6.7 0.68 3.4 0 0 Z " fill="#333536" transform="translate(817,724)"/>
<path d="M0 0 C1.10988281 0.00386719 2.21976562 0.00773438 3.36328125 0.01171875 C6.75079469 0.31822702 9.51758501 1.10879552 12.6875 2.3125 C12.6875 2.9725 12.6875 3.6325 12.6875 4.3125 C11.65625 4.1475 10.625 3.9825 9.5625 3.8125 C3.29880822 3.0097525 -3.01055789 3.23284062 -9.3125 3.3125 C-6.65850721 -0.24178716 -4.26413212 -0.06393739 0 0 Z " fill="#3D3F3F" transform="translate(329.3125,690.6875)"/>
<path d="M0 0 C0 0.99 0 1.98 0 3 C-0.99 3 -1.98 3 -3 3 C-3 3.66 -3 4.32 -3 5 C-4.98 5 -6.96 5 -9 5 C-9 8.96 -9 12.92 -9 17 C-9.99 17 -10.98 17 -12 17 C-11.9278125 16.24074219 -11.855625 15.48148438 -11.78125 14.69921875 C-11.6884375 13.70535156 -11.595625 12.71148437 -11.5 11.6875 C-11.4071875 10.70136719 -11.314375 9.71523437 -11.21875 8.69921875 C-10.95961143 5.95297861 -10.95961143 5.95297861 -11 3 C-10.28972656 2.86722656 -9.57945312 2.73445313 -8.84765625 2.59765625 C-7.92855469 2.42105469 -7.00945312 2.24445313 -6.0625 2.0625 C-4.68771484 1.80146484 -4.68771484 1.80146484 -3.28515625 1.53515625 C-1.04710156 1.22285012 -1.04710156 1.22285012 0 0 Z " fill="#585959" transform="translate(507,62)"/>
<path d="M0 0 C5.82438396 0.11648768 10.26423714 1.8429604 15.4375 4.4375 C16.06479004 4.75017822 16.69208008 5.06285645 17.33837891 5.38500977 C21.86510063 7.73020126 21.86510063 7.73020126 23 10 C15.08090444 7.54234965 7.58014704 4.33181427 0 1 C0 0.67 0 0.34 0 0 Z " fill="#606162" transform="translate(708,601)"/>
<path d="M0 0 C0.99 0.495 0.99 0.495 2 1 C2.59765625 3.46875 2.59765625 3.46875 3.0625 6.5 C3.35430436 10.06054218 3.35430436 10.06054218 5 13 C5.23481693 15.18292774 5.41363323 17.37203174 5.5625 19.5625 C5.64628906 20.76003906 5.73007813 21.95757812 5.81640625 23.19140625 C5.87699219 24.11824219 5.93757812 25.04507812 6 26 C3.7012716 23.7012716 3.54167086 22.69425215 2.9296875 19.5703125 C2.75566406 18.69246094 2.58164063 17.81460937 2.40234375 16.91015625 C2.22832031 15.99105469 2.05429688 15.07195312 1.875 14.125 C1.69324219 13.21363281 1.51148438 12.30226563 1.32421875 11.36328125 C0.56333216 7.45587118 0 4.00299654 0 0 Z " fill="#4B4D4D" transform="translate(177,469)"/>
<path d="M0 0 C1.65 0.33 3.3 0.66 5 1 C5.33 1.99 5.66 2.98 6 4 C9.63 4 13.26 4 17 4 C13.67927527 7.32072473 12.59028866 7.90819423 8 8 C5.125 6.1875 5.125 6.1875 3 4 C3 3.34 3 2.68 3 2 C1.68 2.33 0.36 2.66 -1 3 C-0.67 2.01 -0.34 1.02 0 0 Z " fill="#4A4C4D" transform="translate(408,834)"/>
<path d="M0 0 C1.25425781 0.01804687 2.50851562 0.03609375 3.80078125 0.0546875 C5.22970703 0.08949219 5.22970703 0.08949219 6.6875 0.125 C6.3575 1.115 6.0275 2.105 5.6875 3.125 C4.90246094 3.11339844 4.11742187 3.10179687 3.30859375 3.08984375 C-2.34969775 3.04124493 -7.74128878 3.11205251 -13.3125 4.125 C-12.3125 2.125 -12.3125 2.125 -10.20703125 1.0078125 C-6.68388761 -0.06672254 -3.67747807 -0.06873791 0 0 Z " fill="#565758" transform="translate(818.3125,746.875)"/>
<path d="M0 0 C1.7325 0.7425 1.7325 0.7425 3.5 1.5 C7.87098979 3.16144195 11.35631544 3.15741304 16 3 C16.99 3.33 17.98 3.66 19 4 C19 4.66 19 5.32 19 6 C17.41986783 6.25028811 15.83557694 6.47440946 14.25 6.6875 C13.36828125 6.81511719 12.4865625 6.94273437 11.578125 7.07421875 C8.39979995 6.98272151 7.36313095 6.04270641 5 4 C3.35202764 3.28837557 1.68834592 2.60968047 0 2 C0 1.34 0 0.68 0 0 Z " fill="#5D5E5F" transform="translate(1372,334)"/>
<path d="M0 0 C0.33 0 0.66 0 1 0 C1.33 5.61 1.66 11.22 2 17 C-1.13349732 18.04449911 -1.98968256 17.93423645 -5 17 C-5.33 15.68 -5.66 14.36 -6 13 C-5.34 13 -4.68 13 -4 13 C-4 13.66 -4 14.32 -4 15 C-2.68 15 -1.36 15 0 15 C0 10.05 0 5.1 0 0 Z " fill="#717272" transform="translate(293,738)"/>
<path d="M0 0 C3.69900008 0.88776002 7.34550461 1.94581864 11 3 C11.33 2.01 11.66 1.02 12 0 C12.33 1.32 12.66 2.64 13 4 C11.39658445 4.33692785 9.79223445 4.66941093 8.1875 5 C7.29417969 5.185625 6.40085937 5.37125 5.48046875 5.5625 C3 6 3 6 0 6 C0 4.02 0 2.04 0 0 Z " fill="#505151" transform="translate(1177,180)"/>
<path d="M0 0 C1.32 0.33 2.64 0.66 4 1 C3.01 1 2.02 1 1 1 C1 4.63 1 8.26 1 12 C2.32 12.33 3.64 12.66 5 13 C3.68 13.33 2.36 13.66 1 14 C-0.65 11.03 -2.3 8.06 -4 5 C-2.68 4.67 -1.36 4.34 0 4 C0 2.68 0 1.36 0 0 Z " fill="#616263" transform="translate(800,739)"/>
<path d="M0 0 C0.33 0 0.66 0 1 0 C1.05394705 2.60444348 1.09364469 5.20776998 1.125 7.8125 C1.14175781 8.55048828 1.15851563 9.28847656 1.17578125 10.04882812 C1.21074628 13.91246426 1.19397555 15.70903668 -1 19 C-1.39387788 21.32387947 -1.73486085 23.65793749 -2 26 C-2.66 26 -3.32 26 -4 26 C-3.81824219 25.06994141 -3.81824219 25.06994141 -3.6328125 24.12109375 C-2.11743265 16.11289411 -1.02538266 8.08306968 0 0 Z " fill="#5C5D5E" transform="translate(168,589)"/>
<path d="M0 0 C0.33 0.66 0.66 1.32 1 2 C1.804375 2.144375 2.60875 2.28875 3.4375 2.4375 C6 3 6 3 8 6 C9.32 6 10.64 6 12 6 C12.66 6.33 13.32 6.66 14 7 C14 9.31 14 11.62 14 14 C13.67 14 13.34 14 13 14 C12.67 12.35 12.34 10.7 12 9 C9.03 8.505 9.03 8.505 6 8 C5.67 7.01 5.34 6.02 5 5 C2.49552484 3.78130071 2.49552484 3.78130071 0 3 C0 2.01 0 1.02 0 0 Z " fill="#616364" transform="translate(287,111)"/>
<path d="M0 0 C2.0625 0.4375 2.0625 0.4375 4 1 C3.401875 1.268125 2.80375 1.53625 2.1875 1.8125 C-0.05569277 2.86047309 -0.05569277 2.86047309 -1.4375 4.6875 C-1.953125 5.120625 -2.46875 5.55375 -3 6 C-5.6875 5.6875 -5.6875 5.6875 -8 5 C-8 6.32 -8 7.64 -8 9 C-8.99 9 -9.98 9 -11 9 C-10.67 7.35 -10.34 5.7 -10 4 C-9.36191406 3.79503906 -8.72382812 3.59007812 -8.06640625 3.37890625 C-7.24011719 3.10949219 -6.41382812 2.84007812 -5.5625 2.5625 C-4.73878906 2.29566406 -3.91507812 2.02882813 -3.06640625 1.75390625 C-1.03780412 1.17844506 -1.03780412 1.17844506 0 0 Z " fill="#404142" transform="translate(95,705)"/>
<path d="M0 0 C0 0.99 0 1.98 0 3 C-1.32 3 -2.64 3 -4 3 C-3.938125 3.94875 -3.87625 4.8975 -3.8125 5.875 C-3.874375 6.90625 -3.93625 7.9375 -4 9 C-4.99 9.66 -5.98 10.32 -7 11 C-6.95875 10.05125 -6.9175 9.1025 -6.875 8.125 C-6.65026182 4.89755144 -6.65026182 4.89755144 -9 3 C-3.375 0 -3.375 0 0 0 Z " fill="#545557" transform="translate(832,793)"/>
<path d="M0 0 C4.38889325 0.66498383 7.9811485 2.18757677 12 4 C11.67 5.98 11.34 7.96 11 10 C10.34 10 9.68 10 9 10 C9.33 8.35 9.66 6.7 10 5 C8.71073008 4.63720544 7.41846728 4.28503302 6.125 3.9375 C5.40570312 3.74027344 4.68640625 3.54304687 3.9453125 3.33984375 C1.92726407 2.78867393 1.92726407 2.78867393 0 4 C0 2.68 0 1.36 0 0 Z " fill="#505152" transform="translate(842,714)"/>
<path d="M0 0 C2.4375 0.75 2.4375 0.75 5 2 C5.8125 4.125 5.8125 4.125 6 6 C8.31 6.66 10.62 7.32 13 8 C13 8.99 13 9.98 13 11 C12.01 11 11.02 11 10 11 C10 10.34 10 9.68 10 9 C9.0925 8.814375 8.185 8.62875 7.25 8.4375 C2.791964 6.46567638 2.08018744 4.32038929 0 0 Z " fill="#515254" transform="translate(128,766)"/>
<path d="M0 0 C0.33 0.66 0.66 1.32 1 2 C-1.01511972 7.28163799 -3.55993084 12.38216587 -8 16 C-8.66 15.67 -9.32 15.34 -10 15 C-8.5291139 12.35240503 -7.18411486 10.17836127 -5 8.0625 C-2.62703991 5.61538491 -1.40302401 3.08665282 0 0 Z " fill="#575859" transform="translate(147,657)"/>
<path d="M0 0 C2.42130331 2.42130331 2.52840504 3.80111377 3.125 7.125 C3.29257813 8.03507812 3.46015625 8.94515625 3.6328125 9.8828125 C3.81457031 10.93082031 3.81457031 10.93082031 4 12 C2.68 12 1.36 12 0 12 C0 8.04 0 4.08 0 0 Z " fill="#4A4B4C" transform="translate(199,51)"/>
<path d="M0 0 C0 0.99 0 1.98 0 3 C-1.65 3 -3.3 3 -5 3 C-5.66 4.32 -6.32 5.64 -7 7 C-7.33 7 -7.66 7 -8 7 C-8 4.69 -8 2.38 -8 0 C-4.71023192 -1.09658936 -3.28696233 -0.79953138 0 0 Z " fill="#38393A" transform="translate(564,9)"/>
<path d="M0 0 C5.61 0 11.22 0 17 0 C17.33 0.99 17.66 1.98 18 3 C17.44828125 2.83628906 16.8965625 2.67257812 16.328125 2.50390625 C13.73385993 1.94239586 11.40164589 1.90260992 8.75 1.9375 C7.41195312 1.95103516 7.41195312 1.95103516 6.046875 1.96484375 C5.37140625 1.97644531 4.6959375 1.98804688 4 2 C3.67 2.99 3.34 3.98 3 5 C2.01 3.35 1.02 1.7 0 0 Z " fill="#727373" transform="translate(923,769)"/>
<path d="M0 0 C1.33804687 0.17982422 1.33804687 0.17982422 2.703125 0.36328125 C3.37859375 0.47027344 4.0540625 0.57726562 4.75 0.6875 C4.75 2.0075 4.75 3.3275 4.75 4.6875 C3.92242188 4.19636719 3.92242188 4.19636719 3.078125 3.6953125 C0.36219077 2.51962285 -1.55551759 2.48501362 -4.5 2.5625 C-5.83804687 2.58957031 -5.83804687 2.58957031 -7.203125 2.6171875 C-7.87859375 2.64039063 -8.5540625 2.66359375 -9.25 2.6875 C-6.03037108 -0.23875152 -4.27288159 -0.61844339 0 0 Z " fill="#606262" transform="translate(1236.25,197.3125)"/>
<path d="M0 0 C0 0.99 0 1.98 0 3 C-1.32 3 -2.64 3 -4 3 C-4.33 2.34 -4.66 1.68 -5 1 C-5.99 1 -6.98 1 -8 1 C-8.33 1.66 -8.66 2.32 -9 3 C-9.66 3 -10.32 3 -11 3 C-11.33 1.68 -11.66 0.36 -12 -1 C-7.21643835 -2.19589041 -4.58153882 -1.52717961 0 0 Z " fill="#5F6161" transform="translate(226,66)"/>
<path d="M0 0 C0.66 0 1.32 0 2 0 C2 2.64 2 5.28 2 8 C2.66 8 3.32 8 4 8 C3.67 9.32 3.34 10.64 3 12 C0.9375 10.5 0.9375 10.5 -1 8 C-1.05928384 5.17593353 -0.55954815 2.79774073 0 0 Z " fill="#3D3E3E" transform="translate(108,739)"/>
<path d="M0 0 C6.10737442 1.76463072 12.07433507 3.69557475 18 6 C14.61682513 6.97591583 12.4342662 6.85856655 9 6 C9 5.34 9 4.68 9 4 C6.36 3.67 3.72 3.34 1 3 C0.67 2.01 0.34 1.02 0 0 Z " fill="#595B5C" transform="translate(791,104)"/>
<path d="M0 0 C0.66 0 1.32 0 2 0 C2.28571429 7.42857143 2.28571429 7.42857143 0 11 C-1.32 10.67 -2.64 10.34 -4 10 C-3.67 9.01 -3.34 8.02 -3 7 C-2.01 7 -1.02 7 0 7 C-0.185625 6.030625 -0.37125 5.06125 -0.5625 4.0625 C-0.706875 3.051875 -0.85125 2.04125 -1 1 C-0.67 0.67 -0.34 0.34 0 0 Z " fill="#545555" transform="translate(165,19)"/>
<path d="M0 0 C0 3.41099168 -0.49145406 6.63088314 -1 10 C-3.64 9.67 -6.28 9.34 -9 9 C-6 7 -6 7 -3 7 C-2.814375 5.824375 -2.814375 5.824375 -2.625 4.625 C-2 2 -2 2 0 0 Z " fill="#525455" transform="translate(1288,245)"/>
<path d="M0 0 C1.98 0.99 3.96 1.98 6 3 C5.67 3.66 5.34 4.32 5 5 C3.68 4.67 2.36 4.34 1 4 C0.67 4.66 0.34 5.32 0 6 C-0.66 6.66 -1.32 7.32 -2 8 C-2.99 7.67 -3.98 7.34 -5 7 C-4.34 6.67 -3.68 6.34 -3 6 C-1.95191959 4.02477154 -0.9479589 2.02518491 0 0 Z " fill="#515353" transform="translate(249,69)"/>
<path d="M0 0 C3.5 0.3125 3.5 0.3125 7 1 C7.99 1 8.98 1 10 1 C10.66 2.32 11.32 3.64 12 5 C4.575 4.01 4.575 4.01 -3 3 C-2.01 2.01 -1.02 1.02 0 0 Z " fill="#4B4C4D" transform="translate(1374,526)"/>
<path d="M0 0 C2.6641676 2.6641676 3.86565128 4.73159003 4.265625 8.5078125 C4.26046875 9.37148438 4.2553125 10.23515625 4.25 11.125 C4.25773438 12.42824219 4.25773438 12.42824219 4.265625 13.7578125 C4 16 4 16 2 18 C2.04125 17.071875 2.0825 16.14375 2.125 15.1875 C2.1462373 10.0268365 1.02043018 5.03837402 0 0 Z " fill="#5A5B5C" transform="translate(158,384)"/>
<path d="M0 0 C-1.84499282 2.39592817 -2.7754303 2.96194791 -5.8125 3.4765625 C-7.3903125 3.55003906 -7.3903125 3.55003906 -9 3.625 C-12.30311813 3.79501343 -14.85274287 3.95091429 -18 5 C-18 4.34 -18 3.68 -18 3 C-15.93918639 2.49309416 -13.87626474 1.99475381 -11.8125 1.5 C-10.66394531 1.2215625 -9.51539063 0.943125 -8.33203125 0.65625 C-5.43181171 0.08504615 -2.93903615 -0.13283779 0 0 Z " fill="#626364" transform="translate(1375,346)"/>
<path d="M0 0 C1.875 0.125 1.875 0.125 4 1 C5.25 4.0625 5.25 4.0625 6 7 C4.02 7 2.04 7 0 7 C0 4.69 0 2.38 0 0 Z " fill="#161819" transform="translate(736,73)"/>
<path d="M0 0 C0.66 0 1.32 0 2 0 C2 1.32 2 2.64 2 4 C3.32 4.66 4.64 5.32 6 6 C6 6.66 6 7.32 6 8 C7.65 8 9.3 8 11 8 C11 8.33 11 8.66 11 9 C8.69 9 6.38 9 4 9 C3.67 8.01 3.34 7.02 3 6 C0.99983534 4.79117904 0.99983534 4.79117904 -1 4 C-0.67 2.68 -0.34 1.36 0 0 Z " fill="#828484" transform="translate(169,785)"/>
<path d="M0 0 C1 2 1 2 0.22265625 4.6015625 C-0.16019531 5.59929688 -0.54304687 6.59703125 -0.9375 7.625 C-1.31777344 8.62789062 -1.69804688 9.63078125 -2.08984375 10.6640625 C-2.39019531 11.43492188 -2.69054687 12.20578125 -3 13 C-3.99 13 -4.98 13 -6 13 C-5.37935063 11.39414507 -4.7533082 9.79037383 -4.125 8.1875 C-3.77695312 7.29417969 -3.42890625 6.40085937 -3.0703125 5.48046875 C-2 3 -2 3 0 0 Z " fill="#575859" transform="translate(514,48)"/>
<path d="M0 0 C2.475 0.495 2.475 0.495 5 1 C5.33 1.99 5.66 2.98 6 4 C7.65 4.33 9.3 4.66 11 5 C11 5.33 11 5.66 11 6 C9.02 6 7.04 6 5 6 C4.67 4.68 4.34 3.36 4 2 C2.68 2 1.36 2 0 2 C0 1.34 0 0.68 0 0 Z " fill="#5F6162" transform="translate(1266,239)"/>
<path d="M0 0 C2.96175123 0.61277612 4.38058783 1.25372522 7 3 C6.67 3.66 6.34 4.32 6 5 C5.01 4.34 4.02 3.68 3 3 C2.87625 3.639375 2.7525 4.27875 2.625 4.9375 C2.41875 5.618125 2.2125 6.29875 2 7 C1.01 7.495 1.01 7.495 0 8 C0 5.36 0 2.72 0 0 Z " fill="#616262" transform="translate(523,34)"/>
<path d="M0 0 C0.66 0.33 1.32 0.66 2 1 C-0.475 6.94 -0.475 6.94 -3 13 C-3.33 13 -3.66 13 -4 13 C-4.33 10.69 -4.66 8.38 -5 6 C-4.01 5.67 -3.02 5.34 -2 5 C-0.78130071 2.49552484 -0.78130071 2.49552484 0 0 Z " fill="#555657" transform="translate(837,724)"/>
<path d="M0 0 C0.66 0.33 1.32 0.66 2 1 C1.50628906 1.44730469 1.01257813 1.89460937 0.50390625 2.35546875 C-4.41263727 6.77954779 -4.41263727 6.77954779 -6 13 C-6.33 13 -6.66 13 -7 13 C-7.34751969 10.08083462 -7.53280018 7.86804524 -5.95703125 5.30078125 C-4.15362765 3.11660035 -2.55587616 1.27793808 0 0 Z " fill="#101213" transform="translate(840,695)"/>
<path d="M0 0 C6.98942918 -0.602537 6.98942918 -0.602537 9.8671875 1.11328125 C11.30861002 2.33745588 12.66278229 3.66278229 14 5 C12 6 12 6 9.9375 5.75 C9.298125 5.5025 8.65875 5.255 8 5 C7.67 4.01 7.34 3.02 7 2 C4.69 2 2.38 2 0 2 C0 1.34 0 0.68 0 0 Z " fill="#5A5B5C" transform="translate(58,30)"/>
<path d="M0 0 C1.65 0 3.3 0 5 0 C5.25 2.25 5.25 2.25 5 5 C3 7.3125 3 7.3125 1 9 C1.020625 8.071875 1.04125 7.14375 1.0625 6.1875 C1.15769604 2.97713989 1.15769604 2.97713989 0 0 Z " fill="#5A5B5C" transform="translate(1015,194)"/>
<path d="M0 0 C1.65 0 3.3 0 5 0 C3.68 0.33 2.36 0.66 1 1 C1.33 2.98 1.66 4.96 2 7 C0.68 7 -0.64 7 -2 7 C-2.33 7.99 -2.66 8.98 -3 10 C-3.33 9.01 -3.66 8.02 -4 7 C-3.01 6.34 -2.02 5.68 -1 5 C-0.27034634 2.43717258 -0.27034634 2.43717258 0 0 Z " fill="#6F6F70" transform="translate(1166,190)"/>
<path d="M0 0 C6.4 -0.49230769 6.4 -0.49230769 9.4375 2 C10.2109375 2.99 10.2109375 2.99 11 4 C9.3745692 3.85904936 7.74965949 3.71207913 6.125 3.5625 C5.22007813 3.48128906 4.31515625 3.40007812 3.3828125 3.31640625 C1 3 1 3 -1 2 C-0.67 1.34 -0.34 0.68 0 0 Z " fill="#4C4E4F" transform="translate(38,189)"/>
<path d="M0 0 C0.99 0.33 1.98 0.66 3 1 C2.34 1 1.68 1 1 1 C1 1.99 1 2.98 1 4 C-1.90600261 5.25664978 -3.79604584 6 -7 6 C-7.33 5.34 -7.66 4.68 -8 4 C-3.375 1.875 -3.375 1.875 0 3 C0 2.01 0 1.02 0 0 Z " fill="#3F4041" transform="translate(993,129)"/>
<path d="M0 0 C0.33 1.32 0.66 2.64 1 4 C-2.50776784 5.60355101 -5.14354879 6.22036864 -9 6 C-9 5.34 -9 4.68 -9 4 C-8.2575 3.855625 -7.515 3.71125 -6.75 3.5625 C-4.47972261 3.09812508 -2.24240521 2.58136431 0 2 C0 1.34 0 0.68 0 0 Z " fill="#525354" transform="translate(763,78)"/>
<path d="M0 0 C1.32 0.33 2.64 0.66 4 1 C3.01 1.495 3.01 1.495 2 2 C2 4.64 2 7.28 2 10 C0 9 0 9 -1.25 6.125 C-1.4975 5.09375 -1.745 4.0625 -2 3 C-1.34 2.01 -0.68 1.02 0 0 Z " fill="#565758" transform="translate(388,832)"/>
<path d="M0 0 C1.58367747 0.14204741 3.16693318 0.28880153 4.75 0.4375 C5.63171875 0.51871094 6.5134375 0.59992187 7.421875 0.68359375 C9.69350452 0.96238465 11.79851823 1.38790577 14 2 C14 2.99 14 3.98 14 5 C12.22739369 4.54857225 10.4569632 4.08859477 8.6875 3.625 C7.20830078 3.24214844 7.20830078 3.24214844 5.69921875 2.8515625 C3 2 3 2 0 0 Z " fill="#575959" transform="translate(453,814)"/>
<path d="M0 0 C0.99 0 1.98 0 3 0 C3 1.32 3 2.64 3 4 C0.36 4 -2.28 4 -5 4 C-5.33 4.66 -5.66 5.32 -6 6 C-5.67 4.68 -5.34 3.36 -5 2 C-3.35 2 -1.7 2 0 2 C0 1.34 0 0.68 0 0 Z " fill="#555657" transform="translate(31,175)"/>
<path d="M0 0 C-3.85477249 2.56984833 -7.52040582 3.85814266 -12 5 C-11.375 3.125 -11.375 3.125 -10 1 C-6.34962875 -0.66647383 -3.81601142 -1.4676967 0 0 Z " fill="#6C6D6E" transform="translate(495,80)"/>
<path d="M0 0 C0.5625 1.9375 0.5625 1.9375 1 4 C0.67 4.33 0.34 4.66 0 5 C-2.02408755 4.90997602 -4.04544287 4.75358962 -6.0625 4.5625 C-7.71958984 4.40974609 -7.71958984 4.40974609 -9.41015625 4.25390625 C-10.26480469 4.17011719 -11.11945312 4.08632813 -12 4 C-12 3.67 -12 3.34 -12 3 C-8.37 3 -4.74 3 -1 3 C-0.67 2.01 -0.34 1.02 0 0 Z " fill="#535555" transform="translate(554,39)"/>
<path d="M0 0 C5.19591612 0.44033187 8.66335081 0.88303339 13 4 C12.67 4.66 12.34 5.32 12 6 C11.01 5.34 10.02 4.68 9 4 C7.45233858 3.4172881 5.88807778 2.87735813 4.3125 2.375 C3.50425781 2.11460938 2.69601562 1.85421875 1.86328125 1.5859375 C1.24839844 1.39257812 0.63351562 1.19921875 0 1 C0 0.67 0 0.34 0 0 Z " fill="#595A5B" transform="translate(618,18)"/>
<path d="M0 0 C2.64 0 5.28 0 8 0 C8 0.99 8 1.98 8 3 C8.99 3 9.98 3 11 3 C11 3.66 11 4.32 11 5 C9.53932801 4.54917531 8.08151968 4.08906463 6.625 3.625 C5.81289063 3.36976563 5.00078125 3.11453125 4.1640625 2.8515625 C2 2 2 2 0 0 Z " fill="#4B4C4D" transform="translate(356,700)"/>
<path d="M0 0 C0.66 0.33 1.32 0.66 2 1 C-0.64 3.64 -3.28 6.28 -6 9 C-6.33 8.34 -6.66 7.68 -7 7 C-5.625 5 -5.625 5 -4 3 C-3.34 3 -2.68 3 -2 3 C-2 2.34 -2 1.68 -2 1 C-1.34 0.67 -0.68 0.34 0 0 Z " fill="#101213" transform="translate(1072,463)"/>
<path d="M0 0 C0.66 0.33 1.32 0.66 2 1 C2 2.32 2 3.64 2 5 C-0.31 5.33 -2.62 5.66 -5 6 C-5 5.01 -5 4.02 -5 3 C-3.35 3 -1.7 3 0 3 C0 2.01 0 1.02 0 0 Z " fill="#474849" transform="translate(1352,265)"/>
<path d="M0 0 C0.99 0.33 1.98 0.66 3 1 C0.03839944 4.12613393 -2.09567131 6.04783565 -6 8 C-4.02 5.36 -2.04 2.72 0 0 Z " fill="#464849" transform="translate(17,75)"/>
<path d="M0 0 C1.65 0 3.3 0 5 0 C4.67 0.66 4.34 1.32 4 2 C3.34 2 2.68 2 2 2 C1.67 3.65 1.34 5.3 1 7 C0.01 6.67 -0.98 6.34 -2 6 C-1.34 5.67 -0.68 5.34 0 5 C0 3.35 0 1.7 0 0 Z " fill="#484A4B" transform="translate(28,58)"/>
<path d="M0 0 C2.31 0.33 4.62 0.66 7 1 C7 1.33 7 1.66 7 2 C6.0925 2.28875 5.185 2.5775 4.25 2.875 C1.67797092 3.76531776 -0.61346766 4.71494413 -3 6 C-2.01 4.02 -1.02 2.04 0 0 Z " fill="#3B3C3D" transform="translate(141,49)"/>
<path d="M0 0 C0.33 0 0.66 0 1 0 C1 3.63 1 7.26 1 11 C0.01 11 -0.98 11 -2 11 C-3.13643966 7.59068103 -2.86747764 6.99664544 -1.5625 3.8125 C-1.13130859 2.73935547 -1.13130859 2.73935547 -0.69140625 1.64453125 C-0.46324219 1.10183594 -0.23507812 0.55914063 0 0 Z " fill="#878988" transform="translate(815,783)"/>
<path d="M0 0 C0.33 0.99 0.66 1.98 1 3 C2.65 3 4.3 3 6 3 C5.67 3.66 5.34 4.32 5 5 C1.9375 5.625 1.9375 5.625 -1 6 C-0.67 4.02 -0.34 2.04 0 0 Z " fill="#515353" transform="translate(117,759)"/>
<path d="M0 0 C2 4 2 4 3 7 C1.35 7.66 -0.3 8.32 -2 9 C-1.34 6.03 -0.68 3.06 0 0 Z " fill="#535556" transform="translate(1233,213)"/>
<path d="M0 0 C0.89332031 0.12761719 1.78664063 0.25523437 2.70703125 0.38671875 C3.60808594 0.50660156 4.50914062 0.62648438 5.4375 0.75 C6.12457031 0.85699219 6.81164062 0.96398437 7.51953125 1.07421875 C7.51953125 1.40421875 7.51953125 1.73421875 7.51953125 2.07421875 C1.08453125 2.56921875 1.08453125 2.56921875 -5.48046875 3.07421875 C-2.48046875 0.07421875 -2.48046875 0.07421875 0 0 Z " fill="#4E5051" transform="translate(325.48046875,690.92578125)"/>
<path d="M0 0 C3.59391114 1.33488128 6.75490696 2.96022723 10 5 C9.01 5.495 9.01 5.495 8 6 C4.4375 4.75 4.4375 4.75 1 3 C0.67 2.01 0.34 1.02 0 0 Z " fill="#4D4F50" transform="translate(721,605)"/>
<path d="M0 0 C0.99 0.33 1.98 0.66 3 1 C3 2.65 3 4.3 3 6 C4.32 6.33 5.64 6.66 7 7 C5.35 7 3.7 7 2 7 C1.87625 6.195625 1.7525 5.39125 1.625 4.5625 C1.315625 3.2940625 1.315625 3.2940625 1 2 C0.34 1.67 -0.32 1.34 -1 1 C-0.67 0.67 -0.34 0.34 0 0 Z " fill="#6C6E6F" transform="translate(227,64)"/>
<path d="M0 0 C0 0.99 0 1.98 0 3 C-2.31 2.67 -4.62 2.34 -7 2 C-7 1.34 -7 0.68 -7 0 C-3.98968256 -0.93423645 -3.13349732 -1.04449911 0 0 Z " fill="#666868" transform="translate(151,48)"/>
<path d="M0 0 C0 0.99 0 1.98 0 3 C-4.455 3.495 -4.455 3.495 -9 4 C-8 2 -8 2 -5.625 0.875 C-3 0 -3 0 0 0 Z " fill="#656768" transform="translate(832,793)"/>
<path d="M0 0 C0.33 0 0.66 0 1 0 C1 1.65 1 3.3 1 5 C1.66 5 2.32 5 3 5 C3 6.32 3 7.64 3 9 C2.34 9 1.68 9 1 9 C1 8.34 1 7.68 1 7 C0.34 7 -0.32 7 -1 7 C-0.67 4.69 -0.34 2.38 0 0 Z " fill="#181A1B" transform="translate(162,395)"/>
<path d="M0 0 C0.66 0 1.32 0 2 0 C1.814375 0.94875 1.62875 1.8975 1.4375 2.875 C0.71313368 5.89868793 0.71313368 5.89868793 2 8 C0.68 7.34 -0.64 6.68 -2 6 C-1.34 4.02 -0.68 2.04 0 0 Z " fill="#525353" transform="translate(474,90)"/>
<path d="M0 0 C1.32 0 2.64 0 4 0 C4 0.66 4 1.32 4 2 C3.01 2 2.02 2 1 2 C1.33 3.65 1.66 5.3 2 7 C0.4375 5.75 0.4375 5.75 -1 4 C-0.6875 1.8125 -0.6875 1.8125 0 0 Z " fill="#5D5F5E" transform="translate(147,36)"/>
<path d="M0 0 C0.66 0.33 1.32 0.66 2 1 C1.01 1.66 0.02 2.32 -1 3 C-0.67 2.01 -0.34 1.02 0 0 Z " fill="#838383" transform="translate(1368,587)"/>
<path d="M0 0 C0.66 0.66 1.32 1.32 2 2 C1.34 2 0.68 2 0 2 C0 1.34 0 0.68 0 0 Z " fill="#979797" transform="translate(1301,890)"/>
<path d="M0 0 C0.99 0.495 0.99 0.495 2 1 C1.01 1.495 1.01 1.495 0 2 C0 1.34 0 0.68 0 0 Z " fill="#989898" transform="translate(796,735)"/>
<path d="M0 0 C3 1 3 1 3 1 Z " fill="#979898" transform="translate(1021,193)"/>
<path d="M0 0 C3 1 3 1 3 1 Z " fill="#A5A6A6" transform="translate(790,92)"/>
<path d="M0 0 C2 1 2 1 2 1 Z " fill="#A4A5A5" transform="translate(817,794)"/>
<path d="" fill="#A6A6A6" transform="translate(0,0)"/>
<path d="" fill="#9F9F9F" transform="translate(0,0)"/>
<path d="" fill="#A1A1A1" transform="translate(0,0)"/>
<path d="" fill="#9A9A9A" transform="translate(0,0)"/>
<path d="" fill="#A5A5A5" transform="translate(0,0)"/>
<path d="" fill="#A6A6A6" transform="translate(0,0)"/>
<path d="" fill="#A3A3A3" transform="translate(0,0)"/>
<path d="" fill="#A0A0A2" transform="translate(0,0)"/>
</svg>
