<?xml version="1.0" encoding="UTF-8"?>
<svg version="1.1" xmlns="http://www.w3.org/2000/svg" width="733" height="900">
<path d="M0 0 C241.89 0 483.78 0 733 0 C733 297 733 594 733 900 C491.11 900 249.22 900 0 900 C0 603 0 306 0 0 Z " fill="#08090A" transform="translate(0,0)"/>
<path d="M0 0 C155.76 0 311.52 0 472 0 C472 271.59 472 543.18 472 823 C453.98099002 820.88011647 453.98099002 820.88011647 448.2421875 816.2578125 C444.36220553 814.08123725 440.3536117 814.70556943 436.01953125 814.90234375 C430.62226831 815.07689947 426.751637 813.7873089 422.5625 810.5 C421.716875 809.675 420.87125 808.85 420 808 C420 807.34 420 806.68 420 806 C419.01 806 418.02 806 417 806 C417 805.34 417 804.68 417 804 C412.72170263 803.92869504 409.13273734 803.93348714 405 805 C398.62556612 805.6249445 394.54398474 803.78105117 389 801 C388.16984375 800.61457031 387.3396875 800.22914063 386.484375 799.83203125 C372.44037363 793.17620851 372.44037363 793.17620851 369.78125 787.3125 C369.5234375 786.549375 369.265625 785.78625 369 785 C368.02160156 784.90203125 367.04320312 784.8040625 366.03515625 784.703125 C357.263724 783.70264699 349.4230466 782.6678923 342.4375 776.875 C341 775 341 775 341 773 C340.360625 772.773125 339.72125 772.54625 339.0625 772.3125 C337 771 337 771 336.25 768.375 C336.1675 767.59125 336.085 766.8075 336 766 C335.9690625 767.85625 335.9690625 767.85625 335.9375 769.75 C335.92009766 770.79414062 335.92009766 770.79414062 335.90234375 771.859375 C335.94469744 774.33999176 335.94469744 774.33999176 337 778 C333.7 778.33 330.4 778.66 327 779 C327 778.34 327 777.68 327 777 C326.34 777 325.68 777 325 777 C324.67 778.65 324.34 780.3 324 782 C320.37 782 316.74 782 313 782 C315 777 315 777 317 775 C320.625 774.875 320.625 774.875 324 775 C324.06058594 774.36191406 324.12117188 773.72382812 324.18359375 773.06640625 C324.26738281 772.24011719 324.35117187 771.41382813 324.4375 770.5625 C324.51871094 769.73878906 324.59992188 768.91507813 324.68359375 768.06640625 C325 766 325 766 326 765 C325.01 764.67 324.02 764.34 323 764 C319.31726929 759.58072314 317.27107979 755.62342283 315.67578125 750.11328125 C315.06243877 747.96047341 315.06243877 747.96047341 313.89453125 745.99609375 C312.36444279 742.58179155 313.39683413 739.61899525 314 736 C314.66 736 315.32 736 316 736 C315.67 734.35 315.34 732.7 315 731 C315.433125 731.474375 315.86625 731.94875 316.3125 732.4375 C318.02309613 734.23686957 318.02309613 734.23686957 321 735 C320.92549375 733.07500577 320.92549375 733.07500577 320 731 C317.5091448 729.40427629 317.5091448 729.40427629 314.4375 728.125 C302.60497749 722.50980293 292.93351121 713.89554892 287 702 C287 701.34 287 700.68 287 700 C286.01 699.67 285.02 699.34 284 699 C273.94247168 688.42385144 270.66103337 676.53227278 270.32617188 662.15332031 C270.34123805 658.13155311 270.34123805 658.13155311 268 655 C266.02041695 649.41058903 265.45048859 643.89191661 265 638 C264.01 638 263.02 638 262 638 C259.24242786 634.75579748 257.82736017 632.13048586 257.4375 627.9375 C257.29847357 624.10973604 257.29847357 624.10973604 255.5625 621.6875 C252.15580981 615.82799288 251.3010985 607.70945444 252 601 C253.5 599.3125 253.5 599.3125 255 598 C255 596.68 255 595.36 255 594 C254.34 594 253.68 594 253 594 C250.13033117 587.51205308 248.61619714 581.1470316 249 574 C250.875 571.25 250.875 571.25 253 569 C254.44773642 563.01602279 254.251842 559.45470271 251 554 C249.948125 553.319375 248.89625 552.63875 247.8125 551.9375 C246.884375 551.298125 245.95625 550.65875 245 550 C244.625 546.75 244.625 546.75 245 544 C244.27425781 543.7421875 243.54851562 543.484375 242.80078125 543.21875 C239.87952333 541.94757501 237.69127351 540.45983598 235.1875 538.5 C234.39730469 537.8915625 233.60710937 537.283125 232.79296875 536.65625 C232.20128906 536.1096875 231.60960937 535.563125 231 535 C231 534.34 231 533.68 231 533 C230.01 533 229.02 533 228 533 C226 530 226 530 226 526 C227.65 525.67 229.3 525.34 231 525 C230.34 524.34 229.68 523.68 229 523 C229 522.01 229 521.02 229 520 C228.34 520 227.68 520 227 520 C226.90203125 519.24074219 226.8040625 518.48148438 226.703125 517.69921875 C226.55359375 516.70535156 226.4040625 515.71148438 226.25 514.6875 C226.11078125 513.70136719 225.9715625 512.71523438 225.828125 511.69921875 C224.8337265 508.45804252 223.76023332 507.83492783 221 506 C217.06683093 500.63438046 216.45895483 495.49254205 217 489 C216.34 489 215.68 489 215 489 C213 486 213 486 213 483 C212.34 483 211.68 483 211 483 C211 481.68 211 480.36 211 479 C210.4225 478.9175 209.845 478.835 209.25 478.75 C206.28430694 477.76143565 204.99316373 476.39179647 203 474 C201.8125 471.3125 201.8125 471.3125 201 469 C200.67 468.67 200.34 468.34 200 468 C200.08026577 466.10741756 200.16413939 464.21490359 200.26831055 462.32348633 C200.74764187 453.4663165 200.74764187 453.4663165 196.6875 445.8125 C195.46978237 444.53069197 194.24186707 443.2584253 193 442 C190.10415553 437.23586878 190 435.92245553 190 430 C185.38 429.34 180.76 428.68 176 428 C176 427.67 176 427.34 176 427 C180.62 427.33 185.24 427.66 190 428 C190.33 426.35 190.66 424.7 191 423 C191.66 422.34 192.32 421.68 193 421 C193.40047444 418.67724823 193.7397104 416.34260643 194 414 C195.32 413.67 196.64 413.34 198 413 C196.42908628 407.45559863 194.50300436 403.01703404 191.4375 398.125 C188.92258076 394.02253798 187.55404543 390.8343047 186.9375 386.0625 C186.41618968 381.68756893 186.41618968 381.68756893 183.1875 378.5625 C182.65898437 378.20800781 182.13046875 377.85351562 181.5859375 377.48828125 C177.93098114 374.05838378 176.66675544 368.61017462 175 364 C174.67773438 363.22140625 174.35546875 362.4428125 174.0234375 361.640625 C171.43232826 355.00544807 170.46279314 347.43841418 172.83203125 340.59765625 C173.7980991 338.65466586 174.85376579 336.84066807 176 335 C176.67786286 333.67232377 177.34747921 332.34031297 178 331 C178.66 331 179.32 331 180 331 C179.9139073 323.94806091 179.9139073 323.94806091 176.5 318 C175.675 317.34 174.85 316.68 174 316 C173.67 315.34 173.34 314.68 173 314 C171.13507598 313.61004898 171.13507598 313.61004898 169 313.5 C166.8125 313.34375 166.8125 313.34375 165 313 C164.67 312.34 164.34 311.68 164 311 C164.99 311 165.98 311 167 311 C166.70996094 310.4225 166.41992188 309.845 166.12109375 309.25 C161.28389513 299.54189406 156.79278598 289.06612853 158 278 C159.375 276 159.375 276 161 275 C161.66 275 162.32 275 163 275 C163.12375 274.05125 163.2475 273.1025 163.375 272.125 C164 269 164 269 166 267 C167.32 267 168.64 267 170 267 C169.83113281 266.30003906 169.66226563 265.60007812 169.48828125 264.87890625 C168.80167725 260.83068906 169.13387066 256.92652482 169.35546875 252.83984375 C168.90879798 249.27138602 167.6294912 248.33277818 165 246 C164.63840799 243.17958231 164.99335413 241.03249093 165.5625 238.25 C165.706875 237.5075 165.85125 236.765 166 236 C165.67 235.67 165.34 235.34 165 235 C164.84213692 233.14825294 164.74892644 231.2909089 164.68359375 229.43359375 C164.62075195 227.7465332 164.62075195 227.7465332 164.55664062 226.02539062 C164.51732422 224.84138672 164.47800781 223.65738281 164.4375 222.4375 C164.39431641 221.24962891 164.35113281 220.06175781 164.30664062 218.83789062 C164.20016454 215.89205216 164.09815159 212.9461257 164 210 C162.865625 209.525625 161.73125 209.05125 160.5625 208.5625 C157 207 157 207 156 206 C155.68438554 203.9046707 155.4471315 201.79727642 155.25 199.6875 C155.07210937 197.96080078 155.07210937 197.96080078 154.890625 196.19921875 C155.01100413 192.67812907 155.60511083 191.49981988 158 189 C156.68 189 155.36 189 154 189 C154 188.01 154 187.02 154 186 C153.01 185.67 152.02 185.34 151 185 C149.8125 181.9375 149.8125 181.9375 149 179 C148.34 179 147.68 179 147 179 C147.254496 177.51793505 147.52911762 176.03931385 147.8125 174.5625 C148.03873047 173.32693359 148.03873047 173.32693359 148.26953125 172.06640625 C148.51058594 171.38449219 148.75164062 170.70257813 149 170 C149.99 169.67 150.98 169.34 152 169 C151.4225 168.319375 150.845 167.63875 150.25 166.9375 C144 158.77777778 144 158.77777778 144 153 C144.99 153 145.98 153 147 153 C144.27294535 149.97279783 141.44141523 148.72521414 137.7421875 147.16015625 C135.48996974 145.66036101 135.5879848 144.55309188 135 142 C134.01 141.67 133.02 141.34 132 141 C127 135.53488372 127 135.53488372 127 133 C123.37802806 131.50859979 119.72433382 130.2125738 116 129 C116 128.01 116 127.02 116 126 C110.01417973 125.49991376 110.01417973 125.49991376 104.5625 127.5 C104.046875 127.995 103.53125 128.49 103 129 C102.34 129 101.68 129 101 129 C100.67 130.65 100.34 132.3 100 134 C99.01 134 98.02 134 97 134 C95.66666667 131.33333333 94.33333333 128.66666667 93 126 C94.32 126 95.64 126 97 126 C98.04963831 121.96366358 98.80030485 118.52501087 96.80078125 114.71484375 C95.71707854 113.22704851 94.61777622 111.7505026 93.50390625 110.28515625 C91.13798114 106.69017914 90.66908827 103.2152561 90 99 C89.90203125 99.58007812 89.8040625 100.16015625 89.703125 100.7578125 C88.68120485 106.09646432 87.31626744 109.68885232 84 114 C79.06975779 113.15481562 75.17318933 111.78212622 71 109 C69.8125 105.375 69.8125 105.375 69 102 C68.401875 101.95875 67.80375 101.9175 67.1875 101.875 C65 101 65 101 63.375 98.375 C61.98400764 94.96074602 60.97510801 91.55217917 60 88 C59.67 87.67 59.34 87.34 59 87 C58.8453125 85.4221875 58.8453125 85.4221875 58.6875 83.8125 C57.9319466 79.62261298 56.46048912 77.41293652 54 74 C54 73.34 54 72.68 54 72 C53.319375 71.773125 52.63875 71.54625 51.9375 71.3125 C48.30765199 69.69065302 44.86569894 67.78866402 42 65 C41.64419684 63.67248616 41.30782449 62.33945249 41 61 C40.278125 60.731875 39.55625 60.46375 38.8125 60.1875 C35.30660765 58.70723434 33.83658431 56.72997941 31.4921875 53.80859375 C29.86040996 51.75865294 29.86040996 51.75865294 27.125 49.25 C25 47 25 47 25 44 C24.401875 43.773125 23.80375 43.54625 23.1875 43.3125 C20.40804264 41.64482559 19.59607362 39.79312884 18 37 C17.278125 36.319375 16.55625 35.63875 15.8125 34.9375 C14 33 14 33 14 29 C12.35 29 10.7 29 9 29 C9 28.01 9 27.02 9 26 C10.65 25.67 12.3 25.34 14 25 C13.35460128 22.89569999 12.70866624 20.79156446 12.0625 18.6875 C11.70285156 17.51574219 11.34320313 16.34398437 10.97265625 15.13671875 C10.33627721 13.08446023 9.67946621 11.03839863 9 9 C8.01 9 7.02 9 6 9 C5.0234375 7.2421875 4.046875 5.484375 3.0703125 3.7265625 C1.99102726 1.8387386 1.99102726 1.8387386 0 0 Z " fill="#FEFEFE" transform="translate(254,0)"/>
<path d="M0 0 C4.18020772 3.13515579 4.54956998 3.57739523 5.78125 8.26171875 C6.06613281 9.29876953 6.35101563 10.33582031 6.64453125 11.40429688 C6.92683594 12.48775391 7.20914062 13.57121094 7.5 14.6875 C9.75734187 23.19633887 12.07578779 30.61368168 17 38 C19.50687911 38.96882828 21.93205474 39.80171622 24.5 40.5625 C31.75150602 42.75150602 31.75150602 42.75150602 34 45 C34.48008455 47.01577668 34.93451736 49.03770079 35.375 51.0625 C37.44973719 58.29216113 41.0503243 61.04683756 47.3203125 64.90234375 C50.47676134 67.37320822 51.1136079 69.15349603 52 73 C52.72445312 72.72285156 53.44890625 72.44570313 54.1953125 72.16015625 C65.51523416 67.91895893 65.51523416 67.91895893 69 68 C71.32439214 69.46012624 73.01451989 71.06179323 75 73 C74.66484375 73.51691406 74.3296875 74.03382813 73.984375 74.56640625 C72.65071058 77.86352106 72.96358949 80.4063599 73.25 83.9375 C73.33765625 85.14277344 73.4253125 86.34804688 73.515625 87.58984375 C73.96473423 90.75171759 74.8210257 93.06705983 76 96 C76.4375 98.61328125 76.4375 98.61328125 76 101 C73.9375 102.66796875 73.9375 102.66796875 71 104.1875 C69.91976562 104.77402344 68.83953125 105.36054687 67.7265625 105.96484375 C67.13262695 106.28437012 66.53869141 106.60389648 65.92675781 106.93310547 C62.33769723 108.92045908 58.85976987 111.08661762 55.375 113.25 C54.67632812 113.67434326 53.97765625 114.09868652 53.2578125 114.53588867 C50.10635525 116.48887713 48.08337175 117.87494237 46 121 C45.90314912 123.16490195 45.87020562 125.33293803 45.875 127.5 C45.5110338 134.66047784 43.26883091 138.48026416 38.71484375 143.890625 C36.78973034 145.80556549 36.78973034 145.80556549 37 148 C37.61488281 148.19851563 38.22976562 148.39703125 38.86328125 148.6015625 C41.72461398 149.79720712 43.71021025 150.88634792 46 153 C47.20040879 156.52808317 47.75747427 159.92422706 48.31640625 163.60546875 C49.23677315 168.17574783 51.08179101 170.4508269 54 174 C54 174.99 54 175.98 54 177 C52.57300781 177.85464844 52.57300781 177.85464844 51.1171875 178.7265625 C47.09074243 181.66314274 46.98188691 183.55140063 46.125 188.375 C45.07667457 193.39310488 44.04440524 196.81087163 39.75 199.9375 C37.609375 201.21484375 37.609375 201.21484375 36 202 C36.38263407 208.12214519 40.85217942 212.49753927 44.6796875 216.95703125 C46.25398032 219.39299322 46.34602077 220.75397902 46.25 223.625 C46.23453125 224.40101563 46.2190625 225.17703125 46.203125 225.9765625 C46 228 46 228 45 230 C44.5928872 235.29246637 45.0221635 238.57836399 48 243 C53.60931397 249.02482819 53.60931397 249.02482819 61 252 C61.78375 252.13664063 62.5675 252.27328125 63.375 252.4140625 C72.59295934 253.15479138 77.20666008 248.67923218 84 243 C85.79854202 241.72999888 87.61014324 240.47817895 89.4375 239.25 C94.01988333 236.06799301 97.7520688 232.81151303 100.9375 228.1875 C103 226 103 226 106.12890625 225.86328125 C107.07636719 225.90839844 108.02382812 225.95351563 109 226 C109.50789063 226.89460937 110.01578125 227.78921875 110.5390625 228.7109375 C111.9722035 231.23426056 113.41912493 233.74919235 114.87109375 236.26171875 C116.10964552 238.41226054 117.28326766 240.55633454 118.41015625 242.76953125 C122.91290397 251.29308121 130.52360699 257.30804965 138.43359375 262.640625 C140.375 264 140.375 264 143 267 C143.56858793 270.83964085 142.8303354 274.23853528 142 278 C141.73316406 279.22332031 141.46632812 280.44664062 141.19140625 281.70703125 C133.59196032 314.61205953 133.59196032 314.61205953 126 326 C126.11554137 329.46624095 127.94297983 331.29568471 130.34838867 333.64453125 C134.2976313 336.88565395 139.06852456 338.99502905 143.58203125 341.33789062 C144.75185547 341.96147461 144.75185547 341.96147461 145.9453125 342.59765625 C146.65187988 342.96383057 147.35844727 343.33000488 148.08642578 343.70727539 C150.33366577 345.22540957 151.5797173 346.69538518 153 349 C153.58520598 354.26685382 152.76674822 357.51595978 150 362 C149.13117188 362.88171875 148.26234375 363.7634375 147.3671875 364.671875 C145.06493426 367.4138987 144.99663881 368.05031757 144.73828125 371.91796875 C144.89216641 373.34569026 145.08531043 374.76959511 145.3125 376.1875 C145.42295654 376.93854004 145.53341309 377.68958008 145.6472168 378.46337891 C147.8050109 391.24553111 154.50579118 398.09762366 164.36914062 405.73632812 C166.77515909 407.60063225 169.13299358 409.5240517 171.5 411.4375 C173.8471053 413.29830438 176.18775889 415.13737082 178.60546875 416.90625 C181.17250485 419.15083621 182.35793806 421.00099345 183.8125 424.0625 C184.23144531 424.91972656 184.65039062 425.77695312 185.08203125 426.66015625 C186 429 186 429 186 432 C189.96 432.33 193.92 432.66 198 433 C198.07516846 434.27846802 198.07516846 434.27846802 198.15185547 435.58276367 C198.3427319 438.76079139 198.5411582 441.93823421 198.74462891 445.11547852 C198.83096803 446.48768853 198.91434206 447.86008859 198.99462891 449.23266602 C199.11090898 451.21158067 199.23892682 453.18979447 199.3671875 455.16796875 C199.44050293 456.35672607 199.51381836 457.5454834 199.58935547 458.77026367 C199.9833544 461.86908168 200.81181821 464.13965199 202 467 C201.98341425 469.66754213 201.87772175 472.17155769 201.625 474.8125 C201.56828125 475.50537109 201.5115625 476.19824219 201.453125 476.91210938 C201.31269396 478.60898446 201.15780593 480.30465248 201 482 C204.19665169 482.95683724 204.19665169 482.95683724 208 483 C210.42638988 481.38341021 212.27919196 479.90204788 214.375 477.9375 C219.53082917 473.5093365 224.45351623 470.50862499 230.875 468.25 C231.56384277 467.99855225 232.25268555 467.74710449 232.96240234 467.48803711 C241.07094768 464.85183335 249.26410664 466.80379756 257 470 C262.35067727 472.98714967 267.46979298 476.30676695 272.5625 479.71484375 C276.94244335 482.02414081 281.19274017 481.77937864 286 481 C288.55890235 479.89403373 290.67406633 478.54802648 292.96875 476.96484375 C295.48583179 475.33328171 297.91089939 474.0095354 300.59375 472.69140625 C301.81856079 472.07241455 301.81856079 472.07241455 303.06811523 471.44091797 C304.70671341 470.6175292 306.35728394 469.81746944 308.01977539 469.04345703 C310.32067473 467.85326077 312.1485494 466.81613913 314 465 C314.72165 462.61326819 314.88954377 460.62236224 314.8581543 458.13427734 C315.1188534 454.2116757 317.12924133 452.54453609 320 450 C322.28515625 449.47265625 322.28515625 449.47265625 325 450 C327.32039334 451.76133091 329.22962173 453.85093213 331.1875 456 C333.09119314 458.04411065 335.01621648 460.03086776 337 462 C337.66 462 338.32 462 339 462 C339.17015625 461.28714844 339.3403125 460.57429688 339.515625 459.83984375 C341.73542111 451.06692616 341.73542111 451.06692616 344.125 447.5 C346.67005553 442.74922967 346.80767862 438.31768602 347 433 C353.45892714 432.59631705 358.06108578 433.4084738 364 436 C364.66 434.68 365.32 433.36 366 432 C369.33265038 431.82378882 372.66408619 431.71853029 376 431.625 C376.93457031 431.57472656 377.86914062 431.52445313 378.83203125 431.47265625 C385.0514328 431.34217929 388.62365484 432.36413571 393.49023438 436.2734375 C396.09461456 439.25179725 396.46684968 442.13466016 397 446 C401.95 445.67 406.9 445.34 412 445 C416.36174636 451.54261954 416.36174636 451.54261954 417.8125 455.4375 C419.94482534 460.40181992 422.98945876 463.46971265 427 467 C427.59296875 467.57105469 428.1859375 468.14210938 428.796875 468.73046875 C432.40062432 472.08705827 434.88631942 473.75055217 440 474 C439.67 471.03 439.34 468.06 439 465 C440.75094232 465.06037732 442.50091527 465.14926737 444.25 465.25 C445.22453125 465.29640625 446.1990625 465.3428125 447.203125 465.390625 C450.77650028 466.16918163 451.83707025 467.05523201 454 470 C455.10022216 472.62999301 455.87328172 475.31526642 456.625 478.0625 C458.2150782 483.77754617 458.2150782 483.77754617 461 489 C308.87 489 156.74 489 0 489 C0 327.63 0 166.26 0 0 Z " fill="#FDFDFD" transform="translate(6,409)"/>
<path d="M0 0 C81.18 0 162.36 0 246 0 C242.74551903 2.16965398 239.4746415 3.36143262 235.8125 4.625 C235.15830078 4.85445313 234.50410156 5.08390625 233.83007812 5.3203125 C232.22135865 5.88395144 230.61085023 6.44247984 229 7 C228.93643311 7.69971924 228.87286621 8.39943848 228.80737305 9.12036133 C226.45840062 32.65081926 226.45840062 32.65081926 219.75 38.8125 C216.10310534 41.76566569 212.47347497 43.96242865 208.18359375 45.80859375 C202.37748974 48.97650381 195.1712916 54.41230432 193.0703125 60.84765625 C192.85667659 62.70003592 192.67176863 64.55595327 192.515625 66.4140625 C191.8796607 69.6035198 190.7876764 70.7213302 188.5 73 C183.48974475 78.01025525 180.68415389 83.88140511 177.58984375 90.17382812 C177.19539062 90.96595703 176.8009375 91.75808594 176.39453125 92.57421875 C176.05268799 93.28151123 175.71084473 93.98880371 175.35864258 94.7175293 C172.71658915 99.15608411 170.54476353 102.39244829 165.63427734 104.32373047 C163.75409912 104.7164917 163.75409912 104.7164917 161.8359375 105.1171875 C161.16204987 105.26407013 160.48816223 105.41095276 159.79385376 105.56228638 C157.65821763 106.02192728 155.51745955 106.44843823 153.375 106.875 C151.92924285 107.18281472 150.48392316 107.49269179 149.0390625 107.8046875 C138.71104357 110 138.71104357 110 135 110 C134.83194926 114.15421441 134.91880084 117.97007584 136 122 C138.19012387 124.03038355 140.37379396 125.2445581 142.99609375 126.65625 C143.65738281 127.0996875 144.31867188 127.543125 145 128 C145.39460023 130.32375692 145.72230092 132.6593935 146 135 C147.65548447 136.91309949 147.65548447 136.91309949 149.734375 138.84765625 C154.9929224 144.5652878 156.60191458 150.77490274 158.6875 158.125 C162.09315755 169.48417351 166.51480929 179.17754821 172.73828125 189.33789062 C176.61861437 195.82532256 177.96808254 200.29934158 178.3515625 207.859375 C179.34338206 212.66312758 182.18021569 215.83517346 185.4597168 219.38916016 C188.3058098 222.56290247 189.99279166 225.399419 190.27368164 229.72460938 C189.23888657 238.32790117 182.94858687 247.92441162 177 254 C171.37599537 257.1513819 165.30164933 257.19076638 159 257 C157.68 257 156.36 257 155 257 C154.71769531 257.57621094 154.43539062 258.15242188 154.14453125 258.74609375 C152.15843356 262.65728271 150.37791082 266.10910775 147 269 C143.85546875 269.90234375 143.85546875 269.90234375 140.375 270.5 C136.00246044 271.18628272 136.00246044 271.18628272 132.375 273.45703125 C130.66190051 276.63563381 130.0524842 279.60805378 129.57421875 283.1796875 C127.90818254 294.60030211 122.42876318 299.76160423 114 307 C110.98695896 303.40517258 109.26772642 300.54268633 108 296 C107.2575 295.87625 106.515 295.7525 105.75 295.625 C103 295 103 295 101.125 293.875 C96.63317097 292.02542334 91.81948268 293.89113135 87.375 295.3125 C77.10376149 299.61827834 69.53392033 309.07747684 63.0390625 317.76953125 C60.68001226 320.3500249 58.28563213 321.78194435 55.25 323.5 C48.51717853 327.42980727 47.28588673 332.28258996 45.328125 339.46484375 C43.41296021 343.12055536 40.59386454 345.02146168 37.3125 347.4375 C36.04200259 348.39976735 34.77246057 349.36329752 33.50390625 350.328125 C32.89691895 350.78638672 32.28993164 351.24464844 31.66455078 351.71679688 C29.61904193 353.29368079 27.67730048 354.96888811 25.75 356.6875 C23 359 23 359 21 359 C21.13710768 364.90650354 21.13710768 364.90650354 23.625 370 C25.6485958 372.94341207 25.04889591 375.2552129 24.484375 378.6875 C23.71113238 382.37910993 23.12498095 384.81252858 21 388 C18.671875 388.79296875 18.671875 388.79296875 15.875 389.5 C9.83843046 391.26601768 7.81328639 394.5086671 4.875 399.75 C4.13675118 401.11631125 3.40450638 402.48589207 2.6796875 403.859375 C2.12539062 404.89578125 1.57109375 405.9321875 1 407 C0.67 407 0.34 407 0 407 C0 272.69 0 138.38 0 0 Z " fill="#FDFDFD" transform="translate(6,0)"/>
<path d="M0 0 C0.33 0 0.66 0 1 0 C1 23.76 1 47.52 1 72 C-82.49 72 -165.98 72 -252 72 C-252 69.36 -252 66.72 -252 64 C-252.46165688 61.68502072 -252.46165688 61.68502072 -253.27734375 59.75390625 C-253.54353516 59.06232422 -253.80972656 58.37074219 -254.08398438 57.65820312 C-254.36564453 56.96662109 -254.64730469 56.27503906 -254.9375 55.5625 C-255.35418945 54.48452148 -255.35418945 54.48452148 -255.77929688 53.38476562 C-256.95845306 49.93478753 -256.95845306 49.93478753 -259 47 C-259.07179964 45.48071962 -259.08392007 43.95832518 -259.0625 42.4375 C-259.05347656 41.61121094 -259.04445313 40.78492188 -259.03515625 39.93359375 C-259.02355469 39.29550781 -259.01195312 38.65742187 -259 38 C-258.34 38 -257.68 38 -257 38 C-257 37.34 -257 36.68 -257 36 C-254.25 35.6875 -254.25 35.6875 -251 36 C-248.21253895 38.62817756 -246.86946797 41.22844741 -245.5625 44.75 C-245.046875 45.8225 -244.53125 46.895 -244 48 C-241.42267086 49.05167527 -241.42267086 49.05167527 -239 49 C-238.67 46.69 -238.34 44.38 -238 42 C-234.42355152 40.7619986 -231.66305234 41.25073929 -228 42 C-228 41.34 -228 40.68 -228 40 C-225.83125748 40.50603992 -224.00032373 40.99983813 -222 42 C-221.37147066 44.33247815 -220.84464754 46.69291467 -220.375 49.0625 C-219.98441406 50.99802734 -219.98441406 50.99802734 -219.5859375 52.97265625 C-219.39257812 53.97167969 -219.19921875 54.97070312 -219 56 C-217.84371094 55.94779297 -217.84371094 55.94779297 -216.6640625 55.89453125 C-215.66117187 55.86746094 -214.65828125 55.84039063 -213.625 55.8125 C-212.12839844 55.76029297 -212.12839844 55.76029297 -210.6015625 55.70703125 C-209.74304688 55.80371094 -208.88453125 55.90039062 -208 56 C-207.34 56.99 -206.68 57.98 -206 59 C-200.466549 56.26526451 -195.0479396 53.32117561 -189.625 50.375 C-188.5009375 49.78332031 -187.376875 49.19164062 -186.21875 48.58203125 C-180.26755997 45.32505609 -175.82341936 42.55112508 -172.24707031 36.69213867 C-170.28667164 34.03209107 -167.97383233 33.16608778 -164.84765625 32.32421875 C-158.65680471 31.61936185 -149.62824656 31.18587672 -144 34 C-135.57395859 35.18491207 -126.41913606 36.44148189 -118.3125 33.4375 C-114.06227263 31.89466005 -111.45814432 31.69330253 -107 33 C-105.15137849 33.9928798 -103.31915512 35.01660973 -101.5 36.0625 C-96.96360056 38.61345633 -94.28701413 39.91155416 -89 39 C-86.87060204 38.32624518 -84.746032 37.63714597 -82.625 36.9375 C-77.1444969 35.18599901 -72.53479556 33.9218009 -67 36 C-65.0234375 37.453125 -65.0234375 37.453125 -63.0625 39.125 C-59.92225887 41.7231757 -58.14516629 42.4090226 -54.0625 42.0625 C-49.92143346 41.3691417 -46.07547851 40.1344548 -42.203125 38.5234375 C-37.12393747 37.31668018 -31.95498849 39.5346465 -27.125 41.0625 C-25.97257813 41.42472656 -24.82015625 41.78695312 -23.6328125 42.16015625 C-22.76398438 42.43730469 -21.89515625 42.71445312 -21 43 C-21.02356567 42.10075806 -21.02356567 42.10075806 -21.04760742 41.18334961 C-21.1104413 38.43483123 -21.14914235 35.68646458 -21.1875 32.9375 C-21.21263672 31.99455078 -21.23777344 31.05160156 -21.26367188 30.08007812 C-21.35173186 21.65567305 -19.48963519 15.93244127 -13.81640625 9.5625 C-11.15651854 7.27442455 -8.23293204 6.16984421 -4.98828125 4.91015625 C-2.50749159 3.7745492 -1.34277912 2.34986345 0 0 Z " fill="#FBFBFB" transform="translate(725,826)"/>
<path d="M0 0 C1.98 0 3.96 0 6 0 C6.20872755 56.85089522 6.39016631 113.70186668 6.5528124 170.55291206 C6.56246169 173.92411625 6.57215139 177.29532033 6.58184195 180.66652441 C6.86446597 279.23228818 7.07012011 377.79808513 6.56734159 676.98983232 C6.56086713 679.76152574 6.55441596 682.53321921 6.54796402 685.30491268 C6.38288667 756.20332174 6.2012048 827.10168395 6 898 C7.33414582 897.99625647 7.33414582 897.99625647 8.69524407 897.9924373 C78.86130364 897.79584681 149.02739986 897.61468706 219.19353479 897.4471876 C221.8929596 897.4407434 224.59238439 897.43428738 227.29180914 897.42782003 C426.50605859 896.95058945 426.50605859 896.95058945 630.1494453 897.42782003 C632.19753359 897.43754766 634.24562213 897.4472206 636.29371071 897.45688772 C668.52931228 897.60938196 700.76475401 897.7846646 733 898 C733 898.66 733 899.32 733 900 C491.11 900 249.22 900 0 900 C0 603 0 306 0 0 Z " fill="#0E0E0E" transform="translate(0,0)"/>
</svg>
