<?xml version="1.0" encoding="UTF-8"?>
<svg version="1.1" xmlns="http://www.w3.org/2000/svg" width="552" height="641">
<path d="M0 0 C1.44921875 1.609375 1.44921875 1.609375 2.6875 3.75 C5.15502209 7.73454461 7.81216687 11.49000566 10.6875 15.1875 C11.11248779 15.73639893 11.53747559 16.28529785 11.9753418 16.85083008 C14.21320817 19.73140404 16.46993409 22.59650851 18.73828125 25.453125 C21.51527643 28.95102832 24.26665852 32.46789159 27 36 C27.4547168 36.58426758 27.90943359 37.16853516 28.37792969 37.77050781 C42 55.4294694 42 55.4294694 42 65 C42.7425 65.165 43.485 65.33 44.25 65.5 C48.2407036 67.67674742 49.30013399 70.916523 51 75 C53.8605891 73.64062915 55.85927699 72.35479531 58 70 C64.23183739 71.91748843 64.23183739 71.91748843 66.35546875 74.91015625 C69 80.17057762 69 80.17057762 69 83 C67.35 83 65.7 83 64 83 C64 83.99 64 84.98 64 86 C65.0415625 85.80019531 66.083125 85.60039063 67.15625 85.39453125 C76.42273396 84.01506524 82.24502997 84.69483248 89.9375 90.3125 C93.13482777 92.71694206 96.17008247 95.17008247 99 98 C99.08984375 100.20703125 99.08984375 100.20703125 98.9375 102.8125 C98.81670059 107.23121537 99.58634097 109.26979968 102 113 C101.1875 115.125 101.1875 115.125 100 117 C100 117.99 100 118.98 100 120 C101.010625 120.70125 102.02125 121.4025 103.0625 122.125 C104.75 123.4140625 104.75 123.4140625 106 125 C106 127.38665527 105.55942429 129.51585173 105.10546875 131.85546875 C104.73898271 134.33937142 104.73898271 134.33937142 107.375 136.8125 C108.24125 137.534375 109.1075 138.25625 110 139 C112.05319921 144.4046761 111.38757108 150.86020717 111.55761719 156.58911133 C111.6244624 158.79476113 111.70241189 160.99982844 111.78125 163.20507812 C111.82619837 164.62237451 111.8704902 166.03969189 111.9140625 167.45703125 C111.9752124 169.3747937 111.9752124 169.3747937 112.03759766 171.33129883 C112.00015887 174.98449805 111.57367679 178.396416 111 182 C110.3156786 193.00523436 111.0366378 201.34721345 116.75 210.9375 C118.89712248 216.19795007 119.02134697 222.30300567 117 227.640625 C116.67 228.41921875 116.34 229.1978125 116 230 C115.22981831 237.85585329 117.29863272 245.12024027 122.0625 251.375 C122.56910156 251.98085938 123.07570313 252.58671875 123.59765625 253.2109375 C125.06791798 255.08664745 126.11842699 256.78499244 127 259 C126.690625 260.423125 126.690625 260.423125 126.375 261.875 C125.86507011 266.12441574 127.65928594 267.52439427 130 271 C130.49680479 275.71964549 129.76622947 278.69481568 128 283 C127.58821313 287.78204106 128.45056172 290.34843544 130.875 294.4375 C134.0639192 300.43356639 134.98522331 305.90571852 135.578125 312.5546875 C136.00491529 316.04014156 136.52722923 318.80899667 138 322 C138.81339844 322.47179687 139.62679688 322.94359375 140.46484375 323.4296875 C143.96977944 325.60069543 144.51939961 328.34660695 145.5625 332.125 C146.86929682 336.46615317 148.18444587 340.66970455 150.1875 344.75 C152.19763096 348.95445719 152.79396598 353.10637264 153.3125 357.71484375 C153.75008273 360.12954677 153.75008273 360.12954677 155.76953125 360.98828125 C156.50558594 361.32214844 157.24164063 361.65601563 158 362 C160.32421875 364.390625 160.32421875 364.390625 162.6875 367.25 C163.47511719 368.18328125 164.26273437 369.1165625 165.07421875 370.078125 C169.11892243 376.2149168 168.02151033 383.16109727 167.83984375 390.24609375 C168.00779564 394.18272212 168.84628761 397.24138994 170 401 C170.31796128 402.53044511 170.61895448 404.06447025 170.90698242 405.60083008 C171.92988729 410.81076501 173.22041908 415.9161111 174.609375 421.0390625 C174.8586676 421.96359222 175.10796021 422.88812195 175.36480713 423.84066772 C175.89082257 425.78570395 176.41865909 427.73024853 176.94824219 429.67431641 C177.74173554 432.59458458 178.52342912 435.51784478 179.3046875 438.44140625 C186.10412423 466.51104197 186.10412423 466.51104197 205 487 C206.93700473 487.96091618 208.895144 488.88079493 210.875 489.75 C211.84179688 490.17796875 212.80859375 490.6059375 213.8046875 491.046875 C214.52914063 491.36140625 215.25359375 491.6759375 216 492 C216 493.32 216 494.64 216 496 C214.35 496 212.7 496 211 496 C211.78793587 498.41794061 212.58019174 500.8343187 213.375 503.25 C213.59671875 503.93191406 213.8184375 504.61382813 214.046875 505.31640625 C215.15573613 508.6756032 216.28878245 511.89741865 218 515 C215.11658466 519.21422242 212.95696581 520.76075855 208 522 C208.33 523.65 208.66 525.3 209 527 C210.32 527 211.64 527 213 527 C213.33 526.34 213.66 525.68 214 525 C214.99 525.33 215.98 525.66 217 526 C217.33 527.65 217.66 529.3 218 531 C218.99 531 219.98 531 221 531 C222.485 524.07 222.485 524.07 224 517 C226.475 519.475 226.475 519.475 229 522 C233.32319547 525.5980143 237.09596597 527.17810432 242.6875 527.8125 C247.63657437 528.46788485 250.59263341 529.79051573 254.6875 532.625 C263.50263746 538.43545284 273.39443926 540.92785753 283.43408203 543.93066406 C288.5316708 545.45931248 293.61810628 547.02163647 298.69506836 548.61743164 C301.20127988 549.40459272 303.71117598 550.18013164 306.22485352 550.94311523 C307.35721436 551.29833252 308.4895752 551.6535498 309.65625 552.01953125 C310.66494141 552.32995361 311.67363281 552.64037598 312.71289062 552.96020508 C313.46763672 553.3033374 314.22238281 553.64646973 315 554 C316 557 316 557 315.3046875 559.08203125 C313.74373411 561.3767262 312.70400163 561.76781829 310.125 562.6875 C305.81858997 564.71174718 304.34091741 566.94593821 302.67578125 571.33984375 C301.44989985 576.16542315 301.16790671 581.03835684 301 586 C294.32033066 585.08318264 294.32033066 585.08318264 291.578125 584.37109375 C288.53832268 583.93354645 286.8098452 584.47004005 283.9375 585.5 C280.50855641 586.72575488 278.4623732 587.3161505 275 586 C274.38125 585.505 273.7625 585.01 273.125 584.5 C270.317977 582.518572 268.43269538 582.19804012 265 582 C262.96859878 582.41372734 260.99512263 582.95596828 258.99609375 583.50390625 C253.66141616 584.82974589 249.89628679 584.06427627 245 581.875 C240.13394255 579.78120916 238.07519776 580.36561428 233 582 C227.40943623 581.92278227 221.84744754 581.20051327 216.29296875 580.59765625 C207.18538096 579.61637057 207.18538096 579.61637057 199 583 C198.70391846 583.63824707 198.40783691 584.27649414 198.1027832 584.93408203 C195.91967759 589.02384066 191.1340938 590.71674997 187.1875 592.875 C186.28451172 593.39835938 185.38152344 593.92171875 184.45117188 594.4609375 C183.57396484 594.945625 182.69675781 595.4303125 181.79296875 595.9296875 C180.9939917 596.37554199 180.19501465 596.82139648 179.37182617 597.28076172 C176.23496905 598.23198983 174.88308626 597.41769761 172 596 C170.34080104 595.63128912 168.6752357 595.28718326 167 595 C166.01 592.03 165.02 589.06 164 586 C161.36 586 158.72 586 156 586 C155.34 587.65 154.68 589.3 154 591 C152.35 590.67 150.7 590.34 149 590 C148.34 587.69 147.68 585.38 147 583 C145.35 583 143.7 583 142 583 C141.47990739 588.85104191 142.93271616 592.96981779 145.22265625 598.3515625 C146.09812789 601.33432517 145.8479376 603.04555076 145 606 C144.01 606.33 143.02 606.66 142 607 C138.57203192 604.0111518 137.40227804 601.73719542 136.25 597.375 C135.0396821 593.37528917 135.0396821 593.37528917 131.96875 590.83984375 C129.51861106 590.19904245 129.51861106 590.19904245 126 590 C126.33 591.98 126.66 593.96 127 596 C121.68608479 595.59601814 119.4163922 594.05135142 115.75 590.25 C114.89921875 589.38890625 114.0484375 588.5278125 113.171875 587.640625 C110.29089084 584.1378457 109 581.54230916 109 577 C105.04 577 101.08 577 97 577 C96.5978125 575.576875 96.5978125 575.576875 96.1875 574.125 C95.25013412 570.74732727 95.25013412 570.74732727 92 569 C88.6425642 568.46238965 88.6425642 568.46238965 84.9375 568.25 C83.68839844 568.15203125 82.43929687 568.0540625 81.15234375 567.953125 C77.90019593 567.63546061 77.90019593 567.63546061 76 570 C73.3984375 569.9765625 73.3984375 569.9765625 70.375 569.625 C69.37210938 569.51414062 68.36921875 569.40328125 67.3359375 569.2890625 C66.56507813 569.19367187 65.79421875 569.09828125 65 569 C64.7525 570.258125 64.505 571.51625 64.25 572.8125 C63.02166198 578.40232809 61.05312625 583.66785174 59 589 C58.52949219 588.59007812 58.05898438 588.18015625 57.57421875 587.7578125 C56.64029297 586.94957031 56.64029297 586.94957031 55.6875 586.125 C55.07261719 585.59132813 54.45773437 585.05765625 53.82421875 584.5078125 C51.86501788 582.8359553 51.86501788 582.8359553 49 581 C46.84725052 581.30840599 46.84725052 581.30840599 45 582 C44.855625 583.19625 44.71125 584.3925 44.5625 585.625 C43.59886822 589.44583371 42.25015176 590.99207121 39 593.1875 C37.34872175 594.1518465 35.68119838 595.08881614 34 596 C32.77990234 596.73283203 32.77990234 596.73283203 31.53515625 597.48046875 C25.70583683 600.76809439 20.68022523 602.15044232 14 601 C11.00390625 599.57421875 11.00390625 599.57421875 8.5625 597.6875 C3.26717724 594.05578495 -1.45617167 591.26529034 -8 591 C-15.94148733 592.69089084 -22.15450735 596.27977555 -28 601.83984375 C-28.66 602.22269531 -29.32 602.60554687 -30 603 C-32.75 602.19140625 -32.75 602.19140625 -35 601 C-34.95875 599.7625 -34.9175 598.525 -34.875 597.25 C-34.86300236 593.4227521 -35.30276339 589.88614958 -36 586.125 C-37.0516811 580.36297254 -37.20700682 574.84219239 -37 569 C-38.0725 568.95875 -39.145 568.9175 -40.25 568.875 C-44 568 -44 568 -46.25 565.25 C-47.23703833 563.41692881 -48.20647785 561.57327912 -49.11328125 559.69921875 C-52.27018099 555.18282596 -56.76103277 552.22570493 -61.10742188 548.90429688 C-67.82608924 543.6426899 -71.65400191 538.4863538 -73 530 C-73.375 526.25 -73.375 526.25 -73 523 C-71.66666667 521.66666667 -70.33333333 520.33333333 -69 519 C-68.03989184 516.28345867 -67.68453296 513.86896436 -68 511 C-70.19526242 508.33432421 -72.67188092 507.16854462 -75.71484375 505.60546875 C-76.69582031 505.09628906 -77.67679687 504.58710937 -78.6875 504.0625 C-79.64011719 503.59972656 -80.59273438 503.13695312 -81.57421875 502.66015625 C-84.52859243 500.63824189 -85.33426894 499.51301162 -86 496 C-85.05859375 493.22265625 -85.05859375 493.22265625 -83.4375 490.0625 C-80.41196871 483.71160999 -78.62000645 477.2874822 -77.0625 470.4375 C-76.83941162 469.48560791 -76.61632324 468.53371582 -76.38647461 467.55297852 C-75.01233792 461.28306 -75.01233792 461.28306 -76 455 C-78.44375732 452.74251167 -78.44375732 452.74251167 -81.5 450.625 C-88.80267901 445.05906756 -92.76840666 438.01438133 -97 430 C-101.92005463 430.42171897 -103.67746393 432.50467231 -107 436 C-109.28367376 437.85085609 -111.66439177 439.55123404 -114.0625 441.25 C-114.67416016 441.69601562 -115.28582031 442.14203125 -115.91601562 442.6015625 C-120.61994312 445.95787833 -123.07816462 447.25204398 -128.8125 446.5 C-133.78847416 445.11157275 -137.06629147 442.19588546 -140 438 C-141.06378559 434.09945283 -141.01205751 431.14951311 -140.6875 427.125 C-140.55100326 421.77012775 -143.84213466 418.06011258 -147 414 C-145.85378301 411.57511429 -144.83136374 409.80416434 -143.0625 407.75 C-140.85068735 404.80091647 -139.92339792 402.26932311 -138.90625 398.76953125 C-137.71661597 396.44666824 -136.37426573 395.94873323 -134 395 C-134.33773437 394.34773438 -134.67546875 393.69546875 -135.0234375 393.0234375 C-138.84355903 385.53776583 -138.84355903 385.53776583 -140 381.5625 C-141.2838884 378.27253596 -142.87237283 377.48150761 -146 376 C-145.38364677 373.09800355 -144.44963931 370.82950524 -143 368.25 C-141.4596038 365.31173536 -140.76606878 363.05645049 -140.5625 359.75 C-140 356 -140 356 -137.953125 354.0625 C-134.45485502 351.61926382 -130.86496328 349.41072962 -127.1875 347.25 C-126.49462891 346.83878906 -125.80175781 346.42757813 -125.08789062 346.00390625 C-123.3939331 344.9992142 -121.69724304 343.99913175 -120 343 C-120.144375 342.34773438 -120.28875 341.69546875 -120.4375 341.0234375 C-121.44757243 336.2676798 -122.23845852 331.88839968 -122 327 C-122 326.01 -122 325.02 -122 324 C-126.84492197 322.48596188 -130.2591011 323.63397828 -135 325 C-135.70125 324.113125 -136.4025 323.22625 -137.125 322.3125 C-139.06626487 319.93431226 -140.63134432 318.54196588 -143.1875 316.6875 C-146.90008498 313.1399188 -147.37271548 309.96419991 -148 305 C-148.88751953 304.87044922 -148.88751953 304.87044922 -149.79296875 304.73828125 C-155.32781758 303.75410748 -158.59793314 302.7628936 -162 298 C-163.1565652 295.36320398 -164.11336674 292.72009716 -165.01171875 289.984375 C-165.67813422 287.97195834 -166.41219043 285.98086251 -167.20703125 284.015625 C-167.59246094 283.06171875 -167.97789062 282.1078125 -168.375 281.125 C-168.73335937 280.26132812 -169.09171875 279.39765625 -169.4609375 278.5078125 C-170.37861344 274.23862444 -168.32736776 271.55313862 -166.1875 267.9375 C-164.00989232 265.01328398 -161.90024869 263.17518652 -159 261 C-156.70648166 259.42606002 -156.70648166 259.42606002 -155 257 C-154.91831962 254.30454745 -155.00750225 251.91102907 -155.25 249.25 C-155.56749955 241.95158075 -155.56749955 241.95158075 -153.5859375 238.62890625 C-151.625 236.8125 -151.625 236.8125 -149.37890625 235.01953125 C-146.56033914 232.62675753 -144.70568516 230.0107524 -142.5625 227 C-136.15106048 218.27888953 -128.04168597 211.18338118 -120 204 C-119.3611084 203.41589355 -118.7222168 202.83178711 -118.06396484 202.22998047 C-117.45891113 201.68873535 -116.85385742 201.14749023 -116.23046875 200.58984375 C-115.70219482 200.11281006 -115.1739209 199.63577637 -114.62963867 199.14428711 C-110.49180144 196.23881249 -104.84971954 196.46114227 -100 197 C-97.75 198.5 -97.75 198.5 -96 200 C-92.61853719 200.60692922 -91.37098628 200.24425184 -88.484375 198.34375 C-85.64675798 195.66675281 -84.88791853 193.73791272 -83.6875 190.0625 C-81.67575178 184.88585194 -80.09380044 182.60940022 -75.1640625 180.14453125 C-72.67618106 178.82873836 -70.76367969 177.20005705 -68.625 175.375 C-65.43908864 172.81969072 -62.89679976 171.48224588 -58.9375 170.5 C-52.09557213 168.76287501 -47.77138569 164.68391772 -43.9375 158.875 C-42.86767741 155.59421072 -43.06143229 154.27257207 -44 151 C-45.28862676 148.9235684 -45.28862676 148.9235684 -46.875 146.9375 C-49.3254694 143.4318873 -50.48741341 140.62552573 -51.3125 136.4375 C-52.45373778 131.05737902 -54.4997465 127.07693992 -57.3125 122.4375 C-61.39080694 115.68816599 -63.90873397 108.98528169 -65.97192383 101.38256836 C-67.27678876 96.70204219 -68.73305971 93.71991941 -72 90 C-72.2165625 88.6696875 -72.2165625 88.6696875 -72.4375 87.3125 C-72.623125 86.549375 -72.80875 85.78625 -73 85 C-73.804375 84.71125 -74.60875 84.4225 -75.4375 84.125 C-78 83 -78 83 -79.4375 79.625 C-80 76 -80 76 -79.25 73.625 C-78 72 -78 72 -76 71 C-72.49492969 70.76010926 -68.99084632 70.61712556 -65.48046875 70.4765625 C-60.18574919 69.75158406 -57.93379181 68.12469378 -54.53515625 64.03125 C-53.6992934 62.86240655 -52.87549902 61.68486047 -52.0625 60.5 C-51.6286499 59.87996094 -51.1947998 59.25992188 -50.74780273 58.62109375 C-46.41578301 52.33171463 -42.60389379 45.79102169 -39.625 38.75 C-36.58523501 33.60578232 -31.77400443 30.14788522 -26.8125 26.9375 C-22.0339046 23.64557873 -19.52789612 21.31627887 -18.234375 15.640625 C-18.01265625 14.39796875 -17.7909375 13.1553125 -17.5625 11.875 C-16.34264313 5.3277456 -16.34264313 5.3277456 -13.125 2.25 C-12.09375 1.8375 -11.0625 1.425 -10 1 C-9.154375 0.566875 -8.30875 0.13375 -7.4375 -0.3125 C-4.47825596 -1.14715857 -2.92587762 -0.90411436 0 0 Z " fill="#08090B" transform="translate(205,17)"/>
<path d="M0 0 C1.8161982 0.42188459 3.62794073 0.86299165 5.4375 1.3125 C6.44683594 1.55613281 7.45617187 1.79976562 8.49609375 2.05078125 C9.32238281 2.36402344 10.14867187 2.67726563 11 3 C12 6 12 6 11.3125 8.0546875 C9.75407195 10.3645005 8.53202983 11.01723695 6 12.125 C3.43279162 13.2670302 2.01800698 13.98199302 0 16 C0.35049575 12.75791433 0.56221181 11.38472296 3.0625 9.1875 C3.701875 8.795625 4.34125 8.40375 5 8 C4.649375 7.38125 4.29875 6.7625 3.9375 6.125 C3.628125 5.42375 3.31875 4.7225 3 4 C3.33 3.34 3.66 2.68 4 2 C2.68 2 1.36 2 0 2 C0 1.34 0 0.68 0 0 Z " fill="#353535" transform="translate(509,568)"/>
<path d="M0 0 C3.465 1.485 3.465 1.485 7 3 C7 3.99 7 4.98 7 6 C6.34 5.67 5.68 5.34 5 5 C5 5.66 5 6.32 5 7 C4.071875 6.95875 3.14375 6.9175 2.1875 6.875 C-1.15809719 6.72863661 -1.15809719 6.72863661 -4 9 C-5.32 8.34 -6.64 7.68 -8 7 C-6.72530598 4.45061196 -5.50840774 4.25420387 -3 3 C-1.29078411 1.4587688 -1.29078411 1.4587688 0 0 Z " fill="#333333" transform="translate(263,87)"/>
<path d="M0 0 C0.99 0.33 1.98 0.66 3 1 C2.505 1.4125 2.01 1.825 1.5 2.25 C-0.43386092 4.12202338 -0.43386092 4.12202338 0 8 C-2.375 10.0625 -2.375 10.0625 -5 12 C-5.99 13.485 -5.99 13.485 -7 15 C-7.66 13.35 -8.32 11.7 -9 10 C-7.8758824 8.70756532 -6.75067408 7.41607925 -5.625 6.125 C-4.99851562 5.40570313 -4.37203125 4.68640625 -3.7265625 3.9453125 C-2.52573166 2.5923402 -1.2791655 1.2791655 0 0 Z " fill="#343434" transform="translate(74,231)"/>
<path d="M0 0 C0.99 0.99 1.98 1.98 3 3 C2.67 3.598125 2.34 4.19625 2 4.8125 C0.79212012 7.05386471 0.79212012 7.05386471 1 10 C1.99 10.78375 2.98 11.5675 4 12.375 C7 15 7 15 7.375 17.8125 C7.25125 18.534375 7.1275 19.25625 7 20 C6.54625 19.525625 6.0925 19.05125 5.625 18.5625 C4.06741796 16.90972192 4.06741796 16.90972192 2 16 C2 15.01 2 14.02 2 13 C1.01 13 0.02 13 -1 13 C-2.07310858 9.72814447 -1.89263102 7.57052408 -1.0625 4.25 C-0.86785156 3.45078125 -0.67320312 2.6515625 -0.47265625 1.828125 C-0.31667969 1.22484375 -0.16070312 0.6215625 0 0 Z " fill="#3C3C3C" transform="translate(304,127)"/>
<path d="M0 0 C1.65 0.99 3.3 1.98 5 3 C5.99 2.34 6.98 1.68 8 1 C8.33 3.31 8.66 5.62 9 8 C7.02 8.99 7.02 8.99 5 10 C1.32769295 6.92000054 0.43197635 4.7517398 0 0 Z " fill="#323232" transform="translate(342,614)"/>
<path d="M0 0 C-0.25043116 3.38082062 -1.2814127 4.2814127 -3.75 6.75 C-7.01629806 9.01128327 -8.1690781 9.56337087 -12 9 C-11.06725891 7.87105124 -10.12859878 6.74699124 -9.1875 5.625 C-8.66542969 4.99851563 -8.14335938 4.37203125 -7.60546875 3.7265625 C-5.13443392 1.06914792 -3.67502012 0 0 0 Z " fill="#262626" transform="translate(90,220)"/>
<path d="M0 0 C0.66 0.33 1.32 0.66 2 1 C1.01 1.66 0.02 2.32 -1 3 C-0.67 2.01 -0.34 1.02 0 0 Z M-6 3 C-4.515 3.99 -4.515 3.99 -3 5 C-2.34 4.34 -1.68 3.68 -1 3 C-0.855625 3.804375 -0.71125 4.60875 -0.5625 5.4375 C-0.25864751 7.92103706 -0.25864751 7.92103706 1 9 C1.04092937 11.33297433 1.04241723 13.66705225 1 16 C-1 13 -1 13 -1 11 C-1.804375 10.773125 -2.60875 10.54625 -3.4375 10.3125 C-6 9 -6 9 -6.875 6.4375 C-6.91625 5.633125 -6.9575 4.82875 -7 4 C-6.67 3.67 -6.34 3.34 -6 3 Z " fill="#2E2E2E" transform="translate(133,91)"/>
<path d="M0 0 C-1.2065625 0.556875 -1.2065625 0.556875 -2.4375 1.125 C-6.88421152 3.3323604 -10.91516053 6.1950769 -15 9 C-14.80078125 6.6796875 -14.80078125 6.6796875 -14 4 C-11.85546875 2.3828125 -11.85546875 2.3828125 -9.1875 1.125 C-8.31480469 0.69445312 -7.44210938 0.26390625 -6.54296875 -0.1796875 C-3.81906883 -1.05836489 -2.63555368 -0.99524405 0 0 Z " fill="#373737" transform="translate(204,17)"/>
<path d="M0 0 C0.33 1.32 0.66 2.64 1 4 C0.34 4 -0.32 4 -1 4 C-0.67 5.32 -0.34 6.64 0 8 C-0.66 8 -1.32 8 -2 8 C-2.33 9.65 -2.66 11.3 -3 13 C-3.99 11.68 -4.98 10.36 -6 9 C-4.47291037 5.56404834 -2.40072955 2.88087546 0 0 Z " fill="#3E3E3E" transform="translate(64,422)"/>
<path d="M0 0 C0.99 0.33 1.98 0.66 3 1 C3.33 4.3 3.66 7.6 4 11 C4.99 11.33 5.98 11.66 7 12 C7 12.99 7 13.98 7 15 C6.01 15 5.02 15 4 15 C3.34 15.66 2.68 16.32 2 17 C1.36204531 13.17227184 0.94320615 9.57077935 1 5.6875 C1.27485002 2.17702205 1.27485002 2.17702205 0 0 Z " fill="#434343" transform="translate(63,438)"/>
<path d="M0 0 C2.76276177 0.52268466 5.3260876 1.10869587 8 2 C7.67 3.65 7.34 5.3 7 7 C5.35 6.67 3.7 6.34 2 6 C1.34 4.02 0.68 2.04 0 0 Z " fill="#3A3A3A" transform="translate(352,601)"/>
<path d="M0 0 C1.64750929 2.47126394 2.93723705 4.7609443 4.1875 7.4375 C4.55230469 8.19933594 4.91710937 8.96117187 5.29296875 9.74609375 C6.09093521 12.28988738 5.8852947 13.52455813 5 16 C4.67 14.35 4.34 12.7 4 11 C3.34 11 2.68 11 2 11 C2 10.34 2 9.68 2 9 C1.34 9 0.68 9 0 9 C-1.125 2.25 -1.125 2.25 0 0 Z " fill="#333333" transform="translate(351,354)"/>
<path d="M0 0 C0.99 0.33 1.98 0.66 3 1 C3.6875 3.0625 3.6875 3.0625 4 5 C2.68 5.33 1.36 5.66 0 6 C0 6.66 0 7.32 0 8 C-0.99 8 -1.98 8 -3 8 C-3.33 6.35 -3.66 4.7 -4 3 C-3.01 2.67 -2.02 2.34 -1 2 C-0.67 1.34 -0.34 0.68 0 0 Z " fill="#3D3D3D" transform="translate(419,542)"/>
<path d="M0 0 C1.32 0.99 2.64 1.98 4 3 C2.47291037 6.43595166 0.40072955 9.11912454 -2 12 C-1.85831863 10.56208484 -1.71148957 9.1246763 -1.5625 7.6875 C-1.48128906 6.88699219 -1.40007812 6.08648438 -1.31640625 5.26171875 C-1 3 -1 3 0 0 Z " fill="#3C3C3C" transform="translate(429,534)"/>
<path d="M0 0 C1.32 0 2.64 0 4 0 C5.26264601 4.29299643 4.62950412 6.87831311 3 11 C2.67 11 2.34 11 2 11 C1.34 7.37 0.68 3.74 0 0 Z " fill="#3E3E3E" transform="translate(152,145)"/>
<path d="M0 0 C0.66 0 1.32 0 2 0 C2 2.25 2 2.25 1 5 C-1.52667787 6.67198768 -4.19936568 7.85805571 -7 9 C-6.69140625 7.078125 -6.69140625 7.078125 -6 5 C-2.9375 3.75 -2.9375 3.75 0 3 C0 2.01 0 1.02 0 0 Z " fill="#333333" transform="translate(401,599)"/>
<path d="M0 0 C1.62580966 0.11398665 3.25067157 0.24155659 4.875 0.375 C5.77992188 0.44460938 6.68484375 0.51421875 7.6171875 0.5859375 C10 1 10 1 12 3 C11.67 3.66 11.34 4.32 11 5 C10.01 5 9.02 5 8 5 C8 4.34 8 3.68 8 3 C5.36 2.67 2.72 2.34 0 2 C0 1.34 0 0.68 0 0 Z " fill="#3F3F3F" transform="translate(444,545)"/>
<path d="M0 0 C2.35953094 2.35953094 2.49141413 3.77895617 3 7 C1.35 7 -0.3 7 -2 7 C-2.33 7.99 -2.66 8.98 -3 10 C-2.25 3.375 -2.25 3.375 0 0 Z " fill="#3A3A3A" transform="translate(271,93)"/>
<path d="M0 0 C0.66 1.32 1.32 2.64 2 4 C0.02 6.31 -1.96 8.62 -4 11 C-4.66 10.67 -5.32 10.34 -6 10 C-4.02 6.7 -2.04 3.4 0 0 Z " fill="#353535" transform="translate(162,63)"/>
<path d="M0 0 C0.33 0 0.66 0 1 0 C1 2.31 1 4.62 1 7 C1.66 7.33 2.32 7.66 3 8 C1.68 9.65 0.36 11.3 -1 13 C-2.12758089 9.61725734 -1.81750262 8.23221777 -1.0625 4.8125 C-0.86785156 3.91144531 -0.67320312 3.01039062 -0.47265625 2.08203125 C-0.23869141 1.05142578 -0.23869141 1.05142578 0 0 Z " fill="#434343" transform="translate(188,26)"/>
<path d="M0 0 C0.66 0.99 1.32 1.98 2 3 C1.01 4.98 0.02 6.96 -1 9 C-2.32 9 -3.64 9 -5 9 C-3.50163895 5.88801935 -1.80066242 2.9465385 0 0 Z " fill="#424242" transform="translate(137,533)"/>
<path d="M0 0 C0.66 0 1.32 0 2 0 C2.625 1.875 2.625 1.875 3 4 C2.34 4.66 1.68 5.32 1 6 C0.34 5.67 -0.32 5.34 -1 5 C-0.67 3.35 -0.34 1.7 0 0 Z M-2 6 C-1.01 6 -0.02 6 1 6 C0.67 6.99 0.34 7.98 0 9 C-0.66 8.01 -1.32 7.02 -2 6 Z " fill="#292929" transform="translate(65,388)"/>
<path d="M0 0 C0.33 0.99 0.66 1.98 1 3 C2.31647119 3.69937532 3.65022151 4.36729133 5 5 C5.33 5.66 5.66 6.32 6 7 C4.35 7 2.7 7 1 7 C-0.0625 4.625 -0.0625 4.625 -1 2 C-0.67 1.34 -0.34 0.68 0 0 Z " fill="#414141" transform="translate(358,374)"/>
<path d="M0 0 C2 3 2 3 3 6 C4.99665314 7.68538601 4.99665314 7.68538601 7 9 C5.35 9.33 3.7 9.66 2 10 C0.39644899 6.49223216 -0.22036864 3.85645121 0 0 Z " fill="#3D3D3D" transform="translate(340,333)"/>
<path d="M0 0 C0.99 0.33 1.98 0.66 3 1 C1.515 3.475 1.515 3.475 0 6 C-1.32 5.67 -2.64 5.34 -4 5 C-2.68 3.35 -1.36 1.7 0 0 Z " fill="#2D2D2D" transform="translate(44,279)"/>
<path d="M0 0 C0.99 0.33 1.98 0.66 3 1 C2.34 3.31 1.68 5.62 1 8 C-1 7 -1 7 -1.75 5.125 C-2 3 -2 3 0 0 Z " fill="#2B2B2B" transform="translate(67,238)"/>
<path d="M0 0 C0.99 0.66 1.98 1.32 3 2 C2.34 3.98 1.68 5.96 1 8 C-0.5 6.625 -0.5 6.625 -2 5 C-2 4.34 -2 3.68 -2 3 C-1.34 3 -0.68 3 0 3 C0 2.01 0 1.02 0 0 Z " fill="#2B2B2B" transform="translate(137,552)"/>
<path d="M0 0 C1.65 0 3.3 0 5 0 C2.51047079 2.66735273 0.36591866 4.55746343 -3 6 C-3 4.68 -3 3.36 -3 2 C-2.01 2 -1.02 2 0 2 C0 1.34 0 0.68 0 0 Z " fill="#3E3E3E" transform="translate(95,451)"/>
<path d="M0 0 C0.99 0.99 1.98 1.98 3 3 C1.79618552 5.49361571 0.54571278 7.68143083 -1 10 C-1.125 3.375 -1.125 3.375 0 0 Z " fill="#484848" transform="translate(304,127)"/>
<path d="M0 0 C1.98 0.495 1.98 0.495 4 1 C4 2.32 4 3.64 4 5 C2.35 5 0.7 5 -1 5 C-0.67 3.35 -0.34 1.7 0 0 Z " fill="#414141" transform="translate(417,508)"/>
<path d="M0 0 C1.9451 2.91765 2.45276317 4.62537285 3 8 C2.34 7.67 1.68 7.34 1 7 C0.34 7.66 -0.32 8.32 -1 9 C-0.67 6.03 -0.34 3.06 0 0 Z " fill="#3A3A3A" transform="translate(130,477)"/>
<path d="M0 0 C0.99 0 1.98 0 3 0 C2.67 1.32 2.34 2.64 2 4 C0.68 4.33 -0.64 4.66 -2 5 C-2.66 4.01 -3.32 3.02 -4 2 C-3.34 1.67 -2.68 1.34 -2 1 C-1.34 1.33 -0.68 1.66 0 2 C0 1.34 0 0.68 0 0 Z " fill="#242424" transform="translate(65,433)"/>
<path d="M0 0 C-0.33 1.65 -0.66 3.3 -1 5 C-1.99 5.33 -2.98 5.66 -4 6 C-4.66 5.34 -5.32 4.68 -6 4 C-5.01 4 -4.02 4 -3 4 C-3.33 3.01 -3.66 2.02 -4 1 C-2 0 -2 0 0 0 Z " fill="#434343" transform="translate(351,618)"/>
<path d="M0 0 C0.33 0.66 0.66 1.32 1 2 C1.99 2.33 2.98 2.66 4 3 C0.25 6 0.25 6 -2 6 C-2.33 5.01 -2.66 4.02 -3 3 C-2.34 3 -1.68 3 -1 3 C-0.67 2.01 -0.34 1.02 0 0 Z " fill="#3B3B3B" transform="translate(182,609)"/>
<path d="M0 0 C0.33 0 0.66 0 1 0 C1.25532751 3.06393013 1.21861333 4.63233212 -0.375 7.3125 C-1.179375 8.1478125 -1.179375 8.1478125 -2 9 C-2.66 9 -3.32 9 -4 9 C-2.80100302 5.9168649 -1.52299523 2.93720508 0 0 Z " fill="#363636" transform="translate(39,284)"/>
<path d="M0 0 C0.99 1.32 1.98 2.64 3 4 C2.01 4.99 1.02 5.98 0 7 C-0.66 5.68 -1.32 4.36 -2 3 C-1.34 2.01 -0.68 1.02 0 0 Z " fill="#272727" transform="translate(329,280)"/>
<path d="M0 0 C-0.33 1.32 -0.66 2.64 -1 4 C-2.98 4 -4.96 4 -7 4 C-3.375 0 -3.375 0 0 0 Z " fill="#323232" transform="translate(90,220)"/>
<path d="M0 0 C1.65 1.65 3.3 3.3 5 5 C3.02 5.99 3.02 5.99 1 7 C0.34 6.34 -0.32 5.68 -1 5 C-0.625 2.375 -0.625 2.375 0 0 Z " fill="#393939" transform="translate(233,56)"/>
</svg>
