<?xml version="1.0" encoding="UTF-8"?>
<svg version="1.1" xmlns="http://www.w3.org/2000/svg" width="778" height="566">
<path d="M0 0 C2 3 2 3 2 6 C2.99 6 3.98 6 5 6 C5.33 7.98 5.66 9.96 6 12 C9.3 11.34 12.6 10.68 16 10 C16.99 11.32 17.98 12.64 19 14 C19.66 14.268125 20.32 14.53625 21 14.8125 C23 16 23 16 24.25 19.4375 C25.70412245 23.29796017 25.70412245 23.29796017 29.5625 24.8125 C32.69440675 25.77394931 35.83591252 26.32903779 39.0625 26.875 C43.92512829 27.78159171 47.52167905 29.42850974 51 33 C51.69658363 34.65438613 52.36096883 36.32254318 53 38 C54.77449411 39.84530725 56.62088182 41.55886088 58.5390625 43.25390625 C60 45 60 45 60 49 C59.34 49 58.68 49 58 49 C59.11346791 53.82502759 60.01800695 56.92817679 64 60 C64.886875 60.350625 65.77375 60.70125 66.6875 61.0625 C67.450625 61.371875 68.21375 61.68125 69 62 C69.33 62.99 69.66 63.98 70 65 C70.99 65.33 71.98 65.66 73 66 C75.82646634 69.90840746 77.95111301 74.27651729 79.1875 78.9375 C79.7474793 82.08223631 79.7474793 82.08223631 82 84 C82.125 86.625 82.125 86.625 82 89 C82.99 89 83.98 89 85 89 C85.780183 92.120732 85.97977834 94.6268714 85.875 97.875 C85.79232963 102.22346145 87.06897597 105.13795194 89 109 C90.32 109 91.64 109 93 109 C93 110.32 93 111.64 93 113 C92.01 113 91.02 113 90 113 C91.19031875 116.75752026 91.19031875 116.75752026 94 119.375 C96.91725377 121.74526869 97.19131286 124.42829848 98 128 C99.7015625 128.185625 99.7015625 128.185625 101.4375 128.375 C102.613125 128.58125 103.78875 128.7875 105 129 C105.33 129.66 105.66 130.32 106 131 C106.928125 131.2165625 106.928125 131.2165625 107.875 131.4375 C110.4393353 132.11629464 111.14316214 133.14316214 113 135 C114.97620986 136.04622875 116.9737129 137.05439935 119 138 C118.67 138.99 118.34 139.98 118 141 C117.60216715 146.27128523 118.17349464 149.5165777 121 154 C124.13148521 157.47987489 124.13148521 157.47987489 128 160 C128 160.66 128 161.32 128 162 C129.01578125 162.20753906 130.0315625 162.41507813 131.078125 162.62890625 C139.35941222 164.43889121 146.08186822 166.70716652 153.30078125 171.3359375 C155.86251267 172.91523936 158.32924371 174.03158816 161.125 175.125 C164.24800706 176.42389986 164.81774299 176.67922766 166.5625 179.75 C166.706875 180.4925 166.85125 181.235 167 182 C161.59402133 186.20936487 157.35389807 186.7200226 150.65820312 187.1328125 C146.41039781 187.48172081 146.41039781 187.48172081 143.0546875 189.921875 C142.02178441 191.95707664 141.40052163 193.75707888 141 196 C140.01 196 139.02 196 138 196 C134.63947472 202.27298053 134.75390693 208.13013669 134.6875 215.125 C134.65849609 216.12015625 134.62949219 217.1153125 134.59960938 218.140625 C134.54625586 224.4281319 135.43134642 229.17296632 138.0871582 234.88818359 C139.3612584 237.83575425 139.54733303 240.83133121 140 244 C140.87804612 246.48422804 141.87491784 248.8987212 142.89453125 251.328125 C144.01159008 254.02801278 145.01685829 256.74875759 146 259.5 C146.33515625 260.42039062 146.6703125 261.34078125 147.015625 262.2890625 C147.6402975 264.00939075 148.2559793 265.73303165 148.859375 267.4609375 C153.57741948 280.24932122 162.18213022 291.31134714 169.87109375 302.44921875 C173.08559486 307.10874417 176.21629174 311.81820965 179.31640625 316.5546875 C181.09809963 319.14248345 183.03304966 321.55045218 185 324 C186.71662271 326.31269641 188.3910821 328.65450202 190.0625 331 C190.49626953 331.60328125 190.93003906 332.2065625 191.37695312 332.828125 C193.20347729 335.38581485 194.95288883 337.92065487 196.55859375 340.625 C198.17257927 343.28435826 200.02932369 345.59472587 202 348 C218.8212029 369.86075357 218.8212029 369.86075357 218 383 C217.01 382.67 216.02 382.34 215 382 C215 381.34 215 380.68 215 380 C214.4328125 379.90847656 213.865625 379.81695312 213.28125 379.72265625 C210.43944404 378.82242662 208.79491031 377.330801 206.5 375.4375 C200.80844845 371.32271903 195.8466768 370.90569381 189 372 C187.32092668 372.63477162 185.65318681 373.30057481 184 374 C182.44584936 374.38917356 180.88290546 374.74521944 179.3125 375.0625 C176.97646 375.53756023 175.13552156 375.93223922 173 377 C167.01465115 377.55978083 162.08055869 377.49994043 157 374 C154.54721975 371.77269955 152.27402603 369.40747826 150 367 C149.113125 366.154375 148.22625 365.30875 147.3125 364.4375 C144.81301172 361.80290425 142.99885047 359.02856132 141 356 C137.29450745 351.12307267 137.29450745 351.12307267 132.375 347.625 C129.58488996 345.71597734 129.34121859 344.66091456 128.1875 341.5625 C126.77510822 338.10748585 125.66545302 336.27065819 122.375 334.4375 C116.71058775 332.17592321 111.15132645 331.79745763 105.41015625 333.98828125 C103.60020335 334.84674643 101.80089396 335.72793785 100.01171875 336.62890625 C95.51367491 338.67665383 90.83648846 339.85298906 86.06640625 341.10546875 C83.1005707 341.84517114 83.1005707 341.84517114 81.01953125 343.11328125 C77.11767194 344.82647673 72.68963872 344.01951235 68.5078125 343.875 C64.92201734 344.00277889 62.34379748 344.76414737 59 346 C52.31838006 346.95451713 52.31838006 346.95451713 48.93359375 344.50390625 C47.12292343 342.7444468 45.48076866 341.04531172 44 339 C44 338.34 44 337.68 44 337 C33.04382877 337.99907081 33.04382877 337.99907081 23 342 C20.61384998 344.99371105 20.61384998 344.99371105 19 348 C18.67 348.33 18.34 348.66 18 349 C17.83333333 352.5 17.83333333 352.5 18 356 C18.33 356.33 18.66 356.66 19 357 C19 354.69 19 352.38 19 350 C19.85464844 349.65066406 20.70929688 349.30132812 21.58984375 348.94140625 C22.69457031 348.48636719 23.79929687 348.03132813 24.9375 347.5625 C26.03964844 347.11003906 27.14179687 346.65757812 28.27734375 346.19140625 C30.86568916 345.25575392 30.86568916 345.25575392 32 344 C35.15331273 343.51069285 36.97570403 343.24527373 40 344 C43.68550568 347.10517043 46.35442213 351.08859595 49.125 355 C53.9143622 358.33173023 59.34900577 357.37232026 65 357 C65.2475 356.401875 65.495 355.80375 65.75 355.1875 C67.28639535 352.49880813 68.24465871 351.45766442 71 350 C73.91217686 349.57058244 76.80974962 349.53363031 79.75 349.5 C85.37281779 349.43440046 89.87885269 348.92888054 95.09326172 346.76171875 C98.05045264 345.58035695 101.08146477 344.9256747 104.1875 344.25 C105.35667969 343.98703125 106.52585937 343.7240625 107.73046875 343.453125 C110.92570014 343.01029723 112.95386994 342.99882439 116 344 C119.9770791 347.88007717 121.8603106 351.75187797 123.96875 356.8359375 C124.95961043 358.9152431 125.98878013 360.40184075 127.5 362.125 C130 365 130 365 131.625 368.3125 C134.61892044 373.82569496 140.1535609 377.21413899 145 381 C150.03238374 385.23601325 155.09059714 389.5477348 159.33984375 394.58984375 C161.47541145 396.40382008 162.98775438 396.4908099 165.75 396.8125 C171.20652525 397.76838763 174.36503282 399.87215592 178 404 C179.04892238 405.63631892 180.04906703 407.30485863 181 409 C182.0500395 410.17789405 183.11366675 411.34375629 184.1875 412.5 C186.14408295 414.75007039 186.95126371 415.80505484 187.6875 418.75 C187 421 187 421 185.1875 422.75 C181.96056819 424.01546345 179.85942724 424.14020554 176.4375 424.25 C173.57032725 424.3850956 173.57032725 424.3850956 171 425 C168.82159633 427.6252557 168.09115392 428.93147577 167 432 C166.63261719 432.81726563 166.26523437 433.63453125 165.88671875 434.4765625 C163.90305383 438.98922979 162.14514215 442.99297544 163 448 C164.37506099 449.87890434 164.37506099 449.87890434 166 451 C164.95125002 453.62187494 164.35068687 454.79371361 161.875 456.25 C161.25625 456.4975 160.6375 456.745 160 457 C160 457.66 160 458.32 160 459 C156.43949035 458.69481346 154.99964963 457.99971192 152.1875 455.6875 C150 453 150 453 150 449 C149.1646875 448.6596875 149.1646875 448.6596875 148.3125 448.3125 C145.3530491 446.63281165 143.33873216 444.45866715 141 442 C140.45730469 441.608125 139.91460938 441.21625 139.35546875 440.8125 C137.21258625 437.94708939 137.73094235 434.85936251 137.875 431.4375 C138.00753789 426.62610397 137.98097372 422.14312189 137.1875 417.375 C136.85765271 414.75381352 136.70845282 413.5178058 138.01171875 411.203125 C139.27430653 409.74156207 140.63429613 408.36570387 142 407 C142.6874113 404.90966863 142.6874113 404.90966863 143 403 C142.40832031 403.06960938 141.81664062 403.13921875 141.20703125 403.2109375 C138.69340041 403.38316017 136.48942115 403.41071258 134 403 C131.1875 400.25 131.1875 400.25 129 397 C124.97344215 392.41805487 119.78637005 388.92879002 114 387 C114.10441406 387.60585938 114.20882812 388.21171875 114.31640625 388.8359375 C114.74214888 393.22852015 114.57404723 396.03674614 112.27734375 399.890625 C108.82217968 404.03919249 106.49703166 406.68610626 101.125 407.8125 C96.83510143 407.24395923 92.62687987 405.88006853 88.515625 404.55859375 C85.74368678 403.94308573 84.59637803 403.90035754 82 405 C80.24495201 406.29304938 78.53904764 407.65426864 76.875 409.0625 C72.21089631 413 72.21089631 413 70 413 C70 413.99 70 414.98 70 416 C70.56509277 416.01981934 71.13018555 416.03963867 71.71240234 416.06005859 C74.26707997 416.15518236 76.82092541 416.26491058 79.375 416.375 C80.26445313 416.4059375 81.15390625 416.436875 82.0703125 416.46875 C82.92109375 416.50742187 83.771875 416.54609375 84.6484375 416.5859375 C85.43395996 416.6173584 86.21948242 416.6487793 87.02880859 416.68115234 C89 417 89 417 91 419 C90.67028521 422.29714793 90.3773161 423.6226839 88 426 C85.63490639 426.30059943 83.25558119 426.49515012 80.875 426.625 C79.59367187 426.69976562 78.31234375 426.77453125 76.9921875 426.8515625 C76.00476563 426.90054687 75.01734375 426.94953125 74 427 C73.65980848 428.39417773 73.32818221 429.79044658 73 431.1875 C72.814375 431.96480469 72.62875 432.74210937 72.4375 433.54296875 C71.9853646 436.08219346 71.97001216 438.42666848 72 441 C68.38439545 442.35980726 64.75630713 443.68276114 61.125 445 C60.11179687 445.3815625 59.09859375 445.763125 58.0546875 446.15625 C51.67050563 448.4480076 45.81407647 449.98729712 39 449 C36.3125 447.4375 36.3125 447.4375 35 445 C35.32142857 438.67857143 35.32142857 438.67857143 37 437 C37 434.03 37 431.06 37 428 C22.15 426.515 22.15 426.515 7 425 C7 427.31 7 429.62 7 432 C6.8125 434.1875 6.8125 434.1875 6 436 C4.8553125 436.86625 4.8553125 436.86625 3.6875 437.75 C0.20340775 440.66691444 -1.21504731 443.89161726 -3 448 C-13.05610192 448.14141393 -22.97562315 447.72904559 -33 447 C-32.67 445.68 -32.34 444.36 -32 443 C-31.01 443 -30.02 443 -29 443 C-29 442.01 -29 441.02 -29 440 C-29.639375 439.731875 -30.27875 439.46375 -30.9375 439.1875 C-33 438 -33 438 -34 435 C-39.29967976 436.49053493 -43.62897416 439.703292 -47 444 C-47.72359758 446.697806 -48.00452386 449.29181671 -48.3046875 452.06640625 C-49.61094244 457.57762793 -53.43782096 461.71710102 -57 466 C-57.55042969 465.8453125 -58.10085938 465.690625 -58.66796875 465.53125 C-63.80746148 464.36044429 -69.52247525 463.45545304 -74.16796875 466.3515625 C-79.43600954 471.45111584 -81.98042717 476.29238489 -82.4375 483.625 C-82.7675 488.685 -82.7675 488.685 -84.9375 491.625 C-87 493 -87 493 -89 494 C-88.5359375 495.2684375 -88.5359375 495.2684375 -88.0625 496.5625 C-88 500 -88 500 -89.421875 501.74609375 C-90.66245314 502.89696066 -91.93462272 504.01486019 -93.23828125 505.09375 C-95.47651202 507.51560502 -96.12956418 509.85405936 -97 513 C-99.77109307 513.05392397 -102.54113818 513.09363455 -105.3125 513.125 C-106.09818359 513.14175781 -106.88386719 513.15851562 -107.69335938 513.17578125 C-108.8293457 513.18544922 -108.8293457 513.18544922 -109.98828125 513.1953125 C-111.03302612 513.21102295 -111.03302612 513.21102295 -112.09887695 513.22705078 C-114 513 -114 513 -117 511 C-118.65549531 510.61500109 -120.3222433 510.27206865 -122 510 C-122 507.69 -122 505.38 -122 503 C-124.64 503 -127.28 503 -130 503 C-130.309375 503.804375 -130.61875 504.60875 -130.9375 505.4375 C-132 508 -132 508 -133 509 C-135.14453125 509.203125 -135.14453125 509.203125 -137.8125 509.25 C-138.68519531 509.27578125 -139.55789063 509.3015625 -140.45703125 509.328125 C-143.57806177 508.92541138 -144.88874628 508.34255658 -147 506 C-147.25 502.8125 -147.25 502.8125 -147 500 C-155.13065831 499.79569365 -155.13065831 499.79569365 -161.8125 503.6875 C-162.24046875 504.21859375 -162.6684375 504.7496875 -163.109375 505.296875 C-165.88892374 507.80076602 -169.13468495 509.05876661 -172.5625 510.4375 C-173.21259033 510.70844482 -173.86268066 510.97938965 -174.5324707 511.25854492 C-178.41937294 512.7603139 -181.04497326 513.4280213 -185 512 C-185.79792969 511.50886719 -186.59585938 511.01773437 -187.41796875 510.51171875 C-190.42420753 508.75163644 -192.877079 508.30327443 -196.3125 507.8125 C-197.38113281 507.65394531 -198.44976562 507.49539063 -199.55078125 507.33203125 C-200.76314453 507.16767578 -200.76314453 507.16767578 -202 507 C-201.23163306 502.79606135 -199.45167403 501.47812494 -196 499 C-196.21623959 497.05781581 -196.21623959 497.05781581 -197 495 C-198.66786151 493.72389012 -198.66786151 493.72389012 -200.75 492.875 C-201.46800781 492.54628906 -202.18601562 492.21757813 -202.92578125 491.87890625 C-205.27077135 490.88526638 -207.63045443 489.93345735 -210 489 C-210.33 488.67 -210.66 488.34 -211 488 C-210.91036938 486.30858344 -210.75422324 484.62040398 -210.5625 482.9375 C-210.46066406 482.01839844 -210.35882813 481.09929687 -210.25390625 480.15234375 C-210.17011719 479.44207031 -210.08632813 478.73179687 -210 478 C-213.62197194 476.50859979 -217.27566618 475.2125738 -221 474 C-221.33 472.02 -221.66 470.04 -222 468 C-222.928125 467.87625 -223.85625 467.7525 -224.8125 467.625 C-228 467 -228 467 -231 465 C-231.16015625 462.2421875 -231.16015625 462.2421875 -231.0625 458.875 C-231.2603389 454.70658042 -231.38140783 452.6996644 -234.17578125 449.5390625 C-236.82378907 447.48457146 -236.82378907 447.48457146 -239.5546875 445.78125 C-242.32863825 443.76060856 -243.5440859 442.09145396 -245 439 C-245.3359375 436.7890625 -245.3359375 436.7890625 -245.375 434.625 C-245.85096111 429.58983243 -247.17612008 426.38732703 -251 423 C-255.94501227 419.8927086 -260.68871294 417.16905702 -266.578125 416.73828125 C-270.47632695 415.89723083 -271.5459209 414.71273075 -273.71459961 411.44213867 C-274.09753174 410.82185791 -274.48046387 410.20157715 -274.875 409.5625 C-275.72228681 408.27495793 -276.57522851 406.99112055 -277.43359375 405.7109375 C-277.85753418 405.07768555 -278.28147461 404.44443359 -278.71826172 403.79199219 C-280.56927992 401.20409245 -282.72508296 398.96826814 -284.9375 396.6875 C-288.56897684 392.85321817 -289.90985556 389.83557269 -291.18359375 384.78515625 C-291.85553925 382.86252678 -291.85553925 382.86252678 -293.72265625 381.99609375 C-295.88563228 381.32979533 -295.88563228 381.32979533 -299 381 C-299.13277344 380.43410156 -299.26554687 379.86820312 -299.40234375 379.28515625 C-299.57894531 378.55167969 -299.75554687 377.81820313 -299.9375 377.0625 C-300.19853516 375.96615234 -300.19853516 375.96615234 -300.46484375 374.84765625 C-300.83887569 373.00030102 -300.83887569 373.00030102 -302 372 C-302.28306234 369.45243896 -302.44815786 366.90489978 -302.62109375 364.34765625 C-302.79485724 361.81487227 -302.79485724 361.81487227 -305 360 C-305.125 357.375 -305.125 357.375 -305 355 C-309.32020384 356.2706366 -309.32020384 356.2706366 -313.0625 358.6875 C-315 360 -315 360 -317.625 359.8125 C-320 359 -320 359 -322 357 C-324.57061311 356.35232207 -324.57061311 356.35232207 -327 356 C-327.12375 355.360625 -327.2475 354.72125 -327.375 354.0625 C-327.58125 353.381875 -327.7875 352.70125 -328 352 C-328.66 351.67 -329.32 351.34 -330 351 C-330.66796875 348.890625 -330.66796875 348.890625 -331.1875 346.25 C-331.36667969 345.38890625 -331.54585938 344.5278125 -331.73046875 343.640625 C-332.02593885 340.74587442 -331.88508483 338.77206772 -331 336 C-329.40625 334.10546875 -329.40625 334.10546875 -327.5 332.1875 C-323.93722139 327.90641925 -323.52609244 324.33677191 -323.5 318.9375 C-323.43146434 314.05967072 -323.33694169 310.28814023 -320.125 306.375 C-316.39750445 302.84899069 -311.99598236 300.63816574 -307.35546875 298.51953125 C-304.45914469 296.65109002 -303.88399975 295.28561758 -303 292 C-303 291.01 -303 290.02 -303 289 C-304.54075129 287.66081693 -304.54075129 287.66081693 -306.5625 286.4375 C-312.36426147 282.24619189 -317.13580297 277.06892767 -318.65625 269.91015625 C-318.90230385 267.2548251 -319.03546957 264.66528458 -319 262 C-320.1446875 261.690625 -320.1446875 261.690625 -321.3125 261.375 C-334.89659926 256.30974265 -334.89659926 256.30974265 -337.33984375 251.1953125 C-338.05187405 248.46763425 -338.55467912 245.78088676 -339 243 C-340.17456501 241.62137726 -340.17456501 241.62137726 -343.4375 241.5625 C-347 241 -347 241 -349 239 C-349 238.01 -349 237.02 -349 236 C-349.59167969 236.2165625 -350.18335938 236.433125 -350.79296875 236.65625 C-359.33536924 239.6662965 -359.33536924 239.6662965 -363 239 C-365 236 -365 236 -365 232 C-365.61488281 232.04640625 -366.22976563 232.0928125 -366.86328125 232.140625 C-373.388 232.432 -373.388 232.432 -376.125 230.5 C-377.18051103 227.4842542 -376.68220254 225.33091629 -376.12890625 222.23828125 C-375.89741167 218.21869346 -377.4961217 214.67048264 -379 211 C-380.95825873 210.97305149 -382.91662226 210.95362782 -384.875 210.9375 C-385.96554687 210.92589844 -387.05609375 210.91429687 -388.1796875 210.90234375 C-390.95177546 210.80255697 -390.95177546 210.80255697 -393 212 C-395.09375 212.203125 -395.09375 212.203125 -397.5 212.25 C-398.69109375 212.28867187 -398.69109375 212.28867187 -399.90625 212.328125 C-400.94265625 212.16570312 -400.94265625 212.16570312 -402 212 C-404.57622524 208.13566214 -404.32480747 205.23938681 -404.4609375 200.69140625 C-405.14923405 197.25491118 -406.29670934 196.18127591 -409 194 C-410.59765571 193.01662445 -412.22460512 192.07953586 -413.875 191.1875 C-422.9336915 185.74692493 -422.9336915 185.74692493 -425 181 C-425.86870647 175.8269931 -426.01899092 171.19625778 -425 166 C-423.36290118 163.935648 -422.1265636 163.09172501 -419.7265625 162.0546875 C-417.25435815 160.54451742 -417.04073581 158.68261865 -416 156 C-414.39548669 153.77624914 -412.77755643 151.63330251 -411.0625 149.5 C-405.33422215 142.38832871 -405.33422215 142.38832871 -402 134 C-397.71 134 -393.42 134 -389 134 C-388.34 132.68 -387.68 131.36 -387 130 C-382.03802281 125.92015209 -382.03802281 125.92015209 -378.5625 126.1875 C-377.716875 126.455625 -376.87125 126.72375 -376 127 C-372.38976901 127.73041853 -372.38976901 127.73041853 -369 128 C-366.60435072 126.05032721 -366.60435072 126.05032721 -366.8125 122.4375 C-366.89788734 118.77241251 -367.31926125 115.19816377 -367.79296875 111.56640625 C-368.13049735 107.38232525 -367.86202063 103.20356 -367.64453125 99.015625 C-368.31897787 93.29394595 -373.02932674 89.86037678 -377 86 C-375.70123083 82.41605471 -373.56882171 80.73208237 -370.55541992 78.5 C-365.50872916 74.9263455 -365.50872916 74.9263455 -362.17578125 69.921875 C-362.18861014 67.81793732 -362.49874828 66.04356472 -363 64 C-364.56217349 55.20249666 -364.56217349 55.20249666 -363.12890625 52.13671875 C-360.5877307 48.94639556 -357.61806473 46.79112115 -354 45 C-350.40943102 44.60927371 -346.88721864 44.56169507 -343.27734375 44.50390625 C-339.45537315 43.91626119 -338.46410116 42.85858603 -336 40 C-334.125 40.1875 -334.125 40.1875 -332 41 C-329.27299501 42.19253007 -329.27299501 42.19253007 -326 42 C-323.61023023 40.42159919 -321.48318025 38.63161957 -319.28515625 36.796875 C-314.58077595 33.09770417 -310.16324663 31.7018633 -304.1875 31.9375 C-296.93943495 32.92485251 -290.9767051 37.01552993 -285 41 C-278.17983288 41.75618058 -274.34331708 40.0726071 -268.625 36.5 C-261.17905405 32 -261.17905405 32 -259 32 C-259.061875 30.906875 -259.12375 29.81375 -259.1875 28.6875 C-259 25 -259 25 -257.8125 23 C-256 22 -256 22 -253.65625 22.21484375 C-250.56605173 23.12827 -249.03196214 24.37698444 -246.6875 26.5625 C-245.64142578 27.52349609 -245.64142578 27.52349609 -244.57421875 28.50390625 C-244.05472656 28.99761719 -243.53523437 29.49132812 -243 30 C-242.814375 28.1128125 -242.814375 28.1128125 -242.625 26.1875 C-242.30131941 22.89674737 -241.93395001 21.90092502 -240 19 C-239.54860541 16.9507906 -239.54860541 16.9507906 -239.375 14.8125 C-239.189375 12.9253125 -239.189375 12.9253125 -239 11 C-232.46499102 10.87432675 -232.46499102 10.87432675 -229.6875 11.625 C-229.130625 11.74875 -228.57375 11.8725 -228 12 C-227.34 11.34 -226.68 10.68 -226 10 C-223.13671875 9.6640625 -223.13671875 9.6640625 -219.6875 9.625 C-218.55699219 9.59664062 -217.42648437 9.56828125 -216.26171875 9.5390625 C-212.33572888 10.09387304 -210.73129585 11.16422835 -208 14 C-207.1875 16.25 -207.1875 16.25 -207 18 C-206.39671875 17.94199219 -205.7934375 17.88398437 -205.171875 17.82421875 C-202.70427209 17.68491859 -200.45019402 17.66145851 -198 18 C-195.4037667 20.32995296 -194.30306866 22.14614903 -193.14453125 25.41015625 C-191.85787025 28.32161101 -190.38135392 30.01918971 -188.125 32.25 C-187.44695312 32.93578125 -186.76890625 33.6215625 -186.0703125 34.328125 C-183.97194713 36.02265402 -182.63422173 36.59836978 -180 37 C-180.33 35.02 -180.66 33.04 -181 31 C-173.52649007 31.61258278 -173.52649007 31.61258278 -171.34375 33.21875 C-169.65828143 35.45297577 -169.04726178 37.49337346 -168.3125 40.1875 C-168.06113281 41.08855469 -167.80976563 41.98960938 -167.55078125 42.91796875 C-167.27814453 43.94857422 -167.27814453 43.94857422 -167 45 C-165.35 45.33 -163.7 45.66 -162 46 C-162.64368342 43.87434778 -163.29001244 41.74949654 -163.9375 39.625 C-164.29714844 38.44164062 -164.65679687 37.25828125 -165.02734375 36.0390625 C-165.87576274 33.12073182 -165.87576274 33.12073182 -167 31 C-167.039992 29.00039988 -167.04346799 26.99952758 -167 25 C-164.6875 24.3125 -164.6875 24.3125 -162 24 C-159.76813204 25.51448183 -159.11782677 26.49923623 -158.5 29.125 C-158.335 29.74375 -158.17 30.3625 -158 31 C-157.01 31.33 -156.02 31.66 -155 32 C-154.67 30.35 -154.34 28.7 -154 27 C-151.69 27.33 -149.38 27.66 -147 28 C-147 27.34 -147 26.68 -147 26 C-145.0625 26.5 -145.0625 26.5 -143 28 C-142.31209578 30.69658452 -142.18053536 33.2017019 -142 36 C-140.9275 35.979375 -139.855 35.95875 -138.75 35.9375 C-135 36 -135 36 -133 36.640625 C-130.97192585 37.20188329 -130.97192585 37.20188329 -129.140625 36.14453125 C-128.20476562 35.48517578 -128.20476562 35.48517578 -127.25 34.8125 C-124.46167031 32.92060527 -121.76256425 31.37613373 -118.6875 30 C-115.8204063 28.63312975 -115.12628571 28.21215999 -113.4375 25.375 C-112 23 -112 23 -108.9375 21.625 C-103.10352207 20.69897176 -97.76937449 21.48074228 -92 22.5625 C-87.68779405 23.19136337 -83.35033816 23.27855273 -79 23 C-78.67 22.67 -78.34 22.34 -78 22 C-71.68300632 21.64243432 -71.68300632 21.64243432 -69.08984375 23 C-66.52498561 24.22729661 -64.70873602 24.23293892 -61.875 24.1875 C-60.42867188 24.17009766 -60.42867188 24.17009766 -58.953125 24.15234375 C-56.13384521 24.00690471 -53.41676454 23.65539096 -50.625 23.25 C-46.33541489 22.73821277 -46.33541489 22.73821277 -43.4375 25 C-42.2309375 25.99 -42.2309375 25.99 -41 27 C-36.73476247 27.1706095 -32.59010676 26.124233 -28.4375 25.25 C-23.86392074 24.91737605 -21.1755424 26.16862176 -17 28 C-17.05800781 27.154375 -17.11601562 26.30875 -17.17578125 25.4375 C-17.43921436 18.81403887 -17.45703664 13.94587151 -13.4296875 8.5078125 C-11.51492324 6.48841632 -9.46686002 5.26505642 -7 4 C-6.29875 3.278125 -5.5975 2.55625 -4.875 1.8125 C-3 0 -3 0 0 0 Z " fill="#010101" transform="translate(489,24)"/>
<path d="M0 0 C3.33646536 1.4163551 5.15544293 3.08171998 7.4375 5.875 C11.61156341 10.7359346 14.37593067 13.85553814 20.875 14.875 C26.28524874 15.78611491 29.40160382 17.91368569 33 22 C34.04892238 23.63631892 35.04906703 25.30485863 36 27 C37.0500395 28.17789405 38.11366675 29.34375629 39.1875 30.5 C41.14408295 32.75007039 41.95126371 33.80505484 42.6875 36.75 C42 39 42 39 40.1875 40.75 C36.96056819 42.01546345 34.85942724 42.14020554 31.4375 42.25 C28.57032725 42.3850956 28.57032725 42.3850956 26 43 C23.82159633 45.6252557 23.09115392 46.93147577 22 50 C21.63261719 50.81726563 21.26523437 51.63453125 20.88671875 52.4765625 C18.90305383 56.98922979 17.14514215 60.99297544 18 66 C19.37506099 67.87890434 19.37506099 67.87890434 21 69 C19.95125002 71.62187494 19.35068687 72.79371361 16.875 74.25 C16.25625 74.4975 15.6375 74.745 15 75 C15 75.66 15 76.32 15 77 C11.43949035 76.69481346 9.99964963 75.99971192 7.1875 73.6875 C5 71 5 71 5 67 C4.443125 66.773125 3.88625 66.54625 3.3125 66.3125 C0.3530491 64.63281165 -1.66126784 62.45866715 -4 60 C-4.81404297 59.4121875 -4.81404297 59.4121875 -5.64453125 58.8125 C-7.78741375 55.94708939 -7.26905765 52.85936251 -7.125 49.4375 C-6.99246211 44.62610397 -7.01902628 40.14312189 -7.8125 35.375 C-8.14234729 32.75381352 -8.29154718 31.5178058 -6.98828125 29.203125 C-5.72569347 27.74156207 -4.36570387 26.36570387 -3 25 C-2.3125887 22.90966863 -2.3125887 22.90966863 -2 21 C-2.61488281 21.04640625 -3.22976563 21.0928125 -3.86328125 21.140625 C-10.42743539 21.43376107 -10.42743539 21.43376107 -13.0625 19.4375 C-14.32055497 16.16655709 -14.25729554 13.47348974 -14 10 C-13.67 9.34 -13.34 8.68 -13 8 C-10.69 8.33 -8.38 8.66 -6 9 C-5.38125 8.071875 -4.7625 7.14375 -4.125 6.1875 C-2.75 4.125 -1.375 2.0625 0 0 Z " fill="#060606" transform="translate(634,406)"/>
<path d="M0 0 C3.44428265 1.44781793 5.36130962 3.27694609 7.75 6.125 C8.36359375 6.84945313 8.9771875 7.57390625 9.609375 8.3203125 C10.29773438 9.15175781 10.29773438 9.15175781 11 10 C10.01 10.495 10.01 10.495 9 11 C8.67 11.99 8.34 12.98 8 14 C5.25 15.375 5.25 15.375 2 16 C-0.92878184 14.66873553 -2.73304965 13.26695035 -5 11 C-4.7831713 6.12135417 -3.25135812 3.56600568 0 0 Z " fill="#101010" transform="translate(634,406)"/>
<path d="M0 0 C0.33 0 0.66 0 1 0 C1.33 1.65 1.66 3.3 2 5 C2.99 4.34 3.98 3.68 5 3 C8.6875 3.375 8.6875 3.375 12 4 C11.25 8.75 11.25 8.75 9 11 C10.98 10.34 12.96 9.68 15 9 C15 13 15 13 13.75 14.6875 C11.73960048 16.19529964 10.50504321 16.7722688 8 17 C5.75 16.0625 5.75 16.0625 4 15 C3.67 15.99 3.34 16.98 3 18 C2.86722656 17.43410156 2.73445312 16.86820312 2.59765625 16.28515625 C2.42105469 15.55167969 2.24445313 14.81820313 2.0625 14.0625 C1.88847656 13.33160156 1.71445313 12.60070312 1.53515625 11.84765625 C1.16112431 10.00030102 1.16112431 10.00030102 0 9 C-0.07179964 7.48071962 -0.08392007 5.95832518 -0.0625 4.4375 C-0.05347656 3.61121094 -0.04445312 2.78492188 -0.03515625 1.93359375 C-0.02355469 1.29550781 -0.01195312 0.65742188 0 0 Z " fill="#131313" transform="translate(187,387)"/>
<path d="M0 0 C-0.30679688 0.55171875 -0.61359375 1.1034375 -0.9296875 1.671875 C-2.09442941 4.20540121 -2.62057956 6.51171762 -3.125 9.25 C-3.37636719 10.58804687 -3.37636719 10.58804687 -3.6328125 11.953125 C-3.75398437 12.62859375 -3.87515625 13.3040625 -4 14 C-1.03 14.495 -1.03 14.495 2 15 C2 16.32 2 17.64 2 19 C-0.125 19.8125 -0.125 19.8125 -3 20 C-6.1875 17.625 -6.1875 17.625 -9 15 C-9.66 14.67 -10.32 14.34 -11 14 C-11 10.7 -11 7.4 -11 4 C-2.25 0 -2.25 0 0 0 Z " fill="#111111" transform="translate(519,370)"/>
<path d="M0 0 C3.76632169 1.52446354 5.21197315 3.82214966 7.625 7.0625 C4.985 7.3925 2.345 7.7225 -0.375 8.0625 C0.615 9.5475 0.615 9.5475 1.625 11.0625 C1.295 11.7225 0.965 12.3825 0.625 13.0625 C-2.30379371 12.43490135 -4.73595629 11.47627341 -7.375 10.0625 C-6.715 10.0625 -6.055 10.0625 -5.375 10.0625 C-5.436875 8.969375 -5.49875 7.87625 -5.5625 6.75 C-5.375 3.0625 -5.375 3.0625 -4.1875 1.0625 C-2.375 0.0625 -2.375 0.0625 0 0 Z " fill="#1F1F1F" transform="translate(235.375,45.9375)"/>
<path d="M0 0 C0 1.65 0 3.3 0 5 C-0.66 5 -1.32 5 -2 5 C-1.67 6.32 -1.34 7.64 -1 9 C-3.90600261 10.25664978 -5.79604584 11 -9 11 C-8.67 13.64 -8.34 16.28 -8 19 C-8.99 18.34 -9.98 17.68 -11 17 C-11.54130956 12.90151331 -11.52458648 10.77783512 -9.1875 7.3125 C-8.465625 6.549375 -7.74375 5.78625 -7 5 C-6.484375 4.2575 -5.96875 3.515 -5.4375 2.75 C-3.87226463 0.84449607 -2.61258046 0 0 0 Z " fill="#CCCCCC" transform="translate(517,363)"/>
<path d="M0 0 C0 0.66 0 1.32 0 2 C0.99 2.33 1.98 2.66 3 3 C1.20906809 3.08086147 -0.58289628 3.13912702 -2.375 3.1875 C-3.87160156 3.23970703 -3.87160156 3.23970703 -5.3984375 3.29296875 C-6.25695312 3.19628906 -7.11546875 3.09960938 -8 3 C-8.66 2.01 -9.32 1.02 -10 0 C-6.7169902 -1.6415049 -3.57454967 -0.51888624 0 0 Z " fill="#989898" transform="translate(549,379)"/>
<path d="M0 0 C0 1.65 0 3.3 0 5 C-1.98 5.66 -3.96 6.32 -6 7 C-6.33 6.34 -6.66 5.68 -7 5 C-3.61290323 0 -3.61290323 0 0 0 Z " fill="#646464" transform="translate(517,363)"/>
<path d="M0 0 C2.64 0.33 5.28 0.66 8 1 C6.25 4.875 6.25 4.875 4 6 C2 4.6875 2 4.6875 0 3 C0 2.01 0 1.02 0 0 Z " fill="#101010" transform="translate(586,152)"/>
<path d="M0 0 C0.99 0 1.98 0 3 0 C2.25 2.4375 2.25 2.4375 1 5 C-1.125 5.8125 -1.125 5.8125 -3 6 C-2 4 -1 2 0 0 Z " fill="#1B1B1B" transform="translate(356,527)"/>
<path d="M0 0 C-1.49097658 3.7952131 -3.75700849 5.61042731 -7 8 C-4.18918919 0 -4.18918919 0 0 0 Z " fill="#333333" transform="translate(481,29)"/>
<path d="M0 0 C2.76223278 2.76223278 2.57856291 5.20706617 3 9 C2.01 8.34 1.02 7.68 0 7 C-0.1875 3.375 -0.1875 3.375 0 0 Z " fill="#A9A9A9" transform="translate(506,373)"/>
<path d="M0 0 C1.98 0.495 1.98 0.495 4 1 C4 2.32 4 3.64 4 5 C2.68 4.34 1.36 3.68 0 3 C0 2.01 0 1.02 0 0 Z " fill="#191919" transform="translate(626,268)"/>
</svg>
