<?xml version="1.0" encoding="UTF-8"?>
<svg version="1.1" xmlns="http://www.w3.org/2000/svg" width="720" height="792">
<path d="M0 0 C8.51993662 1.36016727 14.90336483 7.38520397 19.8203125 14.046875 C21 16 21 16 21 18 C24.63 18 28.26 18 32 18 C32 23 32 23 30.65234375 24.703125 C30.08644531 25.21359375 29.52054688 25.7240625 28.9375 26.25 C26.96216879 28.36907597 26.05535735 29.39414457 25.7890625 32.30859375 C26.12503424 35.2315479 26.66584767 37.97496515 27.578125 40.7734375 C28.33808853 44.78435614 27.83795502 49.00636556 27.52148438 53.06835938 C27.42121085 55.96003102 27.35587161 58.2636155 29.32275391 60.51220703 C30.84287339 61.72530507 32.41989611 62.86613855 34 64 C34.33 64.99 34.66 65.98 35 67 C36.2065625 67.680625 36.2065625 67.680625 37.4375 68.375 C40.52923356 70.33561152 40.77204474 71.64358894 42 75 C44.07973201 77.65345118 45.16968283 78.83393657 48.5 79.5 C51.71966592 78.85606682 52.83390201 77.3901771 55 75 C55.66 75 56.32 75 57 75 C55.24545615 71.81765895 55.24545615 71.81765895 53 69 C52.35031266 62.62968911 54.27601647 57.96677333 56.8125 52.1875 C57.16892578 51.32962891 57.52535156 50.47175781 57.89257812 49.58789062 C60.60433403 43.26377731 60.60433403 43.26377731 64 41 C66.30005545 40.57240767 68.6160645 40.22737495 70.9375 39.9375 C75.68556503 39.3767861 75.68556503 39.3767861 80.33203125 38.3203125 C80.88246094 38.21460938 81.43289063 38.10890625 82 38 C82.86625 38.9590625 82.86625 38.9590625 83.75 39.9375 C86.32475109 42.2976885 86.90829425 42.27941642 90.25 42.25 C91.4875 42.1675 92.725 42.085 94 42 C94 42.66 94 43.32 94 44 C94.9590625 44.3403125 94.9590625 44.3403125 95.9375 44.6875 C98 46 98 46 98.62890625 48.58203125 C98.75136719 49.37996094 98.87382813 50.17789063 99 51 C100.13888672 51.16435547 100.13888672 51.16435547 101.30078125 51.33203125 C102.79158203 51.56986328 102.79158203 51.56986328 104.3125 51.8125 C105.29863281 51.96332031 106.28476562 52.11414063 107.30078125 52.26953125 C110.14123951 53.03822256 111.27020663 53.65621854 113 56 C113 56.66 113 57.32 113 58 C113.886875 57.835 114.77375 57.67 115.6875 57.5 C119 58 119 58 120.44140625 59.46484375 C123.31118615 63.79092986 124.50662665 67.76188069 125.3984375 72.82421875 C126.40880177 76.47858821 128.72453423 79.0059661 131 82 C131 82.99 131 83.98 131 85 C131.99 85 132.98 85 134 85 C134.23074219 85.76183594 134.46148438 86.52367188 134.69921875 87.30859375 C136.83812698 94.08039411 139.41627862 99.90204477 143 106 C147.20067017 113.40158942 151.22681074 120.5019754 153.35546875 128.796875 C154.22863646 131.78152099 155.62738203 134.36894474 157.08203125 137.10546875 C158.47686935 139.98417717 159.22553096 142.90212386 160 146 C160.66 146 161.32 146 162 146 C168.63758237 164.45126108 168.63758237 164.45126108 168.796875 172.93359375 C168.86682674 175.31010271 168.86682674 175.31010271 171 178 C175.02978247 193.22645656 171.95192663 213.90106291 168 229 C167 230 167 230 164.4375 230.0625 C163.633125 230.041875 162.82875 230.02125 162 230 C162 230.66 162 231.32 162 232 C160.02 232.33 158.04 232.66 156 233 C156 233.66 156 234.32 156 235 C155.34 235 154.68 235 154 235 C154 235.66 154 236.32 154 237 C152.68 237.33 151.36 237.66 150 238 C149.938125 238.598125 149.87625 239.19625 149.8125 239.8125 C148.68022678 242.8609279 146.75467976 243.41605914 144 245 C143.67 245.99 143.34 246.98 143 248 C141.34151823 249.01351664 139.67334039 250.01120795 138 251 C136.31288577 252.6459651 134.6454378 254.31237149 133 256 C129.37931034 259 129.37931034 259 127 259 C127 259.66 127 260.32 127 261 C125.68 261.33 124.36 261.66 123 262 C122.8453125 262.9590625 122.8453125 262.9590625 122.6875 263.9375 C122.460625 264.618125 122.23375 265.29875 122 266 C121.01 266.33 120.02 266.66 119 267 C118.67 267.99 118.34 268.98 118 270 C117.01 270.66 116.02 271.32 115 272 C114.67 272.99 114.34 273.98 114 275 C113.34 275 112.68 275 112 275 C112 275.99 112 276.98 112 278 C111.34 278 110.68 278 110 278 C110 278.66 110 279.32 110 280 C109.34 280 108.68 280 108 280 C107.67 282.64 107.34 285.28 107 288 C106.01 288 105.02 288 104 288 C103.87625 288.5775 103.7525 289.155 103.625 289.75 C102.99351176 292.02335767 102.11141809 293.9253529 101 296 C100.34 296 99.68 296 99 296 C99.061875 297.11375 99.061875 297.11375 99.125 298.25 C99 301 99 301 98 302.9375 C96.66656257 305.6877147 96.8629965 307.98592292 97 311 C97.66 311 98.32 311 99 311 C99 311.99 99 312.98 99 314 C100.13888672 314.16435547 100.13888672 314.16435547 101.30078125 314.33203125 C102.29464844 314.49058594 103.28851562 314.64914062 104.3125 314.8125 C105.29863281 314.96332031 106.28476562 315.11414063 107.30078125 315.26953125 C110.20059943 316.05428668 111.05044383 316.82175688 113 319 C113.99 319.33 114.98 319.66 116 320 C116.2475 320.639375 116.495 321.27875 116.75 321.9375 C117.36875 322.9584375 117.36875 322.9584375 118 324 C119.7015625 324.4021875 119.7015625 324.4021875 121.4375 324.8125 C125 326 125 326 126.8125 329.5625 C127.204375 330.696875 127.59625 331.83125 128 333 C128.66 333.33 129.32 333.66 130 334 C130 335.32 130 336.64 130 338 C130.99 338 131.98 338 133 338 C134.32 341.3 135.64 344.6 137 348 C138.299375 348.144375 139.59875 348.28875 140.9375 348.4375 C144.875 348.875 144.875 348.875 146 350 C148.32817964 350.36760731 150.6618385 350.70241581 153 351 C152.20873786 355.30200775 150.9770124 359.3479046 149.62109375 363.5 C148.96220165 366.15214432 148.75387481 368.27919787 149 371 C149.66 371.99 150.32 372.98 151 374 C151.38256836 376.46777344 151.38256836 376.46777344 151 379 C149.27172852 380.83691406 149.27172852 380.83691406 146.87890625 382.515625 C146.02619141 383.12664062 145.17347656 383.73765625 144.29492188 384.3671875 C143.39322266 384.98851562 142.49152344 385.60984375 141.5625 386.25 C139.79289817 387.50510883 138.0233633 388.76031207 136.25390625 390.015625 C135.46314697 390.56508789 134.6723877 391.11455078 133.85766602 391.68066406 C132.07635559 392.86795623 132.07635559 392.86795623 131 394 C129.12492879 393.93869553 127.24987703 393.87297735 125.37597656 393.78271484 C117.63805994 393.46424846 112.90367103 393.82801641 106.4921875 398.53125 C101.79620436 401.29878865 96.34660439 401.51394506 91 402 C91.15984375 402.886875 91.3196875 403.77375 91.484375 404.6875 C92.56625308 411.63774703 93.09012927 417.94054923 89 424 C84.33310135 427.11126577 79.47021076 426.49082515 74 426 C71.90234375 425.32421875 71.90234375 425.32421875 70.1875 424.5 C66.47786091 422.75428749 64.05573664 422.61738334 60 423 C58.65812182 423.6492959 57.32520503 424.31731862 56 425 C54.72125 425.12375 53.4425 425.2475 52.125 425.375 C47.90141343 425.79030629 45.4861489 427.59843076 42 430 C39.1875 430.3125 39.1875 430.3125 37 430 C36.67 429.67 36.34 429.34 36 429 C34.48530552 428.76807135 32.96245438 428.58784762 31.4375 428.4375 C30.61121094 428.35371094 29.78492188 428.26992188 28.93359375 428.18359375 C28.29550781 428.12300781 27.65742187 428.06242187 27 428 C26.34 426.35 25.68 424.7 25 423 C24.05898438 423.2165625 23.11796875 423.433125 22.1484375 423.65625 C20.28058594 424.07390625 20.28058594 424.07390625 18.375 424.5 C17.14523437 424.7784375 15.91546875 425.056875 14.6484375 425.34375 C7.38704068 426.64986849 3.8696553 425.72179318 -2.33984375 421.99609375 C-6.0375299 420.61149761 -8.17992673 421.02879493 -12 422 C-14.7893396 423.35524638 -17.40792853 424.96294659 -20.0625 426.5625 C-29.07650196 431.68146528 -35.86200353 432.22365654 -46.14453125 430.4609375 C-49.17607498 429.89376012 -49.17607498 429.89376012 -53 430 C-52.54625 430.7425 -52.0925 431.485 -51.625 432.25 C-51.08875 433.1575 -50.5525 434.065 -50 435 C-49.6397876 435.60561768 -49.2795752 436.21123535 -48.90844727 436.83520508 C-47.79036984 439.49954062 -47.78797383 441.50260223 -47.83984375 444.38671875 C-47.85080078 445.40701172 -47.86175781 446.42730469 -47.87304688 447.47851562 C-47.89431641 448.53748047 -47.91558594 449.59644531 -47.9375 450.6875 C-47.97176622 452.79550715 -48.00194456 454.90358612 -48.02734375 457.01171875 C-48.04531006 457.94459717 -48.06327637 458.87747559 -48.08178711 459.83862305 C-48.24599036 461.98063067 -48.24599036 461.98063067 -47 463 C-44.81360547 463.07258946 -42.62499611 463.08373783 -40.4375 463.0625 C-38.64119141 463.04896484 -38.64119141 463.04896484 -36.80859375 463.03515625 C-35.41833984 463.01775391 -35.41833984 463.01775391 -34 463 C-33.9175 464.0725 -33.835 465.145 -33.75 466.25 C-33.39137946 470.03542068 -33.39137946 470.03542068 -30.90625 471.8125 C-29 474 -29 474 -29.046875 477.234375 C-29.27890625 478.39453125 -29.5109375 479.5546875 -29.75 480.75 C-29.97171875 481.92046875 -30.1934375 483.0909375 -30.421875 484.296875 C-30.61265625 485.18890625 -30.8034375 486.0809375 -31 487 C-29.93845703 487.4021875 -29.93845703 487.4021875 -28.85546875 487.8125 C-16.45949869 492.96759562 -16.45949869 492.96759562 -13.84375 498.40234375 C-13.29836425 501.00495664 -13.04961288 503.3399863 -13 506 C-12.88011719 507.258125 -12.76023437 508.51625 -12.63671875 509.8125 C-12.6678816 515.01791818 -15.32956816 518.14647332 -18.5 522.0625 C-19.04446777 522.75988281 -19.58893555 523.45726562 -20.14990234 524.17578125 C-23.91824817 528.90817424 -27.84403623 533.72133586 -33 537 C-33.66 537 -34.32 537 -35 537 C-35.061875 537.928125 -35.12375 538.85625 -35.1875 539.8125 C-36 543 -36 543 -37.9375 544.625 C-42.23884394 546.55621565 -46.59660648 548.3155951 -51 550 C-51.70268591 557.2610877 -50.3386481 560.66854828 -46.3359375 566.69140625 C-44.66789767 569.57389613 -44.48312361 571.72644953 -45 575 C-46.03125 575.28875 -47.0625 575.5775 -48.125 575.875 C-48.76308594 576.06320312 -49.40117187 576.25140625 -50.05859375 576.4453125 C-51.75480148 576.92994328 -53.47031165 577.34595568 -55.1875 577.75 C-59.15859466 579.51493096 -60.15999492 581.0473965 -62 585 C-62.37912178 588.04533693 -62.56178451 591.02979782 -62.62890625 594.09765625 C-63.05680741 597.4442937 -63.96528218 599.32552457 -66 602 C-68.875 602.6875 -68.875 602.6875 -72 602 C-74.14529451 600.16197423 -75.38071516 598.38130124 -77 596 C-77 595.34 -77 594.68 -77 594 C-77.72445313 594.144375 -78.44890625 594.28875 -79.1953125 594.4375 C-84.18491623 595.39550392 -88.89267738 596.27607149 -94 596 C-93.835 596.86625 -93.67 597.7325 -93.5 598.625 C-92.34644599 607.22422077 -91.24307295 616.41945525 -96.1875 623.9765625 C-99.88165679 628.10064271 -104.38578129 631.00206129 -109 634 C-109.70640625 634.53109375 -110.4128125 635.0621875 -111.140625 635.609375 C-116.33460588 639.36762133 -120.69918669 639.58101762 -127 639 C-127.226875 639.804375 -127.45375 640.60875 -127.6875 641.4375 C-129 644 -129 644 -131.3125 644.8125 C-133.88912731 644.9922647 -136.41825375 645.07376418 -139 645 C-139.0825 645.9075 -139.165 646.815 -139.25 647.75 C-140.13034231 651.56481666 -141.02547297 652.53283377 -144 655 C-146.9453125 656.265625 -146.9453125 656.265625 -150.125 657.25 C-151.17945313 657.58515625 -152.23390625 657.9203125 -153.3203125 658.265625 C-156 659 -156 659 -158 659 C-158 660.65 -158 662.3 -158 664 C-157.401875 664.07605469 -156.80375 664.15210938 -156.1875 664.23046875 C-153.24530998 665.26548917 -152.59186337 666.66948772 -151 669.3125 C-149.31478458 672.01568819 -147.9205639 674.07734567 -145.625 676.3125 C-144 678 -144 678 -144 682 C-146.90600261 683.25664978 -148.79604584 684 -152 684 C-151.89558594 684.556875 -151.79117187 685.11375 -151.68359375 685.6875 C-151.24978657 689.76391036 -151.29474192 692.0862694 -153.86328125 695.4140625 C-159.86200319 700.97098005 -159.86200319 700.97098005 -163.14453125 701.0546875 C-165.94297244 699.46399461 -166.34889811 697.48329653 -167.4375 694.5 C-169.55339966 689.00654623 -172.03592553 684.08127052 -175 679 C-178.3 679.33 -181.6 679.66 -185 680 C-185 680.66 -185 681.32 -185 682 C-185.81984375 682.02578125 -186.6396875 682.0515625 -187.484375 682.078125 C-188.56203125 682.13484375 -189.6396875 682.1915625 -190.75 682.25 C-192.35101563 682.31960938 -192.35101563 682.31960938 -193.984375 682.390625 C-197.08358855 682.72448359 -197.08358855 682.72448359 -198.90625 684.93359375 C-201.79249399 687.78214426 -204.90599068 688.09502263 -208.75 688.8125 C-215.58067347 690.2917345 -220.56887277 692.2921073 -225 698 C-225.70702184 699.31238041 -226.3862831 700.64148103 -227 702 C-223.535 703.485 -223.535 703.485 -220 705 C-220.97819024 706.31322788 -221.9575811 707.62556152 -222.9375 708.9375 C-223.48277344 709.66839844 -224.02804687 710.39929688 -224.58984375 711.15234375 C-226 713 -226 713 -227 714 C-228.60875 714.1546875 -228.60875 714.1546875 -230.25 714.3125 C-234.02583266 714.66777568 -234.02583266 714.66777568 -236.26953125 717.03125 C-239.86399849 719.62296887 -242.0580315 719.37714466 -246.4375 719.1875 C-251.14619934 719.01169589 -255.37326744 719.0632118 -260 720 C-263.01926457 715.67324764 -264.00527284 711.50609937 -265.0625 706.4375 C-266.07882942 701.03847142 -266.07882942 701.03847142 -268.08984375 695.984375 C-269.83226249 692.18545345 -269.44349471 687.71207486 -269.56640625 683.58007812 C-269.64528608 681.7161135 -269.81540109 679.85647769 -270 678 C-270.66 677.67 -271.32 677.34 -272 677 C-272 676.34 -272 675.68 -272 675 C-266.4667853 671.39138172 -261.50799121 669.99518578 -255 669 C-256.56743577 663.82545242 -259.83443415 660.24873769 -263.25 656.1875 C-265.5132659 653.46897946 -267.76310514 650.74026116 -270 648 C-270.58072266 647.30084473 -271.16144531 646.60168945 -271.75976562 645.88134766 C-272.30826172 645.19476074 -272.85675781 644.50817383 -273.421875 643.80078125 C-273.9178418 643.19016846 -274.41380859 642.57955566 -274.92480469 641.95043945 C-276.28923614 639.47531619 -276.27163489 637.7862719 -276 635 C-271.79784706 628.84473373 -263.65446918 626.46947461 -257 624 C-256.83312552 621.58354218 -256.83312552 621.58354218 -257 619 C-257.66 618.34 -258.32 617.68 -259 617 C-261 615 -261 615 -261.41796875 612.60546875 C-261 610 -261 610 -258.98828125 608.05078125 C-257.66376953 607.19033203 -257.66376953 607.19033203 -256.3125 606.3125 C-255.44238281 605.73113281 -254.57226562 605.14976562 -253.67578125 604.55078125 C-251 603 -251 603 -246 601 C-246 597.37 -246 593.74 -246 590 C-246.99 589.67 -247.98 589.34 -249 589 C-249.9375 587.25 -249.9375 587.25 -250 585 C-248.71274093 583.29749607 -247.37868281 581.62935241 -246 580 C-246 579.01 -246 578.02 -246 577 C-246.93972656 576.74476563 -246.93972656 576.74476563 -247.8984375 576.484375 C-248.71570313 576.24203125 -249.53296875 575.9996875 -250.375 575.75 C-251.18710938 575.51796875 -251.99921875 575.2859375 -252.8359375 575.046875 C-255.45785454 573.7785108 -255.99382318 572.67576692 -257 570 C-253.72348984 566.05138519 -250.15900882 564.76804472 -245.375 563.375 C-240.25339025 562.00360695 -240.25339025 562.00360695 -236 559 C-235.31167791 553.01233791 -236.86993999 549.53383723 -239.8125 544.5625 C-244.25199423 536.77233578 -244.25199423 536.77233578 -245.5 532.375 C-247.11549386 528.74013881 -247.34853328 528.58858225 -250.625 526.9375 C-255.18327456 524.48627316 -257.16704461 521.04412903 -259.6875 516.6875 C-260.07462158 516.01912109 -260.46174316 515.35074219 -260.8605957 514.66210938 C-262.39918322 511.95605427 -263.87921388 509.24457313 -265.2578125 506.453125 C-268.66248159 499.94642406 -274.42384693 497.76890656 -281 495 C-281 494.34 -281 493.68 -281 493 C-281.71027344 492.8865625 -282.42054688 492.773125 -283.15234375 492.65625 C-288.2930956 491.47154999 -292.79184876 489.1676381 -297 486 C-298.21484375 483.77734375 -298.21484375 483.77734375 -299 481.4375 C-300.03786728 478.45363158 -300.5737123 477.2797513 -303.25 475.5234375 C-306.13629473 474.25248385 -309.05057876 473.11629994 -312 472 C-323.89303353 466.86371423 -323.89303353 466.86371423 -326.8125 462.25 C-329.16212475 458.75343377 -329.16212475 458.75343377 -332.8125 457.5625 C-333.864375 457.376875 -334.91625 457.19125 -336 457 C-336.04898438 456.10796875 -336.09796875 455.2159375 -336.1484375 454.296875 C-336.26058594 452.54117188 -336.26058594 452.54117188 -336.375 450.75 C-336.47941406 449.00976562 -336.47941406 449.00976562 -336.5859375 447.234375 C-336.96732328 444.25524837 -337.56785655 442.57081487 -339 440 C-338.875 437.875 -338.875 437.875 -338 436 C-335.9375 434.75 -335.9375 434.75 -334 434 C-333.69778955 430.49435874 -333.58308178 428.60716246 -335.609375 425.65625 C-336.66898438 424.58890625 -336.66898438 424.58890625 -337.75 423.5 C-346 414.81117021 -346 414.81117021 -346 410 C-347.65 410 -349.3 410 -351 410 C-351.33 409.34 -351.66 408.68 -352 408 C-355.11785113 408.64644661 -355.11785113 408.64644661 -356 411 C-358.31 410.67 -360.62 410.34 -363 410 C-363 406.7 -363 403.4 -363 400 C-364.381875 399.773125 -365.76375 399.54625 -367.1875 399.3125 C-371.73079987 398.28613052 -374.29640492 396.96527278 -377 393 C-377.40678388 387.16943112 -373.67367873 381.32281419 -370 377 C-367.33203125 375.4453125 -367.33203125 375.4453125 -364.4375 374.125 C-359.54609954 371.82199327 -357.98127024 369.84095182 -356 364.8125 C-355.67 363.78769531 -355.34 362.76289063 -355 361.70703125 C-354.00734928 359.01989472 -353.26256147 357.71459736 -351 356 C-350.34 356 -349.68 356 -349 356 C-349.39695637 354.37007308 -349.81832493 352.74607765 -350.25 351.125 C-350.48203125 350.22007812 -350.7140625 349.31515625 -350.953125 348.3828125 C-352.21705027 345.50596767 -353.1545367 345.13597954 -356 344 C-356.66 343.34 -357.32 342.68 -358 342 C-360.58620351 341.68308587 -360.58620351 341.68308587 -363.6015625 341.68359375 C-364.73207031 341.64041016 -365.86257813 341.59722656 -367.02734375 341.55273438 C-369.40164146 341.47668467 -371.77693363 341.42665677 -374.15234375 341.40429688 C-382.811905 341.00711428 -382.811905 341.00711428 -386.43774414 337.93359375 C-388.51171875 335.46484375 -388.51171875 335.46484375 -390.21362305 333.00366211 C-392.46947646 330.47341898 -393.86513079 330.33456778 -397.1875 330.125 C-398.02925781 330.11726563 -398.87101562 330.10953125 -399.73828125 330.1015625 C-402.77563268 329.96517021 -404.55358751 328.7268794 -407 327 C-408.32402004 326.63140834 -409.65705028 326.2921899 -411 326 C-411.18175781 325.07767578 -411.18175781 325.07767578 -411.3671875 324.13671875 C-411.61855469 322.92435547 -411.61855469 322.92435547 -411.875 321.6875 C-412.03742188 320.88699219 -412.19984375 320.08648437 -412.3671875 319.26171875 C-412.94478999 316.74698882 -412.94478999 316.74698882 -415 314 C-415.1953125 311.51953125 -415.1953125 311.51953125 -415.125 308.8125 C-415.10695313 307.91144531 -415.08890625 307.01039063 -415.0703125 306.08203125 C-415.04710937 305.39496094 -415.02390625 304.70789063 -415 304 C-413.5459375 303.566875 -413.5459375 303.566875 -412.0625 303.125 C-408.89335797 302.35785318 -408.89335797 302.35785318 -408 300 C-408.03480469 299.08992188 -408.06960938 298.17984375 -408.10546875 297.2421875 C-408.1961904 293.5182799 -408.04417614 290.5877892 -407 287 C-403.43832338 283.47488018 -398.26784617 279 -393 279 C-390.50840498 273.3939112 -389.88022531 267.01389484 -391 261 C-392.22203125 259.72382812 -392.22203125 259.72382812 -393.46875 258.421875 C-398.14472937 253.31507133 -396.87588371 245.33433567 -397.00585938 238.828125 C-397.32096608 231.56806654 -398.59592137 227.22070607 -402.67456055 221.21142578 C-404.56277107 218.06104618 -404.56663679 215.4324958 -404.4375 211.8125 C-404.59346027 207.16890886 -404.69916795 204.39105981 -408 201 C-409.29785187 199.95436226 -410.63340319 198.95403928 -412 198 C-412.66257812 197.48179687 -413.32515625 196.96359375 -414.0078125 196.4296875 C-419.23712461 192.58971293 -424.79668209 190.33964043 -430.88671875 188.17578125 C-437.15528455 185.80835552 -440.68169949 183.9984663 -444 178 C-444 177.34 -444 176.68 -444 176 C-447.465 176.99 -447.465 176.99 -451 178 C-450.94199219 177.33613281 -450.88398438 176.67226562 -450.82421875 175.98828125 C-450.40410143 170.07189056 -450.40410143 170.07189056 -453.4375 165.1875 C-454.283125 164.465625 -455.12875 163.74375 -456 163 C-457.35389534 158.59074071 -457.18538421 153.98486764 -457.24609375 149.41015625 C-457.27902496 147.72199988 -457.31223673 146.03384897 -457.34570312 144.34570312 C-457.39309877 141.70161577 -457.43757342 139.05755166 -457.47680664 136.41333008 C-457.51666807 133.84954789 -457.56816464 131.2861974 -457.62109375 128.72265625 C-457.63371498 127.54583031 -457.63371498 127.54583031 -457.64659119 126.3452301 C-457.77763606 120.485165 -458.68384406 115.97423391 -462 111 C-462.375 108.0625 -462.375 108.0625 -462 105 C-460.25 103 -460.25 103 -458 101 C-455.00221484 97.32035087 -455.00221484 97.32035087 -453.875 92.875 C-454.99152877 90.67702644 -454.99152877 90.67702644 -458.0625 89.1875 C-461 87 -461 87 -461.8125 83.6875 C-460.93261796 79.69418922 -460.55243053 79.34827989 -457.625 76.875 C-453.18502991 72.91550764 -453.05423919 69.03427149 -452.46484375 63.3125 C-451.79174407 58.51595773 -450.03078127 54.36716555 -448 50 C-445.03 50 -442.06 50 -439 50 C-439 49.34 -439 48.68 -439 48 C-438.01 47.505 -438.01 47.505 -437 47 C-436.26433104 45.23554397 -435.60880473 43.43714533 -435 41.625 C-433.88813688 38.3328428 -432.94080225 35.91120337 -431 33 C-424.41135953 31.7716094 -419.96416975 33.59050108 -414.1875 36.5625 C-413.54143799 36.88452393 -412.89537598 37.20654785 -412.22973633 37.53833008 C-407.3326881 40.2244666 -405.256791 42.87691971 -403 48 C-402.63038457 50.238516 -402.33838598 52.49123134 -402.125 54.75 C-401.29172764 59.4016204 -400.43060388 62.02405273 -396.6640625 64.82421875 C-395.36969381 65.71057279 -394.06468302 66.58156638 -392.75 67.4375 C-386.4035694 71.58714996 -386.4035694 71.58714996 -385.44824219 74.93164062 C-385.13950107 79.41363752 -385.93038116 83.64512331 -387 88 C-386.30132812 88.13535156 -385.60265625 88.27070313 -384.8828125 88.41015625 C-377.53800616 90.14752546 -377.53800616 90.14752546 -375.890625 92.7578125 C-375.375 94.6875 -375.375 94.6875 -375 98 C-373.88625 97.9071875 -373.88625 97.9071875 -372.75 97.8125 C-369.49665015 98.03431931 -368.45698908 98.9525091 -366 101 C-364.515 101.495 -364.515 101.495 -363 102 C-362.91057077 105.84545686 -363.18807837 109.24725989 -364 113 C-363.19175781 113.39832031 -362.38351562 113.79664063 -361.55078125 114.20703125 C-360.48214844 114.73683594 -359.41351563 115.26664062 -358.3125 115.8125 C-357.25675781 116.33457031 -356.20101562 116.85664063 -355.11328125 117.39453125 C-347.1936857 121.47853849 -347.1936857 121.47853849 -346.1875 124.1875 C-346.125625 124.785625 -346.06375 125.38375 -346 126 C-351.75 130 -351.75 130 -354 130 C-354 131.65 -354 133.3 -354 135 C-352.83984375 134.91298828 -352.83984375 134.91298828 -351.65625 134.82421875 C-345.11337756 134.54080225 -341.01544103 134.70616954 -335.9140625 139.00390625 C-332.99640393 140.52227959 -331.14532733 139.79297155 -328 139 C-325.46938956 138.186492 -323.03059644 137.34328439 -320.5625 136.375 C-319.89436279 136.1157373 -319.22622559 135.85647461 -318.5378418 135.58935547 C-314.63121899 133.97305316 -311.99073163 132.38660882 -309.3125 129.125 C-307.17587285 126.59125106 -306.33546901 126.0570733 -302.9921875 125.48828125 C-299.90394762 125.44082603 -297.04460169 125.47793628 -294 126 C-292 128 -292 128 -291 131.5625 C-290.67 132.696875 -290.34 133.83125 -290 135 C-286.07131408 136.96434296 -281.27231475 136.61033068 -277 136 C-275.33700035 133.58944746 -275.33700035 133.58944746 -274 131 C-271.01624115 130.23382684 -268.07231582 130.07085005 -265 130 C-265 132.64 -265 135.28 -265 138 C-264.071875 137.95875 -263.14375 137.9175 -262.1875 137.875 C-259 138 -259 138 -256 140 C-253.87662229 140.36433373 -253.87662229 140.36433373 -251.55078125 140.4140625 C-250.27944336 140.47207031 -250.27944336 140.47207031 -248.98242188 140.53125 C-248.10134766 140.5621875 -247.22027344 140.593125 -246.3125 140.625 C-244.97348633 140.68300781 -244.97348633 140.68300781 -243.60742188 140.7421875 C-241.4051538 140.83640218 -239.20289278 140.92201588 -237 141 C-236.9071875 140.2575 -236.814375 139.515 -236.71875 138.75 C-235.69418158 134.82991213 -233.37834633 132.89274545 -230.59375 130.0625 C-227.87391542 126.54271407 -228 123.35859732 -228 119 C-225.5625 117.375 -225.5625 117.375 -223 116 C-221.78600131 113.94468061 -221.78600131 113.94468061 -222 111.12890625 C-222 102.31897843 -220.23678152 97.72550955 -214.32421875 91.20703125 C-208.96837164 86.12122685 -208.96837164 86.12122685 -205.37890625 85.671875 C-204.44949219 85.69765625 -203.52007812 85.7234375 -202.5625 85.75 C-201.17224609 85.77320312 -201.17224609 85.77320312 -199.75390625 85.796875 C-197.09382675 85.99307945 -194.59968046 86.41495394 -192 87 C-187.13721851 81.96402355 -184.69947404 77.91782437 -183.625 70.9375 C-182.50006078 64.35162163 -180.40508587 61.4772325 -175.15625 57.453125 C-170.0307377 53.99897541 -170.0307377 53.99897541 -168.125 54.0625 C-165.01659195 55.43385649 -163.19245258 57.44213866 -161 60 C-161 60.99 -161 61.98 -161 63 C-162.32 63.33 -163.64 63.66 -165 64 C-165 64.66 -165 65.32 -165 66 C-163.94039063 66.07347656 -163.94039063 66.07347656 -162.859375 66.1484375 C-152.5523391 66.89945268 -142.27958611 67.94436952 -132 69 C-132 68.01 -132 67.02 -132 66 C-131.34 66 -130.68 66 -130 66 C-129.95875 65.319375 -129.9175 64.63875 -129.875 63.9375 C-128.95362769 60.84432152 -128.26987165 60.12875945 -126.0625 57.9375 C-121.84078535 53.38169283 -121.56949384 47.97968533 -121 42 C-111.82099151 41.69232374 -103.06792566 42.63031332 -94 44 C-92.71738281 44.16628906 -91.43476563 44.33257812 -90.11328125 44.50390625 C-87 45 -87 45 -86 46 C-85.61155226 51.75816651 -86.04820683 57.40624402 -86.9765625 63.08984375 C-87.18398006 65.33596903 -87.18398006 65.33596903 -85 68 C-81.81762137 68.4431098 -81.81762137 68.4431098 -78.1875 68.3125 C-76.96417969 68.30863281 -75.74085938 68.30476563 -74.48046875 68.30078125 C-71.16952851 68.01465061 -68.99349916 67.35602953 -66 66 C-64.7625 65.71125 -63.525 65.4225 -62.25 65.125 C-58.20866786 64.17229052 -54.62161397 62.58941155 -50.8828125 60.8046875 C-49 60 -49 60 -47 60 C-47.14308594 58.98679687 -47.14308594 58.98679687 -47.2890625 57.953125 C-47.39992188 57.06109375 -47.51078125 56.1690625 -47.625 55.25 C-47.79902344 53.92742187 -47.79902344 53.92742187 -47.9765625 52.578125 C-48.00430715 49.52621376 -48.00874608 48.33095096 -46 46 C-43.21410052 44.93227985 -40.36092237 44.37809274 -37.4375 43.8125 C-32.30816742 43.1770458 -32.30816742 43.1770458 -28 41 C-27.7499227 38.54190002 -27.7499227 38.54190002 -28 36 C-30.43914492 33.56085508 -31.21446431 33.71337477 -34.5703125 33.5859375 C-35.46621094 33.54726562 -36.36210937 33.50859375 -37.28515625 33.46875 C-38.22230469 33.4378125 -39.15945313 33.406875 -40.125 33.375 C-41.06988281 33.33632812 -42.01476562 33.29765625 -42.98828125 33.2578125 C-45.32532375 33.16338654 -47.66235501 33.07781606 -50 33 C-49.18151146 28.81145722 -47.59746446 27.52867358 -44.1875 24.9375 C-42.87845703 23.93009766 -42.87845703 23.93009766 -41.54296875 22.90234375 C-40.28419922 21.96068359 -40.28419922 21.96068359 -39 21 C-38.33613281 20.40316406 -37.67226563 19.80632813 -36.98828125 19.19140625 C-35 18 -35 18 -32.578125 18.2109375 C-29.96691945 19.01012465 -27.35619995 19.80960996 -24.75 20.625 C-19.6675467 21.98441963 -15.01336025 23.06377048 -10 21 C-7.26445205 18.59868253 -5.12929831 15.94045958 -3 13 C-2.67 12.67 -2.34 12.34 -2 12 C-1.79162581 10.17093765 -1.63250341 8.33611866 -1.5 6.5 C-1.11111111 1.11111111 -1.11111111 1.11111111 0 0 Z " fill="#010101" transform="translate(499,40)"/>
<path d="M0 0 C3.90285767 1.58667578 6.33520982 4.13350481 9.25 7.125 C10.14203125 8.03507813 11.0340625 8.94515625 11.953125 9.8828125 C12.62859375 10.58148437 13.3040625 11.28015625 14 12 C12.75023244 15.65316671 12.32901247 16.78065836 9 19 C4.92509248 19.33957563 3.46998729 19.31332486 0 17 C-1.07498367 12.34173741 -0.92993295 8.64966473 0 4 C0 2.68 0 1.36 0 0 Z " fill="#0C0C0C" transform="translate(281,687)"/>
<path d="M0 0 C0.66 0 1.32 0 2 0 C2.33 1.98 2.66 3.96 3 6 C5.64 6.66 8.28 7.32 11 8 C10.67 8.99 10.34 9.98 10 11 C7.69 11 5.38 11 3 11 C3.350625 11.61875 3.70125 12.2375 4.0625 12.875 C4.371875 13.57625 4.68125 14.2775 5 15 C4.67 15.66 4.34 16.32 4 17 C0.21388773 16.45912682 -1.55400767 14.88277668 -4 12 C-4 11.34 -4 10.68 -4 10 C-4.928125 9.566875 -4.928125 9.566875 -5.875 9.125 C-8 8 -8 8 -10 6 C-9.625 3.875 -9.625 3.875 -9 2 C-6 2 -6 2 -3.3125 4.5 C-2.549375 5.325 -1.78625 6.15 -1 7 C-1.020625 6.030625 -1.04125 5.06125 -1.0625 4.0625 C-1 1 -1 1 0 0 Z " fill="#0D0D0D" transform="translate(612,208)"/>
<path d="M0 0 C0.99 0.33 1.98 0.66 3 1 C2.01 1.495 2.01 1.495 1 2 C2.32 2.66 3.64 3.32 5 4 C4.34 5.32 3.68 6.64 3 8 C1.35 8 -0.3 8 -2 8 C-1.814375 8.598125 -1.62875 9.19625 -1.4375 9.8125 C-1 12 -1 12 -2 15 C-6.29 15 -10.58 15 -15 15 C-13.84034227 10.36136907 -12.87724622 9.74127494 -9.1875 6.9375 C-7.87845703 5.93009766 -7.87845703 5.93009766 -6.54296875 4.90234375 C-5.70378906 4.27457031 -4.86460937 3.64679687 -4 3 C-3.29488281 2.40316406 -2.58976562 1.80632813 -1.86328125 1.19140625 C-1.24839844 0.79824219 -0.63351562 0.40507813 0 0 Z " fill="#151515" transform="translate(464,58)"/>
<path d="M0 0 C1.08152344 -0.01417969 2.16304687 -0.02835938 3.27734375 -0.04296875 C6.0625 0.1875 6.0625 0.1875 8.0625 2.1875 C8.46297444 4.51025177 8.8022104 6.84489357 9.0625 9.1875 C8.4025 9.1875 7.7425 9.1875 7.0625 9.1875 C7.0625 8.1975 7.0625 7.2075 7.0625 6.1875 C6.0725 6.5175 5.0825 6.8475 4.0625 7.1875 C4.3925 8.8375 4.7225 10.4875 5.0625 12.1875 C0.83569899 11.47696017 -0.69538698 9.52738329 -3.375 6.3671875 C-4.89105377 4.94284741 -4.89105377 4.94284741 -7.015625 5.41015625 C-9.21949866 6.30156043 -10.38889279 7.4066017 -11.9375 9.1875 C-12.9275 8.8575 -13.9175 8.5275 -14.9375 8.1875 C-14.37160156 7.69378906 -13.80570313 7.20007813 -13.22265625 6.69140625 C-12.48917969 6.05074219 -11.75570312 5.41007813 -11 4.75 C-10.26910156 4.11191406 -9.53820312 3.47382813 -8.78515625 2.81640625 C-5.5667391 -0.02097208 -4.476371 0.02661338 0 0 Z " fill="#222222" transform="translate(198.9375,165.8125)"/>
<path d="M0 0 C2.375 0.75 2.375 0.75 5 2 C5.28875 2.66 5.5775 3.32 5.875 4 C6.93291478 6.42023525 6.93291478 6.42023525 10.5 7.0625 C12.2325 7.5265625 12.2325 7.5265625 14 8 C16 11 16 11 16 15 C15.34 15 14.68 15 14 15 C13.67 13.02 13.34 11.04 13 9 C12.22914063 9.03480469 11.45828125 9.06960938 10.6640625 9.10546875 C9.66117188 9.13253906 8.65828125 9.15960938 7.625 9.1875 C6.12839844 9.23970703 6.12839844 9.23970703 4.6015625 9.29296875 C3.74304688 9.19628906 2.88453125 9.09960938 2 9 C-0.29013653 5.5647952 -0.17842973 4.014669 0 0 Z " fill="#191919" transform="translate(610,358)"/>
<path d="M0 0 C0.66 0.33 1.32 0.66 2 1 C1.01 2.32 0.02 3.64 -1 5 C-0.34 5 0.32 5 1 5 C1 5.66 1 6.32 1 7 C2.32 7.66 3.64 8.32 5 9 C5 9.33 5 9.66 5 10 C0.71 10 -3.58 10 -8 10 C-6.95475221 5.81900884 -6.5894258 5.27154064 -3.4375 2.75 C-2.79683594 2.22921875 -2.15617187 1.7084375 -1.49609375 1.171875 C-1.00238281 0.78515625 -0.50867188 0.3984375 0 0 Z " fill="#272727" transform="translate(457,63)"/>
<path d="M0 0 C2.625 0.375 2.625 0.375 5 1 C4.67 1.66 4.34 2.32 4 3 C6.475 3.495 6.475 3.495 9 4 C9 4.33 9 4.66 9 5 C6.33326258 5.02727345 3.66681131 5.04696948 1 5.0625 C-0.11568359 5.07506836 -0.11568359 5.07506836 -1.25390625 5.08789062 C-6.26148844 5.10966272 -11.04279032 4.71541549 -16 4 C-16 3.67 -16 3.34 -16 3 C-15.01257813 2.95101563 -14.02515625 2.90203125 -13.0078125 2.8515625 C-11.72648437 2.77679688 -10.44515625 2.70203125 -9.125 2.625 C-7.21074219 2.52058594 -7.21074219 2.52058594 -5.2578125 2.4140625 C-1.91938301 2.32758894 -1.91938301 2.32758894 0 0 Z " fill="#3B3B3B" transform="translate(131,376)"/>
<path d="M0 0 C0.33 0 0.66 0 1 0 C1 3.3 1 6.6 1 10 C2.32 10 3.64 10 5 10 C5.268125 9.360625 5.53625 8.72125 5.8125 8.0625 C7 6 7 6 10 5 C10.99 6.485 10.99 6.485 12 8 C10.35 9.65 8.7 11.3 7 13 C4.69 12.34 2.38 11.68 0 11 C0 7.37 0 3.74 0 0 Z " fill="#262626" transform="translate(163,486)"/>
<path d="M0 0 C0.98484375 0.02707031 1.9696875 0.05414063 2.984375 0.08203125 C3.73203125 0.11683594 4.4796875 0.15164062 5.25 0.1875 C5.25 0.5175 5.25 0.8475 5.25 1.1875 C4.63253906 1.15527344 4.01507813 1.12304688 3.37890625 1.08984375 C-2.67271831 1.17274272 -5.58238859 2.39596807 -9.875 6.75 C-11.19006549 8.20840308 -12.49014226 9.68114835 -13.75 11.1875 C-14.41 10.8575 -15.07 10.5275 -15.75 10.1875 C-14.83877273 9.07884015 -13.92073341 7.97577781 -13 6.875 C-12.48953125 6.26011719 -11.9790625 5.64523438 -11.453125 5.01171875 C-7.73197248 1.02598887 -5.53743295 -0.19776546 0 0 Z " fill="#393939" transform="translate(296.75,125.8125)"/>
<path d="M0 0 C-2.19141782 2.19141782 -7.05417422 1.45133519 -10.01953125 1.62109375 C-12.83706812 1.97928651 -14.58747996 2.55716114 -17 4 C-16.67 3.01 -16.34 2.02 -16 1 C-13.63780647 -0.18109676 -11.74989148 -0.35238516 -9.125 -0.625 C-8.26132812 -0.72039062 -7.39765625 -0.81578125 -6.5078125 -0.9140625 C-4.09358507 -0.99679303 -2.29257465 -0.71443024 0 0 Z " fill="#484848" transform="translate(577,81)"/>
<path d="M0 0 C2.3125 -0.25 2.3125 -0.25 5 0 C6.8125 1.75 6.8125 1.75 8 4 C8 5.32 8 6.64 8 8 C7.34 8 6.68 8 6 8 C5.67 6.02 5.34 4.04 5 2 C3.35 2 1.7 2 0 2 C0 1.34 0 0.68 0 0 Z " fill="#464646" transform="translate(618,365)"/>
<path d="M0 0 C0 3.54404336 -0.60989485 4.10267905 -2.875 6.6875 C-3.40867187 7.31011719 -3.94234375 7.93273437 -4.4921875 8.57421875 C-6 10 -6 10 -8 10 C-6.34908222 5.70761377 -3.26245434 3.1206085 0 0 Z " fill="#707070" transform="translate(594,343)"/>
<path d="M0 0 C0.66 0.33 1.32 0.66 2 1 C1.67 2.32 1.34 3.64 1 5 C-0.32 5 -1.64 5 -3 5 C-3.33 4.01 -3.66 3.02 -4 2 C-2.125 0.9375 -2.125 0.9375 0 0 Z " fill="#121212" transform="translate(178,501)"/>
<path d="M0 0 C3.63 0 7.26 0 11 0 C11 0.33 11 0.66 11 1 C9.88625 1.12375 8.7725 1.2475 7.625 1.375 C3.96896323 1.6465813 3.96896323 1.6465813 2 4 C1.01 4 0.02 4 -1 4 C-0.67 2.68 -0.34 1.36 0 0 Z " fill="#212121" transform="translate(414,109)"/>
<path d="M0 0 C0.33 0.99 0.66 1.98 1 3 C-4.29230769 7.92307692 -4.29230769 7.92307692 -7.875 8.3125 C-8.926875 8.1578125 -8.926875 8.1578125 -10 8 C-9.4225 7.7525 -8.845 7.505 -8.25 7.25 C-5.86550111 6.06009525 -5.86550111 6.06009525 -3.875 3.875 C-2.946875 2.946875 -2.946875 2.946875 -2 2 C-1.34 2 -0.68 2 0 2 C0 1.34 0 0.68 0 0 Z " fill="#3C3C3C" transform="translate(556,113)"/>
<path d="M0 0 C0.33 0 0.66 0 1 0 C1 1.98 1 3.96 1 6 C1.66 6 2.32 6 3 6 C3 6.99 3 7.98 3 9 C3.66 9.33 4.32 9.66 5 10 C4.01 10 3.02 10 2 10 C1.67 9.34 1.34 8.68 1 8 C0.34 8 -0.32 8 -1 8 C-0.67 5.36 -0.34 2.72 0 0 Z " fill="#7E7E7E" transform="translate(595,345)"/>
</svg>
