<?xml version="1.0" encoding="UTF-8"?>
<svg version="1.1" xmlns="http://www.w3.org/2000/svg" width="687" height="669">
<path d="M0 0 C3.2107771 1.24052752 3.53183893 2.04905411 5.3125 4.875 C8.89751443 9.80852124 12.85080458 11.24509613 18.5 13.125 C28.38192667 16.75677338 37.4946866 20.78775061 43.72265625 29.70703125 C45.42383232 33.60744634 45.22867685 37.56842864 45.33984375 41.7734375 C45.79667522 45.43679082 46.84613321 47.40673624 48.8125 50.5 C52.15130045 55.96708795 52.06180921 60.06556965 51.77734375 66.3515625 C51.74714888 70.44943729 52.22511246 74.17712574 53 78.1875 C53.23203125 79.40695313 53.4640625 80.62640625 53.703125 81.8828125 C54.50224906 85.13335943 54.50224906 85.13335943 56.83203125 87.09375 C58.75 89.0625 58.75 89.0625 59.24609375 92.0859375 C59.22675781 93.19195312 59.20742188 94.29796875 59.1875 95.4375 C59.18556641 97.08878906 59.18556641 97.08878906 59.18359375 98.7734375 C58.67986095 102.59454579 57.91307995 104.86202457 55.75 108.0625 C53.39974323 109.51289627 51.13765802 110.76153044 48.6875 112 C43.96839214 114.61208815 43.96839214 114.61208815 40.93603516 118.90234375 C40.13044188 122.27253212 39.98790093 125.43167771 39.890625 128.90234375 C39.75 132.0625 39.75 132.0625 37.75 134.0625 C35.125 134.1875 35.125 134.1875 32.75 134.0625 C33.08255792 139.96826999 33.55454095 144.00302316 36.75 149.0625 C37.28920564 151.738371 37.51884017 154.33481405 37.75 157.0625 C38.86375 157.18625 39.9775 157.31 41.125 157.4375 C44.75 158.0625 44.75 158.0625 46.75 160.0625 C48.32984876 160.18468255 49.91547906 160.23799605 51.5 160.25 C55.70477555 160.56688164 57.6038932 161.29135002 60.375 164.5 C62.75 167.6426105 62.75 167.6426105 62.75 170.0625 C64.01275757 170.15954224 64.01275757 170.15954224 65.30102539 170.25854492 C68.4543146 170.51142452 71.60513266 170.78399568 74.75561523 171.06958008 C76.11367802 171.18870274 77.47243509 171.3001873 78.83178711 171.40356445 C92.91833931 172.48475777 92.91833931 172.48475777 98.75 178.0625 C100.76514721 181.08522081 101.75 182.9296654 101.75 186.5625 C100.64102466 189.33493835 99.04850888 191.08406897 97.046875 193.265625 C95.48555277 195.42890279 94.94528102 197.4482884 94.1875 200 C92.45794733 204.77753484 90.43380887 206.12684557 85.9375 208.375 C79.44492136 211.70493604 76.88258985 215.82086994 73.6640625 222.07421875 C72.48044346 224.9473248 72.48044346 224.9473248 73.453125 227.359375 C76.55882797 231.43794879 81.373252 232.73300063 86.078125 234.21875 C87.75 235.0625 87.75 235.0625 88.75 238.0625 C88.87781786 240.73644964 88.79391871 243.38345857 88.75 246.0625 C90.73 246.0625 92.71 246.0625 94.75 246.0625 C95.41 244.7425 96.07 243.4225 96.75 242.0625 C97.74 242.3925 98.73 242.7225 99.75 243.0625 C99.75 243.7225 99.75 244.3825 99.75 245.0625 C101.73 245.0625 103.71 245.0625 105.75 245.0625 C105.96269531 245.908125 106.17539062 246.75375 106.39453125 247.625 C108.32484993 252.52033267 111.56148374 255.94880887 115.02539062 259.8515625 C118.76064687 264.30834656 118.76064687 264.30834656 118.703125 268.3828125 C117.59621794 271.49485448 116.6231911 272.49530485 113.75 274.0625 C113.09 274.0625 112.43 274.0625 111.75 274.0625 C112.08 275.7125 112.41 277.3625 112.75 279.0625 C113.41 279.0625 114.07 279.0625 114.75 279.0625 C116.16634833 281.89519666 116.0963005 284.53716438 116.3125 287.6875 C116.43818359 289.47027344 116.43818359 289.47027344 116.56640625 291.2890625 C116.62699219 292.20429688 116.68757813 293.11953125 116.75 294.0625 C117.78125 294.413125 118.8125 294.76375 119.875 295.125 C122.91212804 296.40600648 124.39535084 297.65476986 126.3125 300.3125 C131.33071576 306.69686075 140.62231195 310.22871002 148.25 312.4375 C153.13630324 314.70614079 155.45192833 318.25744106 157.75 323.0625 C157.75 324.0525 157.75 325.0425 157.75 326.0625 C158.52472656 326.28808594 159.29945313 326.51367188 160.09765625 326.74609375 C164.99430796 328.51098319 169.5513671 330.76957158 174.1875 333.125 C175.10337891 333.56521484 176.01925781 334.00542969 176.96289062 334.45898438 C187.0019376 339.5830062 191.73279708 347.4879707 196.89648438 357.17382812 C199.51440028 361.95645656 202.03416639 365.06159706 206.75 367.8125 C210.62051693 370.7153877 211.92925831 373.67616775 213.75 378.0625 C215.43556539 382.09319985 217.18723973 385.82681511 219.4375 389.5625 C221.68572493 393.56161526 222.57078941 396.41136003 221.75 401.0625 C218.26507638 406.60669667 210.23926909 408.35128026 204.25 410.0625 C201.63077384 410.85055329 201.63077384 410.85055329 200.3125 413.0625 C199.4942442 415.11154906 199.4942442 415.11154906 200.75 417.0625 C203.09386809 417.97281272 203.09386809 417.97281272 205.8125 418.6875 C207.19115234 419.07808594 207.19115234 419.07808594 208.59765625 419.4765625 C209.30792969 419.66992188 210.01820313 419.86328125 210.75 420.0625 C209.96258341 424.8615969 208.25483074 427.94164943 205.75 432.0625 C207.07 432.7225 208.39 433.3825 209.75 434.0625 C210.73322232 438.36682883 211.04689504 441.80563276 209.75 446.0625 C205.58815774 450.16636634 199.97726362 452.59821858 194.75 455.0625 C195.27951214 458.4479978 195.56323539 459.84827001 197.875 462.5 C199.75 465.0625 199.75 465.0625 199.82421875 468.02734375 C198.75 471.0625 198.75 471.0625 195.51171875 472.8203125 C194.16216552 473.30068445 192.80335089 473.75564069 191.4375 474.1875 C186.73059344 475.75497602 182.92603753 477.04942795 179.75 481.0625 C179.03293018 483.04498715 178.36709587 485.04665349 177.75 487.0625 C176.7626546 488.73669438 175.76187895 490.40301852 174.75 492.0625 C174.3375 493.196875 173.925 494.33125 173.5 495.5 C171.3459829 499.88496339 168.60458805 502.17947935 164.75 505.0625 C166.4 507.0425 168.05 509.0225 169.75 511.0625 C169.09 512.7125 168.43 514.3625 167.75 516.0625 C164.625 516.9375 164.625 516.9375 160.75 517.0625 C159.265625 515.828125 159.265625 515.828125 157.875 514.1875 C155.37232872 511.24958154 153.71696371 510.57169637 149.875 510.1875 C148.5010514 510.11948274 147.12561758 510.06861386 145.75 510.0625 C145.7809375 512.0115625 145.7809375 512.0115625 145.8125 514 C145.83399454 515.35415633 145.82148199 516.71006083 145.75 518.0625 C144.75 519.0625 144.75 519.0625 142.68359375 519.16015625 C141.85988281 519.14855469 141.03617188 519.13695312 140.1875 519.125 C139.36121094 519.11597656 138.53492188 519.10695313 137.68359375 519.09765625 C137.04550781 519.08605469 136.40742187 519.07445312 135.75 519.0625 C135.853125 519.743125 135.95625 520.42375 136.0625 521.125 C135.75 524.0625 135.75 524.0625 133.375 526.9375 C129.8788196 531.47176198 129.85813316 536.37004705 129.27734375 541.91796875 C128.78054614 546.30722286 127.82734675 550.5329713 126.75 554.8125 C126.58363037 555.49175537 126.41726074 556.17101074 126.24584961 556.87084961 C125.42258583 560.06864772 124.60282076 562.28326886 122.75 565.0625 C119.125 565.75 119.125 565.75 115.75 566.0625 C115.605625 567.196875 115.46125 568.33125 115.3125 569.5 C114.75 573.0625 114.75 573.0625 113.75 574.0625 C112.06391034 574.13455511 110.37499341 574.14636068 108.6875 574.125 C107.76839844 574.11597656 106.84929687 574.10695313 105.90234375 574.09765625 C105.19207031 574.08605469 104.48179687 574.07445312 103.75 574.0625 C103.09 576.0425 102.43 578.0225 101.75 580.0625 C97.17168351 579.20008874 94.64323829 576.50682997 91.4375 573.3125 C90.87482422 572.7865625 90.31214844 572.260625 89.73242188 571.71875 C88.13671875 570.140625 88.13671875 570.140625 85.75 567.0625 C85.80150831 562.53620745 87.96752407 560.48097043 90.75 557.0625 C92.75116442 553.50098711 94.45782247 549.93903258 95.75 546.0625 C94.79738281 546.19269531 93.84476563 546.32289063 92.86328125 546.45703125 C90.98189453 546.66392578 90.98189453 546.66392578 89.0625 546.875 C87.82113281 547.02582031 86.57976562 547.17664063 85.30078125 547.33203125 C81.75 547.0625 81.75 547.0625 79.01953125 545.00390625 C76.58590443 541.84982536 74.84614056 538.77910382 73.125 535.1875 C72.55523437 534.01445313 71.98546875 532.84140625 71.3984375 531.6328125 C70.25964557 529.16632951 69.22228446 526.7367885 68.22265625 524.21875 C66.36811531 520.24403096 64.66145164 519.81866196 60.75 518.0625 C60.110625 517.155 59.47125 516.2475 58.8125 515.3125 C58.131875 514.57 57.45125 513.8275 56.75 513.0625 C53.11174137 512.80838432 53.11174137 512.80838432 49.75 514.0625 C48.66003129 515.8712281 48.66003129 515.8712281 47.75 518.0625 C45.76090431 521.47560738 43.75162953 524.46694101 40.75 527.0625 C38.02037747 527.53630545 35.74501581 527.39305712 32.99609375 527.12109375 C30.51726143 526.8308193 30.51726143 526.8308193 28.125 528.9375 C26.56891624 530.92051387 26.56891624 530.92051387 26.75 533.0625 C27.6575 533.64 28.565 534.2175 29.5 534.8125 C33.26154624 537.41664739 34.84458989 538.88525476 36.75 543.0625 C37.07182432 547.41750974 36.98276462 551.70462915 36.75 556.0625 C34.0234375 556.33984375 34.0234375 556.33984375 30.75 556.0625 C28.4765625 554.12890625 28.4765625 554.12890625 26.375 551.625 C22.62340269 547.53523232 22.62340269 547.53523232 17.5 545.9375 C14.365644 546.04197853 11.7868698 546.39587004 8.75 547.0625 C7.29128425 547.03758835 5.83283232 546.99404324 4.375 546.9375 C-2.519779 546.92617852 -6.36432293 549.30508676 -11.61035156 553.5456543 C-18.28217756 558.90480369 -18.28217756 558.90480369 -21.6953125 559.4609375 C-24.68190802 559.07521483 -27.40032922 558.01239026 -30.25 557.0625 C-38.1895555 556.27109553 -38.1895555 556.27109553 -45.3125 559.125 C-45.951875 559.764375 -46.59125 560.40375 -47.25 561.0625 C-48.24 560.7325 -49.23 560.4025 -50.25 560.0625 C-50.25 559.4025 -50.25 558.7425 -50.25 558.0625 C-50.91 558.0625 -51.57 558.0625 -52.25 558.0625 C-51.32749374 551.76843833 -48.14308162 546.66399845 -45.25 541.0625 C-49.87 541.0625 -54.49 541.0625 -59.25 541.0625 C-59.47119939 543.68700086 -59.67746669 546.31120486 -59.875 548.9375 C-59.93945312 549.68386719 -60.00390625 550.43023438 -60.0703125 551.19921875 C-60.21087365 553.1495047 -60.23759849 555.10719467 -60.25 557.0625 C-59.59 557.7225 -58.93 558.3825 -58.25 559.0625 C-58.58 560.7125 -58.91 562.3625 -59.25 564.0625 C-63.21 564.0625 -67.17 564.0625 -71.25 564.0625 C-71.91 565.7125 -72.57 567.3625 -73.25 569.0625 C-74.59928675 571.7663033 -75.99401886 574.02869882 -78.25 576.0625 C-84.2064436 577.02321671 -87.80222803 575.68550132 -93.25 573.0625 C-94.301875 572.876875 -95.35375 572.69125 -96.4375 572.5 C-100.42873939 570.4600332 -100.88453079 567.79488776 -102.3046875 563.68359375 C-103.56597597 560.18638482 -105.32102265 557.23153421 -107.25 554.0625 C-110.32972971 553.63025723 -112.27697483 553.36234996 -115.25 554.0625 C-117.30130907 555.93042801 -118.88897367 557.9554117 -120.59375 560.140625 C-122.88626437 562.80080676 -124.79097828 563.61132325 -128.25 564.0625 C-130.9375 563.6875 -130.9375 563.6875 -133.25 562.0625 C-134.09203005 560.06482666 -134.71359386 558.04140863 -135.359375 555.97265625 C-136.21748559 553.68077701 -136.21748559 553.68077701 -139.4375 552.0625 C-140.365625 551.7325 -141.29375 551.4025 -142.25 551.0625 C-142.31058594 551.95453125 -142.37117187 552.8465625 -142.43359375 553.765625 C-142.51738281 554.93609375 -142.60117187 556.1065625 -142.6875 557.3125 C-142.80931641 559.05273438 -142.80931641 559.05273438 -142.93359375 560.828125 C-143.35680198 565.15425362 -143.82382835 567.42324253 -146.25 571.0625 C-146.80133565 575.1351305 -146.80133565 575.1351305 -146.25 579.0625 C-144.26310269 580.41528115 -142.26254782 581.74818305 -140.25 583.0625 C-139.99298937 585.05433237 -139.74514807 587.0520477 -139.66015625 589.05859375 C-139.13535878 591.62260423 -138.17387922 592.34545211 -136.1875 594 C-133.57710655 596.34871587 -132.63663598 597.97863843 -132.25 601.5 C-132.47531984 604.60207781 -133.01152936 605.7985325 -135.11328125 608.125 C-139.67453684 611.61687031 -143.48292674 613.3306634 -149.1875 614 C-151.90955313 614.23921531 -151.90955313 614.23921531 -154.25 615.0625 C-156.18557167 617.74893999 -156.5556687 619.75107379 -157.25 623.0625 C-158.14203125 623.11148438 -159.0340625 623.16046875 -159.953125 623.2109375 C-161.12359375 623.28570313 -162.2940625 623.36046875 -163.5 623.4375 C-164.66015625 623.50710938 -165.8203125 623.57671875 -167.015625 623.6484375 C-169.9724758 624.02697154 -171.79859737 624.41251746 -174.25 626.0625 C-175.05528889 628.11250871 -175.05528889 628.11250871 -175.25 630.0625 C-176.85875 630.248125 -176.85875 630.248125 -178.5 630.4375 C-181.62863615 630.95893936 -183.58480424 631.46338254 -186.25 633.0625 C-186.6521875 631.6084375 -186.6521875 631.6084375 -187.0625 630.125 C-187.6503125 628.6090625 -187.6503125 628.6090625 -188.25 627.0625 C-189.24 626.7325 -190.23 626.4025 -191.25 626.0625 C-191.37117187 627.03832031 -191.49234375 628.01414062 -191.6171875 629.01953125 C-191.78476563 630.29183594 -191.95234375 631.56414063 -192.125 632.875 C-192.36863281 634.77185547 -192.36863281 634.77185547 -192.6171875 636.70703125 C-193.25 640.0625 -193.25 640.0625 -195.25 643.0625 C-195.91 643.0625 -196.57 643.0625 -197.25 643.0625 C-197.58 641.7425 -197.91 640.4225 -198.25 639.0625 C-199.36375 639.2171875 -199.36375 639.2171875 -200.5 639.375 C-203.25 639.0625 -203.25 639.0625 -205.5625 636.6875 C-207.25 634.0625 -207.25 634.0625 -207.25 632.0625 C-208.0234375 632.19011719 -208.796875 632.31773437 -209.59375 632.44921875 C-213.07531263 632.78100133 -215.82379888 632.81224328 -219.25 632.0625 C-223.99876235 627.95726152 -226.93311116 623.11029031 -228.05859375 616.95703125 C-228.8415857 613.50809911 -229.17645241 613.12303917 -232.12109375 610.69921875 C-233.29796128 610.02810421 -234.48767882 609.37915901 -235.6875 608.75 C-241.02272306 605.70971752 -244.94067387 602.53088975 -249 597.9375 C-252.37936382 594.32057021 -252.37936382 594.32057021 -256.765625 592.34375 C-263.06820126 592.58158307 -267.74734639 595.92539683 -272.70703125 599.56640625 C-275.56015642 601.24497298 -276.99972147 601.5679781 -280.25 601.0625 C-282.8125 598.6875 -282.8125 598.6875 -285.25 596.0625 C-285.94609375 595.7634375 -286.6421875 595.464375 -287.359375 595.15625 C-289.25 594.0625 -289.25 594.0625 -289.76171875 592.1796875 C-289.81972656 591.43976562 -289.87773437 590.69984375 -289.9375 589.9375 C-290.70438377 585.69273107 -291.96365222 584.05755454 -295.3125 581.375 C-301.01738038 576.767212 -304.42098246 571.09960748 -308.12841797 564.90136719 C-309.25542568 563.05360443 -310.43192284 561.24839452 -311.62890625 559.4453125 C-312.37763709 558.29689646 -313.12633627 557.14845979 -313.875 556 C-314.88433594 554.46666016 -314.88433594 554.46666016 -315.9140625 552.90234375 C-317.45333024 549.63027461 -317.33170482 548.43787211 -316.25 545.0625 C-315.54523469 541.06882992 -315.73729377 538.86732954 -317.9296875 535.42578125 C-321.77036388 530.15946817 -321.77036388 530.15946817 -327.25 527.0625 C-326.96311275 520.06245111 -325.74595688 515.15223134 -322.25 509.0625 C-324.23 507.7425 -326.21 506.4225 -328.25 505.0625 C-328.12109375 502.83203125 -328.12109375 502.83203125 -327.25 500.0625 C-324.59765625 497.82421875 -324.59765625 497.82421875 -321.3125 495.75 C-320.23097656 495.05261719 -319.14945313 494.35523438 -318.03515625 493.63671875 C-315.25 492.0625 -315.25 492.0625 -313.25 492.0625 C-313.25 490.7425 -313.25 489.4225 -313.25 488.0625 C-314.18972656 488.20558594 -314.18972656 488.20558594 -315.1484375 488.3515625 C-315.96570313 488.46242188 -316.78296875 488.57328125 -317.625 488.6875 C-318.84316406 488.86152344 -318.84316406 488.86152344 -320.0859375 489.0390625 C-320.80007813 489.04679687 -321.51421875 489.05453125 -322.25 489.0625 C-324.25 487.0625 -324.25 487.0625 -324.55981445 484.73754883 C-324.18375848 481.49054703 -323.17342803 479.92180903 -321.29296875 477.26171875 C-320.36581055 475.91883789 -320.36581055 475.91883789 -319.41992188 474.54882812 C-318.76572266 473.62521484 -318.11152344 472.70160156 -317.4375 471.75 C-312.23194421 464.55862691 -312.23194421 464.55862691 -308.515625 456.55859375 C-307.28233783 453.15182827 -306.87591222 452.11589511 -303.8125 450.4375 C-300.96569039 448.84532461 -300.19921685 447.97139247 -298.54296875 445 C-296.14641627 441.92979989 -295.9078345 441.63791985 -292.359375 441.0390625 C-290.90876735 440.89400174 -289.45506331 440.77747741 -288 440.6875 C-287.25492187 440.61917969 -286.50984375 440.55085938 -285.7421875 440.48046875 C-283.9135138 440.31635701 -282.08186162 440.18604416 -280.25 440.0625 C-280.745 438.5775 -280.745 438.5775 -281.25 437.0625 C-283.50325403 436.14973369 -285.76709989 435.60468478 -288.12109375 435.00390625 C-290.25 434.0625 -290.25 434.0625 -291.5546875 432.2109375 C-292.66182596 428.79000406 -291.88698409 425.51765614 -291.25 422.0625 C-291.16492188 421.21300781 -291.07984375 420.36351562 -290.9921875 419.48828125 C-290.25 417.0625 -290.25 417.0625 -288.18359375 415.5078125 C-287.35988281 415.07210938 -286.53617187 414.63640625 -285.6875 414.1875 C-283.22645296 412.77305195 -283.22645296 412.77305195 -281.25 411.0625 C-280.49586647 407.30606576 -280.49586647 407.30606576 -281.25 404.0625 C-284.28027213 403.05240929 -286.20291758 402.9727383 -289.36328125 403.03515625 C-290.36423828 403.04740234 -291.36519531 403.05964844 -292.39648438 403.07226562 C-294.49551501 403.10722789 -296.59448229 403.1462448 -298.69335938 403.18945312 C-310.89782839 403.32253585 -310.89782839 403.32253585 -314.9453125 399.43359375 C-315.41710937 398.79550781 -315.88890625 398.15742188 -316.375 397.5 C-320.13052562 392.8848763 -324.58326591 389.76072426 -329.390625 386.3046875 C-332.00793712 384.25231433 -333.93511328 382.27334438 -336 379.6875 C-338.82865068 376.18107973 -341.19849681 375.04756879 -345.453125 373.76953125 C-348.34665459 372.63099026 -349.64323621 370.63332206 -351.25 368.0625 C-353.13779743 362.3991077 -353.40652677 355.49077579 -351.484375 349.79296875 C-348.67912458 345.25913092 -344.92116811 343.79641867 -340.0234375 342.09765625 C-334.4995137 340.03591004 -328.44885534 337.26135534 -324.25 333.0625 C-319.15956032 331.81730014 -314.07869131 331.94605424 -308.875 332 C-308.04355469 332.00451172 -307.21210938 332.00902344 -306.35546875 332.01367188 C-304.32028103 332.02536836 -302.28513077 332.04330065 -300.25 332.0625 C-300.10884766 330.38994141 -300.10884766 330.38994141 -299.96484375 328.68359375 C-299.72894531 327.48863281 -299.49304688 326.29367187 -299.25 325.0625 C-296.1896541 323.33757776 -293.8080523 322.0625 -290.25 322.0625 C-289.940625 321.11375 -289.63125 320.165 -289.3125 319.1875 C-288.25 316.0625 -288.25 316.0625 -287.25 314.0625 C-286.74904977 311.18943772 -286.74904977 311.18943772 -287.25 308.0625 C-289.58333333 305.39583333 -289.58333333 305.39583333 -292.25 303.0625 C-292.96015453 301.7518121 -293.63659634 300.42116043 -294.25 299.0625 C-302.01059883 303.04370555 -310.13473639 307.37786392 -314.875 314.9375 C-317.25 318.0625 -317.25 318.0625 -321.0625 319 C-322.6403125 319.0309375 -322.6403125 319.0309375 -324.25 319.0625 C-325.37870766 316.0526129 -325.15400615 314.46733811 -324.625 311.1875 C-323.99074439 306.93563829 -325.29972443 304.88504012 -327.25 301.0625 C-328.25934059 297.7442928 -328.4818106 295.33836312 -327.25 292.0625 C-324.32786052 289.29760569 -321.43010793 287.22384778 -318.0703125 285.0078125 C-315.07207909 283.19642242 -315.07207909 283.19642242 -313.25 280.0625 C-313.04760544 277.98233366 -312.88580472 275.8980725 -312.75 273.8125 C-311.94657821 267.60981145 -311.94657821 267.60981145 -308.8984375 265.21484375 C-307.98320312 264.73144531 -307.06796875 264.24804688 -306.125 263.75 C-303.32193759 262.30182165 -303.32193759 262.30182165 -301.25 260.0625 C-300.82251734 256.6501384 -300.90549935 253.67744571 -301.15258789 250.27197266 C-301.56398285 243.34668993 -299.77017001 237.48474298 -295.25 232.0625 C-291.30331748 230.76359183 -287.38190015 230.98148235 -283.25 231.0625 C-281.83622659 228.42345629 -280.87759865 225.99129371 -280.25 223.0625 C-280.971875 222.794375 -281.69375 222.52625 -282.4375 222.25 C-285.29737396 221.04249766 -287.7392716 219.89465316 -290.25 218.0625 C-290.476875 217.2375 -290.70375 216.4125 -290.9375 215.5625 C-291.99991669 212.91800145 -291.99991669 212.91800145 -294.34375 212.109375 C-298.32918405 210.88493442 -301.88319083 210.0805398 -306.0625 209.875 C-307.114375 209.606875 -308.16625 209.33875 -309.25 209.0625 C-310.26171875 207.33203125 -310.26171875 207.33203125 -311.25 205.1875 C-312.31915488 202.89519738 -312.31915488 202.89519738 -314.25 201.0625 C-317.50775599 200.09164557 -320.5428469 199.46845158 -323.90625 199.07470703 C-328.84813743 198.44828807 -328.84813743 198.44828807 -331.10546875 196.28125 C-334.31241853 190.06436441 -336.46080507 182.99711086 -335.25 176.0625 C-333.421875 173.8828125 -333.421875 173.8828125 -331.1875 171.625 C-328.12600421 168.61934186 -328.12600421 168.61934186 -326.90625 164.66796875 C-327.1793984 162.38035092 -327.62441766 160.27774704 -328.25 158.0625 C-328.435625 157.051875 -328.62125 156.04125 -328.8125 155 C-328.956875 154.360625 -329.10125 153.72125 -329.25 153.0625 C-322.625 149.0625 -322.625 149.0625 -319.25 149.0625 C-319.25902344 148.48242188 -319.26804687 147.90234375 -319.27734375 147.3046875 C-319.1429927 143.76482947 -319.02507615 141.05902648 -316.80078125 138.19921875 C-314.28991596 136.00425408 -312.08703923 134.36739119 -308.93359375 133.21875 C-305.34935861 131.67445073 -302.59420837 129.42742675 -299.5625 127 C-293.96603846 122.57127961 -290.94553823 120.65502134 -283.7265625 120.70703125 C-279.97614308 121.24534066 -278.49601925 123.13586885 -276.25 126.0625 C-275.816875 126.68125 -275.38375 127.3 -274.9375 127.9375 C-272.36802792 129.65048139 -270.14473506 128.95484421 -267.1875 128.484375 C-265.04854406 128.05487524 -265.04854406 128.05487524 -262.25 127.0625 C-258.22489207 125.90419556 -255.28000771 125.82650468 -251.25 127.0625 C-246.21002554 130.82031934 -242.03742689 135.63567022 -237.90649414 140.3449707 C-236.15571969 142.16025416 -234.30220598 143.60270065 -232.25 145.0625 C-229.73103951 143.942962 -227.85265345 142.74268448 -225.6875 141 C-221.61139509 137.76001917 -218.30511462 137.96712048 -213.25 138.0625 C-213.39209669 135.3747562 -213.5385723 132.68736698 -213.6875 130 C-213.72681641 129.24783203 -213.76613281 128.49566406 -213.80664062 127.72070312 C-214.06580719 123.11551259 -214.5299421 118.61883276 -215.25 114.0625 C-209.36998746 112.03122294 -203.44556 110.14204993 -197.5 108.3125 C-196.76724854 108.07764893 -196.03449707 107.84279785 -195.27954102 107.60083008 C-191.21483614 106.36995894 -188.32927759 105.77241045 -184.25 107.0625 C-183.05375 107.371875 -181.8575 107.68125 -180.625 108 C-176.78494855 110.34669811 -176.54440799 111.11639405 -175.3125 115.25 C-174.93075827 116.84782914 -174.56752543 118.45068043 -174.25 120.0625 C-173.1775 120.02125 -172.105 119.98 -171 119.9375 C-167.44952819 120.05584906 -166.21350304 120.42746384 -163.25 122.0625 C-161.93 122.0625 -160.61 122.0625 -159.25 122.0625 C-158.26 120.0825 -158.26 120.0825 -157.25 118.0625 C-156.280625 118.2275 -155.31125 118.3925 -154.3125 118.5625 C-147.0691565 119.55754517 -140.63924021 120.02382893 -134.25 116.0625 C-133.66724963 114.34662391 -133.08612758 112.63007985 -132.52734375 110.90625 C-129.95448416 107.19251994 -125.23967671 105.97468729 -121.18359375 104.32421875 C-118.19329754 103.25259577 -118.19329754 103.25259577 -116.25 101.0625 C-116.00542104 98.92955003 -116.00542104 98.92955003 -116.125 96.484375 C-116.14820313 95.11345703 -116.14820313 95.11345703 -116.171875 93.71484375 C-116.22353805 91.79556156 -116.27561449 89.87629044 -116.328125 87.95703125 C-116.48984735 78.34802836 -116.48984735 78.34802836 -114.25 74.0625 C-112.33203125 73.1015625 -112.33203125 73.1015625 -110.0625 72.6875 C-105.94234513 71.61665151 -104.44713664 70.39661044 -102 66.9375 C-99.74263356 64.03365772 -98.7566598 63.17062095 -95.1015625 62.390625 C-92.84925572 62.25902955 -90.592079 62.18995349 -88.3359375 62.1953125 C-85.10056657 62.05606869 -83.07287974 61.63736975 -80.25 60.0625 C-79.21544968 58.28198113 -79.21544968 58.28198113 -78.25 56.0625 C-76.4293582 53.83285287 -74.5884809 51.65858634 -72.6875 49.5 C-68.06516812 44.21409556 -68.06516812 44.21409556 -63.6328125 38.76953125 C-62.86710937 37.79371094 -62.10140625 36.81789062 -61.3125 35.8125 C-60.64347656 34.94109375 -59.97445313 34.0696875 -59.28515625 33.171875 C-57.02635634 30.83070043 -55.35525589 29.95968469 -52.25 29.0625 C-51.26 29.0625 -50.27 29.0625 -49.25 29.0625 C-49.58 27.99 -49.91 26.9175 -50.25 25.8125 C-51.25 22.0625 -51.25 22.0625 -51.25 18.0625 C-44.625 18.8125 -44.625 18.8125 -41.25 21.0625 C-37.46236224 21.82002755 -34.03544027 21.83887046 -30.25 21.0625 C-27.65282989 19.22317921 -25.6367459 17.2776278 -23.515625 14.91015625 C-21.25 13.0625 -21.25 13.0625 -17.81640625 12.65234375 C-13.16233827 11.8826129 -11.90539795 10.14428664 -8.9375 6.5625 C-3.49693032 0.09713695 -3.49693032 0.09713695 0 0 Z " fill="#010101" transform="translate(435.25,6.9375)"/>
<path d="M0 0 C0.66 0.33 1.32 0.66 2 1 C1.67 3.31 1.34 5.62 1 8 C2.84725052 8.69159401 2.84725052 8.69159401 5 9 C5.99 8.34 6.98 7.68 8 7 C8.33 7.99 8.66 8.98 9 10 C9.99 10.33 10.98 10.66 12 11 C11.30132813 11.38671875 10.60265625 11.7734375 9.8828125 12.171875 C8.97273437 12.69265625 8.06265625 13.2134375 7.125 13.75 C6.22007812 14.26046875 5.31515625 14.7709375 4.3828125 15.296875 C1.85615933 17.10281071 1.21473698 18.22505038 0 21 C-2.75 23.375 -2.75 23.375 -6 25 C-9.19979795 24.43532977 -11.22958923 23.4970392 -13.9375 21.75 C-15 20 -15 20 -14.9375 17.0625 C-13.8620562 13.54938358 -13.04675223 12.05861637 -10 10 C-6.75 10.25 -6.75 10.25 -4 11 C-4.0825 9.9275 -4.165 8.855 -4.25 7.75 C-4 4 -4 4 -2 1.5625 C-1.34 1.046875 -0.68 0.53125 0 0 Z " fill="#0D0D0D" transform="translate(628,445)"/>
<path d="M0 0 C0.86625 0.37125 0.86625 0.37125 1.75 0.75 C1.75 1.41 1.75 2.07 1.75 2.75 C0.76 3.41 -0.23 4.07 -1.25 4.75 C-1.58 5.74 -1.91 6.73 -2.25 7.75 C-1.71375 7.42 -1.1775 7.09 -0.625 6.75 C2.3429092 5.50035402 4.55799279 5.47243416 7.75 5.75 C9.75 7.75 9.75 7.75 10.1875 10.5625 C9.61588806 14.72710129 7.88624593 16.08419096 4.75 18.75 C3.76 18.42 2.77 18.09 1.75 17.75 C3.08333333 15.08333333 4.41666667 12.41666667 5.75 9.75 C5.04875 10.100625 4.3475 10.45125 3.625 10.8125 C0.22609055 11.92084004 -1.8159479 11.60851303 -5.25 10.75 C-6.25 9.75 -6.25 9.75 -6.5625 6.9375 C-6.25 3.75 -6.25 3.75 -4.5 1.3125 C-2.25 -0.25 -2.25 -0.25 0 0 Z " fill="#0D0D0D" transform="translate(439.25,15.25)"/>
<path d="M0 0 C1.33991552 3.04526254 0.89859313 4.34597638 -0.0625 7.625 C-2 11 -2 11 -5 12.4375 C-8 13 -8 13 -11 13 C-10.67 11.35 -10.34 9.7 -10 8 C-8.081875 7.690625 -8.081875 7.690625 -6.125 7.375 C-3.92186032 6.91516467 -3.92186032 6.91516467 -2 6 C-0.38852558 3.00571856 -0.38852558 3.00571856 0 0 Z " fill="#2B2B2B" transform="translate(147,323)"/>
<path d="M0 0 C0.928125 0.5259375 0.928125 0.5259375 1.875 1.0625 C2.57625 1.371875 3.2775 1.68125 4 2 C4.66 1.67 5.32 1.34 6 1 C6.66 1.33 7.32 1.66 8 2 C8.33 1.34 8.66 0.68 9 0 C10.65 0.33 12.3 0.66 14 1 C14 1.33 14 1.66 14 2 C13.175 2.2475 12.35 2.495 11.5 2.75 C7.47626529 4.18704811 3.78020976 6.02354515 0 8 C-1.125 2.25 -1.125 2.25 0 0 Z " fill="#141414" transform="translate(162,598)"/>
<path d="M0 0 C0.99 0.33 1.98 0.66 3 1 C3 1.99 3 2.98 3 4 C6.465 3.505 6.465 3.505 10 3 C8.49776416 7.20626034 5.71449966 8.73900021 2 11 C0.64757656 8.29515313 1 6.0006681 1 3 C0.67 2.01 0.34 1.02 0 0 Z " fill="#171717" transform="translate(147,312)"/>
<path d="M0 0 C0.66 0.33 1.32 0.66 2 1 C2 1.99 2 2.98 2 4 C-0.5 6.1875 -0.5 6.1875 -3 8 C-4.65 6.35 -6.3 4.7 -8 3 C-7.236875 2.87625 -6.47375 2.7525 -5.6875 2.625 C-2.79732864 2.11897208 -2.79732864 2.11897208 0 0 Z " fill="#202020" transform="translate(149,304)"/>
<path d="M0 0 C2.21875 0.01171875 2.21875 0.01171875 5.90625 0.38671875 C5.90625 0.71671875 5.90625 1.04671875 5.90625 1.38671875 C3.59625 1.38671875 1.28625 1.38671875 -1.09375 1.38671875 C-1.320625 1.94359375 -1.5475 2.50046875 -1.78125 3.07421875 C-3.49997159 6.1024425 -5.42163397 8.15995539 -8.09375 10.38671875 C-10.40625 10.19921875 -10.40625 10.19921875 -12.09375 9.38671875 C-11.371875 9.01546875 -10.65 8.64421875 -9.90625 8.26171875 C-6.8784731 6.47865276 -6.8784731 6.47865276 -4.78125 3.19921875 C-2.09375 0.38671875 -2.09375 0.38671875 0 0 Z " fill="#C6C6C6" transform="translate(322.09375,559.61328125)"/>
<path d="M0 0 C0.99 0.33 1.98 0.66 3 1 C3 1.66 3 2.32 3 3 C3.66 3.33 4.32 3.66 5 4 C2.69 4.33 0.38 4.66 -2 5 C-2 2 -2 2 0 0 Z " fill="#131313" transform="translate(157,603)"/>
<path d="M0 0 C2.97 0.99 5.94 1.98 9 3 C8.67 3.66 8.34 4.32 8 5 C5.6875 5.3125 5.6875 5.3125 3 5 C1.1875 2.5 1.1875 2.5 0 0 Z " fill="#202020" transform="translate(448,18)"/>
<path d="M0 0 C1.32 1.32 2.64 2.64 4 4 C2.35 4.66 0.7 5.32 -1 6 C-1 2 -1 2 0 0 Z " fill="#151515" transform="translate(184,135)"/>
<path d="M0 0 C2.97 0.495 2.97 0.495 6 1 C6 1.33 6 1.66 6 2 C2.68885166 3.12880057 -0.58978257 4.21302675 -4 5 C-3.67 4.01 -3.34 3.02 -3 2 C-2.01 2 -1.02 2 0 2 C0 1.34 0 0.68 0 0 Z " fill="#343434" transform="translate(170,598)"/>
<path d="M0 0 C0.66 0.33 1.32 0.66 2 1 C0.02 3.31 -1.96 5.62 -4 8 C-4.33 6.68 -4.66 5.36 -5 4 C-3.35 2.68 -1.7 1.36 0 0 Z " fill="#262626" transform="translate(132,457)"/>
</svg>
