<?xml version="1.0" encoding="UTF-8"?>
<svg version="1.1" xmlns="http://www.w3.org/2000/svg" width="712" height="742">
<path d="M0 0 C0.66708984 0.18240234 1.33417969 0.36480469 2.02148438 0.55273438 C4.50911018 1.24304426 6.87275232 1.90512616 9.1875 3.0625 C10.28578125 2.81693359 10.28578125 2.81693359 11.40625 2.56640625 C14.76505378 1.95785894 17.33443796 2.40067933 20.6875 3 C24.58943209 3.68830811 28.22234588 4.18826049 32.1875 4.0625 C32.5175 5.7125 32.8475 7.3625 33.1875 9.0625 C33.6 8.65 34.0125 8.2375 34.4375 7.8125 C36.35416667 5.89583333 38.27083333 3.97916667 40.1875 2.0625 C40.55875 2.5575 40.93 3.0525 41.3125 3.5625 C43.92918791 5.65585033 45.91022971 5.13077646 49.1875 5.0625 C50.1775 5.7225 51.1675 6.3825 52.1875 7.0625 C53.1775 7.0625 54.1675 7.0625 55.1875 7.0625 C55.1875 7.7225 55.1875 8.3825 55.1875 9.0625 C59.63891084 9.15523773 63.96468446 9.1653861 68.375 8.5 C71.97547504 8.08683073 74.6758324 8.27237479 78.1875 9.0625 C78.1875 8.4025 78.1875 7.7425 78.1875 7.0625 C74.5575 7.0625 70.9275 7.0625 67.1875 7.0625 C67.1875 6.0725 67.1875 5.0825 67.1875 4.0625 C71.72042406 2.69574906 74.54366798 3.54279433 78.95703125 5.08203125 C79.59686447 5.3006633 80.23669769 5.51929535 80.8959198 5.74455261 C82.93472063 6.44340819 84.96738103 7.15838543 87 7.875 C97.92217475 11.66987115 108.08512589 14.97650944 119.6796875 16.05004883 C136.20092569 17.58051709 154.83157193 19.70657193 167.1875 32.0625 C168.45675931 32.79053835 169.75176963 33.47458097 171.0625 34.125 C175.33184136 36.43142579 179.15279024 39.12475891 183 42.0625 C183.55091309 42.47765869 184.10182617 42.89281738 184.66943359 43.32055664 C188.03670526 45.93412255 190.57915901 48.71296017 193.1875 52.0625 C194.1775 52.7225 195.1675 53.3825 196.1875 54.0625 C196.1875 54.7225 196.1875 55.3825 196.1875 56.0625 C197.01701172 56.42988281 197.01701172 56.42988281 197.86328125 56.8046875 C205.28406773 60.82064254 211.60891769 67.3755207 217.84375 73.01171875 C221.45340559 76.17016739 225.22727423 79.1214895 229 82.08203125 C231.1875 84.0625 231.1875 84.0625 232.1875 87.0625 C232.765 87.35125 233.3425 87.64 233.9375 87.9375 C242.93881294 92.43815647 252.36619911 106.78817485 256.1875 116.0625 C257.52950343 120.13675226 258.72400124 124.22349638 259.84375 128.36328125 C260.71831641 131.55558198 261.73902265 134.63357184 262.90625 137.73046875 C267.92803326 151.54037272 268.9124438 166.88766861 264.1875 181.0625 C264.65746001 188.43639642 266.48946587 195.34585757 268.8125 202.3125 C270.72170707 208.12055954 272.0909628 212.9390299 271.1875 219.0625 C269.375 221.625 269.375 221.625 267.1875 224.0625 C264.57584485 229.90218633 263.76335799 234.7121028 263.6875 241.0625 C263.58261026 249.84326973 261.36604506 256.10830754 257.1875 263.8125 C254.56104247 268.93571346 253.08802056 273.82559473 251.828125 279.421875 C251.04729748 282.64040797 250.01037289 285.29173321 248.1875 288.0625 C246.125 289.1875 246.125 289.1875 244.1875 290.0625 C243.13258895 291.87971451 243.13258895 291.87971451 242.1875 294.0625 C241.85242432 294.76286377 241.51734863 295.46322754 241.17211914 296.18481445 C237.38464557 305.27383728 237.16965336 314.54703268 236.625 324.25 C236.47715549 326.8049757 236.32420506 329.35918037 236.15626526 331.91291809 C236.05288694 333.48939558 235.96070432 335.06666595 235.88218689 336.64457703 C235.53756848 341.9666554 234.21562913 346.12789752 232.1875 351.0625 C231.47669687 353.55031096 230.81014291 356.05117361 230.1875 358.5625 C230.01798828 359.23958008 229.84847656 359.91666016 229.67382812 360.61425781 C228.79068636 364.23180646 228.02528517 367.84332782 227.40625 371.515625 C227.28378906 372.23556641 227.16132812 372.95550781 227.03515625 373.69726562 C226.70484128 375.70699097 226.39861937 377.72063257 226.09375 379.734375 C225.04093736 383.60073867 224.41690107 384.72654992 221.1875 387.0625 C217.9394182 388.71985264 214.61015234 390.14896858 211.25 391.5625 C202.79082878 395.1364541 197.18859906 398.06074151 192.1875 406.0625 C191.6925 406.660625 191.1975 407.25875 190.6875 407.875 C189.20014068 410.04406568 188.39804011 411.99951897 187.4375 414.4375 C185.45674966 419.05670157 182.69185757 422.65878251 178.1875 425.0625 C175.1875 424.0625 175.1875 424.0625 173.75 421.625 C172.45732861 418.91741028 172.45732861 418.91741028 170.0625 418.25 C169.44375 417.858125 168.825 417.46625 168.1875 417.0625 C167.80952161 415.00998947 167.682175 412.98713083 167.53515625 410.90625 C167.36163876 408.82873979 167.36163876 408.82873979 165.125 407.5625 C164.485625 407.3975 163.84625 407.2325 163.1875 407.0625 C163.249375 406.0725 163.31125 405.0825 163.375 404.0625 C163.40241645 399.59361789 161.9083227 396.14945392 160.1875 392.0625 C160.1875 394.82457303 160.61327504 397.36364269 161.1875 400.0625 C161.8475 400.3925 162.5075 400.7225 163.1875 401.0625 C162.8575 403.0425 162.5275 405.0225 162.1875 407.0625 C162.826875 407.3925 163.46625 407.7225 164.125 408.0625 C167.2427764 411.08579832 166.90793064 413.79906724 167.1875 418.0625 C167.97125 418.330625 168.755 418.59875 169.5625 418.875 C172.1875 420.0625 172.1875 420.0625 174.1875 423.0625 C174.82299354 427.14781565 174.42672811 428.70003316 172.125 432.1875 C169.73227359 434.81679541 167.12987152 436.17147689 163.96484375 437.78515625 C160.9284306 439.96736966 159.258916 443.07245209 157.3515625 446.234375 C156.96742188 446.83765625 156.58328125 447.4409375 156.1875 448.0625 C155.8575 448.0625 155.5275 448.0625 155.1875 448.0625 C155.1875 447.051875 155.1875 446.04125 155.1875 445 C154.57794616 440.31405482 151.56180455 438.32244837 148 435.54296875 C146.1875 434.0625 146.1875 434.0625 145.1875 432.0625 C144.95416667 425.52916667 144.95416667 425.52916667 146.1875 423.0625 C145.29998047 422.89814453 145.29998047 422.89814453 144.39453125 422.73046875 C143.60433594 422.57191406 142.81414063 422.41335938 142 422.25 C141.22269531 422.09917969 140.44539062 421.94835937 139.64453125 421.79296875 C136.81819889 420.95270778 134.70280681 419.59020168 132.1875 418.0625 C129.41712071 417.02901099 126.62413889 416.12472411 123.80859375 415.22265625 C120.87700656 413.92506848 119.22918741 412.51732886 117.1875 410.0625 C117.1875 409.4025 117.1875 408.7425 117.1875 408.0625 C116.5275 408.0625 115.8675 408.0625 115.1875 408.0625 C117.96213498 412.86475284 120.16155677 414.81686579 125.1875 417.0625 C125.59613281 417.54074219 126.00476563 418.01898438 126.42578125 418.51171875 C129.07083195 420.84006714 131.93150172 421.3058023 135.3125 422.1875 C142.10416667 423.97916667 142.10416667 423.97916667 143.1875 425.0625 C143.58416227 427.24269479 143.93065237 429.4321463 144.25 431.625 C144.42660156 432.82253906 144.60320313 434.02007812 144.78515625 435.25390625 C144.91792969 436.18074219 145.05070313 437.10757812 145.1875 438.0625 C143.25 438.625 143.25 438.625 141.1875 439.0625 C140.8575 438.7325 140.5275 438.4025 140.1875 438.0625 C136.82555189 437.82794548 134.43628125 437.97251529 131.25 439.125 C127.44336212 440.29029731 125.02155191 440.07526843 121.1875 439.0625 C119.25 437 119.25 437 118.1875 435.0625 C113.4184527 435.35353056 113.4184527 435.35353056 109.39453125 437.6015625 C106.24925191 439.68357041 103.84855137 439.28553166 100.125 439.125 C94.81037503 438.76092725 94.81037503 438.76092725 90.1875 441.0625 C102.43390063 443.82721186 102.43390063 443.82721186 114.1875 441.0625 C117.6875 441.5625 117.6875 441.5625 119.1875 443.0625 C121.21113992 442.99712544 123.23257235 442.85890028 125.25 442.6875 C126.42304687 442.58953125 127.59609375 442.4915625 128.8046875 442.390625 C131.5082626 442.12838446 134.18594739 441.81456273 136.875 441.4375 C140.1875 441.0625 140.1875 441.0625 142.1875 442.0625 C142.1875 442.7225 142.1875 443.3825 142.1875 444.0625 C145.1575 442.0825 145.1575 442.0825 148.1875 440.0625 C149.1875 442.0625 149.1875 442.0625 148.4375 444.5 C147.20602017 447.02453365 146.13608276 448.11391724 144.1875 450.0625 C141.15631009 454.85373566 139.02789151 459.72648734 137.01953125 465.0234375 C136.1875 467.0625 136.1875 467.0625 135.1875 468.0625 C136.38375 467.959375 137.58 467.85625 138.8125 467.75 C142.30309679 467.71894487 144.02474368 468.3010682 146.6875 470.5625 C147.5125 471.3875 148.3375 472.2125 149.1875 473.0625 C148.07594526 478.86728587 145.71168221 482.3480074 141.95703125 486.875 C140.45977965 488.72590706 139.28102614 490.53005486 138.0625 492.5625 C132.89080849 499.95801886 122.90633598 504.77425779 115.1875 509.0625 C114.1975 510.0525 114.1975 510.0525 113.1875 511.0625 C104.83821082 516.05646736 93.8172256 517.87973272 84.1875 517.0625 C81.8229224 515.50460133 81.29974436 514.55860295 80.67578125 511.80078125 C80.61777344 511.00027344 80.55976563 510.19976563 80.5 509.375 C80.43425781 508.56675781 80.36851562 507.75851562 80.30078125 506.92578125 C80.26339844 506.31089844 80.22601563 505.69601562 80.1875 505.0625 C79.1975 504.7325 78.2075 504.4025 77.1875 504.0625 C77.1875 503.4025 77.1875 502.7425 77.1875 502.0625 C76.445 501.670625 75.7025 501.27875 74.9375 500.875 C71.13377553 498.36799978 70.05367089 496.2254966 68.1875 492.0625 C68.4375 489.125 68.4375 489.125 69.1875 487.0625 C68.5275 487.0625 67.8675 487.0625 67.1875 487.0625 C67.2596875 487.68898438 67.331875 488.31546875 67.40625 488.9609375 C67.4990625 489.77820313 67.591875 490.59546875 67.6875 491.4375 C67.7803125 492.24960937 67.873125 493.06171875 67.96875 493.8984375 C68.1875 496.0625 68.1875 496.0625 68.1875 498.0625 C68.8475 498.3925 69.5075 498.7225 70.1875 499.0625 C70.1875 499.7225 70.1875 500.3825 70.1875 501.0625 C72.65076712 502.7071674 72.65076712 502.7071674 75.1875 504.0625 C70.82084899 510.23894372 65.24410332 512.7050071 58.1875 515.0625 C54.4399746 515.50743264 50.935417 515.4150915 47.1875 515.0625 C46.1975 515.0625 45.2075 515.0625 44.1875 515.0625 C44.5175 516.3825 44.8475 517.7025 45.1875 519.0625 C43.2075 519.0625 41.2275 519.0625 39.1875 519.0625 C40.1775 519.7225 41.1675 520.3825 42.1875 521.0625 C42.1875 523.0625 42.1875 523.0625 40.88671875 524.7890625 C35.3611409 530.0034913 30.80667375 530.62063867 23.5 530.4375 C21.10554229 530.33440627 18.71234195 530.21603916 16.31884766 530.09277344 C13.52715735 530.05312056 10.91038733 530.47305428 8.1875 531.0625 C8.1875 531.7225 8.1875 532.3825 8.1875 533.0625 C6.2075 533.0625 4.2275 533.0625 2.1875 533.0625 C2.373125 533.866875 2.55875 534.67125 2.75 535.5 C2.894375 536.345625 3.03875 537.19125 3.1875 538.0625 C2.8575 538.3925 2.5275 538.7225 2.1875 539.0625 C7.1375 540.5475 7.1375 540.5475 12.1875 542.0625 C12.1875 542.7225 12.1875 543.3825 12.1875 544.0625 C15.19134054 543.3670656 15.19134054 543.3670656 18.1875 542.0625 C18.92345202 540.03695397 18.92345202 540.03695397 19.1875 538.0625 C20.60293415 537.86591192 22.01994031 537.68062454 23.4375 537.5 C24.22640625 537.39558594 25.0153125 537.29117188 25.828125 537.18359375 C28.1875 537.0625 28.1875 537.0625 30.27734375 537.58984375 C32.95408436 538.25218652 34.87663096 537.46867923 37.3359375 536.359375 C39.69317651 534.70831308 40.98234771 532.79271836 42.625 530.4375 C44.93531827 527.26016341 46.3727752 525.42666037 50.3125 524.6875 C54.1875 525.0625 54.1875 525.0625 57.1875 526.9375 C60.60263167 532.27364324 59.42762515 537.45282421 58.625 543.5 C57.87454589 546.89734329 57.87454589 546.89734329 59.1875 549.0625 C59.48296166 555.66354584 58.48243384 561.61654717 57.16601562 568.05859375 C56.45230767 571.75659682 56.09331398 574.46082517 57.1875 578.0625 C58.8375 578.3925 60.4875 578.7225 62.1875 579.0625 C60.75767598 583.50632808 58.33389606 586.52763222 55.1875 589.875 C54.69765625 590.40125977 54.2078125 590.92751953 53.703125 591.46972656 C49.23602995 596.17571909 44.41155558 600.21445906 39.1875 604.0625 C38.23230469 604.77535156 37.27710938 605.48820313 36.29296875 606.22265625 C29.08771692 611.53737346 29.08771692 611.53737346 25.515625 613.62109375 C22.96947739 615.04337937 22.96947739 615.04337937 20.75 617.8125 C18.1875 620.0625 18.1875 620.0625 15.5 620 C14.406875 619.690625 13.31375 619.38125 12.1875 619.0625 C10.71053361 618.75988846 9.23104255 618.46948658 7.75 618.1875 C4.64631743 617.56676349 1.54865184 616.92617675 -1.546875 616.265625 C-2.86457959 615.98956548 -4.18228792 615.71352377 -5.5 615.4375 C-6.72074219 615.17710937 -7.94148438 614.91671875 -9.19921875 614.6484375 C-15.98563919 613.45574737 -15.98563919 613.45574737 -22.25 615.5625 C-22.765625 616.0575 -23.28125 616.5525 -23.8125 617.0625 C-23.4825 618.3825 -23.1525 619.7025 -22.8125 621.0625 C-27.17329398 623.11463834 -29.96191436 624.19723849 -34.8125 624.0625 C-35.8025 624.7225 -36.7925 625.3825 -37.8125 626.0625 C-43.25694444 625.61805556 -43.25694444 625.61805556 -45.8125 623.0625 C-46.555 623.536875 -47.2975 624.01125 -48.0625 624.5 C-53.81217121 627.76685864 -59.11980385 626.9993163 -65.59765625 626.70703125 C-68.81096496 626.75707094 -68.81096496 626.75707094 -70.68359375 628.6640625 C-72.55451641 632.63896393 -72.71612627 636.74057025 -73.1875 641.06640625 C-73.83364197 644.16384934 -74.21694738 645.30925412 -76.8125 647.0625 C-77.8025 647.0625 -78.7925 647.0625 -79.8125 647.0625 C-80.1425 648.0525 -80.4725 649.0425 -80.8125 650.0625 C-83.69231289 651.24089171 -86.74484739 651.60623521 -89.8125 652.0625 C-90.5034375 652.18367187 -91.194375 652.30484375 -91.90625 652.4296875 C-95.13125075 652.74962805 -97.26891698 652.49864293 -99.80859375 650.4609375 C-100.46988281 649.81382812 -101.13117188 649.16671875 -101.8125 648.5 C-104.43677947 645.8306234 -104.43677947 645.8306234 -107.8828125 644.78515625 C-109.93334713 645.06193944 -111.81752922 645.5163483 -113.8125 646.0625 C-117.42027412 647.00555088 -119.1039289 647.40142635 -122.515625 645.76953125 C-123.35609375 645.14433594 -124.1965625 644.51914062 -125.0625 643.875 C-125.91328125 643.26269531 -126.7640625 642.65039062 -127.640625 642.01953125 C-129.76161269 640.10835349 -130.76515072 638.68669182 -131.8125 636.0625 C-131.19761719 635.46115234 -131.19761719 635.46115234 -130.5703125 634.84765625 C-126.19671215 630.23340324 -124.63729927 626.33381862 -123.8125 620.0625 C-122.20375 620.18625 -122.20375 620.18625 -120.5625 620.3125 C-116.00849937 620.00889996 -115.86578635 619.20302311 -112.8125 616.0625 C-109.55017706 614.53215517 -106.20291289 613.27890768 -102.8125 612.0625 C-102.8125 608.53441541 -104.07660528 606.86835872 -105.85546875 603.9140625 C-107.170757 601.36938237 -107.53642059 598.89231393 -107.8125 596.0625 C-108.84375 595.918125 -109.875 595.77375 -110.9375 595.625 C-115.4699311 594.3313304 -117.16238803 591.40522875 -119.54296875 587.5234375 C-120.72868618 585.22496987 -121.58145567 583.01849755 -122.375 580.5625 C-123.41614585 576.99483366 -123.41614585 576.99483366 -125.9375 575.875 C-128.64952607 576.05187127 -130.30368227 576.5458658 -132.8125 577.484375 C-138.92044807 579.57738167 -145.12932019 580.13486998 -151.5234375 580.79101562 C-152.420625 580.89994141 -153.3178125 581.00886719 -154.2421875 581.12109375 C-155.04897949 581.20673584 -155.85577148 581.29237793 -156.68701172 581.38061523 C-159.46740506 582.27260221 -160.20500615 583.69103435 -161.8125 586.0625 C-164.08984375 587.02734375 -164.08984375 587.02734375 -166.8125 587.0625 C-172.76431723 584.50547693 -179.54112094 581.00292854 -182.1875 574.8125 C-182.42726562 574.15765625 -182.66703125 573.5028125 -182.9140625 572.828125 C-184.57908097 569.55600175 -187.58249781 568.55327024 -190.8125 567.0625 C-190.8125 563.1025 -190.8125 559.1425 -190.8125 555.0625 C-191.91464844 554.94132813 -193.01679688 554.82015625 -194.15234375 554.6953125 C-204.71136367 553.53042173 -215.26384068 552.31765693 -225.8125 551.0625 C-226.7096875 552.4546875 -226.7096875 552.4546875 -227.625 553.875 C-230.36774484 557.87157106 -232.16727599 560.0866252 -236.75 561.6875 C-237.41902344 561.92726563 -238.08804688 562.16703125 -238.77734375 562.4140625 C-240.77433642 563.05034039 -242.77362475 563.57900833 -244.8125 564.0625 C-245.245625 563.258125 -245.67875 562.45375 -246.125 561.625 C-247.61724002 558.78403646 -247.61724002 558.78403646 -250.8125 558.0625 C-250.8640625 558.74957031 -250.915625 559.43664062 -250.96875 560.14453125 C-251.32407641 562.96695354 -251.7914416 565.40430155 -252.8125 568.0625 C-255.77286247 569.73817687 -257.58109829 570.35049623 -260.8125 571.0625 C-270.14517762 573.5711885 -270.14517762 573.5711885 -278.5 578.25 C-284.97627676 582.50339629 -292.39394437 581.9119776 -299.88134766 581.97509766 C-301.9949811 582.01631845 -301.9949811 582.01631845 -304.73046875 582.69921875 C-305.41753906 582.81910156 -306.10460937 582.93898438 -306.8125 583.0625 C-307.4725 582.4025 -308.1325 581.7425 -308.8125 581.0625 C-309.8025 581.0625 -310.7925 581.0625 -311.8125 581.0625 C-312.10125 582.34125 -312.39 583.62 -312.6875 584.9375 C-313.35352483 587.88703855 -313.61452597 588.86452597 -315.8125 591.0625 C-316.96748897 589.98893323 -318.11117867 588.90320212 -319.25 587.8125 C-320.20712891 586.90757812 -320.20712891 586.90757812 -321.18359375 585.984375 C-324.51988814 582.04802767 -324.25549575 576.99016114 -324.2421875 572.01953125 C-323.61770696 567.7219697 -321.67554568 564.77377359 -319.22265625 561.25390625 C-317.85837975 559.13379789 -317.2552651 557.52292885 -316.8125 555.0625 C-317.52277344 555.14628906 -318.23304688 555.23007812 -318.96484375 555.31640625 C-319.88394531 555.41824219 -320.80304688 555.52007813 -321.75 555.625 C-322.66652344 555.72941406 -323.58304688 555.83382812 -324.52734375 555.94140625 C-325.28144531 555.98136719 -326.03554688 556.02132812 -326.8125 556.0625 C-328.84732015 554.02767985 -328.81228434 550.37618274 -329.3125 547.6328125 C-329.79649299 544.91421179 -329.79649299 544.91421179 -330.8125 541.75 C-330.8125 540.863125 -330.8125 539.97625 -330.8125 539.0625 C-327.875 536.375 -327.875 536.375 -324.8125 534.0625 C-324.8125 533.0725 -324.8125 532.0825 -324.8125 531.0625 C-328.62739674 529.59523202 -331.10261622 530.62913581 -334.8125 532.0625 C-335.369375 531.093125 -335.92625 530.12375 -336.5 529.125 C-338.53409742 526.62596603 -339.51769019 526.10707337 -342.7578125 525.6171875 C-345.02848363 525.53816182 -347.29933046 525.46405111 -349.5703125 525.39453125 C-354.18032384 524.92242165 -357.40704959 523.15511376 -360.8125 520.0625 C-362.94483167 516.8640025 -363.01771776 515.92582821 -363.125 512.25 C-363.57253367 506.86389307 -364.87450516 504.73199519 -368.8125 501.0625 C-369.67875 500.546875 -370.545 500.03125 -371.4375 499.5 C-374.37992762 497.71905696 -375.46255863 496.21236319 -376.8125 493.0625 C-376.61531098 489.11871952 -375.16813513 486.20334684 -372.8125 483.0625 C-371 482.0625 -371 482.0625 -368.8125 482.0625 C-365.625 483.25 -365.625 483.25 -362.8125 485.0625 C-362 487 -362 487 -361.8125 489.0625 C-361.17566847 492.4589348 -360.19917915 494.5228286 -357.8125 497.0625 C-355.03453466 497.90514794 -355.03453466 497.90514794 -351.9375 498.1875 C-347.8770349 498.68615361 -344.5788426 499.47459946 -340.8125 501.0625 C-338.7379644 501.2115712 -338.7379644 501.2115712 -336.8125 500.0625 C-335.575 498.5465625 -335.575 498.5465625 -334.3125 497 C-333.075 495.5459375 -333.075 495.5459375 -331.8125 494.0625 C-330.4925 494.0625 -329.1725 494.0625 -327.8125 494.0625 C-328.42990222 490.04938554 -330.52987907 487.35215958 -332.8125 484.0625 C-333.225 483.27875 -333.6375 482.495 -334.0625 481.6875 C-336.78399143 477.60526286 -339.87251929 474.01382384 -343.8125 471.0625 C-344.92625 471.0625 -346.04 471.0625 -347.1875 471.0625 C-352.38604014 471.0625 -354.6108635 468.37002902 -358.3828125 465.0078125 C-360.80388355 463.0693987 -362.89163391 462.04998142 -365.8125 461.0625 C-365.22404551 452.97125075 -362.84184223 446.72212376 -357.9375 440.25 C-356.12438806 437.53305448 -355.78060856 436.4123814 -356.08203125 433.10546875 C-356.52312393 431.0135029 -356.97987559 428.92477033 -357.453125 426.83984375 C-357.8125 424.0625 -357.8125 424.0625 -356 420.5 C-354.9171875 419.2934375 -354.9171875 419.2934375 -353.8125 418.0625 C-352.76273036 414.91319107 -352.71118405 412.67435544 -352.75 409.375 C-352.75902344 408.38113281 -352.76804687 407.38726562 -352.77734375 406.36328125 C-352.78894531 405.60402344 -352.80054688 404.84476562 -352.8125 404.0625 C-354.7925 403.7325 -356.7725 403.4025 -358.8125 403.0625 C-354.69871444 395.5351477 -354.69871444 395.5351477 -351 393.5625 C-350.278125 393.3975 -349.55625 393.2325 -348.8125 393.0625 C-348.9259375 392.33675781 -349.039375 391.61101562 -349.15625 390.86328125 C-348.8125 388.0625 -348.8125 388.0625 -346.40625 385.60546875 C-345.3853125 384.82816406 -344.364375 384.05085938 -343.3125 383.25 C-342.2915625 382.45980469 -341.270625 381.66960937 -340.21875 380.85546875 C-339.02765625 379.96794922 -339.02765625 379.96794922 -337.8125 379.0625 C-339.71107088 372.53084945 -342.18107388 368.46510485 -347.125 363.75 C-351.76155556 359.01936939 -351.76155556 359.01936939 -351.9921875 354.6875 C-351.67075469 352.44257241 -351.31538256 350.20217131 -350.921875 347.96875 C-350.52531583 345.03140191 -350.52531583 345.03140191 -352.265625 342.90625 C-354.05071206 341.41633482 -355.77419865 340.17568702 -357.8125 339.0625 C-356.02080131 333.43144696 -356.02080131 333.43144696 -354.75390625 331.1875 C-352.02629727 325.03057351 -353.83334247 316.54941867 -354.8125 310.0625 C-351.48478315 308.63633564 -348.40062544 307.57508935 -344.8125 307.0625 C-343.678125 306.8975 -342.54375 306.7325 -341.375 306.5625 C-337.33542626 307.12945772 -337.06778894 307.52747862 -334.6875 310.5625 C-334.20796875 311.20316406 -333.7284375 311.84382813 -333.234375 312.50390625 C-331.83346125 314.36766871 -331.83346125 314.36766871 -328.9375 314.5 C-328.23625 314.355625 -327.535 314.21125 -326.8125 314.0625 C-325.18354557 310.46711851 -324.60697979 307.61759974 -324.5 303.6875 C-324.12712724 299.08252138 -323.36250053 295.95937564 -320.40625 292.3671875 C-316.47456437 289.14860172 -311.74082927 289.0625 -306.8125 289.0625 C-307.40988947 287.33098028 -308.01573967 285.60237853 -308.625 283.875 C-308.96144531 282.91207031 -309.29789062 281.94914062 -309.64453125 280.95703125 C-310.73046061 278.03237676 -310.73046061 278.03237676 -312.41796875 275.45703125 C-314.62473632 271.6678197 -314.37140616 269.39402276 -313.8125 265.0625 C-311.9375 263.375 -311.9375 263.375 -308.8125 262.0625 C-300.71923081 258.67365342 -300.71923081 258.67365342 -295.84375 251.7890625 C-294.57861456 249.67091907 -293.25238642 248.83562098 -291.1875 247.5 C-286.9921463 244.60038643 -284.29756136 241.04666126 -281.375 236.9375 C-280.93784668 236.32704834 -280.50069336 235.71659668 -280.05029297 235.08764648 C-276.20598625 229.5326461 -275.42943854 226.06419055 -276.3125 219.375 C-277.32799026 214.63439426 -278.45996438 211.95668805 -282.35546875 209.14453125 C-286.0413434 206.83245849 -289.8695469 204.89575495 -293.8125 203.0625 C-293.65201172 201.83273438 -293.65201172 201.83273438 -293.48828125 200.578125 C-293.36839844 199.50046875 -293.24851562 198.4228125 -293.125 197.3125 C-292.99738281 196.24515625 -292.86976563 195.1778125 -292.73828125 194.078125 C-292.82452166 190.57404096 -293.63516861 189.68418474 -295.8125 187.0625 C-296 183.3125 -296 183.3125 -295.8125 180.0625 C-296.65941406 180.30419922 -296.65941406 180.30419922 -297.5234375 180.55078125 C-299.89103202 181.08005579 -302.01421575 181.22973843 -304.4375 181.25 C-305.21351563 181.26417969 -305.98953125 181.27835938 -306.7890625 181.29296875 C-308.8125 181.0625 -308.8125 181.0625 -310.8125 179.0625 C-310.90014648 177.20239258 -310.90014648 177.20239258 -310.68359375 174.95703125 C-310.61849609 174.13783203 -310.55339844 173.31863281 -310.48632812 172.47460938 C-310.3305042 170.76054615 -310.16917037 169.04697364 -310.00195312 167.33398438 C-309.55977397 161.61245407 -310.1296852 158.15330466 -312.8125 153.0625 C-313.204375 152.258125 -313.59625 151.45375 -314 150.625 C-314.268125 150.109375 -314.53625 149.59375 -314.8125 149.0625 C-312.8125 147.4375 -312.8125 147.4375 -309.8125 146.0625 C-307.89051618 146.49328948 -305.96955138 146.93663797 -304.07421875 147.47265625 C-294.86877843 149.87338421 -289.04996241 147.51555104 -281 143 C-280.18748779 142.51563477 -279.37497559 142.03126953 -278.5378418 141.53222656 C-272.55483459 138.04855944 -272.55483459 138.04855944 -268.484375 138.125 C-266.10001116 138.96161889 -264.04615108 139.84434218 -261.875 141.125 C-256.63210596 143.86085553 -252.28665217 143.52036903 -246.6875 142 C-243.04637679 141.11908309 -241.24627099 140.6889916 -237.8125 142.0625 C-237.35875 142.743125 -236.905 143.42375 -236.4375 144.125 C-235.633125 145.0840625 -235.633125 145.0840625 -234.8125 146.0625 C-231.43785976 146.3128577 -231.43785976 146.3128577 -227.8125 146.0625 C-226.2965625 146.43375 -226.2965625 146.43375 -224.75 146.8125 C-221.65999242 147.38282717 -221.65999242 147.38282717 -219 145.1875 C-215.38907426 142.78021617 -213.18495699 142.52861207 -208.9609375 142.3359375 C-206.55413972 142.02961778 -204.95657643 141.15895316 -202.8125 140.0625 C-199.81197366 140.28205071 -197.1024152 140.97535026 -194.2265625 141.83984375 C-186.59689132 144.16942155 -186.59689132 144.16942155 -178.8125 143.0625 C-174.63570845 139.10553959 -173.89053771 135.55034214 -173.71484375 129.94921875 C-173.72644531 128.89347656 -173.73804688 127.83773437 -173.75 126.75 C-173.75902344 125.68136719 -173.76804688 124.61273438 -173.77734375 123.51171875 C-173.78894531 122.70347656 -173.80054688 121.89523438 -173.8125 121.0625 C-171.00662601 119.5057322 -169.63513285 119.05299819 -166.3125 118.875 C-162.12938006 118.49682126 -159.63984166 116.76207672 -156.1875 114.4375 C-151.26485418 111.33395925 -148.91748029 110.84269656 -143.25 112 C-136.60091533 112.99997457 -133.28526691 110.89819559 -128.05883789 107.14086914 C-124.23528517 104.20046914 -120.4790342 101.19675742 -116.8125 98.0625 C-117.42527612 95.10074877 -118.06622522 93.68191217 -119.8125 91.0625 C-119.49346935 85.17270332 -116.99816549 74.24816549 -112.8125 70.0625 C-110.78841245 70.15252398 -108.76705713 70.30891038 -106.75 70.5 C-105.64527344 70.60183594 -104.54054688 70.70367187 -103.40234375 70.80859375 C-102.54769531 70.89238281 -101.69304687 70.97617188 -100.8125 71.0625 C-100.8125 72.0525 -100.8125 73.0425 -100.8125 74.0625 C-98.36753957 75.77961243 -98.36753957 75.77961243 -95.8125 77.0625 C-95.4825 76.0725 -95.1525 75.0825 -94.8125 74.0625 C-93.140625 72.4140625 -93.140625 72.4140625 -91.0625 70.6875 C-88.5481307 68.57650545 -86.35146539 66.55857845 -84.125 64.125 C-81.8125 62.0625 -81.8125 62.0625 -79 61.75 C-78.278125 61.853125 -77.55625 61.95625 -76.8125 62.0625 C-76.4825 61.0725 -76.1525 60.0825 -75.8125 59.0625 C-74.8225 59.0625 -73.8325 59.0625 -72.8125 59.0625 C-72.88210938 58.41925781 -72.95171875 57.77601562 -73.0234375 57.11328125 C-73.46173045 49.79796316 -71.75460858 45.24194611 -68.44921875 38.79296875 C-66.40270753 34.49801128 -65.48905293 29.9929237 -64.4375 25.375 C-62.2892253 16.26929573 -58.81466158 9.39727439 -50.8125 4.0625 C-48.08862305 3.8671875 -48.08862305 3.8671875 -44.82421875 3.9375 C-43.64279297 3.95296875 -42.46136719 3.9684375 -41.24414062 3.984375 C-38.75976051 4.03621392 -36.27538544 4.08829494 -33.79101562 4.140625 C-32.01307617 4.16382813 -32.01307617 4.16382813 -30.19921875 4.1875 C-29.11858154 4.21070313 -28.03794434 4.23390625 -26.92456055 4.2578125 C-23.58592386 4.04828011 -20.95664271 3.15793931 -17.8125 2.0625 C-14.9375 2.4375 -14.9375 2.4375 -12.8125 3.0625 C-12.4825 2.4025 -12.1525 1.7425 -11.8125 1.0625 C-13.4625 1.3925 -15.1125 1.7225 -16.8125 2.0625 C-17.1425 1.0725 -17.4725 0.0825 -17.8125 -0.9375 C-11.68103226 -2.98132258 -6.05628 -1.74155713 0 0 Z M156.1875 387.0625 C157.1875 389.0625 157.1875 389.0625 157.1875 389.0625 Z M64.1875 498.0625 C62.2075 499.0525 62.2075 499.0525 60.1875 500.0625 C62.1675 500.0625 64.1475 500.0625 66.1875 500.0625 C65.5275 499.4025 64.8675 498.7425 64.1875 498.0625 Z M79.1875 502.0625 C83.1875 503.0625 83.1875 503.0625 83.1875 503.0625 Z M-1.8125 531.0625 C-2.1425 532.7125 -2.4725 534.3625 -2.8125 536.0625 C-1.4925 534.7425 -0.1725 533.4225 1.1875 532.0625 C0.1975 531.7325 -0.7925 531.4025 -1.8125 531.0625 Z M9.1875 545.0625 C8.8575 546.3825 8.5275 547.7025 8.1875 549.0625 C8.8475 549.0625 9.5075 549.0625 10.1875 549.0625 C9.8575 547.7425 9.5275 546.4225 9.1875 545.0625 Z M-52.8125 618.0625 C-52.4825 619.3825 -52.1525 620.7025 -51.8125 622.0625 C-50.1625 622.3925 -48.5125 622.7225 -46.8125 623.0625 C-46.8125 622.4025 -46.8125 621.7425 -46.8125 621.0625 C-47.43125 620.93875 -48.05 620.815 -48.6875 620.6875 C-50.8125 620.0625 -50.8125 620.0625 -52.8125 618.0625 Z " fill="#010101" transform="translate(401.8125,53.9375)"/>
<path d="M0 0 C1.32 0.66 2.64 1.32 4 2 C4 2.66 4 3.32 4 4 C6.46326712 5.6446674 6.46326712 5.6446674 9 7 C4.62695245 13.18549135 -0.94365125 15.62145548 -8 18 C-11.74465514 18.56215162 -15.2913656 18.87142775 -19 18 C-21 15 -21 15 -20.875 11.9375 C-20 9 -20 9 -18.125 7.875 C-17.42375 7.58625 -16.7225 7.2975 -16 7 C-15.566875 6.319375 -15.13375 5.63875 -14.6875 4.9375 C-12.15483963 2.02963068 -9.74449822 2.25824126 -6 2 C-4.33371045 1.96454703 -2.66590197 1.94951812 -1 2 C-0.67 1.34 -0.34 0.68 0 0 Z " fill="#191919" transform="translate(468,551)"/>
<path d="M0 0 C0 0.66 0 1.32 0 2 C-0.66 2 -1.32 2 -2 2 C-2.103125 2.763125 -2.20625 3.52625 -2.3125 4.3125 C-3.0681616 7.26644989 -3.46214383 8.33726664 -6 10 C-9.09501208 10.25265405 -11.20129973 10.39935013 -14 9 C-13.46375 9.556875 -12.9275 10.11375 -12.375 10.6875 C-11 13 -11 13 -11.625 15.625 C-13 18 -13 18 -16 20 C-18.04296875 20.1953125 -18.04296875 20.1953125 -20.1875 20.125 C-21.445625 20.08375 -22.70375 20.0425 -24 20 C-22.68 20.66 -21.36 21.32 -20 22 C-20.33 22.99 -20.66 23.98 -21 25 C-22.1446875 24.9071875 -22.1446875 24.9071875 -23.3125 24.8125 C-26.04525312 24.74101915 -26.04525312 24.74101915 -27.8125 26.5 C-28.204375 26.995 -28.59625 27.49 -29 28 C-29.66 26.68 -30.32 25.36 -31 24 C-30.59007812 23.59910156 -30.18015625 23.19820312 -29.7578125 22.78515625 C-25.38421215 18.17090324 -23.82479927 14.27131862 -23 8 C-21.9275 8.0825 -20.855 8.165 -19.75 8.25 C-15.19599937 7.94639996 -15.05328635 7.14052311 -12 4 C-3.71621622 0 -3.71621622 0 0 0 Z " fill="#1C1C1C" transform="translate(301,666)"/>
<path d="M0 0 C0.66 0 1.32 0 2 0 C2.33 1.98 2.66 3.96 3 6 C5.64 6.66 8.28 7.32 11 8 C10.67 8.99 10.34 9.98 10 11 C7.69 11 5.38 11 3 11 C3.350625 11.61875 3.70125 12.2375 4.0625 12.875 C4.371875 13.57625 4.68125 14.2775 5 15 C4.67 15.66 4.34 16.32 4 17 C0.21388773 16.45912682 -1.55400767 14.88277668 -4 12 C-4 11.34 -4 10.68 -4 10 C-4.928125 9.566875 -4.928125 9.566875 -5.875 9.125 C-8 8 -8 8 -10 6 C-9.625 3.875 -9.625 3.875 -9 2 C-6 2 -6 2 -3.3125 4.5 C-2.549375 5.325 -1.78625 6.15 -1 7 C-1.020625 6.030625 -1.04125 5.06125 -1.0625 4.0625 C-1 1 -1 1 0 0 Z " fill="#0D0D0D" transform="translate(607,188)"/>
<path d="M0 0 C-0.62759865 2.92879371 -1.58622659 5.36095629 -3 8 C-2.46375 7.67 -1.9275 7.34 -1.375 7 C1.5929092 5.75035402 3.80799279 5.72243416 7 6 C9 8 9 8 9.4375 10.8125 C8.86588806 14.97710129 7.13624593 16.33419096 4 19 C3.01 18.67 2.02 18.34 1 18 C2.33333333 15.33333333 3.66666667 12.66666667 5 10 C4.29875 10.350625 3.5975 10.70125 2.875 11.0625 C-0.52390945 12.17084004 -2.5659479 11.85851303 -6 11 C-7 10 -7 10 -7.25 7.1875 C-6.82272325 1.73972148 -5.53084094 0 0 0 Z " fill="#0D0D0D" transform="translate(419,66)"/>
<path d="M0 0 C0.33 0.66 0.66 1.32 1 2 C2.32 1.67 3.64 1.34 5 1 C5.309375 2.423125 5.309375 2.423125 5.625 3.875 C6.70833333 7.29166667 6.70833333 7.29166667 10.125 8.375 C11.07375 8.58125 12.0225 8.7875 13 9 C12.34 10.65 11.68 12.3 11 14 C8.97954558 13.39816251 6.97888961 12.72693904 5 12 C4.67 11.34 4.34 10.68 4 10 C2.7625 9.62875 2.7625 9.62875 1.5 9.25 C0.675 8.8375 -0.15 8.425 -1 8 C-1.9375 5 -1.9375 5 -2 2 C-1.34 1.34 -0.68 0.68 0 0 Z " fill="#0E0E0E" transform="translate(616,330)"/>
<path d="M0 0 C3 1 3 1 4 3 C5.98 3 7.96 3 10 3 C10.33 3.66 10.66 4.32 11 5 C9.906875 5.061875 8.81375 5.12375 7.6875 5.1875 C6.470625 5.455625 5.25375 5.72375 4 6 C3.505 6.825 3.01 7.65 2.5 8.5 C2.005 9.325 1.51 10.15 1 11 C-2.6875 11.8125 -2.6875 11.8125 -6 12 C-6.33 10.35 -6.66 8.7 -7 7 C-6.01 6.67 -5.02 6.34 -4 6 C-2.60287726 4.04402816 -1.26220093 2.04563599 0 0 Z " fill="#292929" transform="translate(441,56)"/>
<path d="M0 0 C-0.99 0.66 -1.98 1.32 -3 2 C-2.34 3.65 -1.68 5.3 -1 7 C-2.98 7.66 -4.96 8.32 -7 9 C-6.67 8.01 -6.34 7.02 -6 6 C-7.98 6 -9.96 6 -12 6 C-11.34 5.34 -10.68 4.68 -10 4 C-7.375 4.375 -7.375 4.375 -5 5 C-4.67 4.34 -4.34 3.68 -4 3 C-5.65 3.33 -7.3 3.66 -9 4 C-9.33 3.01 -9.66 2.02 -10 1 C-6.52674819 -0.1577506 -3.63932552 -0.06866652 0 0 Z " fill="#5C5C5C" transform="translate(394,52)"/>
<path d="M0 0 C-1.98 0.99 -1.98 0.99 -4 2 C-4.33 1.34 -4.66 0.68 -5 0 C-8.63 0 -12.26 0 -16 0 C-16 -0.99 -16 -1.98 -16 -3 C-10.69059392 -4.76980203 -4.9821892 -2.17970777 0 0 Z " fill="#4B4B4B" transform="translate(485,61)"/>
<path d="M0 0 C1.5625 1.25 1.5625 1.25 3 3 C2.6875 5.1875 2.6875 5.1875 2 7 C0.35 7.33 -1.3 7.66 -3 8 C-3 7.34 -3 6.68 -3 6 C-3.66 6 -4.32 6 -5 6 C-3.74821404 3.49642808 -2.00018842 1.93566621 0 0 Z " fill="#4F4F4F" transform="translate(402,586)"/>
<path d="M0 0 C0.33 0.66 0.66 1.32 1 2 C-0.23697917 3.46484375 -1.47395833 4.9296875 -2.7109375 6.39453125 C-3.89201099 7.8655046 -4.95358529 9.43037794 -6 11 C-7.0111514 7.78270009 -7.17213761 6.39863447 -5.8125 3.25 C-4 1 -4 1 -1.8125 0.1875 C-0.9153125 0.0946875 -0.9153125 0.0946875 0 0 Z " fill="#565656" transform="translate(454,557)"/>
<path d="M0 0 C3.375 -0.1875 3.375 -0.1875 7 0 C7.66 0.99 8.32 1.98 9 3 C6.08517222 3.80967438 4.53886783 4.21845993 1.6875 3.0625 C1.130625 2.711875 0.57375 2.36125 0 2 C0 1.34 0 0.68 0 0 Z " fill="#414141" transform="translate(411,588)"/>
<path d="M0 0 C0.66 0.33 1.32 0.66 2 1 C-1.3 4.3 -4.6 7.6 -8 11 C-8.33 10.01 -8.66 9.02 -9 8 C-6.03 5.36 -3.06 2.72 0 0 Z " fill="#3B3B3B" transform="translate(62,434)"/>
<path d="M0 0 C2.475 0.99 2.475 0.99 5 2 C5 2.99 5 3.98 5 5 C3.35 5 1.7 5 0 5 C-0.5625 3.0625 -0.5625 3.0625 -1 1 C-0.67 0.67 -0.34 0.34 0 0 Z " fill="#020202" transform="translate(280,677)"/>
<path d="M0 0 C-0.309375 0.53625 -0.61875 1.0725 -0.9375 1.625 C-2.17827439 4.3984957 -2.5909675 7.00042837 -3 10 C-3.66 9.67 -4.32 9.34 -5 9 C-5.36666667 3.5 -5.36666667 3.5 -3.625 1.125 C-2 0 -2 0 0 0 Z " fill="#515151" transform="translate(561,433)"/>
<path d="M0 0 C3.63 0.66 7.26 1.32 11 2 C9.60804085 4.7839183 7.84424221 4.97898997 5 6 C4.67 5.01 4.34 4.02 4 3 C1.99983534 1.79117904 1.99983534 1.79117904 0 1 C0 0.67 0 0.34 0 0 Z " fill="#656565" transform="translate(475,553)"/>
<path d="M0 0 C0.33 1.32 0.66 2.64 1 4 C0.0925 4.28875 -0.815 4.5775 -1.75 4.875 C-4.32202908 5.76531776 -6.61346766 6.71494413 -9 8 C-7.25 5 -7.25 5 -5 2 C-3.68 2 -2.36 2 -1 2 C-0.67 1.34 -0.34 0.68 0 0 Z " fill="#474747" transform="translate(75,546)"/>
<path d="M0 0 C0.66 0.66 1.32 1.32 2 2 C1.34 3.65 0.68 5.3 0 7 C-1.32 6.67 -2.64 6.34 -4 6 C-2.84826645 3.53199953 -1.95216435 1.95216435 0 0 Z " fill="#444444" transform="translate(549,494)"/>
<path d="M0 0 C1.32 0.66 2.64 1.32 4 2 C3.34 4.31 2.68 6.62 2 9 C0.59306362 6.37371875 -0.49157276 3.94887797 -1 1 C-0.67 0.67 -0.34 0.34 0 0 Z " fill="#616161" transform="translate(543,522)"/>
<path d="M0 0 C1.65 0 3.3 0 5 0 C5 1.32 5 2.64 5 4 C4.01 4.33 3.02 4.66 2 5 C1.34 3.35 0.68 1.7 0 0 Z " fill="#424242" transform="translate(429,58)"/>
<path d="M0 0 C2.97 0 5.94 0 9 0 C8.01 0.66 7.02 1.32 6 2 C5.67 2.99 5.34 3.98 5 5 C4.01 4.67 3.02 4.34 2 4 C2 3.01 2 2.02 2 1 C1.34 0.67 0.68 0.34 0 0 Z " fill="#2E2E2E" transform="translate(389,53)"/>
<path d="M0 0 C2.64 0.33 5.28 0.66 8 1 C8 1.66 8 2.32 8 3 C4.37673261 4.2077558 3.35853631 3.54311128 0 2 C0 1.34 0 0.68 0 0 Z " fill="#4D4D4D" transform="translate(462,547)"/>
</svg>
