<?xml version="1.0" encoding="UTF-8"?>
<svg version="1.1" xmlns="http://www.w3.org/2000/svg" width="712" height="742">
<path d="M0 0 C234.96 0 469.92 0 712 0 C712 244.86 712 489.72 712 742 C477.04 742 242.08 742 0 742 C0 497.14 0 252.28 0 0 Z " fill="#010101" transform="translate(0,0)"/>
<path d="M0 0 C234.96 0 469.92 0 712 0 C712 244.86 712 489.72 712 742 C477.04 742 242.08 742 0 742 C0 497.14 0 252.28 0 0 Z M385 53 C385 53.99 385 54.98 385 56 C386.98 55.34 388.96 54.68 391 54 C391.33 54.99 391.66 55.98 392 57 C390.515 57.495 390.515 57.495 389 58 C388.67 57.67 388.34 57.34 388 57 C386.21798083 57.20964931 384.43675263 57.4281911 382.66015625 57.6796875 C378.17943023 58.21921692 373.67539578 58.44342559 369.171875 58.71875 C366.63993307 58.94325717 364.42495703 59.27971573 362 60 C362 59.34 362 58.68 362 58 C354.66247023 57.24380611 354.66247023 57.24380611 348.1875 60.0625 C347.1046875 61.5165625 347.1046875 61.5165625 346 63 C345.49855469 63.50789063 344.99710937 64.01578125 344.48046875 64.5390625 C338.80450414 70.36693857 336.85047761 77.07374627 336.8125 85.125 C336.874375 86.40375 336.93625 87.6825 337 89 C336.34 89 335.68 89 335 89 C334.54625 90.0725 334.0925 91.145 333.625 92.25 C332.80271083 94.19359258 331.98493034 96.0258805 330.921875 97.8515625 C329.35230571 101.50945702 329.64486948 105.38621645 329.5390625 109.3203125 C329 112 329 112 326.9609375 113.3671875 C326.31382812 113.57601562 325.66671875 113.78484375 325 114 C325 114.66 325 115.32 325 116 C324.29101562 115.88914063 323.58203125 115.77828125 322.8515625 115.6640625 C318.80814055 116.14041084 316.98986387 118.50152322 314.375 121.375 C309.24773756 126.83484163 309.24773756 126.83484163 306 129 C306 129.66 306 130.32 306 131 C303.0625 129.6875 303.0625 129.6875 300 128 C299.67 127.01 299.34 126.02 299 125 C295.7 124.67 292.4 124.34 289 124 C283.98624381 134.53615313 283.98624381 134.53615313 283 146 C283.66 146.66 284.32 147.32 285 148 C284.984375 150.33984375 284.984375 150.33984375 284 153 C281.453125 155.31640625 281.453125 155.31640625 278.25 157.5625 C277.20328125 158.30628906 276.1565625 159.05007812 275.078125 159.81640625 C274.06234375 160.53699219 273.0465625 161.25757813 272 162 C270.82244141 163.13115234 270.82244141 163.13115234 269.62109375 164.28515625 C266.0139684 166.6451086 262.93120015 166.19420153 258.8125 165.875 C251.93244216 165.58400499 248.03492935 166.38064548 242.35546875 170.53515625 C238.81578919 172.73644951 235.23421052 173.14336385 231.15234375 173.67578125 C229.02344508 173.77859111 229.02344508 173.77859111 228 175 C227.79588517 178.52287081 227.65359392 182.03884316 227.5703125 185.56640625 C227.37642912 190.24384279 226.76374178 193.06868816 224 197 C224 197.66 224 198.32 224 199 C216.87936803 198.75903107 211.34951695 197.99875897 204.97265625 194.79296875 C202.06338698 193.62350011 199.92963118 194.07109255 197 195 C196.34 195.33 195.68 195.66 195 196 C193.58522711 196.12732956 192.16798137 196.22809635 190.75 196.3125 C187.26472703 196.64285763 186.18529986 196.85779313 183.3125 199.0625 C177.92237069 202.21521714 172.10163821 201.30090271 166 201 C165 199 164 197 163 195 C161.329375 195.185625 161.329375 195.185625 159.625 195.375 C158.89152344 195.45621094 158.15804687 195.53742188 157.40234375 195.62109375 C154.97964779 195.94619248 154.97964779 195.94619248 152.62890625 196.72265625 C148.5635829 197.91298293 146.11450936 198.48219589 142.12890625 196.7578125 C140.26343791 195.65928705 138.42987929 194.50388484 136.640625 193.28515625 C133.20125799 191.61126314 131.63795494 191.91932709 128 193 C124.91975078 194.52998741 124.91975078 194.52998741 121.9375 196.4375 C116.2342449 199.9534063 112.04490201 202.28636762 105.25 202.1875 C104.20457031 202.17332031 103.15914063 202.15914062 102.08203125 202.14453125 C99.33073074 202.01550955 96.66475643 201.74547837 93.9375 201.375 C89.95028543 200.57735766 89.95028543 200.57735766 87 203 C87.268125 203.515625 87.53625 204.03125 87.8125 204.5625 C88.204375 205.366875 88.59625 206.17125 89 207 C89.52851562 208.00289062 90.05703125 209.00578125 90.6015625 210.0390625 C92.57086117 214.65334648 92.04038823 218.91696781 91.5625 223.8125 C91.40857431 225.50568264 91.26358527 227.1997091 91.12890625 228.89453125 C91.05744385 229.63550049 90.98598145 230.37646973 90.91235352 231.13989258 C90.80272853 233.2514231 90.80272853 233.2514231 93 235 C96.36423199 235.02106594 96.36423199 235.02106594 100.125 234.625 C101.40632813 234.51414063 102.68765625 234.40328125 104.0078125 234.2890625 C105.48894531 234.14597656 105.48894531 234.14597656 107 234 C106.93489583 236.01822917 106.86979167 238.03645833 106.8046875 240.0546875 C106.81668311 242.23863645 106.81668311 242.23863645 109 244 C108.88442 246.06599257 108.70847537 248.12880574 108.5 250.1875 C108.35693592 255.26365645 108.35693592 255.26365645 111.078125 259.34375 C114.33349636 261.59014661 117.56807781 263.43568344 121.25 264.88671875 C123 266 123 266 123.828125 268.1015625 C124.26760393 270.73029757 124.65979119 273.35653844 125 276 C125.226875 277.27875 125.45375 278.5575 125.6875 279.875 C125.53891815 287.17036881 118.14588074 293.7671241 113.3984375 298.70703125 C111.58240022 300.44321021 109.81400596 301.99752904 107.8125 303.5 C104.86068031 305.67622334 104.86068031 305.67622334 104.30078125 308.41796875 C102.34100179 312.30810155 99.27182541 313.1840296 95.375 314.8125 C94.66859375 315.12380859 93.9621875 315.43511719 93.234375 315.75585938 C91.496234 316.51923211 89.74893875 317.26170104 88 318 C87.32419078 325.09599686 88.36767098 328.18445244 92.59765625 333.84765625 C94.611641 336.9387582 94.84502976 339.35819932 95 343 C94.38511719 343.06058594 93.77023438 343.12117188 93.13671875 343.18359375 C91.92435547 343.30927734 91.92435547 343.30927734 90.6875 343.4375 C89.88699219 343.51871094 89.08648437 343.59992188 88.26171875 343.68359375 C84.38855764 344.22543494 83.1077464 344.88455743 80.375 347.8125 C77.43070155 352.04877419 77.36132749 356.18557305 77.23828125 361.23046875 C76.99559319 364.05122014 76.61601966 365.68603165 75 368 C71.875 368.75 71.875 368.75 69 369 C68.71125 368.401875 68.4225 367.80375 68.125 367.1875 C66.41661817 363.4760616 66.41661817 363.4760616 63.15234375 361.3828125 C57.09600758 360.67784215 52.60499496 361.6546475 47 364 C46.79029441 368.14093698 46.79029441 368.14093698 48 372 C48.14851844 373.93359586 48.22130833 375.87342097 48.25 377.8125 C48.27578125 378.85019531 48.3015625 379.88789063 48.328125 380.95703125 C47.95892124 384.38095661 46.86595178 386.15454598 45 389 C44.76315895 391.56900326 44.76315895 391.56900326 46 394 C47.03125 394.639375 48.0625 395.27875 49.125 395.9375 C50.8046875 397.171875 50.8046875 397.171875 52 399 C51.8203125 402.078125 51.8203125 402.078125 51.25 405.6875 C50.52364116 411.10005588 50.52364116 411.10005588 52.99609375 415.75 C54.79291708 417.3773117 56.61910473 418.9727657 58.47265625 420.53515625 C62.38962407 424.35525933 63.67374347 428.79394826 65 434 C64.25363281 434.27199219 63.50726563 434.54398437 62.73828125 434.82421875 C58.83787887 436.49899923 55.78119736 438.78669571 53 442 C52.41036322 444.75775342 52.41036322 444.75775342 53 447 C52.071875 447.391875 51.14375 447.78375 50.1875 448.1875 C46.75028594 450.14199427 45.53098158 451.39769041 44 455 C44.33 455.99 44.66 456.98 45 458 C47.01508358 458.73323796 47.01508358 458.73323796 49 459 C49.37876606 465.18651231 48.92296816 469.49132923 46 475 C45.34 475.66 44.68 476.32 44 477 C44.32559858 480.50018469 45.00804118 483.016404 46.5625 486.1875 C47.10587686 490.92264125 46.150235 491.63587254 43.3125 495.3125 C42.56613281 496.24835938 41.81976563 497.18421875 41.05078125 498.1484375 C37.32147423 503.33395012 36 508.68017681 36 515 C37.175625 515.53625 38.35125 516.0725 39.5625 516.625 C42.70864001 518.16483613 45.03912592 519.82985486 47.5625 522.25 C50.40629216 524.87755728 50.40629216 524.87755728 54.4375 524.875 C58.73557482 525.02580964 59.31316504 525.84345113 62.25 528.8125 C63.51166022 530.19780292 64.76252796 531.5930481 66 533 C66.52980469 533.50015625 67.05960938 534.0003125 67.60546875 534.515625 C69.19724318 536.20995073 70.06839339 537.84061926 71.0625 539.9375 C71.38347656 540.60652344 71.70445313 541.27554687 72.03515625 541.96484375 C72.35355469 542.63644531 72.67195313 543.30804687 73 544 C73.66388938 545.33471837 74.32976112 546.66845876 75 548 C74.29875 547.855625 73.5975 547.71125 72.875 547.5625 C69.36235654 548.0970327 69.16028891 548.8050118 67.125 551.5625 C65.6171875 553.50390625 65.6171875 553.50390625 64 555 C60.42705543 555 58.17551166 554.58775583 55 553 C53.12620395 552.92966231 51.24998898 552.9156978 49.375 552.9375 C47.87066406 552.95103516 47.87066406 552.95103516 46.3359375 552.96484375 C45.56507812 552.97644531 44.79421875 552.98804688 44 553 C43.731875 552.360625 43.46375 551.72125 43.1875 551.0625 C42.11332248 548.66868314 42.11332248 548.66868314 39 548 C39 545.03 39 542.06 39 539 C35.52254801 537.41030766 32.83557374 536.58534338 29 537 C26.72204978 539.27795022 25.94780123 540.93787293 25 544 C25.25622487 547.97148548 27.60507031 550.93981206 30 554 C32.50447516 555.21869929 32.50447516 555.21869929 35 556 C36.625 557.18359375 36.625 557.18359375 38 559 C38.37109375 561.7421875 38.37109375 561.7421875 38.4375 564.875 C38.67736264 568.62681381 38.84582948 570.70944786 40.625 574.0625 C45.70825378 578.20936493 49.70954748 579.07550713 56.125 579.375 C61.66290222 579.67731724 63.18600614 580.97411759 67 585 C69.8172825 585.09923891 72.20666421 584.54950868 75 584 C75.66 584.33 76.32 584.66 77 585 C77 585.99 77 586.98 77 588 C76.175 588.598125 75.35 589.19625 74.5 589.8125 C71.77855605 591.7431344 71.77855605 591.7431344 71.5 594.5625 C72.218733 599.50378937 73.57152349 604.22140596 75 609 C77.97 609 80.94 609 84 609 C83.69651418 613.04647763 82.7811133 615.47661737 80.4375 618.6875 C77.20529791 623.54514476 77.19496057 628.33082758 78 634 C79.44572829 638.44839473 81.5585897 640.83027999 85 644 C85.99 643.67 86.98 643.34 88 643 C88.33 640.03 88.66 637.06 89 634 C89.71462402 634.32540771 90.42924805 634.65081543 91.16552734 634.98608398 C99.5181978 637.97390831 113.29688093 637.04221585 121.35546875 633.54296875 C122.98875398 632.35111196 124.58677046 631.10931389 126.14453125 629.8203125 C130.78510917 626.86202343 136.15132953 626.08568963 141.54223633 625.21386719 C143.98048946 624.71781651 145.8508183 624.26162407 148 623 C150.26705774 619.18607245 151 615.3976758 151 611 C154 612 154 612 155.6875 615.0625 C156.120625 616.031875 156.55375 617.00125 157 618 C157.5671875 617.69707031 158.134375 617.39414062 158.71875 617.08203125 C160.9655338 616.01634784 163.10924231 615.3547834 165.5 614.6875 C169.6609003 613.33246997 171.73169689 611.87501781 174 608 C174.36425563 606.6747805 174.70366805 605.34204183 175 604 C184.23777739 605.12817684 193.32223312 606.55900412 202.44140625 608.4140625 C205.71057629 608.95234516 208.6961405 609.11199524 212 609 C211.87818359 610.21236328 211.87818359 610.21236328 211.75390625 611.44921875 C211.11505534 617.42278303 211.11505534 617.42278303 213.3828125 622.62890625 C214.61367123 623.39353061 215.87122963 624.11638102 217.1484375 624.80078125 C219.38647622 626.25031266 220.08818313 627.59015867 221.3125 629.9375 C224.2047783 635.00138926 228.67204497 637.80221855 234 640 C236.54308341 640.62518237 236.54308341 640.62518237 239 640 C239.56203125 639.19820312 240.1240625 638.39640625 240.703125 637.5703125 C243.72572674 634.18787722 245.69389325 634.3068063 250.0703125 633.99609375 C250.95460937 633.95613281 251.83890625 633.91617188 252.75 633.875 C259.49478914 633.50473709 264.72822706 632.53178713 271 630 C273.40215614 629.7683594 275.58118249 629.84882391 278 630 C278.24234375 630.65226563 278.4846875 631.30453125 278.734375 631.9765625 C281.75087098 639.84265585 284.38498023 645.69585839 292 650 C292.66 650 293.32 650 294 650 C294.29003906 650.92232422 294.29003906 650.92232422 294.5859375 651.86328125 C294.84632813 652.67152344 295.10671875 653.47976563 295.375 654.3125 C295.75785156 655.51326172 295.75785156 655.51326172 296.1484375 656.73828125 C296.98831811 659.22724528 296.98831811 659.22724528 299 662 C299 663.32 299 664.64 299 666 C298.14535156 666.31453125 297.29070312 666.6290625 296.41015625 666.953125 C294.75306641 667.59507812 294.75306641 667.59507812 293.0625 668.25 C291.96035156 668.66765625 290.85820312 669.0853125 289.72265625 669.515625 C286.85102542 670.70782867 286.85102542 670.70782867 286.12109375 673.171875 C286.08113281 673.77515625 286.04117187 674.3784375 286 675 C283.36 675 280.72 675 278 675 C277.82984375 675.60328125 277.6596875 676.2065625 277.484375 676.828125 C276.00334302 681.71237939 274.70758085 684.42026676 271 688 C270.52572108 690.43625811 270.52572108 690.43625811 271 693 C272.64764931 694.85812405 272.64764931 694.85812405 274.875 696.25 C275.59429687 696.75015625 276.31359375 697.2503125 277.0546875 697.765625 C281.54507839 700.61494934 284.88137761 699.85739069 290 699 C292.02024799 698.3974699 294.03233469 697.75679435 296 697 C296.226875 697.556875 296.45375 698.11375 296.6875 698.6875 C298.46384764 701.81725537 300.1518522 703.77101476 303 706 C309.46870452 706.87711248 314.90074146 705.09974474 321 703 C321 702.34 321 701.68 321 701 C322.98 700.34 324.96 699.68 327 699 C327.10957031 698.10796875 327.21914063 697.2159375 327.33203125 696.296875 C327.49058594 695.12640625 327.64914062 693.9559375 327.8125 692.75 C328.03873047 691.00976562 328.03873047 691.00976562 328.26953125 689.234375 C329.39900385 684.23328775 329.39900385 684.23328775 332 682 C335.328125 681.49609375 335.328125 681.49609375 339.25 681.4375 C344.80906212 681.26246907 349.10763015 680.74450016 354 678 C352.68 677.34 351.36 676.68 350 676 C350 675.34 350 674.68 350 674 C351.98 674 353.96 674 356 674 C356.66 675.65 357.32 677.3 358 679 C364.96248249 679.11800818 370.38397806 678.30791463 377 676 C377 675.34 377 674.68 377 674 C377.66 673.67 378.32 673.34 379 673 C378.34 672.01 377.68 671.02 377 670 C377.639375 669.855625 378.27875 669.71125 378.9375 669.5625 C380.97545146 669.18992819 380.97545146 669.18992819 382 668 C386.86306187 667.76381144 391.09108513 668.30975633 395.8125 669.4375 C400.9373651 670.60796012 405.8629991 671.40476651 411.109375 671.69140625 C413 672 413 672 415 674 C419.44923665 674 421.68400462 671.69507473 424.84375 668.8125 C427.45133342 666.62061829 430.21136442 664.8006183 433.0625 662.9375 C437.3081962 660.15274523 441.20479938 657.36392782 445 654 C445.64582031 653.44441406 446.29164063 652.88882813 446.95703125 652.31640625 C453.41642976 646.74382683 459.18410531 641.08317158 464 634 C464 633.67 464 633.34 464 633 C462.02 633 460.04 633 458 633 C458.72939682 619.33340698 458.72939682 619.33340698 460.0625 614.625 C461.13143326 610.4917914 461.22357848 607.24799103 461 603 C460.67 602.67 460.34 602.34 460 602 C459.90176004 600.52351124 459.87026481 599.04224583 459.875 597.5625 C459.87242187 596.75941406 459.86984375 595.95632813 459.8671875 595.12890625 C460 593 460 593 461 591 C461.34834811 587.2378404 461.50642431 584.85871947 459.5625 581.5625 C456.34955901 579.60338964 454.05627818 579.13797184 450.3125 579.2734375 C446.41550281 580.49783189 444.76713783 583.423722 442.60546875 586.73828125 C439.89456642 590.55728964 437.8692909 591.84063 433.25 592.6875 C431.64125 592.8421875 431.64125 592.8421875 430 593 C430 592.34 430 591.68 430 591 C427.03 591.33 424.06 591.66 421 592 C421 593.32 421 594.64 421 596 C419.88625 596.1546875 419.88625 596.1546875 418.75 596.3125 C415.74719994 597.06320001 414.25277257 597.90259105 412 600 C411.649375 600.70125 411.29875 601.4025 410.9375 602.125 C410.628125 602.74375 410.31875 603.3625 410 604 C409.01 604.33 408.02 604.66 407 605 C407 604.34 407 603.68 407 603 C407.99 602.67 408.98 602.34 410 602 C410.33 601.01 410.66 600.02 411 599 C411.66 598.67 412.32 598.34 413 598 C413 597.34 413 596.68 413 596 C410.03 595.01 407.06 594.02 404 593 C404.33 591.68 404.66 590.36 405 589 C404.67 588.34 404.34 587.68 404 587 C405.98 587 407.96 587 410 587 C410 586.34 410 585.68 410 585 C413.87193951 584.3109696 417.40862594 583.93763433 421.33984375 584.1484375 C431.41847414 584.9961713 431.41847414 584.9961713 440.125 580.625 C442.50546222 578.19069122 442.50546222 578.19069122 443 575 C440.53673288 573.3553326 440.53673288 573.3553326 438 572 C440.97 572.33 443.94 572.66 447 573 C446.23543548 568.98878879 446.23543548 568.98878879 444 566 C444.99 566.33 445.98 566.66 447 567 C447 566.34 447 565.68 447 565 C447.66 565 448.32 565 449 565 C449 566.32 449 567.64 449 569 C454.96750066 569.31285926 458.97289792 569.51897145 464 566 C467.29735984 564.57370016 470.64476208 563.28345994 474 562 C474 561.34 474 560.68 474 560 C474.66 560 475.32 560 476 560 C476 559.01 476 558.02 476 557 C470.47239641 554.89424625 465.93002267 553.62148791 460 554 C462.64 553.34 465.28 552.68 468 552 C468 551.34 468 550.68 468 550 C468.66 550 469.32 550 470 550 C469.835 549.113125 469.67 548.22625 469.5 547.3125 C469.07004243 544.46403108 468.91558965 541.86995198 469 539 C470 541 470 541 470.75 544.75 C471.96048389 549.4545757 473.17630158 551.87861354 477 555 C480.72061674 555.4925887 484.27106462 555.35264888 488 555 C485.03 556.485 485.03 556.485 482 558 C482.11458693 559.43836751 482.24209116 560.87570966 482.375 562.3125 C482.44460938 563.11300781 482.51421875 563.91351562 482.5859375 564.73828125 C482.89564426 567.27224441 482.89564426 567.27224441 485 570 C488.10070013 570.19686985 490.91594453 570.17898536 494 570 C494.886875 569.98066406 495.77375 569.96132813 496.6875 569.94140625 C503.79925974 569.60804251 508.89504646 567.56854299 515 564 C516.546875 563.1646875 516.546875 563.1646875 518.125 562.3125 C518.74375 561.879375 519.3625 561.44625 520 561 C520 560.34 520 559.68 520 559 C520.99 558.79375 521.98 558.5875 523 558.375 C534.7584932 554.87096903 543.8468828 542.05337685 550 532 C550.75060849 528.91382729 550.75060849 528.91382729 550 526 C548.28904021 523.31055892 548.28904021 523.31055892 545 522 C541.26230231 521.92556505 537.66772006 522.27999455 534 523 C533.67 523.33 533.34 523.66 533 524 C532.67 523.34 532.34 522.68 532 522 C532.93714844 521.96132813 533.87429688 521.92265625 534.83984375 521.8828125 C535.88269531 521.59148437 536.92554688 521.30015625 538 521 C539.64367807 518.2738168 539.64367807 518.2738168 540.5625 514.875 C544.73261589 502.63369205 544.73261589 502.63369205 550 500 C550 498.35 550 496.7 550 495 C549.01 495.33 548.02 495.66 547 496 C547 496.99 547 497.98 547 499 C546.34 498.319375 545.68 497.63875 545 496.9375 C541.64329948 494.76963091 540.29592172 494.85313454 536.46484375 495.56640625 C533.33884597 496.11630443 530.22590417 496.37206626 527.0625 496.625 C525.37833984 496.76808594 525.37833984 496.76808594 523.66015625 496.9140625 C522.78230469 496.94242187 521.90445312 496.97078125 521 497 C520.67 496.67 520.34 496.34 520 496 C516.5 495.83333333 516.5 495.83333333 513 496 C512.67 496.33 512.34 496.66 512 497 C510.189715 497.09879565 508.37547273 497.12971514 506.5625 497.125 C505.57378906 497.12757813 504.58507812 497.13015625 503.56640625 497.1328125 C501 497 501 497 499 496 C497.45976004 495.93049459 495.91665012 495.91547643 494.375 495.9375 C493.14910156 495.95103516 493.14910156 495.95103516 491.8984375 495.96484375 C491.27195312 495.97644531 490.64546875 495.98804688 490 496 C490 495.34 490 494.68 490 494 C490.7425 493.87625 491.485 493.7525 492.25 493.625 C494.80141485 493.04513299 496.7267573 492.26291261 499 491 C499 491.66 499 492.32 499 493 C504.53564607 493.3193642 507.55711097 493.47100705 512 490 C514.98563077 489.43627951 517.969529 489.1877856 521 489 C521.33 489.99 521.66 490.98 522 492 C523.74818591 492.22304441 525.49870323 492.4278645 527.25 492.625 C528.71179688 492.79902344 528.71179688 492.79902344 530.203125 492.9765625 C533.18037592 493.00151153 534.45574891 492.42146202 537 491 C539.5 491.3125 539.5 491.3125 542 492 C543.32 492.33 544.64 492.66 546 493 C545.67 488.38 545.34 483.76 545 479 C537.30076634 475.49258932 537.30076634 475.49258932 529 475 C528.79375 474.38125 528.5875 473.7625 528.375 473.125 C527.14889465 470.712137 527.14889465 470.712137 524.25 470.25 C519.60752976 468.46443452 517.53620576 465.17193456 515 461 C514.67 460.01 514.34 459.02 514 458 C514.66 458 515.32 458 516 458 C516 458.99 516 459.98 516 461 C516.99 461 517.98 461 519 461 C520 463 521 465 522 467 C523.155 467.33 524.31 467.66 525.5 468 C526.655 468.33 527.81 468.66 529 469 C529.33 469.66 529.66 470.32 530 471 C531.99054876 471.69437747 533.99255385 472.35610218 536 473 C536.99 473.515625 537.98 474.03125 539 474.5625 C542.06063592 476.02905471 544.64699875 476.60083318 548 477 C547.91298828 477.99580078 547.91298828 477.99580078 547.82421875 479.01171875 C547.461873 484.93977718 547.461873 484.93977718 550.3125 490 C552.17187548 491.38372129 554.07151601 492.71434401 556 494 C556.70052461 496.663063 556.77744818 499.24035737 557 502 C559.30493884 499.82462873 561.07490979 497.54033314 562.875 494.9375 C565.36221101 491.54528895 567.04781154 490.45606943 571 489 C573.26325246 486.02236957 573.26325246 486.02236957 575 483 C575.33 482.67 575.66 482.34 576 482 C576.04063832 480.33382885 576.042721 478.66611905 576 477 C575.34 477 574.68 477 574 477 C573.731875 476.38125 573.46375 475.7625 573.1875 475.125 C572.04443152 472.7004767 572.04443152 472.7004767 569 471 C568.33333333 468.66666667 567.66666667 466.33333333 567 464 C566.01 463.34 565.02 462.68 564 462 C563.95833998 459.6670386 563.95833998 457.3329614 564 455 C563.34 454.34 562.68 453.68 562 453 C561.59952556 450.67724823 561.2602896 448.34260643 561 446 C560.34 446 559.68 446 559 446 C558.67 444.68 558.34 443.36 558 442 C558.66 441.67 559.32 441.34 560 441 C560.33 442.32 560.66 443.64 561 445 C562.32 445.33 563.64 445.66 565 446 C564.979375 447.051875 564.95875 448.10375 564.9375 449.1875 C564.98935248 452.35050152 565.33814048 454.93889974 566 458 C566 459.32 566 460.64 566 462 C566.99 462.66 567.98 463.32 569 464 C569.268125 465.11375 569.53625 466.2275 569.8125 467.375 C571.28836399 471.88026902 573.04129533 472.6082826 577 475 C578.1875 477.11328125 578.1875 477.11328125 579 479 C585.76440328 475.17299269 588.30730978 471.10617357 590.796875 463.8046875 C592.10013436 460.7665699 593.61031472 459.2342586 596 457 C596.33 456.13375 596.66 455.2675 597 454.375 C598.24971623 451.40692394 599.11658421 451.26495587 602 450 C602.72952881 449.67862061 603.45905762 449.35724121 604.21069336 449.02612305 C604.99581299 448.69136963 605.78093262 448.35661621 606.58984375 448.01171875 C607.45673828 447.63466797 608.32363281 447.25761719 609.21679688 446.86914062 C611.02305036 446.08465867 612.83295564 445.30852923 614.64648438 444.54101562 C621.72872847 441.46730913 621.72872847 441.46730913 627 436 C628.19198491 432.11754578 628.84897339 428.19149155 629.5 424.1875 C630.81638552 416.79263547 632.20890045 409.69809695 634.75 402.625 C637.29927065 395.08871865 637.69517825 387.90100387 637.859375 379.984375 C637.96752463 376.92013546 638.27169429 374.87268237 639 372 C639.07327526 370.15590592 639.14419036 368.31157645 639.18823242 366.46655273 C639.50342021 355.79377083 642.29556084 348.38972754 649.66796875 340.47265625 C652.47279948 337.37171436 653.22673627 335.1581786 653.6875 331.125 C654.87001446 323.92501275 658.44771902 318.27405182 662 312 C665.44250302 305.65288505 665.20031311 299.83335636 664.91015625 292.68359375 C665.06527914 286.32355529 667.22937501 280.65207498 670 275 C671.485 274.01 671.485 274.01 673 273 C673.44047137 270.66903882 673.44047137 270.66903882 673.3125 268.0625 C673.30863281 267.18722656 673.30476562 266.31195313 673.30078125 265.41015625 C673.15013081 262.74052153 673.15013081 262.74052153 671 260 C670.42586637 257.97267647 669.91002591 255.92838486 669.4375 253.875 C668.83335605 250.12980201 668.83335605 250.12980201 667 247 C666.60056824 244.47804033 666.24920152 241.97036344 665.9375 239.4375 C665.84662109 238.72658203 665.75574219 238.01566406 665.66210938 237.28320312 C665.43760497 235.52261597 665.21831603 233.76136522 665 232 C665.66 232 666.32 232 667 232 C668.98587071 214.27198393 668.98587071 214.27198393 666 197 C665.53593565 195.4183369 665.07815997 193.83482174 664.625 192.25 C663.23216797 187.60486983 661.59346192 183.07493353 659.90234375 178.53125 C659.17445262 176.48937358 658.56736831 174.40467065 658 172.3125 C654.00565774 159.08124125 643.9905726 149.81781396 634.5 140.25 C633.7052124 139.4458667 632.9104248 138.6417334 632.09155273 137.81323242 C627.60368918 133.34938049 623.00264172 129.29736847 617.95117188 125.48339844 C615.69169566 123.76560846 613.5875919 121.92191 611.5 120 C608.65416487 117.42449463 605.76860431 115.03723419 602.6875 112.75 C598.8930033 109.87299818 595.65277062 106.62377644 592.375 103.1875 C586.05858802 96.62563965 578.87371532 91.55104773 571 87 C570.34 87 569.68 87 569 87 C569 86.34 569 85.68 569 85 C567.37272725 84.06518374 565.7439877 83.13285906 564.109375 82.2109375 C562.70958166 81.40735243 561.32360036 80.57918648 559.953125 79.7265625 C553.89178748 76.07648699 547.8839133 74.45945711 541 73 C540.36433105 72.83806152 539.72866211 72.67612305 539.07373047 72.50927734 C534.69007934 71.42808987 530.45184653 70.81514958 525.9453125 70.5 C511.56213662 69.48244208 499.22753628 66.98584513 485.88330078 61.40429688 C479.91671391 58.92348661 475.48211988 57.39719417 469 58 C469 58.99 469 59.98 469 61 C472.63 61 476.26 61 480 61 C480 61.66 480 62.32 480 63 C472.08 63 464.16 63 456 63 C456 62.34 456 61.68 456 61 C451.59085217 59.89771304 447.51617599 59.92345464 443 60 C443 59.01 443 58.02 443 57 C442.01 57 441.02 57 440 57 C439.2575 58.2375 439.2575 58.2375 438.5 59.5 C437.7575 60.7375 437.7575 60.7375 437 62 C436.01 62 435.02 62 434 62 C434 60.68 434 59.36 434 58 C432.61941406 57.92652344 432.61941406 57.92652344 431.2109375 57.8515625 C410.30623935 56.61686546 410.30623935 56.61686546 400.875 53.875 C395.56133358 52.67513984 390.42315069 52.83730548 385 53 Z " fill="#FDFDFD" transform="translate(0,0)"/>
<path d="M0 0 C0.33 1.32 0.66 2.64 1 4 C2.74965358 4.05429959 4.49979787 4.09292823 6.25 4.125 C7.22453125 4.14820313 8.1990625 4.17140625 9.203125 4.1953125 C12.05507092 3.99615427 13.53248596 3.34348378 16 2 C19.00758722 2.22006736 20.51731158 2.5838893 22.8125 4.5625 C23.4003125 5.2740625 23.4003125 5.2740625 24 6 C23.67 6.66 23.34 7.32 23 8 C22.030625 7.95875 21.06125 7.9175 20.0625 7.875 C17.0579988 7.8628606 14.41681254 8.28955852 11.5 9 C7.52465108 9.95980171 4.08255682 10.2551598 0 10 C-0.33 9.67 -0.66 9.34 -1 9 C-4.5 8.83333333 -4.5 8.83333333 -8 9 C-8.33 9.33 -8.66 9.66 -9 10 C-10.810285 10.09879565 -12.62452727 10.12971514 -14.4375 10.125 C-15.42621094 10.12757813 -16.41492188 10.13015625 -17.43359375 10.1328125 C-20 10 -20 10 -22 9 C-23.53668865 8.77532169 -25.07968054 8.59203195 -26.625 8.4375 C-27.44226563 8.35371094 -28.25953125 8.26992188 -29.1015625 8.18359375 C-29.72804688 8.12300781 -30.35453125 8.06242187 -31 8 C-31 7.34 -31 6.68 -31 6 C-25.375 3 -25.375 3 -22 3 C-22 3.66 -22 4.32 -22 5 C-14.89839883 4.65612579 -14.89839883 4.65612579 -9 1 C-5.8035914 -0.06546953 -3.34252724 -0.07427838 0 0 Z " fill="#E6E6E6" transform="translate(521,488)"/>
<path d="M0 0 C7.62951555 -0.34855655 13.92444501 -0.0017506 21 3 C21 3.99 21 4.98 21 6 C20.34 6 19.68 6 19 6 C19 6.66 19 7.32 19 8 C18.25234375 8.33773437 17.5046875 8.67546875 16.734375 9.0234375 C15.74953125 9.46945312 14.7646875 9.91546875 13.75 10.375 C12.77546875 10.81585937 11.8009375 11.25671875 10.796875 11.7109375 C8.09228829 12.90913927 8.09228829 12.90913927 5.96875 14.15625 C3.45622776 15.23304525 1.47118616 15.19661016 -1.25 15.125 C-2.14203125 15.10695313 -3.0340625 15.08890625 -3.953125 15.0703125 C-4.96632813 15.03550781 -4.96632813 15.03550781 -6 15 C-6 13.68 -6 12.36 -6 11 C-6.66 11 -7.32 11 -8 11 C-7.25 9.0625 -7.25 9.0625 -6 7 C-5.34 6.87625 -4.68 6.7525 -4 6.625 C-3.01 6.315625 -3.01 6.315625 -2 6 C-0.6954344 3.00384054 -0.6954344 3.00384054 0 0 Z " fill="#0B0B0B" transform="translate(455,554)"/>
<path d="M0 0 C0.33 1.32 0.66 2.64 1 4 C0.34 4 -0.32 4 -1 4 C-1.103125 4.763125 -1.20625 5.52625 -1.3125 6.3125 C-2.0681616 9.26644989 -2.46214383 10.33726664 -5 12 C-8.09501208 12.25265405 -10.20129973 12.39935013 -13 11 C-12.46375 11.556875 -11.9275 12.11375 -11.375 12.6875 C-10 15 -10 15 -10.625 17.625 C-12 20 -12 20 -15 22 C-17.04296875 22.1953125 -17.04296875 22.1953125 -19.1875 22.125 C-20.445625 22.08375 -21.70375 22.0425 -23 22 C-21.68 22.66 -20.36 23.32 -19 24 C-19.33 24.99 -19.66 25.98 -20 27 C-21.1446875 26.9071875 -21.1446875 26.9071875 -22.3125 26.8125 C-25.04525312 26.74101915 -25.04525312 26.74101915 -26.8125 28.5 C-27.204375 28.995 -27.59625 29.49 -28 30 C-29 29 -29 29 -29.375 26.75 C-29 24 -29 24 -26.625 21.6875 C-23.20388422 18.18492908 -22.88521059 15.74794772 -22 11 C-19.36 11 -16.72 11 -14 11 C-13.95875 10.39414062 -13.9175 9.78828125 -13.875 9.1640625 C-13 7 -13 7 -10.3125 5.5859375 C-8.6728125 4.98652344 -8.6728125 4.98652344 -7 4.375 C-2.69797645 3.12640636 -2.69797645 3.12640636 0 0 Z " fill="#1C1C1C" transform="translate(300,664)"/>
<path d="M0 0 C0.66 0 1.32 0 2 0 C2 0.99 2 1.98 2 3 C2.99 3 3.98 3 5 3 C8 6.33333333 8 6.33333333 8 9 C10.31 9.33 12.62 9.66 15 10 C15.33 10.99 15.66 11.98 16 13 C16.7425 12.938125 17.485 12.87625 18.25 12.8125 C21.59487906 13.04055994 22.34932156 14.01199117 25 16 C27.95786741 17.1400114 30.96555653 18.08577665 34 19 C34.24900646 20.93505023 34.47356242 22.87325934 34.6875 24.8125 C34.81511719 25.89144531 34.94273437 26.97039062 35.07421875 28.08203125 C35 31 35 31 32 34 C31.34 29.71 30.68 25.42 30 21 C23.88235529 18.83925501 23.88235529 18.83925501 17.5625 17.5 C16.716875 17.335 15.87125 17.17 15 17 C14.34 16.01 13.68 15.02 13 14 C12.113125 13.79375 11.22625 13.5875 10.3125 13.375 C5.40587607 11.33828818 2.70955088 7.49721314 0 3 C0 2.01 0 1.02 0 0 Z " fill="#DEDEDE" transform="translate(514,458)"/>
<path d="M0 0 C0.66 0 1.32 0 2 0 C2.33 1.98 2.66 3.96 3 6 C5.64 6.66 8.28 7.32 11 8 C10.67 8.99 10.34 9.98 10 11 C7.69 11 5.38 11 3 11 C3.350625 11.61875 3.70125 12.2375 4.0625 12.875 C4.371875 13.57625 4.68125 14.2775 5 15 C4.67 15.66 4.34 16.32 4 17 C0.21388773 16.45912682 -1.55400767 14.88277668 -4 12 C-4 11.34 -4 10.68 -4 10 C-4.928125 9.566875 -4.928125 9.566875 -5.875 9.125 C-8 8 -8 8 -10 6 C-9.625 3.875 -9.625 3.875 -9 2 C-6 2 -6 2 -3.3125 4.5 C-2.549375 5.325 -1.78625 6.15 -1 7 C-1.020625 6.030625 -1.04125 5.06125 -1.0625 4.0625 C-1 1 -1 1 0 0 Z " fill="#0D0D0D" transform="translate(607,188)"/>
<path d="M0 0 C-0.62759865 2.92879371 -1.58622659 5.36095629 -3 8 C-2.46375 7.67 -1.9275 7.34 -1.375 7 C1.5929092 5.75035402 3.80799279 5.72243416 7 6 C9 8 9 8 9.4375 10.8125 C8.86588806 14.97710129 7.13624593 16.33419096 4 19 C3.01 18.67 2.02 18.34 1 18 C2.33333333 15.33333333 3.66666667 12.66666667 5 10 C4.29875 10.350625 3.5975 10.70125 2.875 11.0625 C-0.52390945 12.17084004 -2.5659479 11.85851303 -6 11 C-7 10 -7 10 -7.25 7.1875 C-6.82272325 1.73972148 -5.53084094 0 0 0 Z " fill="#0D0D0D" transform="translate(419,66)"/>
<path d="M0 0 C0.99 0 1.98 0 3 0 C3.268125 0.639375 3.53625 1.27875 3.8125 1.9375 C4.88667752 4.33131686 4.88667752 4.33131686 8 5 C8.144375 6.051875 8.28875 7.10375 8.4375 8.1875 C8.92625852 11.8386643 8.92625852 11.8386643 9.625 14.75 C10 17 10 17 9 20 C9.928125 20.5259375 9.928125 20.5259375 10.875 21.0625 C13 23 13 23 13.875 26.4375 C15.28974993 30.91754145 17.14807442 31.5413241 21 34 C21.875 36.75 21.875 36.75 22 39 C21.34 39 20.68 39 20 39 C20 39.99 20 40.98 20 42 C19.34 41.67 18.68 41.34 18 41 C18.33 39.35 18.66 37.7 19 36 C18.34 36 17.68 36 17 36 C12.92878329 32.65951449 11.22148334 29.68724536 9.7734375 24.76953125 C9.02713529 22.62791172 9.02713529 22.62791172 6 21 C5.95833998 18.6670386 5.95833998 16.3329614 6 14 C5.34 13.34 4.68 12.68 4 12 C3.875 8.375 3.875 8.375 4 5 C3.34 5 2.68 5 2 5 C1.34 3.35 0.68 1.7 0 0 Z " fill="#BBBBBB" transform="translate(557,441)"/>
<path d="M0 0 C0.99 0.33 1.98 0.66 3 1 C3.80859375 3.328125 3.80859375 3.328125 4.4375 6.25 C5.8422019 12.46947981 5.8422019 12.46947981 10 17 C14.03434307 17.39858663 17.96091544 17.28578428 22 17 C19.28922757 19.97126708 16.86848614 20.88243734 13 22 C12.67 21.01 12.34 20.02 12 19 C11.34 19 10.68 19 10 19 C9.67 20.32 9.34 21.64 9 23 C9 22.01 9 21.02 9 20 C3.19233704 18.4943096 -1.9981863 17.78175223 -8 18 C-7.67 17.34 -7.34 16.68 -7 16 C-4.35139573 15.40644386 -1.70802678 15.25790731 1 15 C1 14.34 1 13.68 1 13 C1.66 13 2.32 13 3 13 C2.34 12.01 1.68 11.02 1 10 C0.83984375 8.02734375 0.83984375 8.02734375 0.9375 5.9375 C1.29943567 2.21441073 1.29943567 2.21441073 0 0 Z " fill="#AAAAAA" transform="translate(467,537)"/>
<path d="M0 0 C0.33 0.66 0.66 1.32 1 2 C2.32 1.67 3.64 1.34 5 1 C5.309375 2.423125 5.309375 2.423125 5.625 3.875 C6.70833333 7.29166667 6.70833333 7.29166667 10.125 8.375 C11.07375 8.58125 12.0225 8.7875 13 9 C12.34 10.65 11.68 12.3 11 14 C8.97954558 13.39816251 6.97888961 12.72693904 5 12 C4.67 11.34 4.34 10.68 4 10 C2.7625 9.62875 2.7625 9.62875 1.5 9.25 C0.675 8.8375 -0.15 8.425 -1 8 C-1.9375 5 -1.9375 5 -2 2 C-1.34 1.34 -0.68 0.68 0 0 Z " fill="#0E0E0E" transform="translate(616,330)"/>
<path d="M0 0 C0.33 1.32 0.66 2.64 1 4 C0.34 4 -0.32 4 -1 4 C-1.1546875 5.1446875 -1.1546875 5.1446875 -1.3125 6.3125 C-2.0681616 9.26644989 -2.46214383 10.33726664 -5 12 C-9.07794425 12.42478586 -10.53076119 12.31282587 -14 10 C-13.67 9.01 -13.34 8.02 -13 7 C-10.3125 5.68359375 -10.3125 5.68359375 -7 4.4375 C-2.70140684 3.14681517 -2.70140684 3.14681517 0 0 Z " fill="#1D1D1D" transform="translate(300,664)"/>
<path d="M0 0 C0.99 0 1.98 0 3 0 C3 0.99 3 1.98 3 3 C5.64 3 8.28 3 11 3 C11 3.33 11 3.66 11 4 C9.6078125 4.0928125 9.6078125 4.0928125 8.1875 4.1875 C7.135625 4.455625 6.08375 4.72375 5 5 C4.525625 5.825 4.05125 6.65 3.5625 7.5 C3.046875 8.325 2.53125 9.15 2 10 C-1.6875 10.8125 -1.6875 10.8125 -5 11 C-5.33 9.35 -5.66 7.7 -6 6 C-5.38125 5.7525 -4.7625 5.505 -4.125 5.25 C-1.64931313 3.79371361 -1.04874998 2.62187494 0 0 Z " fill="#1A1A1A" transform="translate(440,57)"/>
<path d="M0 0 C1.32 0.33 2.64 0.66 4 1 C4.97110486 4.02121511 5.13617383 6.00463263 4 9 C3.01 9.495 3.01 9.495 2 10 C-0.72872311 8.56742037 -2.81722366 7.18277634 -5 5 C-5 4.01 -5 3.02 -5 2 C-2.525 2.495 -2.525 2.495 0 3 C0 2.01 0 1.02 0 0 Z " fill="#A2A2A2" transform="translate(400,584)"/>
<path d="M0 0 C4.875 2.875 4.875 2.875 6 4 C8.01964199 4.07244053 10.04167124 4.08377188 12.0625 4.0625 C13.16722656 4.05347656 14.27195312 4.04445313 15.41015625 4.03515625 C16.26480469 4.02355469 17.11945313 4.01195312 18 4 C15.28922757 6.97126708 12.86848614 7.88243734 9 9 C8.67 8.01 8.34 7.02 8 6 C7.34 6 6.68 6 6 6 C5.67 7.32 5.34 8.64 5 10 C5 9.01 5 8.02 5 7 C2.03 6.505 2.03 6.505 -1 6 C-0.34 5.67 0.32 5.34 1 5 C1 4.34 1 3.68 1 3 C0.01 2.67 -0.98 2.34 -2 2 C-1.34 1.34 -0.68 0.68 0 0 Z " fill="#D8D8D8" transform="translate(471,550)"/>
<path d="M0 0 C0.66 0 1.32 0 2 0 C2 0.99 2 1.98 2 3 C2.99 3 3.98 3 5 3 C8 6.33333333 8 6.33333333 8 9 C10.31 9.33 12.62 9.66 15 10 C15.33 10.99 15.66 11.98 16 13 C13 14 13 14 10.25 13.625 C5.52475014 11.26237507 2.70668397 7.49245475 0 3 C0 2.01 0 1.02 0 0 Z " fill="#B4B4B4" transform="translate(514,458)"/>
<path d="M0 0 C1.62580966 0.11398665 3.25067157 0.24155659 4.875 0.375 C5.77992188 0.44460938 6.68484375 0.51421875 7.6171875 0.5859375 C10 1 10 1 12 3 C10.8553125 3.5878125 10.8553125 3.5878125 9.6875 4.1875 C6.73714585 6.17727373 5.78657299 7.99530906 4 11 C3.01 11 2.02 11 1 11 C1 10.34 1 9.68 1 9 C1.66 8.67 2.32 8.34 3 8 C4.13350534 5.98330173 4.13350534 5.98330173 5 4 C5.66 4 6.32 4 7 4 C7 3.34 7 2.68 7 2 C4.69 1.67 2.38 1.34 0 1 C0 0.67 0 0.34 0 0 Z " fill="#A6A6A6" transform="translate(406,594)"/>
<path d="M0 0 C1.32 0 2.64 0 4 0 C4.24900646 1.93505023 4.47356242 3.87325934 4.6875 5.8125 C4.81511719 6.89144531 4.94273437 7.97039062 5.07421875 9.08203125 C5 12 5 12 2 15 C1.34 10.05 0.68 5.1 0 0 Z " fill="#C7C7C7" transform="translate(544,477)"/>
<path d="M0 0 C0.9075 0.391875 1.815 0.78375 2.75 1.1875 C2.42 2.1775 2.09 3.1675 1.75 4.1875 C0.6053125 4.0946875 0.6053125 4.0946875 -0.5625 4 C-3.29525312 3.92851915 -3.29525312 3.92851915 -5.0625 5.6875 C-5.454375 6.1825 -5.84625 6.6775 -6.25 7.1875 C-6.58 5.5375 -6.91 3.8875 -7.25 2.1875 C-4.52596974 -0.53653026 -3.86366821 -0.96591705 0 0 Z " fill="#111111" transform="translate(278.25,686.8125)"/>
<path d="M0 0 C6.20970773 -0.33266291 10.28264895 0.54970669 16 3 C14.02 3.99 14.02 3.99 12 5 C11.67 4.34 11.34 3.68 11 3 C7.37 3 3.74 3 0 3 C0 2.01 0 1.02 0 0 Z " fill="#616161" transform="translate(469,58)"/>
<path d="M0 0 C1.65 0.33 3.3 0.66 5 1 C3 4 3 4 0 5 C-0.825 6.010625 -1.65 7.02125 -2.5 8.0625 C-3.7375 9.5165625 -3.7375 9.5165625 -5 11 C-5.99 11 -6.98 11 -8 11 C-7.25 9.0625 -7.25 9.0625 -6 7 C-5.34 6.87625 -4.68 6.7525 -4 6.625 C-3.01 6.315625 -3.01 6.315625 -2 6 C-0.6954344 3.00384054 -0.6954344 3.00384054 0 0 Z " fill="#5E5E5E" transform="translate(455,554)"/>
<path d="M0 0 C0.99 0.495 0.99 0.495 2 1 C2 1.99 2 2.98 2 4 C3.98 4 5.96 4 8 4 C8.33 4.99 8.66 5.98 9 7 C7.02 7.99 7.02 7.99 5 9 C3.0625 7.875 3.0625 7.875 1 6 C0.25 2.8125 0.25 2.8125 0 0 Z " fill="#A8A8A8" transform="translate(348,670)"/>
<path d="M0 0 C0.99 0 1.98 0 3 0 C3 0.66 3 1.32 3 2 C3.99 2.33 4.98 2.66 6 3 C6 3.99 6 4.98 6 6 C4.33388095 6.042721 2.66617115 6.04063832 1 6 C0 5 0 5 -0.0625 2.4375 C-0.041875 1.633125 -0.02125 0.82875 0 0 Z " fill="#030303" transform="translate(279,676)"/>
<path d="M0 0 C0.66 0.33 1.32 0.66 2 1 C2 1.66 2 2.32 2 3 C-2.50285164 4.50095055 -6.50805496 3.20936982 -11 2 C-7.17291493 0.19901879 -4.22146566 -0.28143104 0 0 Z " fill="#949494" transform="translate(470,552)"/>
<path d="M0 0 C5.41798672 0.69165788 10.6822785 1.75799248 16 3 C12.5647952 5.29013653 11.014669 5.17842973 7 5 C6.67 4.34 6.34 3.68 6 3 C4.02111039 2.27306096 2.02045442 1.60183749 0 1 C0 0.67 0 0.34 0 0 Z " fill="#707070" transform="translate(364,666)"/>
<path d="M0 0 C0.33 0.99 0.66 1.98 1 3 C2.98 2.34 4.96 1.68 7 1 C7.33 1.66 7.66 2.32 8 3 C8.66 3.33 9.32 3.66 10 4 C9.34 4.66 8.68 5.32 8 6 C5.8359375 5.7578125 5.8359375 5.7578125 3.375 5.125 C2.14910156 4.81949219 2.14910156 4.81949219 0.8984375 4.5078125 C-0.04128906 4.25644531 -0.04128906 4.25644531 -1 4 C-0.67 2.68 -0.34 1.36 0 0 Z " fill="#A4A4A4" transform="translate(384,53)"/>
<path d="M0 0 C2.31 0 4.62 0 7 0 C7 1.32 7 2.64 7 4 C4.03 3.505 4.03 3.505 1 3 C0.67 2.01 0.34 1.02 0 0 Z " fill="#424242" transform="translate(411,588)"/>
<path d="M0 0 C3.96 0 7.92 0 12 0 C10.515 1.98 10.515 1.98 9 4 C8.01 4 7.02 4 6 4 C6 3.01 6 2.02 6 1 C4.02 1.66 2.04 2.32 0 3 C0 2.01 0 1.02 0 0 Z " fill="#1C1C1C" transform="translate(385,53)"/>
<path d="M0 0 C0.33 0.99 0.66 1.98 1 3 C0.54625 3.433125 0.0925 3.86625 -0.375 4.3125 C-2.20024334 6.10798342 -2.20024334 6.10798342 -4 9 C-4.66 7.02 -5.32 5.04 -6 3 C-5.01 2.67 -4.02 2.34 -3 2 C-2.34 2.33 -1.68 2.66 -1 3 C-0.67 2.01 -0.34 1.02 0 0 Z " fill="#C4C4C4" transform="translate(439,57)"/>
<path d="M0 0 C-6.75 4 -6.75 4 -9 4 C-9 2.68 -9 1.36 -9 0 C-3.375 -1.125 -3.375 -1.125 0 0 Z " fill="#868686" transform="translate(489,555)"/>
<path d="M0 0 C3.73487777 0.4979837 5.81237635 0.87491756 9 3 C8.34 3 7.68 3 7 3 C7 4.32 7 5.64 7 7 C6.34 6.67 5.68 6.34 5 6 C5.33 5.34 5.66 4.68 6 4 C5.195625 3.71125 4.39125 3.4225 3.5625 3.125 C1 2 1 2 0 0 Z " fill="#BFBFBF" transform="translate(437,571)"/>
<path d="M0 0 C0.66 0.33 1.32 0.66 2 1 C-0.97 3.97 -3.94 6.94 -7 10 C-7.33 9.01 -7.66 8.02 -8 7 C-5.36 4.69 -2.72 2.38 0 0 Z " fill="#313131" transform="translate(61,435)"/>
<path d="M0 0 C-0.33 0.5775 -0.66 1.155 -1 1.75 C-2.27075898 4.19883862 -2.27075898 4.19883862 -2 8 C-2.99 8.33 -3.98 8.66 -5 9 C-5.36666667 3.5 -5.36666667 3.5 -3.625 1.125 C-2 0 -2 0 0 0 Z " fill="#4D4D4D" transform="translate(561,433)"/>
<path d="M0 0 C1.98738098 0.01761863 3.97253109 0.16698176 5.953125 0.33203125 C5.953125 0.66203125 5.953125 0.99203125 5.953125 1.33203125 C4.3134375 1.73421875 4.3134375 1.73421875 2.640625 2.14453125 C-0.66380163 3.20866864 -1.99647922 3.67857789 -4.046875 6.33203125 C-4.706875 6.00203125 -5.366875 5.67203125 -6.046875 5.33203125 C-3.15469741 0.51173527 -3.15469741 0.51173527 0 0 Z " fill="#BCBCBC" transform="translate(245.046875,633.66796875)"/>
<path d="M0 0 C1.32 0.66 2.64 1.32 4 2 C4 2.99 4 3.98 4 5 C2.35 5 0.7 5 -1 5 C-0.67 3.35 -0.34 1.7 0 0 Z " fill="#2C2C2C" transform="translate(401,587)"/>
<path d="M0 0 C2.16874252 0.50603992 3.99967627 0.99983813 6 2 C6 1.34 6 0.68 6 0 C6.66 0 7.32 0 8 0 C8 1.32 8 2.64 8 4 C7.01 4.33 6.02 4.66 5 5 C3.35 3.35 1.7 1.7 0 0 Z " fill="#AFAFAF" transform="translate(441,565)"/>
<path d="M0 0 C1.32 0.66 2.64 1.32 4 2 C3.34 4.31 2.68 6.62 2 9 C0.59306362 6.37371875 -0.49157276 3.94887797 -1 1 C-0.67 0.67 -0.34 0.34 0 0 Z " fill="#616161" transform="translate(543,522)"/>
<path d="M0 0 C0.99 0.495 0.99 0.495 2 1 C2 2.65 2 4.3 2 6 C2.66 6 3.32 6 4 6 C3.67 6.99 3.34 7.98 3 9 C2.01 8.34 1.02 7.68 0 7 C-0.1875 3.375 -0.1875 3.375 0 0 Z " fill="#E7E7E7" transform="translate(562,447)"/>
<path d="M0 0 C2.64 0 5.28 0 8 0 C8 0.66 8 1.32 8 2 C5.36 2.33 2.72 2.66 0 3 C0 2.01 0 1.02 0 0 Z " fill="#323232" transform="translate(469,58)"/>
<path d="M0 0 C1.65 0.33 3.3 0.66 5 1 C4.01 2.485 4.01 2.485 3 4 C1.68 3.67 0.36 3.34 -1 3 C-0.67 2.01 -0.34 1.02 0 0 Z " fill="#3A3A3A" transform="translate(455,554)"/>
<path d="M0 0 C2.64 0.33 5.28 0.66 8 1 C8 1.66 8 2.32 8 3 C4.37673261 4.2077558 3.35853631 3.54311128 0 2 C0 1.34 0 0.68 0 0 Z " fill="#4D4D4D" transform="translate(462,547)"/>
<path d="M0 0 C0.75 1.75 0.75 1.75 1 4 C-0.9375 6.25 -0.9375 6.25 -3 8 C-2.74438677 5.6568787 -2.40729228 3.32156597 -2 1 C-1.34 0.67 -0.68 0.34 0 0 Z " fill="#9A9A9A" transform="translate(566,454)"/>
</svg>
