<?xml version="1.0" encoding="UTF-8"?>
<svg version="1.1" xmlns="http://www.w3.org/2000/svg" width="725" height="564">
<path d="M0 0 C8.17275126 0.48172721 16.1947566 1.55928948 24.26464844 2.89575195 C29.07477752 3.6635637 33.82406588 4.14595759 38.6875 4.44140625 C46.26589382 4.9387031 53.64779127 6.1422022 61.125 7.4375 C70.96602352 9.1018027 80.76832757 10.52778718 90.71630859 11.39770508 C96.25294882 11.88834654 101.57894205 12.73508648 107 14 C110.61163789 24.5941378 110.71829858 32.56048604 107.65625 43.43359375 C106.87613166 46.04291672 106.87613166 46.04291672 107 49 C107.78761719 49.40089844 108.57523437 49.80179688 109.38671875 50.21484375 C112.962352 52.08094347 116.48514318 54.02272092 120 56 C120.8964624 56.48968262 120.8964624 56.48968262 121.81103516 56.98925781 C128.77928387 60.87395561 133.38769751 64.40175939 136.125 72.1875 C136.43695313 73.33605469 136.74890625 74.48460938 137.0703125 75.66796875 C138.75192282 81.69491666 140.37222806 85.11730964 145.93676758 88.32104492 C146.57638428 88.6688501 147.21600098 89.01665527 147.875 89.375 C149.23096333 90.14887363 150.58642321 90.92363 151.94140625 91.69921875 C152.96258545 92.27422119 152.96258545 92.27422119 154.00439453 92.86083984 C156.98756664 94.56373696 159.89546854 96.37346022 162.8125 98.1875 C164.38837891 99.15236328 164.38837891 99.15236328 165.99609375 100.13671875 C167.94153759 101.34345049 169.87252797 102.57393495 171.78515625 103.83203125 C176.68100563 106.98516502 179.97675413 108.94482288 186 108 C190.39968107 106.68571828 192.31842751 104.82626014 195.0625 101.1875 C195.71347656 100.33542969 196.36445313 99.48335938 197.03515625 98.60546875 C199.02537162 96.05782451 199.02537162 96.05782451 200.58618164 93.38183594 C203.9625057 90.05024723 207.08940445 90.28444931 211.5859375 90.28515625 C213.30703808 90.23979357 215.02806873 90.19170834 216.74902344 90.14111328 C218.06259827 90.11129364 218.06259827 90.11129364 219.40270996 90.08087158 C226.49461497 89.86005159 233.56662536 89.13511477 240.625 88.4375 C241.43929474 88.35718536 242.25358948 88.27687073 243.09255981 88.19412231 C259.14784415 86.54857662 274.07734601 82.97105919 288.84765625 76.26953125 C291.87001774 75.05234725 293.78463611 74.64423145 297 74.75 C297.84304688 74.77578125 298.68609375 74.8015625 299.5546875 74.828125 C302.74777855 75.05255951 305.84649622 75.45156456 309 76 C310.06851894 79.49049522 310.96387231 82.53937194 311.25 86.1875 C312.26676766 91.35606895 314.50447551 95.51648031 316.99755859 100.13085938 C318.11060096 102.20622526 319.18864082 104.29834607 320.26953125 106.390625 C328.89045142 123.31738417 328.89045142 123.31738417 344.1875 133.5 C345.12980469 133.7371875 346.07210937 133.974375 347.04296875 134.21875 C350.77106683 135.20371647 353.67051744 135.9858201 357 138 C358.5193081 141.05102822 359.1203908 144.24025762 359.8125 147.5625 C362.49380023 158.54803979 367.14014073 167.41602667 373 177 C377 183.54456255 377 183.54456255 377 187 C370.19268561 189.69559712 363.35382196 192.25268942 356.43676758 194.65087891 C354.68580841 195.25912912 352.93693066 195.87340415 351.19018555 196.49365234 C347.69788293 197.73299674 344.24692632 198.93218221 340.671875 199.9140625 C336.40903569 201.1775987 334.59812924 201.97561773 332.30078125 205.91015625 C331.01973933 208.91095308 329.93343324 211.87545504 329 215 C321.90593106 214.41523944 314.98436101 213.36766005 308 212 C307.94392578 212.93005859 307.94392578 212.93005859 307.88671875 213.87890625 C307.66023404 216.92978849 307.3447308 219.96010117 307 223 C306.79310547 224.85818359 306.79310547 224.85818359 306.58203125 226.75390625 C305.15491928 236.24563755 302.5331745 241.10447213 295 247 C294.23042969 247.56460938 293.46085938 248.12921875 292.66796875 248.7109375 C288.34433904 252.02961544 286.48303829 254.15306088 285.75 259.6875 C285.65205107 263.44049046 285.69650104 264.57901757 287.9375 267.6875 C288.618125 268.120625 289.29875 268.55375 290 269 C286.23554521 282.06487251 280.31049169 291.52703873 270.32531738 300.67001343 C260.13615501 310.04872097 252.39559529 319.63681656 246.07714844 332.07495117 C245 334 245 334 243.35668945 335.95996094 C241.66801896 338.49919626 241.77059004 339.61383416 242.18359375 342.59765625 C242.36124268 343.91660889 242.36124268 343.91660889 242.54248047 345.26220703 C243.28027849 349.67718409 244.15264321 354.0552585 245.0625 358.4375 C247.56937241 371.35165714 247.21347451 380.54709619 243.40625 393.0859375 C242.39554627 396.46633173 241.59060389 399.82800608 240.90625 403.2890625 C238.69769146 414.1873607 236.59907205 420.51028561 227 427 C219.62417152 432.39495827 216.91646816 436.90103997 214.140625 445.6171875 C210.73195555 455.72646061 200.67000765 467.16499617 191 472 C190.62913781 474.7702514 190.62913781 474.7702514 190.578125 478.1171875 C190.52140625 479.36371094 190.4646875 480.61023438 190.40625 481.89453125 C190.30241184 484.53980842 190.21377061 487.18572753 190.140625 489.83203125 C190.07875 491.08113281 190.016875 492.33023437 189.953125 493.6171875 C189.91348633 494.76815918 189.87384766 495.91913086 189.83300781 497.10498047 C189 500 189 500 186.11645508 501.82373047 C184.57380981 502.40598389 184.57380981 502.40598389 183 503 C182.07058594 503.39703125 181.14117187 503.7940625 180.18359375 504.203125 C178.82427734 504.72132813 178.82427734 504.72132813 177.4375 505.25 C176.52871094 505.60578125 175.61992187 505.9615625 174.68359375 506.328125 C171.56672023 507.10847761 170.02449671 507.07167206 167 506 C164.4296875 504.07421875 164.4296875 504.07421875 161.875 501.6875 C161.02679688 500.90761719 160.17859375 500.12773438 159.3046875 499.32421875 C157.30800767 497.31061791 155.62302856 495.31785451 154 493 C148.83291548 493.91923788 143.94905483 495.55642516 138.9609375 497.16015625 C136 498 136 498 133 498 C131.31393996 490.65359554 130.44248938 483.3628258 129.78564453 475.8659668 C129.15027186 469.09584159 128.4735333 462.94686387 123.625 457.8125 C122.99851562 457.14734375 122.37203125 456.4821875 121.7265625 455.796875 C120.87191406 454.90742187 120.87191406 454.90742187 120 454 C119.34 453.195625 118.68 452.39125 118 451.5625 C115.15237374 449.33779199 112.56796321 449.42597112 109 449 C107.22882813 448.72542969 107.22882813 448.72542969 105.421875 448.4453125 C98.53366995 447.71592217 98.53366995 447.71592217 92.2890625 450.21582031 C88.03714514 454.30958708 84.51382441 459.22163364 81.6953125 464.39453125 C78.95186275 466.9925908 75.69861644 466.4543419 72.125 466.4375 C60.18181448 466.58759814 60.18181448 466.58759814 50 472 C46.81077424 476.4699458 44.17740881 481.24435389 41.75097656 486.16479492 C37.55982879 494.36315943 37.55982879 494.36315943 32.40625 496.1015625 C30.94519623 496.43657924 29.47638799 496.7407842 28 497 C27.11828125 497.25265625 26.2365625 497.5053125 25.328125 497.765625 C24.29945313 498.00539063 24.29945313 498.00539063 23.25 498.25 C22.20585938 498.50523437 22.20585938 498.50523437 21.140625 498.765625 C18.31859155 499.07460676 16.70732299 498.967758 14 498 C11.61036605 496.06420834 9.53714522 493.86719881 7.4375 491.625 C6.31349247 490.44832469 5.1872493 489.2737802 4.05859375 488.1015625 C3.53120605 487.55048828 3.00381836 486.99941406 2.46044922 486.43164062 C0.94547365 484.87147072 0.94547365 484.87147072 -1.27734375 483.3828125 C-3.52050125 481.58218267 -4.06147978 479.94824562 -5 477.25 C-6.14322171 474.15972881 -7.28474912 471.31408347 -9 468.5 C-10.53243691 465.94200915 -11.68128186 463.40929199 -12.75 460.625 C-15.72767186 452.89265856 -19.42912409 445.47110445 -23 438 C-30.19092432 437.32004065 -34.66341217 438.33510402 -40.87109375 442.1015625 C-45.4880042 444.90283401 -50.24913352 447.4343747 -55 450 C-54.96745117 449.11441406 -54.93490234 448.22882813 -54.90136719 447.31640625 C-53.75071933 425.43028222 -53.75071933 425.43028222 -63.34277344 406.59375 C-64.36816033 405.53348601 -65.41273205 404.49132834 -66.47851562 403.47167969 C-68.88808122 401.14098947 -70.94862668 398.65158995 -73 396 C-73 395.34 -73 394.68 -73 394 C-74.28583984 394.99580078 -74.28583984 394.99580078 -75.59765625 396.01171875 C-76.75255296 396.90371214 -77.90750379 397.79563546 -79.0625 398.6875 C-79.62388672 399.12255859 -80.18527344 399.55761719 -80.76367188 400.00585938 C-81.32763672 400.44091797 -81.89160156 400.87597656 -82.47265625 401.32421875 C-83.05313721 401.78006348 -83.63361816 402.2359082 -84.23168945 402.70556641 C-86 404 -86 404 -89.484375 405.94140625 C-95.12474182 409.94843488 -97.41024139 417.13353544 -100.1875 423.25 C-100.7945028 424.54898275 -101.40321527 425.84716803 -102.01367188 427.14453125 C-104.82313157 433.14153151 -107.5561854 439.17133537 -110.16918945 445.25683594 C-112.33700186 449.80522871 -114.44985128 450.86634673 -119 452.6875 C-120.0725 453.12449219 -121.145 453.56148438 -122.25 454.01171875 C-125 455 -125 455 -127 455 C-127.34197019 451.87588408 -127.67192253 448.75060292 -128 445.625 C-128.14308594 444.31982422 -128.14308594 444.31982422 -128.2890625 442.98828125 C-130.04770048 426.02998641 -130.04770048 426.02998641 -127.375 420.25 C-127.01535156 419.43660156 -126.65570313 418.62320312 -126.28515625 417.78515625 C-125.86105469 416.86605469 -125.43695313 415.94695312 -125 415 C-124.20361677 413.18678831 -123.40756893 411.37340647 -122.62158203 409.55566406 C-121.84660204 407.76624133 -121.05836334 405.9825784 -120.26953125 404.19921875 C-117.59024596 397.44741982 -118.28978748 394.0717214 -120.8125 387.4375 C-121.08642578 386.68275391 -121.36035156 385.92800781 -121.64257812 385.15039062 C-123.16437567 380.98630924 -123.16437567 380.98630924 -125.09643555 377.00415039 C-126 375 -126 375 -126 371 C-126.76030518 370.98130859 -127.52061035 370.96261719 -128.30395508 370.94335938 C-154.64012257 370.12754005 -154.64012257 370.12754005 -164 361 C-165.89117237 359.77230523 -167.80885077 358.58454273 -169.75 357.4375 C-177.68533832 352.43576409 -182.99065457 345.95401284 -188.7890625 338.6484375 C-192.90681097 333.71586955 -195.81903125 330.59480966 -202.125 328.875 C-203.26582031 328.545 -204.40664062 328.215 -205.58203125 327.875 C-207.70956278 327.33035193 -209.85290884 326.84070185 -212.01171875 326.4375 C-218.54771028 325.12483225 -222.61274408 322.88940776 -226.60546875 317.44921875 C-229.58171201 310.08781035 -228.58967574 301.7905237 -228 294 C-228.96679688 293.81824219 -229.93359375 293.63648438 -230.9296875 293.44921875 C-234.32823287 292.80189762 -237.71351917 292.09996778 -241.09814453 291.38378906 C-242.68104495 291.06436423 -244.27536528 290.80218824 -245.87109375 290.5546875 C-253.57403199 289.00177515 -257.36086961 283.68763201 -261.79638672 277.62402344 C-262.96866034 276.04228629 -264.20452929 274.50831092 -265.44140625 272.9765625 C-271.01376285 265.90209238 -271.01376285 265.90209238 -270.95703125 262.18359375 C-269.74632131 258.15613007 -267.97623222 254.63775299 -266 250.9375 C-262.4843816 244.31805767 -261.06318998 239.32645879 -260.50537109 231.76953125 C-259.57395968 219.60223284 -257.44045445 207.75971926 -255.0324707 195.81347656 C-252.40415247 182.5150316 -252.03592928 171.66992417 -256.8125 158.8125 C-257.52867895 156.79865142 -258.24353754 154.78433276 -258.95703125 152.76953125 C-259.30475586 151.80450684 -259.65248047 150.83948242 -260.01074219 149.84521484 C-261.2402476 146.30902133 -262.29417006 142.73364928 -263.34545898 139.14135742 C-264.12068072 136.60518813 -265.07367796 134.18376913 -266.125 131.75 C-269.0772305 124.39814195 -269.0772305 124.39814195 -269 121 C-268.22527344 120.2059375 -267.45054687 119.411875 -266.65234375 118.59375 C-262.11010291 113.38934925 -262.01299933 105.99519574 -260.97265625 99.4140625 C-260.78574219 98.36476563 -260.59882813 97.31546875 -260.40625 96.234375 C-260.25478516 95.27756836 -260.10332031 94.32076172 -259.94726562 93.33496094 C-259 91 -259 91 -256.56445312 89.67285156 C-253.41997928 88.84781635 -252.04350544 88.81229056 -249 90 C-248.05964172 91.0203301 -247.14507284 92.06472087 -246.25 93.125 C-244.40841293 95.10387762 -243.57975325 95.93428757 -240.86328125 96.2421875 C-237.40823595 95.87849852 -234.34999986 95.12331164 -231.06811523 93.96704102 C-225.93100981 92.50271989 -220.76541535 92.81853031 -215.46875 92.90234375 C-213.19010696 92.90641083 -210.91145917 92.90829314 -208.6328125 92.90820312 C-205.07560198 92.9162677 -201.52061734 92.93715695 -197.96386719 92.99633789 C-182.67040192 93.22550537 -172.20821048 92.53611987 -160 83 C-158.56307443 82.10622636 -157.11273893 81.23298349 -155.640625 80.3984375 C-154.52171875 79.73070313 -153.4028125 79.06296875 -152.25 78.375 C-151.31982056 77.82561768 -151.31982056 77.82561768 -150.37084961 77.26513672 C-147.55476453 75.5899607 -144.84580557 73.88995252 -142.17578125 71.984375 C-135.83104662 67.47003466 -130.09382458 65.9072005 -122.46484375 64.74609375 C-116.60524058 63.83700422 -110.91077538 62.29311945 -105.17797852 60.80029297 C-97.52004902 58.82339671 -89.81345507 57.23370343 -82 56 C-81.83951172 54.38351563 -81.83951172 54.38351563 -81.67578125 52.734375 C-80.9706642 47.12801526 -79.59061648 41.71623542 -78.1875 36.25 C-77.8152832 34.70892578 -77.8152832 34.70892578 -77.43554688 33.13671875 C-77.0555957 31.65365234 -77.0555957 31.65365234 -76.66796875 30.140625 C-76.44391357 29.24891602 -76.2198584 28.35720703 -75.98901367 27.43847656 C-74.81366649 24.54058279 -73.39374477 22.98778467 -71 21 C-69.0625 21.0625 -69.0625 21.0625 -67 22 C-65.84757812 22.50273438 -65.84757812 22.50273438 -64.671875 23.015625 C-60.82805458 25.87039221 -59.27507002 29.45331057 -57.1875 33.6875 C-56.78080078 34.48478516 -56.37410156 35.28207031 -55.95507812 36.10351562 C-54.95765364 38.06316138 -53.97328902 40.02828634 -53 42 C-52.24976563 41.38511719 -51.49953125 40.77023438 -50.7265625 40.13671875 C-43.70984931 34.59581299 -37.50588251 30.4612738 -28.35546875 29.8125 C-20.4710422 29.09060687 -15.92897739 25.376277 -10.81640625 19.6640625 C-6.02796795 13.79688326 -2.98097174 6.90884038 0 0 Z " fill="#010101" transform="translate(309,34)"/>
<path d="M0 0 C0.99 0.33 1.98 0.66 3 1 C2.835 1.598125 2.67 2.19625 2.5 2.8125 C1.8885876 5.11344336 1.8885876 5.11344336 2 8 C2 8.66 2 9.32 2 10 C2.61488281 9.77183594 3.22976563 9.54367188 3.86328125 9.30859375 C4.67152344 9.02113281 5.47976563 8.73367187 6.3125 8.4375 C7.11300781 8.14746094 7.91351562 7.85742188 8.73828125 7.55859375 C11 7 11 7 14 8 C13.07058594 8.32613281 12.14117188 8.65226563 11.18359375 8.98828125 C8.63639222 9.88869973 6.09821696 10.80320856 3.5625 11.734375 C0 13 0 13 -2.3125 13.578125 C-4.37510547 14.05232094 -4.37510547 14.05232094 -7 16 C-9.06871356 19.87220743 -10.60164901 23.8436111 -12 28 C-15.3 27.67 -18.6 27.34 -22 27 C-22.33 24.36 -22.66 21.72 -23 19 C-22.01 18.34 -21.02 17.68 -20 17 C-20 17.66 -20 18.32 -20 19 C-18.68 18.67 -17.36 18.34 -16 18 C-15.34 18.99 -14.68 19.98 -14 21 C-13.896875 19.906875 -13.79375 18.81375 -13.6875 17.6875 C-13 14 -13 14 -11.875 12.0625 C-8.96905769 10.41579935 -6.26178195 10.81537083 -3 11 C-3.061875 9.9275 -3.12375 8.855 -3.1875 7.75 C-2.99456691 3.89133813 -2.60334924 2.71182212 0 0 Z " fill="#161616" transform="translate(650,221)"/>
<path d="M0 0 C3.75 0.25 3.75 0.25 7 1 C7.33 1.99 7.66 2.98 8 4 C7.67 4.66 7.34 5.32 7 6 C8.98 6 10.96 6 13 6 C13.33 6.66 13.66 7.32 14 8 C9.70668369 7.75208613 5.41598014 7.47281648 1.125 7.1875 C-0.70998047 7.08211914 -0.70998047 7.08211914 -2.58203125 6.97460938 C-4.33193359 6.85375977 -4.33193359 6.85375977 -6.1171875 6.73046875 C-7.19597168 6.66239014 -8.27475586 6.59431152 -9.38623047 6.52416992 C-12 6 -12 6 -14 3 C-13.01 3.33 -12.02 3.66 -11 4 C-7.54199641 4.41673207 -7.54199641 4.41673207 -4 4 C-3.34 3.319375 -2.68 2.63875 -2 1.9375 C-1.34 1.298125 -0.68 0.65875 0 0 Z " fill="#2C2C2C" transform="translate(168,397)"/>
<path d="M0 0 C0.33 0.66 0.66 1.32 1 2 C2.32 1.67 3.64 1.34 5 1 C5.99 3.97 6.98 6.94 8 10 C5.03 10 2.06 10 -1 10 C-1.9765625 3.9453125 -1.9765625 3.9453125 -2 2 C-1.34 1.34 -0.68 0.68 0 0 Z " fill="#0F0F0F" transform="translate(629,238)"/>
<path d="M0 0 C1.2065625 0.0309375 1.2065625 0.0309375 2.4375 0.0625 C2.18250159 1.85648884 1.90796186 3.64770875 1.625 5.4375 C1.47417969 6.43523437 1.32335937 7.43296875 1.16796875 8.4609375 C0.4375 11.0625 0.4375 11.0625 -2.5625 13.0625 C-4.78891709 8.74063153 -4.5582658 5.76975649 -3.5625 1.0625 C-2.5625 0.0625 -2.5625 0.0625 0 0 Z " fill="#111111" transform="translate(612.5625,260.9375)"/>
<path d="M0 0 C3.63 0.33 7.26 0.66 11 1 C12.72323506 6.62923452 14 12.06573916 14 18 C11.57869669 15.57869669 11.47159496 14.19888623 10.875 10.875 C10.70742188 9.96492188 10.53984375 9.05484375 10.3671875 8.1171875 C10.18542969 7.06917969 10.18542969 7.06917969 10 6 C8.35 6 6.7 6 5 6 C4.731875 5.38125 4.46375 4.7625 4.1875 4.125 C3.04443152 1.7004767 3.04443152 1.7004767 0 0 Z " fill="#323232" transform="translate(607,109)"/>
<path d="M0 0 C0.66 0.33 1.32 0.66 2 1 C1.23538452 1.75676025 1.23538452 1.75676025 0.45532227 2.52880859 C-1.84488095 4.80827034 -4.14122877 7.09157761 -6.4375 9.375 C-7.23994141 10.1690625 -8.04238281 10.963125 -8.86914062 11.78125 C-9.63291016 12.54179687 -10.39667969 13.30234375 -11.18359375 14.0859375 C-11.89056396 14.7876709 -12.59753418 15.4894043 -13.32592773 16.21240234 C-15.07219984 17.90693091 -15.07219984 17.90693091 -16 20 C-16.66 20 -17.32 20 -18 20 C-16.70397376 16.18392274 -15.27408996 13.94063766 -12.3046875 11.23046875 C-11.23154297 10.23950195 -11.23154297 10.23950195 -10.13671875 9.22851562 C-9.39035156 8.55498047 -8.64398437 7.88144531 -7.875 7.1875 C-7.12089844 6.49462891 -6.36679687 5.80175781 -5.58984375 5.08789062 C-3.7333922 3.38418509 -1.87010538 1.68868673 0 0 Z " fill="#CCCCCC" transform="translate(543,453)"/>
<path d="M0 0 C3.96 1.98 3.96 1.98 8 4 C7.01 4.33 6.02 4.66 5 5 C4.67 5.99 4.34 6.98 4 8 C2.0625 7.25 2.0625 7.25 0 6 C-0.8125 4 -0.8125 4 -1 2 C-0.67 1.34 -0.34 0.68 0 0 Z " fill="#141414" transform="translate(449,119)"/>
<path d="M0 0 C1.98 0.495 1.98 0.495 4 1 C2.515 7.435 2.515 7.435 1 14 C0.67 14 0.34 14 0 14 C0.01160156 13.39671875 0.02320313 12.7934375 0.03515625 12.171875 C0.04417969 11.37265625 0.05320312 10.5734375 0.0625 9.75 C0.07410156 8.96109375 0.08570313 8.1721875 0.09765625 7.359375 C0.08082101 4.99765299 0.08082101 4.99765299 -0.56640625 2.765625 C-0.70949219 2.18296875 -0.85257813 1.6003125 -1 1 C-0.67 0.67 -0.34 0.34 0 0 Z " fill="#222222" transform="translate(593,285)"/>
<path d="M0 0 C0.66 0.33 1.32 0.66 2 1 C-0.88406243 4.40843742 -2.3708265 5.86591384 -6.8125 6.8125 C-8.3903125 6.9053125 -8.3903125 6.9053125 -10 7 C-7.20283196 3.70921407 -3.80471422 1.93694542 0 0 Z " fill="#353535" transform="translate(169,105)"/>
<path d="M0 0 C1.9375 0.8125 1.9375 0.8125 3.9375 2.8125 C3.215625 2.73 2.49375 2.6475 1.75 2.5625 C-1.89798794 2.88676559 -3.40818298 4.38569587 -6.0625 6.8125 C-5.65566505 4.45285727 -5.16435661 2.95315912 -3.75 1 C-2.0625 -0.1875 -2.0625 -0.1875 0 0 Z " fill="#343434" transform="translate(240.0625,55.1875)"/>
<path d="M0 0 C0.66 0.33 1.32 0.66 2 1 C0.70519111 3.42776667 -0.35838519 4.76967674 -2.98046875 5.7109375 C-4.9738726 6.19782198 -6.98658625 6.60391861 -9 7 C-6.3765992 4.08511023 -3.28183606 2.11496102 0 0 Z " fill="#393939" transform="translate(145,119)"/>
<path d="M0 0 C0.66 0 1.32 0 2 0 C2.33 1.32 2.66 2.64 3 4 C1.68 4.99 0.36 5.98 -1 7 C-1.625 4.625 -1.625 4.625 -2 2 C-1.34 1.34 -0.68 0.68 0 0 Z " fill="#151515" transform="translate(604,274)"/>
<path d="M0 0 C2.00948183 0.01778303 4.01668765 0.16786374 6.01953125 0.33203125 C6.01953125 0.66203125 6.01953125 0.99203125 6.01953125 1.33203125 C4.94703125 1.62078125 3.87453125 1.90953125 2.76953125 2.20703125 C-0.07447239 3.06023234 -2.41555858 3.89568155 -4.98046875 5.33203125 C-3.05235036 0.51173527 -3.05235036 0.51173527 0 0 Z " fill="#4A4A4A" transform="translate(513.98046875,124.66796875)"/>
<path d="M0 0 C0.66 0.33 1.32 0.66 2 1 C1.0479279 2.00596297 0.08812654 3.00461563 -0.875 4 C-1.40867188 4.556875 -1.94234375 5.11375 -2.4921875 5.6875 C-4 7 -4 7 -6 7 C-4.60667426 3.63279613 -3.0210714 2.0140476 0 0 Z " fill="#C8C8C8" transform="translate(221,438)"/>
<path d="M0 0 C0.99 0.33 1.98 0.66 3 1 C3 1.99 3 2.98 3 4 C0.36 3.67 -2.28 3.34 -5 3 C-2 1 -2 1 0 0 Z " fill="#212121" transform="translate(623,243)"/>
</svg>
