<?xml version="1.0" encoding="UTF-8"?>
<svg version="1.1" xmlns="http://www.w3.org/2000/svg" width="729" height="559">
<path d="M0 0 C2.67336972 1.02622902 4.43734264 1.84755519 6.421875 3.9296875 C6.49609375 6.2421875 6.49609375 6.2421875 6.109375 8.9296875 C5.84942015 14.38151834 7.30754144 16.65981277 10.859375 20.7421875 C11.68308594 21.59425781 12.50679688 22.44632813 13.35546875 23.32421875 C15.69413321 26.27296959 16.12435477 28.2242083 16.421875 31.9296875 C15.86757813 32.30480469 15.31328125 32.67992187 14.7421875 33.06640625 C10.49045488 36.06985438 8.14570519 37.90184945 6.421875 42.9296875 C5.761875 43.0740625 5.101875 43.2184375 4.421875 43.3671875 C3.761875 43.5528125 3.101875 43.7384375 2.421875 43.9296875 C1.1173094 46.92584696 1.1173094 46.92584696 0.421875 49.9296875 C1.06125 50.0740625 1.700625 50.2184375 2.359375 50.3671875 C4.421875 50.9296875 4.421875 50.9296875 5.421875 51.9296875 C5.40625 53.85546875 5.40625 53.85546875 5.171875 56.2421875 C5.07132812 57.41201172 5.07132812 57.41201172 4.96875 58.60546875 C4.421875 60.9296875 4.421875 60.9296875 2.83984375 62.88671875 C0.92312995 65.64826508 1.40576036 67.05168866 1.984375 70.3046875 C2.63548846 75.74255813 1.78080907 77.5100374 -1.578125 81.9296875 C-3.39798295 86.20686776 -4.99607815 90.55960728 -6.578125 94.9296875 C-5.16853516 95.09984375 -5.16853516 95.09984375 -3.73046875 95.2734375 C-0.578125 95.9296875 -0.578125 95.9296875 1.859375 98.4296875 C4.22477165 101.26089178 4.22477165 101.26089178 7.734375 101.2421875 C13.993884 102.4092146 17.38694756 107.15746751 21.0390625 112.1328125 C24.421875 117.29303496 24.421875 117.29303496 24.421875 120.9296875 C23.308125 121.3009375 23.308125 121.3009375 22.171875 121.6796875 C19.31231301 122.75433669 19.31231301 122.75433669 17.484375 125.1171875 C15.421875 126.9296875 15.421875 126.9296875 12.234375 126.7421875 C9.421875 125.9296875 9.421875 125.9296875 8.421875 124.9296875 C6.96566521 124.79915077 5.50658474 124.69985715 4.046875 124.6171875 C-0.30345726 124.16143841 -0.30345726 124.16143841 -2.578125 122.2421875 C-3.77136098 119.4828293 -4.23954311 116.90920817 -4.578125 113.9296875 C-8.538125 112.9396875 -8.538125 112.9396875 -12.578125 111.9296875 C-13.90469641 118.69193698 -13.90469641 118.69193698 -11.578125 124.9296875 C-9.13749059 125.60116668 -9.13749059 125.60116668 -6.578125 125.9296875 C-4.94140625 127.14453125 -4.94140625 127.14453125 -3.578125 128.9296875 C-3.2421875 131.26953125 -3.2421875 131.26953125 -3.203125 133.8671875 C-2.91913987 137.28497346 -2.78477023 138.6375339 -0.765625 141.4921875 C3.39752152 143.36968495 7.14521284 143.41570583 11.6796875 143.4609375 C14.421875 143.9296875 14.421875 143.9296875 16.02734375 145.9453125 C16.71763672 146.92757812 16.71763672 146.92757812 17.421875 147.9296875 C19.4707398 148.41026465 19.4707398 148.41026465 21.609375 148.1796875 C22.8675 148.0971875 24.125625 148.0146875 25.421875 147.9296875 C25.751875 149.2496875 26.081875 150.5696875 26.421875 151.9296875 C25.101875 152.9196875 23.781875 153.9096875 22.421875 154.9296875 C22.586875 155.5896875 22.751875 156.2496875 22.921875 156.9296875 C23.54370799 160.66068544 23.48596426 164.14842128 23.421875 167.9296875 C26.061875 167.5996875 28.701875 167.2696875 31.421875 166.9296875 C30.79144022 173.48620924 30.79144022 173.48620924 28.859375 175.8046875 C26.51742503 179.2667005 26.89490739 182.88257629 27.421875 186.9296875 C28.59382067 189.94326207 29.5337422 192.11556576 31.921875 194.3046875 C36.13827465 198.87245379 36.86915645 206.51058977 36.65625 212.50390625 C36.08226128 218.44468953 34.95570691 224.3081915 33.765625 230.15234375 C33.11609776 232.97826531 33.11609776 232.97826531 34.859375 235.1796875 C35.375 235.7571875 35.890625 236.3346875 36.421875 236.9296875 C36.421875 237.5896875 36.421875 238.2496875 36.421875 238.9296875 C38.731875 239.2596875 41.041875 239.5896875 43.421875 239.9296875 C43.586875 241.0021875 43.751875 242.0746875 43.921875 243.1796875 C44.59262297 245.52965067 44.96867141 246.62496626 47.01953125 248.00390625 C48.38635427 248.60443883 49.76076598 249.18787073 51.140625 249.7578125 C53.89362656 251.17202563 55.76182909 252.97075617 57.984375 255.1171875 C61.93752929 258.82412457 64.11779482 259.6049479 69.421875 259.9296875 C71.8019236 263.4997604 71.54343255 264.58464828 71.109375 268.7421875 C70.94695312 270.33740234 70.94695312 270.33740234 70.78125 271.96484375 C70.41666498 274.97267021 70.00029968 277.95493201 69.421875 280.9296875 C72.59733607 280.22768423 72.59733607 280.22768423 73.921875 277.49609375 C74.416875 276.50480469 74.911875 275.51351563 75.421875 274.4921875 C78.09897872 269.14495169 78.09897872 269.14495169 81.421875 266.9296875 C84.10806961 267.09757466 85.16816133 267.68537063 87.109375 269.5546875 C88.81112654 272.63404743 89.08776285 275.45492115 89.421875 278.9296875 C90.411875 278.2696875 91.401875 277.6096875 92.421875 276.9296875 C94.91015625 276.93359375 94.91015625 276.93359375 97.421875 277.9296875 C99.15234375 280.58203125 99.15234375 280.58203125 100.609375 283.8671875 C102.50184381 288.25192821 102.50184381 288.25192821 105.421875 291.9296875 C107.41008813 292.32733013 109.41131839 292.66744099 111.421875 292.9296875 C111.69 292.1665625 111.958125 291.4034375 112.234375 290.6171875 C114.06521586 286.47370556 114.06521586 286.47370556 116.421875 284.9296875 C120.109375 284.7421875 120.109375 284.7421875 123.421875 284.9296875 C123.73125 284.2903125 124.040625 283.6509375 124.359375 282.9921875 C125.421875 280.9296875 125.421875 280.9296875 126.421875 279.9296875 C129.86871371 279.54670542 131.79890545 279.55262698 134.796875 281.3671875 C137.18360866 285.13088288 136.75575431 288.58925643 136.421875 292.9296875 C137.783125 292.6203125 137.783125 292.6203125 139.171875 292.3046875 C142.69908685 291.89770152 143.44940557 292.29962362 146.421875 293.9296875 C149.08896569 294.09719164 149.08896569 294.09719164 151.421875 293.9296875 C151.298125 292.7540625 151.174375 291.5784375 151.046875 290.3671875 C151.02047433 286.6380923 151.82196669 284.9489417 154.296875 282.1796875 C154.83054687 281.64859375 155.36421875 281.1175 155.9140625 280.5703125 C157.52029859 278.9804229 157.52029859 278.9804229 158.4296875 276.8515625 C159.421875 274.9296875 159.421875 274.9296875 162.421875 272.9296875 C164.13878545 268.42492245 164.54916256 264.50998358 164.49584961 259.77612305 C164.45877101 252.7998242 164.89489348 248.44647118 169.859375 243.1171875 C171.06400391 242.02470703 171.06400391 242.02470703 172.29296875 240.91015625 C174.35815234 238.98896711 175.36021805 237.51131233 176.421875 234.9296875 C179.79650215 235.47692433 181.504225 235.9845875 184.421875 237.9296875 C187.46078393 237.70891206 190.40819603 237.223913 193.4140625 236.73046875 C194.90292969 236.82908203 194.90292969 236.82908203 196.421875 236.9296875 C197.48341797 238.16332031 197.48341797 238.16332031 198.56640625 239.421875 C202.46119527 242.84246946 205.02158615 242.31428683 210.03710938 242.01367188 C211.09220703 241.92408203 212.14730469 241.83449219 213.234375 241.7421875 C214.30880859 241.67193359 215.38324219 241.60167969 216.49023438 241.52929688 C219.13668073 241.35286712 221.77897791 241.15228402 224.421875 240.9296875 C224.47085937 240.30320312 224.51984375 239.67671875 224.5703125 239.03125 C224.64507813 238.21398437 224.71984375 237.39671875 224.796875 236.5546875 C224.86648438 235.74257813 224.93609375 234.93046875 225.0078125 234.09375 C225.421875 231.9296875 225.421875 231.9296875 227.421875 229.9296875 C229.41796875 229.67089844 229.41796875 229.67089844 231.859375 229.6640625 C232.75527344 229.66148437 233.65117188 229.65890625 234.57421875 229.65625 C235.51394531 229.66398438 236.45367188 229.67171875 237.421875 229.6796875 C238.33066406 229.67195312 239.23945312 229.66421875 240.17578125 229.65625 C245.7370101 229.67207142 250.85493889 230.23939629 256.27319336 231.50097656 C258.63897598 232.04586426 258.63897598 232.04586426 261.984375 231.9296875 C267.68512172 231.9296875 272.6519911 232.3324752 276.984375 236.2421875 C278.566247 239.19960038 279.1134419 240.64474471 278.421875 243.9296875 C276.16107602 246.4513479 274.71722367 246.88749483 271.359375 247.3671875 C268.421875 246.9296875 268.421875 246.9296875 266.546875 244.9296875 C266.175625 244.2696875 265.804375 243.6096875 265.421875 242.9296875 C265.091875 243.9196875 264.761875 244.9096875 264.421875 245.9296875 C262.111875 245.9296875 259.801875 245.9296875 257.421875 245.9296875 C257.751875 247.2496875 258.081875 248.5696875 258.421875 249.9296875 C257.431875 250.2596875 256.441875 250.5896875 255.421875 250.9296875 C255.091875 251.9196875 254.761875 252.9096875 254.421875 253.9296875 C253.349375 253.9090625 252.276875 253.8884375 251.171875 253.8671875 C248.27397076 253.9154859 246.13575359 254.06124635 243.421875 254.9296875 C243.421875 255.9196875 243.421875 256.9096875 243.421875 257.9296875 C244.13214844 258.11144531 244.84242188 258.29320312 245.57421875 258.48046875 C246.49332031 258.73183594 247.41242188 258.98320312 248.359375 259.2421875 C249.27589844 259.48582031 250.19242188 259.72945313 251.13671875 259.98046875 C251.89082031 260.29371094 252.64492188 260.60695313 253.421875 260.9296875 C253.751875 261.9196875 254.081875 262.9096875 254.421875 263.9296875 C255.411875 263.9296875 256.401875 263.9296875 257.421875 263.9296875 C257.421875 262.9396875 257.421875 261.9496875 257.421875 260.9296875 C258.741875 260.9296875 260.061875 260.9296875 261.421875 260.9296875 C261.421875 260.2696875 261.421875 259.6096875 261.421875 258.9296875 C264.30763319 259.32772311 265.24377013 259.71977819 267.171875 261.9921875 C267.584375 262.6315625 267.996875 263.2709375 268.421875 263.9296875 C269.081875 262.6096875 269.741875 261.2896875 270.421875 259.9296875 C271.411875 260.2596875 272.401875 260.5896875 273.421875 260.9296875 C273.091875 261.5896875 272.761875 262.2496875 272.421875 262.9296875 C273.741875 262.9296875 275.061875 262.9296875 276.421875 262.9296875 C275.926875 262.4140625 275.431875 261.8984375 274.921875 261.3671875 C272.92538259 258.12288733 273.20623115 255.66751416 273.421875 251.9296875 C274.411875 251.9296875 275.401875 251.9296875 276.421875 251.9296875 C276.793125 252.8165625 277.164375 253.7034375 277.546875 254.6171875 C279.26977133 257.66097102 279.94553554 258.47793965 282.609375 260.3671875 C285.421875 262.9296875 285.421875 262.9296875 285.796875 266.7421875 C285.673125 267.7940625 285.549375 268.8459375 285.421875 269.9296875 C286.13214844 269.91808594 286.84242188 269.90648437 287.57421875 269.89453125 C288.95287109 269.88099609 288.95287109 269.88099609 290.359375 269.8671875 C291.27589844 269.85558594 292.19242188 269.84398437 293.13671875 269.83203125 C295.421875 269.9296875 295.421875 269.9296875 296.421875 270.9296875 C299.42648702 271.17514748 302.43011854 271.31374749 305.44140625 271.453125 C308.421875 271.9296875 308.421875 271.9296875 310.30761719 273.44384766 C314.09838733 276.10789235 318.39705462 275.16694789 322.859375 274.9296875 C324.27186523 274.90068359 324.27186523 274.90068359 325.71289062 274.87109375 C331.96475157 274.5798991 334.07115502 273.57970197 338.421875 268.9296875 C341.2175936 268.40530919 343.44644175 268.14119841 346.234375 268.1171875 C347.27368164 268.07948242 347.27368164 268.07948242 348.33398438 268.04101562 C350.02934622 267.98255487 351.72566787 267.95315703 353.421875 267.9296875 C353.421875 267.2696875 353.421875 266.6096875 353.421875 265.9296875 C354.45828125 265.86910156 355.4946875 265.80851562 356.5625 265.74609375 C357.93230373 265.66165379 359.30209475 265.57700753 360.671875 265.4921875 C361.35378906 265.45287109 362.03570313 265.41355469 362.73828125 265.37304688 C366.59735925 265.14369611 366.59735925 265.14369611 370.38305664 264.41381836 C372.57557642 263.89319008 374.46452696 263.83126625 376.71484375 263.8671875 C377.50955078 263.87492187 378.30425781 263.88265625 379.12304688 263.890625 C380.3537793 263.90996094 380.3537793 263.90996094 381.609375 263.9296875 C384.55247765 263.97528165 387.4775656 263.9769382 390.421875 263.9296875 C390.751875 263.5996875 391.081875 263.2696875 391.421875 262.9296875 C397.72685242 261.91638756 404.05248249 261.82695536 410.421875 261.9296875 C410.421875 261.2696875 410.421875 260.6096875 410.421875 259.9296875 C412.19195214 259.84854644 413.96309598 259.79043245 415.734375 259.7421875 C417.21357422 259.68998047 417.21357422 259.68998047 418.72265625 259.63671875 C421.421875 259.9296875 421.421875 259.9296875 423.28125 261.1171875 C425.68115964 264.93074255 424.28935638 269.72925134 423.421875 273.9296875 C422.30358296 276.81560243 420.99209954 279.24511005 419.421875 281.9296875 C418.72320313 281.89488281 418.02453125 281.86007812 417.3046875 281.82421875 C416.39460937 281.79714844 415.48453125 281.77007812 414.546875 281.7421875 C413.18949219 281.68998047 413.18949219 281.68998047 411.8046875 281.63671875 C411.01835938 281.73339844 410.23203125 281.83007812 409.421875 281.9296875 C408.761875 282.9196875 408.101875 283.9096875 407.421875 284.9296875 C408.081875 284.9296875 408.741875 284.9296875 409.421875 284.9296875 C409.60363281 285.83589844 409.78539062 286.74210937 409.97265625 287.67578125 C410.34970703 289.50302734 410.34970703 289.50302734 410.734375 291.3671875 C411.09982422 293.15962891 411.09982422 293.15962891 411.47265625 294.98828125 C412.08824725 297.80819984 412.96194863 300.39464254 413.98828125 303.08984375 C415.99100964 308.96029829 416.01159417 314.77671008 416.046875 320.9296875 C416.09199219 322.05375 416.13710938 323.1778125 416.18359375 324.3359375 C416.24295212 331.59461813 415.03126788 335.75374294 410.32177734 341.3203125 C408.28140693 343.04867562 406.95550984 343.30253009 404.421875 343.9296875 C404.091875 344.9196875 403.761875 345.9096875 403.421875 346.9296875 C401.441875 346.9296875 399.461875 346.9296875 397.421875 346.9296875 C397.421875 347.5896875 397.421875 348.2496875 397.421875 348.9296875 C395.63151042 349.93880208 393.84114583 350.94791667 392.05078125 351.95703125 C390.44309354 352.8269388 390.44309354 352.8269388 389.421875 353.9296875 C386.93965159 354.21453281 384.45718645 354.37775303 381.96484375 354.55078125 C379.26921138 354.95243461 377.66789425 355.38996361 375.421875 356.9296875 C375.03128906 357.76371094 374.64070312 358.59773438 374.23828125 359.45703125 C372.14277434 362.30962453 371.66015994 362.36563507 368.32421875 362.93359375 C366.67135247 363.13744503 365.0161247 363.32276882 363.359375 363.4921875 C351.88635465 365.0044031 344.26377089 367.09607644 336.421875 375.9296875 C335.58011719 376.69152344 334.73835937 377.45335937 333.87109375 378.23828125 C329.04915991 383.53702514 327.53127694 391.13252836 327.328125 398.18359375 C327.65559707 402.57522809 327.94650217 405.21662826 330.421875 408.9296875 C330.609375 411.5546875 330.609375 411.5546875 330.421875 413.9296875 C329.421875 414.9296875 329.421875 414.9296875 325.89453125 415.2109375 C318.4080551 415.1278698 311.11907611 413.10136611 303.859375 411.4296875 C302.35892134 411.0915708 300.85827142 410.75432379 299.35742188 410.41796875 C295.70992128 409.59856112 292.06522094 408.76739926 288.421875 407.9296875 C288.421875 408.5896875 288.421875 409.2496875 288.421875 409.9296875 C287.33519531 410.31253906 287.33519531 410.31253906 286.2265625 410.703125 C279.61812837 413.59316444 274.19094855 418.78389558 269.734375 424.3671875 C267.45568926 427.13958849 266.07830465 428.41934949 262.484375 428.9296875 C261.47375 428.9296875 260.463125 428.9296875 259.421875 428.9296875 C259.421875 429.5896875 259.421875 430.2496875 259.421875 430.9296875 C251.3300481 433.54145872 244.01025553 435.64208773 235.421875 434.9296875 C235.421875 435.5896875 235.421875 436.2496875 235.421875 436.9296875 C231.12466488 438.50772217 227.15268208 439.30497471 222.609375 439.8046875 C214.53217357 440.8952801 207.31712566 443.03443684 201.421875 448.9296875 C200.72635614 450.10052234 200.06103433 451.28965848 199.421875 452.4921875 C197.28246757 456.16929402 195.98363972 456.88167279 192.421875 458.9296875 C190.63135678 461.44760375 188.97871805 464.00995796 187.37890625 466.65234375 C185.74139464 469.01639634 184.21985815 470.69635909 181.41796875 471.515625 C175.48680918 471.94885753 172.35172784 469.76976429 167.7421875 466.30859375 C165.0934911 464.7345368 163.41263508 464.53706515 160.359375 464.4296875 C155.33671326 464.24394962 153.24072725 462.48763881 149.515625 459.296875 C145.82243182 456.88527497 141.73193895 456.9473517 137.421875 456.9296875 C137.421875 456.2696875 137.421875 455.6096875 137.421875 454.9296875 C136.6175 455.0121875 135.813125 455.0946875 134.984375 455.1796875 C131.01230479 454.90094573 128.40901709 453.80196022 124.86328125 452.09765625 C103.52606623 441.88993259 81.99316681 439.52697422 59.421875 446.9296875 C58.4834375 447.28160156 57.545 447.63351562 56.578125 447.99609375 C47.58519719 450.65613057 37.86903636 450.20470502 28.57226562 450.359375 C23.0315973 450.52085167 18.5489722 450.95094402 13.4621582 453.15869141 C8.37118667 455.08250236 2.73301776 455.54486174 -2.62109375 456.390625 C-9.03317548 457.46665522 -15.29216894 458.57224243 -19.578125 463.9296875 C-20.66978775 465.86299353 -20.66978775 465.86299353 -21.578125 467.9296875 C-22.88194673 470.7980953 -24.09171183 472.94055697 -26.578125 474.9296875 C-27.568125 474.9296875 -28.558125 474.9296875 -29.578125 474.9296875 C-31.05078125 473.390625 -31.05078125 473.390625 -32.640625 471.3046875 C-37.44032996 465.55927797 -43.40216508 462.37837097 -50.140625 459.3046875 C-52.578125 457.9296875 -52.578125 457.9296875 -53.453125 455.7421875 C-53.494375 455.1440625 -53.535625 454.5459375 -53.578125 453.9296875 C-52.77375 453.6821875 -51.969375 453.4346875 -51.140625 453.1796875 C-50.295 452.7671875 -49.449375 452.3546875 -48.578125 451.9296875 C-48.248125 450.6096875 -47.918125 449.2896875 -47.578125 447.9296875 C-43.618125 448.2596875 -39.658125 448.5896875 -35.578125 448.9296875 C-35.248125 448.2696875 -34.918125 447.6096875 -34.578125 446.9296875 C-33.918125 446.9296875 -33.258125 446.9296875 -32.578125 446.9296875 C-32.578125 445.2796875 -32.578125 443.6296875 -32.578125 441.9296875 C-32.660625 442.5484375 -32.743125 443.1671875 -32.828125 443.8046875 C-33.578125 445.9296875 -33.578125 445.9296875 -35.265625 447.2421875 C-39.43128113 448.48062581 -43.48068211 447.0328452 -47.578125 445.9296875 C-47.908125 443.2896875 -48.238125 440.6496875 -48.578125 437.9296875 C-49.898125 437.9296875 -51.218125 437.9296875 -52.578125 437.9296875 C-52.413125 438.4246875 -52.248125 438.9196875 -52.078125 439.4296875 C-51.37123682 442.96412839 -51.51807345 446.32659451 -51.578125 449.9296875 C-53.888125 448.2796875 -56.198125 446.6296875 -58.578125 444.9296875 C-57.703125 439.1796875 -57.703125 439.1796875 -56.578125 436.9296875 C-57.4134375 437.05537109 -57.4134375 437.05537109 -58.265625 437.18359375 C-63.63603608 437.90025334 -68.23195932 437.80451461 -73.578125 436.9296875 C-73.908125 438.5796875 -74.238125 440.2296875 -74.578125 441.9296875 C-75.568125 441.5996875 -76.558125 441.2696875 -77.578125 440.9296875 C-77.60501716 442.40875642 -77.62447121 443.88796233 -77.640625 445.3671875 C-77.65222656 446.19089844 -77.66382813 447.01460938 -77.67578125 447.86328125 C-77.81079848 449.92132688 -77.81079848 449.92132688 -76.578125 450.9296875 C-73.09193619 450.83660213 -73.09193619 450.83660213 -69.578125 449.9296875 C-67.27178081 447.12196414 -67.38169859 444.46536281 -67.578125 440.9296875 C-65.265625 439.8046875 -65.265625 439.8046875 -62.578125 438.9296875 C-61.588125 439.5896875 -60.598125 440.2496875 -59.578125 440.9296875 C-58.8444001 445.06522784 -58.578125 448.72974161 -58.578125 452.9296875 C-57.64529204 455.13036171 -57.64529204 455.13036171 -56.578125 456.9296875 C-62.328125 457.0546875 -62.328125 457.0546875 -64.578125 455.9296875 C-71.27436595 454.6934584 -76.30116955 454.83563318 -82.640625 457.26953125 C-84.578125 457.9296875 -84.578125 457.9296875 -87.453125 457.9921875 C-90.69891133 456.36929434 -91.3982034 454.27279869 -92.578125 450.9296875 C-92.328125 448.9921875 -92.328125 448.9921875 -91.578125 446.9296875 C-90.91639442 442.88577839 -90.45391722 439.02854435 -90.578125 434.9296875 C-90.95582031 435.43113281 -91.33351562 435.93257813 -91.72265625 436.44921875 C-93.578125 437.9296875 -93.578125 437.9296875 -96.27734375 438.00390625 C-97.75654297 437.81248047 -97.75654297 437.81248047 -99.265625 437.6171875 C-100.75642578 437.43736328 -100.75642578 437.43736328 -102.27734375 437.25390625 C-103.03660156 437.14691406 -103.79585937 437.03992188 -104.578125 436.9296875 C-104.578125 437.5896875 -104.578125 438.2496875 -104.578125 438.9296875 C-103.258125 438.9296875 -101.938125 438.9296875 -100.578125 438.9296875 C-100.578125 439.9196875 -100.578125 440.9096875 -100.578125 441.9296875 C-99.918125 441.9296875 -99.258125 441.9296875 -98.578125 441.9296875 C-97.70620553 443.31450078 -96.85622116 444.71313996 -96.015625 446.1171875 C-95.53996094 446.89449219 -95.06429687 447.67179687 -94.57421875 448.47265625 C-93.36362472 451.45878819 -93.566405 452.90469555 -94.578125 455.9296875 C-95.238125 456.5896875 -95.898125 457.2496875 -96.578125 457.9296875 C-100.92172126 457.55737925 -104.73521692 455.9197649 -108.578125 453.9296875 C-109.7846875 452.475625 -109.7846875 452.475625 -111.015625 450.9921875 C-113.75667057 447.71630377 -115.79548417 446.57891285 -119.58984375 444.87109375 C-121.578125 443.9296875 -121.578125 443.9296875 -124.828125 441.7421875 C-127.22548387 440.16211006 -128.78499321 439.35940008 -131.578125 438.9296875 C-131.578125 437.2796875 -131.578125 435.6296875 -131.578125 433.9296875 C-132.25875 433.9090625 -132.939375 433.8884375 -133.640625 433.8671875 C-138.07106391 432.45321763 -140.48679898 429.29334462 -143.578125 425.9296875 C-146.30300581 423.0378087 -146.30300581 423.0378087 -149.578125 420.9296875 C-149.908125 421.5896875 -150.238125 422.2496875 -150.578125 422.9296875 C-151.568125 421.7540625 -151.568125 421.7540625 -152.578125 420.5546875 C-155.44358446 418.04741047 -156.28080021 417.54100749 -159.765625 416.8046875 C-163.578125 415.9296875 -163.578125 415.9296875 -165.578125 412.9296875 C-164.87837452 414.94063222 -164.87837452 414.94063222 -163.578125 416.9296875 C-161.60027443 417.72906106 -161.60027443 417.72906106 -159.328125 418.1171875 C-154.19084896 419.61077255 -152.67504058 422.16391558 -150.04296875 426.640625 C-146.84532639 431.63747412 -142.26957687 435.20500512 -136.578125 436.9296875 C-136.908125 438.2496875 -137.238125 439.5696875 -137.578125 440.9296875 C-136.918125 440.9296875 -136.258125 440.9296875 -135.578125 440.9296875 C-135.578125 442.2496875 -135.578125 443.5696875 -135.578125 444.9296875 C-134.918125 444.9296875 -134.258125 444.9296875 -133.578125 444.9296875 C-133.578125 445.5896875 -133.578125 446.2496875 -133.578125 446.9296875 C-134.578125 447.9296875 -135.578125 448.9296875 -136.578125 449.9296875 C-136.92875 450.7959375 -137.279375 451.6621875 -137.640625 452.5546875 C-139.578125 454.9296875 -139.578125 454.9296875 -141.9921875 455.47265625 C-144.52674973 455.71897286 -147.03260015 455.87715322 -149.578125 455.9296875 C-149.578125 456.5896875 -149.578125 457.2496875 -149.578125 457.9296875 C-153.39194689 459.63373558 -157.16155681 461.15503684 -161.140625 462.4296875 C-163.87961381 463.31173474 -166.18072894 464.23689735 -168.765625 465.5546875 C-171.74161037 467.00961368 -174.30424343 467.53993969 -177.578125 467.9296875 C-177.6709375 468.7340625 -177.6709375 468.7340625 -177.765625 469.5546875 C-178.95839882 473.04125712 -181.14009666 475.17909143 -183.578125 477.9296875 C-188.38157205 476.896183 -192.83674266 474.8996012 -197.38671875 473.0859375 C-200.13893863 472.08880521 -202.69768417 471.40347964 -205.578125 470.9296875 C-205.908125 468.9496875 -206.238125 466.9696875 -206.578125 464.9296875 C-210.538125 464.9296875 -214.498125 464.9296875 -218.578125 464.9296875 C-218.578125 462.6196875 -218.578125 460.3096875 -218.578125 457.9296875 C-219.83625 458.2596875 -221.094375 458.5896875 -222.390625 458.9296875 C-224.96799802 459.60571977 -226.88025425 459.9296875 -229.578125 459.9296875 C-232.64094024 454.02282954 -234.1747396 449.61177106 -233.578125 442.9296875 C-233.248125 442.5996875 -232.918125 442.2696875 -232.578125 441.9296875 C-232.50553554 439.74329297 -232.49438717 437.55468361 -232.515625 435.3671875 C-232.52464844 434.16964844 -232.53367187 432.97210938 -232.54296875 431.73828125 C-232.55457031 430.81144531 -232.56617188 429.88460938 -232.578125 428.9296875 C-234.558125 428.9296875 -236.538125 428.9296875 -238.578125 428.9296875 C-238.81151468 425.89562169 -238.93671588 422.95661643 -238.578125 419.9296875 C-237.28578893 418.55658043 -235.95375354 417.21933926 -234.578125 415.9296875 C-234.24394571 412.2621662 -234.24394571 412.2621662 -234.578125 408.9296875 C-238.71906198 408.71998191 -238.71906198 408.71998191 -242.578125 409.9296875 C-245.265625 410.5546875 -245.265625 410.5546875 -248.578125 409.9296875 C-251.34774778 407.23475118 -253.41842154 404.12103502 -255.578125 400.9296875 C-256.17625 400.11757813 -256.774375 399.30546875 -257.390625 398.46875 C-261.62482526 392.56831353 -261.62482526 392.56831353 -261.421875 389.79296875 C-260.578125 387.9296875 -260.578125 387.9296875 -257.578125 385.9296875 C-255.36227954 385.48265516 -253.12970539 385.11505508 -250.890625 384.8046875 C-249.71113281 384.63710938 -248.53164062 384.46953125 -247.31640625 384.296875 C-246.41277344 384.17570312 -245.50914062 384.05453125 -244.578125 383.9296875 C-244.578125 384.9196875 -244.578125 385.9096875 -244.578125 386.9296875 C-243.918125 386.9296875 -243.258125 386.9296875 -242.578125 386.9296875 C-242.248125 385.9396875 -241.918125 384.9496875 -241.578125 383.9296875 C-236.92643115 384.55829478 -236.92643115 384.55829478 -235.22265625 386.375 C-233.13038626 388.35296546 -231.34903301 388.77059687 -228.578125 389.4921875 C-225.32165413 390.34991867 -223.43247287 391.02678892 -220.578125 392.9296875 C-218.97712005 393.0481784 -217.37096139 393.10485773 -215.765625 393.1171875 C-211.08428436 393.44963053 -211.08428436 393.44963053 -208.8359375 395.58203125 C-207.88943193 396.87388345 -206.94782339 398.16934129 -206.01171875 399.46875 C-205.53863281 399.95085937 -205.06554687 400.43296875 -204.578125 400.9296875 C-200.94572687 401.1013242 -200.94572687 401.1013242 -197.578125 399.9296875 C-196.77375 399.7440625 -195.969375 399.5584375 -195.140625 399.3671875 C-194.625 399.2228125 -194.109375 399.0784375 -193.578125 398.9296875 C-192.81289699 395.57510595 -192.81289699 395.57510595 -192.578125 391.9296875 C-194.03645858 390.30454282 -194.03645858 390.30454282 -195.578125 388.9296875 C-195.42758918 385.91897111 -194.99132487 384.40899935 -193.015625 382.1171875 C-192.54125 381.7253125 -192.066875 381.3334375 -191.578125 380.9296875 C-192.8870822 377.80771272 -192.8870822 377.80771272 -195.578125 375.9296875 C-195.95703125 373.27734375 -195.95703125 373.27734375 -196.140625 369.9921875 C-196.27328003 365.80719953 -196.27328003 365.80719953 -197.578125 361.9296875 C-197.52955277 358.61352895 -197.38180969 355.30870603 -197.22265625 351.99609375 C-197.33996094 350.98417969 -197.45726562 349.97226562 -197.578125 348.9296875 C-198.90768005 347.92466951 -200.24106963 346.92470545 -201.578125 345.9296875 C-202.01171875 342.92578125 -202.01171875 342.92578125 -202.015625 339.3671875 C-202.26960771 333.34593888 -203.35101477 329.44416688 -206.296875 324.24609375 C-208.54184983 320.18734353 -211.04171724 315.36565401 -210.1484375 310.671875 C-209.96023437 310.09695313 -209.77203125 309.52203125 -209.578125 308.9296875 C-208.14919922 309.14238281 -208.14919922 309.14238281 -206.69140625 309.359375 C-199.93653162 310.57697109 -199.93653162 310.57697109 -193.78125 308.625 C-193.40484375 308.06554687 -193.0284375 307.50609375 -192.640625 306.9296875 C-191.96 305.9396875 -191.279375 304.9496875 -190.578125 303.9296875 C-185.93937752 303.9296875 -181.91234807 305.34399613 -177.578125 306.9296875 C-178.073125 305.4446875 -178.073125 305.4446875 -178.578125 303.9296875 C-178.69499838 302.45382135 -178.75314242 300.97262138 -178.765625 299.4921875 C-178.77980469 298.73035156 -178.79398437 297.96851563 -178.80859375 297.18359375 C-178.578125 294.9296875 -178.578125 294.9296875 -177.57421875 293.00390625 C-176.27034025 290.28877101 -176.38182939 288.17410316 -176.453125 285.1796875 C-176.47117187 284.19484375 -176.48921875 283.21 -176.5078125 282.1953125 C-176.53101563 281.44765625 -176.55421875 280.7 -176.578125 279.9296875 C-173.938125 279.9296875 -171.298125 279.9296875 -168.578125 279.9296875 C-168.908125 278.8778125 -169.238125 277.8259375 -169.578125 276.7421875 C-170.41779282 273.54095393 -170.77563404 271.1885867 -170.578125 267.9296875 C-171.320625 267.8678125 -172.063125 267.8059375 -172.828125 267.7421875 C-177.53734551 266.35082689 -179.39325515 262.34416347 -181.890625 258.3671875 C-183.578125 254.9296875 -183.578125 254.9296875 -183.703125 252.6171875 C-181.93727383 249.96841074 -179.55771422 249.69043368 -176.578125 248.9296875 C-175.98682072 246.27034703 -175.98682072 246.27034703 -176.578125 242.9296875 C-178.67202004 240.0421387 -181.13907683 237.52662049 -183.578125 234.9296875 C-186.65453329 230.89853182 -187.21243716 227.06662757 -187.85546875 222.13671875 C-188.09394531 221.40839844 -188.33242187 220.68007812 -188.578125 219.9296875 C-189.18011719 219.64480469 -189.78210938 219.35992187 -190.40234375 219.06640625 C-194.19188955 217.08658968 -195.58222586 212.71449315 -197.40234375 208.984375 C-199.20734133 205.54696925 -200.22864894 204.08389276 -203.8359375 202.4921875 C-204.74085938 202.3065625 -205.64578125 202.1209375 -206.578125 201.9296875 C-206.89160122 195.95041889 -207.05944678 192.0066151 -203.578125 186.9296875 C-202.91145833 184.4296875 -202.91145833 184.4296875 -203.578125 181.9296875 C-204.815625 180.8159375 -204.815625 180.8159375 -206.078125 179.6796875 C-208.86129615 176.61819923 -208.92133096 176.04140921 -208.890625 172.1171875 C-208.81083649 170.71974871 -208.71469716 169.32272355 -208.578125 167.9296875 C-205.938125 167.9296875 -203.298125 167.9296875 -200.578125 167.9296875 C-202.63975575 164.38898602 -202.63975575 164.38898602 -205.125 161.14453125 C-206.98007283 158.31704121 -207.15939203 156.09237843 -207.515625 152.7421875 C-208.19655024 147.51784731 -209.36189965 143.451431 -211.87109375 138.83203125 C-212.79081857 136.35741253 -212.62010315 135.34839695 -211.578125 132.9296875 C-210.57072266 132.14851563 -210.57072266 132.14851563 -209.54296875 131.3515625 C-205.92769312 126.89535795 -207.10756438 120.78277664 -207.17773438 115.2578125 C-207.10801196 109.22067174 -206.34792311 105.45284436 -202.7253418 100.55273438 C-201.21898648 98.42158941 -200.86359478 96.4989155 -200.578125 93.9296875 C-200.04195702 89.64034367 -197.55665364 87.90821614 -194.578125 84.9296875 C-193.71693366 82.75622182 -193.71693366 82.75622182 -193.578125 80.9296875 C-194.320625 80.6615625 -195.063125 80.3934375 -195.828125 80.1171875 C-200.70451905 78.01147189 -200.70451905 78.01147189 -202.578125 75.9296875 C-202.92164795 73.17605112 -202.76126996 70.72264808 -202.578125 67.9296875 C-198.87427812 69.35424399 -196.67529429 71.73408475 -194.04296875 74.58984375 C-192.50310832 76.18077449 -192.50310832 76.18077449 -189.578125 76.9296875 C-189.083125 74.9496875 -189.083125 74.9496875 -188.578125 72.9296875 C-185.113125 72.4346875 -185.113125 72.4346875 -181.578125 71.9296875 C-181.248125 70.2796875 -180.918125 68.6296875 -180.578125 66.9296875 C-179.65 66.8471875 -178.721875 66.7646875 -177.765625 66.6796875 C-174.43183772 65.27630599 -174.43183772 65.27630599 -173.546875 62.51171875 C-172.21578533 57.36705718 -171.47493446 52.35276566 -171.140625 47.0546875 C-170.80703032 42.12884266 -169.6360106 39.7520445 -166.578125 35.9296875 C-166.248125 34.9396875 -165.918125 33.9496875 -165.578125 32.9296875 C-163.268125 32.9296875 -160.958125 32.9296875 -158.578125 32.9296875 C-158.578125 30.9496875 -158.578125 28.9696875 -158.578125 26.9296875 C-153.28834317 26.43761477 -151.5795137 27.64649677 -147.578125 30.9296875 C-144.8676643 31.26561258 -144.8676643 31.26561258 -142.578125 30.9296875 C-142.92257381 28.45701985 -142.92257381 28.45701985 -143.578125 25.9296875 C-144.238125 25.5996875 -144.898125 25.2696875 -145.578125 24.9296875 C-144.52993403 22.48390858 -143.60158175 20.95163091 -141.640625 19.1171875 C-138.95559632 16.26942981 -137.97876067 13.57134023 -136.578125 9.9296875 C-135.588125 9.9296875 -134.598125 9.9296875 -133.578125 9.9296875 C-132 11.58203125 -132 11.58203125 -130.328125 13.8671875 C-129.41933594 15.09308594 -129.41933594 15.09308594 -128.4921875 16.34375 C-127.86054688 17.19710937 -127.22890625 18.05046875 -126.578125 18.9296875 C-124.71163688 21.25357587 -122.84034984 23.57327172 -120.9609375 25.88671875 C-119.56952287 27.9423963 -119.00341946 29.50332808 -118.578125 31.9296875 C-119.99414214 32.41077025 -121.41096937 32.88946891 -122.828125 33.3671875 C-123.61703125 33.63402344 -124.4059375 33.90085938 -125.21875 34.17578125 C-127.32634488 34.84923458 -129.42566473 35.42119345 -131.578125 35.9296875 C-130.918125 36.9196875 -130.258125 37.9096875 -129.578125 38.9296875 C-129.26953125 41.53125 -129.26953125 41.53125 -129.140625 44.5546875 C-128.82001388 49.31805268 -128.0094326 53.23360837 -126.34375 57.68359375 C-124.98708717 61.66359951 -124.31151048 65.79684461 -123.578125 69.9296875 C-122.588125 69.5996875 -121.598125 69.2696875 -120.578125 68.9296875 C-117.36473481 68.70399789 -114.15796229 68.53624755 -110.93945312 68.41210938 C-106.80754371 68.31120215 -106.80754371 68.31120215 -103.578125 65.9296875 C-102.60875 65.6409375 -101.639375 65.3521875 -100.640625 65.0546875 C-97.33043333 63.83869872 -96.35628617 62.89328945 -94.578125 59.9296875 C-95.898125 58.9396875 -97.218125 57.9496875 -98.578125 56.9296875 C-97.05561303 52.81890519 -94.34392516 50.0528815 -90.578125 47.9296875 C-87.49485456 47.04991681 -84.43910595 46.37602994 -81.28515625 45.80078125 C-78.05664512 44.76188084 -77.53931213 43.57463988 -75.578125 40.9296875 C-73.23828125 40.390625 -73.23828125 40.390625 -70.640625 40.3046875 C-66.92378326 40.1731966 -66.92378326 40.1731966 -63.51171875 38.84375 C-61.578125 37.9296875 -61.578125 37.9296875 -59.4921875 37.98046875 C-56.65383452 39.38806013 -56.15841651 41.236152 -54.953125 44.1171875 C-54.53417969 45.1071875 -54.11523438 46.0971875 -53.68359375 47.1171875 C-52.54025308 50.02604009 -51.46905368 52.9329274 -50.578125 55.9296875 C-46.08811472 53.4976644 -46.08811472 53.4976644 -42.578125 49.9296875 C-41.84770647 46.31945651 -41.84770647 46.31945651 -41.578125 42.9296875 C-38.608125 42.4346875 -38.608125 42.4346875 -35.578125 41.9296875 C-36.05366994 37.64978305 -38.56496095 35.80270439 -41.578125 32.9296875 C-45.578125 28.49725507 -45.578125 28.49725507 -45.578125 23.9296875 C-44.81886719 23.63835938 -44.05960938 23.34703125 -43.27734375 23.046875 C-36.89959148 20.54617508 -36.89959148 20.54617508 -32.390625 15.6171875 C-32.1225 14.7303125 -31.854375 13.8434375 -31.578125 12.9296875 C-29.268125 12.9296875 -26.958125 12.9296875 -24.578125 12.9296875 C-24.32933594 12.27484375 -24.08054687 11.62 -23.82421875 10.9453125 C-23.41300781 10.28015625 -23.00179687 9.615 -22.578125 8.9296875 C-20.46006079 8.79520723 -18.34179106 8.66327336 -16.22265625 8.546875 C-11.72866275 7.49805525 -8.62364098 4.47692176 -5.15625 1.546875 C-2.578125 -0.0703125 -2.578125 -0.0703125 0 0 Z " fill="#020202" transform="translate(289.578125,25.0703125)"/>
<path d="M0 0 C0.99386719 0.02707031 1.98773438 0.05414063 3.01171875 0.08203125 C3.77097656 0.11683594 4.53023437 0.15164063 5.3125 0.1875 C5.74949219 1.14269531 5.74949219 1.14269531 6.1953125 2.1171875 C7.57627749 4.67631843 8.66295026 5.09650893 11.3125 6.1875 C12.64583333 6.85416667 13.97916667 7.52083333 15.3125 8.1875 C15.3125 8.8475 15.3125 9.5075 15.3125 10.1875 C18.9425 10.1875 22.5725 10.1875 26.3125 10.1875 C26.6425 9.5275 26.9725 8.8675 27.3125 8.1875 C27.3125 8.8475 27.3125 9.5075 27.3125 10.1875 C27.828125 10.27 28.34375 10.3525 28.875 10.4375 C33.10472215 11.73895297 37.17750245 13.55902526 39.75 17.25 C40.3125 19.1875 40.3125 19.1875 40.3125 22.1875 C42.2925 22.6825 42.2925 22.6825 44.3125 23.1875 C44.8075 25.1675 44.8075 25.1675 45.3125 27.1875 C43.6625 27.8475 42.0125 28.5075 40.3125 29.1875 C40.3125 30.1775 40.3125 31.1675 40.3125 32.1875 C39.72082031 32.27386719 39.12914062 32.36023438 38.51953125 32.44921875 C34.65860989 33.13574473 31.73723646 33.92542857 28.375 36 C25.60969076 40.27365973 25.38391965 44.20913328 24.96484375 49.2265625 C24.3125 52.1875 24.3125 52.1875 22.5703125 53.95703125 C18.32960618 56.26814283 13.90875462 57.738875 9.3125 59.1875 C8.34957031 59.51105469 7.38664062 59.83460938 6.39453125 60.16796875 C3.52223552 60.94844083 1.28295607 61.42922725 -1.6875 61.1875 C-3.96482657 59.50327439 -5.35877273 57.70994772 -7.015625 55.41796875 C-9.66026445 51.88972312 -13.06136869 49.63270732 -16.6875 47.1875 C-17.36039063 46.73375 -18.03328125 46.28 -18.7265625 45.8125 C-21.87085349 43.7729599 -24.73486627 42.16921828 -28.25 40.8125 C-31.59480275 39.23132052 -32.71657126 38.19107687 -35.0625 35.5 C-36.96497293 33.49159874 -38.0779102 32.3401823 -40.77734375 31.6640625 C-46.49181871 31.56363236 -52.14737852 32.89210625 -57.6875 34.1875 C-57.6875 33.5275 -57.6875 32.8675 -57.6875 32.1875 C-57.0275 32.1875 -56.3675 32.1875 -55.6875 32.1875 C-55.3575 30.8675 -55.0275 29.5475 -54.6875 28.1875 C-53.3675 28.1875 -52.0475 28.1875 -50.6875 28.1875 C-50.56632812 27.62160156 -50.44515625 27.05570313 -50.3203125 26.47265625 C-50.15273437 25.73917969 -49.98515625 25.00570313 -49.8125 24.25 C-49.56886719 23.15365234 -49.56886719 23.15365234 -49.3203125 22.03515625 C-48.6875 20.1875 -48.6875 20.1875 -46.6875 19.1875 C-44.7525766 18.89883344 -42.81452969 18.63089356 -40.875 18.375 C-35.92568 17.60222179 -33.46861842 16.52378096 -29.6875 13.1875 C-26.375 12.9375 -26.375 12.9375 -23.6875 13.1875 C-23.6875 13.8475 -23.6875 14.5075 -23.6875 15.1875 C-22.6975 15.1875 -21.7075 15.1875 -20.6875 15.1875 C-21.1825 13.7025 -21.1825 13.7025 -21.6875 12.1875 C-21.00042969 11.95675781 -20.31335938 11.72601563 -19.60546875 11.48828125 C-13.96690631 9.58584771 -13.96690631 9.58584771 -9.75 5.625 C-9.399375 4.820625 -9.04875 4.01625 -8.6875 3.1875 C-6.1731421 -0.21904942 -4.09322281 -0.14446669 0 0 Z " fill="#050505" transform="translate(160.6875,485.8125)"/>
<path d="M0 0 C1.56541977 0.2310134 3.1273387 0.4857975 4.6875 0.75 C5.55761719 0.88921875 6.42773438 1.0284375 7.32421875 1.171875 C10 2 10 2 12.265625 3.9609375 C16.53762942 7.14663222 21.31211881 7.45526311 26.49414062 8.24609375 C30.89481873 9.05684108 32.50577723 9.38700434 35.421875 13.00390625 C36.20304688 14.48697266 36.20304688 14.48697266 37 16 C37.721875 16.680625 38.44375 17.36125 39.1875 18.0625 C41.32864518 20.35131037 41.6588103 21.92929266 42 25 C35.04221497 29.83419307 35.04221497 29.83419307 31.25 30.4375 C29 30 29 30 27.1875 29.0625 C24.91977294 27.96103257 23.29870455 27.71177879 20.8125 27.4375 C17 27 17 27 16 26 C14.15108054 25.76636119 12.29511969 25.58696365 10.4375 25.4375 C9.42558594 25.35371094 8.41367187 25.26992188 7.37109375 25.18359375 C6.19740234 25.09271484 6.19740234 25.09271484 5 25 C4.90847656 24.22914063 4.81695313 23.45828125 4.72265625 22.6640625 C3.87125287 19.52537543 3.16690224 18.99609951 0.4375 17.375 C-1.50390625 16.2109375 -1.50390625 16.2109375 -3 15 C-3 14.01 -3 13.02 -3 12 C-2.01 12 -1.02 12 0 12 C-0.33 11.34 -0.66 10.68 -1 10 C-1.1328125 8.125 -1.1328125 8.125 -1.125 6 C-1.12757813 5.29875 -1.13015625 4.5975 -1.1328125 3.875 C-1 2 -1 2 0 0 Z " fill="#0C0C0C" transform="translate(572,267)"/>
<path d="M0 0 C2 1.375 2 1.375 4 3 C4 3.66 4 4.32 4 5 C5.216875 4.690625 6.43375 4.38125 7.6875 4.0625 C10.7782972 3.28842823 13.86734334 2.58737312 17 2 C17.495 6.95 17.495 6.95 18 12 C17.01 12 16.02 12 15 12 C16.29502616 15.88507849 18.10305201 16.51166457 21.50390625 18.5234375 C23 20 23 20 23.21484375 22.6640625 C23.14394531 23.43492187 23.07304688 24.20578125 23 25 C23.78246094 24.98839844 24.56492187 24.97679687 25.37109375 24.96484375 C26.38300781 24.95582031 27.39492188 24.94679688 28.4375 24.9375 C29.44683594 24.92589844 30.45617187 24.91429687 31.49609375 24.90234375 C34 25 34 25 35 26 C36.82630965 26.3698855 38.66145374 26.69673464 40.5 27 C45.88888889 27.88888889 45.88888889 27.88888889 47 29 C49.33297433 29.04092937 51.66705225 29.04241723 54 29 C53.505 30.485 53.505 30.485 53 32 C53.66 32.66 54.32 33.32 55 34 C48.47248252 34.37658755 48.47248252 34.37658755 46.15234375 32.52734375 C43.32625593 30.52189849 41.24542144 30.53389283 37.8125 30.375 C32.08407643 30.08407643 32.08407643 30.08407643 31 29 C29.31816052 28.76712992 27.6287584 28.58735834 25.9375 28.4375 C25.01839844 28.35371094 24.09929688 28.26992188 23.15234375 28.18359375 C22.08693359 28.09271484 22.08693359 28.09271484 21 28 C20.95875 26.948125 20.9175 25.89625 20.875 24.8125 C19.7159065 19.76216403 18.08940017 19.00445727 14 16 C12 13 12 13 12 10 C11.01 10 10.02 10 9 10 C9.46800711 14.05606165 9.87953208 17.46588679 12 21 C10.68 21 9.36 21 8 21 C8 20.34 8 19.68 8 19 C7.34 18.67 6.68 18.34 6 18 C5.01 20.475 5.01 20.475 4 23 C2.29159719 21.36587557 1.06546953 20.13093906 0 18 C-0.99 17.67 -1.98 17.34 -3 17 C-3 17.66 -3 18.32 -3 19 C-4.32 19 -5.64 19 -7 19 C-7 19.99 -7 20.98 -7 22 C-7.99 22 -8.98 22 -10 22 C-10.33 21.34 -10.66 20.68 -11 20 C-13.32671854 19.31060191 -15.66067594 18.64533078 -18 18 C-21 16 -21 16 -21.6875 13.875 C-21.790625 13.25625 -21.89375 12.6375 -22 12 C-21.25234375 11.97421875 -20.5046875 11.9484375 -19.734375 11.921875 C-13.65848561 11.68590669 -13.65848561 11.68590669 -8.3125 9.125 C-6.73725356 6.99087686 -6.73725356 6.99087686 -7 4 C-4.69 4 -2.38 4 0 4 C0 2.68 0 1.36 0 0 Z " fill="#ECECEC" transform="translate(554,267)"/>
<path d="M0 0 C5.61 0 11.22 0 17 0 C16.67 2.64 16.34 5.28 16 8 C18.28075185 10.56034753 18.28075185 10.56034753 21 12 C21 8.37 21 4.74 21 1 C22.32 1 23.64 1 25 1 C25.33 3.64 25.66 6.28 26 9 C27.58226965 9.19627391 29.16589271 9.38165538 30.75 9.5625 C31.63171875 9.66691406 32.5134375 9.77132813 33.421875 9.87890625 C35.88432451 9.99456676 37.66538064 9.73638695 40 9 C40.33 7.35 40.66 5.7 41 4 C42.24546405 6.49092811 41.7767578 7.41080733 41 10 C40.34 10 39.68 10 39 10 C38.67 10.99 38.34 11.98 38 13 C33.97007218 12.44687265 29.97977076 11.8441938 26 11 C25.67 12.65 25.34 14.3 25 16 C23.35 16.33 21.7 16.66 20 17 C20 17.66 20 18.32 20 19 C19.34 19 18.68 19 18 19 C18 19.66 18 20.32 18 21 C16.68 20.67 15.36 20.34 14 20 C14.99 20 15.98 20 17 20 C15.9790625 18.9171875 15.9790625 18.9171875 14.9375 17.8125 C13 15 13 15 13.3125 12.5625 C13.539375 11.716875 13.76625 10.87125 14 10 C13.61666338 6.77888408 13.61666338 6.77888408 13 4 C9.98968256 3.06576355 9.13349732 2.95550089 6 4 C6.3403125 5.0828125 6.3403125 5.0828125 6.6875 6.1875 C7 9 7 9 6.0625 11.75 C2.99111849 15.10059801 0.46096953 14.78060806 -4 15 C-5.26237731 12.47524538 -5.09856404 10.68799534 -5.0625 7.875 C-5.05347656 6.96492188 -5.04445312 6.05484375 -5.03515625 5.1171875 C-5.02355469 4.41851562 -5.01195312 3.71984375 -5 3 C-3.02 3.99 -3.02 3.99 -1 5 C-0.67 3.35 -0.34 1.7 0 0 Z " fill="#E6E6E6" transform="translate(216,462)"/>
<path d="M0 0 C2.6875 0.875 2.6875 0.875 5 2 C5.54466387 6.084979 6 9.8725485 6 14 C6.93283296 16.20067421 6.93283296 16.20067421 8 18 C2.25 18.125 2.25 18.125 0 17 C-2.37123246 16.76970044 -4.74741943 16.58880058 -7.125 16.4375 C-8.40632812 16.35371094 -9.68765625 16.26992188 -11.0078125 16.18359375 C-12.48894531 16.09271484 -12.48894531 16.09271484 -14 16 C-14 14.35 -14 12.7 -14 11 C-13.01 11.495 -13.01 11.495 -12 12 C-8.47105052 11.91256309 -8.47105052 11.91256309 -5 11 C-3.08877807 8.67329505 -2.99109977 7.37380982 -3.0625 4.375 C-3.041875 3.59125 -3.02125 2.8075 -3 2 C-2.01 1.34 -1.02 0.68 0 0 Z " fill="#131313" transform="translate(225,464)"/>
<path d="M0 0 C0.70125 0.639375 1.4025 1.27875 2.125 1.9375 C5.30756408 4.2206438 7.20388255 4.38022572 11 5 C13.03131672 6.28511874 15.03277992 7.61876037 17 9 C18.18722656 9.4021875 18.18722656 9.4021875 19.3984375 9.8125 C22.69751964 11.31838734 24.26063927 13.28025094 26.5625 16.0625 C29.97750633 20.38522582 29.97750633 20.38522582 35 22 C34.67 23.32 34.34 24.64 34 26 C33.67 25.67 33.34 25.34 33 25 C32.34 26.32 31.68 27.64 31 29 C30.34 29 29.68 29 29 29 C29 27.68 29 26.36 29 25 C27.4840625 24.4740625 27.4840625 24.4740625 25.9375 23.9375 C20.07525148 21.40985033 15.81629225 16.9979183 13.125 11.25 C10.49521998 7.2279835 8.53929835 6.72318182 4.0234375 5.60546875 C2 5 2 5 0 3 C0 2.01 0 1.02 0 0 Z " fill="#E2E2E2" transform="translate(123,437)"/>
<path d="M0 0 C0.33 0 0.66 0 1 0 C1.33 2.64 1.66 5.28 2 8 C1.01 8 0.02 8 -1 8 C0.29502616 11.88507849 2.10305201 12.51166457 5.50390625 14.5234375 C7 16 7 16 7.21484375 18.6640625 C7.10849609 19.82035156 7.10849609 19.82035156 7 21 C7.78246094 20.98839844 8.56492187 20.97679687 9.37109375 20.96484375 C10.38300781 20.95582031 11.39492188 20.94679688 12.4375 20.9375 C13.44683594 20.92589844 14.45617187 20.91429687 15.49609375 20.90234375 C18 21 18 21 19 22 C20.82630965 22.3698855 22.66145374 22.69673464 24.5 23 C29.88888889 23.88888889 29.88888889 23.88888889 31 25 C33.33297433 25.04092937 35.66705225 25.04241723 38 25 C37.505 26.485 37.505 26.485 37 28 C37.66 28.66 38.32 29.32 39 30 C32.47248252 30.37658755 32.47248252 30.37658755 30.15234375 28.52734375 C27.32625593 26.52189849 25.24542144 26.53389283 21.8125 26.375 C16.08407643 26.08407643 16.08407643 26.08407643 15 25 C13.31816052 24.76712992 11.6287584 24.58735834 9.9375 24.4375 C9.01839844 24.35371094 8.09929688 24.26992188 7.15234375 24.18359375 C6.08693359 24.09271484 6.08693359 24.09271484 5 24 C4.938125 22.4221875 4.938125 22.4221875 4.875 20.8125 C3.7159065 15.76216403 2.08940017 15.00445727 -2 12 C-4 9 -4 9 -4 6 C-4.99 6 -5.98 6 -7 6 C-7 7.98 -7 9.96 -7 12 C-7.33 12 -7.66 12 -8 12 C-8 9.69 -8 7.38 -8 5 C-4.535 4.505 -4.535 4.505 -1 4 C-0.67 2.68 -0.34 1.36 0 0 Z " fill="#D7D7D7" transform="translate(570,271)"/>
<path d="M0 0 C4.75 0.75 4.75 0.75 7 3 C7.046875 5.09375 7.046875 5.09375 6.75 7.5 C6.66234375 8.2940625 6.5746875 9.088125 6.484375 9.90625 C6 12 6 12 4 14 C1.34462628 14.56520003 -1.29144713 14.73788198 -4 15 C-5.26237731 12.47524538 -5.09856404 10.68799534 -5.0625 7.875 C-5.05347656 6.96492188 -5.04445312 6.05484375 -5.03515625 5.1171875 C-5.02355469 4.41851562 -5.01195312 3.71984375 -5 3 C-3.02 3.99 -3.02 3.99 -1 5 C-0.67 3.35 -0.34 1.7 0 0 Z " fill="#ECECEC" transform="translate(216,462)"/>
<path d="M0 0 C0.66 0 1.32 0 2 0 C2.22245393 1.60226955 2.42746669 3.20696767 2.625 4.8125 C2.74101562 5.70582031 2.85703125 6.59914063 2.9765625 7.51953125 C3 10 3 10 1 13 C0.83300768 16.12521833 0.83300768 16.12521833 1 19 C0.34 19 -0.32 19 -1 19 C-2.71767682 15.01811282 -4.41037341 11.03520597 -6 7 C-6.66 7 -7.32 7 -8 7 C-8 6.01 -8 5.02 -8 4 C-9.32 4 -10.64 4 -12 4 C-12 3.34 -12 2.68 -12 2 C-7.70700357 0.73735399 -5.12168689 1.37049588 -1 3 C-0.67 2.01 -0.34 1.02 0 0 Z " fill="#D7D7D7" transform="translate(197,460)"/>
<path d="M0 0 C1.62992692 0.39695637 3.25392235 0.81832493 4.875 1.25 C6.23238281 1.59804688 6.23238281 1.59804688 7.6171875 1.953125 C10 3 10 3 11.3203125 5.109375 C11.54460937 5.73328125 11.76890625 6.3571875 12 7 C11.34 7.66 10.68 8.32 10 9 C9.3574765 11.06874034 9.3574765 11.06874034 9 13 C8.34 13 7.68 13 7 13 C6.67 13.66 6.34 14.32 6 15 C4.88625 13.8553125 4.88625 13.8553125 3.75 12.6875 C1.5736677 10.5606298 -0.52167796 8.7440044 -3 7 C-1.125 1.125 -1.125 1.125 0 0 Z " fill="#121212" transform="translate(133,433)"/>
<path d="M0 0 C1.64574566 -0.02688151 3.29161413 -0.04634123 4.9375 -0.0625 C5.85402344 -0.07410156 6.77054688 -0.08570313 7.71484375 -0.09765625 C10 0 10 0 11 1 C14.06886617 1.28474016 17.13775297 1.44871799 20.21484375 1.62109375 C23 2 23 2 25 4 C22.29646672 6.62160803 20.55795787 7.90153685 16.8125 8.5625 C11.60685541 7.79445408 7.5486067 5.56259532 3 3 C3 2.34 3 1.68 3 1 C2.01 0.67 1.02 0.34 0 0 Z " fill="#1D1D1D" transform="translate(575,295)"/>
<path d="M0 0 C1.32 0 2.64 0 4 0 C4.33 2.64 4.66 5.28 5 8 C6.58226965 8.19627391 8.16589271 8.38165538 9.75 8.5625 C10.63171875 8.66691406 11.5134375 8.77132813 12.421875 8.87890625 C14.88432451 8.99456676 16.66538064 8.73638695 19 8 C19.33 6.35 19.66 4.7 20 3 C21.24546405 5.49092811 20.7767578 6.41080733 20 9 C19.34 9 18.68 9 18 9 C17.67 9.99 17.34 10.98 17 12 C12.97007218 11.44687265 8.97977076 10.8441938 5 10 C4.67 11.32 4.34 12.64 4 14 C4 13.01 4 12.02 4 11 C3.34 11 2.68 11 2 11 C2 11.66 2 12.32 2 13 C1.34 12.67 0.68 12.34 0 12 C0 8.04 0 4.08 0 0 Z " fill="#9E9E9E" transform="translate(237,463)"/>
<path d="M0 0 C0.33 0 0.66 0 1 0 C1.33 2.64 1.66 5.28 2 8 C1.01 8 0.02 8 -1 8 C0.11666174 11.34998521 0.74694925 11.79340222 3.5625 13.6875 C4.20316406 14.12449219 4.84382812 14.56148438 5.50390625 15.01171875 C5.99761719 15.33785156 6.49132812 15.66398437 7 16 C6.67 18.64 6.34 21.28 6 24 C5.67 24 5.34 24 5 24 C4.938125 22.4221875 4.938125 22.4221875 4.875 20.8125 C3.7159065 15.76216403 2.08940017 15.00445727 -2 12 C-4 9 -4 9 -4 6 C-4.99 6 -5.98 6 -7 6 C-7 7.98 -7 9.96 -7 12 C-7.33 12 -7.66 12 -8 12 C-8 9.69 -8 7.38 -8 5 C-4.535 4.505 -4.535 4.505 -1 4 C-0.67 2.68 -0.34 1.36 0 0 Z " fill="#9E9E9E" transform="translate(570,271)"/>
<path d="M0 0 C0.78375 0.04125 1.5675 0.0825 2.375 0.125 C1.97696439 3.01075819 1.58490931 3.94689513 -0.6875 5.875 C-1.326875 6.2875 -1.96625 6.7 -2.625 7.125 C-3.14578125 6.80789062 -3.6665625 6.49078125 -4.203125 6.1640625 C-7.29908709 4.83579489 -10.01904121 4.70135753 -13.375 4.5 C-14.54546875 4.42523438 -15.7159375 4.35046875 -16.921875 4.2734375 C-17.81390625 4.22445312 -18.7059375 4.17546875 -19.625 4.125 C-19.625 3.795 -19.625 3.465 -19.625 3.125 C-18.56539062 3.07601562 -17.50578125 3.02703125 -16.4140625 2.9765625 C-15.02601503 2.90153291 -13.63799549 2.82598515 -12.25 2.75 C-11.20199219 2.70359375 -11.20199219 2.70359375 -10.1328125 2.65625 C-5.92060232 2.41323787 -3.73881364 0.17803874 0 0 Z " fill="#2A2A2A" transform="translate(188.625,90.875)"/>
<path d="M0 0 C1.93719378 -0.05406122 3.87481921 -0.09282025 5.8125 -0.125 C6.89144531 -0.14820313 7.97039063 -0.17140625 9.08203125 -0.1953125 C12 0 12 0 15 2 C15 2.99 15 3.98 15 5 C13.33388095 5.042721 11.66617115 5.04063832 10 5 C9.67 4.67 9.34 4.34 9 4 C7.48530552 3.76807135 5.96245438 3.58784762 4.4375 3.4375 C3.61121094 3.35371094 2.78492188 3.26992188 1.93359375 3.18359375 C1.29550781 3.12300781 0.65742187 3.06242187 0 3 C0 2.01 0 1.02 0 0 Z " fill="#DCDCDC" transform="translate(576,292)"/>
<path d="M0 0 C0.70125 0.639375 1.4025 1.27875 2.125 1.9375 C5.30756408 4.2206438 7.20388255 4.38022572 11 5 C16.75193798 8.25581395 16.75193798 8.25581395 18 12 C16.68 12.33 15.36 12.66 14 13 C13.690625 12.236875 13.38125 11.47375 13.0625 10.6875 C10.42432108 7.24987292 8.14122629 6.76850556 4.05859375 5.67578125 C2 5 2 5 0 3 C0 2.01 0 1.02 0 0 Z " fill="#ACACAC" transform="translate(123,437)"/>
<path d="M0 0 C1.6026782 -0.10824843 3.20745748 -0.18570645 4.8125 -0.25 C5.70582031 -0.29640625 6.59914063 -0.3428125 7.51953125 -0.390625 C10 0 10 0 11.82421875 1.890625 C13 4 13 4 13 6 C13.99 6.33 14.98 6.66 16 7 C13 8 13 8 10.51953125 7.00390625 C9.62621094 6.52824219 8.73289062 6.05257813 7.8125 5.5625 C6.91144531 5.08941406 6.01039063 4.61632812 5.08203125 4.12890625 C4.39496094 3.75636719 3.70789063 3.38382812 3 3 C3 2.34 3 1.68 3 1 C2.01 0.67 1.02 0.34 0 0 Z " fill="#030303" transform="translate(575,295)"/>
<path d="M0 0 C0.66 0.33 1.32 0.66 2 1 C-0.39622028 3.54097336 -2.81997517 6.05386993 -5.25 8.5625 C-5.93191406 9.28630859 -6.61382813 10.01011719 -7.31640625 10.75585938 C-7.98027344 11.43583984 -8.64414062 12.11582031 -9.328125 12.81640625 C-9.9355957 13.45006104 -10.54306641 14.08371582 -11.16894531 14.73657227 C-13 16 -13 16 -15.22949219 15.69897461 C-16.10589355 15.35298218 -16.10589355 15.35298218 -17 15 C-15.9790625 14.505 -15.9790625 14.505 -14.9375 14 C-11.55554967 11.69739552 -9.33353041 9.05288734 -6.71484375 5.94140625 C-4.68882578 3.64771392 -2.47205034 1.79785479 0 0 Z " fill="#CECECE" transform="translate(570,438)"/>
<path d="M0 0 C1.24546405 2.49092811 0.7767578 3.41080733 0 6 C-0.66 6 -1.32 6 -2 6 C-2.33 6.99 -2.66 7.98 -3 9 C-7.66666667 8.33333333 -12.33333333 7.66666667 -17 7 C-16.67 5.02 -16.34 3.04 -16 1 C-15.67 2.32 -15.34 3.64 -15 5 C-13.41773035 5.19627391 -11.83410729 5.38165538 -10.25 5.5625 C-8.92742187 5.71912109 -8.92742187 5.71912109 -7.578125 5.87890625 C-5.11567549 5.99456676 -3.33461936 5.73638695 -1 5 C-0.67 3.35 -0.34 1.7 0 0 Z " fill="#7A7A7A" transform="translate(257,466)"/>
<path d="M0 0 C1.21236328 0.01353516 1.21236328 0.01353516 2.44921875 0.02734375 C3.37154297 0.04474609 3.37154297 0.04474609 4.3125 0.0625 C4.19887738 1.5425841 4.07127092 3.02160074 3.9375 4.5 C3.86789063 5.32371094 3.79828125 6.14742188 3.7265625 6.99609375 C3.58992187 7.67800781 3.45328125 8.35992187 3.3125 9.0625 C2.3225 9.5575 2.3225 9.5575 1.3125 10.0625 C0.9825 8.0825 0.6525 6.1025 0.3125 4.0625 C-2.17814888 3.37542445 -4.06636292 3.0625 -6.6875 3.0625 C-7.0175 2.4025 -7.3475 1.7425 -7.6875 1.0625 C-4.80538698 0.10179566 -2.98899956 -0.04331883 0 0 Z " fill="#CBCBCB" transform="translate(228.6875,461.9375)"/>
<path d="M0 0 C1.32 0.33 2.64 0.66 4 1 C4 1.66 4 2.32 4 3 C5.32 3.33 6.64 3.66 8 4 C8 4.66 8 5.32 8 6 C8.66 6 9.32 6 10 6 C10.33 7.98 10.66 9.96 11 12 C12.32 12.33 13.64 12.66 15 13 C14.34 13 13.68 13 13 13 C12.67 13.66 12.34 14.32 12 15 C11.01 14.34 10.02 13.68 9 13 C8.8125 9.875 8.8125 9.875 9 7 C8.2575 6.773125 7.515 6.54625 6.75 6.3125 C3.48860409 4.75592468 2.07105025 2.91481146 0 0 Z " fill="#222222" transform="translate(127,468)"/>
<path d="M0 0 C-0.33 1.32 -0.66 2.64 -1 4 C-1.33 3.67 -1.66 3.34 -2 3 C-2.66 4.32 -3.32 5.64 -4 7 C-4.66 7 -5.32 7 -6 7 C-6 5.68 -6 4.36 -6 3 C-8.475 2.01 -8.475 2.01 -11 1 C-7.00609492 -0.99695254 -4.34390483 -1.08597621 0 0 Z " fill="#C5C5C5" transform="translate(158,459)"/>
<path d="M0 0 C1.41377341 2.63904371 2.37240135 5.07120629 3 8 C1.35 8.33 -0.3 8.66 -2 9 C-2 8.01 -2 7.02 -2 6 C-3.65 6 -5.3 6 -7 6 C-7.33 7.32 -7.66 8.64 -8 10 C-8 8.35 -8 6.7 -8 5 C-5.36 5 -2.72 5 0 5 C0 3.35 0 1.7 0 0 Z " fill="#252525" transform="translate(121,300)"/>
<path d="M0 0 C0.33 1.32 0.66 2.64 1 4 C2.65 3.01 4.3 2.02 6 1 C6.33 1.99 6.66 2.98 7 4 C5.5625 6.6875 5.5625 6.6875 4 9 C4.99 9.33 5.98 9.66 7 10 C3 10 3 10 1.25 8.375 C-0.30380397 5.42277246 -0.22432841 3.29014997 0 0 Z " fill="#1A1A1A" transform="translate(286,139)"/>
<path d="M0 0 C-0.99 0 -1.98 0 -3 0 C-3 1.32 -3 2.64 -3 4 C-6 4 -9 4 -12 4 C-5.27272727 -1.63636364 -5.27272727 -1.63636364 0 0 Z " fill="#232323" transform="translate(206,73)"/>
<path d="M0 0 C1.22589844 0.29197266 1.22589844 0.29197266 2.4765625 0.58984375 C3.41628906 0.82380859 3.41628906 0.82380859 4.375 1.0625 C4.705 0.4025 5.035 -0.2575 5.375 -0.9375 C5.375 0.0525 5.375 1.0425 5.375 2.0625 C3.065 2.0625 0.755 2.0625 -1.625 2.0625 C-1.955 3.0525 -2.285 4.0425 -2.625 5.0625 C-2.625 4.0725 -2.625 3.0825 -2.625 2.0625 C-3.945 2.0625 -5.265 2.0625 -6.625 2.0625 C-6.625 1.4025 -6.625 0.7425 -6.625 0.0625 C-3.99249612 -1.25375194 -2.82320944 -0.68563658 0 0 Z " fill="#6E6E6E" transform="translate(191.625,461.9375)"/>
<path d="M0 0 C0.66 0.33 1.32 0.66 2 1 C1.67 3.31 1.34 5.62 1 8 C0.34 8 -0.32 8 -1 8 C-1 7.34 -1 6.68 -1 6 C-1.99 5.67 -2.98 5.34 -4 5 C-2.68 3.35 -1.36 1.7 0 0 Z " fill="#272727" transform="translate(99,329)"/>
<path d="M0 0 C1.32 1.32 2.64 2.64 4 4 C2.25 5.5625 2.25 5.5625 0 7 C-2.25 6.6875 -2.25 6.6875 -4 6 C-3.34 5.01 -2.68 4.02 -2 3 C-1.34 3 -0.68 3 0 3 C0 2.01 0 1.02 0 0 Z " fill="#141414" transform="translate(301,128)"/>
<path d="M0 0 C0.99 0.495 0.99 0.495 2 1 C4.3329866 1.04022391 6.66706666 1.04320247 9 1 C7.68 1.33 6.36 1.66 5 2 C5 2.66 5 3.32 5 4 C5.99 4.33 6.98 4.66 8 5 C5.36 5 2.72 5 0 5 C0 3.35 0 1.7 0 0 Z " fill="#707070" transform="translate(211,475)"/>
<path d="M0 0 C1.4800841 0.11362262 2.95910074 0.24122908 4.4375 0.375 C5.26121094 0.44460938 6.08492187 0.51421875 6.93359375 0.5859375 C7.95646484 0.79089844 7.95646484 0.79089844 9 1 C9.33 1.66 9.66 2.32 10 3 C6.30581799 4.231394 3.7943739 3.64432764 0 3 C0 2.01 0 1.02 0 0 Z " fill="#CACACA" transform="translate(591,294)"/>
<path d="M0 0 C0.66 0 1.32 0 2 0 C3.07421875 5.95703125 3.07421875 5.95703125 3 8 C2.01 8.99 1.02 9.98 0 11 C0 7.37 0 3.74 0 0 Z " fill="#131313" transform="translate(456,277)"/>
<path d="M0 0 C3.0625 0.375 3.0625 0.375 4.9375 2.375 C5.494375 3.365 5.494375 3.365 6.0625 4.375 C-1.36607143 3.375 -1.36607143 3.375 -4.9375 2.375 C-2.9375 0.375 -2.9375 0.375 0 0 Z " fill="#212121" transform="translate(418.9375,304.625)"/>
<path d="M0 0 C-0.33 3.3 -0.66 6.6 -1 10 C-3 9 -3 9 -4.125 5.9375 C-4.41375 4.968125 -4.7025 3.99875 -5 3 C-2.25 0 -2.25 0 0 0 Z " fill="#2D2D2D" transform="translate(324,250)"/>
<path d="M0 0 C0.886875 0.804375 1.77375 1.60875 2.6875 2.4375 C5.38287032 4.7039159 7.42063478 5.68417366 11 6 C11 6.33 11 6.66 11 7 C8.03 7 5.06 7 2 7 C1.34 4.69 0.68 2.38 0 0 Z " fill="#303030" transform="translate(288,121)"/>
<path d="M0 0 C1.32 0.33 2.64 0.66 4 1 C3.69381595 4.67420866 3.24228216 5.78135513 0.4375 8.3125 C-0.366875 8.869375 -1.17125 9.42625 -2 10 C-1.34 8.35 -0.68 6.7 0 5 C0.66 5 1.32 5 2 5 C2 4.34 2 3.68 2 3 C1.34 3 0.68 3 0 3 C0 2.01 0 1.02 0 0 Z " fill="#B1B1B1" transform="translate(154,467)"/>
<path d="M0 0 C0.33 0 0.66 0 1 0 C1 1.98 1 3.96 1 6 C2.32 6.66 3.64 7.32 5 8 C3 9 3 9 -0.125 8.0625 C-1.07375 7.711875 -2.0225 7.36125 -3 7 C-2.67 6.01 -2.34 5.02 -2 4 C-1.34 4 -0.68 4 0 4 C0 2.68 0 1.36 0 0 Z " fill="#0F0F0F" transform="translate(257,468)"/>
<path d="M0 0 C0.33 0.66 0.66 1.32 1 2 C0.67 2.66 0.34 3.32 0 4 C1.98 4 3.96 4 6 4 C6 4.99 6 5.98 6 7 C3.69 6.34 1.38 5.68 -1 5 C-1 1 -1 1 0 0 Z " fill="#3C3C3C" transform="translate(193,78)"/>
<path d="M0 0 C3.3 0 6.6 0 10 0 C10.33 0.66 10.66 1.32 11 2 C8.36 2.33 5.72 2.66 3 3 C3 2.34 3 1.68 3 1 C2.01 0.67 1.02 0.34 0 0 Z " fill="#2F2F2F" transform="translate(575,295)"/>
<path d="M0 0 C0.66 0.33 1.32 0.66 2 1 C1.38511719 1.59748047 1.38511719 1.59748047 0.7578125 2.20703125 C0.21898437 2.73683594 -0.31984375 3.26664063 -0.875 3.8125 C-1.40867188 4.33457031 -1.94234375 4.85664062 -2.4921875 5.39453125 C-4.20776561 7.13259904 -4.20776561 7.13259904 -6 10 C-5.72510809 5.96825194 -5.46508424 4.43105369 -2.4375 1.625 C-1.633125 1.08875 -0.82875 0.5525 0 0 Z " fill="#C9C9C9" transform="translate(192,519)"/>
<path d="M0 0 C-3.85756507 2.15305957 -6.55129785 3.39253254 -11 3 C-11 2.01 -11 1.02 -11 0 C-3.375 -1.125 -3.375 -1.125 0 0 Z " fill="#333333" transform="translate(124,489)"/>
<path d="M0 0 C0 0.99 0 1.98 0 3 C-0.66 3 -1.32 3 -2 3 C-2.33 3.66 -2.66 4.32 -3 5 C-3 4.01 -3 3.02 -3 2 C-3.99 2 -4.98 2 -6 2 C-6 3.98 -6 5.96 -6 8 C-6.33 8 -6.66 8 -7 8 C-7 5.69 -7 3.38 -7 1 C-2.25 0 -2.25 0 0 0 Z " fill="#525252" transform="translate(569,275)"/>
<path d="M0 0 C2 2 2 2 2 5 C3.32 5.33 4.64 5.66 6 6 C6 6.33 6 6.66 6 7 C4.02 7 2.04 7 0 7 C0 4.69 0 2.38 0 0 Z " fill="#585858" transform="translate(199,503)"/>
<path d="M0 0 C1.32 0 2.64 0 4 0 C4 1.65 4 3.3 4 5 C2.68 4.67 1.36 4.34 0 4 C0 2.68 0 1.36 0 0 Z " fill="#CACACA" transform="translate(237,463)"/>
<path d="M0 0 C1.98 0.66 3.96 1.32 6 2 C6 2.99 6 3.98 6 5 C4.68 5.33 3.36 5.66 2 6 C0 3 0 3 0 0 Z " fill="#C5C5C5" transform="translate(135,444)"/>
<path d="M0 0 C2.475 0.495 2.475 0.495 5 1 C3.66666667 3.66666667 2.33333333 6.33333333 1 9 C1.33 6.69 1.66 4.38 2 2 C1.34 2 0.68 2 0 2 C0 1.34 0 0.68 0 0 Z " fill="#515151" transform="translate(140,437)"/>
<path d="M0 0 C1.9375 0.6875 1.9375 0.6875 2.9375 2.6875 C2.0403125 2.3471875 2.0403125 2.3471875 1.125 2 C0.403125 1.896875 -0.31875 1.79375 -1.0625 1.6875 C-2.70844139 3.08338754 -2.70844139 3.08338754 -4.0625 4.6875 C-4.7225 4.6875 -5.3825 4.6875 -6.0625 4.6875 C-3.69287511 -0.55952653 -3.69287511 -0.55952653 0 0 Z " fill="#323232" transform="translate(373.0625,292.3125)"/>
<path d="M0 0 C0 0.66 0 1.32 0 2 C-2.31 2.33 -4.62 2.66 -7 3 C-7.33 2.01 -7.66 1.02 -8 0 C-4.71023192 -1.09658936 -3.28696233 -0.79953138 0 0 Z " fill="#858585" transform="translate(229,463)"/>
<path d="M0 0 C0 3 0 3 -2.5 5.6875 C-3.325 6.450625 -4.15 7.21375 -5 8 C-5.66 7.67 -6.32 7.34 -7 7 C-4.66666667 4.66666667 -2.33333333 2.33333333 0 0 Z " fill="#C9C9C9" transform="translate(629,397)"/>
</svg>
