<?xml version="1.0" encoding="UTF-8"?>
<svg version="1.1" xmlns="http://www.w3.org/2000/svg" width="715" height="588">
<path d="M0 0 C0.99 0 1.98 0 3 0 C6.29880623 3.38561692 8.29237367 6.55459063 10.3125 10.8125 C11.98653228 14.08884197 11.98653228 14.08884197 15.09375 15.796875 C17.55043474 16.14187721 17.55043474 16.14187721 21 16 C19.34615385 20.70710059 19.34615385 20.70710059 17.375 22.375 C15.66954819 24.09861651 15.66954819 24.09861651 15.5 27.5 C15.60879362 31.16088977 15.60879362 31.16088977 18.5 32.9375 C19.325 33.288125 20.15 33.63875 21 34 C20.42655063 36.86724686 20.1385485 37.8614515 18 40 C17.29373761 41.98636298 16.63106429 43.98848259 16 46 C15.34588315 47.67163195 14.68346682 49.34015202 14 51 C13.34 51 12.68 51 12 51 C12.02320313 52.05960938 12.04640625 53.11921875 12.0703125 54.2109375 C12.08906944 55.5989513 12.10726972 56.9869727 12.125 58.375 C12.14175781 59.07367188 12.15851562 59.77234375 12.17578125 60.4921875 C12.19344267 62.32897486 12.10303261 64.16601963 12 66 C11.34 66.66 10.68 67.32 10 68 C10.26468878 69.82923313 10.26468878 69.82923313 11 72 C11.22558594 73.04414063 11.45117188 74.08828125 11.68359375 75.1640625 C12.05677734 76.87722656 12.05677734 76.87722656 12.4375 78.625 C12.80681641 80.34589844 12.80681641 80.34589844 13.18359375 82.1015625 C13.77293183 85.09887222 13.77293183 85.09887222 16 87 C16 87.99 16 88.98 16 90 C14.35 90 12.7 90 11 90 C12.26974972 94.41522109 12.26974972 94.41522109 15 98 C15.1875 101.0625 15.1875 101.0625 15 104 C14.67 104.33 14.34 104.66 14 105 C13.63239269 107.32817964 13.29758419 109.6618385 13 112 C14.32 112 15.64 112 17 112 C18.6328125 114.15234375 18.6328125 114.15234375 20.125 116.9375 C21.90322358 120.63423076 21.90322358 120.63423076 25 123 C25.28875 124.051875 25.5775 125.10375 25.875 126.1875 C27.03861262 130.13085389 28.59726609 132.69624088 31 136 C33 139 33 139 32.625 141.1875 C32.41875 141.785625 32.2125 142.38375 32 143 C30.68 143 29.36 143 28 143 C29.49086283 148.76004105 29.49086283 148.76004105 33.625 152.5 C36 154 36 154 36.54296875 155.94921875 C36.78478965 157.95738362 36.90064439 159.97976933 37 162 C35.35 162 33.7 162 32 162 C31.67 167.61 31.34 173.22 31 179 C28.36 178.67 25.72 178.34 23 178 C22.34 178.99 21.68 179.98 21 181 C18.3984375 181.29296875 18.3984375 181.29296875 15.375 181.1875 C14.37210938 181.16042969 13.36921875 181.13335937 12.3359375 181.10546875 C11.56507813 181.07066406 10.79421875 181.03585938 10 181 C10.433125 182.134375 10.86625 183.26875 11.3125 184.4375 C11.87655329 185.95775793 12.43896201 187.47862672 13 189 C13.28617188 189.75539063 13.57234375 190.51078125 13.8671875 191.2890625 C15.59816221 196.08633527 16.32541313 199.90186104 16 205 C16.99 205.33 17.98 205.66 19 206 C19.33 211.94 19.66 217.88 20 224 C20.99 224.33 21.98 224.66 23 225 C22.649375 225.495 22.29875 225.99 21.9375 226.5 C20.53988399 230.22697603 21.34967141 233.09802848 22 237 C17.62689805 240.03687636 17.62689805 240.03687636 14.875 239.875 C13 239 13 239 11.6875 237.5 C9.97959335 235.70277576 9.97959335 235.70277576 6.875 235.5625 C2.77502015 234.96734163 -0.19332946 233.7218728 -3.88671875 231.9375 C-7.47428563 230.3459731 -9.19415806 229.73138602 -13 231 C-14.39439664 231.06665376 -15.79169875 231.08538199 -17.1875 231.0625 C-18.445625 231.041875 -19.70375 231.02125 -21 231 C-20.53871148 235.92041089 -18.65824258 240.62883923 -15 244 C-11.57098637 244.68685135 -8.44856179 244.48212903 -5 244 C-5 245.98 -5 247.96 -5 250 C-5.99 250.33 -6.98 250.66 -8 251 C-8 252.98 -8 254.96 -8 257 C-6.35 257.33 -4.7 257.66 -3 258 C-3.01740234 259.57201172 -3.01740234 259.57201172 -3.03515625 261.17578125 C-3.04453655 262.55468572 -3.0536365 263.93359211 -3.0625 265.3125 C-3.07087891 266.00279297 -3.07925781 266.69308594 -3.08789062 267.40429688 C-3.10307906 270.5483025 -3.00193327 272.99420019 -2 276 C0.31 276 2.62 276 5 276 C5 277.65 5 279.3 5 281 C7.64 281 10.28 281 13 281 C13 281.99 13 282.98 13 284 C11.88625 284.0825 10.7725 284.165 9.625 284.25 C8.42875 284.4975 7.2325 284.745 6 285 C4.73990208 286.97742781 4.73990208 286.97742781 4 289 C2.83082031 288.97679687 1.66164063 288.95359375 0.45703125 288.9296875 C-1.09113942 288.91092179 -2.63931703 288.89272245 -4.1875 288.875 C-4.95642578 288.85824219 -5.72535156 288.84148437 -6.51757812 288.82421875 C-10.84126626 288.78710555 -14.04624122 289.04841888 -18 291 C-18.99 291.33 -19.98 291.66 -21 292 C-21.99 291.34 -22.98 290.68 -24 290 C-26.11029648 289.58093926 -26.11029648 289.58093926 -28.375 289.4375 C-31.64360612 289.13889977 -34.79242599 288.72429091 -38 288 C-38.33 289.98 -38.66 291.96 -39 294 C-38.34 294 -37.68 294 -37 294 C-36.34 292.68 -35.68 291.36 -35 290 C-34.34 290 -33.68 290 -33 290 C-33 291.65 -33 293.3 -33 295 C-32.01 295 -31.02 295 -30 295 C-30 295.66 -30 296.32 -30 297 C-26.95613276 297.08226668 -24.92824652 296.97608217 -22 296 C-22.33 298.31 -22.66 300.62 -23 303 C-22.01 303 -21.02 303 -20 303 C-20.33 303.99 -20.66 304.98 -21 306 C-21.66 306 -22.32 306 -23 306 C-22.9690625 307.7015625 -22.9690625 307.7015625 -22.9375 309.4375 C-23 313 -23 313 -24 314 C-26.28684338 314.2819396 -28.57363273 314.44777005 -30.87109375 314.62109375 C-33.20927403 314.82776636 -33.20927403 314.82776636 -35 317 C-35.99 317 -36.98 317 -38 317 C-38.33 316.01 -38.66 315.02 -39 314 C-41.15001786 312.78510765 -41.15001786 312.78510765 -43.75 311.875 C-44.61109375 311.54242188 -45.4721875 311.20984375 -46.359375 310.8671875 C-48.89699457 310.03382723 -51.37209246 309.46319234 -54 309 C-54 308.34 -54 307.68 -54 307 C-54.55816406 307.16242188 -55.11632812 307.32484375 -55.69140625 307.4921875 C-61.24500276 308.71379079 -67.51693163 308.46215157 -73 307 C-73 306.34 -73 305.68 -73 305 C-77.29 305.33 -81.58 305.66 -86 306 C-86.680625 307.60875 -86.680625 307.60875 -87.375 309.25 C-88.49030893 311.88618474 -89.70179868 314.4487522 -91 317 C-91.886875 316.05125 -92.77375 315.1025 -93.6875 314.125 C-102.93020282 304.93797611 -113.53932079 298.0740197 -125 292 C-125.9796875 291.47792969 -126.959375 290.95585937 -127.96875 290.41796875 C-131.28331584 288.86746952 -134.55030004 287.77423241 -138.0625 286.75 C-139.24972656 286.39421875 -140.43695313 286.0384375 -141.66015625 285.671875 C-145.84150766 284.83071425 -148.35639451 285.03781252 -152.03515625 287.19140625 C-152.70417969 287.64386719 -153.37320312 288.09632813 -154.0625 288.5625 C-159.56994429 291.79998414 -164.78108 291.47352183 -171 291 C-171 291.99 -171 292.98 -171 294 C-171.90621094 294.03738281 -172.81242187 294.07476562 -173.74609375 294.11328125 C-184.30149325 294.36446224 -184.30149325 294.36446224 -194 298 C-195.49459726 300.00760768 -196.64442928 302.04277409 -197.8046875 304.2578125 C-199 306 -199 306 -202.3125 307 C-203.199375 307 -204.08625 307 -205 307 C-205 307.99 -205 308.98 -205 310 C-207.31 310 -209.62 310 -212 310 C-212.61488281 308.60974609 -212.61488281 308.60974609 -213.2421875 307.19140625 C-213.78101563 305.99386719 -214.31984375 304.79632813 -214.875 303.5625 C-215.40867187 302.36753906 -215.94234375 301.17257812 -216.4921875 299.94140625 C-217.67727235 296.91472369 -217.67727235 296.91472369 -220 296 C-219.505 297.11375 -219.01 298.2275 -218.5 299.375 C-216.70649323 304.28764899 -215.97779125 308.82506818 -217 314 C-218.33521604 316.57505951 -219.82498233 318.79093443 -221.58984375 321.08984375 C-223.9481547 324.28434251 -224.15855103 327.08728708 -224.1875 330.9375 C-224.20167969 331.79214844 -224.21585937 332.64679688 -224.23046875 333.52734375 C-223.98703556 336.13909303 -223.3178268 337.75500652 -222 340 C-224.64 340.33 -227.28 340.66 -230 341 C-230.33 344.3 -230.66 347.6 -231 351 C-228.03 351.33 -225.06 351.66 -222 352 C-222.474375 352.680625 -222.94875 353.36125 -223.4375 354.0625 C-225.2225636 357.41841956 -225.63153086 360.24161481 -226 364 C-226.9075 364.28875 -227.815 364.5775 -228.75 364.875 C-231.8776777 365.87195406 -231.8776777 365.87195406 -234.1875 367.125 C-236 368 -236 368 -239 368 C-242.52888584 374.44985438 -243.31545811 381.74446344 -243 389 C-244.6396875 389.4640625 -244.6396875 389.4640625 -246.3125 389.9375 C-248.55407994 390.58337897 -250.7869351 391.2623117 -253 392 C-255.36522558 391.07796291 -257.70401807 390.08301035 -260 389 C-260 389.66 -260 390.32 -260 391 C-262.25 391.25 -262.25 391.25 -265 391 C-267.125 389.1875 -267.125 389.1875 -269 387 C-269.556875 386.5875 -270.11375 386.175 -270.6875 385.75 C-272.87892632 382.82809824 -272.70593486 379.5875947 -273 376 C-273.556875 375.87625 -274.11375 375.7525 -274.6875 375.625 C-277.22114364 374.94023145 -279.57921032 374.00866237 -282 373 C-282 372.34 -282 371.68 -282 371 C-284.97 371.33 -287.94 371.66 -291 372 C-291 372.66 -291 373.32 -291 374 C-293.375 374.125 -293.375 374.125 -296 374 C-296.66 373.34 -297.32 372.68 -298 372 C-298 371.01 -298 370.02 -298 369 C-299.98 369 -301.96 369 -304 369 C-304.84454356 365.62182575 -305.10844919 363.32534757 -304 360 C-306.64 359.67 -309.28 359.34 -312 359 C-313.80061392 355.17369543 -314.52812626 352.22501011 -314 348 C-312.0625 345.25 -312.0625 345.25 -310 343 C-309.67 342.34 -309.34 341.68 -309 341 C-309.66 341 -310.32 341 -311 341 C-311.33 342.32 -311.66 343.64 -312 345 C-314 344 -314 344 -315 343 C-314.95875 344.27875 -314.9175 345.5575 -314.875 346.875 C-314.8046875 349.0546875 -314.8046875 349.0546875 -315 351 C-315.66 351.66 -316.32 352.32 -317 353 C-317.99 353 -318.98 353 -320 353 C-320 353.66 -320 354.32 -320 355 C-320.99 355 -321.98 355 -323 355 C-323 355.66 -323 356.32 -323 357 C-322.071875 356.484375 -321.14375 355.96875 -320.1875 355.4375 C-317 354 -317 354 -314 355 C-314 355.99 -314 356.98 -314 358 C-314.66 358.33 -315.32 358.66 -316 359 C-314.35 359.66 -312.7 360.32 -311 361 C-311 361.99 -311 362.98 -311 364 C-311.66 364.33 -312.32 364.66 -313 365 C-313 366.32 -313 367.64 -313 369 C-314.32 369 -315.64 369 -317 369 C-317 368.01 -317 367.02 -317 366 C-317.721875 365.731875 -318.44375 365.46375 -319.1875 365.1875 C-322 364 -322 364 -324.0625 362.4375 C-328.31145687 360.35822323 -332.15338369 360.67699997 -336.8125 360.8125 C-338.13797852 360.83280273 -338.13797852 360.83280273 -339.49023438 360.85351562 C-341.66042023 360.88870783 -343.83029033 360.94251015 -346 361 C-346.33 361.99 -346.66 362.98 -347 364 C-351.01624809 366.67749873 -354.87030637 368.24201064 -359.75 367.6875 C-361.50794647 367.15034969 -363.2561492 366.5812836 -365 366 C-365 366.66 -365 367.32 -365 368 C-368.3 368 -371.6 368 -375 368 C-375.33 368.66 -375.66 369.32 -376 370 C-376.433125 368.5459375 -376.433125 368.5459375 -376.875 367.0625 C-377.64214682 363.89335797 -377.64214682 363.89335797 -380 363 C-380 363.66 -380 364.32 -380 365 C-381.98 365.66 -383.96 366.32 -386 367 C-386 368.98 -386 370.96 -386 373 C-387.32 373.33 -388.64 373.66 -390 374 C-389.91621094 374.61488281 -389.83242188 375.22976563 -389.74609375 375.86328125 C-389.59333984 377.07564453 -389.59333984 377.07564453 -389.4375 378.3125 C-389.33308594 379.11300781 -389.22867188 379.91351563 -389.12109375 380.73828125 C-389 383 -389 383 -390 386 C-390.66 386 -391.32 386 -392 386 C-392.33 386.99 -392.66 387.98 -393 389 C-393.556875 388.649375 -394.11375 388.29875 -394.6875 387.9375 C-397.71248483 386.7111548 -398.92674049 386.90240732 -402 388 C-403.010625 388.845625 -404.02125 389.69125 -405.0625 390.5625 C-408 393 -408 393 -412 393 C-413.96822886 394.96822886 -413.66248381 398.34808709 -414 401 C-414.66 401 -415.32 401 -416 401 C-416.66 402.32 -417.32 403.64 -418 405 C-418.66 405 -419.32 405 -420 405 C-420.66 401.04 -421.32 397.08 -422 393 C-422.99 393 -423.98 393 -425 393 C-424.505 396.465 -424.505 396.465 -424 400 C-424.99 400 -425.98 400 -427 400 C-427 400.66 -427 401.32 -427 402 C-426.01 402 -425.02 402 -424 402 C-424 402.66 -424 403.32 -424 404 C-424.99 404.33 -425.98 404.66 -427 405 C-427.103125 406.11375 -427.20625 407.2275 -427.3125 408.375 C-427.539375 409.57125 -427.76625 410.7675 -428 412 C-428.99 412.66 -429.98 413.32 -431 414 C-430.35546875 414.22429687 -429.7109375 414.44859375 -429.046875 414.6796875 C-427 416 -427 416 -426.390625 418.3828125 C-426.34421875 419.28773438 -426.2978125 420.19265625 -426.25 421.125 C-426.19328125 422.03507812 -426.1365625 422.94515625 -426.078125 423.8828125 C-426.05234375 424.58148438 -426.0265625 425.28015625 -426 426 C-427.32 426.33 -428.64 426.66 -430 427 C-430 428.65 -430 430.3 -430 432 C-432.97 432.33 -435.94 432.66 -439 433 C-439.66 435.64 -440.32 438.28 -441 441 C-442.65 441.33 -444.3 441.66 -446 442 C-446 441.01 -446 440.02 -446 439 C-447.32 439 -448.64 439 -450 439 C-451.30268968 434.65770106 -452.25404941 430.47570351 -453 426 C-453.63501074 422.27581392 -453.63501074 422.27581392 -455 419 C-457.49641128 417.48207356 -457.49641128 417.48207356 -460 417 C-460 416.34 -460 415.68 -460 415 C-461.2375 415.0928125 -461.2375 415.0928125 -462.5 415.1875 C-467.94304712 414.89590819 -472.3270616 412.86992797 -477.125 410.375 C-480.1265687 408.93946714 -482.71108575 408.39153741 -486 408 C-486.144375 408.86625 -486.28875 409.7325 -486.4375 410.625 C-486.95833333 413.75 -487.47916667 416.875 -488 420 C-488.99 420.33 -489.98 420.66 -491 421 C-491 421.66 -491 422.32 -491 423 C-492.72492978 423.53469802 -494.455198 424.05219175 -496.1875 424.5625 C-497.63189453 424.99755859 -497.63189453 424.99755859 -499.10546875 425.44140625 C-502.17886783 426.03451835 -504.03141671 425.93530707 -507 425 C-509.3125 422.9375 -509.3125 422.9375 -511 421 C-510.67 420.01 -510.34 419.02 -510 418 C-509.01 418 -508.02 418 -507 418 C-507.66 414.04 -508.32 410.08 -509 406 C-508.34 406 -507.68 406 -507 406 C-507 405.2575 -507 404.515 -507 403.75 C-505.81530395 400.49208587 -505.18953938 400.28845628 -502.1875 398.8125 C-500.7957902 398.19889436 -499.39987137 397.59475054 -498 397 C-494.63959743 395.44619918 -492.58100887 393.6670425 -490 391 C-486.78548731 389.39274365 -483.56387464 389.94251815 -480 390 C-479.34 391.32 -478.68 392.64 -478 394 C-475.05181069 393.51973152 -475.05181069 393.51973152 -472 392 C-470.55911437 389.71463927 -469.86430792 387.59292376 -469 385 C-466.03 385 -463.06 385 -460 385 C-459.34 383.68 -458.68 382.36 -458 381 C-456.16015625 379.796875 -456.16015625 379.796875 -454.0625 378.75 C-449.31139552 375.99936057 -448.40902059 373.19576341 -447 368 C-445.68 368 -444.36 368 -443 368 C-442.731875 367.401875 -442.46375 366.80375 -442.1875 366.1875 C-441 364 -441 364 -439.375 362.6875 C-437.19981878 360.01795941 -437.88101736 357.33151397 -438 354 C-437.67 353.01 -437.34 352.02 -437 351 C-434.51719223 350.07895841 -432.02350353 349.53897531 -429.4453125 348.94140625 C-426.43740124 347.78340846 -425.66275244 346.73240059 -424 344 C-423.50142674 341.49640263 -423.50142674 341.49640263 -423.48828125 338.796875 C-423.43510742 337.32734375 -423.43510742 337.32734375 -423.38085938 335.828125 C-423.35830078 334.81234375 -423.33574219 333.7965625 -423.3125 332.75 C-423.27833984 331.71875 -423.24417969 330.6875 -423.20898438 329.625 C-423.12661907 327.08344188 -423.05743166 324.54222374 -423 322 C-421.90558594 322.21527344 -420.81117188 322.43054688 -419.68359375 322.65234375 C-418.46800781 322.76707031 -417.25242187 322.88179688 -416 323 C-413.03949126 320.70800597 -413.03949126 320.70800597 -411 318 C-411 318.99 -411 319.98 -411 321 C-410.34 321 -409.68 321 -409 321 C-409.495 317.535 -409.495 317.535 -410 314 C-407.36 314.33 -404.72 314.66 -402 315 C-402 314.34 -402 313.68 -402 313 C-398.7 312.67 -395.4 312.34 -392 312 C-389.59490912 305.10828759 -389.59490912 305.10828759 -388 298 C-386.35 297.67 -384.7 297.34 -383 297 C-383 296.34 -383 295.68 -383 295 C-381.78645005 294.07510999 -380.52739293 293.20950122 -379.25 292.375 C-374.75725044 289.15678932 -373.09394832 286.06037511 -371 281 C-370.34 281 -369.68 281 -369 281 C-369 280.34 -369 279.68 -369 279 C-365.535 277.02 -365.535 277.02 -362 275 C-362.02356567 273.79053711 -362.02356567 273.79053711 -362.04760742 272.55664062 C-362.11031976 268.8711663 -362.1491062 265.18580465 -362.1875 261.5 C-362.21263672 260.2315625 -362.23777344 258.963125 -362.26367188 257.65625 C-362.31889118 250.58817931 -361.84668592 245.45054661 -359 239 C-358.48212142 235.95260659 -358.48212142 235.95260659 -358.375 233.125 C-358.0851735 228.170347 -358.0851735 228.170347 -357 226 C-354.03 226 -351.06 226 -348 226 C-348 226.66 -348 227.32 -348 228 C-347.0925 227.9175 -346.185 227.835 -345.25 227.75 C-341.22635958 228.0595108 -340.75232674 229.24767326 -338 232 C-334.61666008 232.50390169 -332.59225776 232.24557029 -329.4375 230.9375 C-326.6850759 228.74967572 -325.01214307 226.45523067 -323.11328125 223.5234375 C-322 222 -322 222 -320 221 C-318.86649466 218.98330173 -318.86649466 218.98330173 -318 217 C-317.34 217 -316.68 217 -316 217 C-316 217.66 -316 218.32 -316 219 C-315.01 219 -314.02 219 -313 219 C-312.566875 218.34 -312.13375 217.68 -311.6875 217 C-311.130625 216.34 -310.57375 215.68 -310 215 C-306.8125 214.75 -306.8125 214.75 -304 215 C-304 214.34 -304 213.68 -304 213 C-303.01 213 -302.02 213 -301 213 C-302.32 212.34 -303.64 211.68 -305 211 C-305 211.66 -305 212.32 -305 213 C-307.33163378 213.67258667 -309.6652039 214.33847444 -312 215 C-312.78375 215.226875 -313.5675 215.45375 -314.375 215.6875 C-314.91125 215.790625 -315.4475 215.89375 -316 216 C-317 215 -317 215 -317.09765625 212.93359375 C-317.08025391 211.69802734 -317.08025391 211.69802734 -317.0625 210.4375 C-317.05347656 209.61121094 -317.04445313 208.78492188 -317.03515625 207.93359375 C-317.01775391 206.97646484 -317.01775391 206.97646484 -317 206 C-317.99 206 -318.98 206 -320 206 C-320 204.68 -320 203.36 -320 202 C-320.66 202 -321.32 202 -322 202 C-322 201.34 -322 200.68 -322 200 C-320.35 199.67 -318.7 199.34 -317 199 C-316.79029441 194.85906302 -316.79029441 194.85906302 -318 191 C-314.644661 188.76310733 -311.40369426 187.83264459 -307.5625 186.8125 C-306.89412109 186.62236328 -306.22574219 186.43222656 -305.53710938 186.23632812 C-302.0312801 185.29472284 -299.430754 184.64801722 -296 186 C-295.01 186.33 -294.02 186.66 -293 187 C-293 186.34 -293 185.68 -293 185 C-292.21753906 184.93941406 -291.43507813 184.87882813 -290.62890625 184.81640625 C-289.61699219 184.73261719 -288.60507812 184.64882812 -287.5625 184.5625 C-286.55316406 184.48128906 -285.54382813 184.40007812 -284.50390625 184.31640625 C-282.06359221 184.26788532 -282.06359221 184.26788532 -281 183 C-278.04088924 182.62349287 -275.09254194 182.29263896 -272.125 182 C-270.48146139 181.83641295 -268.83821425 181.66986383 -267.1953125 181.5 C-266.46328613 181.4278125 -265.73125977 181.355625 -264.97705078 181.28125 C-262.79395347 181.03101992 -262.79395347 181.03101992 -260 180 C-257.70336914 180.28540039 -257.70336914 180.28540039 -255.03515625 180.84765625 C-254.07029297 181.04037109 -253.10542969 181.23308594 -252.11132812 181.43164062 C-250.08174179 181.85159987 -248.05308309 182.27606795 -246.02539062 182.70507812 C-245.05923828 182.89650391 -244.09308594 183.08792969 -243.09765625 183.28515625 C-241.77519897 183.56178101 -241.77519897 183.56178101 -240.42602539 183.84399414 C-237.60681102 184.02528407 -236.41208198 183.3821829 -234 182 C-228.91406823 181.43489647 -225.55728789 182.8027362 -221 185 C-219.3603125 185.7425 -219.3603125 185.7425 -217.6875 186.5 C-215 188 -215 188 -213 191 C-210.99198595 191.46387239 -210.99198595 191.46387239 -208.67578125 191.3984375 C-207.81146484 191.40230469 -206.94714844 191.40617188 -206.05664062 191.41015625 C-205.15107422 191.39855469 -204.24550781 191.38695312 -203.3125 191.375 C-201.9831543 191.39240234 -201.9831543 191.39240234 -200.62695312 191.41015625 C-194.89961191 191.38472024 -191.14356658 190.45050209 -186 188 C-180.3467902 186.6902904 -174.81373054 187.00807673 -169.046875 187.16015625 C-165.88881876 187.33482859 -165.88881876 187.33482859 -164 185 C-162.68 185 -161.36 185 -160 185 C-159.79029441 180.85906302 -159.79029441 180.85906302 -161 177 C-161.31648391 173.6593365 -161.51128525 170.31782389 -161.71875 166.96875 C-161.81288062 164.0735199 -161.81288062 164.0735199 -163 162 C-161.35 162.33 -159.7 162.66 -158 163 C-158 160.36 -158 157.72 -158 155 C-157.01 155 -156.02 155 -155 155 C-155 153.02 -155 151.04 -155 149 C-153.80375 148.87625 -152.6075 148.7525 -151.375 148.625 C-148.40461447 147.89936979 -147.26221359 147.34182543 -145.37890625 144.88671875 C-144.40076598 143.13985036 -143.44300349 141.38144525 -142.50390625 139.61328125 C-139.59197049 134.55332015 -135.46394411 130.2260513 -130 128 C-128.865625 127.979375 -127.73125 127.95875 -126.5625 127.9375 C-123.01781436 127.37762004 -123.01781436 127.37762004 -121.54296875 125.21875 C-119.44082116 121.50982494 -117.83358615 117.68733418 -116.375 113.6875 C-115.19098723 110.51219303 -114.0859878 108.58265156 -112 106 C-112 105.34 -112 104.68 -112 104 C-112.63421875 103.77570313 -113.2684375 103.55140625 -113.921875 103.3203125 C-116 102 -116 102 -116.828125 99.6171875 C-117.03695312 98.25980469 -117.03695312 98.25980469 -117.25 96.875 C-117.47429687 95.50988281 -117.47429687 95.50988281 -117.703125 94.1171875 C-117.80109375 93.41851562 -117.8990625 92.71984375 -118 92 C-117.34 91.67 -116.68 91.34 -116 91 C-116.144375 90.39671875 -116.28875 89.7934375 -116.4375 89.171875 C-116.623125 88.37265625 -116.80875 87.5734375 -117 86.75 C-117.185625 85.96109375 -117.37125 85.1721875 -117.5625 84.359375 C-118 82 -118 82 -118 78 C-117.34 78 -116.68 78 -116 78 C-116.350625 77.34 -116.70125 76.68 -117.0625 76 C-118.3640593 71.83501025 -117.89741105 69.2799604 -117 65 C-116 64 -115 63 -114 62 C-113.42633939 59.32470425 -113.22435444 56.73712413 -113 54 C-110.16032769 54 -107.76264289 54.40267181 -105 55 C-104.690625 54.0409375 -104.690625 54.0409375 -104.375 53.0625 C-103.694375 52.0415625 -103.694375 52.0415625 -103 51 C-101.00714063 50.62633887 -99.00636471 50.29259485 -97 50 C-96.34 49.01 -95.68 48.02 -95 47 C-92 45.875 -92 45.875 -89 45 C-88.34 44.67 -87.68 44.34 -87 44 C-86.83312552 41.58354218 -86.83312552 41.58354218 -87 39 C-87.66 38.34 -88.32 37.68 -89 37 C-89.165 36.319375 -89.33 35.63875 -89.5 34.9375 C-89.665 34.298125 -89.83 33.65875 -90 33 C-90.66 32.67 -91.32 32.34 -92 32 C-91.85923685 30.0412957 -91.7122324 28.08303907 -91.5625 26.125 C-91.48128906 25.03445312 -91.40007812 23.94390625 -91.31640625 22.8203125 C-91 20 -91 20 -90 18 C-88.0625 18.75 -88.0625 18.75 -86 20 C-85.25 22.125 -85.25 22.125 -85 24 C-81.37886236 22.7427228 -81.37886236 22.7427228 -78.4375 20.375 C-77 19 -77 19 -73 19 C-72.731875 19.63808594 -72.46375 20.27617188 -72.1875 20.93359375 C-70.05585382 25.86131953 -70.05585382 25.86131953 -65.88671875 28.8203125 C-63.44522138 29.13603269 -63.44522138 29.13603269 -60 29 C-59.62875 28.175 -59.2575 27.35 -58.875 26.5 C-58.25625 25.675 -57.6375 24.85 -57 24 C-53.8125 23.6875 -53.8125 23.6875 -51 24 C-51.33 23.34 -51.66 22.68 -52 22 C-52.13415472 19.3276379 -52.04318541 16.67749512 -52 14 C-49.69 14 -47.38 14 -45 14 C-45.33 14.763125 -45.66 15.52625 -46 16.3125 C-47.17436686 18.99069135 -47.17436686 18.99069135 -47 22 C-46.01 21.67 -45.02 21.34 -44 21 C-42.06151583 21.05594471 -40.1238279 21.14283217 -38.1875 21.25 C-33.14097832 21.39859031 -33.14097832 21.39859031 -29.0625 18.5 C-24.77055319 14.99636995 -21.31390664 15.48153258 -15.92578125 15.53125 C-12.70830256 16.0467339 -12.03088362 16.59484477 -10 19 C-9.01 19.33 -8.02 19.66 -7 20 C-8.35580678 14.32870721 -8.35580678 14.32870721 -12 10 C-12 9.34 -12 8.68 -12 8 C-10.7625 7.608125 -9.525 7.21625 -8.25 6.8125 C-4.24111238 5.3418675 -2.52780352 3.46402704 0 0 Z " fill="#020202" transform="translate(635,67)"/>
<path d="M0 0 C2.4375 0.6875 2.4375 0.6875 5 2 C6.55271842 6.06095587 6.21104948 10.70866055 6 15 C5.34 15.66 4.68 16.32 4 17 C3.01 17 2.02 17 1 17 C1 17.66 1 18.32 1 19 C0.01 19 -0.98 19 -2 19 C-2 19.66 -2 20.32 -2 21 C-0.6078125 20.2265625 -0.6078125 20.2265625 0.8125 19.4375 C4 18 4 18 7 19 C7 19.99 7 20.98 7 22 C6.01 22.495 6.01 22.495 5 23 C7.475 23.99 7.475 23.99 10 25 C10 25.99 10 26.98 10 28 C9.01 28.495 9.01 28.495 8 29 C8 30.32 8 31.64 8 33 C6.68 33 5.36 33 4 33 C4 32.01 4 31.02 4 30 C3.278125 29.731875 2.55625 29.46375 1.8125 29.1875 C-1 28 -1 28 -3.0625 26.4375 C-7.31145687 24.35822323 -11.15338369 24.67699997 -15.8125 24.8125 C-16.69615234 24.82603516 -17.57980469 24.83957031 -18.49023438 24.85351562 C-20.66042023 24.88870783 -22.83029033 24.94251015 -25 25 C-25.33 25.99 -25.66 26.98 -26 28 C-29 30 -29 30 -32 30 C-31.8125 27.6875 -31.8125 27.6875 -31 25 C-28.10451959 22.79029126 -26.66842255 22 -23 22 C-22.67 20.35 -22.34 18.7 -22 17 C-21.34 17 -20.68 17 -20 17 C-20 17.66 -20 18.32 -20 19 C-19.360625 18.814375 -18.72125 18.62875 -18.0625 18.4375 C-17.381875 18.293125 -16.70125 18.14875 -16 18 C-15.67 18.33 -15.34 18.66 -15 19 C-14.3503125 17.329375 -14.3503125 17.329375 -13.6875 15.625 C-12 12 -12 12 -9 10 C-5.8125 10.375 -5.8125 10.375 -3 11 C-3.061875 9.9275 -3.12375 8.855 -3.1875 7.75 C-2.99456691 3.89133813 -2.60334924 2.71182212 0 0 Z " fill="#131313" transform="translate(314,403)"/>
<path d="M0 0 C0 0.99 0 1.98 0 3 C1.32 3 2.64 3 4 3 C4.24045528 7.08773982 3.66783878 10.24736275 2 14 C-0.58975241 15.8378888 -1.78481903 16 -5 16 C-5.33 17.32 -5.66 18.64 -6 20 C-7.98 19.67 -9.96 19.34 -12 19 C-12 18.34 -12 17.68 -12 17 C-10.02 16.67 -8.04 16.34 -6 16 C-6 15.01 -6 14.02 -6 13 C-5.34 13 -4.68 13 -4 13 C-4 11.68 -4 10.36 -4 9 C-4.433125 9.495 -4.86625 9.99 -5.3125 10.5 C-7 12 -7 12 -10 12 C-10 9.03 -10 6.06 -10 3 C-2.25 0 -2.25 0 0 0 Z " fill="#D2D2D2" transform="translate(50,504)"/>
<path d="M0 0 C0.66 0 1.32 0 2 0 C2.33 1.98 2.66 3.96 3 6 C5.64 6.66 8.28 7.32 11 8 C10.67 8.99 10.34 9.98 10 11 C7.69 11 5.38 11 3 11 C3.350625 11.61875 3.70125 12.2375 4.0625 12.875 C4.371875 13.57625 4.68125 14.2775 5 15 C4.67 15.66 4.34 16.32 4 17 C0.21388773 16.45912682 -1.55400767 14.88277668 -4 12 C-4 11.34 -4 10.68 -4 10 C-4.928125 9.566875 -4.928125 9.566875 -5.875 9.125 C-8 8 -8 8 -10 6 C-9.625 3.875 -9.625 3.875 -9 2 C-6 2 -6 2 -3.3125 4.5 C-2.549375 5.325 -1.78625 6.15 -1 7 C-1.020625 6.030625 -1.04125 5.06125 -1.0625 4.0625 C-1 1 -1 1 0 0 Z " fill="#0D0D0D" transform="translate(613,104)"/>
<path d="M0 0 C2.22972273 0.11465421 4.45878753 0.24214766 6.6875 0.375 C7.92886719 0.44460938 9.17023437 0.51421875 10.44921875 0.5859375 C13.70972141 0.96615013 16.0052269 1.75930829 19 3 C21.2857711 2.23396041 21.2857711 2.23396041 23 1 C21.76302083 2.46484375 20.52604167 3.9296875 19.2890625 5.39453125 C18.10798901 6.8655046 17.04641471 8.43037794 16 10 C16 9.34 16 8.68 16 8 C15.236875 8.350625 14.47375 8.70125 13.6875 9.0625 C11 10 11 10 8 9 C8 8.34 8 7.68 8 7 C7.01 7 6.02 7 5 7 C5 5.35 5 3.7 5 2 C4.071875 2.99 4.071875 2.99 3.125 4 C1 6 1 6 -1 6 C-0.67 4.02 -0.34 2.04 0 0 Z " fill="#EAEAEA" transform="translate(597,355)"/>
<path d="M0 0 C2.97 0 5.94 0 9 0 C9.375 2.6875 9.375 2.6875 9 6 C7.19095883 8.2225363 5.43971575 9.37352284 3 11 C2.01 11 1.02 11 0 11 C0.33 11.99 0.66 12.98 1 14 C0.01 14.66 -0.98 15.32 -2 16 C-1.85936865 13.70800823 -1.71234057 11.41640814 -1.5625 9.125 C-1.48128906 7.84882813 -1.40007812 6.57265625 -1.31640625 5.2578125 C-1 2 -1 2 0 0 Z " fill="#202020" transform="translate(278,293)"/>
<path d="M0 0 C0.2475 0.5775 0.495 1.155 0.75 1.75 C1.88395631 4.14048839 1.88395631 4.14048839 4.1875 5.6875 C6.65218213 8.83209444 6.25373558 10.82830525 5.9453125 14.68359375 C4.50565269 18.21135518 2.01738932 19.71885367 -1 22 C-1.22333047 19.45886142 -1.42902091 16.91827416 -1.625 14.375 C-1.68945312 13.66214844 -1.75390625 12.94929688 -1.8203125 12.21484375 C-2.15497142 7.65511601 -1.78239103 4.31311418 0 0 Z " fill="#D5D5D5" transform="translate(547,374)"/>
<path d="M0 0 C2 1 2 1 4 4 C4.33 3.01 4.66 2.02 5 1 C5.66 1 6.32 1 7 1 C5.92598892 3.91517292 5.22189824 5.77810176 3 8 C2.74436449 11.83453269 3.12183503 15.26779887 4 19 C6.64 19 9.28 19 12 19 C12.33 19.66 12.66 20.32 13 21 C12.34 21.99 11.68 22.98 11 24 C11 22.68 11 21.36 11 20 C9.05925139 20.27617533 9.05925139 20.27617533 7 21 C6.34 21.99 5.68 22.98 5 24 C5 23.01 5 22.02 5 21 C3.02 20.67 1.04 20.34 -1 20 C-0.67 19.34 -0.34 18.68 0 18 C0.66 18 1.32 18 2 18 C1.67 17.01 1.34 16.02 1 15 C-0.1446875 15.495 -0.1446875 15.495 -1.3125 16 C-4 17 -4 17 -7 17 C-7 16.34 -7 15.68 -7 15 C-6.01 15 -5.02 15 -4 15 C-4 14.34 -4 13.68 -4 13 C-2.68 12.34 -1.36 11.68 0 11 C0 7.37 0 3.74 0 0 Z " fill="#9E9E9E" transform="translate(319,407)"/>
<path d="M0 0 C0.33 0.66 0.66 1.32 1 2 C2.32 1.67 3.64 1.34 5 1 C5.309375 2.423125 5.309375 2.423125 5.625 3.875 C6.70833333 7.29166667 6.70833333 7.29166667 10.125 8.375 C11.07375 8.58125 12.0225 8.7875 13 9 C12.34 10.65 11.68 12.3 11 14 C8.97954558 13.39816251 6.97888961 12.72693904 5 12 C4.67 11.34 4.34 10.68 4 10 C2.7625 9.62875 2.7625 9.62875 1.5 9.25 C0.675 8.8375 -0.15 8.425 -1 8 C-1.9375 5 -1.9375 5 -2 2 C-1.34 1.34 -0.68 0.68 0 0 Z " fill="#0E0E0E" transform="translate(622,246)"/>
<path d="M0 0 C1.65 0.33 3.3 0.66 5 1 C4.67 2.32 4.34 3.64 4 5 C2.35 5.33 0.7 5.66 -1 6 C-1.33 7.32 -1.66 8.64 -2 10 C-4.97 9.505 -4.97 9.505 -8 9 C-8 8.34 -8 7.68 -8 7 C-6.02 6.67 -4.04 6.34 -2 6 C-2 5.01 -2 4.02 -2 3 C-1.34 3 -0.68 3 0 3 C0 2.01 0 1.02 0 0 Z " fill="#9A9A9A" transform="translate(46,514)"/>
<path d="M0 0 C3.44423553 1.14807851 3.67318434 1.59858872 5.25 4.6875 C7.04804786 8.46748698 7.22776314 10.90745621 6 15 C5.34 15 4.68 15 4 15 C3.67 15.66 3.34 16.32 3 17 C2.86722656 16.10796875 2.73445313 15.2159375 2.59765625 14.296875 C2.42105469 13.12640625 2.24445313 11.9559375 2.0625 10.75 C1.88847656 9.58984375 1.71445312 8.4296875 1.53515625 7.234375 C1.1272264 4.76893039 0.66098697 2.40575438 0 0 Z " fill="#B9B9B9" transform="translate(415,363)"/>
<path d="M0 0 C0.99 0 1.98 0 3 0 C3.2226746 1.43534841 3.42761906 2.87345525 3.625 4.3125 C3.74101562 5.11300781 3.85703125 5.91351563 3.9765625 6.73828125 C4 9 4 9 2 12 C1.01 12 0.02 12 -1 12 C-1 12.66 -1 13.32 -1 14 C-1.66 14 -2.32 14 -3 14 C-2.67 13.01 -2.34 12.02 -2 11 C-1.01 11 -0.02 11 1 11 C1 10.34 1 9.68 1 9 C0.01 9 -0.98 9 -2 9 C-2 8.34 -2 7.68 -2 7 C-1.01 7 -0.02 7 1 7 C0.67 4.69 0.34 2.38 0 0 Z " fill="#BBBBBB" transform="translate(210,460)"/>
<path d="M0 0 C2.0625 0.4375 2.0625 0.4375 4 1 C3.1875 3.4375 3.1875 3.4375 2 6 C1.01 6.33 0.02 6.66 -1 7 C-0.67 8.32 -0.34 9.64 0 11 C-0.99 10.67 -1.98 10.34 -3 10 C-2.67 8.02 -2.34 6.04 -2 4 C-3.32 3.67 -4.64 3.34 -6 3 C-5.195625 2.690625 -4.39125 2.38125 -3.5625 2.0625 C-1.10919595 1.23664655 -1.10919595 1.23664655 0 0 Z " fill="#494949" transform="translate(471,252)"/>
<path d="M0 0 C2.64 0.66 5.28 1.32 8 2 C8.13277344 2.62648438 8.26554687 3.25296875 8.40234375 3.8984375 C8.57894531 4.71570313 8.75554687 5.53296875 8.9375 6.375 C9.11152344 7.18710937 9.28554688 7.99921875 9.46484375 8.8359375 C9.92330693 11.029463 9.92330693 11.029463 11 13 C10.01 13.99 9.02 14.98 8 16 C8 14.02 8 12.04 8 10 C7.34 10 6.68 10 6 10 C5.938125 9.236875 5.87625 8.47375 5.8125 7.6875 C4.7452344 4.15731377 3.1524958 3.69749774 0 2 C0 1.34 0 0.68 0 0 Z " fill="#363636" transform="translate(393,418)"/>
<path d="M0 0 C3.35595828 0.59927826 5.37801226 1.84622436 8 4 C3.25 3.125 3.25 3.125 1 2 C1 2.66 1 3.32 1 4 C-1.31 4.66 -3.62 5.32 -6 6 C-6.33 7.65 -6.66 9.3 -7 11 C-7.33 10.01 -7.66 9.02 -8 8 C-8.99 7.67 -9.98 7.34 -11 7 C-8.48169253 3.87729874 -7.2738451 3.05476902 -3.25 2.25 C-1.64125 2.12625 -1.64125 2.12625 0 2 C0 1.34 0 0.68 0 0 Z " fill="#909090" transform="translate(330,278)"/>
<path d="M0 0 C2.475 0.495 2.475 0.495 5 1 C5.3125 3.1875 5.3125 3.1875 5 6 C2.5 8.8125 2.5 8.8125 0 11 C0 7.37 0 3.74 0 0 Z " fill="#292929" transform="translate(546,385)"/>
<path d="M0 0 C0.98484375 0.11988281 1.9696875 0.23976563 2.984375 0.36328125 C3.73203125 0.47027344 4.4796875 0.57726562 5.25 0.6875 C5.25 1.0175 5.25 1.3475 5.25 1.6875 C0.795 2.1825 0.795 2.1825 -3.75 2.6875 C-4.08 3.6775 -4.41 4.6675 -4.75 5.6875 C-7.75 7.6875 -7.75 7.6875 -10.75 7.6875 C-10.43151178 4.74148395 -10.19141246 3.12891246 -8.0625 1 C-5.07448513 -0.69590033 -3.37387454 -0.4418169 0 0 Z " fill="#222222" transform="translate(292.75,425.3125)"/>
<path d="M0 0 C0.33 0.66 0.66 1.32 1 2 C1.99 2.33 2.98 2.66 4 3 C4 4.32 4 5.64 4 7 C3.01 7.495 3.01 7.495 2 8 C1.67 8.99 1.34 9.98 1 11 C0.34 11 -0.32 11 -1 11 C-1 11.66 -1 12.32 -1 13 C-2.65 13 -4.3 13 -6 13 C-6.33 12.34 -6.66 11.68 -7 11 C-4.525 11.495 -4.525 11.495 -2 12 C-1.34 8.04 -0.68 4.08 0 0 Z " fill="#656565" transform="translate(376,445)"/>
<path d="M0 0 C-4.625 5.875 -4.625 5.875 -8 7 C-8 5.68 -8 4.36 -8 3 C-8.66 2.34 -9.32 1.68 -10 1 C-8.71073008 0.63720544 -7.41846728 0.28503302 -6.125 -0.0625 C-5.40570313 -0.25972656 -4.68640625 -0.45695313 -3.9453125 -0.66015625 C-2 -1 -2 -1 0 0 Z " fill="#1A1A1A" transform="translate(330,255)"/>
<path d="M0 0 C0.66 1.32 1.32 2.64 2 4 C2.33 3.01 2.66 2.02 3 1 C5.0625 0.3125 5.0625 0.3125 7 0 C7 1.65 7 3.3 7 5 C6.34 5 5.68 5 5 5 C4.34 6.32 3.68 7.64 3 9 C2.34 9 1.68 9 1 9 C0.67 6.03 0.34 3.06 0 0 Z " fill="#404040" transform="translate(214,463)"/>
<path d="M0 0 C1.98 0.99 1.98 0.99 4 2 C4 5.3 4 8.6 4 12 C5.65 12 7.3 12 9 12 C9 12.33 9 12.66 9 13 C6.36 13 3.72 13 1 13 C1.20625 12.34 1.4125 11.68 1.625 11 C2.13703763 6.90369892 1.14033701 3.95764021 0 0 Z " fill="#4A4A4A" transform="translate(261,422)"/>
<path d="M0 0 C2 1 2 1 4 4 C4.33 3.01 4.66 2.02 5 1 C5.66 1 6.32 1 7 1 C5.7580393 4.43927579 4.44259716 7.25207819 2 10 C1.34 10 0.68 10 0 10 C0 6.7 0 3.4 0 0 Z " fill="#9D9D9D" transform="translate(319,407)"/>
<path d="M0 0 C0.39832031 0.48082031 0.79664063 0.96164062 1.20703125 1.45703125 C3.43450247 3.37391825 4.78834669 3.47741643 7.6875 3.6875 C8.49574219 3.75324219 9.30398437 3.81898438 10.13671875 3.88671875 C10.75160156 3.92410156 11.36648437 3.96148437 12 4 C12 4.66 12 5.32 12 6 C8.37 6 4.74 6 1 6 C0.67 4.02 0.34 2.04 0 0 Z " fill="#646464" transform="translate(225,388)"/>
<path d="M0 0 C2.64 0.33 5.28 0.66 8 1 C7.01 1.495 7.01 1.495 6 2 C5.34786708 4.02463255 5.34786708 4.02463255 5 6 C5 4.68 5 3.36 5 2 C4.071875 2.99 4.071875 2.99 3.125 4 C1 6 1 6 -1 6 C-0.67 4.02 -0.34 2.04 0 0 Z " fill="#B7B7B7" transform="translate(597,355)"/>
<path d="M0 0 C2.97 0.495 2.97 0.495 6 1 C5.01 1.33 4.02 1.66 3 2 C3.33 4.31 3.66 6.62 4 9 C3.01 9 2.02 9 1 9 C0.67 9.66 0.34 10.32 0 11 C0 10.34 0 9.68 0 9 C-0.66 8.67 -1.32 8.34 -2 8 C-0.68 8 0.64 8 2 8 C1.34 5.36 0.68 2.72 0 0 Z " fill="#414141" transform="translate(207,458)"/>
<path d="M0 0 C0.66 0.33 1.32 0.66 2 1 C1.21625 1.763125 0.4325 2.52625 -0.375 3.3125 C-3.07257717 5.90891805 -3.07257717 5.90891805 -5 9 C-5 8.34 -5 7.68 -5 7 C-5.66 7 -6.32 7 -7 7 C-6.25 4.5625 -6.25 4.5625 -5 2 C-2.9375 1.25 -2.9375 1.25 -1 1 C-0.67 0.67 -0.34 0.34 0 0 Z " fill="#C5C5C5" transform="translate(618,356)"/>
<path d="M0 0 C2.00720923 0.28674418 4.0085944 0.61866701 6 1 C5.01 2.485 5.01 2.485 4 4 C1.375 4.1875 1.375 4.1875 -1 4 C-1 1 -1 1 0 0 Z " fill="#0D0D0D" transform="translate(474,256)"/>
<path d="M0 0 C1.32 0.33 2.64 0.66 4 1 C3.6875 2.9375 3.6875 2.9375 3 5 C2.01 5.33 1.02 5.66 0 6 C0 4.02 0 2.04 0 0 Z " fill="#191919" transform="translate(47,514)"/>
<path d="M0 0 C1.32 0.33 2.64 0.66 4 1 C4.33 2.32 4.66 3.64 5 5 C3.33333333 5 1.66666667 5 0 5 C0 3.35 0 1.7 0 0 Z " fill="#444444" transform="translate(40,507)"/>
<path d="M0 0 C0 1.32 0 2.64 0 4 C0.66 4.33 1.32 4.66 2 5 C-0.3431213 4.74438677 -2.67843403 4.40729228 -5 4 C-5.33 3.34 -5.66 2.68 -6 2 C-2.25 0 -2.25 0 0 0 Z " fill="#848484" transform="translate(50,504)"/>
<path d="M0 0 C2.64 0 5.28 0 8 0 C8.33 0.66 8.66 1.32 9 2 C8.01 3.485 8.01 3.485 7 5 C7 3.68 7 2.36 7 1 C5.05925139 1.27617533 5.05925139 1.27617533 3 2 C2.01 3.485 2.01 3.485 1 5 C0.67 3.35 0.34 1.7 0 0 Z " fill="#5B5B5B" transform="translate(323,426)"/>
<path d="M0 0 C0.33 0.66 0.66 1.32 1 2 C1.66 2.33 2.32 2.66 3 3 C2.01 4.485 2.01 4.485 1 6 C0.01 6 -0.98 6 -2 6 C-1.125 1.125 -1.125 1.125 0 0 Z " fill="#BDBDBD" transform="translate(42,510)"/>
<path d="M0 0 C0.33 0.66 0.66 1.32 1 2 C0.071875 2.45375 -0.85625 2.9075 -1.8125 3.375 C-5.03921389 4.9421633 -5.03921389 4.9421633 -8 7 C-7.9375 5.1875 -7.9375 5.1875 -7 3 C-3.4375 1.25 -3.4375 1.25 0 0 Z " fill="#4A4A4A" transform="translate(136,465)"/>
<path d="M0 0 C0.99 0 1.98 0 3 0 C3.33 2.31 3.66 4.62 4 7 C3.34 6.67 2.68 6.34 2 6 C2 5.34 2 4.68 2 4 C1.34 4 0.68 4 0 4 C0 2.68 0 1.36 0 0 Z " fill="#E6E6E6" transform="translate(210,460)"/>
<path d="M0 0 C0.99 0 1.98 0 3 0 C1.95125002 2.62187494 1.35068687 3.79371361 -1.125 5.25 C-1.74375 5.4975 -2.3625 5.745 -3 6 C-2 4 -1 2 0 0 Z " fill="#C1C1C1" transform="translate(396,435)"/>
<path d="M0 0 C2.64 0.66 5.28 1.32 8 2 C8 2.66 8 3.32 8 4 C6.02 4 4.04 4 2 4 C1.34 2.68 0.68 1.36 0 0 Z " fill="#616161" transform="translate(393,418)"/>
<path d="M0 0 C0.99 0.33 1.98 0.66 3 1 C3.625 3.375 3.625 3.375 4 6 C3.34 6.66 2.68 7.32 2 8 C0.74335022 5.09399739 0 3.20395416 0 0 Z " fill="#D0D0D0" transform="translate(415,363)"/>
<path d="M0 0 C-1.0625 1.5625 -1.0625 1.5625 -3 3 C-6.6875 2.6875 -6.6875 2.6875 -10 2 C-6.3558226 -0.4294516 -4.28758728 -0.16179575 0 0 Z " fill="#5F5F5F" transform="translate(627,295)"/>
<path d="M0 0 C0.99 0.33 1.98 0.66 3 1 C2.67 2.32 2.34 3.64 2 5 C1.01 5 0.02 5 -1 5 C-0.67 3.35 -0.34 1.7 0 0 Z " fill="#040404" transform="translate(279,295)"/>
<path d="M0 0 C1.98 0 3.96 0 6 0 C4.60203108 2.79593783 2.86525011 2.95173777 0 4 C-0.99 4.495 -0.99 4.495 -2 5 C-1.34 3.35 -0.68 1.7 0 0 Z " fill="#424242" transform="translate(578,91)"/>
</svg>
