<?xml version="1.0" encoding="UTF-8"?>
<svg version="1.1" xmlns="http://www.w3.org/2000/svg" width="601" height="705">
<path d="M0 0 C1.05960937 0.07831055 1.05960937 0.07831055 2.140625 0.15820312 C3.88579987 0.28791207 5.63045725 0.42454954 7.375 0.5625 C7.375 1.5525 7.375 2.5425 7.375 3.5625 C7.94347656 3.47871094 8.51195312 3.39492188 9.09765625 3.30859375 C14.02108403 2.6592602 18.54344383 2.11303315 23.375 3.5625 C26.84509718 8.15198337 26.54931057 12.07171704 26.375 17.5625 C26.80854565 20.40965499 26.80854565 20.40965499 27.375 22.5625 C29.025 22.5625 30.675 22.5625 32.375 22.5625 C36.96725513 31.97252278 36.96725513 31.97252278 36.375 36.5625 C37.365 36.8925 38.355 37.2225 39.375 37.5625 C39.045 39.5425 38.715 41.5225 38.375 43.5625 C39.79305831 43.27767632 41.20940379 42.98431856 42.625 42.6875 C43.41390625 42.52507813 44.2028125 42.36265625 45.015625 42.1953125 C48.5698507 41.2420268 50.78278084 40.3597181 53 37.375 C55.87057168 35.18430056 56.74343187 35.37778814 60.25 35.6875 C64.1285529 36.24403792 67.71847677 37.11913557 71.375 38.5625 C71.375 39.2225 71.375 39.8825 71.375 40.5625 C70.04166667 41.89583333 68.70833333 43.22916667 67.375 44.5625 C65.33278319 47.43673106 64.41424525 49.08174565 64.125 52.625 C63.375 55.5625 63.375 55.5625 61.90234375 56.76171875 C60.09292297 57.79512467 58.27173605 58.70110022 56.375 59.5625 C55.570625 59.975 54.76625 60.3875 53.9375 60.8125 C53.421875 61.06 52.90625 61.3075 52.375 61.5625 C52.375 62.2225 52.375 62.8825 52.375 63.5625 C51.055 63.8925 49.735 64.2225 48.375 64.5625 C48.705 65.2225 49.035 65.8825 49.375 66.5625 C50.35726562 65.81419922 50.35726562 65.81419922 51.359375 65.05078125 C55.22871875 63.14116989 58.44844396 63.47703747 62.625 63.75 C70.39380641 64.00967466 74.37347603 62.61703794 80.375 57.5625 C85.32418417 54.3434508 89.26864516 51.77963399 95.375 52.5625 C95.375 51.9025 95.375 51.2425 95.375 50.5625 C99.36646487 47.38319424 103.31781943 45.32873948 108.375 44.5625 C108.705 43.9025 109.035 43.2425 109.375 42.5625 C110.365 42.5625 111.355 42.5625 112.375 42.5625 C111.70863451 38.44801359 111.70863451 38.44801359 110.375 34.5625 C107.40674102 32.49217119 107.40674102 32.49217119 104.375 31.5625 C104.705 30.2425 105.035 28.9225 105.375 27.5625 C108.39919525 28.15053797 111.39258453 28.78928118 114.375 29.5625 C114.705 31.2125 115.035 32.8625 115.375 34.5625 C116.06207031 34.38332031 116.74914062 34.20414063 117.45703125 34.01953125 C118.35808594 33.80683594 119.25914062 33.59414063 120.1875 33.375 C121.52748047 33.04435547 121.52748047 33.04435547 122.89453125 32.70703125 C125.375 32.5625 125.375 32.5625 127.0390625 33.95703125 C127.47992188 34.48683594 127.92078125 35.01664063 128.375 35.5625 C129.220625 35.85125 130.06625 36.14 130.9375 36.4375 C133.375 37.5625 133.375 37.5625 134.5625 40.125 C134.9646875 41.3315625 134.9646875 41.3315625 135.375 42.5625 C142.34700503 46.04850252 154.63824679 45.84551773 161.99609375 43.85253906 C167.06299872 41.90482079 171.68236391 39.26917406 176.375 36.5625 C177.81166016 35.99982422 177.81166016 35.99982422 179.27734375 35.42578125 C181.55056086 34.75881329 181.55056086 34.75881329 182.375 32.5625 C184.16015625 32.0703125 184.16015625 32.0703125 186.4375 31.6875 C190.51820967 30.87006054 193.81311501 29.55361657 197.453125 27.5625 C202.26346978 25.05955638 206.24855935 24.24248733 211.6875 23.9375 C212.94175781 23.86273438 214.19601562 23.78796875 215.48828125 23.7109375 C216.44089844 23.66195312 217.39351563 23.61296875 218.375 23.5625 C218.56835938 24.11679687 218.76171875 24.67109375 218.9609375 25.2421875 C219.22132813 25.96664062 219.48171875 26.69109375 219.75 27.4375 C220.00523437 28.15679687 220.26046875 28.87609375 220.5234375 29.6171875 C221.31377783 31.74407994 221.31377783 31.74407994 223.375 33.5625 C224.07625 33.81 224.7775 34.0575 225.5 34.3125 C228.87291374 35.77898423 231.43015338 37.73888548 234.32421875 39.984375 C236.20071894 41.42838657 238.11274404 42.78268435 240.0625 44.125 C243.16290677 46.32053692 245.72018095 48.83960866 248.375 51.5625 C250.37165598 53.23317133 252.37151034 54.90002986 254.375 56.5625 C255.055625 57.284375 255.73625 58.00625 256.4375 58.75 C258.61476319 60.7867946 260.56626807 61.62625602 263.375 62.5625 C263.375 61.5725 263.375 60.5825 263.375 59.5625 C262.385 59.5625 261.395 59.5625 260.375 59.5625 C260.375 58.5725 260.375 57.5825 260.375 56.5625 C261.86 56.0675 261.86 56.0675 263.375 55.5625 C263.705 56.5525 264.035 57.5425 264.375 58.5625 C265.28378906 58.44068359 265.28378906 58.44068359 266.2109375 58.31640625 C274.2297887 57.71190824 278.36407436 60.52711803 284.375 65.5625 C285.09945313 66.14902344 285.82390625 66.73554687 286.5703125 67.33984375 C297.60180751 76.58868272 297.60180751 76.58868272 299.1875 82.6875 C298.11583986 86.47952818 296.31651052 87.57607954 293.1015625 89.6796875 C291.375 90.5625 291.375 90.5625 289.375 90.5625 C291.58108971 98.07349414 291.58108971 98.07349414 297.1875 103.125 C303.79504265 107.46816005 306.37427565 116.21914468 308.375 123.5625 C308.74491256 126.74727096 308.86732809 129.83746932 308.9375 133.0390625 C309.60893573 136.91180784 311.77629221 138.69794305 314.78125 141.0625 C316.65933457 142.83010901 316.98539548 144.05171529 317.375 146.5625 C319.3240625 146.3459375 319.3240625 146.3459375 321.3125 146.125 C327.49592195 146.06620359 331.03162226 149.51966849 335.375 153.5625 C336.375 154.5625 336.375 154.5625 336.47265625 157.94140625 C336.46598369 159.33597077 336.45402532 160.73051743 336.4375 162.125 C336.43298828 162.83591797 336.42847656 163.54683594 336.42382812 164.27929688 C336.41200864 166.04040013 336.39407263 167.80146036 336.375 169.5625 C334.71017578 170.00529297 334.71017578 170.00529297 333.01171875 170.45703125 C329.43604224 171.30947092 329.43604224 171.30947092 327.1875 173.25 C325.375 174.5625 325.375 174.5625 323.4765625 174.3515625 C320.94997317 173.40291743 319.76594758 172.22202083 317.9375 170.25 C317.3290625 169.62351563 316.720625 168.99703125 316.09375 168.3515625 C315.24296875 167.46597656 315.24296875 167.46597656 314.375 166.5625 C311.19670899 163.38420899 310.03611983 162.62647934 305.5 162.1875 C301.56482072 162.38201457 298.10230415 163.32006528 294.375 164.5625 C293.55 163.5725 292.725 162.5825 291.875 161.5625 C289.30540471 159.05879177 288.35234924 158.55712524 284.6875 157.6875 C279.52902677 158.05454521 275.90215308 161.40995725 271.98828125 164.51953125 C269.375 166.5625 269.375 166.5625 266.66796875 168.07421875 C264.10190468 169.73975608 263.47714064 170.76475838 262.375 173.5625 C260.71899973 177.25456618 259.17013017 178.87577548 255.375 180.5625 C255.58769531 181.54089844 255.58769531 181.54089844 255.8046875 182.5390625 C257.00458153 189.67527434 257.00458153 189.67527434 255.10546875 192.3515625 C254.00226425 193.31783529 252.88770128 194.27130639 251.76171875 195.2109375 C250.09240022 196.58938577 250.09240022 196.58938577 249.75 199.4375 C250.45901252 202.98256259 251.74716112 205.68762201 253.5 208.828125 C254.375 210.5625 254.375 210.5625 254.375 212.5625 C255.13425781 212.57667969 255.89351563 212.59085938 256.67578125 212.60546875 C257.66964844 212.65316406 258.66351563 212.70085937 259.6875 212.75 C260.67363281 212.78480469 261.65976562 212.81960937 262.67578125 212.85546875 C266.29690256 213.80398243 266.50976471 215.44098799 268.375 218.5625 C271.20768518 219.62514169 271.20768518 219.62514169 274.375 220.0625 C277.5625 220.59375 277.5625 220.59375 280.375 221.5625 C282.05078125 224.04296875 282.05078125 224.04296875 283.375 226.5625 C286.44180799 228.38879794 286.44180799 228.38879794 289.375 229.5625 C288.625 234.3125 288.625 234.3125 286.375 236.5625 C283.71962628 237.12770003 281.08355287 237.30038198 278.375 237.5625 C276.1376624 242.5032872 275.24196205 245.81380756 275.625 251.25 C275.72265625 254.10546875 275.72265625 254.10546875 275.375 256.5625 C273.75128716 258.16861161 272.10094169 259.04151788 270.1015625 260.1328125 C267.68970495 262.12996151 267.55363962 263.90609305 266.9375 266.9375 C265.75059259 272.48892135 263.59766439 274.9329326 259.21484375 278.41796875 C257.375 279.5625 257.375 279.5625 255.375 279.5625 C255.82965916 283.27554978 256.39502909 286.62364142 257.5625 290.1875 C258.45661626 293.90152138 258.17067373 295.27043149 256.375 298.5625 C261.67848763 297.59578511 261.67848763 297.59578511 265.25 293.8125 C265.95125 292.74 266.6525 291.6675 267.375 290.5625 C270.17767313 288.21304725 273.03648339 286.07306121 276.375 284.5625 C279.55446382 284.86867059 280.53799779 285.69215733 283.125 287.75 C285.375 290.5625 285.375 290.5625 285.6875 293.875 C285.584375 294.761875 285.48125 295.64875 285.375 296.5625 C284.715 296.5625 284.055 296.5625 283.375 296.5625 C283.313125 297.4596875 283.313125 297.4596875 283.25 298.375 C282.375 300.5625 282.375 300.5625 279.4375 302 C275.8221099 303.84458679 275.6201608 304.86310921 274.375 308.5625 C273.3128125 308.57667969 272.250625 308.59085937 271.15625 308.60546875 C261.02628175 308.7593071 261.02628175 308.7593071 252.1796875 313.234375 C250.07803791 314.78104353 247.97939365 315.65206518 245.5625 316.625 C241.02226049 318.55289261 241.02226049 318.55289261 238.375 322.5625 C237.9814697 326.69456812 237.93691207 329.3851387 239.375 333.25 C241.76688469 336.01561668 244.32816639 337.48904975 247.46484375 339.31640625 C250.01954004 340.98296682 251.50559372 343.1673232 253.375 345.5625 C255.33952462 347.13495389 257.36550674 348.60094227 259.40234375 350.078125 C262.02252949 352.04974992 264.19630134 354.11146401 266.375 356.5625 C266.375 357.2225 266.375 357.8825 266.375 358.5625 C268.49993141 358.58943575 270.62495912 358.60886628 272.75 358.625 C274.52503906 358.64240234 274.52503906 358.64240234 276.3359375 358.66015625 C279.29421521 358.77716593 279.29421521 358.77716593 281.375 357.5625 C284.375 357.375 284.375 357.375 287.375 357.5625 C289.375 359.5625 289.375 359.5625 289.9375 361.875 C289.375 364.5625 289.375 364.5625 287.84375 365.71875 C287.2146875 366.1003125 286.585625 366.481875 285.9375 366.875 C283.1281009 368.66074927 283.1281009 368.66074927 281.65234375 371.55078125 C281.22036688 374.87882838 281.31189386 377.37318159 282.375 380.5625 C283.53 380.8925 284.685 381.2225 285.875 381.5625 C287.03 381.8925 288.185 382.2225 289.375 382.5625 C289.705 383.5525 290.035 384.5425 290.375 385.5625 C289.51777344 385.70945312 288.66054688 385.85640625 287.77734375 386.0078125 C280.69183144 387.39775516 274.85938852 388.58331531 270.375 394.5625 C269.28276633 396.66359073 268.40353785 398.77547245 267.55078125 400.984375 C265.57342712 405.32010166 262.73054736 409.08221961 259.984375 412.9609375 C258.11195458 415.47786085 258.11195458 415.47786085 258.375 418.5625 C260.685 418.8925 262.995 419.2225 265.375 419.5625 C265.375 420.5525 265.375 421.5425 265.375 422.5625 C263.22265625 424.0625 263.22265625 424.0625 260.4375 425.5625 C256.30362417 427.58625115 256.30362417 427.58625115 254.375 431.5625 C255.695 431.8925 257.015 432.2225 258.375 432.5625 C258.375 436.27019715 257.88124984 438.79062554 256.875 442.3125 C256.5965625 443.29734375 256.318125 444.2821875 256.03125 445.296875 C255.8146875 446.04453125 255.598125 446.7921875 255.375 447.5625 C255.97828125 447.6759375 256.5815625 447.789375 257.203125 447.90625 C260.06370687 448.77059848 261.60514034 450.40452837 263.43359375 452.71875 C264.56992545 454.9442627 264.44936657 456.10003543 264.1875 458.5625 C263.71563873 465.68881501 268.67222939 471.79888079 272.375 477.5625 C273.06722656 478.65304687 273.75945312 479.74359375 274.47265625 480.8671875 C276.24739185 483.69208608 276.24739185 483.69208608 279.0625 485.5 C282.18158704 488.28188845 282.14051114 490.49802643 282.375 494.5625 C282.99375 494.645 283.6125 494.7275 284.25 494.8125 C286.375 495.5625 286.375 495.5625 287.625 497.625 C287.8725 498.264375 288.12 498.90375 288.375 499.5625 C291.97426516 499.23529408 293.95161643 498.22133666 296.6875 496 C299.7446712 493.76159603 302.34840863 492.57025352 306.27734375 492.8125 C310.09438617 494.1772526 312.4111528 497.24171297 315.0703125 500.1953125 C317.32478204 502.51092019 319.40759293 503.94924245 322.1875 505.5625 C327.07733033 508.62077367 328.59818109 512.2222266 330.375 517.5625 C330.7875 518.573125 331.2 519.58375 331.625 520.625 C331.8725 521.264375 332.12 521.90375 332.375 522.5625 C335.345 522.5625 338.315 522.5625 341.375 522.5625 C342.035 523.8825 342.695 525.2025 343.375 526.5625 C345.025 526.5625 346.675 526.5625 348.375 526.5625 C348.705 527.2225 349.035 527.8825 349.375 528.5625 C350.035 528.5625 350.695 528.5625 351.375 528.5625 C350.97180047 531.38489668 350.57196182 532.39059204 348.37890625 534.3046875 C345.77980847 537.23310566 345.75645585 539.06740424 345.5625 542.9375 C345.49417969 544.03835938 345.42585937 545.13921875 345.35546875 546.2734375 C345.27782777 549.58121657 345.27782777 549.58121657 345.98828125 552.8515625 C346.11589844 553.74617187 346.24351562 554.64078125 346.375 555.5625 C345.715 556.2225 345.055 556.8825 344.375 557.5625 C344.1249227 560.10440002 344.1249227 560.10440002 344.375 562.5625 C344.705 562.8925 345.035 563.2225 345.375 563.5625 C345.6383964 565.53797301 345.89668374 567.51452021 346.109375 569.49609375 C346.34738247 571.70816102 346.34738247 571.70816102 347.125 574.375 C347.24875 575.4578125 347.24875 575.4578125 347.375 576.5625 C346 578.1875 346 578.1875 344.375 579.5625 C344.045 580.5525 343.715 581.5425 343.375 582.5625 C344.035 582.5625 344.695 582.5625 345.375 582.5625 C345.74144578 584.12216592 346.09260862 585.68542651 346.4375 587.25 C346.63472656 588.12011719 346.83195313 588.99023438 347.03515625 589.88671875 C347.40169831 592.77271086 347.24150824 594.79063111 346.375 597.5625 C344.73166496 598.60039581 343.06256133 599.59817924 341.375 600.5625 C340.941875 601.42875 340.50875 602.295 340.0625 603.1875 C339.505625 603.97125 338.94875 604.755 338.375 605.5625 C336.48028048 605.82842555 334.58058148 606.07858194 332.671875 606.2109375 C326.08775259 607.21871134 320.32066496 611.57687177 314.9375 615.25 C306.23927274 620.86531127 297.41390691 621.29939024 287.375 619.5625 C283.6875 618.5 283.6875 618.5 281.375 617.5625 C281.28057617 618.17150146 281.18615234 618.78050293 281.08886719 619.40795898 C280.20255817 622.08295114 279.34068441 622.60656949 276.953125 624.03515625 C276.25703125 624.45990234 275.5609375 624.88464844 274.84375 625.32226562 C273.74546875 625.96711914 273.74546875 625.96711914 272.625 626.625 C271.90828125 627.05876953 271.1915625 627.49253906 270.453125 627.93945312 C269.05970947 628.78088143 267.66203123 629.61529934 266.25976562 630.44189453 C264.66988255 631.38717475 263.10515171 632.37457149 261.546875 633.37109375 C259.375 634.5625 259.375 634.5625 256.375 634.5625 C256.106875 635.284375 255.83875 636.00625 255.5625 636.75 C253.7392926 641.06812279 252.32227306 643.93098463 248.375 646.5625 C248.375 645.5725 248.375 644.5825 248.375 643.5625 C247.055 643.5625 245.735 643.5625 244.375 643.5625 C244.72286708 645.53786745 244.72286708 645.53786745 245.375 647.5625 C246.035 647.8925 246.695 648.2225 247.375 648.5625 C247.2881724 650.68827907 247.1800049 652.81319581 247.0625 654.9375 C247.00449219 656.12085938 246.94648438 657.30421875 246.88671875 658.5234375 C246.71785156 659.52632812 246.54898437 660.52921875 246.375 661.5625 C243.14691036 663.71455976 242.47893587 663.75578822 238.8125 663.5625 C236.48663783 663.39539965 236.48663783 663.39539965 234.375 663.5625 C233.715 664.2225 233.055 664.8825 232.375 665.5625 C229.75 665.6875 229.75 665.6875 227.375 665.5625 C227.045 666.2225 226.715 666.8825 226.375 667.5625 C223.82661701 667.63328842 221.74641036 667.68630345 219.3125 666.875 C218.3534375 666.7203125 218.3534375 666.7203125 217.375 666.5625 C216.79226318 667.05258545 216.20952637 667.5426709 215.60913086 668.04760742 C212.70474795 670.01697645 211.15473195 669.79042801 207.69140625 669.48828125 C206.59892578 669.39740234 205.50644531 669.30652344 204.38085938 669.21289062 C203.24455078 669.10138672 202.10824219 668.98988281 200.9375 668.875 C199.23883789 668.73674805 199.23883789 668.73674805 197.50585938 668.59570312 C192.35792869 668.1376374 188.16277916 667.53682151 183.375 665.5625 C180.87763926 665.34262367 178.37706097 665.15762984 175.875 665 C169.13602363 664.32513597 169.13602363 664.32513597 166.53125 661.71484375 C165.375 659.4375 165.375 659.4375 164.40625 657.015625 C161.82838235 650.88342469 156.96605892 646.85135819 151.375 643.5625 C151.045 642.2425 150.715 640.9225 150.375 639.5625 C146.085 639.5625 141.795 639.5625 137.375 639.5625 C136.43098958 637.8046875 135.48697917 636.046875 134.54296875 634.2890625 C133.32736507 632.25747635 133.32736507 632.25747635 130.375 630.5625 C129.49609375 627.59375 129.49609375 627.59375 128.8125 624.0625 C128.06637757 619.3074984 128.06637757 619.3074984 125.375 615.5625 C124.65572705 613.24484271 123.9840107 610.91154126 123.375 608.5625 C122.385 608.5625 121.395 608.5625 120.375 608.5625 C120.00375 607.69625 119.6325 606.83 119.25 605.9375 C117.37536789 602.56316221 115.50298511 600.50642685 112.6796875 597.95703125 C111.375 596.5625 111.375 596.5625 110.375 593.5625 C103.99663726 594.09986939 103.99663726 594.09986939 97.6875 595.125 C95.375 595.5625 95.375 595.5625 91.875 595.4375 C87.09684614 595.60814835 84.69040261 597.24709739 81.375 600.5625 C81.20822718 604.14593976 81.20822718 604.14593976 81.375 607.5625 C82.365 607.8925 83.355 608.2225 84.375 608.5625 C84.375 609.2225 84.375 609.8825 84.375 610.5625 C79.095 610.5625 73.815 610.5625 68.375 610.5625 C68.375 611.2225 68.375 611.8825 68.375 612.5625 C66.91484709 612.28008359 65.45690207 611.98623386 64 611.6875 C63.18789063 611.52507813 62.37578125 611.36265625 61.5390625 611.1953125 C59.375 610.5625 59.375 610.5625 57.375 608.5625 C52.41985498 609.43722593 52.41985498 609.43722593 48.9375 612.6875 C48.751875 613.30625 48.56625 613.925 48.375 614.5625 C49.365 614.8925 50.355 615.2225 51.375 615.5625 C51.045 616.5525 50.715 617.5425 50.375 618.5625 C46.745 617.9025 43.115 617.2425 39.375 616.5625 C39.375 617.5525 39.375 618.5425 39.375 619.5625 C33.52107634 619.31858651 30.74614094 617.59243563 26.2421875 613.9296875 C24.01334185 612.29768755 22.12686742 611.73449171 19.375 611.5625 C19.375 610.9025 19.375 610.2425 19.375 609.5625 C20.365 609.5625 21.355 609.5625 22.375 609.5625 C22.25125 608.28375 22.1275 607.005 22 605.6875 C21.93039063 604.96820312 21.86078125 604.24890625 21.7890625 603.5078125 C21.51125251 601.33581755 21.51125251 601.33581755 19.375 599.5625 C19.375 598.5725 19.375 597.5825 19.375 596.5625 C18.715 596.2325 18.055 595.9025 17.375 595.5625 C20.08379335 594.20810332 22.38433268 594.49748549 25.375 594.5625 C25.5296875 593.6653125 25.5296875 593.6653125 25.6875 592.75 C26.47411856 590.24712276 27.51045831 589.34935245 29.375 587.5625 C29.705 586.5725 30.035 585.5825 30.375 584.5625 C31.365 584.8925 32.355 585.2225 33.375 585.5625 C33.375 586.5525 33.375 587.5425 33.375 588.5625 C41.10402431 589.8696144 45.7030733 589.65420791 52.375 585.5625 C53.261875 585.211875 54.14875 584.86125 55.0625 584.5 C57.68454901 583.43700716 59.96483609 582.03737642 62.375 580.5625 C61.49457031 580.69269531 60.61414063 580.82289063 59.70703125 580.95703125 C50.14131579 582.09302632 50.14131579 582.09302632 46.125 579.3125 C44.375 576.5625 44.375 576.5625 43.375 573.5625 C39.37245544 573.47068866 39.37245544 573.47068866 35.375 573.5625 C35.045 573.8925 34.715 574.2225 34.375 574.5625 C32.04202567 574.60342937 29.70794775 574.60491723 27.375 574.5625 C27.375 575.2225 27.375 575.8825 27.375 576.5625 C23.91441949 577.57183598 21.71233312 578.17631501 18.375 576.64453125 C12.81952955 572.77089268 8.53262554 567.54225336 5.375 561.5625 C5.375 560.2425 5.375 558.9225 5.375 557.5625 C13.125 557.4375 13.125 557.4375 15.375 558.5625 C15.375 557.5725 15.375 556.5825 15.375 555.5625 C13.456875 555.624375 13.456875 555.624375 11.5 555.6875 C9.3203125 555.7578125 9.3203125 555.7578125 7.375 555.5625 C5.375 553.5625 5.375 553.5625 5.0625 549.875 C5.15017616 545.51510367 6.43833819 542.43582363 8.375 538.5625 C7.715 538.5625 7.055 538.5625 6.375 538.5625 C6.1275 539.284375 5.88 540.00625 5.625 540.75 C4.23334094 543.88123289 2.76323189 546.104026 0.375 548.5625 C-0.945 548.5625 -2.265 548.5625 -3.625 548.5625 C-3.625 547.9025 -3.625 547.2425 -3.625 546.5625 C-5.275 546.2325 -6.925 545.9025 -8.625 545.5625 C-8.625 543.9125 -8.625 542.2625 -8.625 540.5625 C-9.285 542.5425 -9.945 544.5225 -10.625 546.5625 C-7.655 549.0375 -7.655 549.0375 -4.625 551.5625 C-5.625 554.5625 -5.625 554.5625 -7.41015625 555.73828125 C-12.65485225 557.69001116 -18.27851995 556.63179601 -23.625 555.5625 C-28.45890156 555.33146794 -32.89390404 555.52396674 -37.625 556.5625 C-39.24846554 556.74350388 -40.87375687 556.90843486 -42.5 557.0625 C-43.79744141 557.19011719 -43.79744141 557.19011719 -45.12109375 557.3203125 C-47.26804317 557.52797375 -49.41524719 557.73299973 -51.5625 557.9375 C-54.5347804 558.39357466 -54.5347804 558.39357466 -56.625 559.625 C-58.02922682 562.34568947 -57.20029876 564.39295824 -56.6953125 567.3046875 C-56.56449162 571.50549121 -58.69566466 574.93562226 -60.625 578.5625 C-61.285 579.8825 -61.945 581.2025 -62.625 582.5625 C-65.595 582.5625 -68.565 582.5625 -71.625 582.5625 C-71.625 583.5525 -71.625 584.5425 -71.625 585.5625 C-72.615 585.5625 -73.605 585.5625 -74.625 585.5625 C-74.955 586.5525 -75.285 587.5425 -75.625 588.5625 C-77.275 588.2325 -78.925 587.9025 -80.625 587.5625 C-80.625 586.9025 -80.625 586.2425 -80.625 585.5625 C-84.585 585.2325 -88.545 584.9025 -92.625 584.5625 C-92.13 586.0475 -92.13 586.0475 -91.625 587.5625 C-93.048125 588.1503125 -93.048125 588.1503125 -94.5 588.75 C-98.1408886 590.86171539 -98.26544808 591.75575462 -99.625 595.5625 C-103.58671317 600.38079981 -103.58671317 600.38079981 -107.125 601 C-109.83691871 600.52541423 -112.12497767 599.70536735 -114.625 598.5625 C-114.625 597.9025 -114.625 597.2425 -114.625 596.5625 C-116.61067708 596.59505208 -118.59635417 596.62760417 -120.58203125 596.66015625 C-122.625 596.5625 -122.625 596.5625 -125.625 595.5625 C-125.625 594.9025 -125.625 594.2425 -125.625 593.5625 C-127.605 593.5625 -129.585 593.5625 -131.625 593.5625 C-131.29947917 591.64192708 -130.97395833 589.72135417 -130.6484375 587.80078125 C-130.61745727 584.84216896 -131.13515877 583.12621539 -132.625 580.5625 C-135.20337671 579.2446804 -135.20337671 579.2446804 -138.1875 578.5 C-141.19140625 577.65234375 -141.19140625 577.65234375 -143.625 576.5625 C-144.46484375 574.44140625 -144.46484375 574.44140625 -144.625 572.5625 C-143.635 572.5625 -142.645 572.5625 -141.625 572.5625 C-141.625 571.5725 -141.625 570.5825 -141.625 569.5625 C-139.315 569.8925 -137.005 570.2225 -134.625 570.5625 C-134.625 571.8825 -134.625 573.2025 -134.625 574.5625 C-132.645 574.5625 -130.665 574.5625 -128.625 574.5625 C-128.955 572.9125 -129.285 571.2625 -129.625 569.5625 C-125.005 569.8925 -120.385 570.2225 -115.625 570.5625 C-115.295 571.8825 -114.965 573.2025 -114.625 574.5625 C-113.305 574.8925 -111.985 575.2225 -110.625 575.5625 C-111.58365509 573.23174071 -111.58365509 573.23174071 -114.625 571.5625 C-111.94335112 568.09213086 -108.76032158 567.59633039 -104.625 566.5625 C-102.25202694 565.9669119 -99.9594537 565.30952518 -97.625 564.5625 C-97.295 563.9025 -96.965 563.2425 -96.625 562.5625 C-94.975 562.8925 -93.325 563.2225 -91.625 563.5625 C-91.625 562.5725 -91.625 561.5825 -91.625 560.5625 C-92.945 560.8925 -94.265 561.2225 -95.625 561.5625 C-95.625 559.5825 -95.625 557.6025 -95.625 555.5625 C-96.615 555.2325 -97.605 554.9025 -98.625 554.5625 C-98.27266839 549.1013601 -98.27266839 549.1013601 -97.625 546.5625 C-95.5625 545.0625 -95.5625 545.0625 -93.625 544.5625 C-94.615 544.5625 -95.605 544.5625 -96.625 544.5625 C-99.625 544.5625 -102.625 544.5625 -105.625 544.5625 C-103.975 544.8925 -102.325 545.2225 -100.625 545.5625 C-100.57601562 546.27277344 -100.52703125 546.98304688 -100.4765625 547.71484375 C-100.40179688 548.63394531 -100.32703125 549.55304687 -100.25 550.5 C-100.14558594 551.87478516 -100.14558594 551.87478516 -100.0390625 553.27734375 C-99.90242188 554.03144531 -99.76578125 554.78554688 -99.625 555.5625 C-98.965 555.8925 -98.305 556.2225 -97.625 556.5625 C-97.955 558.8725 -98.285 561.1825 -98.625 563.5625 C-102.92692371 565.21708604 -106.9009137 565.91941219 -111.44921875 566.33984375 C-113.82570177 566.55210938 -113.82570177 566.55210938 -116.9375 567.1875 C-119.56057543 567.55351053 -121.14751059 567.42009249 -123.625 566.5625 C-123.625 565.9025 -123.625 565.2425 -123.625 564.5625 C-124.17671875 564.72621094 -124.7284375 564.88992188 -125.296875 565.05859375 C-127.89114007 565.62010414 -130.22335411 565.65989008 -132.875 565.625 C-133.76703125 565.61597656 -134.6590625 565.60695313 -135.578125 565.59765625 C-136.59132813 565.58025391 -136.59132813 565.58025391 -137.625 565.5625 C-137.955 563.9125 -138.285 562.2625 -138.625 560.5625 C-139.285 560.5625 -139.945 560.5625 -140.625 560.5625 C-140.625 561.2225 -140.625 561.8825 -140.625 562.5625 C-145.25421525 563.5786692 -148.96962607 563.40046731 -153.625 562.5625 C-153.295 563.2225 -152.965 563.8825 -152.625 564.5625 C-151.635 564.8925 -150.645 565.2225 -149.625 565.5625 C-150.285 567.5425 -150.945 569.5225 -151.625 571.5625 C-152.285 571.5625 -152.945 571.5625 -153.625 571.5625 C-153.625 572.2225 -153.625 572.8825 -153.625 573.5625 C-154.285 573.5625 -154.945 573.5625 -155.625 573.5625 C-157.91513653 570.1272952 -157.80342973 568.577169 -157.625 564.5625 C-158.615 564.5625 -159.605 564.5625 -160.625 564.5625 C-161.12 562.0875 -161.12 562.0875 -161.625 559.5625 C-163.0171875 559.68625 -163.0171875 559.68625 -164.4375 559.8125 C-167.625 559.5625 -167.625 559.5625 -169.5 557.5625 C-169.87125 556.9025 -170.2425 556.2425 -170.625 555.5625 C-167.655 555.2325 -164.685 554.9025 -161.625 554.5625 C-161.563125 553.77875 -161.50125 552.995 -161.4375 552.1875 C-161.169375 551.32125 -160.90125 550.455 -160.625 549.5625 C-158.25 548.4375 -158.25 548.4375 -155.625 547.5625 C-154.944375 546.758125 -154.944375 546.758125 -154.25 545.9375 C-151.59223418 543.68862123 -148.96380179 544.32401416 -145.625 544.5625 C-144.635 544.8925 -143.645 545.2225 -142.625 545.5625 C-142.625 544.9025 -142.625 544.2425 -142.625 543.5625 C-141.965 543.5625 -141.305 543.5625 -140.625 543.5625 C-140.74017421 541.20749052 -140.86687978 538.85400927 -141 536.5 C-141.06960937 535.18902344 -141.13921875 533.87804687 -141.2109375 532.52734375 C-141.61772463 528.6321651 -142.40847221 525.27772335 -143.625 521.5625 C-143.84800781 520.63179687 -144.07101563 519.70109375 -144.30078125 518.7421875 C-145.51918882 516.22931846 -145.51918882 516.22931846 -148.79296875 515.3828125 C-150.12751519 515.12226541 -151.46826122 514.89224639 -152.8125 514.6875 C-153.52140381 514.56729492 -154.23030762 514.44708984 -154.96069336 514.32324219 C-164.62212626 512.87161859 -174.01587362 514.14255266 -183.625 515.5625 C-183.295 512.5925 -182.965 509.6225 -182.625 506.5625 C-181.635 506.2325 -180.645 505.9025 -179.625 505.5625 C-179.625 504.9025 -179.625 504.2425 -179.625 503.5625 C-180.285 503.2325 -180.945 502.9025 -181.625 502.5625 C-181.295 501.5725 -180.965 500.5825 -180.625 499.5625 C-178.48046875 498.75390625 -178.48046875 498.75390625 -175.8125 498.125 C-171.56937156 496.99189184 -169.63368435 495.79404986 -166.625 492.5625 C-163.875 492.3125 -163.875 492.3125 -161.625 492.5625 C-161.4084375 491.3559375 -161.4084375 491.3559375 -161.1875 490.125 C-160.625 487.5625 -160.625 487.5625 -159.625 486.5625 C-157.77608054 486.32886119 -155.92011969 486.14946365 -154.0625 486 C-152.54462891 485.87431641 -152.54462891 485.87431641 -150.99609375 485.74609375 C-150.21363281 485.68550781 -149.43117187 485.62492187 -148.625 485.5625 C-148.625 484.5725 -148.625 483.5825 -148.625 482.5625 C-145.985 482.5625 -143.345 482.5625 -140.625 482.5625 C-140.625 481.9025 -140.625 481.2425 -140.625 480.5625 C-139.305 480.5625 -137.985 480.5625 -136.625 480.5625 C-136.76808594 479.64017578 -136.76808594 479.64017578 -136.9140625 478.69921875 C-137.02492187 477.89097656 -137.13578125 477.08273437 -137.25 476.25 C-137.36601562 475.44949219 -137.48203125 474.64898437 -137.6015625 473.82421875 C-137.625 471.5625 -137.625 471.5625 -135.625 468.5625 C-135.625 467.9025 -135.625 467.2425 -135.625 466.5625 C-136.285 466.5625 -136.945 466.5625 -137.625 466.5625 C-137.04915568 464.17685923 -136.40272405 461.89567216 -135.625 459.5625 C-134.34625 459.706875 -133.0675 459.85125 -131.75 460 C-126.71219116 460.56064645 -121.66963121 461.06751531 -116.625 461.5625 C-116 463.875 -116 463.875 -115.625 466.5625 C-116.285 467.5525 -116.945 468.5425 -117.625 469.5625 C-111.87852594 469.16619144 -108.06705587 468.57118456 -103.625 464.5625 C-102.6561941 461.42984521 -102.6561941 461.42984521 -102.625 458.5625 C-101.305 458.8925 -99.985 459.2225 -98.625 459.5625 C-98.625 460.5525 -98.625 461.5425 -98.625 462.5625 C-97.92632812 462.55089844 -97.22765625 462.53929687 -96.5078125 462.52734375 C-95.14269531 462.51380859 -95.14269531 462.51380859 -93.75 462.5 C-92.84507812 462.48839844 -91.94015625 462.47679687 -91.0078125 462.46484375 C-88.625 462.5625 -88.625 462.5625 -86.625 463.5625 C-86.975625 462.840625 -87.32625 462.11875 -87.6875 461.375 C-88.74608083 458.1992575 -88.72640686 456.69727337 -87.625 453.5625 C-84.625 451.5625 -84.625 451.5625 -81.25 450.75 C-76.58948314 449.22327896 -73.99217183 447.11016155 -71.65234375 442.75 C-70.09868989 439.28633192 -70.09868989 439.28633192 -69.625 435.5625 C-68.125 433.9375 -68.125 433.9375 -66.625 432.5625 C-65.861875 432.871875 -65.09875 433.18125 -64.3125 433.5 C-62.43710323 434.24143593 -60.53815348 434.92478217 -58.625 435.5625 C-58.295 433.2525 -57.965 430.9425 -57.625 428.5625 C-51.28948757 426.20010554 -45.24208962 424.90461256 -38.54296875 423.9921875 C-35.70636662 423.64663368 -35.70636662 423.64663368 -33.36328125 422.8828125 C-32.50283203 422.72425781 -32.50283203 422.72425781 -31.625 422.5625 C-30.965 423.2225 -30.305 423.8825 -29.625 424.5625 C-26.25193382 425.14664702 -26.25193382 425.14664702 -22.625 424.5625 C-19.89573609 422.24993506 -19.89573609 422.24993506 -17.625 419.5625 C-15.3125 418.25 -15.3125 418.25 -13.625 417.5625 C-13.625 416.9025 -13.625 416.2425 -13.625 415.5625 C-10.97271188 414.48724806 -8.34131546 413.46793849 -5.625 412.5625 C-4.92258474 411.24764829 -4.26224021 409.91014503 -3.625 408.5625 C-2.38168342 406.96125895 -1.08585624 405.3998925 0.25 403.875 C0.92804688 403.08738281 1.60609375 402.29976563 2.3046875 401.48828125 C4.41633179 399.52405364 5.56100975 398.93475432 8.375 398.5625 C8.705 399.5525 9.035 400.5425 9.375 401.5625 C16.26649073 399.18210586 20.7548757 395.60423923 26.01171875 390.6171875 C29.02475032 387.99759311 31.63142288 386.86129206 35.375 385.5625 C38.3859362 383.5552092 39.00516497 382.72365776 40.375 379.5625 C41.035 379.5625 41.695 379.5625 42.375 379.5625 C42.5296875 378.386875 42.5296875 378.386875 42.6875 377.1875 C43.375 374.5625 43.375 374.5625 46.375 372.5625 C51.38795251 364.97779841 55.44109249 356.64371999 57.63671875 347.81640625 C58.375 345.5625 58.375 345.5625 59.828125 343.46484375 C62.17178193 339.06752784 62.66044386 334.44868015 63.4375 329.5625 C63.75675907 327.603352 64.0808235 325.6449798 64.41015625 323.6875 C64.5481665 322.82382812 64.68617676 321.96015625 64.82836914 321.0703125 C65.4076079 318.41290272 66.2998584 316.05635923 67.375 313.5625 C68.035 313.5625 68.695 313.5625 69.375 313.5625 C69.045 307.9525 68.715 302.3425 68.375 296.5625 C69.921875 296.665625 71.46875 296.76875 73.0625 296.875 C77.10412453 296.89207729 77.98041671 296.89570367 81.1875 294.1875 C81.909375 293.32125 82.63125 292.455 83.375 291.5625 C85.875 290.375 85.875 290.375 88.375 289.5625 C90.04419392 288.90218652 91.71121735 288.23633197 93.375 287.5625 C91.14468311 288.01520302 88.91578437 288.47489626 86.6875 288.9375 C84.82544922 289.32035156 84.82544922 289.32035156 82.92578125 289.7109375 C79.89124903 290.4386911 77.25318272 291.39752128 74.375 292.5625 C71.3662485 293.14520048 69.53616609 292.96391792 66.375 292.5625 C62.68194202 288.66427213 61.25717061 283.85831267 59.39453125 278.87890625 C58.41894898 276.34535541 58.41894898 276.34535541 56.0625 273.9375 C54.375 271.5625 54.375 271.5625 54.375 267.875 C56.01781033 259.20096146 59.1127659 252.69711251 66.125 247.1875 C68.125166 244.5872842 68.07412878 241.7517349 68.375 238.5625 C68.96667969 238.41554687 69.55835938 238.26859375 70.16796875 238.1171875 C76.10599893 236.43167812 78.52725343 234.52406794 82.375 229.5625 C84.63807956 228.00454838 86.91892475 226.81461679 89.375 225.5625 C86.40470919 225.21294118 86.40470919 225.21294118 84.96875 226.9375 C84.17984375 227.741875 84.17984375 227.741875 83.375 228.5625 C81.13282337 229.66734066 78.85135276 230.5719589 76.53125 231.5 C74.30355582 232.4336702 74.30355582 232.4336702 72.84375 234.25 C71.375 235.5625 71.375 235.5625 69.32421875 235.55078125 C66.56116627 234.14987488 66.26080001 232.62447015 65.1875 229.75 C62.73345975 223.88629635 59.38667559 219.25987762 55.4609375 214.2890625 C49.90646651 207.02872402 49.90646651 207.02872402 50.375 201.5625 C51.014375 201.32789063 51.65375 201.09328125 52.3125 200.8515625 C54.55411845 199.7471776 54.55411845 199.7471776 55.125 197.4609375 C55.6839202 191.81933669 55.37189064 188.2728952 52.28515625 183.44921875 C51.13179137 181.0583379 51.22615133 179.18313877 51.375 176.5625 C52.87353516 176.28986328 52.87353516 176.28986328 54.40234375 176.01171875 C56.33787109 175.63466797 56.33787109 175.63466797 58.3125 175.25 C59.60027344 175.00636719 60.88804687 174.76273438 62.21484375 174.51171875 C63.25769531 174.19847656 64.30054688 173.88523438 65.375 173.5625 C65.705 172.5725 66.035 171.5825 66.375 170.5625 C67.035 170.5625 67.695 170.5625 68.375 170.5625 C68.375 169.5725 68.375 168.5825 68.375 167.5625 C64.94161484 168.76882452 62.87135415 169.94727184 60.375 172.5625 C59.715 172.5625 59.055 172.5625 58.375 172.5625 C58.25125 171.758125 58.1275 170.95375 58 170.125 C57.79375 169.279375 57.5875 168.43375 57.375 167.5625 C56.715 167.2325 56.055 166.9025 55.375 166.5625 C55.00375 167.738125 55.00375 167.738125 54.625 168.9375 C53.375 171.5625 53.375 171.5625 51.5625 172.875 C49.00405849 173.67908162 47.0415609 173.84319062 44.375 173.5625 C43.715 172.9025 43.055 172.2425 42.375 171.5625 C36.90257981 170.4314481 36.90257981 170.4314481 31.5390625 171.5078125 C28.10971265 172.65092912 25.10093316 172.9670347 21.5 173.1875 C19.77136719 173.29964844 19.77136719 173.29964844 18.0078125 173.4140625 C17.13898438 173.46304688 16.27015625 173.51203125 15.375 173.5625 C15.375 175.2125 15.375 176.8625 15.375 178.5625 C14.735625 178.3975 14.09625 178.2325 13.4375 178.0625 C8.35586997 177.23284612 3.29019022 176.92410326 -1.625 178.5625 C-1.955 179.5525 -2.285 180.5425 -2.625 181.5625 C-4.3671875 182.37109375 -4.3671875 182.37109375 -6.5 183 C-9.17259089 183.92439075 -10.52944614 184.47291826 -12.625 186.4375 C-13.82613817 188.55843456 -13.82613817 188.55843456 -13.5 191.125 C-13.54125 191.929375 -13.5825 192.73375 -13.625 193.5625 C-14.429375 193.995625 -15.23375 194.42875 -16.0625 194.875 C-18.76947327 196.25723745 -18.76947327 196.25723745 -19.1796875 198.5234375 C-19.41185577 200.52852714 -19.52585002 202.54645043 -19.625 204.5625 C-18.305 204.8925 -16.985 205.2225 -15.625 205.5625 C-15.955 207.2125 -16.285 208.8625 -16.625 210.5625 C-17.57375 210.645 -18.5225 210.7275 -19.5 210.8125 C-22.72961791 211.21324923 -22.72961791 211.21324923 -24 213.625 C-24.20625 214.264375 -24.4125 214.90375 -24.625 215.5625 C-25.615 215.2325 -26.605 214.9025 -27.625 214.5625 C-27.686875 213.49 -27.74875 212.4175 -27.8125 211.3125 C-28.28707767 207.45444188 -28.28707767 207.45444188 -31.0625 205.1875 C-33.48740168 203.58907931 -33.48740168 203.58907931 -35.625 202.5625 C-35.625 201.9025 -35.625 201.2425 -35.625 200.5625 C-37.935 200.5625 -40.245 200.5625 -42.625 200.5625 C-42.893125 201.325625 -43.16125 202.08875 -43.4375 202.875 C-45.23354093 206.9397242 -45.23354093 206.9397242 -47.625 208.5625 C-49.62452758 208.60596799 -51.62539988 208.602492 -53.625 208.5625 C-56.41066059 209.47507306 -56.41066059 209.47507306 -58.625 210.5625 C-58.955 209.9025 -59.285 209.2425 -59.625 208.5625 C-60.945 208.5625 -62.265 208.5625 -63.625 208.5625 C-64.615 211.5325 -64.615 211.5325 -65.625 214.5625 C-68.98095828 213.96322174 -71.00301226 212.71627564 -73.625 210.5625 C-73.295 209.5725 -72.965 208.5825 -72.625 207.5625 C-71.965 207.2325 -71.305 206.9025 -70.625 206.5625 C-69.79322376 204.74482869 -69.79322376 204.74482869 -69.125 202.625 C-68.20097536 199.85794796 -67.73362631 198.67112631 -65.625 196.5625 C-65.22452556 194.23974823 -64.8852896 191.90510643 -64.625 189.5625 C-62.645 189.2325 -60.665 188.9025 -58.625 188.5625 C-58.625 186.9125 -58.625 185.2625 -58.625 183.5625 C-57.861875 183.3975 -57.09875 183.2325 -56.3125 183.0625 C-53.20196983 181.32639014 -53.17324523 180.86133222 -52.1875 177.625 C-51.08995792 174.12421923 -50.9590763 173.75340074 -47.5625 171.8125 C-46.593125 171.4 -45.62375 170.9875 -44.625 170.5625 C-43.94231862 169.23729497 -43.2742959 167.90437818 -42.625 166.5625 C-40.98136866 165.84090576 -39.31449614 165.16898579 -37.625 164.5625 C-37.295 163.9025 -36.965 163.2425 -36.625 162.5625 C-33.70001963 161.51283527 -31.25201063 161.57881115 -28.1875 161.8125 C-24.45169431 161.86165534 -23.82616564 161.71658432 -20.6875 159.3125 C-19.01690283 157.0850371 -17.67116108 155.13034993 -16.625 152.5625 C-15.635 152.5625 -14.645 152.5625 -13.625 152.5625 C-13.25375 151.20125 -13.25375 151.20125 -12.875 149.8125 C-11.54226137 146.34737956 -10.57695381 144.77646536 -7.625 142.5625 C-6.696875 142.48 -5.76875 142.3975 -4.8125 142.3125 C0.17181018 141.13972113 2.2655876 137.42846042 5.375 133.5625 C6.138125 132.82 6.90125 132.0775 7.6875 131.3125 C11.36876311 127.49489381 11.62779872 124.21796128 11.5625 119 C11.55605469 117.86433594 11.54960937 116.72867188 11.54296875 115.55859375 C11.50365471 112.51074793 11.50365471 112.51074793 10.375 109.5625 C10.33545766 107.22950175 10.33098268 104.89541811 10.375 102.5625 C11.695 102.2325 13.015 101.9025 14.375 101.5625 C14.705 103.8725 15.035 106.1825 15.375 108.5625 C16.035 108.2325 16.695 107.9025 17.375 107.5625 C17.73061725 105.01015849 17.81879753 102.48381348 17.93359375 99.91015625 C18.15208984 98.74806641 18.15208984 98.74806641 18.375 97.5625 C21.375 95.5625 21.375 95.5625 24.375 95.5625 C24.6225 95.02625 24.87 94.49 25.125 93.9375 C28.06959602 88.34276757 30.79324374 84.71740571 36.375 81.5625 C37.035 81.5625 37.695 81.5625 38.375 81.5625 C38.313125 80.304375 38.25125 79.04625 38.1875 77.75 C38.1805856 73.83644757 38.1805856 73.83644757 39.75 71.625 C41.375 70.5625 41.375 70.5625 43.375 69.5625 C40.8347161 70.51564787 40.8347161 70.51564787 38.375 72.5625 C37.9867327 74.53619212 37.59999651 76.51026886 37.234375 78.48828125 C35.52418703 82.61605313 31.24357188 84.657084 27.375 86.5625 C26.715 86.5625 26.055 86.5625 25.375 86.5625 C25.313125 87.160625 25.25125 87.75875 25.1875 88.375 C24.00865068 91.54882509 22.39455491 92.11836505 19.375 93.5625 C17.0506398 94.25980806 14.71826294 94.93162152 12.375 95.5625 C12.045 95.8925 11.715 96.2225 11.375 96.5625 C6.91425362 96.87371486 3.5380737 96.14843284 -0.625 94.5625 C-0.955 95.5525 -1.285 96.5425 -1.625 97.5625 C-2.78961426 94.06865721 -2.76068319 91.22594611 -2.625 87.5625 C-1.625 86.5625 -1.625 86.5625 0.9375 86.5 C1.741875 86.520625 2.54625 86.54125 3.375 86.5625 C3.705 83.9225 4.035 81.2825 4.375 78.5625 C1.13200849 80.95207269 -1.13402342 82.7672869 -2.625 86.5625 C-3.285 86.5625 -3.945 86.5625 -4.625 86.5625 C-5.615 88.5425 -5.615 88.5425 -6.625 90.5625 C-7.285 90.5625 -7.945 90.5625 -8.625 90.5625 C-8.625 89.9025 -8.625 89.2425 -8.625 88.5625 C-9.285 88.5625 -9.945 88.5625 -10.625 88.5625 C-10.625 86.2525 -10.625 83.9425 -10.625 81.5625 C-14.09 82.5525 -14.09 82.5525 -17.625 83.5625 C-17.625 82.5725 -17.625 81.5825 -17.625 80.5625 C-18.615 80.5625 -19.605 80.5625 -20.625 80.5625 C-20.68107422 79.51449219 -20.68107422 79.51449219 -20.73828125 78.4453125 C-20.80402344 77.53523438 -20.86976563 76.62515625 -20.9375 75.6875 C-21.02451172 74.33011719 -21.02451172 74.33011719 -21.11328125 72.9453125 C-21.4132039 70.20028399 -21.4132039 70.20028399 -24.625 68.5625 C-25.30632451 66.90177151 -25.97242127 65.234733 -26.625 63.5625 C-27.12 63.10875 -27.615 62.655 -28.125 62.1875 C-29.625 60.5625 -29.625 60.5625 -30.625 57 C-31.29639937 53.31646564 -31.29639937 53.31646564 -34.625 51.5625 C-34.955 52.2225 -35.285 52.8825 -35.625 53.5625 C-34.635 53.5625 -33.645 53.5625 -32.625 53.5625 C-32.295 55.5425 -31.965 57.5225 -31.625 59.5625 C-32.615 59.8925 -33.605 60.2225 -34.625 60.5625 C-34.625 61.2225 -34.625 61.8825 -34.625 62.5625 C-38.34099191 62.76336443 -39.39708445 62.7144437 -42.625 60.5625 C-43.57421875 57.9609375 -43.57421875 57.9609375 -44.3125 54.9375 C-44.68955078 53.43316406 -44.68955078 53.43316406 -45.07421875 51.8984375 C-45.34685547 50.74214844 -45.34685547 50.74214844 -45.625 49.5625 C-49.34930357 48.86960631 -52.83583746 48.45105404 -56.625 48.5625 C-57.75 44.8125 -57.75 44.8125 -56.625 42.5625 C-58.11 42.0675 -58.11 42.0675 -59.625 41.5625 C-59.625 40.5725 -59.625 39.5825 -59.625 38.5625 C-58.965 38.2325 -58.305 37.9025 -57.625 37.5625 C-56.49149466 35.54580173 -56.49149466 35.54580173 -55.625 33.5625 C-53.315 33.8925 -51.005 34.2225 -48.625 34.5625 C-48.625 35.2225 -48.625 35.8825 -48.625 36.5625 C-46.15 36.0675 -46.15 36.0675 -43.625 35.5625 C-43.295 37.2125 -42.965 38.8625 -42.625 40.5625 C-40.975 40.8925 -39.325 41.2225 -37.625 41.5625 C-37.955 44.5325 -38.285 47.5025 -38.625 50.5625 C-37.965 50.5625 -37.305 50.5625 -36.625 50.5625 C-36.5425 49.985 -36.46 49.4075 -36.375 48.8125 C-35.399018 45.88455399 -33.98988777 44.51005463 -31.625 42.5625 C-30.635 42.5625 -29.645 42.5625 -28.625 42.5625 C-28.625 41.9025 -28.625 41.2425 -28.625 40.5625 C-29.615 40.5625 -30.605 40.5625 -31.625 40.5625 C-32.285 38.2525 -32.945 35.9425 -33.625 33.5625 C-34.285 33.5625 -34.945 33.5625 -35.625 33.5625 C-35.625 32.5725 -35.625 31.5825 -35.625 30.5625 C-34.965 30.5625 -34.305 30.5625 -33.625 30.5625 C-33.6559375 28.8609375 -33.6559375 28.8609375 -33.6875 27.125 C-33.625 23.5625 -33.625 23.5625 -32.625 22.5625 C-32.37889119 18.54272273 -32.65605493 15.05541903 -33.6875 11.1875 C-33.996875 9.99125 -34.30625 8.795 -34.625 7.5625 C-33.625 6.5625 -33.625 6.5625 -31.77734375 6.46484375 C-29.7265625 6.49739583 -27.67578125 6.52994792 -25.625 6.5625 C-25.625 5.9025 -25.625 5.2425 -25.625 4.5625 C-24.305 4.2325 -22.985 3.9025 -21.625 3.5625 C-21.625 4.2225 -21.625 4.8825 -21.625 5.5625 C-19.975 5.2325 -18.325 4.9025 -16.625 4.5625 C-16.625 3.5725 -16.625 2.5825 -16.625 1.5625 C-15.635 1.5625 -14.645 1.5625 -13.625 1.5625 C-13.625 2.2225 -13.625 2.8825 -13.625 3.5625 C-12.305 3.5625 -10.985 3.5625 -9.625 3.5625 C-9.625 2.5725 -9.625 1.5825 -9.625 0.5625 C-6.5270403 -0.98647985 -3.36283448 -0.26989539 0 0 Z " fill="#020202" transform="translate(221.625,16.4375)"/>
<path d="M0 0 C2.64 0.33 5.28 0.66 8 1 C8 1.66 8 2.32 8 3 C9.65 2.67 11.3 2.34 13 2 C13.33 3.65 13.66 5.3 14 7 C16.475 7.495 16.475 7.495 19 8 C18.67 10.97 18.34 13.94 18 17 C18.66 17 19.32 17 20 17 C20.12375 16.360625 20.2475 15.72125 20.375 15.0625 C20.58125 14.381875 20.7875 13.70125 21 13 C21.66 12.67 22.32 12.34 23 12 C23 13.65 23 15.3 23 17 C23.66 17 24.32 17 25 17 C24.67 17.66 24.34 18.32 24 19 C23.34 18.67 22.68 18.34 22 18 C21.67 18.66 21.34 19.32 21 20 C21.99 20 22.98 20 24 20 C24.33 21.98 24.66 23.96 25 26 C24.01 26.33 23.02 26.66 22 27 C22 27.66 22 28.32 22 29 C18.28400809 29.20086443 17.22791555 29.1519437 14 27 C13.05078125 24.3984375 13.05078125 24.3984375 12.3125 21.375 C12.06113281 20.37210938 11.80976563 19.36921875 11.55078125 18.3359375 C11.36902344 17.56507812 11.18726563 16.79421875 11 16 C7.27569643 15.30710631 3.78916254 14.88855404 0 15 C-1.125 11.25 -1.125 11.25 0 9 C-0.99 8.67 -1.98 8.34 -3 8 C-3 7.01 -3 6.02 -3 5 C-2.34 4.67 -1.68 4.34 -1 4 C-0.34786708 1.97536745 -0.34786708 1.97536745 0 0 Z " fill="#151515" transform="translate(165,50)"/>
<path d="M0 0 C-0.5625 2.3125 -0.5625 2.3125 -2 5 C-3.7325 5.6496875 -3.7325 5.6496875 -5.5 6.3125 C-9.0533537 7.56794715 -9.0533537 7.56794715 -9.90234375 9.9609375 C-10.53189384 12.43443557 -10.53189384 12.43443557 -11 16 C-11.969375 15.814375 -12.93875 15.62875 -13.9375 15.4375 C-17.03969365 14.95297888 -19.54314487 15.19764071 -22.625 15.75 C-24.91015625 16.07421875 -24.91015625 16.07421875 -27 16 C-30.0625 13.5625 -30.0625 13.5625 -32 11 C-31.67 10.34 -31.34 9.68 -31 9 C-29.35 9.33 -27.7 9.66 -26 10 C-26 10.99 -26 11.98 -26 13 C-25.34 13 -24.68 13 -24 13 C-24.103125 11.9275 -24.20625 10.855 -24.3125 9.75 C-24 6 -24 6 -21.8125 3.5 C-19 2 -19 2 -16.4375 2.125 C-14.17678012 2.93654047 -12.09871775 3.8340457 -10 5 C-9.95875 4.38125 -9.9175 3.7625 -9.875 3.125 C-9 1 -9 1 -6.125 -0.3125 C-3 -1 -3 -1 0 0 Z " fill="#0C0C0C" transform="translate(298,582)"/>
<path d="M0 0 C0.66 0.33 1.32 0.66 2 1 C0.865625 1.66 -0.26875 2.32 -1.4375 3 C-3.43945089 4.30932299 -3.43945089 4.30932299 -5 6 C-5.1910015 8.00551578 -5.37757021 10.01389246 -5.4453125 12.02734375 C-6.43992011 15.56450463 -9.69249757 16.67941408 -12.72265625 18.421875 C-15.80542153 20.55813087 -17.04022761 23.06408835 -18.8046875 26.296875 C-20.66085768 28.94161421 -22.92959891 29.42876259 -26 30 C-26 33.3 -26 36.6 -26 40 C-27.485 40.495 -27.485 40.495 -29 41 C-29.33 38.69 -29.66 36.38 -30 34 C-30.94875 33.731875 -31.8975 33.46375 -32.875 33.1875 C-36 32 -36 32 -38 29 C-32 27 -26 25 -20 23 C-19.66472716 21.66715304 -19.33158632 20.33376887 -19 19 C-17.4765625 17.55078125 -17.4765625 17.55078125 -15.625 16.3125 C-14.71621094 15.68794922 -14.71621094 15.68794922 -13.7890625 15.05078125 C-12 14 -12 14 -9 13 C-8.19566871 11.02639791 -8.19566871 11.02639791 -7.6875 8.6875 C-6.66427742 5.23274849 -5.8668609 3.41638171 -2.8125 1.4375 C-1.4203125 0.7259375 -1.4203125 0.7259375 0 0 Z " fill="#F4F4F4" transform="translate(266,84)"/>
<path d="M0 0 C2 2 2 2 2.125 4.625 C2.08375 5.40875 2.0425 6.1925 2 7 C4.97 7.33 7.94 7.66 11 8 C10.01 9.485 10.01 9.485 9 11 C5.875 11.1875 5.875 11.1875 3 11 C3.33 12.65 3.66 14.3 4 16 C-0.22528092 16 -1.04518508 15.74375671 -4 13 C-4 12.34 -4 11.68 -4 11 C-4.99 10.67 -5.98 10.34 -7 10 C-7 9.34 -7 8.68 -7 8 C-7.66 8 -8.32 8 -9 8 C-8.1875 5.0625 -8.1875 5.0625 -7 2 C-6.01 1.67 -5.02 1.34 -4 1 C-4 2.65 -4 4.3 -4 6 C-3.34 6.33 -2.68 6.66 -2 7 C-2.04125 6.21625 -2.0825 5.4325 -2.125 4.625 C-2 2 -2 2 0 0 Z " fill="#131313" transform="translate(289,266)"/>
<path d="M0 0 C0.66 1.32 1.32 2.64 2 4 C3.299375 3.855625 4.59875 3.71125 5.9375 3.5625 C11.28437847 3.54555268 14.17475348 5.73300668 18.25 8.98046875 C20.28199222 11.32542406 20.66318116 12.9528421 21 16 C20.608125 15.360625 20.21625 14.72125 19.8125 14.0625 C17.61527704 11.56221181 16.24208567 11.35049575 13 11 C13 11.66 13 12.32 13 13 C13.66 13 14.32 13 15 13 C14.67 14.32 14.34 15.64 14 17 C10.21388773 16.45912682 8.44599233 14.88277668 6 12 C6 11.34 6 10.68 6 10 C5.071875 9.566875 5.071875 9.566875 4.125 9.125 C2 8 2 8 0 6 C-0.125 2.875 -0.125 2.875 0 0 Z " fill="#161616" transform="translate(537,159)"/>
<path d="M0 0 C0.33 0.66 0.66 1.32 1 2 C0.01 2.66 -0.98 3.32 -2 4 C-2.57748803 5.96361864 -2.57748803 5.96361864 -2.6875 8.125 C-2.790625 9.40375 -2.89375 10.6825 -3 12 C-2.34 12.33 -1.68 12.66 -1 13 C-0.375 15.5625 -0.375 15.5625 0 18 C0.33 17.67 0.66 17.34 1 17 C3.33297433 16.95907063 5.66705225 16.95758277 8 17 C8 17.33 8 17.66 8 18 C6.35 18 4.7 18 3 18 C3.66 19.98 4.32 21.96 5 24 C4.5875 23.525625 4.175 23.05125 3.75 22.5625 C1.817815 20.83733482 0.51807725 20.43415125 -2 20 C-2.33 20.99 -2.66 21.98 -3 23 C-5.36111162 23.81916117 -7.57696413 24.44260962 -10 25 C-11.47948609 25.37373778 -12.95866055 25.74871167 -14.4375 26.125 C-16.2009375 26.558125 -16.2009375 26.558125 -18 27 C-18 26.34 -18 25.68 -18 25 C-18.99 24.67 -19.98 24.34 -21 24 C-16.48336711 22.7751504 -12.69263031 21.86964916 -8 22 C-6.65667272 21.70955086 -5.31774196 21.39044206 -4 21 C-3.67 18.69 -3.34 16.38 -3 14 C-3.99 13.67 -4.98 13.34 -6 13 C-6 9.7 -6 6.4 -6 3 C-7.98 3 -9.96 3 -12 3 C-11.67 2.34 -11.34 1.68 -11 1 C-10.06027344 1.01740234 -10.06027344 1.01740234 -9.1015625 1.03515625 C-7.87566406 1.04869141 -7.87566406 1.04869141 -6.625 1.0625 C-5.40683594 1.07990234 -5.40683594 1.07990234 -4.1640625 1.09765625 C-1.95062858 1.14466334 -1.95062858 1.14466334 0 0 Z " fill="#979797" transform="translate(127,559)"/>
<path d="M0 0 C0 0.66 0 1.32 0 2 C5.445 2.495 5.445 2.495 11 3 C10.67 4.32 10.34 5.64 10 7 C10.99 7.66 11.98 8.32 13 9 C13 9.66 13 10.32 13 11 C10.525 10.505 10.525 10.505 8 10 C8 8.68 8 7.36 8 6 C6.205625 6.0309375 6.205625 6.0309375 4.375 6.0625 C0.81995131 6.06882571 -2.50555624 5.69888875 -6 5 C-5.67 5.99 -5.34 6.98 -5 8 C-5.66 8 -6.32 8 -7 8 C-7 6.68 -7 5.36 -7 4 C-8.98 4 -10.96 4 -13 4 C-13 3.01 -13 2.02 -13 1 C-11.58366664 0.83052421 -10.16691467 0.66454493 -8.75 0.5 C-7.56664063 0.36078125 -7.56664063 0.36078125 -6.359375 0.21875 C-4 0 -4 0 0 0 Z " fill="#DCDCDC" transform="translate(98,581)"/>
<path d="M0 0 C1.27875 0.144375 2.5575 0.28875 3.875 0.4375 C8.91280884 0.99814645 13.95536879 1.50501531 19 2 C19.33 3.65 19.66 5.3 20 7 C19.34 6.67 18.68 6.34 18 6 C18 5.01 18 4.02 18 3 C16.3739713 3.06000106 14.74898451 3.1487885 13.125 3.25 C12.22007813 3.29640625 11.31515625 3.3428125 10.3828125 3.390625 C9.59648438 3.59171875 8.81015625 3.7928125 8 4 C6.82502502 5.89158114 6.82502502 5.89158114 6 8 C4.96875 8.7425 3.9375 9.485 2.875 10.25 C-0.13559453 12.5939424 -0.13559453 12.5939424 -0.390625 15.09765625 C-0.40799009 17.56298211 -0.40799009 17.56298211 0 21 C-0.33 21 -0.66 21 -1 21 C-1.2226746 19.56465159 -1.42761906 18.12654475 -1.625 16.6875 C-1.74101563 15.88699219 -1.85703125 15.08648437 -1.9765625 14.26171875 C-2 12 -2 12 0 9 C0 8.34 0 7.68 0 7 C-0.66 7 -1.32 7 -2 7 C-1.42415568 4.61435923 -0.77772405 2.33317216 0 0 Z " fill="#343434" transform="translate(86,476)"/>
<path d="M0 0 C0.33 0 0.66 0 1 0 C1 2.31 1 4.62 1 7 C2.32 7.33 3.64 7.66 5 8 C4.67 9.65 4.34 11.3 4 13 C2.576875 13.12375 2.576875 13.12375 1.125 13.25 C-2.10461791 13.65074923 -2.10461791 13.65074923 -3.375 16.0625 C-3.58125 16.701875 -3.7875 17.34125 -4 18 C-4.99 17.67 -5.98 17.34 -7 17 C-7.144375 15.88625 -7.28875 14.7725 -7.4375 13.625 C-7.78372035 10.17857953 -7.78372035 10.17857953 -9 8 C-7.02 8 -5.04 8 -3 8 C-3 7.34 -3 6.68 -3 6 C-2.34 5.67 -1.68 5.34 -1 5 C-0.34444881 2.47266765 -0.34444881 2.47266765 0 0 Z " fill="#1B1B1B" transform="translate(201,214)"/>
<path d="M0 0 C0.66 0.33 1.32 0.66 2 1 C2 1.66 2 2.32 2 3 C5.3 3 8.6 3 12 3 C10.68 3.33 9.36 3.66 8 4 C8.66 5.65 9.32 7.3 10 9 C9.34 9.66 8.68 10.32 8 11 C8.99 11.99 9.98 12.98 11 14 C9.35 14 7.7 14 6 14 C5.7525 13.38125 5.505 12.7625 5.25 12.125 C3.79371361 9.64931313 2.62187494 9.04874998 0 8 C0.33 6.68 0.66 5.36 1 4 C0.01 4 -0.98 4 -2 4 C-2 3.01 -2 2.02 -2 1 C-1.34 0.67 -0.68 0.34 0 0 Z " fill="#222222" transform="translate(484,72)"/>
<path d="M0 0 C-0.5625 2.3125 -0.5625 2.3125 -2 5 C-3.155 5.433125 -4.31 5.86625 -5.5 6.3125 C-9.0533537 7.56794715 -9.0533537 7.56794715 -9.90234375 9.9609375 C-10.53189384 12.43443557 -10.53189384 12.43443557 -11 16 C-14 15 -14 15 -16 13 C-15.01 13 -14.02 13 -13 13 C-13 10.36 -13 7.72 -13 5 C-12.01 5 -11.02 5 -10 5 C-9.95875 4.38125 -9.9175 3.7625 -9.875 3.125 C-9 1 -9 1 -6.125 -0.3125 C-3 -1 -3 -1 0 0 Z " fill="#111111" transform="translate(298,582)"/>
<path d="M0 0 C2.31 0 4.62 0 7 0 C6.13375 0.4021875 6.13375 0.4021875 5.25 0.8125 C2.94603902 1.94184834 2.94603902 1.94184834 0.9375 3.625 C-1 5 -1 5 -4 5 C-4.3403125 5.86625 -4.3403125 5.86625 -4.6875 6.75 C-6.41035833 9.70347142 -8.12302253 11.14594785 -11 13 C-14.8125 13.75 -14.8125 13.75 -18 14 C-17.67 12.68 -17.34 11.36 -17 10 C-15.68 10 -14.36 10 -13 10 C-12.77441406 9.37222656 -12.54882812 8.74445313 -12.31640625 8.09765625 C-11 6 -11 6 -8.65234375 5.05859375 C-7.75644531 4.85363281 -6.86054688 4.64867187 -5.9375 4.4375 C-3.26943619 3.87986574 -3.26943619 3.87986574 -1 3 C-0.67 2.01 -0.34 1.02 0 0 Z " fill="#E9E9E9" transform="translate(308,241)"/>
<path d="M0 0 C0.33 0.66 0.66 1.32 1 2 C0.01 3.485 0.01 3.485 -1 5 C-3.625 5.1875 -3.625 5.1875 -6 5 C-6.2475 6.093125 -6.495 7.18625 -6.75 8.3125 C-8 12 -8 12 -9.875 14 C-12 15 -12 15 -14.25 14.6875 C-14.8275 14.460625 -15.405 14.23375 -16 14 C-14.88820837 10.66462511 -13.52588702 9.36292656 -11 7 C-11.66 6.67 -12.32 6.34 -13 6 C-8.72886302 3.81673892 -4.49797113 1.68673918 0 0 Z " fill="#161616" transform="translate(279,600)"/>
<path d="M0 0 C3.77504244 0.51477852 6.6174343 1.30871715 10 3 C10.66 2.67 11.32 2.34 12 2 C12 4.97 12 7.94 12 11 C11.01 11.33 10.02 11.66 9 12 C8.67 9.69 8.34 7.38 8 5 C7.05125 4.731875 6.1025 4.46375 5.125 4.1875 C2 3 2 3 0 0 Z " fill="#C3C3C3" transform="translate(228,113)"/>
<path d="M0 0 C0.66 0.33 1.32 0.66 2 1 C0.865625 1.66 -0.26875 2.32 -1.4375 3 C-3.43945089 4.30932299 -3.43945089 4.30932299 -5 6 C-5.19023579 7.99747582 -5.37672112 9.99819819 -5.43359375 12.00390625 C-6.46682165 15.64514388 -9.74517241 16.97716168 -12.87109375 18.7734375 C-15.11890439 19.94577689 -15.11890439 19.94577689 -17 22 C-17 21.34 -17 20.68 -17 20 C-17.66 19.67 -18.32 19.34 -19 19 C-17.89932004 18.18278283 -16.79430269 17.37140549 -15.6875 16.5625 C-14.76517578 15.88380859 -14.76517578 15.88380859 -13.82421875 15.19140625 C-12 14 -12 14 -9 13 C-8.19566871 11.02639791 -8.19566871 11.02639791 -7.6875 8.6875 C-6.66427742 5.23274849 -5.8668609 3.41638171 -2.8125 1.4375 C-1.884375 0.963125 -0.95625 0.48875 0 0 Z " fill="#9A9A9A" transform="translate(266,84)"/>
<path d="M0 0 C0.33 1.32 0.66 2.64 1 4 C-3.04962585 6.21765225 -6.43084871 7.40402375 -11 8 C-12.33737094 8.31674575 -13.67288808 8.64270064 -15 9 C-15 8.34 -15 7.68 -15 7 C-15.99 6.67 -16.98 6.34 -18 6 C-13.48336711 4.7751504 -9.69263031 3.86964916 -5 4 C-2.79199472 3.78282648 -2.79199472 3.78282648 -1 3 C-0.67 2.01 -0.34 1.02 0 0 Z " fill="#BABABA" transform="translate(124,577)"/>
<path d="M0 0 C0.66 0 1.32 0 2 0 C2.125 5.75 2.125 5.75 1 8 C-0.66666667 8.33333333 -2.33333333 8.66666667 -4 9 C-4.33 9.66 -4.66 10.32 -5 11 C-5.99 10.67 -6.98 10.34 -8 10 C-7.566875 9.608125 -7.13375 9.21625 -6.6875 8.8125 C-4.73627342 6.71673811 -3.45154524 4.46131585 -2 2 C-1.34 1.34 -0.68 0.68 0 0 Z " fill="#C8C8C8" transform="translate(224,95)"/>
<path d="M0 0 C1.32 0.66 2.64 1.32 4 2 C3.67 2.66 3.34 3.32 3 4 C2.34 4 1.68 4 1 4 C1.33 5.98 1.66 7.96 2 10 C0.02 10 -1.96 10 -4 10 C-3.38461538 3.47692308 -3.38461538 3.47692308 -1.4375 1.0625 C-0.7259375 0.5365625 -0.7259375 0.5365625 0 0 Z " fill="#121212" transform="translate(103,603)"/>
<path d="M0 0 C1.21236328 0.01353516 1.21236328 0.01353516 2.44921875 0.02734375 C3.37154297 0.04474609 3.37154297 0.04474609 4.3125 0.0625 C4.3125 0.3925 4.3125 0.7225 4.3125 1.0625 C1.6725 1.3925 -0.9675 1.7225 -3.6875 2.0625 C-4.0175 3.3825 -4.3475 4.7025 -4.6875 6.0625 C-7.9875 6.3925 -11.2875 6.7225 -14.6875 7.0625 C-14.0275 6.4025 -13.3675 5.7425 -12.6875 5.0625 C-11.3675 5.0625 -10.0475 5.0625 -8.6875 5.0625 C-8.5328125 4.1034375 -8.5328125 4.1034375 -8.375 3.125 C-8.148125 2.444375 -7.92125 1.76375 -7.6875 1.0625 C-4.80538698 0.10179566 -2.98899956 -0.04331883 0 0 Z " fill="#9C9C9C" transform="translate(227.6875,192.9375)"/>
<path d="M0 0 C3.36241563 0.45438049 6.04009971 1.35561095 9 3 C8.67 3.66 8.34 4.32 8 5 C3.71 5 -0.58 5 -5 5 C-5.33 4.34 -5.66 3.68 -6 3 C-5.195625 2.690625 -4.39125 2.38125 -3.5625 2.0625 C-1.10919595 1.23664655 -1.10919595 1.23664655 0 0 Z " fill="#323232" transform="translate(364,651)"/>
<path d="M0 0 C0.99 0.33 1.98 0.66 3 1 C2.360625 1.639375 1.72125 2.27875 1.0625 2.9375 C-1.61912635 6.91930882 -1.79498004 10.294792 -2 15 C-5 14 -5 14 -7 12 C-6.01 12 -5.02 12 -4 12 C-4 9.36 -4 6.72 -4 4 C-3.01 4 -2.02 4 -1 4 C-0.67 2.68 -0.34 1.36 0 0 Z " fill="#717171" transform="translate(289,583)"/>
<path d="M0 0 C0 0.99 0 1.98 0 3 C-0.66 3 -1.32 3 -2 3 C-2.33 4.32 -2.66 5.64 -3 7 C-4.65 7 -6.3 7 -8 7 C-8 4 -8 4 -6.25 1.8125 C-4 0 -4 0 0 0 Z " fill="#E4E4E4" transform="translate(290,184)"/>
<path d="M0 0 C0.33 0 0.66 0 1 0 C1.66 1.98 2.32 3.96 3 6 C5.64 6.33 8.28 6.66 11 7 C11.33 8.32 11.66 9.64 12 11 C8.37 10.34 4.74 9.68 1 9 C0.67 9.66 0.34 10.32 0 11 C0 7.37 0 3.74 0 0 Z " fill="#B0B0B0" transform="translate(226,565)"/>
<path d="M0 0 C0.66 0 1.32 0 2 0 C1.45276317 3.37462715 0.9451 5.08235 -1 8 C-3.125 8.6875 -3.125 8.6875 -5 9 C-5 8.34 -5 7.68 -5 7 C-6.65 7 -8.3 7 -10 7 C-7.78877592 5.85343936 -5.670069 4.88490779 -3.3125 4.0625 C-2.549375 3.711875 -1.78625 3.36125 -1 3 C-0.67 2.01 -0.34 1.02 0 0 Z " fill="#D8D8D8" transform="translate(247,104)"/>
<path d="M0 0 C1.66611905 -0.042721 3.33382885 -0.04063832 5 0 C5.33 0.33 5.66 0.66 6 1 C8.32817964 1.36760731 10.6618385 1.70241581 13 2 C13 2.66 13 3.32 13 4 C11.02 4 9.04 4 7 4 C7.33 4.99 7.66 5.98 8 7 C7.34 7 6.68 7 6 7 C6 5.68 6 4.36 6 3 C4.02 3 2.04 3 0 3 C0 2.01 0 1.02 0 0 Z " fill="#AFAFAF" transform="translate(85,582)"/>
<path d="M0 0 C0 1.32 0 2.64 0 4 C0.66 4 1.32 4 2 4 C2 4.66 2 5.32 2 6 C0.02 6 -1.96 6 -4 6 C-4 4.68 -4 3.36 -4 2 C-5.65 2 -7.3 2 -9 2 C-5.86501708 0.14223235 -3.62528568 -0.20140476 0 0 Z " fill="#E5E5E5" transform="translate(91,585)"/>
<path d="M0 0 C1.32 0 2.64 0 4 0 C4 2.97 4 5.94 4 9 C2.35 8.01 0.7 7.02 -1 6 C-0.67 4.02 -0.34 2.04 0 0 Z " fill="#424242" transform="translate(32,526)"/>
<path d="M0 0 C0.66 0 1.32 0 2 0 C2.33 3.3 2.66 6.6 3 10 C1.68 9.67 0.36 9.34 -1 9 C-1.625 5.625 -1.625 5.625 -2 2 C-1.34 1.34 -0.68 0.68 0 0 Z " fill="#121212" transform="translate(565,599)"/>
<path d="M0 0 C3.3 0.33 6.6 0.66 10 1 C10 1.66 10 2.32 10 3 C8.6696875 3.433125 8.6696875 3.433125 7.3125 3.875 C4.49617576 4.83148748 1.74916844 5.86798946 -1 7 C0 5 1 3 2 1 C1.34 0.67 0.68 0.34 0 0 Z " fill="#242424" transform="translate(235,19)"/>
<path d="M0 0 C0.66 0.33 1.32 0.66 2 1 C2 1.66 2 2.32 2 3 C5.3 3 8.6 3 12 3 C12 3.33 12 3.66 12 4 C8.12315913 5.19287411 5.08378077 6 1 6 C1 5.34 1 4.68 1 4 C0.01 4 -0.98 4 -2 4 C-2 3.01 -2 2.02 -2 1 C-1.34 0.67 -0.68 0.34 0 0 Z " fill="#484848" transform="translate(484,72)"/>
<path d="M0 0 C0.33 0 0.66 0 1 0 C1.33 1.65 1.66 3.3 2 5 C2.33 4.67 2.66 4.34 3 4 C5.33297433 3.95907063 7.66705225 3.95758277 10 4 C10 4.33 10 4.66 10 5 C8.35 5 6.7 5 5 5 C5.66 6.98 6.32 8.96 7 11 C6.38125 10.2884375 6.38125 10.2884375 5.75 9.5625 C3.817815 7.83733482 2.51807725 7.43415125 0 7 C-0.38133299 5.0085944 -0.71325582 3.00720923 -1 1 C-0.67 0.67 -0.34 0.34 0 0 Z " fill="#707070" transform="translate(125,572)"/>
<path d="M0 0 C0 0.33 0 0.66 0 1 C-1.010625 1.020625 -2.02125 1.04125 -3.0625 1.0625 C-8.12637044 1.72390349 -10.81696186 5.29451791 -14 9 C-14.66 8.67 -15.32 8.34 -16 8 C-14.75045401 4.25136203 -13.22047468 3.20153225 -10.0546875 1.0078125 C-6.61987393 -0.67694397 -3.76431718 -0.33020326 0 0 Z " fill="#323232" transform="translate(530,510)"/>
<path d="M0 0 C-0.33 0.66 -0.66 1.32 -1 2 C-2.75 2.5625 -2.75 2.5625 -5 3 C-6.2065625 3.2784375 -6.2065625 3.2784375 -7.4375 3.5625 C-10.01137177 4.00194152 -12.39451997 4.07444229 -15 4 C-14.67 3.34 -14.34 2.68 -14 2 C-9.17574056 0.52819204 -5.07522852 -0.25376143 0 0 Z " fill="#A9A9A9" transform="translate(315,304)"/>
<path d="M0 0 C4.75 0.875 4.75 0.875 7 2 C7 2.66 7 3.32 7 4 C1.25 5.125 1.25 5.125 -1 4 C-0.67 2.68 -0.34 1.36 0 0 Z " fill="#2C2C2C" transform="translate(41,569)"/>
<path d="M0 0 C0.99 0.33 1.98 0.66 3 1 C2.34 1.66 1.68 2.32 1 3 C0.28591666 4.98356483 -0.38617742 6.98315437 -1 9 C-1.66 9 -2.32 9 -3 9 C-3.33 9.66 -3.66 10.32 -4 11 C-4.66 10.67 -5.32 10.34 -6 10 C-5.319375 9.1646875 -5.319375 9.1646875 -4.625 8.3125 C-2.96155067 5.94528365 -2.01954325 3.69450717 -1 1 C-0.67 0.67 -0.34 0.34 0 0 Z " fill="#AFAFAF" transform="translate(229,553)"/>
<path d="M0 0 C0.33 0.99 0.66 1.98 1 3 C2.32 2.67 3.64 2.34 5 2 C2.93243723 4.7972908 1.85559629 5.02692273 -1.6875 5.6875 C-2.780625 5.790625 -3.87375 5.89375 -5 6 C-4.67 4.68 -4.34 3.36 -4 2 C-2.68 2 -1.36 2 0 2 C0 1.34 0 0.68 0 0 Z " fill="#B6B6B6" transform="translate(295,249)"/>
<path d="M0 0 C1.98 0.99 3.96 1.98 6 3 C6 5.31 6 7.62 6 10 C4.35 10.33 2.7 10.66 1 11 C1.66 10.34 2.32 9.68 3 9 C3.16681109 5.91652174 3.16681109 5.91652174 3 3 C2.01 3 1.02 3 0 3 C0 2.01 0 1.02 0 0 Z " fill="#969696" transform="translate(186,67)"/>
<path d="M0 0 C0 2.31 0 4.62 0 7 C-0.66 6.34 -1.32 5.68 -2 5 C-3.32 5 -4.64 5 -6 5 C-6.33 4.01 -6.66 3.02 -7 2 C-2.25 0 -2.25 0 0 0 Z " fill="#C7C7C7" transform="translate(179,48)"/>
<path d="M0 0 C0.99 0 1.98 0 3 0 C2.855625 0.515625 2.71125 1.03125 2.5625 1.5625 C1.84190099 4.68509571 1.42733561 7.82550692 1 11 C-1.43769218 7.34346173 -1.23944439 5.30999899 -1 1 C-0.67 0.67 -0.34 0.34 0 0 Z " fill="#4E4E4E" transform="translate(233,118)"/>
<path d="M0 0 C-2.21934164 3.32901247 -3.34683329 3.75023244 -7 5 C-7 4.01 -7 3.02 -7 2 C-8.65 2 -10.3 2 -12 2 C-12 1.67 -12 1.34 -12 1 C-7.95858806 0.36605303 -4.0934693 -0.12404452 0 0 Z " fill="#C2C2C2" transform="translate(285,596)"/>
<path d="M0 0 C0.66 0.33 1.32 0.66 2 1 C2 2.65 2 4.3 2 6 C3.32 6.66 4.64 7.32 6 8 C3.6875 8.625 3.6875 8.625 1 9 C0.01 8.34 -0.98 7.68 -2 7 C-1.34 4.69 -0.68 2.38 0 0 Z " fill="#A1A1A1" transform="translate(212,556)"/>
<path d="M0 0 C0.66 0.66 1.32 1.32 2 2 C1.56237193 5.17280351 0.22638495 8.05667611 -1 11 C-1.33 11 -1.66 11 -2 11 C-2 8.03 -2 5.06 -2 2 C-1.34 2 -0.68 2 0 2 C0 1.34 0 0.68 0 0 Z " fill="#E9E9E9" transform="translate(38,524)"/>
<path d="M0 0 C3.12290635 0.48578543 5.99580359 0.9986012 9 2 C9.6875 4.0625 9.6875 4.0625 10 6 C9.01 6.495 9.01 6.495 8 7 C8 6.34 8 5.68 8 5 C7.05125 4.731875 6.1025 4.46375 5.125 4.1875 C2 3 2 3 0 0 Z " fill="#949494" transform="translate(228,113)"/>
<path d="M0 0 C1.32 0 2.64 0 4 0 C4.33 0.66 4.66 1.32 5 2 C5.66 1.67 6.32 1.34 7 1 C6.67 1.99 6.34 2.98 6 4 C4.35 4.33 2.7 4.66 1 5 C0.67 3.35 0.34 1.7 0 0 Z " fill="#ABABAB" transform="translate(466,660)"/>
<path d="M0 0 C0.99 0.33 1.98 0.66 3 1 C2.34 1 1.68 1 1 1 C1.55312735 5.02992782 2.1558062 9.02022924 3 13 C2.34 13 1.68 13 1 13 C0.63779734 11.20994059 0.28547531 9.41787943 -0.0625 7.625 C-0.25972656 6.62726563 -0.45695313 5.62953125 -0.66015625 4.6015625 C-1 2 -1 2 0 0 Z " fill="#747474" transform="translate(164,445)"/>
<path d="M0 0 C0.99 0.66 1.98 1.32 3 2 C3 2.66 3 3.32 3 4 C2.34 4 1.68 4 1 4 C0.67 5.65 0.34 7.3 0 9 C-0.66 9 -1.32 9 -2 9 C-1.125 1.125 -1.125 1.125 0 0 Z " fill="#2C2C2C" transform="translate(279,275)"/>
<path d="M0 0 C2.31 0 4.62 0 7 0 C6.4225 0.268125 5.845 0.53625 5.25 0.8125 C2.94603902 1.94184834 2.94603902 1.94184834 0.9375 3.625 C-1 5 -1 5 -4 5 C-4.33 5.66 -4.66 6.32 -5 7 C-5.33 6.01 -5.66 5.02 -6 4 C-4.35 3.67 -2.7 3.34 -1 3 C-0.67 2.01 -0.34 1.02 0 0 Z " fill="#858585" transform="translate(308,241)"/>
<path d="M0 0 C2 2 2 2 2 5 C2.99 5.33 3.98 5.66 5 6 C3.02 6 1.04 6 -1 6 C-1.33 4.35 -1.66 2.7 -2 1 C-1.34 0.67 -0.68 0.34 0 0 Z " fill="#B0B0B0" transform="translate(340,620)"/>
<path d="M0 0 C0.33 1.32 0.66 2.64 1 4 C-1.8125 5.5625 -1.8125 5.5625 -5 7 C-5.99 6.67 -6.98 6.34 -8 6 C-7.67 5.34 -7.34 4.68 -7 4 C-3.9375 3.375 -3.9375 3.375 -1 3 C-0.67 2.01 -0.34 1.02 0 0 Z " fill="#999999" transform="translate(124,577)"/>
<path d="M0 0 C0.66 1.32 1.32 2.64 2 4 C4.97 4 7.94 4 11 4 C11 4.33 11 4.66 11 5 C7.92382812 5.29296875 7.92382812 5.29296875 4.84765625 5.5859375 C4.23792969 5.72257813 3.62820313 5.85921875 3 6 C2.67 6.66 2.34 7.32 2 8 C0 6 0 6 -0.125 2.875 C-0.08375 1.92625 -0.0425 0.9775 0 0 Z " fill="#4B4B4B" transform="translate(537,159)"/>
<path d="M0 0 C0.66 0.66 1.32 1.32 2 2 C-0.31 2 -2.62 2 -5 2 C-5.66 3.65 -6.32 5.3 -7 7 C-7.66 7 -8.32 7 -9 7 C-8.42655063 4.13275314 -8.1385485 3.1385485 -6 1 C-3 0.25 -3 0.25 0 0 Z " fill="#AAAAAA" transform="translate(279,624)"/>
<path d="M0 0 C0.99 0.99 1.98 1.98 3 3 C1.75 4.5625 1.75 4.5625 0 6 C-2.1875 5.6875 -2.1875 5.6875 -4 5 C-4 4.34 -4 3.68 -4 3 C-2 1.375 -2 1.375 0 0 Z " fill="#262626" transform="translate(111,610)"/>
<path d="M0 0 C0.33 0.66 0.66 1.32 1 2 C0.01 3.485 0.01 3.485 -1 5 C-4.625 5.1875 -4.625 5.1875 -8 5 C-5.64722731 2.27573689 -3.37503669 1.1858237 0 0 Z " fill="#252525" transform="translate(279,600)"/>
<path d="M0 0 C1.32 0.33 2.64 0.66 4 1 C4.125 7.625 4.125 7.625 3 11 C2.34 11 1.68 11 1 11 C1.01160156 10.37351562 1.02320313 9.74703125 1.03515625 9.1015625 C1.04417969 8.28429687 1.05320313 7.46703125 1.0625 6.625 C1.07990234 5.40683594 1.07990234 5.40683594 1.09765625 4.1640625 C1.14466334 1.95062858 1.14466334 1.95062858 0 0 Z " fill="#BABABA" transform="translate(182,56)"/>
<path d="M0 0 C2.97 0.495 2.97 0.495 6 1 C6.33 2.98 6.66 4.96 7 7 C4.13302508 5.71480435 2.02392288 4.42870746 0 2 C0 1.34 0 0.68 0 0 Z " fill="#333333" transform="translate(266,591)"/>
<path d="M0 0 C0.66 0.33 1.32 0.66 2 1 C1.59007812 1.47050781 1.18015625 1.94101562 0.7578125 2.42578125 C-0.05042969 3.35970703 -0.05042969 3.35970703 -0.875 4.3125 C-1.40867187 4.92738281 -1.94234375 5.54226563 -2.4921875 6.17578125 C-4.1640447 8.13498212 -4.1640447 8.13498212 -6 11 C-5.63076923 4.6 -5.63076923 4.6 -2.4375 1.5625 C-1.633125 1.046875 -0.82875 0.53125 0 0 Z " fill="#CCCCCC" transform="translate(494,274)"/>
<path d="M0 0 C0.33 0 0.66 0 1 0 C1 1.65 1 3.3 1 5 C1.66 5 2.32 5 3 5 C2.67 5.66 2.34 6.32 2 7 C-1 7 -1 7 -4 5 C-3.34 5 -2.68 5 -2 5 C-1.7834375 4.0409375 -1.7834375 4.0409375 -1.5625 3.0625 C-1 1 -1 1 0 0 Z " fill="#343434" transform="translate(187,62)"/>
<path d="M0 0 C0.99 0.33 1.98 0.66 3 1 C3 2.32 3 3.64 3 5 C2.01 5.33 1.02 5.66 0 6 C0 4.02 0 2.04 0 0 Z M-4 8 C-3.01 8.495 -3.01 8.495 -2 9 C-2.99 9.495 -2.99 9.495 -4 10 C-4 9.34 -4 8.68 -4 8 Z " fill="#242424" transform="translate(352,53)"/>
<path d="M0 0 C0.99 0 1.98 0 3 0 C3 1.65 3 3.3 3 5 C1.02 5.99 1.02 5.99 -1 7 C-0.67 4.69 -0.34 2.38 0 0 Z " fill="#363636" transform="translate(143,235)"/>
<path d="M0 0 C1.32 0.33 2.64 0.66 4 1 C3.38125 1.0825 2.7625 1.165 2.125 1.25 C-0.1765144 1.79994195 -0.1765144 1.79994195 -1.125 4 C-1.41375 4.66 -1.7025 5.32 -2 6 C-2.99 6.495 -2.99 6.495 -4 7 C-4 6.34 -4 5.68 -4 5 C-4.66 4.67 -5.32 4.34 -6 4 C-4.35 3.67 -2.7 3.34 -1 3 C-0.67 2.01 -0.34 1.02 0 0 Z " fill="#4A4A4A" transform="translate(294,179)"/>
<path d="M0 0 C0.66 0 1.32 0 2 0 C2 0.99 2 1.98 2 3 C4.64 3 7.28 3 10 3 C10 3.33 10 3.66 10 4 C6.04 4 2.08 4 -2 4 C-1.34 2.68 -0.68 1.36 0 0 Z " fill="#ACACAC" transform="translate(188,175)"/>
<path d="M0 0 C0.66 0.33 1.32 0.66 2 1 C-0.31 3.31 -2.62 5.62 -5 8 C-5.33 7.34 -5.66 6.68 -6 6 C-2.25 1.125 -2.25 1.125 0 0 Z " fill="#282828" transform="translate(255,100)"/>
<path d="M0 0 C0.66 0.99 1.32 1.98 2 3 C-1.96 4.98 -1.96 4.98 -6 7 C-6 6.01 -6 5.02 -6 4 C-4.68 3.67 -3.36 3.34 -2 3 C-2 2.34 -2 1.68 -2 1 C-1.34 0.67 -0.68 0.34 0 0 Z " fill="#B6B6B6" transform="translate(276,77)"/>
<path d="M0 0 C0.66 0.33 1.32 0.66 2 1 C0.02 3.31 -1.96 5.62 -4 8 C-4.33 6.68 -4.66 5.36 -5 4 C-3.35 2.68 -1.7 1.36 0 0 Z " fill="#D0D0D0" transform="translate(508,382)"/>
<path d="M0 0 C0.33 0.99 0.66 1.98 1 3 C1.99 3 2.98 3 4 3 C4 3.99 4 4.98 4 6 C1.5625 5.625 1.5625 5.625 -1 5 C-1.33 4.34 -1.66 3.68 -2 3 C-1.34 3 -0.68 3 0 3 C0 2.01 0 1.02 0 0 Z " fill="#D2D2D2" transform="translate(481,73)"/>
</svg>
