<?xml version="1.0" encoding="UTF-8"?>
<svg version="1.1" xmlns="http://www.w3.org/2000/svg" width="834" height="724">
<path d="M0 0 C2.25 -0.3125 2.25 -0.3125 5 0 C5.804375 1.175625 5.804375 1.175625 6.625 2.375 C9.90567169 6.00100555 12.91373348 5.97370827 17.63671875 6.54296875 C18.41660156 6.69378906 19.19648437 6.84460938 20 7 C20.33 7.66 20.66 8.32 21 9 C23.94091587 8.81584568 23.94091587 8.81584568 27 8 C27.33 7.34 27.66 6.68 28 6 C28.33 5.34 28.66 4.68 29 4 C32.125 3.25 32.125 3.25 35 3 C35 3.66 35 4.32 35 5 C35.70125 5.12375 36.4025 5.2475 37.125 5.375 C41.55014579 6.33698821 45.2178186 7.47854573 49 10 C50.175625 10.144375 51.35125 10.28875 52.5625 10.4375 C54.2640625 10.7159375 54.2640625 10.7159375 56 11 C56.66 11.99 57.32 12.98 58 14 C59.64821244 15.03013277 61.31503702 16.03114628 63 17 C63.66 17.66 64.32 18.32 65 19 C65.845625 19.309375 66.69125 19.61875 67.5625 19.9375 C68.366875 20.288125 69.17125 20.63875 70 21 C70.33 21.99 70.66 22.98 71 24 C72.65 24 74.3 24 76 24 C76 23.34 76 22.68 76 22 C78.69296381 20.42910445 80.7517114 19.85450747 83.875 19.25 C87.24602495 18.48698508 88.86896757 17.42718299 91.1875 14.875 C93.7369868 12.07056452 93.7369868 12.07056452 96.5625 11.3125 C101.12482156 12.59930865 103.46384853 16.1957728 106 20 C107.65697379 20.69040574 109.3255761 21.3530635 111 22 C111.99 22.680625 112.98 23.36125 114 24.0625 C116.84594422 25.90050564 118.68329188 26.60979904 122 27 C122.1546875 28.0209375 122.1546875 28.0209375 122.3125 29.0625 C123.15757717 32.67328428 124.29058542 35.70327189 126 39 C127.65261839 40.02304948 129.31791365 41.02616054 131 42 C132.71408728 46.35114463 132.65720341 52.38392845 132 57 C131.21882812 57.76957031 131.21882812 57.76957031 130.421875 58.5546875 C129.95265625 59.03164062 129.4834375 59.50859375 129 60 C129.2479632 61.93321239 129.2479632 61.93321239 130 64 C130.59976566 69.51784411 130.99984809 74.22606724 127.5625 78.8125 C123.60013585 84.1516178 124.09904958 90.58879074 124 97 C128.69614083 98.14403431 131.35789803 97.3375548 136 96 C140.31074641 95.40685466 143.81188279 95.55282576 147.5 98 C148.325 98.66 149.15 99.32 150 100 C148.20754717 120.79245283 148.20754717 120.79245283 144 125 C143.53709779 127.66242821 143.53709779 127.66242821 143.375 130.625 C143.30023437 131.62789062 143.22546875 132.63078125 143.1484375 133.6640625 C143.09945312 134.43492187 143.05046875 135.20578125 143 136 C145.31 136 147.62 136 150 136 C150.33 137.65 150.66 139.3 151 141 C151.845625 140.71125 152.69125 140.4225 153.5625 140.125 C157.28461814 139.98965025 157.80208291 140.17150916 160.5625 142.375 C166.19982934 147.76344063 168.96063743 154.40804581 171.26171875 161.72265625 C173.42268434 169.175409 173.42268434 169.175409 178.5 174.5625 C181.23368822 175.11492022 181.23368822 175.11492022 185 175 C186.15569567 177.31139135 186.13192579 178.86938589 186.25 181.4375 C186.43243058 183.84566764 186.43243058 183.84566764 187 186 C189.30305165 187.89858275 189.30305165 187.89858275 192 189 C194.48181813 191.7575757 195.6952996 194.55186323 197 198 C197.33 198.33 197.66 198.66 198 199 C198.04063832 200.66617115 198.042721 202.33388095 198 204 C196.68 204.33 195.36 204.66 194 205 C194.56682715 210.35578417 194.56682715 210.35578417 197.703125 214.421875 C201.08388578 216.20258106 203.45444414 217 207.3125 217 C208.199375 217 209.08625 217 210 217 C211.875 219 211.875 219 213 221 C212.34 221 211.68 221 211 221 C211.6496875 222.0828125 211.6496875 222.0828125 212.3125 223.1875 C213.1478125 224.5796875 213.1478125 224.5796875 214 226 C214.515625 226.804375 215.03125 227.60875 215.5625 228.4375 C217.12185799 231.21722511 218.07945637 233.95512493 219 237 C219.78157426 230.09609405 217.86385959 226.22280367 214.3125 220.3203125 C213 218 213 218 213 216 C212.34 216 211.68 216 211 216 C211 215.01 211 214.02 211 213 C210.443125 212.938125 209.88625 212.87625 209.3125 212.8125 C206.03587043 211.66125177 204.33412994 209.51840336 202 207 C201.34 206.34 200.68 205.68 200 205 C200 203.68 200 202.36 200 201 C200.66 201 201.32 201 202 201 C202 200.01 202 199.02 202 198 C204.475 198.99 204.475 198.99 207 200 C207 199.01 207 198.02 207 197 C212.53221932 197.34576371 216.31020829 200.08086109 220 204 C226.66145354 213.04459705 228.71606799 221.42913275 228.75 232.625 C228.75322266 233.65608887 228.75644531 234.68717773 228.75976562 235.74951172 C228.5805561 241.81973655 227.84767847 245.28886613 224 250 C223.835 250.7425 223.67 251.485 223.5 252.25 C223 254 223 254 221 255.125 C220.34 255.41375 219.68 255.7025 219 256 C218.67 256.66 218.34 257.32 218 258 C217.4225 258.268125 216.845 258.53625 216.25 258.8125 C213.76567303 259.9820862 213.76567303 259.9820862 211.4375 262.5625 C209 265 209 265 206 266 C206 265.34 206 264.68 206 264 C205.45730469 264.20496094 204.91460938 264.40992188 204.35546875 264.62109375 C203.64003906 264.89050781 202.92460938 265.15992188 202.1875 265.4375 C201.47980469 265.70433594 200.77210938 265.97117187 200.04296875 266.24609375 C198.37327604 266.86225186 196.68842296 267.43719235 195 268 C195 268.99 195 269.98 195 271 C193.1746875 271.061875 193.1746875 271.061875 191.3125 271.125 C187.71242228 271.57895026 187.15294921 271.83940333 184.5 274.625 C183.92958984 275.42744141 183.92958984 275.42744141 183.34765625 276.24609375 C180.2682447 280.25379168 176.02260149 283.66486592 171.81640625 286.44140625 C169.58843908 288.35314582 169.40060581 289.38566844 169 292.25 C168.16553318 296.88508391 166.52510712 300.04399885 164 304 C165.32 304.33 166.64 304.66 168 305 C168 305.99 168 306.98 168 308 C167.34 308 166.68 308 166 308 C166 308.99 166 309.98 166 311 C166.78375 310.34 167.5675 309.68 168.375 309 C171 307 171 307 173 307 C173 307.99 173 308.98 173 310 C173.66 310 174.32 310 175 310 C175 309.34 175 308.68 175 308 C177.31 308 179.62 308 182 308 C182.226875 307.401875 182.45375 306.80375 182.6875 306.1875 C184.35899637 303.40167272 186.2056404 302.62462768 189 301 C189.73476563 300.21882813 190.46953125 299.43765625 191.2265625 298.6328125 C194.24505846 295.76736704 197.33585997 294.04738332 201.0625 292.3125 C201.67416016 292.01794922 202.28582031 291.72339844 202.91601562 291.41992188 C204.60732057 290.60626707 206.30349506 289.80275621 208 289 C208.74121094 288.60167969 209.48242188 288.20335937 210.24609375 287.79296875 C212 287 212 287 215 287 C215 287.66 215 288.32 215 289 C215.66 289 216.32 289 217 289 C217.33 289.66 217.66 290.32 218 291 C220.93756119 291.0269501 223.87487555 291.04681474 226.8125 291.0625 C227.64587891 291.07087891 228.47925781 291.07925781 229.33789062 291.08789062 C230.54155273 291.09272461 230.54155273 291.09272461 231.76953125 291.09765625 C232.50792236 291.10289307 233.24631348 291.10812988 234.00708008 291.11352539 C236.21057409 291.07523213 236.21057409 291.07523213 239 290 C239 290.66 239 291.32 239 292 C241.03241727 291.36020151 241.03241727 291.36020151 243 290 C243.81171228 287.44480079 243.81171228 287.44480079 244 285 C245.65 285.33 247.3 285.66 249 286 C249 286.66 249 287.32 249 288 C249.515625 287.649375 250.03125 287.29875 250.5625 286.9375 C253.94006667 285.6384359 256.50468057 286.32782319 260 287 C260.33 288.32 260.66 289.64 261 291 C261.66 291 262.32 291 263 291 C263.61875 291.94875 264.2375 292.8975 264.875 293.875 C267.0020933 297.00307838 267.80947627 297.45974717 271 299 C271.3721042 300.32303717 271.70630173 301.65737935 272 303 C272.99 303.66 273.98 304.32 275 305 C275.22265625 307.72265625 275.22265625 307.72265625 275.0625 311.0625 C274.83464569 319.2212159 274.83464569 319.2212159 277 327 C278.65261839 328.02304948 280.31791365 329.02616054 282 330 C282.3125 333.6875 282.3125 333.6875 282 337 C282.78375 337.103125 283.5675 337.20625 284.375 337.3125 C287 338 287 338 289 341 C289.20901316 344.13519735 289.02862211 346.85052896 288.4375 349.9375 C287.92906832 353.49652177 288.36596457 356.47758096 289 360 C289.66 360 290.32 360 291 360 C291.30744141 361.68029297 291.30744141 361.68029297 291.62109375 363.39453125 C291.89311689 364.86720824 292.16525849 366.33986336 292.4375 367.8125 C292.57220703 368.55048828 292.70691406 369.28847656 292.84570312 370.04882812 C293.41419737 373.11315076 294.01309651 376.03928953 295 379 C297.31 379.33 299.62 379.66 302 380 C301.835 381.134375 301.67 382.26875 301.5 383.4375 C300.92423916 387.97060294 300.90494734 392.43747238 301 397 C300.01 397.33 299.02 397.66 298 398 C297.731875 399.11375 297.46375 400.2275 297.1875 401.375 C296 405 296 405 292.9375 406.6875 C291.968125 407.120625 290.99875 407.55375 290 408 C289.03955898 410.07690578 289.03955898 410.07690578 289 412 C289.66 412.33 290.32 412.66 291 413 C291 413.66 291 414.32 291 415 C291.66 415 292.32 415 293 415 C293.33 420.94 293.66 426.88 294 433 C292.02 433 290.04 433 288 433 C287.690625 433.94875 287.38125 434.8975 287.0625 435.875 C286 439 286 439 285 441 C286.32 441.33 287.64 441.66 289 442 C288.67 443.65 288.34 445.3 288 447 C287.01 446.67 286.02 446.34 285 446 C284.67 449.96 284.34 453.92 284 458 C282.68 457.67 281.36 457.34 280 457 C279.67 455.68 279.34 454.36 279 453 C278.01 453.33 277.02 453.66 276 454 C274.03723968 451.05585952 273.74523621 450.19795067 273.5 446.875 C273.335 445.59625 273.17 444.3175 273 443 C272.34 442.67 271.68 442.34 271 442 C270.15934368 440.03700146 269.53482652 438.03929129 268.87890625 436.0078125 C267.91266359 433.80048483 266.70680547 432.66401647 265 431 C265 430.34 265 429.68 265 429 C263.35 428.67 261.7 428.34 260 428 C259.49853343 420.42228293 260.05001202 415.54216759 264 409 C264.99 409 265.98 409 267 409 C267 408.34 267 407.68 267 407 C267.66 407 268.32 407 269 407 C269 406.01 269 405.02 269 404 C269.66 404 270.32 404 271 404 C272.05694073 399.41992351 271.80141712 395.68682529 271.1875 391.10546875 C270.9625887 388.57990224 271.45279006 386.46244473 272 384 C271.60602665 381.36195411 271.60602665 381.36195411 271 379 C271 378.34 271 377.68 271 377 C270.34 377 269.68 377 269 377 C268.01751476 372.9472484 267.91840426 369.16138263 268 365 C267.34 365 266.68 365 266 365 C265.67 363.02 265.34 361.04 265 359 C263.02 359 261.04 359 259 359 C258.74605469 358.43410156 258.49210938 357.86820312 258.23046875 357.28515625 C257.88628906 356.55167969 257.54210937 355.81820313 257.1875 355.0625 C256.85105469 354.33160156 256.51460937 353.60070312 256.16796875 352.84765625 C255.06399866 350.66970511 255.06399866 350.66970511 252 350 C251.7525 349.360625 251.505 348.72125 251.25 348.0625 C250.04876124 345.58449544 250.04876124 345.58449544 246.375 344.75 C244.704375 344.37875 244.704375 344.37875 243 344 C243 343.34 243 342.68 243 342 C242.29875 341.979375 241.5975 341.95875 240.875 341.9375 C236.6206376 340.55020791 234.64692861 337.48375828 232 334 C228.97447872 334.67463981 228.97447872 334.67463981 227.83203125 336.69140625 C226.81391687 339.51631518 226.75932645 341.93969084 226.6875 344.9375 C226.27162548 351.48752376 226.27162548 351.48752376 223.4375 354.25 C222.633125 354.8275 221.82875 355.405 221 356 C222.32 356 223.64 356 225 356 C225 356.66 225 357.32 225 358 C225.78375 358.103125 226.5675 358.20625 227.375 358.3125 C230 359 230 359 232 362 C232.99 362.33 233.98 362.66 235 363 C235 363.66 235 364.32 235 365 C236.32 365 237.64 365 239 365 C239 365.66 239 366.32 239 367 C238.01 367.495 238.01 367.495 237 368 C236.34 368.99 235.68 369.98 235 371 C234.34 371 233.68 371 233 371 C232.67 372.65 232.34 374.3 232 376 C235.13349732 377.04449911 235.98968256 376.93423645 239 376 C239 378.31 239 380.62 239 383 C239.66 383 240.32 383 241 383 C239.125 389.75 239.125 389.75 238 392 C239.32 391.67 240.64 391.34 242 391 C242.33 392.65 242.66 394.3 243 396 C243.66 396 244.32 396 245 396 C245.33 395.34 245.66 394.68 246 394 C245.67 396.31 245.34 398.62 245 401 C244.34 401 243.68 401 243 401 C243 401.99 243 402.98 243 404 C243.99 404.33 244.98 404.66 246 405 C246 406.65 246 408.3 246 410 C244.68 410.33 243.36 410.66 242 411 C242.05220703 412.37671875 242.05220703 412.37671875 242.10546875 413.78125 C242.39512195 426.91219512 242.39512195 426.91219512 239 433 C236.5 434.4375 236.5 434.4375 234 435 C233.01 435.33 232.02 435.66 231 436 C231 436.99 231 437.98 231 439 C233.97 439.33 236.94 439.66 240 440 C240 439.34 240 438.68 240 438 C241.24735567 437.3490741 242.49801832 436.70448331 243.75 436.0625 C244.79414062 435.52302734 244.79414062 435.52302734 245.859375 434.97265625 C247.92799987 434.03271539 249.75962824 433.37182641 252 433 C252.66 433.33 253.32 433.66 254 434 C254 433.34 254 432.68 254 432 C256.97 432 259.94 432 263 432 C263 433.32 263 434.64 263 436 C262.34 436 261.68 436 261 436 C261 436.66 261 437.32 261 438 C261.66 438 262.32 438 263 438 C263 438.66 263 439.32 263 440 C263.66 440 264.32 440 265 440 C264.67 438.35 264.34 436.7 264 435 C264.99 435 265.98 435 267 435 C268.84566532 438.98393611 269.36022829 442.44376683 269.625 446.8125 C269.69976563 447.97394531 269.77453125 449.13539063 269.8515625 450.33203125 C269.90054688 451.21246094 269.94953125 452.09289062 270 453 C270.66 453 271.32 453 272 453 C271.835 453.70125 271.67 454.4025 271.5 455.125 C270.97584662 458.13888194 270.92900317 460.94713625 271 464 C272.65 464.33 274.3 464.66 276 465 C275.67 466.32 275.34 467.64 275 469 C273.02 469.33 271.04 469.66 269 470 C268.76216797 470.97839844 268.76216797 470.97839844 268.51953125 471.9765625 C266.9495398 477.85752494 265.31883296 481.68116704 261 486 C260.01 486.495 260.01 486.495 259 487 C258.505 487.845625 258.01 488.69125 257.5 489.5625 C256.7575 490.7690625 256.7575 490.7690625 256 492 C255.34 492 254.68 492 254 492 C253.9175 492.78375 253.835 493.5675 253.75 494.375 C253 497 253 497 250.9375 498.3125 C250.298125 498.539375 249.65875 498.76625 249 499 C248.938125 498.071875 248.938125 498.071875 248.875 497.125 C248.58625 496.42375 248.2975 495.7225 248 495 C245.00384054 493.6954344 245.00384054 493.6954344 242 493 C241.67 493.66 241.34 494.32 241 495 C241.66 495 242.32 495 243 495 C243.33 497.64 243.66 500.28 244 503 C243.01 503 242.02 503 241 503 C240.87625 503.928125 240.87625 503.928125 240.75 504.875 C240 507 240 507 237.9375 508.25 C237.298125 508.4975 236.65875 508.745 236 509 C232.55041549 506.33441197 232.05989657 503.08817247 231 499 C229.94458856 497.71492704 229.94458856 497.71492704 227.53125 497.9375 C226.03078125 497.9684375 226.03078125 497.9684375 224.5 498 C222.66705624 498.03779265 220.8327461 498.04639864 219 498 C218.67 497.67 218.34 497.34 218 497 C215.32941149 496.85884839 212.67567762 496.95752893 210 497 C210 497.66 210 498.32 210 499 C209.21625 499.12375 208.4325 499.2475 207.625 499.375 C204.85942178 499.79117993 204.85942178 499.79117993 203 502 C202.67 501.67 202.34 501.34 202 501 C200.14712498 500.92773498 198.29166122 500.9161878 196.4375 500.9375 C194.91962891 500.95103516 194.91962891 500.95103516 193.37109375 500.96484375 C192.58863281 500.97644531 191.80617188 500.98804688 191 501 C189.515 498.03 189.515 498.03 188 495 C189.32 495 190.64 495 192 495 C191.91621094 494.31292969 191.83242188 493.62585938 191.74609375 492.91796875 C191.64425781 492.01691406 191.54242187 491.11585938 191.4375 490.1875 C191.33308594 489.29417969 191.22867188 488.40085937 191.12109375 487.48046875 C191 485 191 485 192 482 C191.34 482 190.68 482 190 482 C189.8453125 483.670625 189.8453125 483.670625 189.6875 485.375 C189.460625 486.57125 189.23375 487.7675 189 489 C188.01 489.66 187.02 490.32 186 491 C185.505 491.845625 185.01 492.69125 184.5 493.5625 C183 496 183 496 180 497 C180.33 497.99 180.66 498.98 181 500 C181.78375 499.505 182.5675 499.01 183.375 498.5 C186 497 186 497 188 497 C188.2890625 499.75390625 188.2890625 499.75390625 188 503 C186.0234375 505.08984375 186.0234375 505.08984375 183.375 506.9375 C176.90531037 511.71241229 176.90531037 511.71241229 172 518 C171.9251086 521.22033006 172.58752716 522.45003621 174.5 525 C178.28829497 530.05105997 177.58957554 537.9970491 177 544 C176.12818879 546.43650295 175.06384179 548.62674987 173.875 550.921875 C172.74129533 553.23861969 172.74129533 553.23861969 173 557 C173 563.38408552 171.13489572 567.75909062 166.71875 572.39453125 C163.60697312 575.22043707 160.42407743 577.91014483 157.0859375 580.46484375 C154.24766217 582.65297227 153.09427897 583.63013635 152.1875 587.1875 C151.5996875 588.5796875 151.5996875 588.5796875 151 590 C148.76753744 590.74715481 146.5766131 591.08029886 144.25390625 591.453125 C140.76276346 592.30019604 139.18115943 594.24147484 137 597 C136.525625 597.86625 136.05125 598.7325 135.5625 599.625 C133.50947186 602.74560278 131.37707268 603.47700644 128 605 C125.95210074 606.27239092 123.9849118 607.62946566 122 609 C122 608.34 122 607.68 122 607 C121.05125 606.896875 120.1025 606.79375 119.125 606.6875 C116 606 116 606 114 603 C111.94996045 601.80767387 111.94996045 601.80767387 110 601 C110.6875 599.0625 110.6875 599.0625 112 597 C114.625 596.25 114.625 596.25 117 596 C116.67 594.68 116.34 593.36 116 592 C115.01 592 114.02 592 113 592 C113 591.34 113 590.68 113 590 C111.98679687 590.02320313 110.97359375 590.04640625 109.9296875 590.0703125 C108.57813242 590.0890841 107.22656931 590.1072828 105.875 590.125 C105.20984375 590.14175781 104.5446875 590.15851562 103.859375 590.17578125 C98.34298505 590.2298635 94.15020521 589.22868869 89.375 586.5 C86.3842469 583.35183884 85.43971149 580.25636033 84.1875 576.14453125 C83.19113209 573.78996823 83.19113209 573.78996823 80.75 573.1875 C77.80110409 572.98643892 74.95206079 573.0481808 72 573.1875 C67.94228455 573.23241936 66.37890779 573.22288694 62.8125 571.125 C61 569 61 569 60 567 C55.16743695 567.41421969 53.17320782 569.46413986 50 573 C47 572 47 572 45.3125 569.0625 C44 566 44 566 44 564 C42.02 564.33 40.04 564.66 38 565 C38.05800781 566.16917969 38.11601563 567.33835937 38.17578125 568.54296875 C38.22269449 570.0911058 38.26819298 571.63928617 38.3125 573.1875 C38.35439453 573.95642578 38.39628906 574.72535156 38.43945312 575.51757812 C38.53236981 579.84749583 38.45018491 581.4499372 35.60546875 584.92578125 C34.74566406 585.61027344 33.88585937 586.29476562 33 587 C32.34 587.66 31.68 588.32 31 589 C28.37354567 589.79082251 25.78826833 590.48864385 23.125 591.125 C22.04412109 591.39763672 22.04412109 591.39763672 20.94140625 591.67578125 C17.50054947 592.51856938 14.56318117 593 11 593 C10.938125 591.3603125 10.938125 591.3603125 10.875 589.6875 C10.39434602 585.75003667 10.39434602 585.75003667 6.9375 584.0625 C5.968125 583.711875 4.99875 583.36125 4 583 C4.165 583.721875 4.33 584.44375 4.5 585.1875 C3.91083332 588.50156259 3.3980739 588.89757052 0.75 590.8125 C-3.87185367 593.46532867 -7.95261383 593.34274111 -13.16796875 592.98046875 C-16.27771681 593.00191529 -18.16381705 593.7983056 -21 595 C-23.23828125 595.1953125 -23.23828125 595.1953125 -25.3125 595.125 C-26.529375 595.08375 -27.74625 595.0425 -29 595 C-29.33 596.32 -29.66 597.64 -30 599 C-32.31 599.33 -34.62 599.66 -37 600 C-37 600.66 -37 601.32 -37 602 C-38.8203125 601.80078125 -38.8203125 601.80078125 -41 601 C-42.4921875 598.85546875 -42.4921875 598.85546875 -43.875 596.1875 C-46.41162123 591.6642902 -48.43239916 589.39255282 -53 587 C-52.71831703 585.04020573 -52.42433283 583.08217622 -52.125 581.125 C-51.88136719 579.48917969 -51.88136719 579.48917969 -51.6328125 577.8203125 C-51 575 -51 575 -49 573 C-49.33286656 570.00420097 -49.85434564 567.37870133 -50.9375 564.5625 C-51.02819833 560.84386866 -49.02730638 559.58347537 -46.57421875 556.953125 C-43.04881385 552.57917352 -41.94074128 547.77776163 -42.125 542.25 C-43.82615292 535.93143201 -47.25296921 532.6030592 -52.375 528.75 C-53.22191406 528.08097656 -53.22191406 528.08097656 -54.0859375 527.3984375 C-57.32991643 524.92039804 -59.90727128 523.39854287 -64 523 C-65.98 525.31 -67.96 527.62 -70 530 C-75.32020146 528.59266842 -78.89588091 526.17305808 -83.125 522.8125 C-83.73214844 522.35552734 -84.33929688 521.89855469 -84.96484375 521.42773438 C-91.59826825 516.21782254 -94.28051304 510.30552452 -96.25 502.25 C-96.42273438 501.59128906 -96.59546875 500.93257812 -96.7734375 500.25390625 C-97.49785415 497.41948238 -98 494.93747757 -98 492 C-98.8353125 491.62875 -98.8353125 491.62875 -99.6875 491.25 C-104.73889637 488.51951548 -104.73889637 488.51951548 -107 486 C-106.82082031 484.7109375 -106.64164062 483.421875 -106.45703125 482.09375 C-105.61726056 476.0336183 -107.21272604 470.8656831 -108.875 465.0625 C-109.15730469 464.02287109 -109.43960937 462.98324219 -109.73046875 461.91210938 C-111.04300897 456.83671805 -111.04300897 456.83671805 -113 452 C-114.30171764 451.60805425 -115.61683876 451.25990374 -116.9375 450.9375 C-119.13671875 450.17578125 -119.13671875 450.17578125 -121 449 C-121.93005263 446.74254832 -122.23632718 444.77803046 -122.453125 442.3515625 C-124.37835045 434.07309305 -134.95302359 428.26297449 -141.76123047 423.86132812 C-147.88275753 420.10536725 -152.63997449 417.24557545 -160 418 C-162.05870478 420.00849247 -163.4196589 421.66168966 -165 424 C-165.99489882 425.33714401 -166.99509733 426.67035779 -168 428 C-168.49886719 428.680625 -168.99773437 429.36125 -169.51171875 430.0625 C-170.86185504 431.82015774 -172.2941132 433.38972236 -173.8125 435 C-176.36075383 437.90362523 -176.36075383 437.90362523 -176.125 441.875 C-176.29709343 445.18939192 -176.90492134 445.91303594 -179.42578125 448.21875 C-182.23609877 450.23080612 -185.10057425 452.12000705 -188 454 C-188.66 454.66 -189.32 455.32 -190 456 C-192.68839385 456.26991906 -195.29141936 456.08737357 -198 456 C-197.896875 457.2375 -197.79375 458.475 -197.6875 459.75 C-197.671875 461.9609375 -197.671875 461.9609375 -198 464 C-200.4375 466.375 -200.4375 466.375 -203 468 C-204.35439668 470.70879335 -204.06501451 473.00933268 -204 476 C-202.02 476.99 -200.04 477.98 -198 479 C-198 481.31 -198 483.62 -198 486 C-195.69 486.33 -193.38 486.66 -191 487 C-189.64290496 494.73059495 -188.68081627 502.14453364 -189 510 C-190.32 510.66 -191.64 511.32 -193 512 C-193 512.66 -193 513.32 -193 514 C-193.85722656 514.01417969 -194.71445312 514.02835938 -195.59765625 514.04296875 C-203.12790615 514.35708289 -207.29296393 515.05390207 -213 520 C-213.66 520 -214.32 520 -215 520 C-214.34 521.65 -213.68 523.3 -213 525 C-214.98 525.66 -216.96 526.32 -219 527 C-218.83242188 527.77085937 -218.66484375 528.54171875 -218.4921875 529.3359375 C-218.28851563 530.33882812 -218.08484375 531.34171875 -217.875 532.375 C-217.66617187 533.37273438 -217.45734375 534.37046875 -217.2421875 535.3984375 C-217.16226562 536.25695312 -217.08234375 537.11546875 -217 538 C-217.66 538.66 -218.32 539.32 -219 540 C-219.0928125 541.918125 -219.0928125 541.918125 -219.1875 543.875 C-219.72561023 550.47223145 -223.47971098 555.56790911 -227 561 C-228.98 560.67 -230.96 560.34 -233 560 C-232.40546697 546.3667426 -232.40546697 546.3667426 -229 540 C-231.78723657 539.4136018 -231.78723657 539.4136018 -235 540 C-237.26985151 542.02910968 -238.75060254 544.23059826 -240 547 C-240.1861468 549.74153878 -240.1861468 549.74153878 -239 552 C-238.48953125 552.44601562 -237.9790625 552.89203125 -237.453125 553.3515625 C-235.53694279 555.52529609 -235.65703188 556.77087865 -235.75 559.625 C-235.76546875 560.42164063 -235.7809375 561.21828125 -235.796875 562.0390625 C-236 564 -236 564 -237 565 C-241.58184139 565.57746348 -244.9458539 565.80899584 -248.6875 562.9375 C-249.450625 562.298125 -250.21375 561.65875 -251 561 C-254.03344954 561.08885 -254.03344954 561.08885 -257 562 C-257.94875 562.185625 -258.8975 562.37125 -259.875 562.5625 C-260.57625 562.706875 -261.2775 562.85125 -262 563 C-261.67 560.03 -261.34 557.06 -261 554 C-263.64 554 -266.28 554 -269 554 C-268.38722388 551.03824877 -267.74627478 549.61941217 -266 547 C-268.22741539 547.72791353 -270.45049386 548.46487349 -272.66796875 549.22265625 C-274.42746187 549.80915396 -276.20982496 550.32766093 -278 550.8125 C-280.36518154 551.89955787 -280.36518154 551.89955787 -280.8125 555.125 C-280.874375 556.07375 -280.93625 557.0225 -281 558 C-285.02266259 559.13459714 -287.41540129 558.98433184 -291.1875 557.4375 C-296.72271954 555.3405397 -301.41346811 556.54854592 -307 558 C-307.4125 557.38125 -307.825 556.7625 -308.25 556.125 C-310.71057546 553.13715837 -312.70285376 552.19598627 -316.5078125 551.62109375 C-317.37148438 551.56050781 -318.23515625 551.49992188 -319.125 551.4375 C-323.80555556 551.09722222 -323.80555556 551.09722222 -326 550 C-326.203125 547.85546875 -326.203125 547.85546875 -326.25 545.1875 C-326.39388175 542.47416268 -326.39388175 542.47416268 -327 540 C-329.77616548 537.53786305 -329.77616548 537.53786305 -333 536 C-333.474375 535.29875 -333.94875 534.5975 -334.4375 533.875 C-335.98425498 531.64618349 -335.98425498 531.64618349 -339.4375 531.125 C-343.88256068 529.72129663 -344.88661468 528.05769982 -347 524 C-347 523.34 -347 522.68 -347 522 C-348.1144751 522.05647705 -349.2289502 522.1129541 -350.37719727 522.17114258 C-354.53415074 522.37476386 -358.69193051 522.54344482 -362.85083008 522.7019043 C-364.64648763 522.77514035 -366.4417913 522.85769684 -368.23657227 522.94995117 C-370.82530199 523.08136242 -373.41347737 523.17856571 -376.00390625 523.26953125 C-376.79898087 523.31721146 -377.59405548 523.36489166 -378.41322327 523.41401672 C-385.20921162 523.59635877 -388.63647278 521.07242335 -393.5105896 516.62014771 C-397.17972902 512.79080859 -397.7025867 509.260856 -397.6875 504.1875 C-397.82963596 498.97366737 -398.14057364 494.12050122 -399.59765625 489.08984375 C-400.18176504 486.0558806 -400.05545888 483.07981623 -400 480 C-401.26457031 479.67386719 -402.52914062 479.34773438 -403.83203125 479.01171875 C-405.49232992 478.57084848 -407.15247848 478.12941267 -408.8125 477.6875 C-409.64587891 477.47416016 -410.47925781 477.26082031 -411.33789062 477.04101562 C-412.14033203 476.82509766 -412.94277344 476.60917969 -413.76953125 476.38671875 C-414.50792236 476.19295654 -415.24631348 475.99919434 -416.00708008 475.79956055 C-418.31135316 474.87508494 -419.4719761 473.94971021 -421 472 C-421.35840222 469.67038557 -421.68848712 467.33634657 -422 465 C-424.87710165 457.19072409 -428.60817201 452.11346239 -435 447 C-435.33 446.34 -435.66 445.68 -436 445 C-437.175625 445.165 -438.35125 445.33 -439.5625 445.5 C-442.17707279 445.46336851 -443.58262164 445.29263382 -445.73828125 443.78125 C-449.26164443 439.94675451 -451.84712643 435.62247669 -454.49389648 431.16918945 C-458.77554141 423.98817604 -462.61513694 418.85667321 -469.45703125 413.89453125 C-472.31718649 411.76369363 -474.72928055 409.76146101 -477 407 C-477.05078125 404.32421875 -477.05078125 404.32421875 -476.3125 401.6875 C-476.08175781 400.80449219 -475.85101563 399.92148437 -475.61328125 399.01171875 C-475.30970703 398.01591797 -475.30970703 398.01591797 -475 397 C-476.11375 396.9175 -477.2275 396.835 -478.375 396.75 C-482 396 -482 396 -483.4375 393.9375 C-483.623125 393.298125 -483.80875 392.65875 -484 392 C-478.60539047 389.72858546 -473.73842251 389.79586639 -468 390 C-468 389.34 -468 388.68 -468 388 C-467.31292969 387.74605469 -466.62585938 387.49210937 -465.91796875 387.23046875 C-465.01691406 386.88628906 -464.11585938 386.54210937 -463.1875 386.1875 C-462.29417969 385.85105469 -461.40085937 385.51460938 -460.48046875 385.16796875 C-458.04270699 384.02010928 -456.83100482 382.91423231 -455 381 C-451.8125 379.8125 -451.8125 379.8125 -449 379 C-449.04382813 378.44054687 -449.08765625 377.88109375 -449.1328125 377.3046875 C-449.10264763 367.92341359 -443.47427383 362.07093702 -438 355 C-437.67 354.34 -437.34 353.68 -437 353 C-434.4363053 353.28318132 -431.87438474 353.57622493 -429.3125 353.875 C-428.59126953 353.95363281 -427.87003906 354.03226562 -427.12695312 354.11328125 C-423.08879167 354.59269768 -419.75560896 355.35734708 -416 357 C-413.33238236 357.25124826 -413.33238236 357.25124826 -411 357 C-410.67 356.67 -410.34 356.34 -410 356 C-408.25309636 355.83735725 -406.50181351 355.72130388 -404.75 355.625 C-397.97280419 355.12811425 -391.56991319 353.68486483 -385 352 C-385 350.96875 -385 349.9375 -385 348.875 C-384.64565887 346.2120727 -384.24877325 345.23203962 -382.2578125 343.375 C-380.82624717 342.36818482 -379.38047805 341.38129218 -377.921875 340.4140625 C-375.7734996 339.02686191 -375.7734996 339.02686191 -374.375 336.25 C-373 334 -373 334 -370.25 333.125 C-366.82183564 331.93832772 -366.01183995 331.12094946 -363.6875 328.5 C-359.84217417 324.35291094 -356.51760407 323.76397595 -351 323 C-351.33 319.37 -351.66 315.74 -352 312 C-352.825 312.66 -353.65 313.32 -354.5 314 C-357.56089091 316.00218276 -360.26478935 316.70450146 -363.9921875 316.52734375 C-367.14136135 315.70022611 -368.96953296 313.75880614 -371.2734375 311.5390625 C-373.99239892 309.11537291 -376.53499296 308.11141735 -380 307 C-382.28867185 307.24091283 -383.38430857 307.38430857 -385 309 C-388.00331018 309.14193337 -390.99217134 309.04236378 -394 309 C-394.33 306.03 -394.66 303.06 -395 300 C-396.175625 299.979375 -397.35125 299.95875 -398.5625 299.9375 C-403.11541032 299.33586542 -405.70677208 297.53478371 -408.7890625 294.1875 C-410.9954436 290.20177931 -410.02207724 286.26867555 -409 282 C-411.475 280.515 -411.475 280.515 -414 279 C-413.67 277.68 -413.34 276.36 -413 275 C-409.04 275 -405.08 275 -401 275 C-401 274.34 -401 273.68 -401 273 C-400.01 272.67 -399.02 272.34 -398 272 C-396.41464025 269.28570974 -396.41464025 269.28570974 -395 266.0625 C-392.32418525 260.2161235 -392.32418525 260.2161235 -389 258 C-385.16894689 258.3022366 -382.40857716 260.56274116 -379.3125 262.6875 C-378.25675781 263.40421875 -377.20101562 264.1209375 -376.11328125 264.859375 C-374.19248368 266.18007396 -372.27294207 267.5026043 -370.35546875 268.828125 C-369.57816406 269.35921875 -368.80085938 269.8903125 -368 270.4375 C-367.319375 270.91058594 -366.63875 271.38367188 -365.9375 271.87109375 C-363.95401059 273.02679625 -362.24341471 273.56433688 -360 274 C-359.81824219 273.26523437 -359.63648438 272.53046875 -359.44921875 271.7734375 C-357.45772634 267.96222561 -354.47230644 266.58532829 -350.8125 264.625 C-346.35954602 262.14312839 -342.62534675 260.01951277 -339.375 256 C-336.46749979 252.78018519 -334.09323391 252.43144165 -329.8125 252.0625 C-327.54217928 252.00994628 -325.27090544 251.9896777 -323 252 C-321.865625 251.96390625 -320.73125 251.9278125 -319.5625 251.890625 C-313.59301252 251.7471277 -313.59301252 251.7471277 -311 252 C-310.34 252.66 -309.68 253.32 -309 254 C-306.67724823 254.40047444 -304.34260643 254.7397104 -302 255 C-302.639375 254.030625 -303.27875 253.06125 -303.9375 252.0625 C-307.17598816 245.43187277 -308.26735519 237.28234877 -307 230 C-303.67762257 223.54580544 -297.9854985 219.93826698 -292.125 215.9375 C-287.51171261 212.75945758 -285.84074371 210.562202 -284.6015625 205.15234375 C-283.93852053 202.78003125 -283.0184332 201.42246074 -281.5 199.5 C-275.85405523 192.12632219 -275.63058997 184.2256708 -275.9375 175.25 C-275.9976793 173.2346337 -276.04878512 171.21897149 -276.08984375 169.203125 C-276.11941162 168.32301758 -276.14897949 167.44291016 -276.17944336 166.53613281 C-275.97277944 163.61528282 -275.34232943 161.59982254 -274 159 C-269.29448677 155.65184636 -266.83100868 154.77763102 -261 155 C-261.03552979 154.36908447 -261.07105957 153.73816895 -261.10766602 153.08813477 C-261.26467409 150.24652446 -261.4136919 147.404551 -261.5625 144.5625 C-261.61857422 143.56927734 -261.67464844 142.57605469 -261.73242188 141.55273438 C-261.78076172 140.60849609 -261.82910156 139.66425781 -261.87890625 138.69140625 C-261.9260376 137.81685791 -261.97316895 136.94230957 -262.02172852 136.04125977 C-262 134 -262 134 -261 133 C-260.81617544 131.58776052 -260.67765727 130.16948956 -260.5625 128.75 C-260.19799406 125.13911301 -259.48932678 122.32908338 -258 119 C-257.773125 117.948125 -257.54625 116.89625 -257.3125 115.8125 C-255.71259915 110.45579494 -253.37530474 105.57979479 -249 102 C-245.20393704 101.41862099 -241.92387635 101.54440343 -238.109375 101.94140625 C-235.02982405 102.33443933 -235.02982405 102.33443933 -233.26953125 100.58984375 C-232.85058594 100.06519531 -232.43164062 99.54054688 -232 99 C-230.4840625 98.505 -230.4840625 98.505 -228.9375 98 C-225.71801108 97.23665888 -225.71801108 97.23665888 -224 94 C-221.375 93.8125 -221.375 93.8125 -219 94 C-218.3125 95.6875 -218.3125 95.6875 -218 98 C-219.25 100.6875 -219.25 100.6875 -221 103 C-222.485 103.495 -222.485 103.495 -224 104 C-224.33 104.66 -224.66 105.32 -225 106 C-222.03 105.34 -219.06 104.68 -216 104 C-216 104.66 -216 105.32 -216 106 C-215.34 106 -214.68 106 -214 106 C-214.20625 104.88625 -214.4125 103.7725 -214.625 102.625 C-214.74875 101.42875 -214.8725 100.2325 -215 99 C-212.55649051 96.55649051 -211.88683648 96.74372884 -208.53515625 96.734375 C-207.21161133 96.73050781 -207.21161133 96.73050781 -205.86132812 96.7265625 C-204.93771484 96.73429687 -204.01410156 96.74203125 -203.0625 96.75 C-202.14275391 96.74226563 -201.22300781 96.73453125 -200.27539062 96.7265625 C-198.94991211 96.73042969 -198.94991211 96.73042969 -197.59765625 96.734375 C-196.78820557 96.73663086 -195.97875488 96.73888672 -195.14477539 96.74121094 C-193 97 -193 97 -190 99 C-190 100.98 -190 102.96 -190 105 C-185.05 105.33 -180.1 105.66 -175 106 C-175 105.34 -175 104.68 -175 104 C-173.75283203 103.87044922 -173.75283203 103.87044922 -172.48046875 103.73828125 C-171.39378906 103.59777344 -170.30710937 103.45726562 -169.1875 103.3125 C-168.10855469 103.18488281 -167.02960938 103.05726563 -165.91796875 102.92578125 C-162.81792269 102.26598002 -162.81792269 102.26598002 -161.2734375 99.55078125 C-160.64308594 98.28814453 -160.64308594 98.28814453 -160 97 C-158.35704805 95.63755204 -156.69175663 94.30135125 -155 93 C-152.69328085 90.28450846 -152.69328085 90.28450846 -153.375 87.8125 C-153.58125 86.884375 -153.7875 85.95625 -154 85 C-154.63448276 77.95172414 -154.63448276 77.95172414 -152.75 75.125 C-151 74 -151 74 -149.01953125 73.19140625 C-146.48944739 71.69880359 -146.0120296 70.51510475 -144.9375 67.8125 C-144.60878906 67.00296875 -144.28007812 66.1934375 -143.94140625 65.359375 C-143.63074219 64.58078125 -143.32007813 63.8021875 -143 63 C-142.46375 61.865625 -141.9275 60.73125 -141.375 59.5625 C-137.70021373 50.04146284 -137.47528711 40.08108966 -137 30 C-131.9674698 30.97025476 -129.52219248 34.18318962 -126.3046875 38.0234375 C-123.34152642 40.5647248 -120.34313073 41.4280752 -116.625 42.3125 C-115.91384033 42.48418701 -115.20268066 42.65587402 -114.4699707 42.83276367 C-107.45550263 44.36749586 -101.09941271 43.80425891 -94 43 C-90.66867726 42.76987347 -87.33512461 42.60206733 -84 42.4375 C-82.79766724 42.37236206 -82.79766724 42.37236206 -81.57104492 42.3059082 C-77.37506016 42.08478815 -73.20364453 41.95284373 -69 42 C-68.67 38.7 -68.34 35.4 -68 32 C-61.44995746 29.30292366 -56.11513755 27.46300849 -49 28 C-49.66 25.69 -50.32 23.38 -51 21 C-49.02 21.99 -49.02 21.99 -47 23 C-47 23.66 -47 24.32 -47 25 C-46.49984375 24.67257813 -45.9996875 24.34515625 -45.484375 24.0078125 C-42.08207896 22.6276358 -38.85649349 22.78637162 -35.25 22.875 C-34.20392578 22.88853516 -34.20392578 22.88853516 -33.13671875 22.90234375 C-31.42433042 22.92580112 -29.71211996 22.96166896 -28 23 C-28 22.34 -28 21.68 -28 21 C-26.44424022 20.15415002 -24.8800388 19.32381601 -23.3125 18.5 C-22.44238281 18.0359375 -21.57226562 17.571875 -20.67578125 17.09375 C-17.88211171 15.95181208 -15.98370887 15.78495792 -13 16 C-13.33 14.02 -13.66 12.04 -14 10 C-13.195625 9.71125 -12.39125 9.4225 -11.5625 9.125 C-8.8673532 8.26737432 -8.8673532 8.26737432 -8 6 C-7.34 6 -6.68 6 -6 6 C-6 5.01 -6 4.02 -6 3 C-4.02 2.67 -2.04 2.34 0 2 C0 1.34 0 0.68 0 0 Z " fill="#010101" transform="translate(506,72)"/>
<path d="M0 0 C0.33 0.99 0.66 1.98 1 3 C0.34 3 -0.32 3 -1 3 C0.63739315 8.20988728 3.55376114 11.61159416 8.3125 14.3125 C8.869375 14.539375 9.42625 14.76625 10 15 C10 15.99 10 16.98 10 18 C10.66 18 11.32 18 12 18 C12.79275148 19.4160599 13.58415312 20.83287553 14.375 22.25 C14.81585937 23.03890625 15.25671875 23.8278125 15.7109375 24.640625 C16.13632812 25.41921875 16.56171875 26.1978125 17 27 C17.3815625 27.6496875 17.763125 28.299375 18.15625 28.96875 C19.2128686 31.51246146 19.19719532 33.50657798 19.125 36.25 C19.10695313 37.14203125 19.08890625 38.0340625 19.0703125 38.953125 C19.04710937 39.62859375 19.02390625 40.3040625 19 41 C16.38348981 37.75116651 15.10992754 34.82900148 13.84375 30.90234375 C13.09082046 28.8960988 13.09082046 28.8960988 11.37890625 27.3828125 C10.92386719 26.92648437 10.46882812 26.47015625 10 26 C10.4375 23.9375 10.4375 23.9375 11 22 C8.61650879 19.61650879 7.99332392 19.76841228 4.75 19.625 C0.17448744 19.16818554 -2.6116768 18.30568118 -6 15 C-7.05729006 12.03754476 -7.61378302 9.11637153 -8 6 C-6.35 6 -4.7 6 -3 6 C-3 4.68 -3 3.36 -3 2 C-2.01 2 -1.02 2 0 2 C0 1.34 0 0.68 0 0 Z " fill="#E1E1E1" transform="translate(707,270)"/>
<path d="M0 0 C2.97 0.495 2.97 0.495 6 1 C5.125 6.875 5.125 6.875 4 8 C4.020625 9.051875 4.04125 10.10375 4.0625 11.1875 C3.98725498 15.77744609 3.43668101 19.34229114 0.375 22.875 C-0.07875 23.24625 -0.5325 23.6175 -1 24 C-1.0825 22.7625 -1.165 21.525 -1.25 20.25 C-1.7238362 16.1649576 -3.05449822 14.84731838 -6 12 C-6.13084789 7.15862818 -2.84766594 3.64627336 0 0 Z " fill="#E7E7E7" transform="translate(271,611)"/>
<path d="M0 0 C0.99 0.33 1.98 0.66 3 1 C0.04347826 9.86956522 0.04347826 9.86956522 -4 13 C-4.66 13 -5.32 13 -6 13 C-5.63076923 5.73846154 -5.63076923 5.73846154 -2.4375 2 C-1.633125 1.34 -0.82875 0.68 0 0 Z " fill="#1B1B1B" transform="translate(675,633)"/>
<path d="M0 0 C0 1.98 0 3.96 0 6 C-4.94367454 7.20577428 -8.20862412 6.6290678 -13 5 C-11.66666667 4.33333333 -10.33333333 3.66666667 -9 3 C-7.989375 2.46375 -6.97875 1.9275 -5.9375 1.375 C-3 0 -3 0 0 0 Z " fill="#232323" transform="translate(225,624)"/>
<path d="M0 0 C1.84765625 0.33984375 1.84765625 0.33984375 4.0625 0.9375 C5.16271484 1.22947266 5.16271484 1.22947266 6.28515625 1.52734375 C7.13400391 1.76130859 7.13400391 1.76130859 8 2 C5.24479785 4.95929119 2.53372712 7.03681826 -1 9 C-1 8.34 -1 7.68 -1 7 C-1.66 6.67 -2.32 6.34 -3 6 C-1.125 1.125 -1.125 1.125 0 0 Z " fill="#181818" transform="translate(629,672)"/>
<path d="M0 0 C-0.3125 3.375 -0.3125 3.375 -1 7 C-1.99 7.66 -2.98 8.32 -4 9 C-7 4.25 -7 4.25 -7 2 C-8.32 1.67 -9.64 1.34 -11 1 C-7.27569643 0.30710631 -3.78916254 -0.11144596 0 0 Z " fill="#252525" transform="translate(436,114)"/>
<path d="M0 0 C0.66 0 1.32 0 2 0 C2 3.96 2 7.92 2 12 C-0.97 11.505 -0.97 11.505 -4 11 C-3.67 9.68 -3.34 8.36 -3 7 C-2.34 7 -1.68 7 -1 7 C-0.67 4.69 -0.34 2.38 0 0 Z " fill="#DFDFDF" transform="translate(696,554)"/>
<path d="M0 0 C-0.125 1.8125 -0.125 1.8125 -1 4 C-4.0625 5.75 -4.0625 5.75 -7 7 C-7.99 5.02 -8.98 3.04 -10 1 C-6.56484998 0.37542727 -3.50935186 0 0 0 Z " fill="#0C0C0C" transform="translate(56,493)"/>
<path d="M0 0 C2.00720923 0.28674418 4.0085944 0.61866701 6 1 C6 2.32 6 3.64 6 5 C5.01 5 4.02 5 3 5 C2.67 5.99 2.34 6.98 2 8 C1.67 7.34 1.34 6.68 1 6 C0.34 6 -0.32 6 -1 6 C-1.042721 4.33388095 -1.04063832 2.66617115 -1 1 C-0.67 0.67 -0.34 0.34 0 0 Z " fill="#DDDDDD" transform="translate(739,442)"/>
<path d="M0 0 C1.32 0.66 2.64 1.32 4 2 C3.67 2.66 3.34 3.32 3 4 C2.34 4 1.68 4 1 4 C1.33 5.32 1.66 6.64 2 8 C0.35 8.33 -1.3 8.66 -3 9 C-3.36923077 3.46153846 -3.36923077 3.46153846 -1.5 1.125 C-1.005 0.75375 -0.51 0.3825 0 0 Z " fill="#0F0F0F" transform="translate(229,614)"/>
<path d="M0 0 C0.66 0.33 1.32 0.66 2 1 C1.34 1.66 0.68 2.32 0 3 C-0.64767793 5.57061311 -0.64767793 5.57061311 -1 8 C-0.38125 7.505 0.2375 7.01 0.875 6.5 C3 5 3 5 5 5 C4.67 6.32 4.34 7.64 4 9 C1.69 9.33 -0.62 9.66 -3 10 C-3.36923077 4.58461538 -3.36923077 4.58461538 -1.5 1.625 C-1.005 1.08875 -0.51 0.5525 0 0 Z " fill="#3A3A3A" transform="translate(749,438)"/>
<path d="M0 0 C1.98 0.66 3.96 1.32 6 2 C5.67 3.32 5.34 4.64 5 6 C4.34 6 3.68 6 3 6 C3 7.65 3 9.3 3 11 C1.23537317 7.91190305 1 6.76687864 1 3 C0.34 3 -0.32 3 -1 3 C-0.67 2.01 -0.34 1.02 0 0 Z " fill="#AFAFAF" transform="translate(748,564)"/>
<path d="M0 0 C0.33 0.66 0.66 1.32 1 2 C0.00102287 4.99693138 -0.65130253 6.02709413 -3 8 C-3.66 8 -4.32 8 -5 8 C-5 8.66 -5 9.32 -5 10 C-5.66 10 -6.32 10 -7 10 C-7.4375 7.8125 -7.4375 7.8125 -7 5 C-4.86004673 3.01558218 -2.49824035 1.4976696 0 0 Z " fill="#7A7A7A" transform="translate(678,382)"/>
<path d="M0 0 C0 3 0 3 -1.57421875 4.68359375 C-2.27160156 5.26238281 -2.96898437 5.84117187 -3.6875 6.4375 C-4.41324219 7.0459375 -5.13898437 7.654375 -5.88671875 8.28125 C-10.92432432 12.37837838 -10.92432432 12.37837838 -13 14 C-13.66 13.67 -14.32 13.34 -15 13 C-13.43910974 11.58155991 -11.8762111 10.16532975 -10.3125 8.75 C-9.44238281 7.96109375 -8.57226562 7.1721875 -7.67578125 6.359375 C-5.17579137 4.15500436 -2.62054272 2.05866059 0 0 Z " fill="#D5D5D5" transform="translate(674,642)"/>
<path d="M0 0 C3.93208182 3.25413668 5.9145134 7.05951428 7 12 C6.67 12.99 6.34 13.98 6 15 C4.99267601 13.06629769 3.99436712 11.12789694 3 9.1875 C2.443125 8.10855469 1.88625 7.02960937 1.3125 5.91796875 C0 3 0 3 0 0 Z " fill="#A8A8A8" transform="translate(553,620)"/>
<path d="M0 0 C0.33 0 0.66 0 1 0 C1.0270043 1.45823212 1.04639787 2.91660675 1.0625 4.375 C1.07410156 5.18710937 1.08570313 5.99921875 1.09765625 6.8359375 C1 9 1 9 0 11 C-0.66 10.67 -1.32 10.34 -2 10 C-2.99 9.67 -3.98 9.34 -5 9 C-5 8.34 -5 7.68 -5 7 C-4.34 7 -3.68 7 -3 7 C-3 6.01 -3 5.02 -3 4 C-2.34 4 -1.68 4 -1 4 C-0.67 2.68 -0.34 1.36 0 0 Z " fill="#616161" transform="translate(778,472)"/>
<path d="M0 0 C-0.66 1.32 -1.32 2.64 -2 4 C-1.01 5.485 -1.01 5.485 0 7 C-1.65 6.67 -3.3 6.34 -5 6 C-5.33 7.32 -5.66 8.64 -6 10 C-5.67 7.03 -5.34 4.06 -5 1 C-2 0 -2 0 0 0 Z " fill="#323232" transform="translate(443,103)"/>
<path d="M0 0 C0.33 0.99 0.66 1.98 1 3 C1.66 3 2.32 3 3 3 C3.66 4.65 4.32 6.3 5 8 C4.01 8.33 3.02 8.66 2 9 C1.67 9.66 1.34 10.32 1 11 C1.20625 10.38125 1.4125 9.7625 1.625 9.125 C1.74875 8.42375 1.8725 7.7225 2 7 C0.04783565 5.04783565 -1.53199953 4.15173355 -4 3 C-2.68 3 -1.36 3 0 3 C0 2.01 0 1.02 0 0 Z " fill="#6B6B6B" transform="translate(716,285)"/>
<path d="M0 0 C2.8992226 0.46761655 3.86675182 0.86675182 6 3 C5.67 3.99 5.34 4.98 5 6 C5 5.34 5 4.68 5 4 C3.02 4.99 3.02 4.99 1 6 C0.34 4.35 -0.32 2.7 -1 1 C-0.67 0.67 -0.34 0.34 0 0 Z " fill="#212121" transform="translate(149,380)"/>
<path d="M0 0 C1.63564372 3.27128745 0.99248129 6.600081 0 10 C-2.375 12.5625 -2.375 12.5625 -5 14 C-5.99 13.67 -6.98 13.34 -8 13 C-6.5459375 12.2575 -6.5459375 12.2575 -5.0625 11.5 C-1.82004153 8.85309513 -1.58666413 8.6458521 -1.1875 4.8125 C-1.125625 3.554375 -1.06375 2.29625 -1 1 C-0.67 0.67 -0.34 0.34 0 0 Z " fill="#C1C1C1" transform="translate(330,509)"/>
<path d="M0 0 C0.33 0 0.66 0 1 0 C1.7833257 7.98992213 1.7833257 7.98992213 -1.375 12.0625 C-4 14 -4 14 -6 14 C-4.63016497 10.83884224 -4.0109362 10.0072908 -1 8 C-0.42251197 6.03638136 -0.42251197 6.03638136 -0.3125 3.875 C-0.209375 2.59625 -0.10625 1.3175 0 0 Z " fill="#C9C9C9" transform="translate(308,528)"/>
<path d="M0 0 C2.475 0.99 2.475 0.99 5 2 C4.67 3.65 4.34 5.3 4 7 C3.67 6.34 3.34 5.68 3 5 C2.01 5 1.02 5 0 5 C0 3.35 0 1.7 0 0 Z " fill="#2D2D2D" transform="translate(790,512)"/>
<path d="M0 0 C-0.66 1.32 -1.32 2.64 -2 4 C-2.33 3.34 -2.66 2.68 -3 2 C-3.7425 2.350625 -4.485 2.70125 -5.25 3.0625 C-8.21122875 4.0720098 -9.12062561 3.87980884 -12 3 C-10.75336669 2.49166409 -9.50250613 1.99368855 -8.25 1.5 C-7.55390625 1.2215625 -6.8578125 0.943125 -6.140625 0.65625 C-4 0 -4 0 0 0 Z " fill="#A4A4A4" transform="translate(240,619)"/>
<path d="M0 0 C0.598125 0.20625 1.19625 0.4125 1.8125 0.625 C0.54384318 3.16231364 -0.68459121 3.41146846 -3.1875 4.625 C-3.8475 5.285 -4.5075 5.945 -5.1875 6.625 C-5.375 4.25 -5.375 4.25 -5.1875 1.625 C-2.1875 -0.375 -2.1875 -0.375 0 0 Z " fill="#C0C0C0" transform="translate(691.1875,567.375)"/>
<path d="M0 0 C0.33 0 0.66 0 1 0 C1 2.97 1 5.94 1 9 C0.34 9 -0.32 9 -1 9 C-1.625 6.1875 -1.625 6.1875 -2 3 C-1.34 2.01 -0.68 1.02 0 0 Z " fill="#DCDCDC" transform="translate(154,386)"/>
<path d="M0 0 C0 3 0 3 -1.53125 4.82421875 C-2.1809375 5.43910156 -2.830625 6.05398438 -3.5 6.6875 C-4.1496875 7.31011719 -4.799375 7.93273437 -5.46875 8.57421875 C-5.9740625 9.04472656 -6.479375 9.51523437 -7 10 C-7.33 9.01 -7.66 8.02 -8 7 C-5.36 4.69 -2.72 2.38 0 0 Z " fill="#CACACA" transform="translate(683,353)"/>
<path d="M0 0 C1.65 0 3.3 0 5 0 C5 0.99 5 1.98 5 3 C5.66 3.33 6.32 3.66 7 4 C6.67 4.66 6.34 5.32 6 6 C5.01 6 4.02 6 3 6 C2.67 5.01 2.34 4.02 2 3 C2.66 3 3.32 3 4 3 C4 2.34 4 1.68 4 1 C2.68 0.67 1.36 0.34 0 0 Z " fill="#777777" transform="translate(741,436)"/>
<path d="M0 0 C0.66 0 1.32 0 2 0 C1.75 1.875 1.75 1.875 1 4 C-1.0625 5.25 -1.0625 5.25 -3 6 C-2.42655063 3.13275314 -2.1385485 2.1385485 0 0 Z " fill="#202020" transform="translate(677,379)"/>
<path d="M0 0 C1.98 0.495 1.98 0.495 4 1 C3.67 2.32 3.34 3.64 3 5 C1.68 5 0.36 5 -1 5 C-0.67 3.35 -0.34 1.7 0 0 Z " fill="#4B4B4B" transform="translate(778,536)"/>
</svg>
